<svg id="BG" xmlns="http://www.w3.org/2000/svg" xmlns:xlink="http://www.w3.org/1999/xlink" viewBox="0 0 253 461"><defs><style>.cls-1,.cls-11,.cls-5{fill:#fff;}.cls-2,.cls-4,.cls-9{fill:none;}.cls-2{stroke:#adbacc;stroke-opacity:0.15;}.cls-2,.cls-9{stroke-width:2px;}.cls-3{fill:url(#linear-gradient);}.cls-4{stroke:#f4f4f4;}.cls-4,.cls-9{stroke-miterlimit:10;}.cls-5{font-size:39.65px;font-family:BrandonGrotesque-Light, Brandon Grotesque;}.cls-6{letter-spacing:0em;}.cls-7{letter-spacing:-0.02em;}.cls-8{fill:#2dd6a5;}.cls-9{stroke:#3e82f7;}.cls-10{fill:#3e82f7;}.cls-11{font-size:22.38px;font-family:BrandonGrotesque-Bold, Brandon Grotesque;font-weight:700;}.cls-12{letter-spacing:-0.04em;}.cls-13{letter-spacing:0em;}</style><linearGradient id="linear-gradient" x1="126.5" y1="238.65" x2="126.5" y2="104.66" gradientUnits="userSpaceOnUse"><stop offset="0" stop-color="#3e82f7"/><stop offset="1" stop-color="#2dd6a5"/></linearGradient></defs><title>screen-roundups-roundup</title><rect class="cls-1" width="253" height="461" rx="5" ry="5"/><rect class="cls-2" x="1" y="1" width="251" height="459" rx="4" ry="4"/><path class="cls-3" d="M71.82,151.81a67,67,0,1,0,109.36,0Z"/><circle class="cls-4" cx="126.5" cy="190.5" r="77"/><text class="cls-5" transform="translate(80.27 199.94)"><tspan class="cls-6">$</tspan><tspan x="20.93" y="0">9</tspan><tspan class="cls-7" x="42.86" y="0">.</tspan><tspan x="50.95" y="0">78</tspan></text><rect class="cls-8" x="64.17" y="331" width="124.67" height="13.33" rx="0.83" ry="0.83"/><rect class="cls-9" x="64.17" y="354" width="124.67" height="13.33" rx="0.83" ry="0.83"/><rect class="cls-10" x="8.5" y="401.5" width="236" height="50" rx="2.25" ry="2.25"/><text class="cls-11" transform="translate(81.44 435.7)">DON<tspan class="cls-12" x="51.72" y="0">A</tspan><tspan class="cls-13" x="65.74" y="0">TE</tspan></text><path class="cls-10" d="M106.75,33.34c0-.09.07-.53.1-.62a8.23,8.23,0,0,1,.32-1,3.53,3.53,0,0,1,.19-.36,4.2,4.2,0,0,1,.68-.75l.39-.24c.17-.12.32-.26.48-.34a2.38,2.38,0,0,1,.77-.15l.55-.07h.15a5.08,5.08,0,0,1,1.28.15.6.6,0,0,1,.43.63c0,.09-.05.44-.05.53s.07.36.07.43a.62.62,0,0,1-.07.31.61.61,0,0,1-.39.24,2.22,2.22,0,0,1-.36-.07,2.47,2.47,0,0,1-.38-.1s-.12,0-.29,0a2.36,2.36,0,0,0-.79.17,1,1,0,0,0-.24.17c-.24.17-.27.2-.36.38a7.17,7.17,0,0,0-.34,1,1.62,1.62,0,0,0,0,.41,2.55,2.55,0,0,0,0,.36,6,6,0,0,0,.21,1.14,2.49,2.49,0,0,0,.19.38c.07.12.1.24.17.36a1.19,1.19,0,0,0,.19.22l.24.15.29.22.65.19a2.1,2.1,0,0,0,.46,0l.46,0c.39,0,.44.43.46.53s0,.34,0,.39.07.5.07.6a.53.53,0,0,1-.36.56,2.73,2.73,0,0,1-1.13.15.77.77,0,0,1-.19,0l-.32-.07a3.14,3.14,0,0,1-.39-.09l-.19-.1-.62-.26c-.09-.05-.51-.32-.62-.38a1.89,1.89,0,0,1-.46-.39,3.57,3.57,0,0,1-.89-1.33,9.41,9.41,0,0,1-.29-1c0-.24-.12-.65-.12-.7a6.63,6.63,0,0,1,0-.82v-.36a2,2,0,0,1,.08-.48Zm6.9-6.3c.19,0,.38.07.55.07s.46-.07.55-.07c.56,0,.6.43.6.72v.19c0,.21-.07.43-.09.63a9.39,9.39,0,0,0-.05,1.25c0,.09,0,.5.05.6,0,.27,0,.46.2.46a.52.52,0,0,0,.34-.17c.09-.09.15-.21.24-.29a1.46,1.46,0,0,1,.53-.31,4,4,0,0,1,1-.15,2.28,2.28,0,0,1,1,.29,3.24,3.24,0,0,1,.82.84,3.55,3.55,0,0,1,.26.75,3.25,3.25,0,0,1,0,.39c0,.09.05.44.05.53s0,.63,0,.75,0,.44,0,.51,0,.38,0,.44,0,.31,0,.46v.27c0,.05,0,.31,0,.36s0,.36,0,.43,0,.31,0,.36-.07.51-.07.62,0,.24,0,.27a1.46,1.46,0,0,1,0,.27,1.52,1.52,0,0,0,.05.38,3.43,3.43,0,0,0,0,.39s0,.17,0,.21a1,1,0,0,1-.12.43.71.71,0,0,1-.62.22l-.44,0c-.17,0-.32,0-.5,0a.63.63,0,0,1-.6-.29,2,2,0,0,1-.12-.51,1.17,1.17,0,0,1,0-.22,6.31,6.31,0,0,0,.12-1.18c0-.17-.07-1-.07-1.13s0-.44,0-.67v-.7c0-.07,0-.15,0-.24a3.07,3.07,0,0,1-.05-.39s0-.26,0-.31a3.54,3.54,0,0,0-.07-.38.58.58,0,0,0-.19-.43.73.73,0,0,0-.7-.31c-.31,0-.48.14-.73.48a2.93,2.93,0,0,0-.41.8,6.31,6.31,0,0,0,0,.8c0,.19,0,.39,0,.58s0,.39,0,.6.05.48.05.58,0,.32,0,.38V37c0,.07,0,.38,0,.44s.14,1,.14,1c0,.41-.1.68-.53.68-.09,0-.48-.07-.56-.07s-.41.07-.62.07c-.62,0-.67-.6-.67-.85a7.76,7.76,0,0,1,.09-.87c0-.12,0-.22,0-.32,0-.31,0-.6,0-.91,0-.07,0-.46,0-.55s-.07-.58-.07-.7.05-.36.05-.38V34c0-.05,0-.29,0-.34s0-.48,0-.58,0-.43,0-.65c0,0,0-1.18,0-1.2s0-.48,0-.58v-.32c0-.05,0-.36,0-.41s0-.26,0-.38,0-.38,0-.44,0-.38,0-.46S113,28,113,27.87c0-.31.15-.84.62-.84Zm7.69.29a.49.49,0,0,1,.46-.24c.22,0,.44.07.67.07s.48-.07.58-.07a.43.43,0,0,1,.48.5c0,.09,0,.44,0,.51s0,.53,0,.63c0,.53-.46.53-.68.53s-.46-.07-.55-.07-.36.07-.53.07a.64.64,0,0,1-.31-.09.39.39,0,0,1-.2-.38V28.5c0-.09,0-.46,0-.55,0-.44,0-.53.12-.63Zm.32,2.72c.1,0,.62.07.74.07s.49-.05.75-.05a.39.39,0,0,1,.43.39s0,.09,0,.14-.08,1.54-.08,1.5c0,.26,0,.48,0,.7s-.05.56-.05.67.05.56.05.67,0,.29,0,.43,0,.46,0,.55,0,.39,0,.6,0,.48,0,.56,0,.34,0,.41,0,.34,0,.41,0,.31,0,.36a1.37,1.37,0,0,0,0,.27v.38c0,.07.05.43.05.5s0,.55-.44.55c-.09,0-.53-.07-.63-.07s-.58.07-.7.07a.58.58,0,0,1-.53-.26c-.05-.09-.07-.19-.07-.72v-.1c0-.24.1-.5.12-.75v-.55c0-.15-.05-.87-.05-1s0-.44,0-.53,0-.44,0-.53,0-.39,0-.48,0-.34,0-.41,0-.38,0-.44v-.56c0-.12,0-.68,0-.8a1.09,1.09,0,0,0,0-.24,1,1,0,0,1,0-.22,1.32,1.32,0,0,1,0-.26c0-.07-.05-.43-.05-.5,0-.29,0-.7.46-.7Zm4.17-3c.09,0,.48.07.56.07a1.88,1.88,0,0,0,.31-.05h.21a.85.85,0,0,1,.34,0,.54.54,0,0,1,.31.51c0,.15-.07.6-.07.62s-.07.24-.09.36-.07.74-.07.87.07,1.06.07,1.25c0,0,0,.56,0,.62,0,.21,0,.34,0,1.13,0,.14,0,.82,0,1s0,1,0,1.23,0,.44,0,.53,0,.32,0,.39,0,.46,0,.56v.73c0,.07,0,.41,0,.5s.17,1.08.17,1.2a1,1,0,0,1-.14.46.64.64,0,0,1-.41.14c-.1,0-.58-.09-.68-.09s-.56.1-.67.1a.47.47,0,0,1-.39-.24,2,2,0,0,1-.09-.75c0-.05.12-1,.12-1.2a3.49,3.49,0,0,0,0-.43s0-.22,0-.26,0-.34,0-.41v-.53c0-.09,0-.48,0-.56s.07-.56.07-.67,0-.72,0-.85c0-.31,0-.62,0-.85a2.93,2.93,0,0,0,0-.31c0-.15,0-.32,0-.5s.05-.48.05-.56-.05-.39-.05-.6,0-.56,0-.67,0-.48,0-.58,0-.38,0-.44-.07-.67-.07-.79c0-.36.08-1,.63-1Zm10.76,6.31c0,.1,0,.65,0,.79s0,.17-.05.27a.88.88,0,0,0,0,.21c0,.15.07.94.07,1.11s-.05.58-.05.68,0,.34,0,.39-.07.51-.07.62a6.14,6.14,0,0,0,.09.72,3,3,0,0,1,.1.36s0,.09,0,.14c0,.5-.25.55-.56.55H136a5.37,5.37,0,0,0-.55-.09c-.1,0-.56.1-.67.1a.39.39,0,0,1-.32-.15c-.07-.09-.07-.21-.14-.29a.27.27,0,0,0-.17-.09c-.12,0-.21.09-.43.24a2.22,2.22,0,0,1-.46.29,4.59,4.59,0,0,1-.94.17,2.44,2.44,0,0,1-.5-.07l-.53-.15-.38-.21a4,4,0,0,1-1.32-1.2,5.42,5.42,0,0,1-.78-1.79,11.2,11.2,0,0,1-.17-1.44,7.34,7.34,0,0,1,.32-1.78,8.44,8.44,0,0,1,.68-1.38l.17-.17.14-.21a3.32,3.32,0,0,1,.51-.44,3.06,3.06,0,0,1,1.52-.63l.65.07a3.81,3.81,0,0,1,.55.19,4.71,4.71,0,0,0,.68.39.42.42,0,0,0,.55-.21.66.66,0,0,0,.05-.36s0-.17,0-.21-.05-.58-.05-.68a2,2,0,0,0,0-.32c0-.12-.07-.22-.09-.34s0-.26,0-.31,0-.32,0-.39a1,1,0,0,1,.12-.46.39.39,0,0,1,.39-.21,2.21,2.21,0,0,1,.34,0l.32,0,.6-.05a.65.65,0,0,1,.53.27,3.3,3.3,0,0,1,0,.41,1.32,1.32,0,0,1,0,.26,4.66,4.66,0,0,0-.09.72c0,.05,0,.34,0,.39s0,.7,0,.82,0,.51,0,.6,0,.62,0,.73,0,.89,0,1.06v1h0Zm-5.76,1.33a4.14,4.14,0,0,0,.12.79c0,.07.05.39.07.46s.22.43.24.46a4.66,4.66,0,0,0,.6.55,4,4,0,0,0,.53.24s.39.07.46.07a1.1,1.1,0,0,0,.56-.09s.26-.19.32-.27.38-.61.43-.68a1.2,1.2,0,0,0,.17-.31,2.48,2.48,0,0,0,.2-1c0-.17,0-.34,0-.51s-.05-.41-.05-.5,0-.22,0-.26a2,2,0,0,0-.5-1.08c-.09-.09-.53-.34-.55-.36a2.44,2.44,0,0,0-.74-.15l-.36.05a.9.9,0,0,0-.53.19,1.84,1.84,0,0,0-.92,1.5c0,.05-.07.31-.07.36Zm7.57-3.13c0-.1-.1-.53-.1-.63a.78.78,0,0,1,.75-.8l.46,0c.09,0,.51-.07.62-.07a.35.35,0,0,1,.34.36v.22c0,.38,0,.5.19.5s.19-.09.27-.17.26-.36.32-.43a1.2,1.2,0,0,1,.84-.48c.26,0,.79,0,.79.55a2.82,2.82,0,0,1-.05.38,2.63,2.63,0,0,0-.09.65c0,.09.05.53.05.63,0,.38,0,.77-.48.77a.58.58,0,0,1-.17,0l-.24-.09a1,1,0,0,0-.22,0,.63.63,0,0,0-.46.2,2,2,0,0,0-.48,1.4,1.32,1.32,0,0,1-.05.27c0,.09-.05.17-.07.26a3,3,0,0,0-.05.68c0,.07,0,.44,0,.55s0,.58,0,.68,0,.48,0,.58a2.54,2.54,0,0,0,.07.62,2.15,2.15,0,0,1,.09.48.49.49,0,0,1-.56.53l-.58-.05-.53,0a.58.58,0,0,1-.68-.62c0-.15.07-.91.07-1.09s0-.87,0-1,0-.44,0-.53,0-.31,0-.46,0-.39,0-.46,0-.51,0-.6a3.88,3.88,0,0,0,0-.44s0-.27,0-.32,0-.41,0-.48c0-.24,0-.48,0-.73l-.05-.82Zm4.89,1.67a4.61,4.61,0,0,1,.2-.84c0-.09.09-.21.17-.38s.1-.27.17-.39a2.86,2.86,0,0,1,.8-1,2.67,2.67,0,0,1,1.11-.55l.34-.1a2.49,2.49,0,0,1,.73-.09l.58,0a3.11,3.11,0,0,1,.89.12l.7.31c.05,0,.55.38.58.43a4,4,0,0,1,.72,1.21,5.63,5.63,0,0,1,.26,1.5,1.18,1.18,0,0,1-.07.36.84.84,0,0,1-.26.44.85.85,0,0,1-.85.29h-.27l-.31,0-.48,0-.82,0h-.29l-.36,0-.48,0-.41,0c-.29,0-.41.41-.41.6a2.31,2.31,0,0,0,.29,1.23,1.58,1.58,0,0,0,1.59.92,2.26,2.26,0,0,0,.48,0,2.49,2.49,0,0,0,1-.44c.15-.12.29-.29.43-.38a.37.37,0,0,1,.19,0,.48.48,0,0,1,.44.38,4.92,4.92,0,0,0,.17.48c.07.17.24.29.32.44a.82.82,0,0,1,.1.41.84.84,0,0,1-.61.73c-.17.07-.34.1-.51.15s-.39.15-.58.21c0,0-.94.12-1.26.12a8,8,0,0,1-1.45-.12c-.05,0-.48-.15-.5-.15l-.31-.19A4,4,0,0,1,143.64,37a4.09,4.09,0,0,1-.34-1.11c0-.15-.07-.29-.09-.44s-.05-1.13-.05-1.35a3.68,3.68,0,0,1,.12-1ZM147,31.49l-.46.07a1.79,1.79,0,0,0-.46.26,1.36,1.36,0,0,0-.43.91.32.32,0,0,0,.1.26,1.43,1.43,0,0,0,.5.09l.26,0,.51.05.32-.05a.83.83,0,0,1,.21,0c.24,0,.68,0,.68-.27a1.3,1.3,0,0,0-.68-1.2,4.94,4.94,0,0,0-.5-.07H147Zm6.83,5.93a3.73,3.73,0,0,0,.05.62,3,3,0,0,1,.07.53c0,.34-.1.58-.68.58l-.56,0-.5,0c-.51,0-.6-.41-.6-.91a1.37,1.37,0,0,1,0-.27l.05-.31v-.43a3.31,3.31,0,0,0,0-.41c0-.05,0-.32,0-.38s0-.26,0-.31,0-.27,0-.34,0-.31,0-.46-.05-.5-.05-.6.05-.51.05-.62v-.63c0-.17,0-.32,0-.5s0-.58,0-.68,0-.48,0-.58a1.92,1.92,0,0,0-.05-.51,1.67,1.67,0,0,1,0-.29.77.77,0,0,1,.77-.87l.61.05.26,0,.25,0a.38.38,0,0,1,.14,0c.26.07.29.27.31.44.05.32.07.41.21.41s.14-.07.26-.26a1.62,1.62,0,0,1,1-.63,5.08,5.08,0,0,1,.74-.1,2.09,2.09,0,0,1,1.35.56,2.89,2.89,0,0,1,.56.75,1.88,1.88,0,0,1,.2,1.06c0,.07,0,.38,0,.44s0,.41,0,.48,0,.51,0,.62,0,.53,0,.63,0,.36,0,.43v.43c0,.14,0,.79,0,.92s-.05.46-.05.55,0,.24,0,.36v.31s.05.44.05.51a3.51,3.51,0,0,1,0,.41c0,.39,0,.73-.55.73l-.58,0-.63,0c-.51,0-.58-.41-.58-.8a1.59,1.59,0,0,1,0-.24,6.51,6.51,0,0,0,.09-1c0-.19-.05-1.09-.05-1.3s0-1.14,0-1.37a2.67,2.67,0,0,0-.05-.36v-.5c0-.75-.29-1-.46-1.09s-.2-.12-.48-.12-.46,0-.89.63a1.79,1.79,0,0,0-.34,1.33c0,.1,0,.55,0,.67s0,.5,0,.58.05.51.05.62,0,.43,0,.51v.7h0ZM161.78,27c.41,0,.41.7.41.79s0,.38,0,.56v.17c0,.21.08.41.08.63a2.63,2.63,0,0,1-.32,1,1.5,1.5,0,0,1-.67.53,2.35,2.35,0,0,1-.87.27.75.75,0,0,1-.26-.05c-.22-.07-.22-.15-.22-.24v-.26c0-.1,0-.1.21-.19a.69.69,0,0,0,.44-.63.39.39,0,0,0-.17-.31,1.09,1.09,0,0,1-.27-.15.67.67,0,0,1-.26-.51c0-.09-.05-.84-.05-.89,0-.46.14-.73.56-.73h.38a0,0,0,0,0,0,0h.14l.7-.05h.17ZM164,30.76a2.37,2.37,0,0,1,2.19-.91,5.78,5.78,0,0,1,.77,0,4.23,4.23,0,0,0,.46.05,4.3,4.3,0,0,1,.46,0c.77.15.77.5.77.84,0,.09,0,.5,0,.58s0,.36,0,.41a.5.5,0,0,1-.51.46,1.3,1.3,0,0,1-.72-.27,1.27,1.27,0,0,0-.38-.17.46.46,0,0,1-.15,0l-.21-.07-.41,0a.65.65,0,0,0-.67.73,1,1,0,0,0,.39.6,4.44,4.44,0,0,0,.7.31,2.74,2.74,0,0,1,.73.29,3.65,3.65,0,0,0,.44.2,2.87,2.87,0,0,1,.74.51,2,2,0,0,1,.68,1.06,2.76,2.76,0,0,1,.21,1.2,1.12,1.12,0,0,1,0,.24c0,.1-.19.68-.22.79a2.49,2.49,0,0,1-.44.73l-.2.19a.51.51,0,0,0-.14.14,1.89,1.89,0,0,1-1,.48,1.64,1.64,0,0,0-.29,0c-.12,0-.22.07-.34.09s-.24,0-.38,0l-.36,0a6.7,6.7,0,0,1-1-.1.64.64,0,0,0-.24-.07l-.19,0c-.07,0-.14-.09-.2-.1a3.83,3.83,0,0,0-.46-.09.57.57,0,0,1-.48-.55c0-.1,0-.19,0-.29a1.11,1.11,0,0,0,0-.22c0-.12,0-.67,0-.79a.67.67,0,0,1,.17-.55.37.37,0,0,1,.29-.14.9.9,0,0,1,.58.27c.12.1.24.22.36.31s.27.15.41.22a1.78,1.78,0,0,0,.75.17,2.33,2.33,0,0,0,.32,0,1.14,1.14,0,0,0,.44-.12,1,1,0,0,0,.46-.8,1,1,0,0,0-.27-.65,1.94,1.94,0,0,0-.55-.24l-.39-.19a1.7,1.7,0,0,0-.38-.22,1.42,1.42,0,0,0-.38-.14c-.26-.1-.92-.48-1-.51a2.47,2.47,0,0,1-.51-.62,6.47,6.47,0,0,1-.26-.65,4.12,4.12,0,0,1-.1-.79,2.28,2.28,0,0,1,.5-1.67ZM120.47,59.68a2.37,2.37,0,0,1,2.19-.91,5.77,5.77,0,0,1,.77,0,4.21,4.21,0,0,0,.46.05,4.19,4.19,0,0,1,.46,0c.77.15.77.5.77.84,0,.09,0,.5,0,.58s0,.36,0,.41a.5.5,0,0,1-.51.46,1.29,1.29,0,0,1-.72-.27,1.28,1.28,0,0,0-.38-.17.46.46,0,0,1-.15,0l-.2-.07-.41,0a.65.65,0,0,0-.67.73,1,1,0,0,0,.39.6,4.59,4.59,0,0,0,.7.31,2.73,2.73,0,0,1,.74.29,3.5,3.5,0,0,0,.44.2,2.89,2.89,0,0,1,.74.51,1.94,1.94,0,0,1,.68,1.06,2.77,2.77,0,0,1,.21,1.2,1.09,1.09,0,0,1,0,.24c0,.1-.19.68-.22.79a2.49,2.49,0,0,1-.44.74l-.21.19a.52.52,0,0,0-.14.14,1.91,1.91,0,0,1-1,.48,1.66,1.66,0,0,0-.29,0c-.12,0-.22.07-.34.09s-.24,0-.38,0l-.36,0a6.67,6.67,0,0,1-1-.1.65.65,0,0,0-.24-.07l-.19,0c-.07,0-.14-.09-.21-.1a3.61,3.61,0,0,0-.46-.09.57.57,0,0,1-.48-.55c0-.1,0-.19,0-.29a1,1,0,0,0,0-.22c0-.12,0-.67,0-.79a.66.66,0,0,1,.17-.55.37.37,0,0,1,.29-.14.9.9,0,0,1,.58.27c.12.1.24.22.36.31s.27.15.41.22a1.79,1.79,0,0,0,.75.17,2.32,2.32,0,0,0,.32,0,1.17,1.17,0,0,0,.45-.12,1,1,0,0,0,.46-.8,1,1,0,0,0-.27-.65,2,2,0,0,0-.55-.24l-.39-.19a1.69,1.69,0,0,0-.38-.22,1.39,1.39,0,0,0-.38-.14c-.26-.1-.92-.48-1-.51a2.49,2.49,0,0,1-.51-.62,6.4,6.4,0,0,1-.26-.65,4.12,4.12,0,0,1-.1-.79,2.28,2.28,0,0,1,.49-1.67Zm10.82-.91a3.14,3.14,0,0,1,.55.12,2.85,2.85,0,0,1,.6.17,1.79,1.79,0,0,1,.32.22,2.47,2.47,0,0,1,.91.92c.09.12.15.24.24.34a1.81,1.81,0,0,1,.17.27,3.08,3.08,0,0,1,.21.55,2.79,2.79,0,0,1,.19.46c0,.05,0,.12,0,.19s.1.36.12.53,0,.2,0,.31.05.41.05.61c0,0-.07,1-.07,1.06s-.07.46-.09.51a2.92,2.92,0,0,1-.12.36,2.48,2.48,0,0,1-.1.38c0,.1-.1.21-.15.32s-.07.21-.12.31-.53.67-.61.75l-.74.56a4.45,4.45,0,0,1-.91.38,10.42,10.42,0,0,1-1.23.15,5.18,5.18,0,0,1-.53,0,3.56,3.56,0,0,1-1.11-.31,2.35,2.35,0,0,1-.62-.32,3.52,3.52,0,0,1-1.43-2.17,10.08,10.08,0,0,1-.24-1.61c0-.19,0-.38,0-.56a2.88,2.88,0,0,1,.12-.87,3.63,3.63,0,0,0,.1-.44c.07-.22.15-.44.22-.67a5.75,5.75,0,0,1,1.06-1.64,5.33,5.33,0,0,1,1.13-.72,8.14,8.14,0,0,1,1.32-.17l.7,0Zm-.85,1.93c-.41.07-.44.07-.65.24A3,3,0,0,0,129,62.2c0,.1-.19.77-.21.85v.34a2.18,2.18,0,0,0,0,.34c0,.05,0,.27,0,.32s0,.27,0,.41a3.63,3.63,0,0,0,.14.41,1.37,1.37,0,0,0,.07.29,1.65,1.65,0,0,0,.15.29,1.3,1.3,0,0,0,.43.58,1.28,1.28,0,0,0,1,.34,1.61,1.61,0,0,0,.68-.15,1.3,1.3,0,0,0,.77-.7l.15-.22s.26-.65.26-.68a5.26,5.26,0,0,0,0-.79c0-.05,0-.29,0-.34a2.44,2.44,0,0,0-.05-.38v-.36a1.24,1.24,0,0,0-.19-.67c-.05-.14-.14-.27-.19-.41a1.46,1.46,0,0,0-.43-.67,1.35,1.35,0,0,0-.91-.36l-.31,0Zm5.38,1.56c0-.09.07-.53.1-.62a8.21,8.21,0,0,1,.32-1,3.52,3.52,0,0,1,.19-.36,4.18,4.18,0,0,1,.68-.75l.39-.24c.17-.12.32-.26.48-.34a2.36,2.36,0,0,1,.77-.15l.55-.07h.15a5.08,5.08,0,0,1,1.28.15.6.6,0,0,1,.43.63c0,.09-.05.44-.05.53s.07.36.07.43a.63.63,0,0,1-.07.31.61.61,0,0,1-.39.24,2.24,2.24,0,0,1-.36-.07,2.44,2.44,0,0,1-.37-.1s-.12,0-.29,0a2.34,2.34,0,0,0-.79.17,1,1,0,0,0-.24.17c-.24.17-.27.21-.36.38a7.3,7.3,0,0,0-.34,1,1.64,1.64,0,0,0,0,.41,2.55,2.55,0,0,0,0,.36,6.06,6.06,0,0,0,.2,1.15,2.5,2.5,0,0,0,.19.38c.07.12.1.24.17.36a1.16,1.16,0,0,0,.19.22l.24.15.29.22.65.19a2.15,2.15,0,0,0,.46,0l.46,0c.39,0,.44.43.46.53s0,.34,0,.39.07.5.07.6a.53.53,0,0,1-.36.56,2.73,2.73,0,0,1-1.13.15.8.8,0,0,1-.19,0l-.32-.07a3.34,3.34,0,0,1-.39-.09l-.19-.1-.62-.26c-.09-.05-.51-.32-.61-.38A1.89,1.89,0,0,1,137,67a3.59,3.59,0,0,1-.89-1.33,9.56,9.56,0,0,1-.29-1c0-.24-.12-.65-.12-.7a6.82,6.82,0,0,1,0-.82v-.36a2,2,0,0,1,.09-.48Zm6.4-6a.49.49,0,0,1,.46-.24c.22,0,.44.07.67.07s.48-.07.58-.07a.43.43,0,0,1,.48.5c0,.09,0,.44,0,.51s0,.53,0,.63c0,.53-.46.53-.68.53s-.46-.07-.55-.07-.36.07-.53.07a.64.64,0,0,1-.31-.09.39.39,0,0,1-.2-.38v-.29c0-.09,0-.46,0-.55C142.09,56.43,142.12,56.34,142.21,56.24Zm.32,2.72c.1,0,.62.07.74.07s.5-.05.75-.05a.39.39,0,0,1,.43.39s0,.09,0,.14-.09,1.54-.09,1.5c0,.26,0,.48,0,.7s-.05.56-.05.67.05.56.05.67,0,.29,0,.43,0,.46,0,.55,0,.39,0,.6,0,.48,0,.56,0,.34,0,.41,0,.34,0,.41,0,.31,0,.36a1.37,1.37,0,0,0,0,.27V67a4.82,4.82,0,0,1,.05.5c0,.07,0,.55-.44.55-.09,0-.53-.07-.63-.07s-.58.07-.7.07a.58.58,0,0,1-.53-.26c-.05-.09-.07-.19-.07-.72V67c0-.24.1-.5.12-.75v-.55c0-.15-.05-.87-.05-1s0-.44,0-.53,0-.44,0-.53,0-.39,0-.48,0-.34,0-.41,0-.38,0-.44v-.56c0-.12,0-.68,0-.8a1.07,1.07,0,0,0,0-.24,1.06,1.06,0,0,1,0-.22,1.37,1.37,0,0,1,0-.26c0-.07-.05-.43-.05-.5,0-.29,0-.7.46-.7Zm3.26,3.14a4.68,4.68,0,0,1,.21-.84c0-.09.09-.21.17-.38s.1-.27.17-.39a2.86,2.86,0,0,1,.8-1,2.68,2.68,0,0,1,1.11-.55l.34-.1a2.48,2.48,0,0,1,.74-.09l.58,0a3.08,3.08,0,0,1,.89.12l.7.31c.05,0,.55.38.58.43a4,4,0,0,1,.72,1.21,5.66,5.66,0,0,1,.26,1.5,1.15,1.15,0,0,1-.07.36.84.84,0,0,1-.26.44.85.85,0,0,1-.85.29h-.27l-.31,0-.48,0-.82,0h-.29l-.36,0-.48,0-.41,0c-.29,0-.41.41-.41.6a2.32,2.32,0,0,0,.29,1.23,1.58,1.58,0,0,0,1.59.92,2.32,2.32,0,0,0,.48,0,2.51,2.51,0,0,0,1-.44c.15-.12.29-.29.43-.38a.38.38,0,0,1,.19,0,.48.48,0,0,1,.44.38c0,.07.12.41.17.48s.24.29.32.44a.81.81,0,0,1,.1.41.84.84,0,0,1-.62.74c-.17.07-.34.1-.51.15s-.39.15-.58.2c0,0-.94.12-1.26.12a8,8,0,0,1-1.45-.12c-.05,0-.48-.15-.5-.15l-.31-.19A4,4,0,0,1,146.15,66a4.11,4.11,0,0,1-.34-1.11c0-.15-.07-.29-.09-.44s-.05-1.13-.05-1.35a3.75,3.75,0,0,1,.12-1Zm3.76-1.69a4.28,4.28,0,0,0-.46.07,1.75,1.75,0,0,0-.46.26,1.36,1.36,0,0,0-.43.91.32.32,0,0,0,.1.26,1.43,1.43,0,0,0,.5.09l.26,0,.51.05.33-.05a.83.83,0,0,1,.21,0c.24,0,.68,0,.68-.27a1.3,1.3,0,0,0-.68-1.2s-.36-.07-.5-.07h-.05Zm4.75-3.2c0-.31.22-.43.56-.5l.63-.07c.09,0,.41-.1.5-.1.32,0,.5.26.5.68a2.21,2.21,0,0,1,0,.32,2.15,2.15,0,0,0-.1.55c0,.7,0,.8.43.84a4.64,4.64,0,0,1,.5,0c.32,0,.58.07.58.38,0,.05-.05.6-.05.72s0,.41,0,.48a.49.49,0,0,1-.09.26,1.62,1.62,0,0,1-.7.17.58.58,0,0,0-.34.05c-.24.14-.26.63-.26.68s0,.41,0,.5-.05.38-.05.46,0,.27,0,.32,0,.26,0,.38,0,.39,0,.46,0,.29,0,.43,0,.38,0,.44v.12s0,.17,0,.21a1.11,1.11,0,0,1,0,.24,3.12,3.12,0,0,0,.09.53.52.52,0,0,0,.58.32c.41,0,.67.1.67.38a.91.91,0,0,1,0,.21,1,1,0,0,0,0,.22c0,.12.09.67.09.79a.36.36,0,0,1-.05.22l-.32.15a1.52,1.52,0,0,1-.48.05,2.89,2.89,0,0,0-.39,0c-.17,0-.34.07-.5.07H156a1.37,1.37,0,0,1-1.37-.8,2.68,2.68,0,0,1-.31-.89c0-.07-.07-.77-.07-.84s0-.38,0-.44,0-.31,0-.38v-.63c0-.1,0-.65,0-.77s0-.7,0-.84,0-.29,0-.34,0-.19,0-.22V61.9a1.62,1.62,0,0,0,0-.26s0-.1,0-.14a1.16,1.16,0,0,0-.05-.24c-.1-.32-.24-.34-.55-.38-.09,0-.27,0-.27-.39,0-.17.05-.36.05-.53s0-.36,0-.43,0-.46.29-.53l.21,0c.39-.1.39-.5.39-.72a1.47,1.47,0,0,0,0-.27c0-.15,0-.29,0-.43s0-.29,0-.34Zm4.25,3.37-.29-.62a1.54,1.54,0,0,1-.05-.39.65.65,0,0,1,.65-.62c.19,0,.39.07.6.07s.44-.07.53-.07c.58,0,.65.56.68.7a1.85,1.85,0,0,0,.12.6c.05.15.15.31.2.48s0,.12,0,.19a2.57,2.57,0,0,0,.32,1c.05.14.09.27.14.41s.22.5.31.74.09.39.14.58.1.34.12.51.07.32.14.32.09-.21.09-.26a1.52,1.52,0,0,1,.07-.38c0-.14.09-.27.12-.43s.07-.39.12-.6.15-.41.22-.62a15.92,15.92,0,0,0,.41-1.61,3.28,3.28,0,0,0,.05-.38c0-.1.15-.58.19-.68.09-.36.24-.6.82-.6l.6,0,.39,0c.73,0,.73.5.73.55a2.23,2.23,0,0,1-.17.51c-.09.19-.21.39-.31.58a2.32,2.32,0,0,0-.15.44c-.1.32-.19.67-.31,1-.05.15-.12.31-.17.48s-.12.46-.2.68-.24.56-.32.84a2.73,2.73,0,0,0-.1.36,12.18,12.18,0,0,1-.43,1.33,4.59,4.59,0,0,0-.15.46c-.09.27-.09.55-.15.82s-.14.44-.2.67-.09.39-.14.58a2,2,0,0,1-.91,1.42,2.23,2.23,0,0,1-1.38.38L159.57,70c-.1,0-.22-.07-.34-.09a1.58,1.58,0,0,1-.79-.38c-.26-.17-.38-.26-.38-.48a.61.61,0,0,1,0-.17,1.39,1.39,0,0,0,.15-.27c.05-.07.19-.5.24-.58a.62.62,0,0,1,.51-.34,1.65,1.65,0,0,1,.6.19,1.71,1.71,0,0,1,.19.17,1.08,1.08,0,0,0,.65.19c.34,0,.68-.27.68-.87a2.38,2.38,0,0,0-.31-1.06,5.21,5.21,0,0,1-.5-1c0-.1-.05-.21-.09-.31s-.15-.27-.21-.39-.09-.26-.14-.38a2.17,2.17,0,0,1-.14-.31,4.26,4.26,0,0,1-.12-.46c-.05-.17-.14-.34-.19-.51-.15-.41-.17-.44-.34-.82a2.2,2.2,0,0,1-.12-.31c0-.15-.05-.31-.09-.46,0,0-.17-.5-.2-.56l-.15-.25Zm-36,17.19H122l-.18,0-.21,0-.16,0-.4-.15a2.53,2.53,0,0,1-.32-.2l-.29-.32-.16-.25a1.39,1.39,0,0,1-.1-.29l0-.1a1.31,1.31,0,0,1,0-.17c0-.06,0-.13,0-.19s0-.3,0-.45a2.56,2.56,0,0,1,.26-1.1,1.52,1.52,0,0,1,.11-.17s0-.1.08-.14l.1-.12.06-.08a.75.75,0,0,1,.23-.2,1.71,1.71,0,0,1,.52-.26,1.66,1.66,0,0,1,.63-.11h.46a.53.53,0,0,1,.17,0l.18,0,.15.06a2.51,2.51,0,0,1,.33.14l.17.14.18.17a3.38,3.38,0,0,1,.36.47l.09.22.06.11s0,.23.05.27a.59.59,0,0,1,0,.09,1.48,1.48,0,0,1,0,.16s0,.26,0,.31,0,.16,0,.18a1.22,1.22,0,0,0,0,.15.15.15,0,0,1,0,.05s0,.07,0,.1,0,.13,0,.19a.37.37,0,0,1,0,.1,1.89,1.89,0,0,1-.1.24s0,.07,0,.1a.93.93,0,0,0,0,.08l-.07.13a1.26,1.26,0,0,1-.11.13l-.05.07-.16.15-.09.05-.05,0-.44.25-.08,0h-.08a1.27,1.27,0,0,1-.15.05h-.18Zm-1.58-1.83a.35.35,0,0,0,0,.15l.06.17a.43.43,0,0,0,.11.22l.09.11a.91.91,0,0,0,.07.1,1.22,1.22,0,0,0,.17.15,1,1,0,0,0,.17.07l.15.07a.76.76,0,0,0,.29.05l.32,0,.14,0a.9.9,0,0,0,.2-.05l.09-.06.11-.07s.07-.09.11-.13l.09-.08.07-.08.11-.24s.06-.22.08-.26a.63.63,0,0,0,0-.2s0-.12,0-.14,0-.08,0-.1v-.16a.27.27,0,0,0,0-.07c0-.07,0-.14-.05-.2l0-.15a1.21,1.21,0,0,0-.22-.38l-.13-.15-.08,0-.06-.06-.05,0-.09-.07-.24-.07a1.4,1.4,0,0,0-.27,0h-.34a1.89,1.89,0,0,0-.18.07l-.16.05a1,1,0,0,0-.21.16.53.53,0,0,0-.1.13l-.07.09s-.13.24-.14.28,0,.14,0,.2a1.18,1.18,0,0,0,0,.14.64.64,0,0,0,0,.16v.06a1.14,1.14,0,0,0,0,.19s0,.13,0,.16v.08h0Zm6.87-1.75c-.1,0-.1,0-.2,0a.76.76,0,0,0-.28,0s-.12.06-.12.34a.82.82,0,0,0,0,.21c.05.11.23.12.27.12h.12l.32,0H128l.14,0c.11,0,.31.07.31.21s0,.14,0,.17,0,.18,0,.21-.1.17-.24.17l-.28,0h-.5a.23.23,0,0,0-.19.12,1.27,1.27,0,0,0,0,.26s0,.08,0,.1,0,.17,0,.2v.15s0,.13,0,.15,0,.05,0,.07,0,.08,0,.09,0,.1,0,.11,0,.21,0,.26a.65.65,0,0,0,0,.1s0,.07,0,.1a.3.3,0,0,1,0,.07c0,.12,0,.27-.2.27h-.23l-.16,0a.25.25,0,0,1-.25-.15.74.74,0,0,1,0-.2s0-.21,0-.24a.88.88,0,0,0,0-.19v-.13l0-.09a.25.25,0,0,1,0-.07s0-.08,0-.17,0-.31,0-.47v-.17q0-.12,0-.23s0-.07,0-.09v-.06s0-.15,0-.17,0-.24,0-.27,0-.12,0-.18v-.21s0-.11,0-.2,0-.17,0-.18a1,1,0,0,0,0-.14s0-.05,0-.08,0-.2,0-.24a.27.27,0,0,1,.25-.26h.88a.8.8,0,0,0,.3,0l.11,0,.32,0a.21.21,0,0,1,.2.11s0,.14,0,.15,0,.05,0,.08,0,.08,0,.12a1.07,1.07,0,0,1,0,.16c0,.1-.14.14-.3.14l-.18,0h-.17Zm7.62,0c-.1,0-.1,0-.2,0a.75.75,0,0,0-.28,0s-.12.06-.12.34a.82.82,0,0,0,0,.21c.05.11.23.12.27.12h.12l.32,0h.07l.14,0c.11,0,.3.07.3.21s0,.14,0,.17,0,.18,0,.21-.09.17-.24.17l-.27,0H135a.23.23,0,0,0-.19.12,1.2,1.2,0,0,0,0,.26s0,.08,0,.1,0,.17,0,.2v.15s0,.13,0,.15,0,.05,0,.07,0,.08,0,.09,0,.1,0,.11,0,.21,0,.26a.65.65,0,0,0,0,.1s0,.07,0,.1a.3.3,0,0,1,0,.07c0,.12,0,.27-.2.27h-.23l-.16,0a.25.25,0,0,1-.25-.15.74.74,0,0,1,0-.2s0-.21,0-.24a.82.82,0,0,0,0-.19v-.13l0-.09a.3.3,0,0,1,0-.07s0-.08,0-.17,0-.31,0-.47v-.17q0-.12,0-.23s0-.07,0-.09v-.06s0-.15,0-.17,0-.24,0-.27,0-.12,0-.18v-.21s0-.11,0-.2,0-.17,0-.18a1.19,1.19,0,0,0,0-.14s0-.05,0-.08,0-.2,0-.24a.27.27,0,0,1,.25-.26h.88a.81.81,0,0,0,.3,0l.11,0,.32,0a.21.21,0,0,1,.2.11s0,.14,0,.15,0,.05,0,.08,0,.08,0,.12a1.19,1.19,0,0,1,0,.16c0,.1-.14.14-.3.14l-.18,0h-.17Zm2.92,2.66s0-.19,0-.23,0-.23,0-.27,0-.15,0-.18,0-.15,0-.19,0-.08,0-.1,0-.24,0-.29a2.5,2.5,0,0,1,0-.28v-.26s0-.14,0-.17v-.13c0-.07,0-.14,0-.22a.61.61,0,0,1,0-.11c0-.07,0-.14,0-.17a.43.43,0,0,0,0-.1.86.86,0,0,1,0-.19.3.3,0,0,0,0-.1.28.28,0,0,1,0-.09,1.41,1.41,0,0,1,0-.17.22.22,0,0,1,.21-.16l.21,0h.19c.12,0,.24.06.24.2v0q0,.11,0,.23V74s0,.07,0,.08a.15.15,0,0,0,0,0,1.12,1.12,0,0,1,0,.14s0,.1,0,.12,0,.07,0,.08,0,.11,0,.14,0,.12,0,.14,0,.26,0,.31,0,.1,0,.12a.52.52,0,0,1,0,.1s0,.09,0,.13,0,.14,0,.17,0,.09,0,.14,0,.13,0,.2,0,.13,0,.15v.1s0,.11,0,.13,0,.12,0,.14a.52.52,0,0,0,0,.12.5.5,0,0,1,0,.14c0,.17,0,.18,0,.2a.37.37,0,0,0,.23.11l.11,0,.21,0,.16,0,.12,0a.3.3,0,0,1,.14,0s.07,0,.08.17,0,.1,0,.12a.39.39,0,0,0,0,.08,1,1,0,0,1,0,.1c0,.23-.2.23-.3.23h-.11l-.17,0h-.28l-.17,0h-.08l-.14,0h-.51a.18.18,0,0,1-.15-.11.5.5,0,0,1,0-.18s0-.3,0-.36v-.16h0Zm5.91.91h-.5l-.19,0-.21,0-.16,0-.4-.15a2.59,2.59,0,0,1-.32-.2l-.29-.32a2.72,2.72,0,0,1-.16-.25,1.44,1.44,0,0,1-.1-.29l0-.1a1.4,1.4,0,0,1,0-.17c0-.06,0-.13,0-.19s0-.3,0-.45a2.54,2.54,0,0,1,.26-1.1,1.51,1.51,0,0,1,.11-.17s0-.1.08-.14l.1-.12.06-.08a.74.74,0,0,1,.23-.2,1.71,1.71,0,0,1,.52-.26,1.66,1.66,0,0,1,.63-.11h.46a.53.53,0,0,1,.17,0l.18,0,.15.06a2.51,2.51,0,0,1,.33.14,1.06,1.06,0,0,1,.17.14l.19.17a3.37,3.37,0,0,1,.36.47l.1.22.06.11s0,.23.05.27a.54.54,0,0,1,0,.09,1.27,1.27,0,0,1,0,.16s0,.26,0,.31,0,.16,0,.18a1.22,1.22,0,0,0,0,.15.17.17,0,0,1,0,.05s0,.07,0,.1a1.88,1.88,0,0,1,0,.19.43.43,0,0,1,0,.1,1.94,1.94,0,0,1-.1.24s0,.07,0,.1,0,.05,0,.08l-.07.13a1.13,1.13,0,0,1-.11.13l-.05.07-.15.15-.09.05-.05,0-.44.25-.08,0h-.08a1.21,1.21,0,0,1-.15.05h-.18Zm-1.58-1.83a.36.36,0,0,0,0,.15l.06.17a.43.43,0,0,0,.11.22l.1.11a1,1,0,0,0,.07.1,1.2,1.2,0,0,0,.17.15.93.93,0,0,0,.17.07l.15.07a.76.76,0,0,0,.29.05l.32,0,.14,0a.8.8,0,0,0,.2-.05l.09-.06.11-.07s.07-.09.11-.13l.09-.08.07-.08.11-.24s.06-.22.08-.26a.65.65,0,0,0,0-.2s0-.12,0-.14,0-.08,0-.1v-.16a.25.25,0,0,0,0-.07c0-.07,0-.14-.05-.2l0-.15a1.2,1.2,0,0,0-.21-.38l-.13-.15-.08,0-.06-.06-.05,0-.09-.07-.24-.07a1.41,1.41,0,0,0-.27,0h-.34c-.06,0-.12.05-.18.07l-.15.05a1,1,0,0,0-.21.16.55.55,0,0,0-.1.13l-.07.09s-.13.24-.14.28,0,.14,0,.2a1.28,1.28,0,0,0,0,.14.75.75,0,0,0,0,.16v.06a1.05,1.05,0,0,0,0,.19s0,.13,0,.16v.08Zm5.46,1.41a2.08,2.08,0,0,0,.05-.33s0-.21,0-.26,0-.13,0-.15,0-.15,0-.18,0-.15,0-.21,0-.18,0-.22a.46.46,0,0,0,0-.09,1.23,1.23,0,0,1,0-.24s0-.07,0-.1,0-.3,0-.41,0-.21,0-.26,0-.13,0-.15,0-.19,0-.23,0-.12,0-.14a2.38,2.38,0,0,0,0-.35.6.6,0,0,1,0-.15.61.61,0,0,1,.05-.31.25.25,0,0,1,.26-.14l.3,0h.48l.35,0h.13l.09,0a.76.76,0,0,1,.27.05l.15.08.08,0,.08.05.11.07a1.2,1.2,0,0,1,.24.23l.07.12s.08.09.11.14a.9.9,0,0,1,.13.44v.1a.83.83,0,0,0,0,.11s0,.18,0,.2v0a1.25,1.25,0,0,1,0,.19,1.32,1.32,0,0,1,0,.23s-.1.21-.12.25a.62.62,0,0,1-.17.26l-.08.07-.21.18a.7.7,0,0,1-.24.13s-.1,0-.1.09,0,.05.1.11l.06,0,.08.09a1.92,1.92,0,0,0,.24.16,1,1,0,0,0,.37,0,.2.2,0,0,1,.2.2s0,.15,0,.18,0,.11,0,.13a.32.32,0,0,1,0,.17.31.31,0,0,1-.23.1h-.32l-.09,0-.11,0L150,77.6s-.21-.17-.29-.24-.26-.21-.3-.26l-.08-.1-.07-.07-.07-.08a.24.24,0,0,0-.19-.1c-.1,0-.12.13-.12.24a1,1,0,0,0,0,.18c0,.06,0,.12,0,.19s0,.05,0,.08,0,.22-.16.23h-.5c-.2,0-.2-.15-.2-.23v-.1h0Zm2.14-2.43a.63.63,0,0,1,0-.09s0,0,0-.07l0,0a.64.64,0,0,0-.24-.33c-.11-.09-.11-.1-.2-.12l-.05,0,0,0h-.09l0,0h-.06l-.08,0h-.14l-.16,0c-.15.06-.15.24-.15.36s0,.17,0,.21,0,.32,0,.38,0,.36,0,.42a1.26,1.26,0,0,0,0,.14s0,.07,0,.11l0,.05a.46.46,0,0,0,.26.09h.13a.31.31,0,0,0,.16,0l.27-.1a.27.27,0,0,0,.17-.16l.09-.13a1.15,1.15,0,0,0,.15-.24,1.42,1.42,0,0,0,.06-.33.27.27,0,0,0,0-.06Zm3-1.31a.24.24,0,0,1,.25-.17h.35a.24.24,0,0,1,.26.27s0,.18,0,.21,0,0,0,.06,0,.07,0,.09,0,.08,0,.09,0,.16,0,.18,0,.1,0,.12,0,.1,0,.12a.58.58,0,0,0,0,.09s0,.05,0,.08,0,.17,0,.2v.2s0,.14,0,.17,0,.19,0,.23,0,.11,0,.13,0,.12,0,.18,0,.14,0,.21,0,.09,0,.1,0,.08,0,.09,0,.08,0,.13,0,.11,0,.13v.07s0,.15,0,.18,0,.16,0,.19,0,.09,0,.11v.06s0,.27,0,.32,0,.22-.2.22l-.26,0h-.23a.21.21,0,0,1-.18-.1.32.32,0,0,1,0-.18s0-.07,0-.1,0-.15,0-.23V77s0-.24,0-.29,0-.21,0-.26v-.11a.37.37,0,0,1,0-.09.7.7,0,0,0,0-.12,1.73,1.73,0,0,1,0-.19s0-.14,0-.17a1.09,1.09,0,0,1,0-.19.43.43,0,0,1,0-.09l0-.16s0-.13,0-.15,0-.12,0-.14v-.15s0,0,0-.11,0-.17,0-.26,0-.2,0-.24,0-.34,0-.35,0-.1,0-.12a1.4,1.4,0,0,1,0-.18Zm3.2.63a1.47,1.47,0,0,0,0-.33.79.79,0,0,1,0-.14c0-.09,0-.26.12-.32a1,1,0,0,1,.21,0l.36,0h.4l.25,0,.16,0,.15,0,.13,0,.13,0,.15.07a1.06,1.06,0,0,1,.15.06l.07,0,.1,0,.22.14.08.07a1.71,1.71,0,0,1,.24.25s.14.23.21.38a2,2,0,0,1,.25,1,1.9,1.9,0,0,1-.09.64s-.09.29-.11.32l-.07.11,0,.08a1.65,1.65,0,0,1-.23.31l-.22.2-.38.21a2.06,2.06,0,0,1-.88.17l-.54,0h-.5c-.11,0-.23,0-.26-.14s0-.17,0-.26,0-.28,0-.33,0-.07,0-.1a1.29,1.29,0,0,1,0-.15.25.25,0,0,1,0-.07,3.19,3.19,0,0,1,0-.33c0-.11,0-.13,0-.19s0-.16,0-.19,0-.1,0-.14,0-.13,0-.16,0-.15,0-.18,0-.15,0-.23,0-.12,0-.14,0-.23,0-.27v-.55Zm.79,1.76s0,.13,0,.16,0,.17,0,.21,0,.23,0,.27,0,.24.13.27a1.79,1.79,0,0,0,.48.06,1.62,1.62,0,0,0,.55-.19l.21-.19a.72.72,0,0,0,.2-.29.57.57,0,0,0,0-.11l.07-.13a1,1,0,0,0,.09-.46,1.39,1.39,0,0,0,0-.21l0-.22s-.2-.44-.23-.48a1.85,1.85,0,0,0-.32-.33l-.2-.08-.09,0-.12,0s-.27-.07-.32-.07h-.23c-.2,0-.2.14-.2.23a.52.52,0,0,0,0,.1v.13s0,.28,0,.33,0,.14,0,.17v.14s0,.11,0,.13a1.08,1.08,0,0,1,0,.14s0,.1,0,.12,0,.14,0,.16V76h0Zm6.08.93H163l-.19,0a.35.35,0,0,0-.18.06.25.25,0,0,0-.13.14c0,.08,0,.1,0,.27a.37.37,0,0,1-.08.23c0,.05-.09.05-.2.05h-.24l-.29,0a.15.15,0,0,1-.14-.15.3.3,0,0,1,0-.14c0-.08.08-.16.11-.24s0-.15.07-.23.07-.13.1-.2a1,1,0,0,0,.07-.21,2.77,2.77,0,0,1,.11-.43l.1-.25c0-.11.07-.23.11-.35l.07-.17.07-.16c.07-.17.09-.33.16-.5l.08-.21,0-.21c0-.06.14-.4.17-.48a.62.62,0,0,1,.07-.21.2.2,0,0,1,.19-.09h.45a.23.23,0,0,1,.13,0c.07,0,.08.06.13.24,0,0,.05.14.06.17l0,.11a4.24,4.24,0,0,0,.2.44,1.88,1.88,0,0,1,.07.23,1.27,1.27,0,0,0,0,.14c0,.09.07.17.1.26s0,.16.07.24,0,.13.07.2,0,.12,0,.18l.08.18a1.69,1.69,0,0,1,.1.3.45.45,0,0,0,0,.17l0,.07,0,.17c0,.08.07.17.1.24l.07.2c0,.06.06.12.09.18a.71.71,0,0,1,.12.34c0,.1,0,.14-.1.14h-.12l-.24,0-.33,0c-.18,0-.18-.27-.18-.35s-.1-.37-.24-.41h-.44l-.14,0Zm0-.72h.09l.1,0h.08s.14,0,.14-.12a.44.44,0,0,0-.06-.16c0-.06,0-.12-.05-.18s0-.11,0-.16-.07-.23-.1-.37,0-.11,0-.17a1,1,0,0,1-.07-.21.2.2,0,0,1,0-.06.3.3,0,0,1,0-.08s0-.08,0-.08,0,0,0,0v.07a2.29,2.29,0,0,1-.14.5l-.1.32a.33.33,0,0,1,0,.1c0,.06-.05.11-.07.17a.39.39,0,0,1,0,.13.33.33,0,0,0,0,.14.11.11,0,0,0,0,.1l.07,0,.06,0h0l.14,0h.17Zm3.86-3.11-.06-.07a.46.46,0,0,1-.1-.13s-.07-.1-.1-.1a0,0,0,0,0,0,0v0a.26.26,0,0,1,0,.05s0,0,0,0V73s0,.07,0,.08v.12a.17.17,0,0,0,0,0v0s0,.06,0,.07v.14s0,.06,0,.07,0,.1,0,.11v.06a.23.23,0,0,0,0,0,.27.27,0,0,0,0,0,.18.18,0,0,1,0,.06c0,.11,0,.11-.11.11h-.19c-.09,0-.1-.1-.1-.11a.14.14,0,0,1,0,0,.37.37,0,0,0,0-.09v0s0-.07,0-.08,0-.11,0-.13a.41.41,0,0,1,0,0V73.4s0-.11,0-.13,0-.09,0-.14,0-.06,0-.09,0-.12,0-.14,0-.07,0-.11,0-.2,0-.23v-.12a0,0,0,0,0,0,0s0,0,0-.06v0s0-.05,0-.08a.15.15,0,0,1,0,0s0-.1.09-.1h.17c.08,0,.11,0,.16.06a.5.5,0,0,1,.06.11l0,.07.07.07,0,.06.06.08,0,0v0l0,0a.51.51,0,0,1,.07.13s0,0,0,0,.06-.06.07-.08l0-.07,0-.07,0,0,.07-.07.06-.09a.58.58,0,0,0,.09-.15c0-.07,0-.1.07-.11a.3.3,0,0,1,.14,0h.17c.07,0,.07.06.07.12a1.24,1.24,0,0,1,0,.14.55.55,0,0,0,0,.15v.08s0,.1,0,.12,0,.07,0,.1v0s0,0,0,.08a.24.24,0,0,0,0,.06.27.27,0,0,0,0,.06v.08s0,.08,0,.1a.38.38,0,0,0,0,.11.1.1,0,0,1,0,0s0,.12,0,.16,0,.09,0,.1,0,.06,0,.07,0,0,0,.06a1.13,1.13,0,0,1,0,.14h0s0,.1-.08.1h-.19a.13.13,0,0,1-.07,0s0,0,0-.1v0s0-.07,0-.09v-.07a.39.39,0,0,0,0-.06s0-.06,0-.07,0-.07,0-.09v0s0-.12,0-.15h0s0-.08,0-.13v0s0-.11,0-.14v-.13a0,0,0,0,0,0,0l0,0,0,0-.08.09,0,.05-.06.07,0,0a.23.23,0,0,1-.09.1l-.1,0-.15-.11Zm-1.79-.23v0a.16.16,0,0,1,0,0s0,.1,0,.12,0,.07,0,.11,0,.09,0,.11v.19s0,.07,0,.08,0,.06,0,.07,0,.14,0,.21,0,.14-.09.14h-.19s-.09,0-.1,0a.33.33,0,0,1,0-.07s0-.05,0-.06,0-.06,0-.07a.39.39,0,0,1,0-.06v0s0,0,0-.06v-.14s0,0,0-.06v-.13s0,0,0-.07a.22.22,0,0,0,0,0v-.09s0-.08,0-.09,0-.06,0-.09,0-.09,0-.11,0-.08,0-.1v-.05s0-.06,0-.07v0a.16.16,0,0,0,0-.05s0,0-.1,0h-.23a.08.08,0,0,1-.07-.08s0,0,0-.05v-.1a.19.19,0,0,1,0-.07s0,0,.07,0h1c.09,0,.12,0,.12.07v.12c0,.13,0,.14-.08.14h-.26a.07.07,0,0,0-.05,0,.14.14,0,0,0,0,.09s0,.06,0,.07v.1a.12.12,0,0,0,0,0v.11ZM119.24,41.49c.19,0,.38.07.55.07s.46-.07.55-.07c.56,0,.6.43.6.72v.19c0,.21-.07.43-.09.63a9.5,9.5,0,0,0-.05,1.25c0,.09,0,.5.05.6,0,.27,0,.46.21.46a.52.52,0,0,0,.34-.17c.09-.09.15-.21.24-.29a1.46,1.46,0,0,1,.53-.31,4,4,0,0,1,1-.15,2.28,2.28,0,0,1,1,.29,3.21,3.21,0,0,1,.82.84,3.58,3.58,0,0,1,.26.75,3.14,3.14,0,0,1,0,.39c0,.09.05.44.05.53s0,.63,0,.75,0,.44,0,.51,0,.38,0,.44,0,.31,0,.46v.27c0,.05,0,.31,0,.36s0,.36,0,.43,0,.31,0,.36-.07.51-.07.62,0,.24,0,.27a1.46,1.46,0,0,1,0,.27,1.52,1.52,0,0,0,.05.38,3.44,3.44,0,0,0,0,.39s0,.17,0,.2a1,1,0,0,1-.12.43.71.71,0,0,1-.62.22l-.44,0c-.17,0-.32,0-.5,0a.63.63,0,0,1-.6-.29,2,2,0,0,1-.12-.51,1.21,1.21,0,0,1,0-.22,6.25,6.25,0,0,0,.12-1.18c0-.17-.07-1-.07-1.13s0-.44,0-.67v-.7c0-.07,0-.15,0-.24a3.19,3.19,0,0,1-.05-.39s0-.26,0-.31a3.42,3.42,0,0,0-.07-.38.58.58,0,0,0-.19-.43.73.73,0,0,0-.7-.31c-.31,0-.48.14-.73.48a2.9,2.9,0,0,0-.41.8,6.22,6.22,0,0,0,0,.8c0,.19,0,.39,0,.58s0,.39,0,.6.05.48.05.58,0,.32,0,.38v.41c0,.07,0,.38,0,.44s.14,1,.14,1c0,.41-.1.68-.53.68-.09,0-.48-.07-.56-.07s-.41.07-.61.07c-.62,0-.67-.6-.67-.85a7.76,7.76,0,0,1,.09-.87c0-.12,0-.22,0-.32,0-.31,0-.6,0-.91,0-.07,0-.46,0-.55s-.07-.58-.07-.7.05-.36.05-.38v-.56c0-.05,0-.29,0-.34s0-.48,0-.58,0-.43,0-.65l0-1.2c0-.09,0-.48,0-.58v-.32c0-.05,0-.36,0-.41s0-.26,0-.38,0-.38,0-.44,0-.38,0-.46-.07-.65-.07-.77c0-.31.16-.84.62-.84Zm11.87,2.82a3.19,3.19,0,0,1,.55.12,3,3,0,0,1,.6.17,1.82,1.82,0,0,1,.32.22,2.47,2.47,0,0,1,.91.92c.09.12.15.24.24.34a1.58,1.58,0,0,1,.17.27,3,3,0,0,1,.21.55,2.71,2.71,0,0,1,.19.46c0,.05,0,.12,0,.19s.1.36.12.53,0,.2,0,.31.05.41.05.62c0,0-.07,1-.07,1.06s-.07.46-.09.51a2.76,2.76,0,0,1-.12.36,2.22,2.22,0,0,1-.1.38c0,.1-.1.21-.15.32s-.07.21-.12.31-.53.67-.62.75l-.74.56a4.44,4.44,0,0,1-.91.38,10.45,10.45,0,0,1-1.23.15,5.18,5.18,0,0,1-.53,0,3.55,3.55,0,0,1-1.11-.31,2.34,2.34,0,0,1-.62-.32A3.53,3.53,0,0,1,126.68,51a10.24,10.24,0,0,1-.24-1.61c0-.19,0-.38,0-.56a2.91,2.91,0,0,1,.12-.87,3.14,3.14,0,0,0,.1-.44c.07-.22.16-.44.22-.67A5.72,5.72,0,0,1,128,45.17a5.27,5.27,0,0,1,1.13-.72,8.11,8.11,0,0,1,1.32-.17l.7,0Zm-.85,1.93c-.41.07-.44.07-.65.24a3,3,0,0,0-.77,1.26c0,.1-.19.77-.21.85v.34a2.45,2.45,0,0,0,0,.34c0,.05,0,.27,0,.32s0,.27,0,.41.09.27.14.41a1.48,1.48,0,0,0,.07.29A1.5,1.5,0,0,0,129,51a1.48,1.48,0,0,0,1.38.92,1.61,1.61,0,0,0,.68-.15,1.31,1.31,0,0,0,.77-.7l.15-.22s.26-.65.26-.68a5.56,5.56,0,0,0,0-.79c0-.05,0-.29,0-.34a2.56,2.56,0,0,0-.05-.38v-.36a1.25,1.25,0,0,0-.19-.67c-.05-.14-.14-.27-.19-.41a1.45,1.45,0,0,0-.43-.67,1.35,1.35,0,0,0-.91-.36l-.31,0Zm8.39-1.13a3.94,3.94,0,0,1,.39-.38,3.21,3.21,0,0,1,1.2-.34,2.79,2.79,0,0,1,.85.19c.15.05.27.1.65.48.15.15.27.27.46.27h.05c.14,0,.19,0,.53-.31a3.22,3.22,0,0,1,1.11-.51l.32,0a3.14,3.14,0,0,1,.72-.05,2.14,2.14,0,0,1,.72.24,3.73,3.73,0,0,1,.43.34,2.68,2.68,0,0,1,.2.27,1.29,1.29,0,0,1,.21.22s.2.38.2.41a2.71,2.71,0,0,1,.12.7c0,.05,0,.29,0,.34s.05.41.05.5,0,.31,0,.46,0,.32,0,.5-.05.38-.05.46.07.38.07.44-.05.41-.05.5,0,.32,0,.39,0,.22,0,.26.05.34.05.41-.07.48-.07.56a4.66,4.66,0,0,0,0,.6.86.86,0,0,1,0,.21.83.83,0,0,1,0,.21,1.75,1.75,0,0,0,.1.27,3.52,3.52,0,0,1,0,.41.49.49,0,0,1-.48.5l-.44,0-.46,0-.41,0a.62.62,0,0,1-.63-.67,1.89,1.89,0,0,1,0-.31,4.72,4.72,0,0,0,.05-.68c0-.07,0-.39,0-.46s0-.19,0-.29,0-.29,0-.34v-.27c0-.05,0-.29,0-.34s0-.34,0-.41,0-.32,0-.5,0-.31,0-.38-.05-.51-.05-.6,0-.41,0-.48a1.48,1.48,0,0,0-.22-.72c-.07-.12-.21-.34-.75-.34a1.28,1.28,0,0,0-1.15.92,1.54,1.54,0,0,0-.09.63c0,.07,0,.38,0,.44s.05.36.05.55,0,.41,0,.5,0,.48,0,.62,0,.26,0,.29-.05.41-.05.48v.53a3.58,3.58,0,0,0,0,.43,3.49,3.49,0,0,1,.09.58c0,.68-.27.82-.6.82l-.6,0-.56,0c-.55,0-.6-.55-.6-.7s.05-.65.05-.62c0-.15,0-.27.05-.38v-.21c0-.05,0-.34,0-.41a1.38,1.38,0,0,0,0-.27c0-.1-.05-.58-.05-.7s0-.27,0-.32,0-.51,0-.62V49c0-.09-.05-.51-.05-.62s0-.27,0-.34a4.46,4.46,0,0,0-.1-.6.74.74,0,0,0-.8-.58.94.94,0,0,0-.8.43,2,2,0,0,0-.48,1.52c0,.09,0,.46,0,.55s-.05.65-.05.77,0,.53,0,.63,0,.29,0,.36a1.84,1.84,0,0,0,0,.31c0,.07,0,.43,0,.5a3.81,3.81,0,0,0,.07.63,3.26,3.26,0,0,1,.09.55c0,.5-.37.53-.63.53,0,0-.26,0-.43,0l-.26,0-.41.05c-.2,0-.63,0-.63-.85a1.62,1.62,0,0,1,0-.41,4.14,4.14,0,0,0,.07-.92c0-.09-.05-.48-.05-.58v-.27c0-.05,0-.31,0-.38s0-.31,0-.36,0-.41,0-.5.05-.43.05-.65c0-.05,0-.27,0-.33s0-.22,0-.27,0-.38,0-.44c0-.27,0-.55,0-.82,0-.09,0-.48,0-.56a3.48,3.48,0,0,0,0-.41,4,4,0,0,1-.09-.5c0-.24.15-.84.7-.84l.51,0,.72,0c.34,0,.43.12.44.5,0,.15.1.31.25.31s.21-.1.31-.2Zm9.67,2.53a4.6,4.6,0,0,1,.21-.84c0-.09.09-.2.17-.38s.1-.27.17-.39a2.85,2.85,0,0,1,.8-1,2.67,2.67,0,0,1,1.11-.55l.34-.1a2.47,2.47,0,0,1,.73-.09l.58,0a3.09,3.09,0,0,1,.89.12l.7.31c.05,0,.55.38.58.43a4,4,0,0,1,.72,1.21,5.65,5.65,0,0,1,.26,1.5,1.13,1.13,0,0,1-.07.36.84.84,0,0,1-.25.44.85.85,0,0,1-.86.29h-.27l-.31,0-.48,0-.82,0h-.29l-.36,0-.48,0L151,49c-.29,0-.41.41-.41.6a2.32,2.32,0,0,0,.29,1.23,1.58,1.58,0,0,0,1.59.92,2.25,2.25,0,0,0,.48,0,2.5,2.5,0,0,0,1-.44c.15-.12.29-.29.43-.38a.37.37,0,0,1,.19,0,.48.48,0,0,1,.44.38c0,.07.12.41.17.48s.24.29.32.44a.81.81,0,0,1,.1.41.84.84,0,0,1-.62.73c-.17.07-.34.1-.51.15s-.39.15-.58.21c0,0-.94.12-1.26.12a8,8,0,0,1-1.45-.12c-.05,0-.48-.15-.5-.15l-.31-.19a4,4,0,0,1-1.66-1.85,4.15,4.15,0,0,1-.34-1.11c0-.15-.07-.29-.09-.44s-.05-1.13-.05-1.35a3.82,3.82,0,0,1,.12-1ZM152.08,46a4.3,4.3,0,0,0-.46.07,1.74,1.74,0,0,0-.46.26,1.36,1.36,0,0,0-.43.91.32.32,0,0,0,.1.26,1.44,1.44,0,0,0,.5.09l.26,0,.51.05.32-.05a.82.82,0,0,1,.2,0c.24,0,.68,0,.68-.27a1.3,1.3,0,0,0-.68-1.2,4.91,4.91,0,0,0-.5-.07h-.05ZM115.76,66.5c0-.33,0-.67,0-1l0-.57V64.5l0-.44c0-.28,0-.58-.05-.85s-.07-.49-.11-.72l-.11-.6-.09-.55c0-.18-.06-.37-.09-.54l-.17-.71-.13-.6c-.06-.26-.14-.53-.21-.79s-.1-.4-.17-.59c-.16-.47-.31-.94-.49-1.39-.1-.24-.18-.49-.3-.72s-.25-.51-.38-.75l-.43-.75a6.32,6.32,0,0,0-.61-.88,1.82,1.82,0,0,1-.44-.72c-.05-.37.23-.68.42-.95a3.63,3.63,0,0,0,.29-.47,8.44,8.44,0,0,0,.43-1c.07-.19.12-.4.17-.6a4.56,4.56,0,0,0,.14-.73c0-.14,0-.3,0-.44a5.83,5.83,0,0,0-.22-1.81,6.4,6.4,0,0,0-.37-.91,5.71,5.71,0,0,0-.35-.65,6.11,6.11,0,0,0-.81-1,5.74,5.74,0,0,0-.58-.53,6.52,6.52,0,0,0-1.59-.89q-.3-.12-.62-.21c-.21-.06-.44-.1-.66-.14a3.84,3.84,0,0,0-.69-.08,1.22,1.22,0,0,0-.28,0,.35.35,0,0,0-.12,0h-1a.94.94,0,0,0-.24,0l-.38.09a4.81,4.81,0,0,0-.68.24c-.15.06-.29.15-.43.23a3.82,3.82,0,0,0-.47.28c-.18.13-.35.27-.52.4a5.21,5.21,0,0,0-.87.88c-.1.13-.21.26-.3.4a6.21,6.21,0,0,0-.44.78l-.17.4a1,1,0,0,1-.23.38.59.59,0,0,1-.18.12l-.08,0h-.06a1.15,1.15,0,0,1-.55-.18,1.17,1.17,0,0,1-.45-.37A.49.49,0,0,1,100,46a.91.91,0,0,1,.28-.4l.33-.32a7.41,7.41,0,0,0,.67-.83,4.43,4.43,0,0,0,.41-.7,7,7,0,0,0,.32-.76,5.54,5.54,0,0,0,.22-.94c0-.17.05-.35.06-.53s0-.36,0-.54,0-.14,0-.21a5.57,5.57,0,0,0-.14-1,7,7,0,0,0-.26-.79,5.12,5.12,0,0,0-.38-.82,5.57,5.57,0,0,0-.67-.88c-.12-.13-.23-.28-.37-.4a6.28,6.28,0,0,0-3-1.54,6.57,6.57,0,0,0-1-.13h-.62l-.12,0h-.09l-.14,0h-.34l-.12,0-.12,0-.27.06a5.43,5.43,0,0,0-1,.36c-.18.08-.34.18-.51.28a5.25,5.25,0,0,0-.78.55A5.82,5.82,0,0,0,91.09,38a4.86,4.86,0,0,0-.49,1,7.1,7.1,0,0,0-.25,1c0,.15,0,.3-.06.45a4.49,4.49,0,0,0,0,.75l0,.5c0,.17,0,.35.06.51a5.32,5.32,0,0,0,.56,1.59c.13.26.37.63.19.94s-.64.37-.93.46-.54.21-.81.33a6.19,6.19,0,0,0-.74.37,9.94,9.94,0,0,0-1.19.87c-.25.2-.48.41-.72.65l-.2.2c-.21.24-.4.48-.58.73l-.25.36c-.2.32-.37.64-.54,1l-.22.47a10.48,10.48,0,0,0-.43,1q-.16.44-.29.88l-.14.49a11.74,11.74,0,0,0-.28,1.17c-.06.31-.08.63-.13.94s-.07.5-.08.75l0,.3,0,.55c0,.34,0,.68,0,1s0,.64,0,1v.24l.05.6.06.62.05.44,0,.26a18.51,18.51,0,0,0,.29,1.9l.16.9c.05.25.13.49.18.74.12.53.24,1.06.37,1.58L85,66.63c.08.33.2.64.3,1,.2.64.39,1.29.61,1.93.15.45.35.89.49,1.35s.23.61.33.92c.16.48.35,1,.53,1.44.07.19.14.37.21.56s.23.53.33.8l.26.68c.12.25.23.5.36.75a5,5,0,0,0,1.08,1.52,3.73,3.73,0,0,0,.47.34,4,4,0,0,0,.94.44,3.31,3.31,0,0,0,.94.13h.56a3.18,3.18,0,0,0,.46-.07,3.21,3.21,0,0,0,1.29-.58A3.83,3.83,0,0,0,95,77a4,4,0,0,0,.49-.77,3.09,3.09,0,0,0,.24-.83,4.64,4.64,0,0,0,0-.64v-.11a5,5,0,0,0-.07-.85l-.15-1c-.08-.54-.18-1.07-.25-1.61,0-.25-.14-.75.12-.9s.43.08.56.23c.38.45.81.87,1.19,1.32a1.33,1.33,0,0,1,.34.83,2.83,2.83,0,0,1-.08.54c0,.23-.08.46-.1.69a3.28,3.28,0,0,0,.26,1.74,3.32,3.32,0,0,0,.73.94,4.58,4.58,0,0,0,.56.4,4.23,4.23,0,0,0,1.34.6,3.57,3.57,0,0,0,1.65,0,4.27,4.27,0,0,0,.72-.22,2.25,2.25,0,0,0,.29-.13A10.31,10.31,0,0,0,105.06,75l.7-.82a1.76,1.76,0,0,1,.56-.52c.28-.12.49.1.54.35s0,.41.06.61l.1.64a3.66,3.66,0,0,0,.11.57,3,3,0,0,0,.53,1c.08.1.16.21.25.3a4.21,4.21,0,0,0,.39.35,3.76,3.76,0,0,0,1.47.75,3.59,3.59,0,0,0,1.06.15,4.27,4.27,0,0,0,1.79-.53,3.17,3.17,0,0,0,.56-.42,4.14,4.14,0,0,0,.76-.89c.12-.19.22-.39.33-.6l.19-.38a10.51,10.51,0,0,0,.47-1.36l.13-.52c.08-.3.15-.6.21-.91s.1-.59.15-.9l.05-.37.06-.5.08-.78c0-.2,0-.4,0-.6l0-.57c0-.24,0-.48,0-.72l0-.6c0-.4,0-.8,0-1.2Zm-12.3-19.29a3.85,3.85,0,0,1,.44-.89,4.19,4.19,0,0,1,1.57-1.38,4.32,4.32,0,0,1,1-.34l.39-.06a1.08,1.08,0,0,0,.18,0h.56a3.52,3.52,0,0,1,.67.11,3.72,3.72,0,0,1,.58.21,4.17,4.17,0,0,1,.85.48,3.78,3.78,0,0,1,.35.31,4.18,4.18,0,0,1,.7.81,4.33,4.33,0,0,1,.41.95,3.32,3.32,0,0,1,.13.59,4.9,4.9,0,0,1,0,.51,3.94,3.94,0,0,1,0,.55,4.21,4.21,0,0,1-.63,1.68,4.35,4.35,0,0,1-.62.71,2.71,2.71,0,0,1-.51.41,1.37,1.37,0,0,1-.26.12l-.14,0h-.29a2.77,2.77,0,0,1-.66-.19,5.49,5.49,0,0,1-.53-.21l-.53-.28-.72-.37-.87-.52-.32-.2q-.4-.24-.78-.51c-.48-.34-1.12-.71-1.18-1.38A2.76,2.76,0,0,1,103.46,47.21Zm-10.8-7.95a4,4,0,0,1,.74-1l.33-.32a3.22,3.22,0,0,1,.48-.33,3.85,3.85,0,0,1,.84-.37,4.25,4.25,0,0,1,.61-.13l.29,0h.5a4.24,4.24,0,0,1,1,.17A3.88,3.88,0,0,1,100,39.62a3.66,3.66,0,0,1,.27.92,4.22,4.22,0,0,1,0,.53,3.69,3.69,0,0,1-.26,1.54,4.76,4.76,0,0,1-.27.49,3.77,3.77,0,0,1-.38.55l-.28.3a3.47,3.47,0,0,1-.43.38,5.62,5.62,0,0,1-.62.36l-.21.09a4.5,4.5,0,0,1-.53.18L97,45h-.28a.26.26,0,0,0-.1,0H96a4.25,4.25,0,0,1-1.1-.21,3.07,3.07,0,0,1-.53-.24,4.76,4.76,0,0,1-.71-.47,4.33,4.33,0,0,1-1.3-1.91,3.76,3.76,0,0,1-.11-.52,4,4,0,0,1,.39-2.45Zm6.06,30.43a.55.55,0,0,1-.14.09l-.08,0a.73.73,0,0,1-.22,0,1.21,1.21,0,0,1-.51-.43l-.7-.83q-.34-.42-.72-.81a4.27,4.27,0,0,0-.53-.46,1.88,1.88,0,0,0-.9-.33.66.66,0,0,0-.2,0,.31.31,0,0,0-.13,0h-.12a1.1,1.1,0,0,0-.38.1,2,2,0,0,0-1.2,1.45,2.31,2.31,0,0,0,0,.64l0,.4.27,1.86.08.75c0,.45.14.88.19,1.33l.06.44,0,.47a2.5,2.5,0,0,1,0,.54,1.88,1.88,0,0,1-.21.65,1.62,1.62,0,0,1-.81.69l-.22.07-.1,0h-.1a.25.25,0,0,0-.1,0,1.88,1.88,0,0,1-1.57-1q-.11-.18-.2-.37l-.23-.51-.38-.85c-.16-.36-.32-.71-.48-1.07L89,72.13c-.16-.38-.33-.75-.48-1.13l-.64-1.69-.24-.67c-.09-.22-.17-.44-.24-.66l-.17-.57q-.17-.51-.3-1c-.08-.31-.2-.6-.27-.92l-.15-.61c-.25-.94-.46-1.9-.66-2.86-.07-.3-.08-.62-.14-.93-.13-.69-.19-1.41-.26-2.13,0-.15,0-.3,0-.45l0-.57V57l0-.57c0-.26,0-.52,0-.77s.07-.64.12-1,.12-.81.21-1.2.24-.92.39-1.36l.19-.49c.09-.22.17-.44.28-.66s.21-.38.31-.57a7.42,7.42,0,0,1,1-1.37l.25-.28.25-.26a4.46,4.46,0,0,1,.35-.32,6.66,6.66,0,0,1,3.51-1.47l.5,0,.19,0a10.39,10.39,0,0,1,2.08.25,12.33,12.33,0,0,1,1.75.47l1,.39.64.26c.17.07.34.13.5.22s.53.29.79.46l.44.3c.16.11.33.21.49.33s.46.36.68.55l.39.35.46.38.71.57.42.34c.25.19.53.36.8.52l.48.3c.32.2.64.38,1,.56a11.31,11.31,0,0,0,1.43.64c.22.08.45.14.67.21l.73.22.56.14a5.21,5.21,0,0,1,.69.19,2,2,0,0,1,.78.53,1.57,1.57,0,0,1,.35.6,1.54,1.54,0,0,1-.48,1.64,1.84,1.84,0,0,1-.64.34l-.22.06-.14,0h-.6a6.08,6.08,0,0,1-.9-.06l-.57-.08a10.17,10.17,0,0,1-1-.25c-.26-.08-.51-.2-.76-.29l-.53-.21c-.2-.09-.39-.21-.59-.32l-1.16-.62a8.85,8.85,0,0,0-1.22-.59,3.6,3.6,0,0,0-.5-.12,3.21,3.21,0,0,0-.69-.07h-.26a.36.36,0,0,0-.12,0,.25.25,0,0,0-.1,0H100a1.22,1.22,0,0,0-.28.05,5.35,5.35,0,0,0-.64.21A3,3,0,0,0,98,56a3.4,3.4,0,0,0-.49.6,4.61,4.61,0,0,0-.42.9,2.91,2.91,0,0,0-.17.8,4,4,0,0,0,.29,1.81,3.19,3.19,0,0,0,.42.69,4.55,4.55,0,0,0,.47.53l.28.24a6.65,6.65,0,0,0,1.14.82l.32.19c.19.1.38.2.57.29a1.7,1.7,0,0,1,.76.47c.24.35,0,.78-.12,1.11l-.21.5-.71,1.65c-.15.33-.3.65-.44,1l-.28.71c-.1.24-.21.48-.32.72a1.86,1.86,0,0,1-.39.66Zm15.06-2,0,.57q0,.8-.1,1.61l0,.56q-.09.87-.25,1.72c0,.2-.06.4-.11.59s-.13.5-.2.74a7.32,7.32,0,0,1-.61,1.5,3,3,0,0,1-.75.92,1.56,1.56,0,0,1-.36.21l-.13,0-.09,0H111a.22.22,0,0,0-.09,0,2.41,2.41,0,0,1-.7-.06,1.63,1.63,0,0,1-1.07-1.12,6,6,0,0,1-.07-.81l-.07-.76c0-.18,0-.36,0-.54l0-.44c0-.18,0-.36,0-.54s0-.2,0-.3a1.61,1.61,0,0,0-1.34-1.31l-.3,0H107a.89.89,0,0,0-.27.06,3,3,0,0,0-1.21,1l-.37.42-.6.69c-.22.28-.46.54-.7.81l-.43.5A11.35,11.35,0,0,1,102.3,75c-.11.09-.21.19-.33.28a1.52,1.52,0,0,1-.42.22l-.22.06h-.13a.38.38,0,0,0-.15,0,1.6,1.6,0,0,1-.63-.11,1.69,1.69,0,0,1-1-1.59,2.36,2.36,0,0,1,.14-.62,7.88,7.88,0,0,1,.3-.76c.26-.59.49-1.19.74-1.78l.43-1q.37-.91.79-1.8l.32-.75.47-1.06.28-.62.57-1.35a3.09,3.09,0,0,0,.36-1.24,1.11,1.11,0,0,0-.1-.47,1.63,1.63,0,0,0-.71-.66c-.3-.14-.61-.26-.91-.39l-.45-.22q-.53-.26-1-.57a5.52,5.52,0,0,1-1.06-.78,1.81,1.81,0,0,1-.49-.81,1.55,1.55,0,0,1,.42-1.52,1.66,1.66,0,0,1,.31-.25,1.51,1.51,0,0,1,.49-.2l.24,0a2.7,2.7,0,0,1,.66.06,3.72,3.72,0,0,1,.81.35l.39.21.29.16c.3.17.6.33.91.49a12.71,12.71,0,0,0,1.25.55l.27.11.68.25a6.18,6.18,0,0,0,.72.2c.27.06.54.14.82.18s.65.05,1,.07a4,4,0,0,0,.62,0l.46,0a6.55,6.55,0,0,0,.87-.2,3.8,3.8,0,0,0,.87-.35l.32-.21c.28-.2.61-.44.94-.15a2.4,2.4,0,0,1,.46,1.07c.17.54.31,1.09.44,1.64.07.3.11.62.17.93s.13.74.18,1.12l.06.56c0,.24.05.49.08.74l0,.52q0,1.22,0,2.45Z"/></svg>
