<svg id="BG" xmlns="http://www.w3.org/2000/svg" viewBox="0 0 253 461"><defs><style>.cls-1,.cls-12,.cls-16{fill:#fff;}.cls-2,.cls-4{fill:none;stroke-width:2px;}.cls-2{stroke:#adbacc;stroke-opacity:0.15;}.cls-3,.cls-6,.cls-7{fill:#00467f;}.cls-4{stroke:#00467f;stroke-miterlimit:10;}.cls-5,.cls-6,.cls-7{isolation:isolate;}.cls-6,.cls-7{font-size:3.84px;font-family:Helvetica-Bold, Helvetica;}.cls-16,.cls-6,.cls-7{font-weight:700;}.cls-7{letter-spacing:-0.04em;}.cls-8{fill:#316497;}.cls-9{fill:#839bc1;}.cls-10{fill:#f89728;}.cls-11{fill:#6081ae;}.cls-12{font-size:39.65px;font-family:BrandonGrotesque-Light, Brandon Grotesque;}.cls-13{letter-spacing:0em;}.cls-14{letter-spacing:-0.01em;}.cls-15{letter-spacing:0em;}.cls-16{font-size:22.38px;font-family:BrandonGrotesque-Bold, Brandon Grotesque;}.cls-17{letter-spacing:-0.04em;}.cls-18{letter-spacing:0em;}</style></defs><title>screen-home-cair</title><rect class="cls-1" width="253" height="461" rx="5" ry="5"/><rect class="cls-2" x="1" y="1" width="251" height="459" rx="4" ry="4"/><path class="cls-3" d="M71.82,151.81a67,67,0,1,0,109.36,0Z"/><circle class="cls-4" cx="126.5" cy="190.5" r="77"/><g class="cls-5"><text class="cls-6" transform="translate(114.85 69.12)">C</text><text class="cls-6" transform="translate(117.63 69.12)">o</text><text class="cls-6" transform="translate(119.97 69.12)">u</text><text class="cls-6" transform="translate(122.3 69.12)">n</text><text class="cls-6" transform="translate(124.65 69.12)">c</text><text class="cls-6" transform="translate(126.79 69.12)">i</text><text class="cls-6" transform="translate(127.84 69.12)">l</text><text class="cls-6" transform="translate(128.9 69.12)"> </text><text class="cls-6" transform="translate(129.97 69.12)">o</text><text class="cls-6" transform="translate(132.32 69.12)">n</text><text class="cls-6" transform="translate(134.66 69.12)"> </text><text class="cls-7" transform="translate(135.73 69.12)">A</text><text class="cls-6" transform="translate(138.51 69.12)">m</text><text class="cls-6" transform="translate(141.95 69.12)">e</text><text class="cls-6" transform="translate(144.14 69.12)">r</text><text class="cls-6" transform="translate(145.62 69.12)">i</text><text class="cls-6" transform="translate(146.69 69.12)">c</text><text class="cls-6" transform="translate(148.86 69.12)">a</text><text class="cls-6" transform="translate(151 69.12)">n</text><text class="cls-6" transform="translate(153.44 69.12)">-</text><text class="cls-6" transform="translate(154.82 69.12)">I</text><text class="cls-6" transform="translate(155.92 69.12)">s</text><text class="cls-6" transform="translate(158.05 69.12)">l</text><text class="cls-6" transform="translate(159.13 69.12)">a</text><text class="cls-6" transform="translate(161.28 69.12)">m</text><text class="cls-6" transform="translate(164.69 69.12)">i</text><text class="cls-6" transform="translate(165.76 69.12)">c</text><text class="cls-6" transform="translate(167.89 69.12)"> </text><text class="cls-6" transform="translate(168.96 69.12)">R</text><text class="cls-6" transform="translate(171.72 69.12)">e</text><text class="cls-6" transform="translate(173.92 69.12)">l</text><text class="cls-6" transform="translate(174.99 69.12)">a</text><text class="cls-6" transform="translate(177.13 69.12)">t</text><text class="cls-6" transform="translate(178.43 69.12)">i</text><text class="cls-6" transform="translate(179.5 69.12)">o</text><text class="cls-6" transform="translate(181.85 69.12)">n</text><text class="cls-6" transform="translate(184.2 69.12)">s</text></g><path class="cls-8" d="M95,51a3,3,0,0,0,2.94,3,2.93,2.93,0,0,0,1.19-.25h0A6.14,6.14,0,0,1,91.7,56.9h0A7.58,7.58,0,0,0,104.11,51v0a7.58,7.58,0,0,0-12.4-5.88h0a6.14,6.14,0,0,1,7.39,3.14h0A2.93,2.93,0,0,0,97.92,48,3,3,0,0,0,95,51v0Z"/><path class="cls-3" d="M85.41,41.42a3,3,0,0,0,3-2.94,2.93,2.93,0,0,0-.25-1.19v0a6.14,6.14,0,0,1,3.15,7.39h0A7.58,7.58,0,0,0,85.4,32.3h0a7.58,7.58,0,0,0-5.88,12.4h0a6.14,6.14,0,0,1,3.14-7.39v0a2.93,2.93,0,0,0-.25,1.19,3,3,0,0,0,3,2.94h0Z"/><path class="cls-9" d="M75.79,51a3,3,0,0,0-2.94-3,2.93,2.93,0,0,0-1.19.25h0a6.14,6.14,0,0,1,7.39-3.15h0A7.58,7.58,0,0,0,66.67,51v0a7.58,7.58,0,0,0,12.4,5.88h0a6.15,6.15,0,0,1-7.39-3.15h0a2.93,2.93,0,0,0,1.19.25,3,3,0,0,0,2.94-3Z"/><path class="cls-10" d="M90.89,45.52a5.44,5.44,0,0,0,.49-1.14l.05-.06a8.64,8.64,0,0,0,2.34-5.17C95.82,39,97.42,39,97.42,39h0s0,1.6-.17,3.65A8.65,8.65,0,0,0,92.09,45L92,45a5.39,5.39,0,0,0-1.13.48h0Z"/><path class="cls-10" d="M79.9,45.52A5.48,5.48,0,0,0,78.76,45L78.7,45a8.64,8.64,0,0,0-5.17-2.34c-.19-2.05-.17-3.65-.17-3.65h0s1.6,0,3.65.17a8.65,8.65,0,0,0,2.34,5.17l.05.06a5.41,5.41,0,0,0,.48,1.13h0Z"/><path class="cls-11" d="M85.38,60.62a3,3,0,0,0-3,2.94,2.93,2.93,0,0,0,.25,1.19v0a6.14,6.14,0,0,1-3.14-7.39h0a7.57,7.57,0,0,0,5.88,12.39h0a7.57,7.57,0,0,0,5.88-12.39h0a6.14,6.14,0,0,1-3.14,7.39v0a2.93,2.93,0,0,0,.25-1.19,3,3,0,0,0-3-2.94h0Z"/><path class="cls-10" d="M79.9,56.51a5.48,5.48,0,0,0-.49,1.14l-.05.06A8.65,8.65,0,0,0,77,62.87c-2.05.19-3.65.17-3.65.17h0s0-1.6.17-3.65a8.65,8.65,0,0,0,5.17-2.34l.06-.05a5.41,5.41,0,0,0,1.13-.48h0Z"/><path class="cls-10" d="M90.89,56.51A5.48,5.48,0,0,0,92,57l.06.05a8.64,8.64,0,0,0,5.17,2.34c.19,2.05.17,3.65.17,3.65h0s-1.6,0-3.65-.17a8.65,8.65,0,0,0-2.34-5.17l-.05-.06a5.41,5.41,0,0,0-.48-1.13h0Z"/><path class="cls-10" d="M88.41,48a6.16,6.16,0,0,1-6,0,6.16,6.16,0,0,1,0,6,6.16,6.16,0,0,1,6,0,6.17,6.17,0,0,1,0-6"/><path class="cls-3" d="M125.16,39.4a11.43,11.43,0,1,0,0,22.86,10.5,10.5,0,0,0,9.32-4.92l-3.58-2.46a6.36,6.36,0,0,1-5.74,3.28c-4,0-6.76-3.18-6.76-7.35s2.72-7.28,6.76-7.28a6.08,6.08,0,0,1,5.41,2.92L134.08,44C132.08,40.85,129.19,39.4,125.16,39.4Zm20.5.07L135.85,62h4.43l1-2.53h9.05l1,2.53h4.82l-10.2-22.5h-.39Zm13.94.2V62h4.59V39.67Zm9.5,0V62h4.59V56.43h1.57a8.8,8.8,0,0,0,1.31-.1L180.25,62h5.31l-4.62-7a6.94,6.94,0,0,0,4.3-6.92c0-5.45-3.74-8.43-10-8.43H169.1Zm4.59,4h1.44c3.67,0,5.38,1.24,5.38,4.39s-1.64,4.33-5.38,4.33h-1.44Zm-27.9,4s.69,2.43,1.34,4l1.61,3.87h-5.87l1.61-3.87A40.75,40.75,0,0,0,145.79,47.74Z"/><text class="cls-12" transform="translate(79.12 199.94)"><tspan class="cls-13">$</tspan><tspan x="20.93" y="0">9</tspan><tspan class="cls-14" x="42.86" y="0">.</tspan><tspan class="cls-15" x="51.19" y="0">56</tspan></text><rect class="cls-10" x="64.17" y="331" width="124.67" height="13.33" rx="0.83" ry="0.83"/><rect class="cls-4" x="64.17" y="354" width="124.67" height="13.33" rx="0.83" ry="0.83"/><rect class="cls-3" x="8.5" y="401.5" width="236" height="50" rx="2.25" ry="2.25"/><text class="cls-16" transform="translate(81.45 435.7)">DON<tspan class="cls-17" x="51.72" y="0">A</tspan><tspan class="cls-18" x="65.74" y="0">TE</tspan></text></svg>
