<svg id="BG" xmlns="http://www.w3.org/2000/svg" xmlns:xlink="http://www.w3.org/1999/xlink" viewBox="0 0 253 461"><defs><style>.cls-1,.cls-6{fill:#fff;}.cls-2,.cls-4,.cls-7,.cls-8{fill:none;}.cls-2{stroke:#adbacc;stroke-opacity:0.15;}.cls-2,.cls-7,.cls-8{stroke-width:2px;}.cls-3{fill:#2dd6a5;}.cls-4{stroke:#f4f4f4;}.cls-4,.cls-7,.cls-8{stroke-miterlimit:10;}.cls-5{fill:url(#linear-gradient);}.cls-6{font-size:22.38px;font-family:BrandonGrotesque-Bold, Brandon Grotesque;font-weight:700;}.cls-7,.cls-8{stroke:#2dd6a5;}.cls-8{stroke-linecap:round;}</style><linearGradient id="linear-gradient" x1="126.5" y1="535.5" x2="126.5" y2="299.5" gradientUnits="userSpaceOnUse"><stop offset="0" stop-color="#3e82f7"/><stop offset="1" stop-color="#2dd6a5"/></linearGradient></defs><title>screen-flash-main</title><rect class="cls-1" width="253" height="461" rx="5" ry="5"/><rect class="cls-2" x="1" y="1" width="251" height="459" rx="4" ry="4"/><rect class="cls-3" x="32.07" y="103.94" width="188.85" height="27.67" rx="0.83" ry="0.83"/><rect class="cls-4" x="32.07" y="141.73" width="188.85" height="27.67" rx="0.83" ry="0.83"/><rect class="cls-5" x="8.5" y="401.5" width="236" height="50" rx="2.25" ry="2.25"/><text class="cls-6" transform="translate(89.95 435.7)">1H 52M</text><path class="cls-7" d="M100,202.67H153a2.45,2.45,0,0,1,2.45,2.45v26.47A28.91,28.91,0,0,1,126.5,260.5h0a28.91,28.91,0,0,1-28.91-28.91V205.12A2.45,2.45,0,0,1,100,202.67Z"/><path class="cls-7" d="M99.66,260.5h53.69a2.07,2.07,0,0,1,2.07,2.07v26.84a28.91,28.91,0,0,1-28.91,28.91h0a28.91,28.91,0,0,1-28.91-28.91V262.57A2.07,2.07,0,0,1,99.66,260.5Z" transform="translate(253 578.83) rotate(180)"/><line class="cls-8" x1="92.95" y1="197.22" x2="160.05" y2="197.22"/><line class="cls-8" x1="92.95" y1="323.78" x2="160.05" y2="323.78"/><path class="cls-3" d="M126.5,255a23.21,23.21,0,0,0,23.19-23.19V225H103.31v6.82A23.21,23.21,0,0,0,126.5,255Z"/><path class="cls-3" d="M113,293.9l-11.11,19.25h49.14L140,293.9A15.54,15.54,0,0,0,113,293.9Z"/><path class="cls-3" d="M84,25.43c.25.85.4,1.74,1.29,2.24a.63.63,0,0,1,.2.58c-.48.88.06,1.41.61,2,.27.27.48.58.19.94s-.47.57-.9.36c-.86-.41-.6.16-.57.61.09,1.23,1,1.7,1.91,2.25.3.19.62.36.93.54.76.45,1.29.8.33,1.74s-.78,1.85.52,2.56c1.81,1,3.54,2,5.75,2,.92,0,1.54,1.18,2.6,1.35a11,11,0,0,0,3.31.33c.62-.09,1-.33.68-1.08a2.49,2.49,0,0,1-.14-1.18.9.9,0,0,1,.87-.88c.72,0,.42.53.46.86a1.75,1.75,0,0,0,2.14,1.52c.75-.14,1.49-.33,2.24-.47,1.38-.25,1.38-.25.33-1.54,1.89,0,2.21-2,3.68-2.65.73-.32,1.28-1,2.18-.56.33.15.44-.2.64-.34.8-.58,1.76-.19,1.67.78-.07.65-.11.67.53.67s1.21.13.65,1.22a2.1,2.1,0,0,1-1.2,1A3,3,0,0,0,113,42.61c-.18,1.28-.67,2.56-1,3.85-.23.94-1.05.39-1.64.61.47,1.14-.57,2.12-.26,3.26.06.21-.17.4-.42.43s-.33-.15-.41-.39c-.27-.85-.59-1.68-.91-2.59-.21.19-.36.34-.53.48s0,1.27-.85.66a1.14,1.14,0,0,1-.21-1.67,3.8,3.8,0,0,1,1-.81,1.08,1.08,0,0,0,.41-1.07c-.07-.55-.57-.27-.87-.28-.63,0-1.26,0-1.88,0-.84,0-1.48,0-1.8-1.1-.22-.74-1.29-.71-2-1-.06,0-.38.44-.47.71s.16.53.47.68c.68.35,1.22.69,0,1.06-.27.08-.87.52-.35,1.05,1.19,1.23,1.28,2.88,1.64,4.4.25,1.05-.3,1.42-1.35,1.14a1.81,1.81,0,0,0-2.44,1.78,1.68,1.68,0,0,1-1.43,1.61c0-5.41-3-8.51-7.73-10.35-2.77-1.08-5.68-1.61-8.52-2.4a13.14,13.14,0,0,1-5.29-2.53c-1.51-1.32-1.67-2.3-.37-3.79a20.72,20.72,0,0,1,1.74-2c.23-.2.54-.34.5-.73-.1-.94,0-1.73,1.45-1.9-2.28-.83-2-2.74-2.18-4.31-.13-1,.83-.7,1.38-.55a4.09,4.09,0,0,0,4.74-1.44Z"/><path class="cls-3" d="M80.75,78.53C79,77,79.19,74.77,78.37,72.91a6.4,6.4,0,0,0-.54-1.36c-1.74-2.23-2.07-5-3-7.55a20,20,0,0,1-1-4.79c0-.39-.36-1,.34-1.1,2.31-.33,4.07-1.77,6-2.85a1.59,1.59,0,0,1,.35-.08,23.8,23.8,0,0,0-.68,5.18c.16,3.9,2.44,6.43,5.63,8.24,1.13.64,1.82,1.1.85,2.41-.47.64-.13,1.49-.17,2.24,0,.49.21,1.2-.76,1-.1,0-.32.09-.32.14.06,2.13-2.81,2.17-3,4.14Z"/><path class="cls-3" d="M73.35,50.57c-.49,0-.53.32-.56.53a2.13,2.13,0,0,1-3.43,1.62,6.43,6.43,0,0,1-2.34-3c1-.07,2,.27,2.63-.85-1.08.12-2.13.27-2.9-.66-.33-.4-1.1-.95-.75-1.25s1-1.21,1.86-1a3.22,3.22,0,0,0,1.59.16c.53-.12,1.33.33,1.55-.32a2.11,2.11,0,0,0-.61-2.16,1.21,1.21,0,0,1-.48-1.28c.08-.28.07-.54-.29-.63-.59-.15-1-.55-.52-1s.78-1.68,1.86-1.37a2.8,2.8,0,0,0,1.95.1.58.58,0,0,1,.78.24,9.29,9.29,0,0,0,4.89,2.92c3.12,1,6.28,1.81,9.41,2.77A16.51,16.51,0,0,1,93.27,48,7.05,7.05,0,0,1,96,55.51,6.92,6.92,0,0,1,90,60.45a8.45,8.45,0,0,1-4-.22A4.14,4.14,0,0,1,83.75,54c1.18-2,4-1.91,5.78.11,0-1.7-1-2.62-2.88-2.79a6.89,6.89,0,0,0-4.46,1.21c-1.47.95-2.9,2-4.38,2.88a18.22,18.22,0,0,1-2.51,1.28c-1.73.73-2.12.47-1.74-1.37A12.79,12.79,0,0,0,73.35,50.57Z"/><path class="cls-3" d="M86.35,67.54C81.42,65,79.54,59.76,82.1,54.93c-.08,2.43.2,4.49,2.25,5.83a11,11,0,0,0,6.24,1.45c-1.36-.24-1.71,1.54-3.11,1.38-.39,0-.74.72-.76,1.29s0,1.16,0,1.75C86.79,67,87.05,67.47,86.35,67.54Z"/><path class="cls-3" d="M86.35,67.54c.43-.18.2-.62.37-.91a1.09,1.09,0,0,1,.11,1.16C86.74,67.92,86.45,67.77,86.35,67.54Z"/><path class="cls-3" d="M114.4,53.07c0-7.2,5.44-12.12,12.47-12.12a10.72,10.72,0,0,1,9.8,5.73l-4.29,2.11a6.35,6.35,0,0,0-5.51-3.41c-4.25,0-7.34,3.27-7.34,7.69s3.09,7.69,7.34,7.69a6.28,6.28,0,0,0,5.51-3.41l4.29,2.07a10.79,10.79,0,0,1-9.8,5.76C119.84,65.19,114.4,60.27,114.4,53.07Z"/><path class="cls-3" d="M137.47,53.07c0-7.2,5.44-12.12,12.47-12.12a10.72,10.72,0,0,1,9.8,5.73l-4.29,2.11a6.35,6.35,0,0,0-5.51-3.41c-4.25,0-7.34,3.27-7.34,7.69s3.09,7.69,7.34,7.69a6.28,6.28,0,0,0,5.51-3.41l4.29,2.07a10.79,10.79,0,0,1-9.8,5.76C142.92,65.19,137.47,60.27,137.47,53.07Z"/><path class="cls-3" d="M177.73,64.77V54.93H166.66v9.84h-5V41.34h5v9.2h11.06v-9.2h5V64.77Z"/><path class="cls-3" d="M96.25,71.19A2.62,2.62,0,0,1,99,68.52a2.36,2.36,0,0,1,2.16,1.26l-.94.46A1.4,1.4,0,0,0,99,69.5a1.7,1.7,0,0,0,0,3.39,1.38,1.38,0,0,0,1.21-.75l.94.46A2.38,2.38,0,0,1,99,73.86,2.62,2.62,0,0,1,96.25,71.19Z"/><path class="cls-3" d="M101.29,71.89a2,2,0,1,1,2,2A1.89,1.89,0,0,1,101.29,71.89Zm2.93,0a1,1,0,1,0-1,1.09A1,1,0,0,0,104.22,71.89Z"/><path class="cls-3" d="M106.68,73.76,105.18,70h1.05l1,2.6,1-2.6h1.06l-1.5,3.73Z"/><path class="cls-3" d="M109.18,71.89a1.9,1.9,0,0,1,1.93-2A1.87,1.87,0,0,1,113,72v.22h-2.78a1,1,0,0,0,1.07.87,1.59,1.59,0,0,0,1-.37l.43.63a2.33,2.33,0,0,1-1.54.52A1.89,1.89,0,0,1,109.18,71.89Zm1.93-1.18a.9.9,0,0,0-.92.83H112A.87.87,0,0,0,111.12,70.72Z"/><path class="cls-3" d="M116,73.76V71.51a.61.61,0,0,0-.69-.7,1.06,1.06,0,0,0-.85.44v2.51h-1V70h1v.49a1.71,1.71,0,0,1,1.31-.58,1.09,1.09,0,0,1,1.21,1.19v2.64Z"/><path class="cls-3" d="M119.91,73.76v-.39a1.55,1.55,0,0,1-1.18.48,1.24,1.24,0,0,1-1.3-1.24,1.19,1.19,0,0,1,1.3-1.21,1.54,1.54,0,0,1,1.18.46v-.5c0-.38-.32-.63-.82-.63a1.57,1.57,0,0,0-1.09.44l-.37-.66a2.45,2.45,0,0,1,1.63-.59c.85,0,1.63.34,1.63,1.42v2.41Zm0-.9V72.4a1,1,0,0,0-.79-.32c-.39,0-.7.2-.7.56s.32.55.7.55A1,1,0,0,0,119.91,72.87Z"/><path class="cls-3" d="M124.13,73.76V71.51a.61.61,0,0,0-.69-.7,1.06,1.06,0,0,0-.85.44v2.51h-1V70h1v.49a1.71,1.71,0,0,1,1.31-.58,1.09,1.09,0,0,1,1.21,1.19v2.64Z"/><path class="cls-3" d="M126,72.84V70.89h-.62V70H126V69h1v1h.76v.86H127v1.69c0,.23.12.41.34.41a.54.54,0,0,0,.34-.11l.21.74a1.21,1.21,0,0,1-.82.24A.93.93,0,0,1,126,72.84Z"/><path class="cls-3" d="M129.69,71.19a2.62,2.62,0,0,1,2.75-2.67,2.36,2.36,0,0,1,2.16,1.26l-.94.46a1.4,1.4,0,0,0-1.21-.75,1.7,1.7,0,0,0,0,3.39,1.38,1.38,0,0,0,1.21-.75l.94.46a2.38,2.38,0,0,1-2.16,1.27A2.62,2.62,0,0,1,129.69,71.19Z"/><path class="cls-3" d="M137.5,73.76V71.49c0-.52-.27-.68-.7-.68a1.09,1.09,0,0,0-.85.44v2.51h-1V68.61h1v1.91a1.73,1.73,0,0,1,1.31-.58,1.08,1.08,0,0,1,1.21,1.18v2.65Z"/><path class="cls-3" d="M139.1,69a.59.59,0,1,1,.59.59A.59.59,0,0,1,139.1,69Zm.1,4.72V70h1v3.73Z"/><path class="cls-3" d="M140.9,73.76V68.61h1v5.16Z"/><path class="cls-3" d="M145.17,73.76v-.48a1.45,1.45,0,0,1-1.15.57c-.94,0-1.65-.71-1.65-2s.7-2,1.65-2a1.44,1.44,0,0,1,1.15.57v-1.9h1v5.16Zm0-1.21V71.24a1.07,1.07,0,0,0-.85-.43,1.1,1.1,0,0,0,0,2.17A1.07,1.07,0,0,0,145.17,72.56Z"/><path class="cls-3" d="M146.88,73.76V70h1v.51a1.6,1.6,0,0,1,1.19-.6v1l-.27,0a1.25,1.25,0,0,0-.92.43v2.47Z"/><path class="cls-3" d="M149.17,71.89a1.9,1.9,0,0,1,1.93-2A1.87,1.87,0,0,1,153,72v.22H150.2a1,1,0,0,0,1.07.87,1.59,1.59,0,0,0,1-.37l.43.63a2.33,2.33,0,0,1-1.54.52A1.89,1.89,0,0,1,149.17,71.89Zm1.93-1.18a.9.9,0,0,0-.92.83H152A.87.87,0,0,0,151.1,70.72Z"/><path class="cls-3" d="M155.95,73.76V71.51a.61.61,0,0,0-.69-.7,1.06,1.06,0,0,0-.85.44v2.51h-1V70h1v.49a1.71,1.71,0,0,1,1.31-.58,1.09,1.09,0,0,1,1.21,1.19v2.64Z"/><path class="cls-3" d="M157.93,70.76l-.43-.35a1.3,1.3,0,0,0,.6-.73.35.35,0,0,1-.15,0,.53.53,0,0,1-.53-.56.62.62,0,0,1,.6-.62.72.72,0,0,1,.7.79A1.8,1.8,0,0,1,157.93,70.76Z"/><path class="cls-3" d="M158.71,73.28l.43-.69a2.14,2.14,0,0,0,1.29.51c.43,0,.63-.17.63-.4,0-.62-2.22-.12-2.22-1.59,0-.63.55-1.18,1.53-1.18a2.38,2.38,0,0,1,1.51.51l-.39.67a1.58,1.58,0,0,0-1.11-.43c-.36,0-.59.16-.59.37,0,.56,2.21.09,2.21,1.6,0,.68-.58,1.2-1.62,1.2A2.52,2.52,0,0,1,158.71,73.28Z"/><path class="cls-3" d="M167.75,73.76V71.6h-2.44v2.16h-1.1V68.61h1.1v2h2.44v-2h1.11v5.16Z"/><path class="cls-3" d="M169.35,71.89a2,2,0,1,1,2,2A1.89,1.89,0,0,1,169.35,71.89Zm2.93,0a1,1,0,1,0-1,1.09A1,1,0,0,0,172.28,71.89Z"/><path class="cls-3" d="M178.4,73.76V71.41c0-.35-.15-.6-.56-.6a1,1,0,0,0-.77.43v2.52h-1V71.41c0-.35-.15-.6-.56-.6a1,1,0,0,0-.77.44v2.51h-1V70h1v.49a1.63,1.63,0,0,1,1.22-.58,1,1,0,0,1,1,.68,1.59,1.59,0,0,1,1.28-.68,1,1,0,0,1,1.1,1.13v2.7Z"/><path class="cls-3" d="M179.87,71.89a1.9,1.9,0,0,1,1.93-2A1.87,1.87,0,0,1,183.67,72v.22h-2.78a1,1,0,0,0,1.07.87,1.59,1.59,0,0,0,1-.37l.43.63a2.33,2.33,0,0,1-1.54.52A1.89,1.89,0,0,1,179.87,71.89Zm1.93-1.18a.9.9,0,0,0-.92.83h1.84A.87.87,0,0,0,181.8,70.72Z"/><path class="cls-3" d="M183.8,73.28l.43-.69a2.14,2.14,0,0,0,1.29.51c.43,0,.63-.17.63-.4,0-.62-2.22-.12-2.22-1.59,0-.63.55-1.18,1.53-1.18a2.38,2.38,0,0,1,1.51.51l-.39.67a1.58,1.58,0,0,0-1.11-.43c-.36,0-.59.16-.59.37,0,.56,2.21.09,2.21,1.6,0,.68-.58,1.2-1.62,1.2A2.52,2.52,0,0,1,183.8,73.28Z"/></svg>
