<svg id="BG" xmlns="http://www.w3.org/2000/svg" viewBox="0 0 253 461"><defs><style>.cls-1,.cls-6{fill:#fff;}.cls-2,.cls-9{fill:none;stroke-width:2px;}.cls-2{stroke:#adbacc;stroke-opacity:0.15;}.cls-3{fill:#081d4c;}.cls-4{fill:#f4f4f4;}.cls-5{fill:#3e82f7;}.cls-6{font-size:22.38px;font-family:BrandonGrotesque-Bold, Brandon Grotesque;font-weight:700;}.cls-7{letter-spacing:-0.04em;}.cls-8{letter-spacing:0em;}.cls-9{stroke:#fff;stroke-miterlimit:10;}.cls-10{fill:#111;}.cls-11{fill:#cc1d2a;}</style></defs><title>screen-engage-video</title><rect class="cls-1" width="253" height="461" rx="5" ry="5"/><rect class="cls-2" x="1" y="1" width="251" height="459" rx="4" ry="4"/><rect class="cls-3" x="8.41" y="99.69" width="236.17" height="111.63" rx="0.83" ry="0.83"/><rect class="cls-4" x="8.5" y="224.75" width="236" height="29.96" rx="0.83" ry="0.83"/><rect class="cls-4" x="8.5" y="308.91" width="236" height="10.56" rx="0.83" ry="0.83"/><rect class="cls-4" x="8.5" y="323.89" width="236" height="10.56" rx="0.83" ry="0.83"/><rect class="cls-4" x="8.5" y="338.87" width="236" height="10.56" rx="0.83" ry="0.83"/><rect class="cls-4" x="8.5" y="353.84" width="236" height="10.56" rx="0.83" ry="0.83"/><rect class="cls-4" x="8.5" y="261.98" width="133.59" height="29.96" rx="0.83" ry="0.83"/><rect class="cls-5" x="8.5" y="401.5" width="236" height="50" rx="2.25" ry="2.25"/><text class="cls-6" transform="translate(81.44 435.7)">DON<tspan class="cls-7" x="51.72" y="0">A</tspan><tspan class="cls-8" x="65.74" y="0">TE</tspan></text><path class="cls-1" d="M123.5,148l10.29,5.82a2,2,0,0,1,0,3.39L123.5,163a2,2,0,0,1-2.91-1.7V149.68A2,2,0,0,1,123.5,148Z"/><circle class="cls-9" cx="126.5" cy="154.7" r="24.57"/><path class="cls-10" d="M109.78,61.64a8.86,8.86,0,0,1-.38,2.6,7,7,0,0,1-1.17,2.26,5.51,5.51,0,0,1-2,1.6,6.62,6.62,0,0,1-2.87.59,6.25,6.25,0,0,1-2.08-.28,8.38,8.38,0,0,1-1.51-.74v6.89H95V55h4.75v1.21a7,7,0,0,1,1.58-1,5.48,5.48,0,0,1,2.34-.42,6.23,6.23,0,0,1,2.88.73,5.76,5.76,0,0,1,2.32,2.26A7.5,7.5,0,0,1,109.78,61.64Zm-5,.11a4.39,4.39,0,0,0-.38-2,2.48,2.48,0,0,0-1-1.1,2.56,2.56,0,0,0-1.25-.34,3.1,3.1,0,0,0-1.39.27,5,5,0,0,0-1,.68v5.14l.53.3a4.83,4.83,0,0,0,.57.28,4.07,4.07,0,0,0,.61.2,2.91,2.91,0,0,0,.69.08,2.3,2.3,0,0,0,1.87-1A4.06,4.06,0,0,0,104.78,61.75Z"/><path class="cls-10" d="M126.19,67.78q-1,.41-1.93.66a7.87,7.87,0,0,1-2.13.25,2.47,2.47,0,0,1-1.64-.42,2.32,2.32,0,0,1-.66-1,7.21,7.21,0,0,1-1.7,1,6.3,6.3,0,0,1-2.46.4,4.82,4.82,0,0,1-2.37-.51A2.91,2.91,0,0,1,112,66.91a3.7,3.7,0,0,1-.36-1.59,3.26,3.26,0,0,1,.63-2.05A4.66,4.66,0,0,1,114,61.94a21.35,21.35,0,0,1,2.8-1.07l1.5-.48.76-.26a4.44,4.44,0,0,0,.53-.24,2.59,2.59,0,0,0-.4-1.53q-.4-.55-1.72-.55a6.22,6.22,0,0,0-2.89.69,10.11,10.11,0,0,0-2.44,1.77V56.62a8.73,8.73,0,0,1,1.91-1,11.27,11.27,0,0,1,2.15-.6,13,13,0,0,1,2.27-.2,7.15,7.15,0,0,1,4.39,1.13A3.7,3.7,0,0,1,124.33,59v5.19a3.28,3.28,0,0,0,.14,1.1.51.51,0,0,0,.51.36,3,3,0,0,0,1.21-.38Zm-6.61-2.57V62a13.15,13.15,0,0,0-2.47,1.23,1.72,1.72,0,0,0-.78,1.49,1.33,1.33,0,0,0,.39,1,1.3,1.3,0,0,0,.9.36,2,2,0,0,0,1-.27A8.45,8.45,0,0,0,119.58,65.21Z"/><path class="cls-10" d="M139.19,67.84q-.59.22-1.25.42a11.66,11.66,0,0,1-1.48.32,12,12,0,0,1-1.8.13,8.43,8.43,0,0,1-3.73-.75,6.22,6.22,0,0,1-2.35-1.87,7,7,0,0,1-1.14-2.3,8.08,8.08,0,0,1-.32-2.07,7.93,7.93,0,0,1,.32-2.07,6.94,6.94,0,0,1,1.13-2.27,6.14,6.14,0,0,1,2.33-1.84,8.57,8.57,0,0,1,3.76-.74,11.4,11.4,0,0,1,2.43.21,15,15,0,0,1,1.9.57V59.3a12.92,12.92,0,0,0-3.63-.74,3.57,3.57,0,0,0-2.25.77,2.82,2.82,0,0,0-1,2.38,3.18,3.18,0,0,0,.49,1.8,2.94,2.94,0,0,0,1.24,1.08,3.6,3.6,0,0,0,1.5.34,7.28,7.28,0,0,0,1.62-.21q.91-.21,2.22-.61Z"/><path class="cls-10" d="M155.29,62.89h-9.47a3.31,3.31,0,0,0,1.36,2,4.1,4.1,0,0,0,2.46.78,12.76,12.76,0,0,0,5.31-1.35v2.94a14.5,14.5,0,0,1-2.53,1,13.53,13.53,0,0,1-3.78.44,8.92,8.92,0,0,1-4.22-.92,6.17,6.17,0,0,1-2.61-2.51,7.37,7.37,0,0,1-.86-3.59,7.2,7.2,0,0,1,.86-3.54,6,6,0,0,1,2.61-2.46,9.19,9.19,0,0,1,4.22-.89,7.44,7.44,0,0,1,3.16.71,5.79,5.79,0,0,1,2.51,2.31,7.82,7.82,0,0,1,1,4.14Zm-4.46-2.35a3.14,3.14,0,0,0-.64-2.07,2.26,2.26,0,0,0-1.84-.77,2.51,2.51,0,0,0-1.92.79,2.89,2.89,0,0,0-.73,2.05Z"/><path class="cls-11" d="M108.14,74.41a1.9,1.9,0,0,1-.23,1,1.46,1.46,0,0,1-.59.57,1.58,1.58,0,0,1-.73.18,1.54,1.54,0,0,1-.46-.06,1.24,1.24,0,0,1-.3-.13l-.23-.17v.31h-1.2V71.46h1.2v1.43a1.25,1.25,0,0,1,.37-.18,1.7,1.7,0,0,1,.54-.08,1.68,1.68,0,0,1,.72.15,1.4,1.4,0,0,1,.51.4,1.75,1.75,0,0,1,.3.57A2.25,2.25,0,0,1,108.14,74.41Zm-1.27,0a1,1,0,0,0-.2-.67.6.6,0,0,0-.47-.23,1.15,1.15,0,0,0-.61.22V75a.85.85,0,0,0,.61.24.7.7,0,0,0,.44-.18A.85.85,0,0,0,106.88,74.38Z"/><path class="cls-11" d="M112.14,74.68h-2.39a.84.84,0,0,0,.34.51,1,1,0,0,0,.62.2,3.23,3.23,0,0,0,1.34-.34v.74a3.67,3.67,0,0,1-.64.25,3.42,3.42,0,0,1-1,.11,2.26,2.26,0,0,1-1.07-.23,1.56,1.56,0,0,1-.66-.63,1.86,1.86,0,0,1-.22-.91,1.82,1.82,0,0,1,.22-.9,1.52,1.52,0,0,1,.66-.62,2.32,2.32,0,0,1,1.07-.23,1.88,1.88,0,0,1,.8.18,1.46,1.46,0,0,1,.63.58,2,2,0,0,1,.25,1ZM111,74.08a.79.79,0,0,0-.16-.52.57.57,0,0,0-.47-.2.63.63,0,0,0-.49.2.73.73,0,0,0-.19.52Z"/><path class="cls-11" d="M113.89,76.08h-1.21V71.46h1.21Z"/><path class="cls-11" d="M115.87,76.08h-1.21v-3.4h1.21Zm-.1-4.18a.48.48,0,0,1-.15.36.49.49,0,0,1-.36.15.5.5,0,0,1-.26-.07.49.49,0,0,1-.18-.18.5.5,0,0,1-.07-.26.49.49,0,0,1,.15-.36.48.48,0,0,1,.36-.15.51.51,0,0,1,.51.51Z"/><path class="cls-11" d="M120.08,74.68h-2.39a.84.84,0,0,0,.34.51,1,1,0,0,0,.62.2A3.23,3.23,0,0,0,120,75v.74a3.67,3.67,0,0,1-.64.25,3.42,3.42,0,0,1-1,.11,2.26,2.26,0,0,1-1.07-.23,1.56,1.56,0,0,1-.66-.63,1.86,1.86,0,0,1-.22-.91,1.82,1.82,0,0,1,.22-.9,1.52,1.52,0,0,1,.66-.62,2.33,2.33,0,0,1,1.07-.23,1.88,1.88,0,0,1,.8.18,1.46,1.46,0,0,1,.63.58,2,2,0,0,1,.25,1Zm-1.13-.59a.79.79,0,0,0-.16-.52.57.57,0,0,0-.47-.2.63.63,0,0,0-.49.2.73.73,0,0,0-.19.52Z"/><path class="cls-11" d="M124.14,72.69l-1.55,3.4h-.89l-1.51-3.4h1.29l.7,1.78.78-1.78Z"/><path class="cls-11" d="M125.7,76.08H124.5v-3.4h1.21Zm-.1-4.18a.48.48,0,0,1-.15.36.49.49,0,0,1-.36.15.5.5,0,0,1-.26-.07.49.49,0,0,1-.18-.18.5.5,0,0,1-.07-.26.49.49,0,0,1,.15-.36.48.48,0,0,1,.36-.15.51.51,0,0,1,.51.51Z"/><path class="cls-11" d="M130.05,76.08h-1.2V74.25a1.21,1.21,0,0,0-.09-.49.39.39,0,0,0-.4-.21.58.58,0,0,0-.26.06.76.76,0,0,0-.2.14l-.15.17-.12.17v2h-1.2v-3.4h1.2v.49a1.73,1.73,0,0,1,.57-.43,1.6,1.6,0,0,1,.64-.12q1.22,0,1.22,1.46Z"/><path class="cls-11" d="M134.08,73.41h-.59a.86.86,0,0,1,.31.67,1,1,0,0,1-.09.4,1,1,0,0,1-.26.34,1.38,1.38,0,0,1-.42.25,2,2,0,0,1-.58.12q-.42,0-.42.22a.13.13,0,0,0,.05.12.42.42,0,0,0,.17.06l.39,0a3.69,3.69,0,0,1,.58.09,1.13,1.13,0,0,1,.5.28.79.79,0,0,1,.23.61,1,1,0,0,1-.17.56,1.11,1.11,0,0,1-.56.38,3.09,3.09,0,0,1-1,.14,2.79,2.79,0,0,1-1.33-.24.73.73,0,0,1-.43-.65.72.72,0,0,1,.06-.25.66.66,0,0,1,.23-.28,1.12,1.12,0,0,1,.52-.18.43.43,0,0,1-.21-.17.45.45,0,0,1-.09-.26.61.61,0,0,1,.12-.35.59.59,0,0,1,.4-.22,1.43,1.43,0,0,1-.66-.38,1,1,0,0,1-.28-.72,1.26,1.26,0,0,1,.13-.58A1.09,1.09,0,0,1,131,73a1.6,1.6,0,0,1,.53-.23,2.71,2.71,0,0,1,.66-.08h1.87ZM133,76.72a.28.28,0,0,0-.24-.29,1.86,1.86,0,0,0-.49-.07,1.5,1.5,0,0,0-.6.09.29.29,0,0,0-.19.28q0,.38.77.38a1.27,1.27,0,0,0,.55-.1A.32.32,0,0,0,133,76.72ZM132.75,74a.52.52,0,0,0-.18-.41.58.58,0,0,0-.39-.16.54.54,0,0,0-.44.19.6.6,0,0,0-.16.39.54.54,0,0,0,.07.27.53.53,0,0,0,.19.2.57.57,0,0,0,.3.08.6.6,0,0,0,.43-.16A.52.52,0,0,0,132.75,74Z"/><path class="cls-11" d="M137.59,76.08h-1.21v-3.4h1.21Zm-.1-4.18a.48.48,0,0,1-.15.36.49.49,0,0,1-.36.15.5.5,0,0,1-.26-.07.49.49,0,0,1-.18-.18.5.5,0,0,1-.07-.26.49.49,0,0,1,.15-.36.48.48,0,0,1,.36-.15.51.51,0,0,1,.51.51Z"/><path class="cls-11" d="M141.94,76.08h-1.2V74.25a1.21,1.21,0,0,0-.09-.49.39.39,0,0,0-.4-.21.58.58,0,0,0-.26.06.77.77,0,0,0-.2.14l-.15.17-.12.17v2h-1.2v-3.4h1.2v.49a1.73,1.73,0,0,1,.57-.43,1.6,1.6,0,0,1,.64-.12q1.22,0,1.22,1.46Z"/><path class="cls-11" d="M147.89,73.41h-.59a.86.86,0,0,1,.31.67,1,1,0,0,1-.09.4,1,1,0,0,1-.26.34,1.38,1.38,0,0,1-.42.25,2,2,0,0,1-.58.12q-.42,0-.42.22a.13.13,0,0,0,.05.12.42.42,0,0,0,.17.06l.39,0a3.69,3.69,0,0,1,.58.09,1.13,1.13,0,0,1,.5.28.79.79,0,0,1,.23.61,1,1,0,0,1-.17.56,1.11,1.11,0,0,1-.56.38,3.09,3.09,0,0,1-1,.14,2.79,2.79,0,0,1-1.33-.24.73.73,0,0,1-.43-.65.72.72,0,0,1,.06-.25.66.66,0,0,1,.23-.28,1.12,1.12,0,0,1,.52-.18.43.43,0,0,1-.21-.17.45.45,0,0,1-.09-.26.61.61,0,0,1,.12-.35.59.59,0,0,1,.4-.22,1.43,1.43,0,0,1-.66-.38,1,1,0,0,1-.28-.72,1.26,1.26,0,0,1,.13-.58,1.09,1.09,0,0,1,.36-.41,1.6,1.6,0,0,1,.53-.23,2.71,2.71,0,0,1,.66-.08h1.87Zm-1.09,3.31a.28.28,0,0,0-.24-.29,1.86,1.86,0,0,0-.49-.07,1.5,1.5,0,0,0-.6.09.29.29,0,0,0-.19.28q0,.38.77.38a1.27,1.27,0,0,0,.55-.1A.32.32,0,0,0,146.8,76.72ZM146.56,74a.52.52,0,0,0-.18-.41.58.58,0,0,0-.39-.16.54.54,0,0,0-.44.19.6.6,0,0,0-.16.39.54.54,0,0,0,.07.27.53.53,0,0,0,.19.2.57.57,0,0,0,.3.08.6.6,0,0,0,.43-.16A.52.52,0,0,0,146.56,74Z"/><path class="cls-11" d="M149.48,76.08h-1.21v-3.4h1.21Zm-.1-4.18a.48.48,0,0,1-.15.36.49.49,0,0,1-.36.15.5.5,0,0,1-.26-.07.49.49,0,0,1-.18-.18.5.5,0,0,1-.07-.26.49.49,0,0,1,.15-.36.48.48,0,0,1,.36-.15.51.51,0,0,1,.51.51Z"/><path class="cls-11" d="M153.19,72.87l-.44,1.21a.81.81,0,0,0-.55-.26.62.62,0,0,0-.44.17,1.68,1.68,0,0,0-.36.64v1.46h-1.2v-3.4h1.2v.82a1.69,1.69,0,0,1,.4-.59.92.92,0,0,1,.67-.29,1,1,0,0,1,.36.06A2.71,2.71,0,0,1,153.19,72.87Z"/><path class="cls-11" d="M154.63,76.08h-1.21V71.46h1.21Z"/><path class="cls-11" d="M158,75.09a1,1,0,0,1-.34.76,1.53,1.53,0,0,1-1,.29,3,3,0,0,1-.67-.07,5.55,5.55,0,0,1-.64-.2V75a4.45,4.45,0,0,0,.53.26,1.3,1.3,0,0,0,.49.09q.45,0,.45-.25a.2.2,0,0,0-.07-.15.93.93,0,0,0-.23-.15l-.43-.2a1.73,1.73,0,0,1-.57-.39.85.85,0,0,1-.23-.6.87.87,0,0,1,.16-.49,1.12,1.12,0,0,1,.47-.38,1.76,1.76,0,0,1,.76-.15l.27,0a2.83,2.83,0,0,1,.42.08,2.23,2.23,0,0,1,.48.18v.83l-.18-.11-.19-.1-.28-.1a1.32,1.32,0,0,0-.33,0,.39.39,0,0,0-.28.08.23.23,0,0,0-.08.16.21.21,0,0,0,.08.16,1.33,1.33,0,0,0,.36.18,3.24,3.24,0,0,1,.64.32,1,1,0,0,1,.34.36A1,1,0,0,1,158,75.09Z"/><path class="cls-11" d="M141.15,53.18s-7.89-.44-11.13-3.07-5.17-6.84-6.31-8.77S121.25,37,121.25,37s6.66-1,9.38,0a15.52,15.52,0,0,1,6.31,4.82c-2.54-2-4.47-1.89-5.39-.13s-.83,4.08,3.68,6.27a10.26,10.26,0,0,1,5.3,3.07A9.46,9.46,0,0,1,142,47.3c1.14-1.49,3.77-5.35,2.81-8.15s-2-3.59-3.68-3.59-3.64,3-3.62,6.09a51.25,51.25,0,0,1-1.69-8.15s-.11-2.78-.31-4-.48-2.37-.48-2.37,6,1.38,9,3,4.78,5.22,4.65,9.07a12.14,12.14,0,0,1-3.24,8.24C143.61,49.63,141.55,51.51,141.15,53.18Z"/></svg>
