<svg id="BG" xmlns="http://www.w3.org/2000/svg" xmlns:xlink="http://www.w3.org/1999/xlink" viewBox="0 0 253 461"><defs><style>.cls-1,.cls-12,.cls-3,.cls-4{fill:none;}.cls-2{fill:#fff;}.cls-3{stroke:#adbacc;stroke-opacity:0.15;}.cls-12,.cls-3,.cls-4{stroke-width:2px;}.cls-4{stroke:#e2dfd6;}.cls-12,.cls-4{stroke-miterlimit:10;}.cls-5{clip-path:url(#clip-path);}.cls-6{fill:#ff0017;}.cls-13,.cls-7{fill:#ffb20f;}.cls-8{font-size:22.38px;fill:#e2dfd6;font-family:BrandonGrotesque-Bold, Brandon Grotesque;font-weight:700;}.cls-9{letter-spacing:-0.04em;}.cls-10{letter-spacing:0em;}.cls-11{fill:#f4f4f4;}.cls-12{stroke:#ff0017;}.cls-13{font-size:39.65px;font-family:BrandonGrotesque-Light, Brandon Grotesque;}.cls-14{letter-spacing:-0.01em;}.cls-15{letter-spacing:0em;}.cls-16{letter-spacing:-0.03em;}</style><clipPath id="clip-path"><rect class="cls-1" x="106.52" y="15.85" width="47.57" height="80.15"/></clipPath></defs><title>screen-RMHC</title><rect class="cls-2" width="253" height="461" rx="5" ry="5"/><rect class="cls-3" x="1" y="1" width="251" height="459" rx="4" ry="4"/><rect class="cls-4" x="8.5" y="401.5" width="236" height="50" rx="2.25" ry="2.25"/><g id="g52613"><g id="g52615"><g id="g52621"><g id="g52623"><g class="cls-5"><g id="g52625"><path id="path52631" class="cls-6" d="M145.47,16l.39.17.41.17.44.19.41.17.41.22.36.22.34.29.27.32.19.39.15.44,0,.53L149,21.3l-.19,0-.12.1,0,.15,0,.15,0,.17,0,.15-.1.1-.15,0-.24.61-.29.51-.36.44-.36.36-.41.32-.44.29-.46.27-.44.27-.44.29-.44.32-.41.34-.36.39-.34.49-.29.56-.31.44-.29.46-.24.46-.19.51-.12.51,0,.56-.58.46.07.1.12,0,.12,0h.12v.58h-1l-.15-.63v-.61l0-.61.15-.61.17-.61.17-.61.15-.61.1-.63,0-.61-.07-.63-.17-.66-.34-.39-.39-.41-.39-.39-.41-.39-.41-.39-.39-.39-.39-.41-.34-.41-.29-.41-.22-.46-.17-.46-.07-.49,0-.51.15-.53.27-.58.19,0,.19-.1.15-.17.12-.17.07-.17v-.07l0,0,0,0,0,0,0,0,0,0,.29-.34.34-.24.39-.15.41-.1.44,0,.41,0,.44,0h.41l.39,0,.29.1.24.19.27.22.24.22.27-.17.22-.19.22-.19.22-.17.22-.15.24-.12.29-.07h.31l.36.07.29-.32Z"/><path class="cls-6" d="M141.65,31.8h-1a0,0,0,0,1,0,0l-.15-.63h0v-.61l0-.61h0l.15-.61.34-1.22.14-.61.1-.63,0-.6-.07-.63L141,25l-.33-.38-.39-.41-.39-.39L139.1,23l-.39-.39-.39-.41-.34-.41-.29-.42h0l-.22-.46-.17-.46h0l-.07-.49h0l0-.51h0l.15-.53h0l.27-.58a0,0,0,0,1,0,0l.18,0,.18-.09.14-.16.12-.16.07-.16v-.06l-.07-.13-.07-.07a0,0,0,0,1,0,0l.29-.34h0l.34-.24h0l.39-.15.42-.1.44,0,.41,0,.44,0h.41l.39,0h0l.29.1h0l.24.19.27.22.22.2.24-.15.43-.39.22-.17.22-.15.25-.12h0l.29-.07h.33l.34.07.28-.3h0l.39.17.41.17.44.2.41.17.41.22.36.22h0l.34.29h0l.27.32h0l.19.39h0l.15.44h0l0,.53L149,21.3a0,0,0,0,1,0,0l-.18,0-.11.08-.09.28,0,.17h0l0,.15h0l-.1.1h0l-.13,0-.24.59h0l-.29.51h0l-.36.44-.36.37-.42.32-.44.29-.46.27-.44.27-.43.29-.43.32-.41.34-.36.38-.34.48-.29.55h0l-.31.44-.29.46-.24.46-.19.51-.12.5,0,.56v0l-.55.44,0,.06.11,0,.11,0h.12a0,0,0,0,1,0,0v.58A0,0,0,0,1,141.65,31.8Zm-1-.07h1v-.51h-.09l-.12,0h0l-.12,0h0l-.07-.1a0,0,0,0,1,0,0l.57-.45,0-.54h0l.12-.51.2-.51.24-.47.29-.46.31-.44.29-.56.34-.49h0l.36-.39.41-.34.44-.32.44-.29.44-.27.46-.27.43-.29.41-.31.36-.36.36-.43.29-.51.24-.6,0,0,.14,0,.09-.09,0-.13,0-.17h0l.1-.29v0l.12-.1h0l.16,0-.12-2.18,0-.53-.14-.43-.19-.38-.26-.31-.33-.29-.36-.22-.41-.22-.41-.17-.44-.2-.41-.17-.36-.16-.27.3h0l-.36-.07h-.31l-.28.07-.24.12-.21.14-.22.17-.43.39h0l-.27.17h0l-.24-.22-.27-.22-.24-.19-.28-.09-.38,0H141l-.44,0-.41,0-.43,0-.41.1-.38.14-.33.24-.27.31,0,0h0l.07.15v.09h0l-.07.17h0l-.12.17-.15.17h0l-.19.1h0l-.17,0-.25.56-.14.53,0,.5.07.48.17.46.22.46.29.41.34.41.39.41.39.39.82.78.39.39.39.41.34.39h0l.17.66h0l.07.63h0l0,.61-.1.63-.15.61-.34,1.22-.14.6,0,.6v.6Z"/><path id="path52633" class="cls-2" d="M145.71,17.44l.41,0,.36.1.36.17.29.22.22.32.15.39.07.46,0,.49,0,.53,0,.51-.12.49-.17.46-.12.12-.17.12-.22.12-.19.12-.17.15-.12.17,0,.22h-.27l-3.41,3.11-.1-.58-.17-.49-.27-.44-.29-.41-.34-.36-.36-.34-.36-.34-.36-.36L139.9,22l-.31-.41-.27-.49-.27-.1-.19-.15-.1-.19,0-.24,0-.24,0-.27,0-.22.07-.22.31-.49.36-.49.44-.41.51-.36.44-.07.41.07.36.19.29.32.24.36.15.46.22.07.19.15.15.19.12.19.1.22.12.17.12.15.15.1h.22l.24-.07.22-.27.1-.24V19.5l0-.29-.12-.29L144,18.8l-.12-.15-.1-.17-.07-.17,0-.19.1-.19.31-.17.34-.15.39-.1.41-.07h.41Z"/><path class="cls-2" d="M142.52,25.75h0a0,0,0,0,1,0,0l-.1-.58-.17-.48-.26-.43-.29-.41-.34-.36-.72-.68-.73-.73-.32-.42h0l-.26-.47-.25-.09h0l-.19-.15h0l-.1-.19h0l0-.24,0-.25h0l0-.27,0-.22.07-.22h0l.31-.49.36-.49h0l.44-.41h0l.51-.36h0l.44-.07h0l.41.07h0l.36.19h0l.29.32h0l.24.36h0l.14.44.2.07h0l.19.15h0l.15.19.12.2h0l.1.22.12.17.12.14.13.09h.2l.23-.07.21-.25.09-.23V19.5l0-.28-.12-.28-.12-.12-.12-.15h0l-.1-.17-.07-.17a0,0,0,0,1,0,0l0-.19h0l.1-.19v0l.31-.17.34-.15h0l.39-.1.41-.07h.42l.41,0h0l.36.1h0l.36.17h0l.29.22h0l.22.32h0l.15.39h0l.07.46,0,.49,0,.54,0,.51h0l-.12.49-.17.47h0l-.12.12h0l-.17.12-.22.12-.19.12-.16.14-.11.16,0,.21a0,0,0,0,1,0,0h-.25l-3.4,3.1Zm-2.9-4.16.31.41.72.72.73.68.34.37h0l.29.41.27.44h0l.17.49h0l.09.52,3.36-3.07h.26l0-.19h0l.12-.17h0l.17-.15h0l.19-.12.22-.12.16-.12.11-.11.17-.45.12-.48,0-.51,0-.53,0-.48-.07-.45-.14-.38-.21-.31-.28-.21-.36-.17-.36-.1-.41,0h-.41l-.41.07-.38.1-.34.14-.3.16-.09.18,0,.18.07.16.09.16.12.14.12.12h0l.12.29h0l0,.29h0v.24h0l-.1.24h0l-.22.27h0l-.24.07h-.25l-.15-.1h0l-.12-.15-.12-.17h0l-.1-.22-.12-.19-.14-.19-.18-.14-.21-.07,0,0-.14-.46-.24-.36-.28-.31-.35-.19-.4-.07-.42.07-.5.36-.43.41-.36.48-.31.48-.07.21,0,.22,0,.26,0,.24,0,.23.09.18.18.14.26.1,0,0Z"/><path id="path52635" d="M128.79,26.15l.29,0-1,1.72.29.63.39.58.46.53.51.49.56.46.56.44.58.44.53.44,1.33.95,1.26,1,1.26,1,1.28.95.29-.41.22-.44.15-.51.1-.51,0-.53,0-.53,0-.56.07-.53.12-.51.19-.49.27-.44.27-.15.27,0,.24.07.24.17.24.19.24.24.24.24.27.22.29.19.31,0,.34,0,.36,0,.34,0,.31,0,.31-.07.24-.15.19-.24.19.1.19.15.17.15.12.17,0,.17-.48.41-.39.49-.31.53-.24.56-.19.58-.15.63-.12.61-.12.63-.12.61-.15.58-.19.58-.24.51,0,.34,0,.32-.07.27-.07.29,0,.32,0,.34.77.87.87.83.9.8.94.73.94.73,1,.73.94.73.94.75.24,0,.19.07.19.17.12.17.07.19-.1,0-.1,0-.1,0-.12,0-.15,0-.31,1.29-.22,1.26L148.11,51l-.1,1.21-.1,1.21-.17,1.19-.27,1.17.22.19.07.19v.19l-.07.22-.1.22-.07.22,0,.19.1,1v.95l0,1-.12.95-.1,1-.07.95,0,1,0,.95.19,1,.31.95,0,.27,0,.27-.1.24-.07.24,0,.19,0,.22,0,.58v.66l0,.68.07.7.07.73,0,.7v.7l0,.66-.15.61.07.29,0,.32,0,.36-.07.39-.12.36,0,1.31v1.24l0,1.19,0,1.19-.07,1.17,0,1.19.1.19.15.19.17.15.22.07.19,0,.19-.15,0,.19-.07.24-.15.24-.12.27-.1.24v.24l-1.26,0-1.36,0-1.38-.1L142.54,85l-1.33-.19-1.62.17L138,85.1l-1.67.15-1.65.15-1.67.07-1.65,0h-1.65l-1.65-.1-1.6-.17L124.9,85l-1.52-.36-2.06.15-2,.12-2,0h-2l-2-.07-2-.15-2-.24-.15.17-.17.1-.22,0h-.22l-.24,0-.22,0-.22,0-.17-.19-.17,0-.19,0-.17.07-.19,0h-.17l-.19-.1-.17-.22.24-.61.1-.61v-.61l0-.61-.07-.63,0-.61,0-.63.1-.63.19-.66.1-2.6.07-2.67.1-2.72.12-2.7.19-2.65h.15l0-1.09.12-1,.15-1,.17-1,.15-1,.1-1,0-1,0-1.07.15-1.51V54.26l-.1-1.51-.15-1.53-.19-1.55-.12-.12-.17-.1-.17,0-.17,0-.17,0-.12-.1-.07-.15,0-.22,0-.24.07-.22.15-.22.17-.17.22-.19.19-.19.19-.22.12-.24.07-.29,0-.32.17-.12.19,0h.22l.22,0h.22l.36-.61.44-.53.46-.53.51-.49.48-.49.46-.51.53-.39.46-.44.44-.46.39-.49.41-.49.41-.46.44-.44.48-.39.58-.32.92-.92.94-.87,1-.85,1-.83,1-.83.94-.85.94-.85.87-.92.8-.95.75-1,.53-.49.39-.53.29-.58.22-.7-.29,0-.19-.12-.1-.15,0-.19,0-.22,0-.22,0-.24.07-.24h1v.07l0,.07,0,0,0,0,0,0,0,0,.24,0,.17-.1.17-.12.15-.17.15-.17.17-.15.19-.1Z"/><path d="M129.69,85.55l-1.65-.1-1.6-.17L124.89,85l-1.52-.36-2.05.15-2,.12-2,0h-2l-2-.07-2-.15-2-.24-.13.16h0l-.17.1h0l-.22,0h-.22l-.25,0-.21,0-.21,0h0l-.16-.19-.15,0-.18,0-.17.07h0l-.19,0h-.19l-.19-.1h0l-.17-.22a0,0,0,0,1,0,0l.24-.6.1-.6v-.6l0-.6-.07-.63,0-.61,0-.63h0l.1-.63h0l.19-.65.1-2.59.07-2.67.1-2.72.12-2.7.19-2.65a0,0,0,0,1,0,0h.11l0-1.06.12-1,.15-1,.17-1,.14-1,.1-1,0-1,0-1.07h0l.15-1.51v-1.5l-.1-1.5-.15-1.53L108,49.68l-.11-.11-.16-.09-.5-.14h0l-.12-.1h0l-.07-.15a0,0,0,0,1,0,0l0-.22,0-.24h0l.07-.22h0l.15-.22h0l.17-.17.22-.2.19-.19.19-.21.12-.24.07-.28,0-.31a0,0,0,0,1,0,0l.17-.12h0l.19,0h.23l.22,0h.19l.35-.59h0l.44-.53.46-.53.51-.49.48-.49.46-.51h0l.53-.39.46-.43.43-.46.39-.48.41-.49.41-.46L115,40l.49-.39h0l.58-.31.92-.92.95-.88,1-.85,1-.83,1-.83,1.89-1.7.87-.92.8-.95.75-1h0l.53-.48.38-.53.29-.58.2-.66-.25,0h0l-.19-.12h0l-.1-.15v0l0-.19h0l0-.22,0-.22,0-.24.07-.25a0,0,0,0,1,0,0h1a0,0,0,0,1,0,0v.07l0,.06,0,.08,0,0,0,0v0l.21,0,.16-.09.16-.12.29-.34h0l.17-.15h0l.19-.1h0l.22,0h0l.29,0,0,0a0,0,0,0,1,0,0l-1,1.71.28.61.39.58.46.53.51.48.55.46.56.44.58.44.53.44,1.33.95,2.52,2,1.25.92.27-.38.21-.43.14-.51.1-.51.14-1.62.07-.54.12-.51h0l.19-.49h0l.27-.44h0l.27-.15h0l.27,0h0l.24.07h0l.24.17.24.2.49.49.26.22.28.18.3,0h0l1,.07.31,0,.31-.07.23-.14.19-.24a0,0,0,0,1,0,0l.19.1h0l.19.15.17.15h0l.12.17h0l0,.17a0,0,0,0,1,0,0l-.48.41-.38.48-.31.53-.24.55-.19.58-.14.63-.12.61-.12.63-.12.61-.15.58-.19.59-.24.5,0,.33h0l0,.32-.07.27-.07.29,0,.31,0,.32.77.87.87.82.9.8,1.89,1.46,1,.73.94.73.93.74.23,0h0l.19.07h0l.19.17h0l.12.17h0l.07.19a0,0,0,0,1,0,0l0,0-.09,0-.19.1-.12,0h0l-.11,0-.31,1.26-.22,1.26-.12,1.26-.19,2.43-.17,1.19-.26,1.15.2.18h0l.07.19h0v.19h0l-.07.22-.1.22-.07.22,0,.19.1,1v1l0,1-.12,1-.1,1-.07.95,0,1,0,.94.19,1,.31.94h0l0,.27h0l0,.27h0l-.1.24-.07.24,0,.19,0,.21h0l0,.58v.65l0,.68.07.7.07.73,0,.71v.71l0,.66h0l-.14.6.07.28h0l0,.32h0l0,.36-.07.39h0l-.12.36,0,1.31v1.24l-.1,2.38-.07,1.17,0,1.18.09.18.14.19.16.14.2.07.18,0,.19-.14h0a0,0,0,0,1,0,0l0,.19h0l-.07.24h0l-.15.24-.12.26-.09.24v.24a0,0,0,0,1,0,0l-1.26,0-1.36,0-1.38-.1L142.54,85l-1.33-.19-3.24.34-1.67.15-1.65.15L133,85.5l-1.65,0Zm-6.32-.95h0l1.52.36,1.55.24,1.6.17,1.64.1h1.64l1.64,0,1.67-.07,1.64-.15,1.67-.15,3.24-.34h0l1.33.19,1.35.12,1.38.1,1.35,0,1.22,0V85h0l.1-.24.12-.27.14-.24.07-.24v-.11l-.13.1h0L148,84h0l-.22-.07h0l-.17-.15h0l-.15-.19h0l-.1-.19v0l0-1.19L147.4,81l.1-2.38V77.35l0-1.31h0l.12-.36.07-.39,0-.36,0-.31-.07-.29a0,0,0,0,1,0,0l.14-.6,0-.65v-.7l0-.7-.07-.73-.07-.7,0-.68v-.66l0-.58,0-.21h0l0-.19h0l.07-.24.1-.24,0-.26,0-.26-.31-.94-.19-1h0l0-.95,0-1,.07-.95.1-1,.12-.95,0-1v-.95l-.1-1h0l0-.19.07-.22.1-.22.07-.21v-.18l-.07-.18-.21-.19a0,0,0,0,1,0,0l.27-1.17.17-1.19.19-2.43.12-1.26.22-1.27.32-1.29a0,0,0,0,1,0,0l.14,0,.11,0,.19-.1h.07l-.06-.15-.12-.16-.19-.16-.18-.07-.23,0h0l-.94-.75-.94-.73-1-.73-1.89-1.46-.9-.8-.87-.83-.78-.88v0l0-.34h0l0-.32.07-.29.07-.27,0-.31,0-.33a0,0,0,0,1,0,0l.24-.51.19-.58.14-.58.12-.61.12-.63.12-.61.15-.63.19-.59.24-.56.32-.54h0l.39-.49h0l.47-.4,0-.14-.11-.16-.17-.14-.19-.14-.16-.08-.18.22h0l-.24.15h0l-.31.07h0l-.31,0h0l-1-.07-.31,0h0l-.29-.19-.27-.22-.49-.49-.24-.19-.24-.17-.23-.07-.25,0-.25.14-.26.43-.19.48-.12.51-.07.53-.14,1.63-.1.51-.15.51h0l-.22.44h0l-.29.41h0l-1.28-.95-2.52-2-1.33-.95-.53-.44-.58-.44-.56-.44-.56-.46-.51-.49-.46-.54-.39-.59h0l-.29-.63a0,0,0,0,1,0,0l1-1.68-.23,0-.21,0-.19.09-.16.14-.29.34h0l-.17.12-.17.1h0l-.24,0a0,0,0,0,1,0,0l0,0,0,0,0,0,0-.1h0l0-.07h0v0h-.91l-.07.22,0,.24,0,.22,0,.21,0,.18.09.13.18.11.28,0,0,0a0,0,0,0,1,0,0l-.22.7h0l-.29.58h0l-.39.53h0l-.53.48-.75,1-.8.95-.87.92-1.89,1.7-1,.83-1,.83-1,.85-.94.87-.92.92h0l-.58.31-.48.39-.43.43-.41.46-.41.49-.39.48-.44.46-.46.44-.53.39-.46.51-.49.49-.51.49-.46.53-.43.53-.36.61,0,0H109l-.22,0h-.21l-.18,0-.15.11,0,.29a0,0,0,0,1,0,0l-.07.29h0l-.12.24h0l-.19.22-.2.2-.22.2-.17.17-.14.21-.07.21,0,.24h0l0,.21.06.13.11.09.5.14h0l.17.1h0l.12.12v0l.19,1.55.15,1.53.1,1.51v1.51l-.15,1.51,0,1.07,0,1-.1,1-.15,1-.17,1-.15,1-.12,1,0,1.09a0,0,0,0,1,0,0h-.11l-.19,2.61-.12,2.69-.1,2.72-.07,2.67-.1,2.6h0l-.19.65-.1.63,0,.63,0,.61.07.63,0,.61v.61h0l-.1.61h0l-.23.59.15.2.18.09H107l.19,0,.17-.07h0l.19,0h0l.17,0h0l.16.18.2,0h0l.22,0,.24,0h.21l.21,0,.16-.09.14-.17h0l2,.24,2,.15,2,.07h2l2,0,2-.12,2.06-.15Z"/><path id="path52637" class="cls-2" d="M127.1,29.48l.22,0,.22.07.22.15.19.19.19.19.19.19.15.19.15.12.51.32.46.39.46.39.46.41.46.36.53.34.58.24,0,.27.15.22.19.19.22.17.22.15.15.12.48.53.53.46.53.44.51.44.39.44.92.7.82.73.7.78.6.85.56.87.53.92,1.09.8,1,.83,1,.85,1,.87,1,.83,1,.8,1.09.75-.12,1.21,0,1.21,0,1.17.12,1.12-.12.17,0,.19,0,.24,0,.27,0,.27,0,.24-.12.22-.15.27-.12.32-.1.34,0,.36,0,.36.1.34h-.29l0,.85v.9l0,.9-.07.92-.12.87-.15.83-.22.75.1.53,0,.53v1.63l.07.53.12.53.24.53,0,4.32-.07,4.35-.15,4.4-.22,4.42-.1.1-.12,0h-.15l-.15,0h-.15l-.1,0-.1.07,0,.17h-.29l-.17-.24-.22-.15-.22,0-.24,0-.27,0-.29,0h-.29l-.29-.07-1.36.15-1.36.19-1.38.19-1.4.17L135.4,84h-1.48l-2,0-2,0L128,83.86l-1.91-.24v-.15l-.85-.19-.87-.07-.9,0-.9,0-.87.07-.9.1-.87.07-.9.19-.94.1h-.94l-1,0-1-.07-1,0-1,0-1,0v-.15l-.44-.12-.48,0-.48,0-.44.12v.15l-.1-.17-.17-.07-.19,0-.24,0h-.44v.07l-.1,0H109l-.17,0-.19,0-.22,0-.17,0-.17,0,.07-3.4.12-3.47.17-3.57.19-3.57.22-3.62.27-3.59.27-3.52.27-3.47-.22-1-.15-1.07-.1-1.09V50.68l.07-1.09.15-1.07.24-1,.48-.36.41-.44.39-.46.36-.46.36-.49.41-.44.46-.41.56-.36.85-1.12.94-1,1-1,1-.95,1-.92,1-.9,1.07-.87,1-.9,1-.92,1-1,1-1,.9-1.07.82-1.14.75-1.21.19-.32.19-.19Z"/><path class="cls-2" d="M131.92,84.09l-2,0L128,83.9l-1.91-.24a0,0,0,0,1,0,0V83.5l-.82-.19-.87-.07-.89,0-.89,0-.87.07-.89.1-.87.07-.89.19-.95.1h-.95l-1,0-1-.07-1,0-1,0-1,0h0V83.5l-.41-.11-.48,0-.48,0-.41.11v.12a0,0,0,0,1-.07,0l-.09-.16-.15-.07-.19,0-.24,0h-.4v0a0,0,0,0,1,0,0l-.1,0H109l-.17,0-.19,0-.22,0-.34-.1a0,0,0,0,1,0,0l.07-3.4.12-3.47.17-3.57.19-3.57.22-3.62.27-3.59.27-3.52.27-3.47-.22-1-.15-1.07-.1-1.09V50.68l.07-1.1.15-1.07.24-1v0l.48-.36.41-.43.39-.46.36-.46.36-.48.41-.44.46-.42h0l.55-.36.84-1.11.95-1,1-1,1-.95,1-.92,1-.9,1.07-.87,1-.9,1-.92,1-1,1-1,.89-1.07.82-1.14.94-1.53h0l.19-.19h0l.22-.07h0l.22,0h0l.22.07h0l.22.15h0l.58.58h0l.14.19.14.12.51.31h0l.92.78.46.41.46.36.53.34.58.24,0,0,0,.26.14.21.19.19.21.17.22.14.15.12h0l.48.53.53.46.53.44.51.44h0l.38.43.92.7.83.73.7.78.61.85.56.88.53.92,1.08.8,1,.83,1,.85,1,.87,1,.82,1,.8,1.09.75a0,0,0,0,1,0,0l-.12,1.21,0,1.21,0,1.16.12,1.11a0,0,0,0,1,0,0l-.12.16,0,.19,0,.24,0,.26h0l0,.51h0l-.27.49-.12.31-.1.33,0,.36,0,.36.1.34a0,0,0,0,1,0,0h-.28l0,.81v.9l0,.9-.07.92-.12.88-.15.83-.22.75.1.53h0l0,.53v1.63l.07.53.12.53.24.53h0L146,70l-.07,4.35-.15,4.4-.22,4.42v0l-.1.1h0l-.12,0h-.16l-.14,0h-.13l-.09,0-.08.06,0,.16a0,0,0,0,1,0,0h-.29l0,0-.17-.24-.21-.14-.21,0-.5,0-.29,0h-.3l-.28-.07-1.35.15-1.35.19-1.38.19-1.4.17-1.45.12h-1.48Zm-5.8-.5,1.88.24,1.93.15,2,0,2,0h1.48l1.45-.12,1.4-.17,1.38-.19,1.36-.19,1.36-.15h0l.29.07h.28l.29,0,.51,0h0l.22,0h0l.22.15h0l.16.23h.24l0-.14v0l.1-.07h0l.1,0H145l.14,0h.14l.11,0,.08-.08.22-4.41.15-4.4.07-4.35,0-4.31-.24-.53h0l-.12-.53-.07-.54h0V62.49l0-.53-.1-.53a0,0,0,0,1,0,0l.22-.75.14-.82.12-.87.07-.92,0-.9v-.9l0-.85a0,0,0,0,1,0,0h.27l-.08-.3h0l0-.36h0l0-.36h0l.1-.34.12-.32.26-.48,0-.24,0-.26,0-.26h0l0-.24,0-.2v0l.11-.16-.12-1.1,0-1.17,0-1.22.12-1.2-1.07-.74-1-.8-1-.83-1-.88-1-.85-1-.82-1.09-.8h0l-.53-.92-.56-.87-.6-.85-.7-.77-.82-.73-.92-.7h0l-.39-.44-.51-.44-.53-.44-.53-.46-.49-.54-.14-.12-.22-.14-.22-.17-.2-.2h0l-.15-.22h0l0-.25-.56-.24h0l-.53-.34-.46-.37-.46-.41-.92-.77-.51-.31h0l-.15-.12h0l-.14-.19-.58-.58-.21-.14-.21-.07-.21,0-.2.07-.19.19-.19.31-.75,1.21-.82,1.14-.9,1.07-1,1-1,1-1,.92-1,.9-1.07.87-1,.9-1,.92-1,.95-1,1L114,43l-.85,1.11h0l-.55.36-.46.41-.41.43-.36.48-.36.46-.39.46-.41.44h0l-.47.36-.24,1-.14,1.07-.07,1.09v1.14l.1,1.09.14,1.07.22,1h0l-.27,3.47L109.15,62l-.27,3.59-.22,3.62-.19,3.57-.17,3.57-.12,3.47-.07,3.37.31.09.22,0,.19,0,.17,0h.13l.07,0v-.05a0,0,0,0,1,0,0h.44l.25,0,.19,0h0l.17.07h0l0,.05h0a0,0,0,0,1,0,0l.44-.12h0l.48,0,.49,0h0l.44.12a0,0,0,0,1,0,0v.11l1,0,1,0,1,0,1,.07,1,0h.94l.94-.1.89-.19.88-.07.89-.1.87-.07.9,0,.9,0,.87.07h0l.85.19a0,0,0,0,1,0,0Z"/><path id="path52639" class="cls-2" d="M139.27,31.74l.34.1.31.15.31.17.29.19.29.17.31.12.31,0,.36,0,.36-.17-.07.36-.07.41,0,.44-.07.44-.07.44-.15.41-.22.36-.27.29-.73,3.18-.19,0-.1,0-.07-.1,0-.1-.07-.12-.07-.15-.24-.32-.29-.24-.31-.22-.29-.19-.31-.17-.27-.24L138,36.7l-.17-.34.29-1.14.24-1.17.24-1.14.34-1.14.36,0Z"/><path class="cls-2" d="M140.29,38.87h0l-.1,0h0l-.07-.1h0l0-.1-.07-.12-.07-.15-.24-.31-.29-.24-.31-.22-.29-.19-.31-.17h0l-.27-.24-.24-.27h0l-.17-.34a0,0,0,0,1,0,0l.29-1.14L138.3,34l.24-1.14.34-1.14a0,0,0,0,1,0,0l.36,0h0l.34.1h0l.31.15.32.17.29.2.29.17.31.12.31,0,.35,0,.36-.17h0a0,0,0,0,1,0,0l-.07.36-.07.41,0,.44-.15.88h0l-.15.41h0l-.22.36h0l-.26.28-.72,3.17a0,0,0,0,1,0,0l-.19,0Zm-.08-.09.08,0,.16,0,.72-3.16v0l.26-.29.21-.36.14-.41.14-.87,0-.44.07-.41.06-.3-.3.14h0l-.36,0h0l-.31,0h0l-.31-.12h0l-.29-.17-.29-.2-.31-.17-.31-.14-.33-.09-.33,0-.33,1.12-.24,1.14-.24,1.17-.29,1.13.16.32.24.26.26.24.31.17.29.2.32.22.29.24h0l.24.32h0l.07.15.07.12,0,.1Z"/><path id="path52641" d="M107.88,87.46v1.87h.44l.24,0,.17-.15.15-.19.07-.29,0-.36,0-.32-.1-.24-.15-.17-.17-.07-.22,0Zm-.94-.19h1.5l.27,0,.24.07.22.15.17.19.1.24,0,.29,0,.41-.17.34-.22.24-.29.17.51.85.19.32.19.27.19.22.15.15v.07h-.53l-.15,0-.12-.15-.15-.27-.17-.34-.22-.44-.29-.53h-.48v1.31l0,.17L108,91l.12,0,.24,0v.15h-1.4v-.15l.24,0,.12,0,.07-.07,0-.17V87.72l0-.15-.07-.1-.12,0-.24,0v-.15Z"/><path d="M110,91.3h-.54l-.15,0h0l-.12-.15h0l-.15-.27-.39-.78-.28-.51h-.43V90.8l0,.16L108,91l.11,0,.24,0a0,0,0,0,1,0,0v.15a0,0,0,0,1,0,0h-1.4a0,0,0,0,1,0,0v-.15a0,0,0,0,1,0,0l.24,0,.11,0,.06-.06,0-.16V87.73l0-.13-.06-.08-.35-.07a0,0,0,0,1,0,0v-.15a0,0,0,0,1,0,0h1.5l.27,0h0l.24.07h0l.22.15h0l.17.19h0l.1.24h0l0,.29h0l0,.41h0l-.17.34h0l-.22.24h0l-.26.15.49.82.19.32.19.26.19.22.14.14v.1A0,0,0,0,1,110,91.3Zm-.53-.07H110v0l-.13-.14-.19-.22-.2-.27-.2-.32-.51-.85a0,0,0,0,1,0,0l0,0,.29-.17.21-.24.16-.33,0-.4,0-.28-.09-.23-.16-.19-.21-.14-.23-.07-.26,0H107v.08l.33.07h0l.07.1v0l0,.15h0v3.08h0l0,.17v0l-.07.07h0l-.12,0h0l-.21,0v.08h1.33v-.08l-.21,0h0l-.12,0h0l-.07-.07v0l0-.17h0V89.5a0,0,0,0,1,0,0h.48l0,0,.29.53.39.78.14.26.11.14Zm-1.14-1.87h-.44a0,0,0,0,1,0,0V87.46a0,0,0,0,1,0,0h.41l.22,0h0l.17.07h0l.15.17h0l.1.24h0l0,.32h0l0,.36h0l-.07.29h0l-.15.19h0l-.17.15h0l-.24,0Zm-.4-.07h.4l.23,0,.16-.14.14-.19.07-.28,0-.36,0-.31-.09-.23-.14-.16-.16-.07-.21,0h-.37Z"/><path id="path52643" d="M124.29,87.26h.87l1.26,3.21,1.33-3.21h.73v.15l-.22,0-.12.12-.1.17,0,.27v2.79l0,.17,0,.07.12,0,.22,0v.15H127.2v-.15l.19,0,.12,0,0-.07,0-.17V88.16h0l-1.26,3.16h-.07L125,88.18h0v2.53l0,.1,0,.17.15.1.19,0v.15h-1v-.15l.19,0,.12-.1.07-.17v-.1l0-.1v-2.7l-.12-.27-.19-.17-.22-.07Z"/><path d="M126.32,91.35h-.07l0,0-1.17-3v2.33l0,.09,0,.16.13.09.19,0a0,0,0,0,1,0,0v.15a0,0,0,0,1,0,0h-1a0,0,0,0,1,0,0v-.15a0,0,0,0,1,0,0l.19,0,.11-.09.07-.16v-.09h0l0-.09V87.92l-.11-.25-.18-.16-.21-.07a0,0,0,0,1,0,0v-.15a0,0,0,0,1,0,0h.87l0,0,1.23,3.12,1.3-3.12,0,0h.73a0,0,0,0,1,0,0v.15a0,0,0,0,1,0,0l-.21,0-.11.11-.09.16,0,.26V90.8l0,.16,0,.06.11,0,.21,0a0,0,0,0,1,0,0v.15a0,0,0,0,1,0,0H127.2a0,0,0,0,1,0,0v-.15a0,0,0,0,1,0,0l.19,0,.11,0,0-.06,0-.16V88.34l-1.19,3Zm0-.07h0l1.25-3.13a0,0,0,0,1,.07,0v2.65h0l0,.17h0l0,.07h0l-.12,0h0l-.16,0v.08h1.16v-.08l-.19,0h0l-.12,0h0l0-.07h0l0-.17h0V88l0-.27h0l.1-.17h0l.12-.12h0l.19,0V87.3h-.67l-1.32,3.18a0,0,0,0,1,0,0l0,0-1.25-3.18h-.81v.08l.19.06h0l.19.17h0l.12.27h0v2.7h0l0,.09v.09h0l-.07.17h0l-.12.1h0l-.17,0v.08h.95v-.08l-.17,0h0l-.15-.1v0l0-.17,0-.1h0V88.18a0,0,0,0,1,.07,0Z"/><path id="path52645" d="M132.09,87.46v3l0,.29,0,.19.1.1.17,0,.22,0,.29,0,.27-.1.24-.17.19-.24.17-.36.1-.44,0-.58,0-.49-.1-.44-.19-.34-.27-.24L133,87.5l-.41,0Zm-.82-.19h1.5l.46,0,.36.12.31.19.24.29.17.34.1.41,0,.49,0,.49-.12.44-.19.39-.27.34-.34.24-.39.17-.46,0h-1.38v-.15l.19,0,.12,0,0-.07,0-.17V87.72l0-.15,0-.1-.12,0-.19,0Z"/><path d="M131.26,91.3a0,0,0,0,1,0,0v-.15a0,0,0,0,1,0,0l.19,0,.11,0,0-.06,0-.16V87.73l0-.14,0-.08-.1,0-.2,0a0,0,0,0,1,0,0v-.15a0,0,0,0,1,0,0h1.5l.46,0h0l.36.12h0l.31.19h0l.24.29h0l.17.34h0l.1.41h0l0,.49,0,.49h0l-.12.44h0l-.19.39h0l-.27.34h0l-.34.24h0l-.39.17h0l-.46,0Zm0-.07h1.34l.45,0,.38-.17.33-.24.26-.33.19-.38.12-.43,0-.48,0-.48-.1-.41-.17-.33-.24-.28-.31-.19-.36-.12-.46,0H131.3v.08l.17,0,.12,0,0,0,0,.1h0l0,.15h0v3.08h0l0,.17h0l0,.07h0l-.12,0h0l-.16,0Zm1.34-.1h0l-.22,0-.17,0h0l-.1-.1v0l0-.19h0l0-.29v-3a0,0,0,0,1,0,0h.48l.42,0h0l.34.15h0l.27.24h0l.19.34h0l.1.44,0,.49h0l0,.58h0l-.1.44h0l-.17.36h0l-.19.24h0l-.24.17h0l-.27.1h0l-.29,0Zm-.37-.12.16,0,.21,0,.28,0,.26-.09.23-.16.19-.24.17-.36.1-.43,0-.58,0-.48-.09-.43-.19-.33-.26-.24-.33-.14-.41,0h-.44v3l0,.29,0,.18Z"/><path id="path52647" d="M111.22,88l-.29,0-.22.17-.17.24-.12.29-.07.32,0,.32,0,.56.12.44.15.34.19.24.22.15.24,0,.29,0,.19-.15.17-.19.12-.27.07-.29,0-.29,0-.29,0-.46-.07-.36-.12-.29-.15-.24-.19-.15-.17-.1-.22,0Zm.1-.17.31,0,.29.15.24.22.19.27.15.32.07.34,0,.32,0,.49-.12.44-.22.39-.29.29-.34.19-.41,0-.34,0-.31-.17-.27-.27-.19-.34-.12-.41,0-.44,0-.51.15-.44.22-.36.29-.27.34-.17.39-.07Z"/><path d="M111.17,91.35h0l-.34,0h0l-.31-.17h0l-.27-.27h0l-.19-.34h0l-.12-.41h0l0-.44h0l0-.51h0l.15-.44h0l.22-.36h0l.29-.27h0l.34-.17h0l.39-.07h0l.31,0h0l.29.15h0l.24.22h0l.19.27h0l.15.32h0l.07.34h0l0,.32h0l0,.49h0l-.12.44h0l-.22.39h0l-.29.29h0l-.34.19h0l-.41,0Zm-.33-.12.33,0,.4,0,.33-.19.28-.28.21-.38.12-.43,0-.48,0-.31-.07-.33-.14-.31-.19-.26L111.9,88l-.28-.14-.3,0-.38.07-.33.17-.28.26-.21.36-.14.43,0,.5,0,.43.12.41.19.33.26.26Zm.42-.05h0l-.24,0h0l-.22-.15h0l-.19-.24h0l-.15-.34h0l-.12-.44h0l0-.56,0-.32h0l.07-.32h0l.12-.29h0l.17-.24h0l.22-.17h0l.29,0h0l.22,0h0l.17.1.2.15h0l.15.24h0l.12.29h0l.07.36,0,.46h0l0,.29,0,.29-.07.29h0l-.12.27h0l-.17.19h0l-.19.15h0l-.29,0Zm-.23-.12.23,0,.28,0,.18-.14.16-.19.12-.26.07-.29,0-.29,0-.29,0-.46L112,88.8l-.12-.29-.14-.23-.19-.14-.16-.09-.21,0-.28,0-.21.16-.16.24-.12.29-.07.31,0,.31,0,.55.12.43.14.33.19.24Z"/><path id="path52649" d="M112.6,87.89h.7l.85,1.31.85,1.31h0V88.43l0-.07v-.07l0-.15-.15-.1-.22,0v-.12h.94V88h-.1l-.07,0,0,0-.07,0,0,0,0,.1v.15l0,.1v2.74H115l-.92-1.38-.92-1.41v2.31l0,.1,0,.15.15.07.19,0v.12h-.92v-.12l.1,0,.07,0,0,0,0,0,0-.07v-.07l0-.1V88.33l-.1-.15-.15-.12-.19,0v-.12Z"/><path d="M115.17,91.3H115l0,0-.92-1.38-.86-1.31v2.18l0,.09,0,.13.13.06.19,0a0,0,0,0,1,0,0v.12a0,0,0,0,1,0,0h-.92a0,0,0,0,1,0,0v-.12a0,0,0,0,1,0,0l.1,0,.07,0,0,0,0,0,0-.06v-.06h0l0-.09V88.34l-.09-.13-.14-.11-.19,0a0,0,0,0,1,0,0v-.12a0,0,0,0,1,0,0h.7l0,0L115,90.43v-2l0-.07h0v-.07l0-.13-.13-.09-.21,0a0,0,0,0,1,0,0v-.12a0,0,0,0,1,0,0h.94a0,0,0,0,1,0,0V88a0,0,0,0,1,0,0h-.09l-.06,0,0,0h0l-.06,0,0,0,0,.09v.14h0l0,.09v2.74A0,0,0,0,1,115.17,91.3Zm-.1-.07h.07V88.52h0l0-.09v-.14h0l0-.1h0l0,0h0l.07,0,0,0h0l.07,0h.07v-.05h-.87V88l.19,0h0l.15.1v0l0,.15h0v.07l0,.07h0v2.09a0,0,0,0,1,0,0h0l0,0-1.68-2.61h-.65V88l.17,0h0l.15.12h0l.1.15v2.47h0l0,.09V91l0,.07h0l0,0h0l0,0h0l-.07,0-.07,0v.06h.85v-.06l-.17,0h0l-.15-.07,0,0,0-.15,0-.1h0V88.48a0,0,0,0,1,0,0h0l.92,1.41Z"/><path id="path52651" d="M116.5,88.38,116.06,90h.85l-.39-1.58Zm0-.56h.22l.1.44.15.49.12.49.12.46.12.44.1.34,0,.24.1.24.1.15.12,0v.12h-.87v-.12l.07,0,.07,0,0,0,0,0v-.15l0-.1-.17-.61h-1l-.17.63V91l0,0,0,.07,0,0,.07,0v.12h-.68v-.12l.07,0,.07,0,.07-.07,0-.1.07-.24.12-.36.15-.46.15-.49.15-.53.15-.51.15-.49Z"/><path d="M117.8,91.3h-.87a0,0,0,0,1,0,0v-.12a0,0,0,0,1,0,0l.14,0,0,0,0,0v-.13l0-.09-.16-.58H116l-.16.6V91l0,0,0,.06,0,0,.07,0a0,0,0,0,1,0,0v.12a0,0,0,0,1,0,0h-.68a0,0,0,0,1,0,0v-.12a0,0,0,0,1,0,0l.07,0,.07,0,.07-.07,0-.09.07-.24.12-.37.14-.46.15-.49.15-.53.15-.51.15-.49a0,0,0,0,1,0,0h.22a0,0,0,0,1,0,0l.1.44.14.48.12.49.12.46.12.44.1.34,0,.24.09.24.09.13.11,0a0,0,0,0,1,0,0v.12A0,0,0,0,1,117.8,91.3Zm-.84-.07h.8v-.06l-.1,0h0l-.1-.15h0l-.1-.24h0l0-.24-.1-.34-.12-.44-.12-.46-.12-.49-.14-.48-.09-.41h-.16l-.14.46-.14.51-.15.53-.15.49-.15.46-.12.37-.07.24h0l0,.1h0l-.07.07h0l-.07,0h0l0,0v.06H116v-.06l0,0h0l0,0h0l0-.07,0-.05v-.21h0l.17-.63a0,0,0,0,1,0,0h1a0,0,0,0,1,0,0l.17.61,0,.1h0V91l0,0h0l0,0h0l-.12,0ZM116.91,90H116a0,0,0,0,1,0,0l.44-1.58a0,0,0,0,1,0,0h0a0,0,0,0,1,0,0l.39,1.58a0,0,0,0,1,0,0Zm-.8-.07h.76l-.36-1.45Z"/><path id="path52653" d="M117.93,87.89h1V88l-.19,0-.1,0,0,.15v2.5l0,.19.1.12.15,0,.22,0,.27,0,.17-.07.1-.12.07-.22.1-.27h.1l-.12.87h-1.86v-.12l.19,0,.1,0,0-.12v-2.7l0-.15-.1,0-.19,0v-.12Z"/><path d="M119.79,91.3h-1.86a0,0,0,0,1,0,0v-.12a0,0,0,0,1,0,0l.19,0,.08,0,0-.1V88.24l0-.13-.08,0-.19,0a0,0,0,0,1,0,0v-.12a0,0,0,0,1,0,0h1a0,0,0,0,1,0,0V88a0,0,0,0,1,0,0l-.19,0-.08,0,0,.12v2.5l0,.18.08.11.13,0,.21,0,.26,0,.16-.07.09-.11.07-.21.1-.27a0,0,0,0,1,0,0h.12a0,0,0,0,1,0,0l-.12.87A0,0,0,0,1,119.79,91.3ZM118,91.23h1.8l.11-.8h0l-.09.24-.07.22h0l-.1.12h0l-.17.07h0l-.27,0h0l-.22,0h0l-.15,0h0l-.1-.12v0l0-.19V88.23h0l0-.15,0,0,.1,0h0l.16,0v-.05H118V88l.16,0h0l.1,0,0,0,0,.15h0v2.7h0l0,.12,0,0-.1,0h0l-.17,0Z"/><path id="path52655" d="M120.81,88v2.79l0,.17.07.07.15,0,.17,0,.27,0,.22-.07.19-.15.17-.22.12-.29.07-.39,0-.46,0-.44-.1-.36-.15-.27-.22-.22-.29-.12-.34,0Zm-.7-.15h1.26l.41,0,.36.12.27.24.19.32.12.39,0,.46,0,.41-.1.36-.17.34-.22.27-.27.22-.34.15-.39,0H120.1v-.12l.19,0,.1,0,0-.12,0-.27V88.48l0-.24,0-.15-.1,0-.19,0Z"/><path d="M120.1,91.3a0,0,0,0,1,0,0v-.12a0,0,0,0,1,0,0l.19,0,.08,0,0-.1,0-.26V88.48l0-.24,0-.13-.08,0-.19,0a0,0,0,0,1,0,0v-.12a0,0,0,0,1,0,0h1.26l.42,0h0l.36.12h0l.27.24h0l.19.32h0l.12.39h0l0,.46,0,.42h0l-.1.36h0l-.17.34h0l-.22.27h0l-.27.22h0l-.34.15h0l-.39,0Zm0-.07h1.1l.38,0,.33-.14.26-.21.21-.26.17-.33.09-.36,0-.41,0-.45-.12-.38-.19-.31-.26-.23-.35-.12-.41,0h-1.22V88l.16,0h0l.1,0,0,0,0,.15,0,.25v2.19l0,.27,0,.12,0,0-.1,0h0l-.17,0Zm1.1-.07h0l-.17,0-.15,0h0l-.07-.07v0l0-.17h0V88a0,0,0,0,1,0,0h.39l.34,0h0l.29.12h0l.22.22h0l.15.27h0l.1.36h0l0,.44,0,.47-.07.39h0l-.12.29h0l-.17.22h0l-.19.15h0l-.22.07h0l-.27,0Zm-.3-.12.13,0,.16,0,.26,0,.21-.07.19-.14.16-.21.12-.28.07-.39,0-.46,0-.43-.09-.36-.14-.26-.21-.21-.28-.12-.33,0h-.35v2.75l0,.16Z"/><path id="path52657" d="M136.22,88l-.29,0-.22.17-.19.24-.12.29,0,.32,0,.32,0,.56.1.44.17.34.19.24.22.15.24,0,.27,0,.22-.15.17-.19.12-.27.07-.29,0-.29v-.29l0-.46-.07-.36L137,88.5l-.15-.24-.19-.15-.19-.1-.19,0Zm.1-.17.31,0,.29.15.24.22.19.27.15.32.07.34,0,.32,0,.49-.12.44-.22.39-.29.29-.36.19-.39,0-.34,0-.31-.17-.27-.27-.19-.34-.12-.41,0-.44,0-.51.15-.44.22-.36.29-.27.34-.17.39-.07Z"/><path d="M136.18,91.35h0l-.34,0h0l-.31-.17h0l-.27-.27h0l-.19-.34h0l-.12-.41h0l0-.44h0l0-.51h0l.15-.44h0l.22-.36h0l.29-.27h0l.34-.17h0l.39-.07h0l.31,0h0l.29.15h0l.24.22h0l.19.27h0l.15.32h0l.07.34h0l0,.32h0l0,.49h0l-.12.44h0l-.22.39h0l-.29.29h0l-.36.19h0l-.39,0Zm-.33-.12.33,0,.38,0,.35-.19.28-.28.21-.38.12-.43,0-.48,0-.31-.07-.33-.14-.31-.19-.26-.24-.21-.28-.14-.3,0-.38.07-.33.17-.28.26-.21.36-.14.43,0,.5,0,.43.12.41.19.33.26.26Zm.42-.05h0l-.24,0h0l-.22-.15h0l-.19-.24h0l-.17-.34h0l-.1-.44h0l0-.56,0-.32,0-.32h0l.12-.29h0l.19-.24h0l.22-.17h0l.29,0h0l.19,0h0l.19.1h0l.19.15h0l.15.24h0l.12.29h0l.07.36h0l0,.46v.29h0l0,.29-.07.29h0l-.12.27h0l-.17.19h0l-.22.15h0l-.27,0Zm-.23-.12.23,0,.25,0,.21-.14.16-.19.12-.26.07-.29,0-.29v-.29l0-.46L137,88.8l-.12-.29-.14-.23-.19-.14-.19-.09-.18,0-.28,0-.21.16-.19.24-.12.28,0,.31,0,.31,0,.55.1.43.17.33.19.24Z"/><path id="path52659" d="M137.6,87.89h.68l.87,1.31.85,1.31h0v-2l0-.1v-.15l-.07-.15-.12-.1-.22,0v-.12h.94V88h-.1l-.07,0-.07,0,0,0,0,0,0,.1v.07l0,.07v2.84H140l-.92-1.38-.92-1.41v2.31l0,.1,0,.15.12.07.22,0v.12h-.92v-.12l.07,0,.07,0,.07,0,0,0,0-.07,0-.07,0-.1V88.33l-.1-.15-.15-.12-.19,0v-.12Z"/><path d="M140.17,91.3H140l0,0-.92-1.38-.86-1.31v2.18l0,.09,0,.13.1.06.21,0a0,0,0,0,1,0,0v.12a0,0,0,0,1,0,0h-.92a0,0,0,0,1,0,0v-.12a0,0,0,0,1,0,0l.21-.07,0,0,0-.14,0-.09V88.34l-.09-.13-.14-.11-.19,0a0,0,0,0,1,0,0v-.12a0,0,0,0,1,0,0h.68l0,0,.87,1.31.81,1.25v-1.9l0-.09h0v-.14l-.07-.13-.11-.09-.21,0a0,0,0,0,1,0,0v-.12a0,0,0,0,1,0,0h.94a0,0,0,0,1,0,0V88a0,0,0,0,1,0,0h-.09l-.06,0-.07,0,0,0,0,0,0,.09v.07h0l0,.07v2.84A0,0,0,0,1,140.17,91.3Zm-.1-.07h.07V88.43h0l0-.07v-.07h0l0-.1h0l0,0h0l0,0h0l.07,0h0l.07,0h.07v-.05h-.87V88l.19,0h0l.12.1h0l.07.15v.16l0,.09h0v2a0,0,0,0,1,0,0h0l0,0-.85-1.31-.86-1.3h-.62V88l.17,0h0l.15.12h0l.1.15v2.47h0l0,.1,0,.15h0l0,0h0l-.19.06v.06h.85v-.06l-.19,0h0l-.12-.07,0,0,0-.15,0-.1h0V88.48a0,0,0,0,1,0,0h0l.92,1.41Z"/><path id="path52661" d="M141.5,88.38,141.07,90h.85l-.41-1.58Zm0-.56h.19l.12.44.12.49.15.49.12.46.1.44.1.34.07.24.1.24.07.15.15,0v.12h-.87v-.12l.07,0,.07,0,0,0,0,0v-.15l0-.1-.17-.61h-1l-.17.63,0,.1,0,.1,0,0,0,.07.07,0,.07,0v.12h-.7v-.12l.1,0,.07,0,0-.07.07-.1.07-.24.12-.36.12-.46.15-.49.17-.53.15-.51.15-.49Z"/><path d="M142.81,91.3h-.87a0,0,0,0,1,0,0v-.12a0,0,0,0,1,0,0l.14,0,0,0,0,0v-.13l0-.09-.16-.58H141l-.18.69,0,.08,0,0h0l0,.06.13,0a0,0,0,0,1,0,0v.12a0,0,0,0,1,0,0h-.7a0,0,0,0,1,0,0v-.12a0,0,0,0,1,0,0l.09,0,.06,0,0-.07.07-.09.07-.24.12-.37.12-.46.15-.49.17-.53.14-.51.15-.49a0,0,0,0,1,0,0h.19a0,0,0,0,1,0,0l.12.44.12.49.15.48.12.46.1.44.1.34.07.24.1.24.06.13.13,0a0,0,0,0,1,0,0v.12A0,0,0,0,1,142.81,91.3Zm-.84-.07h.8v-.06l-.12,0,0,0-.07-.15-.1-.25-.07-.25-.1-.34-.1-.44-.12-.46-.15-.48-.12-.49-.11-.41h-.14l-.14.46-.15.51-.17.54-.15.49-.12.46-.12.37-.07.24h0l-.07.1,0,.07h0l-.07,0h0l-.07,0v.06H141v-.06l-.12,0,0,0,0-.07,0,0h0l0-.1a0,0,0,0,1,0,0l0-.1.17-.63a0,0,0,0,1,0,0h1a0,0,0,0,1,0,0l.17.61,0,.1h0V91l0,0h0l0,0h0l-.12,0ZM141.91,90H141a0,0,0,0,1,0,0l.44-1.58a0,0,0,0,1,0,0h0a0,0,0,0,1,0,0l.41,1.58a0,0,0,0,1,0,0Zm-.8-.07h.75l-.37-1.41Z"/><path id="path52663" d="M142.93,87.89h1V88l-.19,0-.1,0,0,.15v2.5l0,.19.1.12.15,0,.22,0,.27,0,.17-.07.1-.12.07-.22.1-.27h.1l-.12.87h-1.86v-.12l.19,0,.1,0,0-.12v-2.7l0-.15-.1,0-.19,0v-.12Z"/><path d="M144.79,91.3h-1.86a0,0,0,0,1,0,0v-.12a0,0,0,0,1,0,0l.19,0,.08,0,0-.1V88.24l0-.13-.08,0-.19,0a0,0,0,0,1,0,0v-.12a0,0,0,0,1,0,0h1a0,0,0,0,1,0,0V88a0,0,0,0,1,0,0l-.19,0-.08,0,0,.12v2.5l0,.18.08.11.13,0,.21,0,.26,0,.16-.07.09-.11.07-.21.1-.27a0,0,0,0,1,0,0h.12a0,0,0,0,1,0,0l-.12.87A0,0,0,0,1,144.79,91.3ZM143,91.23h1.8l.11-.8h0l-.09.24-.07.22h0l-.1.12h0l-.17.07h0l-.27,0h0l-.22,0h0l-.15,0h0l-.1-.12v0l0-.19V88.23h0l0-.15,0,0,.1,0h0l.16,0v-.05H143V88l.16,0h0l.1,0,0,0,0,.15h0v2.7h0l0,.12,0,0-.1,0h0l-.17,0Z"/><path id="path52665" d="M145.81,88v2.79l0,.17.07.07.15,0,.17,0,.27,0,.22-.07.19-.15.17-.22.12-.29.07-.39,0-.46,0-.44-.1-.36-.15-.27-.22-.22-.29-.12-.34,0Zm-.7-.15h1.26l.41,0,.34.12.29.24.19.32.1.39,0,.46,0,.41-.1.36-.17.34-.22.27-.29.22-.31.15-.39,0h-1.14v-.12l.19,0,.1,0,0-.12v-2.7l0-.15-.1,0-.19,0Z"/><path d="M145.11,91.3a0,0,0,0,1,0,0v-.12a0,0,0,0,1,0,0l.19,0,.08,0,0-.1V88.24l0-.12-.08,0-.19,0a0,0,0,0,1,0,0v-.12a0,0,0,0,1,0,0h1.26l.42,0h0l.34.12h0l.29.24h0l.19.32h0l.1.39h0l0,.46h0l0,.41h0l-.1.36h0l-.17.34h0l-.22.27h0l-.29.22h0l-.31.15h0l-.39,0Zm0-.07h1.1l.38,0,.31-.14.28-.21.21-.26.17-.33.09-.36,0-.41,0-.46-.09-.38-.19-.31-.28-.24-.33-.12-.41,0h-1.22V88l.16,0h0l.1,0,0,0,0,.15h0v2.7h0l0,.12,0,0-.1,0h0l-.17,0Zm1.1-.07h0l-.17,0-.15,0h0l-.07-.07v0l0-.17h0V88a0,0,0,0,1,0,0h.39l.34,0h0l.29.12h0l.22.22h0l.15.27h0l.1.36h0l0,.44,0,.47-.07.39h0l-.12.29h0l-.17.22h0l-.19.15h0l-.22.07h0l-.27,0Zm-.3-.12.13,0,.16,0,.26,0,.21-.07.19-.14.16-.21.12-.28.07-.39,0-.46,0-.43-.09-.36-.14-.26-.21-.21-.28-.12-.33,0h-.35v2.75l0,.16Z"/><path id="path52667" d="M130,87.82l.31,0,.22.07.19.07.07,0,0,0,0,0v.68h-.1l0-.19,0-.17-.12-.17-.15-.15-.19-.1L130,88l-.34,0-.27.15-.19.24-.15.32-.1.36,0,.41,0,.46.1.39.15.32.22.27.29.15.34,0,.27,0,.22-.12.17-.17.12-.19.1-.24h.1l-.12.61v.07l0,0,0,0,0,0,0,0-.19.07-.27,0-.29,0-.31,0-.31-.1-.27-.17-.24-.24-.17-.32-.12-.41,0-.51,0-.32.07-.34.17-.34.22-.27.27-.24.34-.17.41,0Z"/><path d="M130,91.35h0l-.31,0h0l-.31-.1h0l-.27-.17h0l-.24-.24h0l-.17-.32h0l-.12-.41h0l0-.51h0l0-.32.07-.34h0l.17-.34h0l.22-.27h0l.27-.24h0l.34-.17h0l.41,0h0l.31,0h0l.22.07.2.07.07,0,0,0,0,0,0,0v.7a0,0,0,0,1,0,0h-.1a0,0,0,0,1,0,0l0-.19,0-.16-.12-.16-.14-.14-.18-.09L130,88l-.33,0-.25.14-.19.23-.14.31-.1.36,0,.41,0,.45.1.38.14.31.21.26.28.14.33,0,.25,0,.21-.12.16-.16.12-.19.1-.24,0,0H131a0,0,0,0,1,0,0l-.12.6v.09l0,0h0l-.15.07-.2.07h0l-.27,0-.29,0Zm-.31-.09.31,0,.29,0,.26,0,.19-.07.14-.07h0V91h0l.11-.56h0l-.09.22h0l-.12.19h0l-.17.17h0l-.22.12h0l-.27,0h0l-.34,0h0l-.29-.15h0l-.22-.27h0l-.15-.32h0l-.1-.39h0l0-.46,0-.42h0l.1-.36h0l.15-.32h0l.19-.24h0l.27-.15h0l.34,0h0l.27,0h0l.19.1h0l.15.15h0l.12.17h0l0,.17h0l0,.16h0v-.63l0,0h0l0,0-.06,0-.2-.07-.21-.07-.31,0-.4,0-.33.16-.26.24-.21.26-.17.33-.07.34,0,.31,0,.5.12.41.17.31.24.24.26.17Z"/><path id="path52669" d="M110.54,91.92h1.23v.15l-.19,0-.12,0,0,.1,0,.15v1.24H113V92.39l0-.15,0-.1-.12,0-.19,0v-.15h1.23v.15l-.22,0-.12,0,0,.1,0,.15v3.08l0,.17,0,.07.12,0,.22,0v.15H112.6v-.15l.19,0,.12,0,0-.07,0-.17v-1.6h-1.6v1.6l0,.17,0,.07.12,0,.19,0v.15h-1.23v-.15l.19,0,.12,0,.07-.07v-3.4l-.07-.1-.12,0-.19,0Z"/><path d="M113.84,96H112.6a0,0,0,0,1,0,0v-.15a0,0,0,0,1,0,0l.19,0,.11,0,0-.06,0-.16V93.9h-1.53v1.56l0,.16,0,.06.11,0,.19,0a0,0,0,0,1,0,0v.15a0,0,0,0,1,0,0h-1.23a0,0,0,0,1,0,0v-.15a0,0,0,0,1,0,0l.19,0,.11,0,.06-.06V92.25l-.06-.08-.11,0-.19,0a0,0,0,0,1,0,0v-.15a0,0,0,0,1,0,0h1.23a0,0,0,0,1,0,0v.15a0,0,0,0,1,0,0l-.19,0-.1,0,0,.08,0,.14v1.2H113v-1.2l0-.14,0-.08-.1,0-.19,0a0,0,0,0,1,0,0v-.15a0,0,0,0,1,0,0h1.23a0,0,0,0,1,0,0v.15a0,0,0,0,1,0,0l-.21,0-.1,0,0,.08,0,.14v3.08l0,.16,0,.06.11,0,.21,0a0,0,0,0,1,0,0v.15A0,0,0,0,1,113.84,96Zm-1.2-.07h1.16v-.08l-.19,0h0l-.12,0h0l0-.07h0l0-.17h0V92.39h0l0-.15h0l0-.1,0,0,.12,0h0l.19,0V92h-1.16V92l.16,0h0l.12,0,0,0,0,.1h0l0,.15h0v1.24a0,0,0,0,1,0,0h-1.6a0,0,0,0,1,0,0V92.39h0l0-.15h0l0-.1,0,0,.12,0h0l.16,0V92h-1.16V92l.16,0h0l.12,0h0l.07.1v3.45l-.07.07h0l-.12,0h0l-.16,0v.08h1.16v-.08l-.16,0h0l-.12,0h0l0-.07h0l0-.17h0v-1.6a0,0,0,0,1,0,0H113a0,0,0,0,1,0,0v1.6h0l0,.17h0l0,.07h0l-.12,0h0l-.16,0Z"/><path id="path52671" d="M126.49,91.85l.31,0,.22,0,.19,0,.17.07.07,0,0,0,0,.07V93h-.12l0-.24-.07-.22-.12-.19-.17-.17-.27-.1-.31,0-.34,0-.29.15-.22.19-.19.29-.12.32-.07.39,0,.44,0,.46.1.41.12.36.19.29.24.22.31.15.36,0,.34,0,.24-.15.19-.19.15-.24.12-.27h.12l-.15.73v0l0,0,0,0-.07,0-.07,0-.22.07-.29.07-.36,0-.36,0-.31-.1-.31-.15-.27-.19-.22-.29-.17-.36-.1-.44,0-.53,0-.34.1-.36.12-.34.22-.32.24-.29.31-.22.39-.15Z"/><path d="M126.47,96h0l-.36,0h0l-.31-.1h0l-.31-.15h0l-.27-.19h0l-.22-.29h0l-.17-.36h0l-.1-.44,0-.54h0l0-.34h0l.1-.36.12-.34h0l.22-.32.24-.29h0l.31-.22h0l.39-.15h0l.41,0h0l.31,0h0l.22,0,.19,0h0l.17.07h0l.07,0h0l0,0h0l0,.07V93a0,0,0,0,1,0,0h-.12a0,0,0,0,1,0,0l0-.24-.07-.21-.12-.19-.16-.16-.26-.09-.31,0-.33,0-.28.14-.21.19-.19.28-.12.31-.07.39,0,.43,0,.46.1.41.12.36.19.28.24.21.3.14.35,0,.33,0,.23-.14.19-.19.14-.24.12-.26,0,0h.15a0,0,0,0,1,0,0l-.14.73v.06l0,0h0l0,0h0l-.36.12-.29.07h0l-.36,0Zm-.36-.09.36,0,.36,0,.29-.07.35-.12,0,0,0,0v0h0l.14-.69h-.05l-.11.25-.15.25h0l-.19.19h0l-.24.15h0l-.34,0h0l-.36,0h0l-.31-.15h0l-.24-.22h0l-.19-.29h0l-.12-.36-.1-.42h0l0-.46h0l0-.44.07-.39h0l.12-.32h0l.19-.29h0l.22-.19h0l.29-.15h0l.34,0h0l.31,0h0l.27.1h0l.17.17h0l.12.19h0l.07.22h0l0,.21h.05v-.76l0-.06,0,0-.07,0-.16-.07L127,92l-.21,0-.31,0-.4,0-.38.14-.31.21-.24.29-.21.31-.12.34-.1.36,0,.33,0,.53.1.43.17.36.21.28.26.19.31.14Z"/><path id="path52673" d="M115.12,92.56l-.29.07-.24.15-.17.24-.12.29-.07.32,0,.34,0,.53.1.44.17.34.19.24.22.17.24,0,.27,0,.22-.15.17-.22.12-.27.07-.27,0-.32v-.29l0-.44-.07-.39-.12-.29-.17-.22-.17-.17-.19-.07Zm.07-.15.34,0,.29.15.24.22.19.27.12.32.1.32,0,.32,0,.51-.15.44-.22.36-.29.29-.34.19-.39.07-.36-.07-.29-.17-.27-.27-.19-.34-.15-.39,0-.46,0-.49.15-.44.22-.36.29-.29.34-.17Z"/><path d="M115.07,95.94h0l-.36-.07h0l-.29-.17h0l-.27-.27h0l-.19-.34h0l-.15-.39h0l0-.46h0l0-.49h0l.15-.44h0l.22-.36h0l.29-.29h0l.34-.17h0l.36,0h0l.34,0h0l.29.15h0l.24.22h0l.19.27h0l.12.32.1.32h0l0,.32h0l0,.51h0l-.15.44h0l-.22.36h0l-.29.29h0l-.34.19h0l-.39.07Zm-.35-.14.35.07.37-.07.33-.19.28-.28.21-.36.14-.43,0-.5,0-.31-.1-.31-.12-.31-.19-.26-.24-.21-.28-.14-.33,0-.35,0-.33.16-.28.28-.21.36-.14.43,0,.48,0,.45L114,95l.19.33.26.26Zm.45,0h0l-.24,0h0l-.22-.17h0l-.19-.24h0l-.17-.34h0l-.1-.44,0-.54h0l0-.34h0l.07-.32h0l.12-.29h0l.17-.24h0l.24-.15h0l.29-.07h0l.19,0,.2.07h0l.17.17.17.22h0l.12.29h0l.07.39,0,.44v.29h0l0,.32-.07.27h0l-.12.27h0l-.17.22h0l-.22.15h0l-.27,0Zm-.23-.12.23,0,.25,0,.21-.14.16-.21.12-.26.07-.26,0-.31v-.29l0-.44-.07-.38-.12-.28-.17-.21-.16-.16-.19-.07-.18,0-.28.07-.23.14-.16.23-.12.29-.07.31,0,.33,0,.53.1.43.17.33.19.24Z"/><path id="path52675" d="M116.64,92.46h1v.12l-.19,0-.1.07,0,.12v1.68l0,.32,0,.29.07.24.12.19.19.12.24,0,.29,0,.22-.15.17-.24.1-.34,0-.44V92.92l0-.07,0-.07,0-.07,0,0-.07,0-.07,0-.07,0v-.12h.9v.12l-.1,0-.07,0-.07,0,0,0,0,.07,0,.07v.07l0,.1v1.46l0,.41-.1.32-.12.27-.17.19-.17.12-.22.1-.19,0-.36,0-.27-.12-.22-.22-.12-.27-.07-.34,0-.41V92.8l0-.12-.1-.07-.19,0Z"/><path d="M118,95.94h0l-.36,0h0l-.27-.12h0l-.22-.22h0l-.12-.27h0l-.07-.34h0l0-.41V92.8l0-.1-.08-.06-.18,0a0,0,0,0,1,0,0v-.12a0,0,0,0,1,0,0h1a0,0,0,0,1,0,0v.12a0,0,0,0,1,0,0l-.18,0-.08.06,0,.11v1.67l0,.31,0,.29.07.23.11.18.18.11.23,0,.28,0,.21-.14.16-.23.09-.33,0-.43V92.93l-.07-.21,0,0-.21-.07a0,0,0,0,1,0,0v-.12a0,0,0,0,1,0,0h.9a0,0,0,0,1,0,0v.12a0,0,0,0,1,0,0l-.1,0-.14,0,0,0,0,.13v.07h0l0,.09v1.45l0,.41h0l-.1.32-.12.27h0l-.17.19h0l-.17.12h0l-.22.1h0l-.19,0Zm-.35-.12.35,0,.18,0,.21-.09.16-.12.16-.19.12-.26.09-.31,0-.41V93h0l0-.09v-.07h0l0-.15h0l0,0h0l.15,0,.07,0v-.06h-.82v.06l.19.06h0l0,0h0l.07.22h0v1.53l0,.44h0l-.1.34h0l-.17.24h0l-.22.15h0l-.29,0h0l-.24,0h0l-.19-.12h0l-.12-.19h0l-.07-.24,0-.3,0-.32V92.8h0l0-.12v0l.1-.07h0l.16,0v-.05h-.95v.05l.16,0h0l.1.07v0l0,.12h0v1.7l0,.41.07.33.12.26.21.21Z"/><path id="path52677" d="M120.18,92.41h.27l.27.07,0,0v.68h-.1l0-.24-.1-.19-.15-.15-.19,0-.15,0-.15.07-.1.17,0,.22,0,.24.12.19.22.22.24.24.27.27.17.24.07.24,0,.29,0,.32-.15.24-.19.17-.24.12-.29,0-.34,0-.29-.12,0,0V95h.1l0,.29.1.19.12.15.17.1.17,0,.19,0,.15-.15.1-.19,0-.24,0-.17,0-.19-.15-.19-.19-.22-.29-.27-.12-.1-.12-.15-.12-.15-.07-.22,0-.27.07-.32.17-.24.27-.17Z"/><path d="M120,95.94h0l-.34,0h0l-.29-.12h0l0,0V95a0,0,0,0,1,0,0h.1a0,0,0,0,1,0,0l0,.29.09.19.11.14.16.09.16,0,.18,0,.13-.13.09-.18,0-.23,0-.16,0-.18-.14-.19-.19-.22-.29-.26-.12-.1h0l-.24-.29h0l-.07-.22h0l0-.27h0l.07-.32h0l.17-.24h0l.27-.17h0l.31,0h.28l.27.07h0l0,0v.7a0,0,0,0,1,0,0h-.1a0,0,0,0,1,0,0l0-.24-.09-.18-.13-.13-.17,0-.13,0-.13.07-.09.15,0,.21,0,.23.12.19.72.73h0l.17.24h0l.07.24h0l0,.29h0l0,.32h0l-.15.24h0l-.19.17h0l-.24.12h0l-.29,0Zm-.33-.12.33,0,.28,0,.23-.12.19-.16.14-.23,0-.3,0-.28-.07-.23-.16-.24-.72-.73h0l-.12-.19h0l0-.24h0l0-.22h0l.1-.17h0l.15-.07h0l.15,0h0l.19,0h0l.15.15h0l.1.19h0l0,.21h0v-.63h0l-.25-.07h-.26l-.3,0-.25.16-.16.23-.07.3,0,.26.07.21.24.28.12.09.29.27.2.22.15.2h0l0,.19,0,.17a0,0,0,0,1,0,0l0,.24h0l-.1.19h0l-.15.15h0l-.19,0h0l-.17,0h0l-.17-.1h0l-.12-.15h0l-.1-.19h0l0-.26h0v.68h0Z"/><path id="path52679" d="M121.15,92.46h1.69v.78h-.1l0-.24-.07-.19-.1-.15-.17,0h-.53V94h.31l.19,0,.12-.12,0-.24h.1v1h-.1l0-.19-.07-.12-.1-.1-.17,0h-.31v1.09l0,.19,0,.12.1.07.15,0h.17l.27,0,.17-.07.12-.15.07-.19L123,95h.1l-.1.87h-1.86v-.12l.19,0,.1-.07,0-.12V92.8l0-.12-.1-.07-.19,0v-.12Z"/><path d="M123,95.87h-1.86a0,0,0,0,1,0,0v-.12a0,0,0,0,1,0,0l.18,0,.08-.06,0-.1V92.8l0-.1-.08-.06-.18,0a0,0,0,0,1,0,0v-.12a0,0,0,0,1,0,0h1.69a0,0,0,0,1,0,0v.78a0,0,0,0,1,0,0h-.1a0,0,0,0,1,0,0l0-.24-.07-.19-.09-.13-.15,0h-.49V94h.28l.18,0,.11-.11,0-.23a0,0,0,0,1,0,0h.1a0,0,0,0,1,0,0v1a0,0,0,0,1,0,0h-.1a0,0,0,0,1,0,0l0-.19-.07-.11-.09-.09-.16,0h-.28v1.06l0,.19,0,.11.08.06.13,0h.16l.26,0,.16-.07.11-.13.07-.19L123,95a0,0,0,0,1,0,0h.12a0,0,0,0,1,0,0l-.1.87A0,0,0,0,1,123,95.87Zm-1.83-.07H123l.09-.8h0l-.07.26-.07.2h0l-.12.15h0l-.17.07h0l-.27,0h-.18l-.15,0h0l-.1-.07v0l0-.12h0l0-.19v-1.1a0,0,0,0,1,0,0h.32l.17,0h0l.1.1h0l.07.12h0l0,.16h0v-.95h0l0,.21v0l-.12.12h0l-.19,0h-.32a0,0,0,0,1,0,0V92.6a0,0,0,0,1,0,0h.54l.17,0h0l.1.15h0l.07.19h0l0,.21h0v-.71h-1.62v.05l.16,0h0l.1.07v0l0,.12h0v2.7h0l0,.12v0l-.1.07h0l-.16,0Z"/><path id="path52681" d="M128,92.46h1v.12l-.19,0-.1.07,0,.12v1.09H130V92.8l0-.12-.1-.07-.19,0v-.12h1v.12l-.19,0-.1.07,0,.12v2.7l0,.12.1.07.19,0v.12h-1v-.12l.19,0,.1-.07,0-.12V94.09h-1.33v1.41l0,.12.1.07.19,0v.12h-1v-.12l.19,0,.1-.07,0-.12V92.8l0-.12-.1-.07-.19,0Z"/><path d="M130.71,95.87h-1a0,0,0,0,1,0,0v-.12a0,0,0,0,1,0,0l.18,0,.08-.06,0-.1V94.12h-1.26v1.37l0,.11.08.06.18,0a0,0,0,0,1,0,0v.12a0,0,0,0,1,0,0h-1a0,0,0,0,1,0,0v-.12a0,0,0,0,1,0,0l.18,0,.08-.06,0-.1V92.8l0-.1-.08-.06-.18,0a0,0,0,0,1,0,0v-.12a0,0,0,0,1,0,0h1a0,0,0,0,1,0,0v.12a0,0,0,0,1,0,0l-.18,0-.08.06,0,.11v1.05H130V92.8l0-.1-.08-.06-.18,0a0,0,0,0,1,0,0v-.12a0,0,0,0,1,0,0h1a0,0,0,0,1,0,0v.12a0,0,0,0,1,0,0l-.18,0-.08.06,0,.11v2.68l0,.11.08.06.18,0a0,0,0,0,1,0,0v.12A0,0,0,0,1,130.71,95.87Zm-1-.07h.95v-.06l-.16,0h0l-.1-.07v0l0-.12h0V92.8h0l0-.12v0l.1-.07h0l.16,0v-.05h-.95v.05l.16,0h0l.1.07v0l0,.12h0v1.09a0,0,0,0,1,0,0h-1.33a0,0,0,0,1,0,0V92.8h0l0-.12v0l.1-.07h0l.16,0v-.05H128v.05l.16,0h0l.1.07v0l0,.12h0v2.7h0l0,.12v0l-.1.07h0l-.16,0v.06H129v-.06l-.16,0h0l-.1-.07v0l0-.12h0V94.09a0,0,0,0,1,0,0H130a0,0,0,0,1,0,0v1.41h0l0,.12v0l-.1.07h0l-.16,0Z"/><path id="path52683" d="M132.09,93l-.46,1.55h.87L132.09,93Zm0-.56h.22l.12.44.12.49.15.49.12.46.1.41.1.34.07.27.07.22.1.15.15,0v.12h-.9v-.12h.1l.07,0,0,0,0-.07v0l0-.1v-.07l-.17-.63h-1l-.17.66,0,.1v.07l0,.07,0,0,.07,0h.07v.12h-.7v-.12l.07,0,.1,0,0-.1,0-.1.1-.24.12-.36.12-.44.15-.51.15-.51.17-.53Z"/><path d="M133.39,95.87h-.9a0,0,0,0,1,0,0v-.12a0,0,0,0,1,0,0h.09l.06,0,0,0,0-.06v0l0-.09h0v-.07l-.16-.6h-.91l-.19.72v.06l0,.06,0,0,.06,0h.06a0,0,0,0,1,0,0v.12a0,0,0,0,1,0,0h-.7a0,0,0,0,1,0,0v-.12a0,0,0,0,1,0,0l.07,0,.08,0,.09-.18.1-.24.12-.36.12-.44.29-1,.17-.54.12-.46a0,0,0,0,1,0,0h.22a0,0,0,0,1,0,0l.12.44.12.49.14.48.12.46.1.41.1.34.07.27.07.21.09.13.13,0a0,0,0,0,1,0,0v.12A0,0,0,0,1,133.39,95.87Zm-.86-.07h.82v-.06l-.12,0h0l-.1-.15h0l-.07-.22L133,95l-.1-.34-.1-.41-.12-.46-.14-.48-.12-.49-.11-.41h-.16l-.11.44-.17.54-.29,1-.12.44-.12.37-.1.24-.1.2,0,0-.1,0,0,0v.06h.63v-.05h-.06l-.07,0h0l0,0h0l0-.07h0v-.07h0l0-.1.17-.66a0,0,0,0,1,0,0h1a0,0,0,0,1,0,0l.17.63h0v.07l0,.09h0v0h0l0,.07h0l0,0h0l-.07,0h-.07Zm0-1.24h-.9a0,0,0,0,1,0,0l.46-1.55a0,0,0,0,1,0,0,0,0,0,0,1,0,0l.41,1.55a0,0,0,0,1,0,0Zm-.82-.07h.78l-.37-1.39Z"/><path id="path52685" d="M134.29,92.6v1.58h.31l.22,0L135,94l.07-.27,0-.36,0-.29-.07-.19-.12-.15-.15-.07-.15,0Zm-.7-.15h1.11l.22,0,.22.1.17.17.1.22,0,.32,0,.34-.12.27-.17.22-.22.15.39.73.15.27.15.22.12.19.12.12v0h-.39l-.15,0-.12-.19-.12-.29-.19-.44-.24-.51h-.34v1.14l0,.12.1.07.19,0v.12h-1v-.12l.19,0,.1-.07,0-.12V92.8l0-.12-.1-.07-.19,0Z"/><path d="M135.84,95.87h-.4l-.15,0h0l-.12-.19h0l-.12-.29-.19-.44-.23-.49h-.28v1.1l0,.1.08.06.18,0a0,0,0,0,1,0,0v.12a0,0,0,0,1,0,0h-1a0,0,0,0,1,0,0v-.12a0,0,0,0,1,0,0l.18,0,.08-.06,0-.11V92.81l0-.11-.08-.06-.18,0a0,0,0,0,1,0,0v-.12a0,0,0,0,1,0,0h1.11l.22,0h0l.22.1h0l.17.17h0l.1.22h0l0,.32h0l0,.34h0l-.12.27h0l-.17.22h0l-.19.13.37.7.14.27.14.22.12.19.12.12v.07A0,0,0,0,1,135.84,95.87Zm-.38-.07h.34l-.11-.11h0l-.12-.19-.14-.22-.15-.27-.39-.73a0,0,0,0,1,0,0l.21-.14.16-.21.12-.26,0-.33,0-.31-.09-.21-.16-.16-.21-.09-.21,0h-1.07v.05l.16,0h0l.1.07v0l0,.12h0v2.7h0l0,.12v0l-.1.07h0l-.16,0v.06h.95v-.06l-.16,0h0l-.1-.07v0l0-.12h0V94.35a0,0,0,0,1,0,0h.34l0,0,.24.51.19.44.12.29.11.18Zm-.85-1.58h-.31a0,0,0,0,1,0,0V92.6a0,0,0,0,1,0,0h.3l.15,0h0l.15.07h0l.12.15h0l.07.19h0l0,.29h0l0,.36h0L135,94h0l-.15.17h0l-.22,0Zm-.28-.07h.28l.2,0,.13-.15.07-.26,0-.36,0-.28-.07-.18-.11-.14-.13-.07-.14,0h-.25Z"/><path id="path52687" d="M136,92.46h1v.12l-.19,0-.1.07,0,.12,0,.27v2.16l0,.27,0,.12.1.07.19,0v.12h-1v-.12l.19,0,.1-.07,0-.12V92.8l0-.12-.1-.07-.19,0Z"/><path d="M137,95.87h-1a0,0,0,0,1,0,0v-.12a0,0,0,0,1,0,0l.18,0,.08-.06,0-.1V92.8l0-.1-.08-.06-.18,0a0,0,0,0,1,0,0v-.12a0,0,0,0,1,0,0h1a0,0,0,0,1,0,0v.12a0,0,0,0,1,0,0l-.18,0-.08.06,0,.11,0,.26v2.16l0,.26,0,.1.08.06.18,0a0,0,0,0,1,0,0v.12A0,0,0,0,1,137,95.87Zm-1-.07H137v-.06l-.16,0h0l-.1-.07v0l0-.12,0-.27V93.07l0-.27,0-.13v0l.1-.07h0l.16,0v-.05H136v.05l.16,0h0l.1.07v0l0,.12h0v2.7h0l0,.12v0l-.1.07h0l-.16,0Z"/><path id="path52689" d="M137.26,92.46h2.08l.1.73h-.1l-.07-.17-.07-.17-.07-.12-.15-.07-.17,0h-.34v2.62l0,.27,0,.12.1.07.19,0v.12h-1v-.12l.19,0,.1-.07,0-.12V92.6h-.34l-.17,0-.12.07-.1.12-.07.17-.07.17h-.1Z"/><path d="M138.81,95.87h-1a0,0,0,0,1,0,0v-.12a0,0,0,0,1,0,0l.18,0,.08-.06,0-.1V92.64h-.3l-.16,0-.11.07-.09.11-.14.34,0,0h-.12a0,0,0,0,1,0,0l.12-.73a0,0,0,0,1,0,0h2.08a0,0,0,0,1,0,0l.1.73a0,0,0,0,1,0,0h-.12l0,0-.15-.34-.06-.11-.13-.07-.16,0h-.3v2.59l0,.26,0,.1.08.06.18,0a0,0,0,0,1,0,0v.12A0,0,0,0,1,138.81,95.87Zm-1-.07h.95v-.06l-.16,0h0l-.1-.07v0l0-.12,0-.27V92.6a0,0,0,0,1,0,0h.35l.17,0h0l.15.07h0l.07.12.14.32h0l-.09-.66h-2l-.11.66h0l.14-.32h0l.1-.12h0l.12-.07h0l.17,0h.35a0,0,0,0,1,0,0v2.89h0l0,.12v0l-.1.07h0l-.16,0Z"/><path id="path52691" d="M139.61,92.46h1v.12l-.19,0-.1.07,0,.12,0,.27v2.16l0,.27,0,.12.1.07.19,0v.12h-1v-.12l.19,0,.1-.07,0-.12V92.8l0-.12-.1-.07-.19,0Z"/><path d="M140.63,95.87h-1a0,0,0,0,1,0,0v-.12a0,0,0,0,1,0,0l.18,0,.08-.06,0-.1V92.8l0-.1-.08-.06-.18,0a0,0,0,0,1,0,0v-.12a0,0,0,0,1,0,0h1a0,0,0,0,1,0,0v.12a0,0,0,0,1,0,0l-.18,0-.08.06,0,.11,0,.26v2.16l0,.26,0,.1.08.06.18,0a0,0,0,0,1,0,0v.12A0,0,0,0,1,140.63,95.87Zm-1-.07h.95v-.06l-.16,0h0l-.1-.07v0l0-.12,0-.27V93.07l0-.27,0-.13v0l.1-.07h0l.16,0v-.05h-.95v.05l.16,0h0l.1.07v0l0,.12h0v2.7h0l0,.12v0l-.1.07h0l-.16,0Z"/><path id="path52693" d="M140.92,92.46h1.69v.78h-.1l0-.24-.07-.19-.12-.15-.17,0h-.51V94h.31l.19,0,.12-.12,0-.24h.1v1h-.1V94.4l-.07-.12-.1-.1-.17,0h-.31v1.09l0,.19,0,.12.1.07.15,0h.17l.27,0,.17-.07.1-.15.07-.19.1-.29h.1l-.12.87h-1.86v-.12l.19,0,.1-.07,0-.12V92.8l0-.12-.1-.07-.19,0v-.12Z"/><path d="M142.78,95.87h-1.86a0,0,0,0,1,0,0v-.12a0,0,0,0,1,0,0l.18,0,.08-.06,0-.11V92.81l0-.11-.08-.06-.18,0a0,0,0,0,1,0,0v-.12a0,0,0,0,1,0,0h1.69a0,0,0,0,1,0,0v.78a0,0,0,0,1,0,0h-.1a0,0,0,0,1,0,0l0-.24-.07-.18-.11-.13-.15,0h-.47V94h.27l.18,0,.11-.11,0-.23a0,0,0,0,1,0,0h.1a0,0,0,0,1,0,0v1a0,0,0,0,1,0,0h-.1a0,0,0,0,1,0,0v-.18l-.07-.11-.09-.09-.16,0h-.28v1.06l0,.19,0,.11.08.06.13,0h.16l.26,0,.15-.07.09-.13.07-.19.1-.29a0,0,0,0,1,0,0h.12a0,0,0,0,1,0,0l-.12.87A0,0,0,0,1,142.78,95.87ZM141,95.8h1.8l.11-.8h0l-.09.27-.07.2h0l-.1.15h0l-.17.07h0l-.27,0h-.18l-.15,0h0l-.1-.07v0l0-.12h0l0-.19v-1.1a0,0,0,0,1,0,0h.32l.17,0h0l.1.1h0l.07.12v.18h0v-.95h0l0,.21v0l-.12.12h0l-.19,0h-.32a0,0,0,0,1,0,0V92.6a0,0,0,0,1,0,0h.52l.17,0h0l.12.15h0l.07.19h0l0,.21h0v-.71H141v.05l.16,0h0l.1.07v0l0,.12h0v2.7h0l0,.12v0l-.1.07h0l-.16,0Z"/><path id="path52695" d="M143.95,92.41h.27l.27.07,0,0v.68h-.1l0-.24-.07-.19-.15-.15-.19,0-.17,0-.12.07-.1.17,0,.22,0,.24.15.19.19.22.27.24.24.27.17.24.1.24,0,.29,0,.32-.15.24-.22.17-.24.12-.27,0-.34,0-.31-.12v0l0,0V95h.1l0,.29.1.19.15.15.15.1.17,0,.19,0,.17-.15.1-.19,0-.24,0-.17-.07-.19-.12-.19-.19-.22-.29-.27-.15-.1-.12-.15-.1-.15-.07-.22,0-.27,0-.32.19-.24.27-.17Z"/><path d="M143.78,95.94h0l-.34,0h0l-.31-.12a0,0,0,0,1,0,0v0l0,0V95a0,0,0,0,1,0,0h.1a0,0,0,0,1,0,0l0,.29.09.18.14.14.14.09.15,0,.18,0,.16-.14.09-.18,0-.23,0-.16-.07-.19-.12-.19-.19-.22-.29-.26-.14-.1h0l-.12-.15-.1-.15h0l-.07-.22h0l0-.27h0l0-.32v0l.19-.24h0l.27-.17h0l.29,0h.28l.27.07h0l0,0v.7a0,0,0,0,1,0,0h-.1a0,0,0,0,1,0,0l0-.24-.07-.18-.13-.13-.17,0-.16,0-.11.07-.09.16,0,.21,0,.23.14.19.19.22.26.24.24.27.17.25h0l.1.24h0l0,.29h0l0,.32h0l-.15.24h0l-.22.17h0l-.24.12h0l-.27,0Zm-.33-.12.33,0,.26,0,.23-.12.21-.16.14-.23,0-.3,0-.28-.09-.23-.17-.24-.24-.26-.26-.24-.2-.22-.15-.2h0l0-.24a0,0,0,0,1,0,0l0-.22h0l.1-.17h0l.12-.07h0l.17,0h0l.19,0h0l.15.15h0l.07.19h0l0,.21h0v-.63h0l-.25-.07h-.26l-.28,0-.26.16-.18.23,0,.3,0,.26.07.21.09.14.12.14.14.09h0l.29.27.2.22h0l.12.19h0l.07.19h0l0,.17a0,0,0,0,1,0,0l0,.24h0l-.1.19h0l-.17.15h0l-.19,0h0l-.17,0h0l-.15-.1h0l-.15-.15h0l-.1-.19h0l0-.26h0v.64l0,0v0h0Z"/><path id="path52697" d="M133.3,44.2h.15l.12.07.73.9.77.85.85.75.87.68.92.58,1,.51,1,.39,1.09.29,1.14.19.75,0,.75-.1.1,0,.1,0,.07.07,0,.1,0,.12-.15.44-5.23,7.87-.12.17-.15.1-.17,0-.17,0-.17,0-.15.07-.12.1-.07.19-.22.49.17.41.12.44,0,.46,0,.44-.12.39-.34.49-.36.46-.36.44-.36.46-.34.46-.29.51-.19.53.12.56.22.56.27.53.24.53.22.53.22.68.12.7,0,.73.24-.1.27-.12.27-.07.27,0h.27l.24.1.22.17.19.34.1.36,0,.39-.07.36-.15.36-.27.36-.34.34-.36.29-.41.24-.41.24-.41.22-.07.32-.07.34-.1.32-.12.29-.19.27-.27.22-.46.22-.48.1-.48.07-.12.36-.19.29-.24.27-.31.19-.34.1v.24l0,.27,0,.24-.07.24-.12.19-.17.17-.27.19-.31.1-.29,0L131,78l-.07.39-.17.36-.19.32-.29.24-.34.17-.65,0-.34.27-.39.17-.41.07h-.44l-.44,0-.31-.12-.29-.15-.27-.17-.24-.24-.46,0-.44-.12-.39-.24-.29-.32-.27-.46-.22-.49-.44-.1-.39-.19-.31-.29-.27-.34-.22-.39-.15-.39-.15-.9-.41-.46-.31-.51-.24-.56-.12-.58,0-.58v-.63l.07-.61.1-.61.17-.58.19-.56.75-1.72-.6-1.17L121,65.28l-.63-1.17-.24,0-.24,0-.24,0-.22-.1-.15-.17-1.77-3.25-.24-.1-.22-.1-.22-.1-.19-.15-.17-.19-4.31-8,0-.22v-.22l.07-.19.07-.19.48-.34.7-.12.7-.15.68-.19.68-.27.63-.34.6-.44.56-.53.19-.19.22-.24L118,48l.24-.19.24-.17.29-.1H119l.29.12.29.27,4.57,8.33,0,.19-.07.17-.07.15,0,.17.07.17,1.45,2.91,0,.22,0,.19,0,.19,0,.19,0,.17,0,.17.15.17.15-.17.17-.58.17-.58.15-.61.07-.61v-.61l-.1-.61.07-.41.17-.34.24-.32.29-.27.34-.22.36-.17.39-.17.36-.12.36-.12.46-.85-.15-.29L129,54v-.34l.07-.32,2-4.52,2-4.52.12-.1.15,0Z"/><path d="M128.12,80h-.44l-.44,0h0l-.31-.12-.29-.15-.27-.17h0l-.23-.23-.45,0h0l-.44-.12h0l-.39-.24h0l-.29-.32h0l-.27-.46-.21-.47-.42-.09h0l-.39-.19h0l-.31-.29h0l-.27-.34h0l-.22-.39h0l-.15-.39h0l-.14-.89-.4-.45h0l-.31-.51h0l-.24-.56h0l-.12-.58,0-.59v-.63l.07-.61.1-.61.17-.59.19-.56.74-1.71-.6-1.15L121,65.3l-.62-1.15-.47,0-.25,0h0l-.22-.1h0l-.15-.17h0l-1.76-3.24-.23-.09-.44-.2h0l-.19-.15h0l-.17-.19h0l-4.31-8h0l0-.22h0v-.22h0l.15-.39v0l.48-.34h0l.7-.12.7-.15.68-.19.67-.27.63-.34.6-.43.55-.53.19-.19.22-.24L118,48l.24-.2.24-.17h0l.29-.1h.31l.29.12h0l.29.27h0l4.57,8.33a0,0,0,0,1,0,0l0,.19h0l-.07.17-.07.14,0,.15.07.16L125.56,60h0l0,.22a0,0,0,0,1,0,0l0,.19-.1.39,0,.16,0,.16.11.13.11-.13.34-1.16.14-.61.07-.6v-.6l-.1-.6h0l.07-.41h0l.17-.34h0l.24-.32h0l.29-.27h0l.34-.22h0l.36-.17.39-.17.72-.24.44-.82-.14-.27h0L129,54h0v-.34h0l.07-.32h0l2-4.52,2-4.52h0l.12-.1h0l.15,0h.17l.12.07h0l.73.9.77.85.84.75.87.68.92.58,1,.51,1,.39,1.09.29,1.13.19.75,0,.75-.1h0l.1,0h0l.1,0h0l.07.07h0l0,.1h0l0,.12a0,0,0,0,1,0,0l-.15.44h0L138.43,58l-.12.17h0l-.15.1h0l-.34.1h0l-.16,0-.14.07-.11.09-.07.19-.21.47.16.4.12.44h0l0,.46h0l0,.44h0l-.12.39h0l-.34.49-.36.46-.36.44-.36.46-.34.46-.29.5-.19.52.12.55.22.56.27.53.24.54.22.54.22.68h0l.12.7h0l0,.68.2-.08.26-.12h0l.27-.07.27,0h.29l.24.1h0l.22.17h0l.19.34h0l.1.36h0l0,.39h0l-.07.36h0l-.15.36h0l-.27.36h0l-.34.34-.37.29h0l-.82.49-.4.21-.07.3-.07.34-.1.32-.12.29h0l-.19.27h0l-.27.22h0l-.46.22h0l-.48.1-.46.07-.11.34h0l-.19.29h0l-.24.27h0l-.31.19h0l-.31.09v.22l0,.51h0l-.07.24h0l-.12.19h0l-.17.17h0l-.27.19h0l-.31.1-.29,0h0L131,78l-.07.36h0l-.17.36-.2.32h0l-.29.24h0l-.34.17h0l-.64,0-.33.26h0l-.39.17h0l-.41.07Zm-.86-.12.43,0h.43l.4-.07.38-.17.34-.26h0l.65,0,.33-.16.28-.24.19-.31.17-.36.07-.38a0,0,0,0,1,0,0l.33,0,.28,0,.3-.09.26-.19.16-.17.12-.19.07-.24,0-.51v-.24a0,0,0,0,1,0,0l.33-.1.31-.19.24-.26.19-.29.12-.36,0,0,.48-.07.48-.1.45-.21.26-.21.19-.26.12-.29.1-.31.07-.34.07-.32,0,0,.41-.22.82-.48.36-.29.33-.34.26-.36.14-.36.07-.36,0-.38-.09-.35-.19-.33L138,69.3l-.23-.09h-.26l-.26,0-.26.07-.26.12-.24.1h0a0,0,0,0,1,0,0l0-.73-.12-.7L136,67.4l-.22-.53-.24-.53-.27-.53-.22-.56h0l-.12-.56a0,0,0,0,1,0,0l.19-.53h0l.29-.51.34-.46.36-.46.36-.44.36-.46.33-.48.12-.38,0-.43,0-.46-.12-.43L137,59.2a0,0,0,0,1,0,0l.22-.49.07-.19v0l.12-.1h0l.15-.07h0l.17,0,.33-.1.14-.09.12-.16,5.22-7.86.14-.42,0-.11,0-.09-.06-.06-.09,0-.09,0-.74.1-.75,0h0l-1.14-.19L139.7,49l-1-.39-1-.51-.92-.58-.87-.68L135,46l-.78-.85-.72-.9-.11-.06h-.13l-.13,0-.11.09-2,4.51-2,4.51-.07.31V54l.09.31.14.29a0,0,0,0,1,0,0l-.46.85,0,0-.73.24-.38.17-.36.17-.33.22-.29.26-.24.31-.17.33-.07.4.1.6h0v.61l-.07.61-.15.61-.34,1.17h0l-.15.17h-.05l-.15-.17h0l0-.17a0,0,0,0,1,0,0l0-.17.1-.39,0-.18,0-.21L124,57.16,124,57a0,0,0,0,1,0,0l0-.17h0l.07-.15.07-.16,0-.18L119.59,48l-.28-.26-.28-.12h-.28l-.28.09-.24.17-.24.19-.24.22-.22.24-.19.2-.56.53h0l-.6.44-.63.34-.68.27-.68.2-.7.15-.7.12-.47.33-.14.37v.21l0,.21,4.3,8,.16.19.19.14.43.19.24.1,0,0,1.77,3.25.14.16.21.09.24,0,.48,0,0,0,.63,1.17.68,1.16.61,1.17a0,0,0,0,1,0,0l-.75,1.72-.19.56-.17.58-.1.6-.07.61v.63l0,.58.12.57.24.55.31.51.41.46v0l.14.9.14.38.22.38L123,77l.31.29.38.19.43.1,0,0,.22.49.26.45.28.31.38.24.43.12.46,0h0l.24.24.26.17.29.14Z"/><path id="path52699" class="cls-6" d="M133.44,46l.65.68.68.63.7.63.73.56L137,49l.8.44.82.39.87.29.92.17.94.1,1,0-.1.22-.15.24-.15.22-1,.07-1-.07-1-.19-.94-.32-.9-.44-.87-.51-.82-.61-.8-.66-.75-.7-.7-.75.07-.32.12-.29Z"/><path class="cls-6" d="M140.9,51.16h0l-1-.07-1-.19-.95-.32-.9-.44-.87-.51-.83-.61-.8-.66-.75-.71-.7-.75a0,0,0,0,1,0,0l.07-.32h0l.12-.29.15-.29,0,0h0l.65.68.68.63.7.63.72.56L137,49l.8.44.82.39.87.29.92.17.94.1,1,0h0l0,0a0,0,0,0,1,0,0l-.1.22-.15.25-.15.22,0,0-1,.07Zm-7.75-4.3.69.74.75.7.8.65.82.61.87.51.89.44.94.31,1,.19,1,.07,1-.07.14-.2.14-.24.07-.16-.94,0-.95-.1-.92-.17h0l-.87-.29-.83-.39L137,49l-.78-.54-.73-.56-.7-.63-.68-.63-.62-.64-.12.25-.12.29Z"/><path id="path52701" class="cls-2" d="M132.64,47.92l.68.7.73.68.77.61.77.58.82.49.87.41.9.34.94.24,1,.12,1,0-.1.22-.15.22-.15.22-1.11,0-1.09-.17-1-.27-1-.39-.94-.51-.9-.58-.85-.66-.82-.73-.75-.78.1-.27.1-.24.15-.24Z"/><path class="cls-2" d="M140.75,52.81h0l-1.11,0-1.09-.17-1-.27-1-.39-.95-.51-.9-.58-.85-.66-.82-.73-.75-.78a0,0,0,0,1,0,0l.1-.27.1-.24h0l.15-.24,0,0h0l.68.7.73.68.77.6.77.58.82.48.87.41.89.34.94.24,1,.12,1,0,0,0a0,0,0,0,1,0,0l-.1.22h0l-.29.44Zm-8.41-4.15.73.76.82.73.85.65.89.58.94.51,1,.39,1,.27,1.09.17,1.09,0,.28-.42.07-.17-1,0-1-.12-.95-.24-.9-.34L136.4,51l-.83-.49-.78-.59-.77-.61-.73-.68-.65-.67-.12.2-.1.24Z"/><path id="path52703" class="cls-6" d="M131.82,49.69l.7.66.7.61.75.58.75.53.8.46.85.41.87.34.9.24,1,.12,1,0-.1.15-.07.17-.12.17-.15.12-.19,0-1.07-.07-1-.17-.94-.27-.92-.36-.9-.46-.82-.51-.82-.58-.77-.66-.73-.68.12-.46Z"/><path class="cls-6" d="M139.47,54.39h0l-1.07-.07-1-.17-.95-.27-.92-.37-.9-.46-.83-.51L133,52l-.78-.66-.73-.68a0,0,0,0,1,0,0l.12-.46h0l.22-.44,0,0h0l.7.66.7.61.75.58.75.53.8.46.84.41.87.34.89.24,1,.12,1,0,0,0a0,0,0,0,1,0,0l-.09.14L140,54h0l-.12.17h0l-.15.12h0l-.19,0Zm-7.95-3.81.71.67.77.65.82.58.82.51.89.46.92.36.94.27,1,.17,1.06.07.18,0,.14-.11.12-.16.07-.17h0l.06-.09-.93,0-1-.12h0l-.9-.24-.88-.34-.85-.41-.8-.46-.75-.54L133.2,51l-.7-.61-.67-.62-.2.39Z"/><path id="path52705" class="cls-6" d="M118.7,48.79l.24.07,4,7.33,0,.36-.12.32-.22.29-.24.24-.29.24-.31.22-.31.22-.27.22-1.52.8-.1.19,0,.17,0,.19.24.17.22.07.24,0,.24-.1.22-.15.24-.15.24-.15.22-.1.68-.44.63-.46.61-.51,1.43,2.6-.19.39-.27.36-.31.32-.36.29-.39.24-.36.24-.41.22-.44.22-.46.17-.44.15-.46,0-.48,0-.7-1.19-.65-1.17-.68-1.19-.22,0-.22-.07-.19-.07-.15-.15L117.2,59l-3.87-7V51.8l0,0,0,0,0,0,0,0,.07,0,0,0,0,0,.8-.15.8-.27.75-.36.73-.44.68-.49.65-.53Z"/><path class="cls-6" d="M120.61,63.13h0l-.48,0,0,0-.7-1.19-.65-1.17-.67-1.17-.2,0h0l-.22-.07-.2-.07h0l-.15-.15h0l-.12-.22-3.87-7v-.19l0,0h0l.15-.07h0l.07,0,.09,0h0l.8-.15.8-.27.75-.36.72-.44.68-.48.65-.53.6-.58h0l.24.07,0,0,4,7.33a0,0,0,0,1,0,0l0,.36h0l-.12.32h0l-.22.29h0l-.24.24-.29.24-.63.44-.26.22h0l-1.51.8-.09.18,0,.16,0,.17.23.16.21.07.23,0,.23-.09.21-.14.49-.29.22-.1.68-.44.63-.46.6-.51h0l0,0,1.43,2.6a0,0,0,0,1,0,0l-.19.39h0l-.27.36h0l-.31.32-.37.29-.39.25-.36.24-.41.22-.44.22-.46.17-.44.15h0l-.46,0Zm-.46-.09.46,0,.45,0,.43-.14.46-.17.43-.22.41-.22.36-.24.39-.24.36-.29.31-.31.26-.36.18-.37-1.4-2.54-.57.48-.63.46-.68.44h0l-.22.1-.48.29-.22.14h0l-.24.1h0l-.24,0h0l-.22-.07h0l-.24-.17v0l0-.19a0,0,0,0,1,0,0l0-.17h0l.1-.19,0,0,1.52-.8.26-.22.63-.44.29-.24.24-.24.21-.29.12-.31,0-.35-4-7.31-.21-.06-.59.57-.66.54-.68.49-.73.44-.75.37-.8.27h0l-.79.14-.09,0h0l-.07,0-.14.07,0,0v.12l3.87,7,.12.21.14.14.19.07.21.07.21,0,0,0,.68,1.19.65,1.17Z"/><path id="path52707" class="cls-2" d="M131.07,51.46l.75.66.77.63.82.58.82.51.87.44.92.36,1,.29,1,.17,1.07.07-.17.39-.27.34-1,0-1-.15-.94-.24-.92-.34-.87-.44-.85-.49-.8-.56-.75-.61-.75-.66,0-.32.15-.32Z"/><path class="cls-2" d="M138.62,55.94h0l-1,0-1-.15-.95-.24-.92-.34-.88-.44-.85-.49-.8-.56-.75-.61-.75-.66a0,0,0,0,1,0,0l0-.32h0l.15-.32.15-.29,0,0h0l.75.66.77.63.82.58.82.51.87.44.92.36,1,.29,1,.17,1.06.07,0,0a0,0,0,0,1,0,0l-.17.39h0l-.27.34Zm-7.85-3.57.74.64.75.61.8.56.84.48.87.44.92.34.94.24,1,.14,1,0,.25-.32.15-.34-1-.07L137,55l-1-.29-.92-.36-.87-.44-.83-.51-.82-.58-.78-.63-.72-.63-.12.25-.14.31Z"/><path id="path52709" class="cls-6" d="M130.25,53.36l.75.58.75.56.8.51.8.46.85.41.9.32.92.27,1,.17,1,.07,0,.17-.07.12-.12.15-.12.12-1.09,0-1-.17-1-.29-.94-.39-.92-.46-.87-.53-.85-.61-.8-.63,0-.19,0-.22.07-.19Z"/><path class="cls-6" d="M137.63,57.3h0l-1.09,0-1-.17-1-.29-.95-.39-.92-.46-.87-.54-.85-.61-.8-.63v0l0-.19a0,0,0,0,1,0,0l0-.22h0l.07-.19h0l.1-.17,0,0h0l.75.58.75.56.8.51.8.46.84.41.89.31.92.27,1,.17,1,.07h0a0,0,0,0,1,0,0l0,.17h0l-.07.12h0l-.12.15-.12.12Zm-7.5-3.19.79.62.85.61.87.53.92.46.94.39,1,.29,1,.17,1.07,0,.11-.11.12-.14.07-.12,0-.12-1-.07-1-.17-.92-.27-.9-.32-.85-.41-.8-.46-.8-.51L131,54l-.72-.56-.08.13-.07.19,0,.21Z"/><path id="path52711" class="cls-6" d="M130.1,55.52l.94.66,1,.58,1,.51,1.07.41,1.11.34,1.14.24-.1.34-.17.32-.22.32-.29.27-.34.19-.6.24-.65.15h-.65l-.68-.1-.63-.17-.61-.27-.39-.24-.36-.27-.34-.27-.29-.32-.24-.36-.17-.39-.07-.46,0-.49.1-.44.19-.41Z"/><path class="cls-6" d="M134,60.12h-.66l-.68-.1-.63-.17h0l-.61-.27h0l-.39-.24-.36-.27-.34-.27h0l-.29-.32h0l-.24-.36h0l-.17-.39h0l-.07-.46h0l0-.49h0l.1-.44h0l.19-.41.22-.39,0,0h0l.94.66,1,.58,1,.51,1.06.41,1.11.34,1.13.24,0,0a0,0,0,0,1,0,0l-.1.34h0l-.17.32-.22.32h0l-.29.27h0l-.34.19h0l-.6.24h0l-.65.15Zm-.65-.07H134l.65-.14.6-.24.33-.19.28-.26.22-.31.17-.31.09-.3-1.1-.23-1.12-.34L133,57.3l-1-.51-1-.58-.91-.64-.2.35-.19.41-.1.43,0,.48.07.45.17.38.24.36.29.31.34.27.36.27.38.24.6.27.63.17Z"/><path id="path52713" class="cls-7" d="M128.45,56.68l0,.32,0,.61.12.58.24.53.31.49.41.44L130,60l.53.34.58.29.63.24.65.17.68.1.65,0,.65,0L135,61l.61-.27.63-.36.12.17,0,.22,0,.24-.44.68-.48.63-.46.66-.46.66-.36.73v.61l.1.56.17.56.24.56.24.53.24.53.19.58.1.58v.61l-.12,1.29L135.18,72l-.24,1.26-.12-.63-.19-.66-.31-.63-.39-.61-.46-.53-.51-.49-.58-.36-.36,0-.31,0-.31.12-.24.24L131,70l-.12.27-.29-.07h-.27l-.27.07-.27.07-.36.29-.27.36-.17.44,0,.49-.36.17-.31.29-.22.34-.12.41,0,.27v.29l0,.29.1.27-.31.49-.19.53-.1.56v.56l.07.58.12.56.17.56.22.49.36.44-.22.12-.22,0-.24,0-.22-.07-.34-.22-.29-.29-.19-.32-.12-.36-.1-.39,0-.41,0-.41,0-.44,0-.39,0-.34,0-.34.07-.34,0-.34v-.34l0-.32-.17-.27-.19,0-.17,0-.12.12-.1.12-.17.73-.15.75-.1.78,0,.78,0,.75.15.7-.34-.27-.24-.32-.15-.36-.12-.41,0-.41v-.44l0-.41.07-.9.15-.9.19-.85.22-.85,0-.19-.1-.17-.12-.15-.17,0-.17.07-.15.1-.1.15-.34,1.14L124,74.24l-.12,1.17V76.6l-.24-.12-.19-.19-.15-.27-.1-.27-.1-.27,0-.85.07-.85.17-.85.19-.83.19-.8v-.15l0-.17,0-.12-.07-.12-.15,0-.27,0-.17.12-.15.19-.1.22-.07.24,0,.24-.07.24-.07.22-.22,1.43-.22-.41-.1-.44,0-.49,0-.49.07-.49.07-.51.12-.46.53-1.29.61-1.26.65-1.24.7-1.21.68-1.21.65-1.24.27-.61.29-.61.27-.61.22-.63.19-.66.1-.66,0-.7-.07-.34,0-.34.07-.32.15-.32.29-.22.34-.15Z"/><path class="cls-7" d="M127.95,79.18h0l-.24,0h0l-.22-.07h0l-.34-.22h0l-.29-.29h0l-.19-.32h0l-.12-.36-.1-.39h0l0-.83,0-.44,0-.39,0-.34,0-.34.07-.34,0-.34v-.33l0-.31-.16-.25-.17,0-.15,0-.11.12-.09.11-.17.72-.14.75-.1.77,0,.77,0,.75.14.7a0,0,0,0,1,0,0h0l-.34-.27h0l-.24-.32h0l-.15-.36-.12-.42h0l0-.41v-.44l0-.41.07-.9.15-.9.19-.85.22-.84,0-.18-.09-.16-.11-.13-.15,0-.15.07-.14.09-.09.14-.34,1.14L124,74.25l-.12,1.16V76.6a0,0,0,0,1,0,0h0l-.24-.12h0l-.19-.19h0l-.15-.27h0l-.19-.53h0l0-.85h0l.07-.85.17-.85.19-.83.19-.8v-.14l0-.16,0-.11-.06-.11-.12,0-.25,0-.16.11-.14.19-.1.21-.07.24,0,.24-.07.25-.07.22-.22,1.43a0,0,0,0,1-.07,0l-.22-.41h0l-.1-.44,0-.49h0l0-.49.07-.49.07-.51.12-.47h0l.53-1.29.61-1.26.65-1.24.7-1.22.68-1.21.65-1.24.27-.6.29-.61.27-.61.22-.63.19-.65.1-.65,0-.7-.07-.34h0l0-.34h0l.07-.32h0l.15-.32h0l.29-.22h0l.34-.15.34-.1h0l0,0,0,.32,0,.61.12.57.24.53.31.48.41.43L130,60l.53.34.58.29.63.24.65.17.67.1.65,0,.65,0,.62-.14.6-.27.63-.36a0,0,0,0,1,0,0l.12.17v0l0,.22h0l0,.24h0l-.44.68-.49.63-.92,1.31-.36.72v.6l.1.56.17.55.24.55.48,1.07.19.59h0l.1.58h0v.61L135.22,72,135,73.28a0,0,0,0,1,0,0h0a0,0,0,0,1,0,0l-.12-.63-.19-.65-.31-.63-.38-.6-.46-.53-.5-.48-.57-.36-.35,0-.31,0-.3.12-.23.24L131,70l-.12.26a0,0,0,0,1,0,0l-.29-.07h-.26l-.52.14-.35.28-.26.36-.17.43,0,.48a0,0,0,0,1,0,0l-.36.17-.31.28-.21.33-.12.4,0,.26v.29l0,.28.1.26a0,0,0,0,1,0,0l-.31.48-.19.53-.1.55v.56l.07.58.12.56.17.56.21.48.36.43a0,0,0,0,1,0,0l0,0-.22.12h0l-.22,0Zm-.23-.09.23,0,.21,0,.17-.1-.34-.4h0l-.22-.49-.17-.56-.12-.56-.07-.59v-.56h0l.1-.56h0l.19-.53h0l.31-.47-.09-.25h0l0-.29v-.29l0-.26h0l.12-.41h0l.22-.34h0l.31-.29h0l.34-.16,0-.47h0l.17-.44h0l.27-.36h0l.36-.29h0l.53-.15h.28l.26.07.11-.24h0l.17-.24h0l.24-.24h0l.31-.12h0l.31,0h0l.36,0h0l.58.36h0l.51.49.46.54h0l.39.61.32.63h0l.19.66.09.45.21-1.08.24-2.57v-.6l-.1-.58-.19-.58-.48-1.07-.24-.56-.17-.56-.1-.56h0v-.62l.36-.73h0l.92-1.31.49-.63.43-.67,0-.23,0-.2-.1-.14-.6.35L135,61h0l-.63.15h0l-.65,0-.66,0-.68-.1-.66-.17-.63-.24-.58-.29L130,60l-.46-.34h0l-.41-.44h0l-.31-.49h0l-.24-.53h0l-.12-.58h0l0-.61,0-.27-.3.09-.33.14-.28.21-.14.3-.07.31,0,.33.07.34h0l0,.7-.1.66h0l-.19.66-.22.63-.27.61-.29.61-.27.61-.65,1.24-.68,1.22-.7,1.21-.65,1.24-.6,1.26-.53,1.28-.12.46-.07.51-.07.49,0,.48,0,.48.1.43.17.31.2-1.33h0l.07-.22.07-.24,0-.24.07-.25.1-.22h0l.15-.19h0l.17-.12h0l.27,0h0l.15,0,0,0,.07.12h0l0,.12h0l0,.17h0v.15h0l-.19.8-.19.83-.17.85-.07.84,0,.84.19.53.14.26.19.19.19.09V75.41l.12-1.17.19-1.17.34-1.15h0l.1-.15h0l.15-.1h0l.17-.07h0l.17,0h0l.12.15h0l.1.17h0l0,.19a0,0,0,0,1,0,0l-.22.85-.19.85-.14.9-.07.9,0,.41v.44l0,.41.12.41.14.36.24.31.26.2-.13-.61h0l0-.75,0-.78.1-.78.15-.76.17-.73h0l.1-.12.12-.12h0l.17,0h0l.19,0,0,0,.17.27h0l0,.32h0v.34h0l0,.34-.07.34,0,.34,0,.34,0,.39,0,.44,0,.82.1.39.12.36.19.31.28.29.33.21Z"/><path id="path52715" class="cls-2" d="M124.8,62l.12.15.1.19.1.17-.68,1.38-.75,1.36-.75,1.34h-.07l-1.4-2.6.7-.34.68-.34.68-.36.65-.44Z"/><path class="cls-2" d="M122.94,66.63h-.07l0,0-1.4-2.6a0,0,0,0,1,0,0l0,0,.7-.34.68-.34.68-.36.65-.44.63-.51a0,0,0,0,1,0,0l.12.15h0l.1.19.1.17a0,0,0,0,1,0,0l-.68,1.38-.75,1.36L123,66.61Zm-.05-.07h0l.74-1.32.75-1.36.67-1.37-.09-.15-.1-.19-.1-.12-.6.49-.66.44-.68.37-.68.34-.67.32Z"/><path id="path52717" class="cls-2" d="M137.56,70.11l.15.22,0,.29-.12.24-.17.22-.19.19-.24.17-.24.12-.24.12,0,0h-.15v-.07l.1-1,.29-.17.29-.15.27-.12Z"/><path class="cls-2" d="M136.44,71.75h-.15a0,0,0,0,1,0,0v-.07l.1-1,0,0,.29-.17.29-.15.27-.12h0l.31-.07h0l.15.22a0,0,0,0,1,0,0l0,.29h0l-.12.24h0l-.17.22-.2.2h0l-.24.17h0l-.48.24,0,0Zm-.11-.07h.12l.48-.24.24-.17.19-.19.16-.21.12-.23,0-.27-.13-.19-.29.07-.26.12-.29.14-.27.16-.1,1Z"/><path id="path52719" class="cls-2" d="M131.87,70.19l.36.1.31.17.24.22L133,71l.19.32.19.34.17.32.17.29.1.24.1.24.1.27.07.27v.24l-.07.27-.17.22h0l0,0,0,0,0,0h0l0,0-.29-.68-.34-.7-.39-.66-.48-.63-.53-.58,0-.17,0-.15.07-.15Z"/><path class="cls-2" d="M133.68,74.08h0l0,0,0,0-.29-.68-.34-.7-.39-.65-.48-.63-.53-.58a0,0,0,0,1,0,0l0-.17,0-.14h0l.07-.15h0l.15-.12h0l.36.1h0l.31.17h0l.24.22h0l.22.29.2.32.19.34.17.32.17.29h0l.19.49.1.27.07.27h0v.24h0l-.07.27h0l-.17.22h-.07l0,0,0,0h0l0,0Zm0-.07h0l0,0,0,0h0l0,0h0l.15-.2.07-.26v-.23L134,73l-.1-.26-.19-.48-.17-.29-.17-.32-.19-.34L133,71l-.21-.29-.24-.21-.31-.17-.34-.09-.13.11-.07.13,0,.14,0,.15.52.57.49.63.39.66.34.71.29.67Z"/><path id="path52721" class="cls-2" d="M130.34,71.11l.36.12.34.22.27.27.24.34.22.34.22.32.12.32.15.32.19.32.17.32.15.32.07.34v.29l-.15.29-.29.29-.48-.9-.58-.85-.68-.83-.82-.85,0-.24,0-.24.07-.22.15-.15.15-.07Z"/><path class="cls-2" d="M132.4,75.54h0l0,0-.48-.9-.58-.85-.68-.82-.82-.85v0l0-.24h0l0-.24h0l.07-.22h0l.15-.15h0l.15-.07h0l.17,0h0l.36.12h0l.34.22h0l.27.27h0l.24.34.22.34.22.31h0l.12.32.14.31.19.31.17.32.15.32h0l.07.34h0v.31l-.15.29h0l-.29.29Zm-2.53-3.48.82.84.68.83.58.85.46.86.25-.25.14-.28v-.28l-.07-.33-.14-.31-.17-.31-.19-.31-.15-.32-.12-.31-.22-.31-.22-.34-.24-.34-.26-.26-.33-.21-.35-.12-.16,0-.14.07-.14.14-.07.21,0,.23Z"/><path id="path52723" class="cls-2" d="M129.16,72.81l.19,0,.17.07.39.27.36.36.31.41.27.44.41.7.31.73.19.75-.07.24-.15.19-.22.12-.46-.1-.12-.36-.12-.39-.15-.39-.15-.39-.17-.36L130,74.8l-.27-.29-.34-.24-.41-.15-.12-.27-.07-.29v-.32l.07-.29.17-.12Z"/><path class="cls-2" d="M131.34,77.17h0l-.46-.1,0,0-.12-.36-.12-.39-.29-.78-.17-.36-.22-.34-.26-.29-.33-.24-.41-.14,0,0-.12-.27h0l-.07-.29h0v-.32h0l.07-.29v0l.17-.12h0l.17,0h0l.19,0h0l.17.07h0l.39.27h0l.36.36.32.42.27.44.41.7.32.73h0l.19.75a0,0,0,0,1,0,0l-.07.24h0l-.15.19h0l-.22.12ZM130.9,77l.43.09.2-.11.14-.18.07-.23-.19-.74-.31-.73-.41-.7-.27-.44-.31-.41-.36-.36-.38-.26-.16-.07-.18,0-.16,0-.15.11-.07.27v.31l.07.28.11.25.4.14h0l.34.24h0l.27.29h0l.22.34h0l.17.36.29.78.12.39Z"/><path id="path52725" class="cls-2" d="M128.77,75.07l.22,0,.19.12.17.19.12.19.27.75.17.78.07.8-.07.17-.1.17-.15.12-.19.07-.27-.07-.19-.15-.15-.19-.12-.24-.1-.24-.07-.24-.1-.27-.07-.22-.07-.41V76l.07-.44.15-.36Z"/><path class="cls-2" d="M129.47,78.5h0l-.27-.07h0l-.19-.15h0l-.15-.19h0l-.12-.24-.1-.25-.07-.25-.1-.27-.07-.22h0l-.07-.41h0V76h0l.07-.44h0l.15-.36,0,0,.22-.12h0l.22,0h0l.19.12h0l.17.19h0l.12.19h0l.27.75.17.78.07.81v0l-.07.17-.1.17h0l-.15.12h0l-.19.07Zm-.25-.14.25.07.18-.07.14-.11.09-.16.07-.16-.07-.79-.17-.77-.26-.74-.12-.19-.16-.19-.18-.11-.2,0-.2.11-.14.35-.07.43v.43l.07.41.07.22.1.27.07.24.1.24.12.24.14.19Z"/><path id="path52727" d="M151.23,83.28h.51l.75,1.51.73-1.51h.48v.12h-.1l-.07,0,0,0,0,0,0,.07V85l0,0h0l0,0h.1v.12h-.73v-.12h.1l0,0h0l0,0V83.72h0l-.7,1.46h0l-.73-1.46h0v1.14l0,.07,0,0,0,0,0,0h.1v.12h-.6v-.12h.1l0,0,0,0,0,0,0-.07V83.62l0-.1-.07-.07-.1,0h-.1Zm-1.77,0H151v.44h-.1l0-.1,0-.07,0-.07,0,0-.07,0h-.31V85l0,0,0,0h0l.07,0h.07v.12h-.73v-.12h.1l0,0h0l0,0V83.4h-.29l-.07,0-.07,0,0,.07,0,.07v.1h-.12Z"/><path d="M153.65,85.21h-.73a0,0,0,0,1,0,0v-.12a0,0,0,0,1,0,0H153l0,0h.05V83.87l-.63,1.32,0,0h0l0,0-.66-1.32v1l0,.07,0,0,0,0,0,0h.09a0,0,0,0,1,0,0v.12a0,0,0,0,1,0,0h-.6a0,0,0,0,1,0,0v-.12a0,0,0,0,1,0,0h.09l0,0,0,0,0,0,0-.07V83.63l0-.08-.06-.06-.08,0h-.09a0,0,0,0,1,0,0v-.12a0,0,0,0,1,0,0h.51l0,0,.72,1.44.69-1.44,0,0h.48a0,0,0,0,1,0,0v.12a0,0,0,0,1,0,0h-.09l-.06,0,0,0,0,0,0,.07V85h.05l0,0h.09a0,0,0,0,1,0,0v.12A0,0,0,0,1,153.65,85.21Zm-.69-.07h.66v-.05h-.08l0,0h-.07l0,0V83.59h0l0-.07h0l0,0h0l0,0h0l.07,0h.07v-.05h-.43l-.72,1.49,0,0h0l0,0-.74-1.49h-.45v.05h.08l.1,0h0l.07.07h0l0,.1v1.25h0l0,.07h0l0,0h0l0,0h0l0,0h-.08v.05h.53v-.05h-.08l0,0h0l0,0h0l0,0h0l0-.07h0V83.72a0,0,0,0,1,.07,0l.72,1.44h0l.69-1.44a0,0,0,0,1,.07,0V85l0,0h-.06l0,0H153Zm-2.36.07h-.73a0,0,0,0,1,0,0v-.12a0,0,0,0,1,0,0H150l0,0h.05V83.43h-.25l-.06,0-.06,0,0,.06h0l0,.06v.09a0,0,0,0,1,0,0h-.12a0,0,0,0,1,0,0v-.44a0,0,0,0,1,0,0H151a0,0,0,0,1,0,0v.44a0,0,0,0,1,0,0h-.1a0,0,0,0,1,0,0l0-.1,0-.07,0-.07,0,0-.06,0h-.27v1.51l0,0h0l.07,0h.07a0,0,0,0,1,0,0v.12A0,0,0,0,1,150.6,85.21Zm-.69-.07h.66v-.05h0l-.07,0h0l0,0h0l0,0V83.4a0,0,0,0,1,0,0h.33l.07,0h0l0,0h0l0,.07h0l0,.07,0,.07h0v-.37H149.5v.37h.05V83.6l0-.07,0-.07v0l.07,0h0l.07,0h.3a0,0,0,0,1,0,0V85l0,0H150l0,0h-.08Z"/></g></g></g></g></g></g><text class="cls-8" transform="translate(81.33 435.7)">DON<tspan class="cls-9" x="51.72" y="0">A</tspan><tspan class="cls-10" x="65.74" y="0">TE</tspan></text><rect class="cls-11" x="9" y="185" width="75.54" height="67.57" rx="4" ry="4"/><rect class="cls-11" x="88.73" y="185" width="75.54" height="67.57" rx="4" ry="4"/><rect class="cls-11" x="168.46" y="185" width="75.54" height="67.57" rx="4" ry="4"/><rect class="cls-11" x="9" y="255.88" width="75.54" height="67.57" rx="4" ry="4"/><rect class="cls-11" x="88.73" y="255.88" width="75.54" height="67.57" rx="4" ry="4"/><rect class="cls-11" x="168.46" y="255.88" width="75.54" height="67.57" rx="4" ry="4"/><rect class="cls-11" x="9" y="327.86" width="75.54" height="67.57" rx="4" ry="4"/><rect class="cls-11" x="88.73" y="327.86" width="75.54" height="67.57" rx="4" ry="4"/><rect class="cls-11" x="168.46" y="327.86" width="75.54" height="67.57" rx="4" ry="4"/><line class="cls-12" x1="211.83" y1="26.97" x2="236" y2="26.97"/><line class="cls-12" x1="211.83" y1="33.98" x2="236" y2="33.98"/><line class="cls-12" x1="211.83" y1="41" x2="236" y2="41"/><text class="cls-13" transform="translate(69.49 160.44)"><tspan class="cls-14">$</tspan><tspan class="cls-15" x="20.89" y="0">15</tspan><tspan class="cls-16" x="55.27" y="0">.</tspan><tspan x="62.96" y="0">00</tspan></text></svg>
