<svg id="BG" xmlns="http://www.w3.org/2000/svg" viewBox="0 0 253 461"><defs><style>.cls-1,.cls-12,.cls-16{fill:#fff;}.cls-2,.cls-3{fill:none;stroke-width:2px;}.cls-2{stroke:#adbacc;stroke-opacity:0.15;}.cls-3{stroke:#00467f;stroke-miterlimit:10;}.cls-4,.cls-6,.cls-7{fill:#00467f;}.cls-5,.cls-6,.cls-7{isolation:isolate;}.cls-6,.cls-7{font-size:3.84px;font-family:Helvetica-Bold, Helvetica;}.cls-16,.cls-6,.cls-7{font-weight:700;}.cls-7{letter-spacing:-0.04em;}.cls-8{fill:#316497;}.cls-9{fill:#839bc1;}.cls-10{fill:#f89728;}.cls-11{fill:#6081ae;}.cls-12{font-size:39.65px;font-family:BrandonGrotesque-Light, Brandon Grotesque;}.cls-13{letter-spacing:0em;}.cls-14{letter-spacing:-0.01em;}.cls-15{letter-spacing:0em;}.cls-16{font-size:22.38px;font-family:BrandonGrotesque-Bold, Brandon Grotesque;}.cls-17{letter-spacing:-0.04em;}.cls-18{letter-spacing:0em;}</style></defs><title>screen-CAIR</title><rect class="cls-1" width="253" height="461" rx="5" ry="5"/><rect class="cls-2" x="1" y="1" width="251" height="459" rx="4" ry="4"/><circle class="cls-3" cx="126.5" cy="190.5" r="77"/><circle class="cls-4" cx="126.5" cy="190.5" r="67"/><g class="cls-5"><text class="cls-6" transform="translate(66.62 53.82)">C</text><text class="cls-6" transform="translate(69.41 53.82)">o</text><text class="cls-6" transform="translate(71.75 53.82)">u</text><text class="cls-6" transform="translate(74.08 53.82)">n</text><text class="cls-6" transform="translate(76.43 53.82)">c</text><text class="cls-6" transform="translate(78.57 53.82)">i</text><text class="cls-6" transform="translate(79.61 53.82)">l</text><text class="cls-6" transform="translate(80.68 53.82)"> </text><text class="cls-6" transform="translate(81.75 53.82)">o</text><text class="cls-6" transform="translate(84.09 53.82)">n</text><text class="cls-6" transform="translate(86.44 53.82)"> </text><text class="cls-7" transform="translate(87.5 53.82)">A</text><text class="cls-6" transform="translate(90.29 53.82)">m</text><text class="cls-6" transform="translate(93.72 53.82)">e</text><text class="cls-6" transform="translate(95.92 53.82)">r</text><text class="cls-6" transform="translate(97.4 53.82)">i</text><text class="cls-6" transform="translate(98.47 53.82)">c</text><text class="cls-6" transform="translate(100.63 53.82)">a</text><text class="cls-6" transform="translate(102.77 53.82)">n</text><text class="cls-6" transform="translate(105.21 53.82)">-</text><text class="cls-6" transform="translate(106.59 53.82)">I</text><text class="cls-6" transform="translate(107.7 53.82)">s</text><text class="cls-6" transform="translate(109.83 53.82)">l</text><text class="cls-6" transform="translate(110.9 53.82)">a</text><text class="cls-6" transform="translate(113.05 53.82)">m</text><text class="cls-6" transform="translate(116.46 53.82)">i</text><text class="cls-6" transform="translate(117.53 53.82)">c</text><text class="cls-6" transform="translate(119.66 53.82)"> </text><text class="cls-6" transform="translate(120.73 53.82)">R</text><text class="cls-6" transform="translate(123.5 53.82)">e</text><text class="cls-6" transform="translate(125.69 53.82)">l</text><text class="cls-6" transform="translate(126.76 53.82)">a</text><text class="cls-6" transform="translate(128.91 53.82)">t</text><text class="cls-6" transform="translate(130.21 53.82)">i</text><text class="cls-6" transform="translate(131.28 53.82)">o</text><text class="cls-6" transform="translate(133.63 53.82)">n</text><text class="cls-6" transform="translate(135.97 53.82)">s</text></g><path class="cls-8" d="M46.76,35.73a3,3,0,0,0,2.94,3,2.93,2.93,0,0,0,1.19-.25h0a6.14,6.14,0,0,1-7.39,3.15h0a7.58,7.58,0,0,0,12.4-5.88v0a7.58,7.58,0,0,0-12.4-5.88h0A6.14,6.14,0,0,1,50.87,33h0a2.93,2.93,0,0,0-1.19-.25,3,3,0,0,0-2.94,3v0Z"/><path class="cls-4" d="M37.18,26.12a3,3,0,0,0,3-2.94A2.93,2.93,0,0,0,39.9,22v0a6.14,6.14,0,0,1,3.15,7.39h0A7.58,7.58,0,0,0,37.18,17h0a7.58,7.58,0,0,0-5.88,12.4h0A6.14,6.14,0,0,1,34.43,22v0a2.93,2.93,0,0,0-.25,1.19,3,3,0,0,0,3,2.94h0Z"/><path class="cls-9" d="M27.57,35.7a3,3,0,0,0-2.94-3,2.93,2.93,0,0,0-1.19.25h0a6.14,6.14,0,0,1,7.39-3.15h0a7.58,7.58,0,0,0-12.4,5.88v0a7.58,7.58,0,0,0,12.4,5.88h0a6.15,6.15,0,0,1-7.39-3.15h0a2.93,2.93,0,0,0,1.19.25,3,3,0,0,0,2.94-3Z"/><path class="cls-10" d="M42.66,30.22a5.44,5.44,0,0,0,.49-1.14l.05-.06a8.64,8.64,0,0,0,2.34-5.17c2.05-.19,3.65-.17,3.65-.17h0s0,1.6-.17,3.65a8.65,8.65,0,0,0-5.17,2.34l-.06.05a5.39,5.39,0,0,0-1.13.48h0Z"/><path class="cls-10" d="M31.67,30.22a5.48,5.48,0,0,0-1.14-.49l-.06-.05a8.64,8.64,0,0,0-5.17-2.34c-.19-2.05-.17-3.65-.17-3.65h0s1.6,0,3.65.17A8.65,8.65,0,0,0,31.13,29l.05.06a5.41,5.41,0,0,0,.48,1.13h0Z"/><path class="cls-11" d="M37.15,45.32a3,3,0,0,0-3,2.94,2.93,2.93,0,0,0,.25,1.19v0A6.14,6.14,0,0,1,31.28,42h0a7.57,7.57,0,0,0,5.88,12.39h0A7.57,7.57,0,0,0,43.06,42h0a6.14,6.14,0,0,1-3.14,7.39v0a2.93,2.93,0,0,0,.25-1.19,3,3,0,0,0-3-2.94h0Z"/><path class="cls-10" d="M31.67,41.21a5.48,5.48,0,0,0-.49,1.14l-.05.06a8.65,8.65,0,0,0-2.34,5.17c-2.05.19-3.65.17-3.65.17h0s0-1.6.17-3.65a8.65,8.65,0,0,0,5.17-2.34l.06-.05a5.41,5.41,0,0,0,1.13-.48h0Z"/><path class="cls-10" d="M42.66,41.21a5.48,5.48,0,0,0,1.14.49l.06.05A8.64,8.64,0,0,0,49,44.1c.19,2.05.17,3.65.17,3.65h0s-1.6,0-3.65-.17a8.65,8.65,0,0,0-2.34-5.17l-.05-.06a5.41,5.41,0,0,0-.48-1.13h0Z"/><path class="cls-10" d="M40.19,32.7a6.16,6.16,0,0,1-6,0,6.16,6.16,0,0,1,0,6,6.16,6.16,0,0,1,6,0,6.17,6.17,0,0,1,0-6"/><path class="cls-4" d="M76.93,24.11A11.23,11.23,0,0,0,65.45,35.52,11.26,11.26,0,0,0,76.93,47,10.5,10.5,0,0,0,86.25,42l-3.58-2.46a6.36,6.36,0,0,1-5.74,3.28c-4,0-6.76-3.18-6.76-7.35s2.72-7.28,6.76-7.28a6.08,6.08,0,0,1,5.41,2.92l3.51-2.49C83.85,25.55,81,24.11,76.93,24.11Zm20.5.07-9.81,22.5h4.43l1-2.53h9.05l1,2.53H108l-10.2-22.5h-.39Zm13.94.2v22.3H116V24.37Zm9.5,0v22.3h4.59V41.13H127a8.8,8.8,0,0,0,1.31-.1L132,46.67h5.31l-4.62-7A6.94,6.94,0,0,0,137,32.8c0-5.45-3.74-8.43-10-8.43h-6.17Zm4.59,4h1.44c3.67,0,5.38,1.24,5.38,4.39s-1.64,4.33-5.38,4.33h-1.44Zm-27.9,4s.69,2.43,1.34,4l1.61,3.87H94.65l1.61-3.87A40.75,40.75,0,0,0,97.57,32.44Z"/><line class="cls-3" x1="207.33" y1="26.97" x2="231.5" y2="26.97"/><line class="cls-3" x1="207.33" y1="33.98" x2="231.5" y2="33.98"/><line class="cls-3" x1="207.33" y1="41" x2="231.5" y2="41"/><text class="cls-12" transform="translate(79.12 199.94)"><tspan class="cls-13">$</tspan><tspan x="20.93" y="0">9</tspan><tspan class="cls-14" x="42.86" y="0">.</tspan><tspan class="cls-15" x="51.19" y="0">56</tspan></text><rect class="cls-10" x="64.17" y="331" width="124.67" height="13.33" rx="0.83" ry="0.83"/><rect class="cls-3" x="64.17" y="354" width="124.67" height="13.33" rx="0.83" ry="0.83"/><rect class="cls-4" x="8.5" y="401.5" width="236" height="50" rx="2.25" ry="2.25"/><text class="cls-16" transform="translate(81.45 435.7)">DON<tspan class="cls-17" x="51.72" y="0">A</tspan><tspan class="cls-18" x="65.74" y="0">TE</tspan></text></svg>
