<svg xmlns="http://www.w3.org/2000/svg" xmlns:xlink="http://www.w3.org/1999/xlink" viewBox="0 0 560 372"><defs><style>.cls-1,.cls-10,.cls-15,.cls-9{fill:none;}.cls-2{fill:#fff;}.cls-10,.cls-2{stroke:#eff1f5;}.cls-10,.cls-15,.cls-2,.cls-9{stroke-width:2px;}.cls-3{clip-path:url(#clip-path);}.cls-4{fill:#081d4c;}.cls-11,.cls-16,.cls-5{fill:#2dd6a5;}.cls-6{fill:#0e377f;}.cls-14,.cls-7{fill:#eff1f5;}.cls-8{clip-path:url(#clip-path-3);}.cls-15,.cls-9{stroke:#2dd6a5;stroke-miterlimit:10;}.cls-11,.cls-12,.cls-14{font-size:21.22px;}.cls-11,.cls-16{font-family:BrandonGrotesque-Bold, Brandon Grotesque;font-weight:700;}.cls-12{fill:#d4d5d8;}.cls-12,.cls-14{font-family:BrandonGrotesque-Regular, Brandon Grotesque;}.cls-13{letter-spacing:0em;}.cls-15{stroke-dasharray:8;}.cls-16{font-size:16.64px;}.cls-17{letter-spacing:0em;}.cls-18{letter-spacing:-0.04em;}.cls-19{letter-spacing:0em;}</style><clipPath id="clip-path"><path class="cls-1" d="M560,4.29V367.71a4.58,4.58,0,0,1-4.82,4.29H4.82A4.58,4.58,0,0,1,0,367.71V4.29A4.58,4.58,0,0,1,4.82,0H555.18A4.58,4.58,0,0,1,560,4.29Z"/></clipPath><clipPath id="clip-path-3"><rect class="cls-1" x="142.2" y="71.95" width="353.33" height="300.05"/></clipPath></defs><title>ipad-screen-flash-collect</title><g id="Layer_1" data-name="Layer 1"><path class="cls-2" d="M560,4.29V367.71a4.58,4.58,0,0,1-4.82,4.29H4.82A4.58,4.58,0,0,1,0,367.71V4.29A4.58,4.58,0,0,1,4.82,0H555.18A4.58,4.58,0,0,1,560,4.29Z"/><g class="cls-3"><rect class="cls-4" x="-11.5" y="30.93" width="109.25" height="349.55"/></g><rect class="cls-5" y="86.49" width="97.75" height="51.5"/><polygon class="cls-6" points="55.96 66.62 41.79 66.62 41.79 55.67 48.8 49.24 55.96 55.67 55.96 66.62"/><polygon class="cls-4" points="58.21 109.15 50.91 109.19 55.72 97.04 39.54 115.33 46.84 115.29 42.03 127.44 58.21 109.15"/><circle class="cls-6" cx="48.88" cy="167.2" r="9.33"/><circle class="cls-6" cx="48.88" cy="216.29" r="9.33"/><circle class="cls-6" cx="48.88" cy="265.38" r="9.33"/><g class="cls-3"><rect class="cls-7" x="-11.5" y="-15.84" width="583" height="46.77"/></g><g class="cls-8"><rect class="cls-9" x="166.43" y="86.49" width="303.84" height="49.27"/><rect class="cls-10" x="166.43" y="155.47" width="303.84" height="49.27"/><polygon class="cls-5" points="199.12 108.56 193.07 108.59 197.05 98.52 183.63 113.69 189.69 113.66 185.7 123.74 199.12 108.56"/><polygon class="cls-7" points="199.12 177.54 193.07 177.57 197.05 167.49 183.63 182.67 189.69 182.63 185.7 192.72 199.12 177.54"/><text class="cls-11" transform="translate(261.49 118.16)">$20</text><text class="cls-12" transform="translate(343.35 118.16)">2 mins ago</text><text class="cls-11" transform="translate(261.49 185.88)">$<tspan class="cls-13" x="11.14" y="0">1</tspan><tspan x="18.66" y="0">0</tspan></text><text class="cls-14" transform="translate(343.35 185.88)">2 mins ago</text><rect class="cls-10" x="166.43" y="224.45" width="303.84" height="49.27"/><polygon class="cls-7" points="199.12 246.52 193.07 246.55 197.05 236.47 183.63 251.64 189.69 251.61 185.7 261.69 199.12 246.52"/><text class="cls-11" transform="translate(261.49 254.86)">$<tspan class="cls-13" x="11.14" y="0">1</tspan><tspan x="18.66" y="0">0</tspan></text><text class="cls-14" transform="translate(343.35 254.86)">4 mins ago</text><rect class="cls-10" x="166.43" y="293.42" width="303.84" height="49.27"/><polygon class="cls-7" points="199.12 315.49 193.07 315.52 197.05 305.44 183.63 320.62 189.69 320.59 185.7 330.67 199.12 315.49"/><text class="cls-11" transform="translate(261.49 323.83)">$<tspan class="cls-13" x="11.14" y="0">1</tspan><tspan x="18.66" y="0">0</tspan></text><text class="cls-14" transform="translate(343.35 323.83)">5 mins ago</text><rect class="cls-10" x="166.43" y="362.4" width="303.84" height="49.27"/></g><circle class="cls-15" cx="191.13" cy="111.24" r="20.4"/><text class="cls-16" transform="translate(189.13 67.62)">R<tspan class="cls-17" x="11.08" y="0">E</tspan><tspan x="20.81" y="0">CENT DON</tspan><tspan class="cls-18" x="105.29" y="0">A</tspan><tspan class="cls-19" x="115.7" y="0">TIONS</tspan></text></g></svg>
