<svg xmlns="http://www.w3.org/2000/svg" viewBox="0 0 583 436"><defs><style>.cls-1{fill:#fff;stroke:#eff1f5;stroke-width:2px;}.cls-2{fill:#eff1f5;}.cls-3{fill:#3e82f7;}.cls-4{fill:#081d4c;}.cls-5{fill:#2dd6a5;}.cls-6{fill:#0e377f;}.cls-7{fill:none;stroke:#fab42d;stroke-miterlimit:10;stroke-width:4px;}</style></defs><title>ipad-screen-analyze</title><g id="Layer_2" data-name="Layer 2"><rect class="cls-1" x="1" y="1" width="581" height="434" rx="5" ry="5"/><path class="cls-1" d="M560.67,57.28V250.72c0,1.26-1.76,2.28-3.93,2.28H107.93c-2.17,0-3.93-1-3.93-2.28V57.28C104,56,105.76,55,107.93,55H556.74C558.91,55,560.67,56,560.67,57.28Z"/><path class="cls-1" d="M560.67,276.62V414c0,.9-1.76,1.62-3.93,1.62H107.93c-2.17,0-3.93-.73-3.93-1.62V276.62c0-.9,1.76-1.62,3.93-1.62H556.74C558.91,275,560.67,275.73,560.67,276.62Z"/><rect class="cls-2" x="136.67" y="326.33" width="26.67" height="82"/><rect class="cls-2" x="177.24" y="313.67" width="26.67" height="94.67"/><rect class="cls-2" x="258.38" y="335.67" width="26.67" height="72.67"/><rect class="cls-2" x="298.95" y="320.33" width="26.67" height="88"/><rect class="cls-2" x="339.52" y="297.67" width="26.67" height="110.67"/><rect class="cls-3" x="380.1" y="313" width="26.67" height="95.33"/><rect class="cls-2" x="217.81" y="362.33" width="26.67" height="46"/><rect class="cls-2" x="420.67" y="362.33" width="26.67" height="46"/></g><g id="Layer_1" data-name="Layer 1"><rect class="cls-4" x="3.25" y="3" width="85" height="428.5"/><rect class="cls-5" x="3.25" y="3" width="85" height="51.5"/><polygon class="cls-4" points="52.83 35.11 38.67 35.11 38.67 24.15 45.68 17.73 52.83 24.15 52.83 35.11"/><circle class="cls-6" cx="45.34" cy="86" r="9.33"/><circle class="cls-6" cx="45.34" cy="134.34" r="9.33"/><circle class="cls-6" cx="45.34" cy="182.67" r="9.33"/><circle class="cls-6" cx="45.34" cy="231" r="9.33"/><circle class="cls-6" cx="45.34" cy="279.34" r="9.33"/><rect class="cls-6" x="14.67" y="302.67" width="61.33" height="7.33" rx="3.67" ry="3.67"/><rect class="cls-6" x="14.67" y="320.67" width="61.33" height="7.33" rx="3.67" ry="3.67"/><rect class="cls-6" x="14.67" y="338" width="61.33" height="7.33" rx="3.67" ry="3.67"/><circle class="cls-4" cx="214.33" cy="156.67" r="70.33"/><path class="cls-7" d="M214,155.67h72a72,72,0,0,1-63.79,71.53Z"/><polyline class="cls-7" points="338.67 167 384 139.67 413.33 153.67 450 113.67 471.33 129.67 506.67 93"/></g></svg>
