<svg xmlns="http://www.w3.org/2000/svg" viewBox="0 0 560 372"><defs><style>.cls-1,.cls-12,.cls-2{fill:#fff;}.cls-1,.cls-13{stroke:#f37f82;}.cls-1,.cls-10,.cls-13,.cls-2{stroke-miterlimit:10;}.cls-1,.cls-12,.cls-13,.cls-2{stroke-width:2px;}.cls-10,.cls-12,.cls-2{stroke:#eff1f5;}.cls-3,.cls-7{font-size:13px;}.cls-11,.cls-3,.cls-7{fill:#f37f82;}.cls-3{font-family:BrandonGrotesque-Bold, Brandon Grotesque;font-weight:700;}.cls-4{letter-spacing:0em;}.cls-5{letter-spacing:0em;}.cls-6{letter-spacing:-0.01em;}.cls-7{font-family:BrandonGrotesque-Regular, Brandon Grotesque;}.cls-8{letter-spacing:-0.01em;}.cls-9{fill:#eff1f5;}.cls-10,.cls-13{fill:none;}.cls-12{stroke-dasharray:8;}</style></defs><title>ipad-screen-analyze-reports copy</title><g id="Layer_1" data-name="Layer 1"><rect class="cls-1" x="169.96" y="183.59" width="220.07" height="30.06"/><rect class="cls-2" x="185.73" y="106.49" width="188.55" height="25.75"/><rect class="cls-2" x="177.96" y="144.06" width="204.07" height="27.87"/><rect class="cls-2" x="177.96" y="225.31" width="204.07" height="27.87"/><rect class="cls-2" x="185.73" y="106.49" width="188.55" height="25.75"/><rect class="cls-2" x="185.73" y="264.84" width="188.55" height="25.75"/><rect class="cls-2" x="185.73" y="264.84" width="188.55" height="25.75"/><text class="cls-3" transform="translate(200.86 202.93)">$<tspan class="cls-4" x="6.82" y="0">1</tspan><tspan class="cls-5" x="11.43" y="0">0 </tspan><tspan class="cls-6" x="22.44" y="0">D</tspan><tspan x="31.85" y="0">onation</tspan></text><text class="cls-7" transform="translate(290.69 202.93)"><tspan class="cls-8">M</tspan><tspan x="11.13" y="0">ay 6, 2017</tspan></text><polygon class="cls-9" points="195.14 156.47 191.56 156.49 193.92 150.52 185.97 159.51 189.55 159.49 187.19 165.46 195.14 156.47"/><circle class="cls-10" cx="191.12" cy="239.24" r="7.74"/><path class="cls-9" d="M186,237a5.61,5.61,0,1,0,10.26,0Z"/><circle class="cls-10" cx="197.86" cy="119.43" r="5.61"/><path class="cls-9" d="M194.14,117.8a4.06,4.06,0,1,0,7.43,0Z"/><rect class="cls-9" x="214.42" y="115.95" width="65.58" height="6.84"/><rect class="cls-9" x="209.03" y="154.29" width="70.97" height="7.4"/><circle class="cls-9" cx="361.23" cy="119.09" r="3.69"/><circle class="cls-9" cx="367.91" cy="157.99" r="4"/><polygon class="cls-11" points="189.19 196.42 184 196.45 187.41 187.81 175.92 200.81 181.1 200.79 177.69 209.42 189.19 196.42"/><rect class="cls-9" x="209.03" y="235.54" width="70.97" height="7.4"/><circle class="cls-9" cx="367.91" cy="239.24" r="4"/><circle class="cls-11" cx="374.81" cy="198.62" r="4.31"/><polygon class="cls-9" points="201.6 276.04 198.28 276.06 200.47 270.54 193.12 278.84 196.43 278.83 194.25 284.34 201.6 276.04"/><rect class="cls-9" x="214.42" y="274.3" width="65.58" height="6.84"/><circle class="cls-9" cx="361.23" cy="277.44" r="3.69"/><circle class="cls-11" cx="280" cy="336.73" r="3.69"/><line class="cls-12" x1="279.95" y1="72.95" x2="279.95" y2="98.95"/><line class="cls-12" x1="279.95" y1="300.25" x2="279.95" y2="326.25"/><circle class="cls-13" cx="280" cy="50.16" r="15.04"/><line class="cls-13" x1="280" y1="50.16" x2="280" y2="39.48"/><line class="cls-13" x1="280" y1="50.16" x2="285.04" y2="55.42"/><circle class="cls-11" cx="280" cy="50.16" r="1.69"/></g></svg>