<svg xmlns="http://www.w3.org/2000/svg" viewBox="0 0 583 436"><defs><style>.cls-1{fill:#fff;stroke:#eff1f5;}.cls-1,.cls-4{stroke-width:2px;}.cls-2{fill:#081d4c;}.cls-3{fill:#3e82f7;}.cls-4,.cls-8{fill:#eff1f5;}.cls-4{stroke:#fff;}.cls-5{fill:#ffde00;}.cls-6{fill:#0027a5;}.cls-7{fill:#f10037;}.cls-8{font-size:22px;font-family:BrandonGrotesque-Bold, Brandon Grotesque;font-weight:700;}.cls-9{letter-spacing:-0.01em;}.cls-10{letter-spacing:-0.01em;}.cls-11{letter-spacing:0em;}</style></defs><title>ipad-screen-white-label</title><g id="Layer_1" data-name="Layer 1"><rect class="cls-1" x="1" y="1" width="581" height="434" rx="5" ry="5"/><path class="cls-2" d="M582,7V56H1V7A5,5,0,0,1,6,2H577A5,5,0,0,1,582,7Z"/><path class="cls-1" d="M155.2,80.44V202.89a1.31,1.31,0,0,1-1.11,1.44H26.82a1.31,1.31,0,0,1-1.11-1.44V80.44A1.31,1.31,0,0,1,26.82,79H154.09A1.31,1.31,0,0,1,155.2,80.44Z"/><path class="cls-1" d="M554.87,237V374.38c0,.9-2,1.62-4.55,1.62H30.22c-2.52,0-4.55-.73-4.55-1.62V237c0-.9,2-1.62,4.55-1.62H550.32C552.83,235.33,554.87,236.06,554.87,237Z"/><rect class="cls-3" x="218.73" y="139.33" width="26.67" height="95.33" rx="4.4" ry="4.4" transform="translate(419.07 -45.07) rotate(90)"/><rect class="cls-4" x="228.07" y="94" width="8" height="95.33" transform="translate(373.73 -90.4) rotate(90)"/><rect class="cls-4" x="228.07" y="108.67" width="8" height="95.33" transform="translate(388.4 -75.73) rotate(90)"/><circle class="cls-5" cx="103.45" cy="306.42" r="33.58"/><circle class="cls-6" cx="200.95" cy="306.42" r="33.58"/><circle class="cls-7" cx="299.54" cy="306.42" r="33.58"/><circle class="cls-1" cx="400.29" cy="306.42" r="33.58"/><circle class="cls-1" cx="495.56" cy="306.36" r="33.58"/><text class="cls-8" transform="translate(184.54 123)"><tspan class="cls-9">Y</tspan><tspan x="12.54" y="0">OUR </tspan><tspan class="cls-10" x="65.47" y="0">L</tspan><tspan x="76.43" y="0">OGO</tspan></text><text class="cls-8" transform="translate(27.2 406.33)"><tspan class="cls-9">Y</tspan><tspan x="12.54" y="0">OUR BRAND </tspan><tspan class="cls-11" x="146.39" y="0">C</tspan><tspan x="161.37" y="0">O</tspan><tspan class="cls-10" x="178.97" y="0">L</tspan><tspan x="189.92" y="0">OURS</tspan></text><line class="cls-1" x1="495.56" y1="293.69" x2="495.56" y2="319.03"/><line class="cls-1" x1="508.23" y1="306.36" x2="482.9" y2="306.36"/></g></svg>
