<svg xmlns="http://www.w3.org/2000/svg" xmlns:xlink="http://www.w3.org/1999/xlink" viewBox="0 0 560 372"><defs><style>.cls-1,.cls-10,.cls-11,.cls-32,.cls-7,.cls-9{fill:none;}.cls-2,.cls-8{fill:#fff;}.cls-10,.cls-11,.cls-2,.cls-9{stroke:#eff1f5;}.cls-10,.cls-11,.cls-2,.cls-7,.cls-9{stroke-width:2px;}.cls-3{clip-path:url(#clip-path);}.cls-4{fill:#081d4c;}.cls-12,.cls-15,.cls-5{fill:#2dd6a5;}.cls-6{fill:#0e377f;}.cls-7{stroke:#2dd6a5;}.cls-32,.cls-7{stroke-miterlimit:10;}.cls-10{stroke-dasharray:7.64 7.64;}.cls-11{stroke-dasharray:8 8;}.cls-12{font-size:15px;}.cls-12,.cls-15,.cls-20,.cls-23{font-family:BrandonGrotesque-Bold, Brandon Grotesque;font-weight:700;}.cls-13{letter-spacing:-0.01em;}.cls-14{letter-spacing:0em;}.cls-15,.cls-20{font-size:16.64px;}.cls-16{letter-spacing:-0.04em;}.cls-17{letter-spacing:0.03em;}.cls-18{letter-spacing:-0.04em;}.cls-19{letter-spacing:0em;}.cls-20,.cls-23,.cls-28{fill:#eff1f5;}.cls-21{letter-spacing:-0.01em;}.cls-22{letter-spacing:0em;}.cls-23{font-size:17px;}.cls-24{letter-spacing:-0.01em;}.cls-25{letter-spacing:0em;}.cls-26{letter-spacing:0em;}.cls-27{letter-spacing:-0.01em;}.cls-29{clip-path:url(#clip-path-3);}.cls-30{fill:#3e82f7;}.cls-31{fill:#e2c779;}.cls-32{stroke:#fff;}</style><clipPath id="clip-path"><path class="cls-1" d="M560,4.29V367.71a4.58,4.58,0,0,1-4.82,4.29H4.82A4.58,4.58,0,0,1,0,367.71V4.29A4.58,4.58,0,0,1,4.82,0H555.18A4.58,4.58,0,0,1,560,4.29Z"/></clipPath><clipPath id="clip-path-3"><rect class="cls-1" x="177.69" y="133.99" width="137.81" height="80"/></clipPath></defs><title>ipad-screen-flash-create</title><g id="Layer_1" data-name="Layer 1"><path class="cls-2" d="M560,4.29V367.71a4.58,4.58,0,0,1-4.82,4.29H4.82A4.58,4.58,0,0,1,0,367.71V4.29A4.58,4.58,0,0,1,4.82,0H555.18A4.58,4.58,0,0,1,560,4.29Z"/><g class="cls-3"><rect class="cls-4" x="-11.5" y="30.93" width="109.25" height="349.55"/></g><rect class="cls-5" y="86.49" width="97.75" height="51.5"/><polygon class="cls-6" points="55.96 66.62 41.79 66.62 41.79 55.67 48.8 49.24 55.96 55.67 55.96 66.62"/><polygon class="cls-4" points="58.21 109.15 50.91 109.19 55.72 97.04 39.54 115.33 46.84 115.29 42.03 127.44 58.21 109.15"/><circle class="cls-6" cx="48.88" cy="167.2" r="9.33"/><circle class="cls-6" cx="48.88" cy="216.29" r="9.33"/><circle class="cls-6" cx="48.88" cy="265.38" r="9.33"/><circle class="cls-5" cx="144.75" cy="104.74" r="16.25"/><rect class="cls-7" x="177.69" y="88.49" width="288.15" height="32.5"/><rect class="cls-8" x="177.69" y="133.99" width="137.81" height="80"/><polyline class="cls-9" points="315.5 137.99 315.5 133.99 311.5 133.99"/><line class="cls-10" x1="303.86" y1="133.99" x2="185.5" y2="133.99"/><polyline class="cls-9" points="181.69 133.99 177.69 133.99 177.69 137.99"/><line class="cls-11" x1="177.69" y1="145.99" x2="177.69" y2="205.99"/><polyline class="cls-9" points="177.69 209.99 177.69 213.99 181.69 213.99"/><line class="cls-10" x1="189.32" y1="213.99" x2="307.68" y2="213.99"/><polyline class="cls-9" points="311.5 213.99 315.5 213.99 315.5 209.99"/><line class="cls-11" x1="315.5" y1="201.99" x2="315.5" y2="141.99"/><text class="cls-12" transform="translate(189.13 110.38)">CHOOSE HEADER IM<tspan class="cls-13" x="147.34" y="0">A</tspan><tspan class="cls-14" x="157.21" y="0">GE</tspan></text><text class="cls-15" transform="translate(189.13 67.62)">CRE<tspan class="cls-16" x="32.24" y="0">A</tspan><tspan x="42.66" y="0">TE A F</tspan><tspan class="cls-17" x="88.54" y="0">L</tspan><tspan x="97.47" y="0">ASH DON</tspan><tspan class="cls-18" x="172.43" y="0">A</tspan><tspan class="cls-19" x="182.85" y="0">TION</tspan></text><text class="cls-20" transform="translate(141.13 110.38)">1</text><circle class="cls-5" cx="144.75" cy="247.41" r="16.25"/><text class="cls-20" transform="translate(140.13 253.05)">2</text><rect class="cls-7" x="177.69" y="231.16" width="288.15" height="32.5"/><text class="cls-12" transform="translate(189.13 253.05)">NAME <tspan class="cls-21" x="46.77" y="0">Y</tspan><tspan class="cls-22" x="55.32" y="0">OUR OFFER</tspan></text><text class="cls-23" transform="translate(189.13 293.72)"><tspan class="cls-24">D</tspan><tspan x="12.31" y="0">onate $</tspan><tspan class="cls-25" x="62.46" y="0">1</tspan><tspan class="cls-26" x="68.48" y="0">0 for 2 FREE</tspan><tspan x="0" y="33">tic</tspan><tspan class="cls-27" x="17.2" y="33">k</tspan><tspan class="cls-26" x="25.38" y="33">ets to the game</tspan></text><rect class="cls-8" x="328.02" y="133.99" width="137.81" height="80"/><polyline class="cls-9" points="465.83 137.99 465.83 133.99 461.83 133.99"/><line class="cls-10" x1="454.2" y1="133.99" x2="335.84" y2="133.99"/><polyline class="cls-9" points="332.02 133.99 328.02 133.99 328.02 137.99"/><line class="cls-11" x1="328.02" y1="145.99" x2="328.02" y2="205.99"/><polyline class="cls-9" points="328.02 209.99 328.02 213.99 332.02 213.99"/><line class="cls-10" x1="339.66" y1="213.99" x2="458.02" y2="213.99"/><polyline class="cls-9" points="461.83 213.99 465.83 213.99 465.83 209.99"/><line class="cls-11" x1="465.83" y1="201.99" x2="465.83" y2="141.99"/><line class="cls-9" x1="396.93" y1="162.49" x2="396.93" y2="185.49"/><line class="cls-9" x1="408.43" y1="173.99" x2="385.43" y2="173.99"/><line class="cls-9" x1="177.69" y1="299.66" x2="371.17" y2="299.66"/><line class="cls-9" x1="177.69" y1="332.33" x2="371.17" y2="332.33"/><line class="cls-9" x1="177.69" y1="364.99" x2="371.17" y2="364.99"/><g class="cls-3"><rect class="cls-28" x="-11.5" y="-15.84" width="583" height="46.77"/></g><g class="cls-29"><rect class="cls-8" x="177.69" y="133.99" width="137.81" height="80"/><rect class="cls-30" x="177.69" y="133.99" width="137.81" height="36.17"/><rect class="cls-31" x="177.69" y="173.99" width="137.81" height="40"/><path class="cls-5" d="M246.59,176.41c-29.59,0-57.16,11.89-57.16,11.89l55.5,16.44h3.31l55.5-16.44S276.19,176.41,246.59,176.41Z"/><path class="cls-4" d="M187.44,186s25.06-12,59.16-12a159.87,159.87,0,0,1,60.34,12l19-26.09-51.75-13.75-3.25,2.5H218.69l-3.12-3.12-49.62,20.23Z"/><path class="cls-32" d="M246.59,179.16c-23.85,0-46.06,9.58-46.06,9.58L245.26,202h2.67l44.73-13.25S270.44,179.16,246.59,179.16Z"/><path class="cls-31" d="M250.81,189.38c0,.44-1.89.79-4.22.79s-4.22-.36-4.22-.79,1.89-1.36,4.22-1.36S250.81,188.94,250.81,189.38Z"/><ellipse class="cls-31" cx="246.59" cy="204.74" rx="11.34" ry="5.42"/><circle class="cls-8" cx="194.29" cy="173.14" r="0.85"/><circle class="cls-8" cx="195.62" cy="168.26" r="0.48" transform="translate(-61.68 187.61) rotate(-45)"/><circle class="cls-8" cx="202.06" cy="164.03" r="0.63"/><circle class="cls-8" cx="207.63" cy="169.21" r="0.95"/><circle class="cls-8" cx="213.91" cy="167.25" r="0.47"/><circle class="cls-8" cx="216" cy="159.22" r="0.69"/><circle class="cls-8" cx="233.16" cy="164.5" r="0.47"/><circle class="cls-8" cx="240.56" cy="159.41" r="0.88"/><circle class="cls-8" cx="248.94" cy="155.78" r="0.63"/><circle class="cls-8" cx="253.12" cy="160.72" r="0.44"/><circle class="cls-8" cx="271.19" cy="153.53" r="0.63"/><circle class="cls-8" cx="275.5" cy="161.85" r="0.69"/><circle class="cls-8" cx="287.75" cy="156.85" r="1.06"/><circle class="cls-8" cx="290.41" cy="164.5" r="0.47"/><circle class="cls-8" cx="298.16" cy="168.74" r="0.47"/><circle class="cls-8" cx="309.75" cy="163.72" r="0.31"/><circle class="cls-8" cx="305.37" cy="175.85" r="0.56"/><path class="cls-4" d="M332.77,188.26a11.54,11.54,0,0,0-5.64-8.08A11.56,11.56,0,1,0,307,191.52a11.5,11.5,0,0,0-1.57,6.87h0a11.56,11.56,0,0,0-9.5,9.79,11.55,11.55,0,0,0-11.16-4.55,11.53,11.53,0,0,0-18.1,3.13c-.35.09-.7.19-1,.31a11.49,11.49,0,0,0-6.67-1,10.19,10.19,0,0,0-15.74-.85,11.5,11.5,0,0,0-7.13,1.11,11.5,11.5,0,0,0-13.75-3.78l-.07,0A11.53,11.53,0,0,0,205,198.66a11.53,11.53,0,0,0-15.94-6.28c0-.2-.1-.39-.15-.59a11.57,11.57,0,1,0-21.4-2.25A11.54,11.54,0,0,0,174,205.79a11.55,11.55,0,0,0,21.4,8.43h0a11.55,11.55,0,0,0,14.41,7.84,13.32,13.32,0,0,0,13.66,2.23,11.46,11.46,0,0,0,1.9.39,11.55,11.55,0,0,0,15.81,3.49,11.43,11.43,0,0,0,9.39-4.74,11.46,11.46,0,0,0,13.71,5,11.52,11.52,0,0,0,14.89-4.4A11.55,11.55,0,0,0,298,216.64a11.53,11.53,0,0,0,18.29.39c.34,0,.68-.06,1-.12a11.56,11.56,0,0,0,9.45-13.35l0-.08a11.54,11.54,0,0,0,1.55-4A11.55,11.55,0,0,0,332.77,188.26Z"/></g></g></svg>
