<svg xmlns="http://www.w3.org/2000/svg" xmlns:xlink="http://www.w3.org/1999/xlink" viewBox="0 0 560 372"><defs><style>.cls-1,.cls-12,.cls-13,.cls-15{fill:none;}.cls-2{fill:#fff;}.cls-12,.cls-13,.cls-2{stroke:#eff1f5;}.cls-12,.cls-15,.cls-2{stroke-width:2px;}.cls-3{clip-path:url(#clip-path);}.cls-4{fill:#081d4c;}.cls-5,.cls-8{fill:#f37f82;}.cls-6{fill:#0e377f;}.cls-7{fill:#eff1f5;}.cls-8{font-size:16.64px;font-family:BrandonGrotesque-Bold, Brandon Grotesque;font-weight:700;}.cls-9{letter-spacing:0em;}.cls-10{letter-spacing:-0.04em;}.cls-11{letter-spacing:0em;}.cls-12,.cls-13,.cls-15{stroke-miterlimit:10;}.cls-14{fill:#3e82f7;}.cls-15{stroke:#081d4c;}.cls-16{fill:#fab42d;}</style><clipPath id="clip-path"><path class="cls-1" d="M560,4.29V367.71a4.58,4.58,0,0,1-4.82,4.29H4.82A4.58,4.58,0,0,1,0,367.71V4.29A4.58,4.58,0,0,1,4.82,0H555.18A4.58,4.58,0,0,1,560,4.29Z"/></clipPath></defs><title>ipad-screen-analyze-reports</title><g id="Layer_1" data-name="Layer 1"><path class="cls-2" d="M560,4.29V367.71a4.58,4.58,0,0,1-4.82,4.29H4.82A4.58,4.58,0,0,1,0,367.71V4.29A4.58,4.58,0,0,1,4.82,0H555.18A4.58,4.58,0,0,1,560,4.29Z"/><g class="cls-3"><rect class="cls-4" x="-11.5" y="30.93" width="109.25" height="349.55"/></g><rect class="cls-5" y="86.49" width="97.75" height="51.5"/><polygon class="cls-6" points="55.96 66.62 41.79 66.62 41.79 55.67 48.8 49.24 55.96 55.67 55.96 66.62"/><circle class="cls-6" cx="48.88" cy="167.2" r="9.33"/><circle class="cls-6" cx="48.88" cy="216.29" r="9.33"/><circle class="cls-6" cx="48.88" cy="265.38" r="9.33"/><g class="cls-3"><rect class="cls-7" x="-11.5" y="-15.84" width="583" height="46.77"/></g><text class="cls-8" transform="translate(124.5 67.62)">R<tspan class="cls-9" x="11.08" y="0">E</tspan><tspan x="20.81" y="0">CENT DON</tspan><tspan class="cls-10" x="105.29" y="0">A</tspan><tspan class="cls-11" x="115.7" y="0">TIONS</tspan></text><rect class="cls-12" x="124.5" y="86.49" width="188.55" height="25.75"/><rect class="cls-12" x="124.5" y="125.12" width="188.55" height="25.75"/><rect class="cls-12" x="124.5" y="163.74" width="188.55" height="25.75"/><rect class="cls-12" x="124.5" y="202.37" width="188.55" height="25.75"/><rect class="cls-12" x="124.5" y="240.99" width="188.55" height="25.75"/><rect class="cls-12" x="124.5" y="279.62" width="188.55" height="25.75"/><polygon class="cls-7" points="140.37 136.59 137.06 136.61 139.24 131.09 131.89 139.4 135.21 139.38 133.03 144.9 140.37 136.59"/><polygon class="cls-4" points="140.37 97.69 137.06 97.71 139.24 92.19 131.89 100.5 135.21 100.48 133.03 106 140.37 97.69"/><polygon class="cls-7" points="140.37 291.09 137.06 291.11 139.24 285.59 131.89 293.89 135.21 293.88 133.03 299.39 140.37 291.09"/><circle class="cls-13" cx="136.13" cy="176.62" r="6.63"/><path class="cls-7" d="M131.74,174.68a4.8,4.8,0,1,0,8.79,0Z"/><circle class="cls-13" cx="136.13" cy="215.29" r="6.63"/><path class="cls-7" d="M131.74,213.36a4.8,4.8,0,1,0,8.79,0Z"/><circle class="cls-13" cx="136.13" cy="253.87" r="6.63"/><path class="cls-7" d="M131.74,251.93a4.8,4.8,0,1,0,8.79,0Z"/><rect class="cls-4" x="153.2" y="95.95" width="65.58" height="6.84"/><rect class="cls-7" x="153.2" y="134.57" width="65.58" height="6.84"/><rect class="cls-7" x="153.2" y="173.2" width="65.58" height="6.84"/><circle class="cls-5" cx="300" cy="99.09" r="3.69"/><circle class="cls-7" cx="300" cy="137.99" r="3.69"/><circle class="cls-7" cx="300" cy="176.62" r="3.69"/><rect class="cls-7" x="153.2" y="211.87" width="65.58" height="6.84"/><rect class="cls-7" x="340.5" y="218.5" width="150.66" height="14.54"/><rect class="cls-7" x="340.5" y="239.97" width="93.16" height="14.54"/><rect class="cls-14" x="340.5" y="277.36" width="70.51" height="19.2"/><rect class="cls-12" x="420.13" y="277.36" width="70.51" height="19.2"/><circle class="cls-7" cx="300" cy="215.29" r="3.69"/><rect class="cls-7" x="153.2" y="250.45" width="65.58" height="6.84"/><circle class="cls-7" cx="300" cy="253.87" r="3.69"/><rect class="cls-12" x="124.5" y="318.24" width="188.55" height="25.75"/><circle class="cls-13" cx="136.13" cy="331.12" r="6.63"/><path class="cls-7" d="M131.74,329.18a4.8,4.8,0,1,0,8.79,0Z"/><rect class="cls-7" x="153.2" y="327.7" width="65.58" height="6.84"/><circle class="cls-7" cx="300" cy="331.12" r="3.69"/><rect class="cls-7" x="153.2" y="289.07" width="65.58" height="6.84"/><circle class="cls-7" cx="300" cy="292.49" r="3.69"/><line class="cls-15" x1="33.79" y1="123.77" x2="63.96" y2="123.77"/><rect class="cls-4" x="50.59" y="101.61" width="4.1" height="19.03"/><rect class="cls-4" x="44.31" y="105.64" width="4.1" height="14.99"/><rect class="cls-7" x="348.45" y="130.79" width="12.68" height="40.15"/><rect class="cls-7" x="366.95" y="121.81" width="12.68" height="49.13"/><rect class="cls-7" x="427.33" y="121.81" width="12.68" height="49.13"/><rect class="cls-7" x="407.45" y="139.49" width="12.68" height="31.46"/><rect class="cls-6" x="387.45" y="108.03" width="12.68" height="62.91"/><rect class="cls-4" x="37.88" y="109.58" width="4.1" height="11.05"/><rect class="cls-15" x="124.5" y="86.49" width="188.55" height="25.75"/><rect class="cls-12" x="329.83" y="86.49" width="205.67" height="103" rx="4.98" ry="4.98"/><rect class="cls-12" x="329.83" y="204.55" width="205.67" height="103" rx="4.98" ry="4.98"/><line class="cls-15" x1="34.79" y1="123.77" x2="34.79" y2="99.37"/><path class="cls-16" d="M487.17,145.57l19.4-14.13a24,24,0,1,1-19.4-9.87Z"/></g></svg>
