<svg id="Layer_2" data-name="Layer 2" xmlns="http://www.w3.org/2000/svg" viewBox="0 0 583 436"><defs><style>.cls-1{fill:#fff;stroke:#eff1f5;}.cls-1,.cls-4{stroke-width:2px;}.cls-2{fill:#081d4c;}.cls-3{fill:#3e82f7;}.cls-13,.cls-4{fill:#eff1f5;}.cls-4{stroke:#fff;}.cls-10,.cls-5,.cls-9{fill:#00467f;}.cls-6{fill:#839bc1;}.cls-7{fill:#f89728;}.cls-10,.cls-8,.cls-9{isolation:isolate;}.cls-10,.cls-9{font-size:2.97px;font-family:Helvetica-Bold, Helvetica;}.cls-10,.cls-13,.cls-9{font-weight:700;}.cls-10{letter-spacing:-0.04em;}.cls-11{fill:#316497;}.cls-12{fill:#6081ae;}.cls-13{font-size:22px;font-family:BrandonGrotesque-Bold, Brandon Grotesque;}.cls-14{letter-spacing:-0.01em;}.cls-15{letter-spacing:-0.01em;}.cls-16{letter-spacing:0em;}</style></defs><title>ipad-screen-white-label</title><rect class="cls-1" x="1" y="1" width="581" height="434" rx="5" ry="5"/><path class="cls-2" d="M582,7V56H1V7A5,5,0,0,1,6,2H577A5,5,0,0,1,582,7Z"/><path class="cls-1" d="M155.2,80.44V202.89a1.31,1.31,0,0,1-1.11,1.44H26.82a1.31,1.31,0,0,1-1.11-1.44V80.44A1.31,1.31,0,0,1,26.82,79H154.09A1.31,1.31,0,0,1,155.2,80.44Z"/><path class="cls-1" d="M554.87,237V374.38c0,.9-2,1.62-4.55,1.62H30.22c-2.52,0-4.55-.73-4.55-1.62V237c0-.9,2-1.62,4.55-1.62H550.32C552.83,235.33,554.87,236.06,554.87,237Z"/><rect class="cls-3" x="218.73" y="139.33" width="26.67" height="95.33" rx="4.4" ry="4.4" transform="translate(419.07 -45.07) rotate(90)"/><rect class="cls-4" x="228.07" y="94" width="8" height="95.33" transform="translate(373.73 -90.4) rotate(90)"/><rect class="cls-4" x="228.07" y="108.67" width="8" height="95.33" transform="translate(388.4 -75.73) rotate(90)"/><circle class="cls-5" cx="103.45" cy="306.42" r="33.58"/><circle class="cls-6" cx="200.95" cy="306.42" r="33.58"/><circle class="cls-7" cx="299.54" cy="306.42" r="33.58"/><circle class="cls-1" cx="400.29" cy="306.42" r="33.58"/><circle class="cls-1" cx="495.56" cy="306.36" r="33.58"/><g class="cls-8"><text class="cls-9" transform="translate(79.93 151.52)">C</text><text class="cls-9" transform="translate(82.08 151.52)">o</text><text class="cls-9" transform="translate(83.9 151.52)">u</text><text class="cls-9" transform="translate(85.7 151.52)">n</text><text class="cls-9" transform="translate(87.51 151.52)">c</text><text class="cls-9" transform="translate(89.17 151.52)">i</text><text class="cls-9" transform="translate(89.98 151.52)">l</text><text class="cls-9" transform="translate(90.8 151.52)"> </text><text class="cls-9" transform="translate(91.63 151.52)">o</text><text class="cls-9" transform="translate(93.44 151.52)">n</text><text class="cls-9" transform="translate(95.25 151.52)"> </text><text class="cls-10" transform="translate(96.08 151.52)">A</text><text class="cls-9" transform="translate(98.23 151.52)">m</text><text class="cls-9" transform="translate(100.89 151.52)">e</text><text class="cls-9" transform="translate(102.59 151.52)">r</text><text class="cls-9" transform="translate(103.73 151.52)">i</text><text class="cls-9" transform="translate(104.55 151.52)">c</text><text class="cls-9" transform="translate(106.23 151.52)">a</text><text class="cls-9" transform="translate(107.88 151.52)">n</text><text class="cls-9" transform="translate(109.77 151.52)">-</text><text class="cls-9" transform="translate(110.84 151.52)">I</text><text class="cls-9" transform="translate(111.69 151.52)">s</text><text class="cls-9" transform="translate(113.34 151.52)">l</text><text class="cls-9" transform="translate(114.17 151.52)">a</text><text class="cls-9" transform="translate(115.83 151.52)">m</text><text class="cls-9" transform="translate(118.47 151.52)">i</text><text class="cls-9" transform="translate(119.3 151.52)">c</text><text class="cls-9" transform="translate(120.94 151.52)"> </text><text class="cls-9" transform="translate(121.77 151.52)">R</text><text class="cls-9" transform="translate(123.91 151.52)">e</text><text class="cls-9" transform="translate(125.6 151.52)">l</text><text class="cls-9" transform="translate(126.43 151.52)">a</text><text class="cls-9" transform="translate(128.09 151.52)">t</text><text class="cls-9" transform="translate(129.1 151.52)">i</text><text class="cls-9" transform="translate(129.92 151.52)">o</text><text class="cls-9" transform="translate(131.74 151.52)">n</text><text class="cls-9" transform="translate(133.55 151.52)">s</text></g><path class="cls-11" d="M64.58,137.53a2.29,2.29,0,0,0,2.27,2.29,2.26,2.26,0,0,0,.92-.19h0A4.75,4.75,0,0,1,62,142.07h0a5.86,5.86,0,0,0,9.58-4.55h0A5.86,5.86,0,0,0,62,133h0a4.75,4.75,0,0,1,5.72,2.43h0a2.26,2.26,0,0,0-.92-.19,2.29,2.29,0,0,0-2.27,2.29v0Z"/><path class="cls-5" d="M57.17,130.1a2.29,2.29,0,0,0,2.29-2.27,2.26,2.26,0,0,0-.19-.92h0a4.75,4.75,0,0,1,2.43,5.72h0a5.86,5.86,0,0,0-4.55-9.58h0a5.86,5.86,0,0,0-4.55,9.58h0A4.75,4.75,0,0,1,55,126.93h0a2.26,2.26,0,0,0-.19.92,2.29,2.29,0,0,0,2.29,2.27h0Z"/><path class="cls-6" d="M49.73,137.51a2.29,2.29,0,0,0-2.27-2.29,2.26,2.26,0,0,0-.92.19h0A4.75,4.75,0,0,1,52.27,133h0a5.86,5.86,0,0,0-9.58,4.55h0a5.86,5.86,0,0,0,9.58,4.55h0a4.75,4.75,0,0,1-5.72-2.43h0a2.26,2.26,0,0,0,.92.19,2.29,2.29,0,0,0,2.27-2.29Z"/><path class="cls-7" d="M61.41,133.28a4.21,4.21,0,0,0,.38-.88l0,0a6.68,6.68,0,0,0,1.81-4c1.59-.15,2.82-.13,2.82-.13h0s0,1.24-.13,2.82a6.69,6.69,0,0,0-4,1.81l0,0a4.17,4.17,0,0,0-.88.37h0Z"/><path class="cls-7" d="M52.91,133.28a4.24,4.24,0,0,0-.88-.38l0,0A6.68,6.68,0,0,0,48,131c-.15-1.59-.13-2.82-.13-2.82h0s1.24,0,2.82.13a6.69,6.69,0,0,0,1.81,4l0,0a4.18,4.18,0,0,0,.37.88h0Z"/><path class="cls-12" d="M57.15,144.95a2.29,2.29,0,0,0-2.29,2.27,2.26,2.26,0,0,0,.19.92h0a4.75,4.75,0,0,1-2.43-5.72h0A5.86,5.86,0,0,0,57.15,152h0a5.86,5.86,0,0,0,4.55-9.58h0a4.75,4.75,0,0,1-2.43,5.72h0a2.26,2.26,0,0,0,.19-.92,2.29,2.29,0,0,0-2.29-2.27h0Z"/><path class="cls-7" d="M52.91,141.77a4.24,4.24,0,0,0-.38.88l0,0a6.68,6.68,0,0,0-1.81,4c-1.59.15-2.82.13-2.82.13h0s0-1.24.13-2.82a6.69,6.69,0,0,0,4-1.81l0,0a4.18,4.18,0,0,0,.88-.37h0Z"/><path class="cls-7" d="M61.41,141.77a4.24,4.24,0,0,0,.88.38l0,0a6.68,6.68,0,0,0,4,1.81c.15,1.59.13,2.82.13,2.82h0s-1.24,0-2.82-.13a6.69,6.69,0,0,0-1.81-4l0,0a4.19,4.19,0,0,0-.37-.88h0Z"/><path class="cls-7" d="M59.49,135.19a4.76,4.76,0,0,1-4.67,0,4.76,4.76,0,0,1,0,4.67,4.77,4.77,0,0,1,4.67,0,4.77,4.77,0,0,1,0-4.67"/><path class="cls-5" d="M87.9,128.54a8.84,8.84,0,1,0,0,17.68,8.12,8.12,0,0,0,7.2-3.8l-2.77-1.9a4.91,4.91,0,0,1-4.44,2.54c-3.12,0-5.23-2.46-5.23-5.68s2.1-5.63,5.23-5.63A4.7,4.7,0,0,1,92.09,134l2.71-1.93A7.52,7.52,0,0,0,87.9,128.54Zm15.85.05L96.17,146H99.6l.81-2h7l.81,2h3.73l-7.89-17.4h-.3Zm10.78.15V146h3.55V128.75Zm7.34,0V146h3.55v-4.29h1.22a6.8,6.8,0,0,0,1-.07L130.5,146h4.11L131,140.62a5.37,5.37,0,0,0,3.32-5.35c0-4.21-2.89-6.52-7.71-6.52h-4.77Zm3.55,3.12h1.12c2.84,0,4.16,1,4.16,3.4s-1.27,3.35-4.16,3.35h-1.12ZM103.86,135s.53,1.88,1,3.09l1.24,3H101.6l1.24-3A31.51,31.51,0,0,0,103.86,135Z"/><text class="cls-13" transform="translate(184.54 123)"><tspan class="cls-14">Y</tspan><tspan x="12.54" y="0">OUR </tspan><tspan class="cls-15" x="65.47" y="0">L</tspan><tspan x="76.43" y="0">OGO</tspan></text><text class="cls-13" transform="translate(27.2 406.33)"><tspan class="cls-14">Y</tspan><tspan x="12.54" y="0">OUR BRAND </tspan><tspan class="cls-16" x="146.39" y="0">C</tspan><tspan x="161.37" y="0">O</tspan><tspan class="cls-15" x="178.97" y="0">L</tspan><tspan x="189.92" y="0">OURS</tspan></text><line class="cls-1" x1="495.56" y1="293.69" x2="495.56" y2="319.03"/><line class="cls-1" x1="508.23" y1="306.36" x2="482.9" y2="306.36"/></svg>
