<svg xmlns="http://www.w3.org/2000/svg" xmlns:xlink="http://www.w3.org/1999/xlink" viewBox="0 0 560 372"><defs><style>.cls-1,.cls-12{fill:none;}.cls-13,.cls-2,.cls-8{fill:#fff;}.cls-2{stroke:#eff1f5;}.cls-12,.cls-2{stroke-width:2px;}.cls-3,.cls-5{fill:#3e82f7;}.cls-4{fill:#eff1f5;}.cls-5{font-size:16.64px;}.cls-5,.cls-8{font-family:BrandonGrotesque-Bold, Brandon Grotesque;font-weight:700;}.cls-6{letter-spacing:-0.04em;}.cls-7{letter-spacing:0em;}.cls-8{font-size:15px;}.cls-9{letter-spacing:-0.04em;}.cls-10{letter-spacing:0em;}.cls-11{clip-path:url(#clip-path);}.cls-12{stroke:#fff;stroke-miterlimit:10;}</style><clipPath id="clip-path"><path class="cls-1" d="M560,4.29V367.71a4.58,4.58,0,0,1-4.82,4.29H4.82A4.58,4.58,0,0,1,0,367.71V4.29A4.58,4.58,0,0,1,4.82,0H555.18A4.58,4.58,0,0,1,560,4.29Z"/></clipPath></defs><title>ipad-screen-engage-create</title><g id="Layer_1" data-name="Layer 1"><path class="cls-2" d="M560,4.29V367.71a4.58,4.58,0,0,1-4.82,4.29H4.82A4.58,4.58,0,0,1,0,367.71V4.29A4.58,4.58,0,0,1,4.82,0H555.18A4.58,4.58,0,0,1,560,4.29Z"/><rect class="cls-3" x="92.5" y="90.11" width="375" height="181.78"/><rect class="cls-3" x="234.57" y="325.94" width="90.86" height="27.55" rx="3.65" ry="3.65"/><rect class="cls-4" x="92.5" y="280.36" width="375" height="10.78"/><rect class="cls-4" x="92.5" y="299.61" width="375" height="10.78"/><text class="cls-5" transform="translate(175.33 67.62)">CRE<tspan class="cls-6" x="32.24" y="0">A</tspan><tspan x="42.66" y="0">TE A VIDEO MESS</tspan><tspan class="cls-7" x="176.77" y="0">A</tspan><tspan x="187.72" y="0">GE</tspan></text><text class="cls-8" transform="translate(252.6 345.34)">CRE<tspan class="cls-9" x="29.07" y="0">A</tspan><tspan class="cls-10" x="38.46" y="0">TE</tspan></text><g class="cls-11"><rect class="cls-4" x="-11.5" y="-15.84" width="583" height="46.77"/></g><circle class="cls-12" cx="280" cy="186" r="33.28"/><path class="cls-13" d="M293.33,184l-18.48-10.67a2.3,2.3,0,0,0-3.45,2v21.33a2.3,2.3,0,0,0,3.45,2L293.33,188A2.3,2.3,0,0,0,293.33,184Z"/></g></svg>
