<svg xmlns="http://www.w3.org/2000/svg" xmlns:xlink="http://www.w3.org/1999/xlink" viewBox="0 0 560 372"><defs><style>.cls-1,.cls-10{fill:none;}.cls-2{fill:#fff;}.cls-10,.cls-2{stroke:#eff1f5;stroke-width:2px;}.cls-3{clip-path:url(#clip-path);}.cls-4,.cls-8{fill:#081d4c;}.cls-5{fill:#e2dfd6;}.cls-6{fill:#0e377f;}.cls-7{fill:#eff1f5;}.cls-8{font-size:16.64px;font-family:BrandonGrotesque-Bold, Brandon Grotesque;font-weight:700;}.cls-9{letter-spacing:0em;}.cls-10{stroke-miterlimit:10;}.cls-11{clip-path:url(#clip-path-3);}.cls-12{fill:#fbc357;}.cls-13{fill:#e5ac51;}.cls-14{fill:#f37f82;}.cls-15{fill:#cc6d74;}.cls-16{fill:#57deb7;}.cls-17{clip-path:url(#clip-path-4);}.cls-18{fill:#1e1811;}.cls-19{fill:#997137;}.cls-20{fill:#ccb88f;}.cls-21{fill:#e5cf9e;}.cls-22{fill:#f9e3aa;}.cls-23{clip-path:url(#clip-path-5);}.cls-24{fill:#7f5d2f;}.cls-25{clip-path:url(#clip-path-6);}.cls-26{fill:#3e82f7;}.cls-27{clip-path:url(#clip-path-7);}.cls-28{fill:#cebb8e;}.cls-29{clip-path:url(#clip-path-8);}.cls-30{fill:#2dd6a5;}.cls-31{fill:#cccac2;}</style><clipPath id="clip-path"><path class="cls-1" d="M560,4.29V367.71a4.58,4.58,0,0,1-4.82,4.29H4.82A4.58,4.58,0,0,1,0,367.71V4.29A4.58,4.58,0,0,1,4.82,0H555.18A4.58,4.58,0,0,1,560,4.29Z"/></clipPath><clipPath id="clip-path-3"><circle class="cls-1" cx="142.21" cy="114.47" r="29.19"/></clipPath><clipPath id="clip-path-4"><circle class="cls-1" cx="281.35" cy="181.51" r="29.19"/></clipPath><clipPath id="clip-path-5"><circle class="cls-1" cx="211.78" cy="114.47" r="29.19"/></clipPath><clipPath id="clip-path-6"><circle class="cls-1" cx="281.35" cy="114.47" r="29.19"/></clipPath><clipPath id="clip-path-7"><circle class="cls-1" cx="142.21" cy="181.51" r="29.19"/></clipPath><clipPath id="clip-path-8"><circle class="cls-1" cx="211.78" cy="181.51" r="29.19"/></clipPath></defs><title>ipad-screen-flash-collect copy</title><g id="Layer_1" data-name="Layer 1"><path class="cls-2" d="M560,4.29V367.71a4.58,4.58,0,0,1-4.82,4.29H4.82A4.58,4.58,0,0,1,0,367.71V4.29A4.58,4.58,0,0,1,4.82,0H555.18A4.58,4.58,0,0,1,560,4.29Z"/><g class="cls-3"><rect class="cls-4" x="-11.5" y="30.93" width="109.25" height="349.55"/></g><rect class="cls-5" y="186.54" width="97.75" height="51.5"/><polygon class="cls-6" points="55.96 66.62 41.79 66.62 41.79 55.67 48.8 49.24 55.96 55.67 55.96 66.62"/><circle class="cls-6" cx="48.88" cy="161.66" r="9.33"/><circle class="cls-6" cx="48.88" cy="109.79" r="9.33"/><circle class="cls-6" cx="48.88" cy="265.38" r="9.33"/><g class="cls-3"><rect class="cls-7" x="-11.5" y="-15.84" width="583" height="46.77"/></g><text class="cls-8" transform="translate(386.84 67.62)">MESS<tspan class="cls-9" x="42.34" y="0">A</tspan><tspan x="53.29" y="0">GES</tspan></text><rect class="cls-10" x="325.54" y="85.28" width="211.33" height="260.06"/><rect class="cls-10" x="335.54" y="98.67" width="139.33" height="22.25" rx="11.12" ry="11.12"/><rect class="cls-10" x="495.5" y="98.67" width="22.25" height="22.25" rx="11.12" ry="11.12"/><rect class="cls-10" x="495.5" y="133.28" width="22.25" height="22.25" rx="11.12" ry="11.12"/><rect class="cls-10" x="495.5" y="167.88" width="22.25" height="22.25" rx="11.12" ry="11.12"/><rect class="cls-7" x="495.5" y="202.39" width="22.25" height="22.25" rx="11.12" ry="11.12"/><rect class="cls-10" x="335.54" y="133.28" width="139.33" height="22.25" rx="11.12" ry="11.12"/><rect class="cls-10" x="335.54" y="167.88" width="139.33" height="22.25" rx="11.12" ry="11.12"/><rect class="cls-7" x="335.54" y="202.49" width="139.33" height="22.25" rx="11.12" ry="11.12"/><rect class="cls-7" x="340.2" y="235.28" width="117.33" height="9.33"/><rect class="cls-7" x="340.2" y="255.15" width="117.33" height="9.33"/><rect class="cls-7" x="340.2" y="275.01" width="117.33" height="9.33"/><rect class="cls-7" x="340.2" y="294.88" width="69.04" height="9.33"/><g class="cls-11"><path class="cls-12" d="M120,150.49l9.54,2.79-.24,2.18h-9.68Z"/><path class="cls-12" d="M165.38,151.84l-8.61,2.42-.62,2h9.64S165.48,153,165.38,151.84Z"/><path class="cls-13" d="M124.59,151.48s-3.7,1.28-3.95,2.27-1.24,3,1,2.73S124.59,151.48,124.59,151.48Z"/><path class="cls-13" d="M159.06,153.78s3.28,1.14,3.5,2,1.1,2.64-.88,2.42S159.06,153.78,159.06,153.78Z"/><polygon class="cls-14" points="147.37 95.22 146.85 94.02 145.92 93.09 144.73 92.52 143.39 92.5 141.89 92.68 140.43 93.08 139.11 93.81 137.67 94.22 136.12 94.61 134.61 95.14 133.23 95.95 132.06 97.03 131.32 98.43 130.96 100.08 131.21 101.74 131.09 103.4 130.25 104.46 129.35 105.48 128.47 106.52 127.97 107.79 127.99 109.16 128.43 110.58 129.26 111.82 130.35 112.85 131.08 114.12 131.1 115.44 130.84 116.74 130.16 117.88 129.29 118.87 128.52 120.02 128.03 121.3 127.9 122.68 127.98 124.06 128.51 125.34 129.41 126.41 130.31 127.47 131.04 128.64 131.09 130.29 131.52 131.88 133.05 132.61 134.45 132.9 135.88 133.11 137.3 133.27 138.73 133.35 140.17 133.49 141.6 133.58 143.04 133.63 144.48 133.69 145.91 133.76 147.35 133.79 148.98 133.69 150.6 133.49 152.2 133.14 153.52 132.21 153.88 130.78 153.83 129.3 153.95 127.83 154.94 126.78 156.08 125.87 156.38 124.45 155.87 123.08 155.18 121.78 154.36 120.56 153.56 119.32 153.54 117.92 154.24 116.78 154.85 115.59 155.38 114.37 155.61 113.06 155.45 111.75 154.9 110.5 154.22 109.31 153.58 108.1 153.4 106.75 153.47 105.37 153.85 103.98 154.31 102.61 154.64 101.21 154.75 99.78 154.3 98.42 153.5 97.23 152.51 96.27 151.35 95.49 150.05 95.02 148.67 94.92 147.37 95.22"/><polygon class="cls-15" points="135.47 111.82 135.53 113.2 135.59 114.6 135.66 116 135.66 117.39 135.66 118.79 135.47 120.17 134.98 121.36 135.02 122.59 136.19 123.87 136.8 125.45 136.23 126.84 136.13 128.31 136.99 129.42 138.07 130.33 139.21 131.15 140.64 130.72 142.08 130.3 142.67 129.13 142.95 127.86 143.06 126.54 142.95 125.22 142.96 123.54 142.74 122.14 142.49 120.94 142.76 119.88 142.07 118.85 141.14 117.46 140.09 116.21 138.78 114.98 137.45 113.79 136.47 112.79 135.47 111.82"/><path class="cls-15" d="M149.55,113.57s.66,6.6-.66,8.36-1.54,2.86-1.32,4,1.1,4.18-1.54,4.4-3.3-6.82-3.19-7.26,1.21-7,1.21-7Z"/><polygon class="cls-16" points="165.83 156.24 165.74 154.81 165.58 153.38 165.49 151.95 165.4 150.52 165.17 149.17 165.07 147.8 164.79 146.46 164.6 145.1 164.35 143.75 164.15 142.4 163.83 141.06 163.34 139.66 162.65 138.33 161.65 137.21 160.49 136.27 159.25 135.44 157.96 134.68 156.62 134 155.28 133.32 153.82 132.69 152.38 132.02 150.95 131.32 149.55 130.56 148.12 129.87 146.69 129.18 145.37 129.21 144.05 129.23 142.73 129.18 141.41 129.2 140.09 129.19 138.78 129.21 137.35 129.89 135.93 130.61 134.49 131.27 133.05 131.94 131.62 132.65 130.19 133.35 128.86 134.05 127.49 134.67 126.23 135.48 124.99 136.3 123.81 137.21 122.81 138.34 122.1 139.65 121.58 141.05 121.33 142.4 121.06 143.74 120.81 145.09 120.61 146.45 120.39 147.8 120.24 149.16 120.1 150.52 120 151.95 119.82 153.37 119.75 154.81 119.65 156.23 121.06 156.23 122.49 156.22 123.92 156.19 125.35 156.19 126.78 156.19 128.2 156.25 128.18 157.73 128.22 159.22 128.23 160.72 128.21 162.22 128.22 163.71 129.67 163.73 131.13 163.69 132.6 163.7 134.06 163.73 135.52 163.74 136.98 163.74 138.44 163.74 139.9 163.71 141.36 163.76 142.83 163.75 144.29 163.7 145.75 163.71 147.21 163.71 148.67 163.75 150.13 163.76 151.6 163.72 153.06 163.74 154.53 163.68 156 163.74 157.45 163.7 157.42 162.22 157.47 160.73 157.47 159.23 157.46 157.73 157.49 156.26 158.86 156.28 160.25 156.22 161.64 156.21 163.03 156.28 164.43 156.26 165.83 156.24"/><polygon class="cls-12" points="146.68 129.19 146.03 127.69 145.68 126.08 145.51 124.44 145.35 122.81 145.35 121.27 145.38 119.73 145.35 118.19 145.38 116.66 145.37 115.11 145.37 113.57 145.37 112.03 144.05 112.05 142.73 112.05 141.41 112.03 140.1 112.04 140.1 113.56 140.11 115.1 140.09 116.64 140.08 118.18 140.1 119.72 140.09 121.26 140.08 122.81 139.96 124.44 139.74 126.07 139.42 127.69 138.76 129.18 138.74 130.46 139.93 131.19 141.31 131.49 142.73 131.6 144.15 131.52 145.53 131.19 146.72 130.45 146.68 129.19"/><path class="cls-13" d="M145.37,121.45V112h-5.28v9.42a7.56,7.56,0,0,0,5.28,0Z"/><polyline class="cls-12" points="135.47 104.61 135.47 106.06 135.47 107.51 135.46 108.95 135.47 110.4 135.47 111.86 135.47 113.31 135.61 114.83 136.03 116.3 136.7 117.67 137.59 118.78 138.68 119.68 139.93 120.35 141.31 120.7 142.73 120.82 144.16 120.72 145.55 120.33 146.82 119.67 147.88 118.7 148.69 117.52 149.24 116.19 149.56 114.07 149.55 112.69 149.56 111.31 149.57 109.93 149.56 108.55 149.54 107.17 149.55 105.79 149.54 104.41 149.55 103.03"/><path class="cls-13" d="M149.55,103l-14.08,1.58v7.12c2.42-1,3.3.79,8.36-1.19a11.33,11.33,0,0,0,5.72-5.29Z"/><path class="cls-13" d="M139.21,116.65a10,10,0,0,0,2-.63,4.21,4.21,0,0,1,1.36-.27A4.16,4.16,0,0,1,144,116c.52.15,1.07.42,2.06.67a2.76,2.76,0,0,1-1.17,2.35,3.82,3.82,0,0,1-4.5,0A2.56,2.56,0,0,1,139.21,116.65Z"/><polygon class="cls-14" points="150.43 101.84 149.9 103.19 149.22 104.47 148.4 105.67 147.44 106.76 146.36 107.74 145.14 108.53 143.83 109.15 142.49 109.62 141.11 109.99 139.69 110.13 138.26 110.09 136.85 110.03 135.48 110.36 134.4 110.95 133.64 111.91 133.48 113.11 133.23 111.57 132.97 110.03 132.69 108.49 132.41 106.94 132.18 105.4 132.19 105.21 132.68 103.69 133.21 102.17 133.72 100.66 135.18 99.81 136.64 98.94 138.11 98.08 139.57 97.81 141.04 97.55 142.51 97.31 143.83 97.4 145.15 97.5 146.47 97.57 147.79 97.68 148.66 99.07 149.56 100.45 150.43 101.84"/><path class="cls-12" d="M146.25,143.72a3.72,3.72,0,0,1,2.2.64c.66.66.77,1.31,1.49,2.19s-3.91,0-3.91,0l-.88-2.42Z"/><path class="cls-13" d="M146.25,143.72s1,1,.73.95-1.83,1-1.83,1l-.44-1.54Z"/><polygon class="cls-12" points="119.63 156.12 119.6 157.77 119.67 159.42 119.98 161.05 120.73 162.51 122.03 163.41 123.61 163.61 125.14 163.2 126.25 162.07 126.81 160.72 127.35 159.36 127.87 157.99 128.43 156.62 128.95 155.24 129.52 153.89 130.11 152.55 130.85 151.28 132.47 150.81 134.09 150.43 135.7 149.99 136.69 148.87 136.79 147.33 136.72 145.66 136.78 144.02 138.09 143.22 139.43 142.49 139.42 140.96 138.25 141.49 137.07 142.05 135.93 142.7 134.82 143.38 133.67 144.15 132.55 144.97 131.48 145.84 130.44 146.74 129.43 147.69 128.45 148.66 127.37 149.69 126.31 150.73 125.21 151.74 124.14 152.8 123.06 153.83 121.97 154.86 120.89 155.88 119.94 156.15 119.63 156.12"/><polygon class="cls-4" points="143.19 151.39 142.27 151.39 140.74 150.99 139.63 149.87 139.21 148.34 139.22 146.98 139.21 145.62 139.22 144.25 139.22 142.89 139.22 141.53 139.2 140.16 139.63 138.63 140.74 137.52 142.27 137.11 143.19 137.11 144.72 137.51 145.84 138.63 146.26 140.16 146.24 141.52 146.26 142.88 146.24 144.24 146.25 145.61 146.25 146.97 146.25 148.34 145.84 149.87 144.71 150.98 143.19 151.39"/><polygon class="cls-12" points="140.63 143.92 140.85 143.96 142.56 144.2 144.27 144.37 145.62 144.5 146.97 144.65 148.24 145.1 149.32 145.91 150.2 146.85 151.01 147.85 151.88 148.79 152.85 149.64 154.15 150.5 155.49 151.32 156.81 152.17 158.12 153.03 159.35 154.01 160.51 155.07 161.56 156.23 162.98 156.22 164.4 156.25 165.82 156.24 165.88 157.62 165.83 159 165.62 160.38 165.19 161.69 164.49 162.88 163.41 163.74 161.91 163.99 160.43 163.62 159.12 162.83 157.98 161.79 156.95 160.64 155.99 159.44 155.04 158.22 154.19 157.1 153.34 155.97 152.43 154.9 151.46 153.89 150.42 152.95 149.07 152.12 147.57 151.55 146.02 151.17 144.49 150.75 143.33 150.28 142.27 149.65 142.28 149.65 141.97 148.19 142.09 147.66 141.84 147.18 141.84 146.38 142.09 145.88 140.95 145.55 139.84 145.17 139.41 144.58 139.42 144.58 140.09 143.91 140.63 143.92"/></g><circle class="cls-10" cx="142.21" cy="114.47" r="29.19"/><g class="cls-17"><path class="cls-4" d="M284.91,188.47c-.82.27-.82-.28-1.63-.57l-1.62-.6-1.61-.6c-.81-.29-.82-.27-1.62-.57l-1.62-.6c-.81-.29-.8-.31-1.61-.61s-.82-.26-1.63-.56l-1.62-.59-1.62-.6-1.63-.58-1.62-.61c-.81-.3-1.38.24-1.64-.58s.47-.76,1-1.5.51-.72,1-1.46.46-.75.94-1.49.47-.75,1-1.48.53-.71,1-1.45.44-.76.93-1.5.52-.72,1-1.46.44-.77.93-1.51.5-.73,1-1.47.5-.73,1-1.47.46-.76.95-1.5.15-1.17,1-1.45.82.26,1.64.58.8.35,1.62.67.82.29,1.64.6l1.63.61c.82.31.8.35,1.62.67l1.64.62c.82.31.81.33,1.63.65s.83.28,1.65.6l1.63.63,1.64.62,1.64.64c.82.32,1.39-.21,1.66.63s-.49.74-1,1.46-.51.71-1,1.43-.48.73-1,1.44l-1,1.44c-.49.72-.52.7-1,1.42s-.51.71-1,1.43-.46.74-.95,1.46l-1,1.45c-.49.72-.51.7-1,1.42s-.47.74-1,1.46a6.21,6.21,0,0,0-1,1.45C285.56,187.87,285.74,188.19,284.91,188.47Z"/><path class="cls-4" d="M279.44,198.36c-.84.19-.54.39-1.45,1l-1.48.91-1.47.93c-.47.3-1,.57-1.49.9s-1,.59-1.48.91-.95.68-1.43,1l-1.46,1c-.5.33-1,.63-1.46,1s-1,.68-1.43,1-1,.75-1.38,1.06a8.55,8.55,0,0,0-1.29,1.17,6,6,0,0,0-.61,1.64c-.14.48-.33,1-.47,1.68s-.19,1.11-.31,1.72-.25,1.11-.35,1.71-.19,1.13-.29,1.72-.12,1.15-.21,1.74-.22,1.14-.3,1.72-.13,1.16-.21,1.74-.19,1.16-.26,1.73-.11,1.17-.18,1.74-.18,1.17-.25,1.73-.13,1.19-.2,1.74-.06,1.21-.12,1.75-.2,1.23-.26,1.73c-.11,1.09-1,1.39-.14,1.7s.85,0,1.71,0l1.73,0c.87,0,.87,0,1.73,0s.87-.07,1.73-.07.87,0,1.73,0l1.73,0c.87,0,.87,0,1.73,0s.87-.07,1.73-.07l1.73,0c.87,0,.87,0,1.73,0h3.47c.87,0,.87-.05,1.73-.05s.87.07,1.74.07.87-.07,1.73-.07h1.74c.87,0,.87.07,1.74.07h1.73c.87,0,.87-.07,1.74-.07s.87,0,1.73,0,.87,0,1.74,0,.87.05,1.74.05h1.74c.87,0,.87,0,1.74,0s.87,0,1.74,0,1.19.65,1.76,0-.12-.91-.22-1.82-.07-.9-.17-1.81-.06-.91-.16-1.81-.13-.9-.22-1.8-.11-.9-.21-1.8-.09-.9-.18-1.81-.07-.9-.17-1.81-.12-.9-.21-1.8-.11-.9-.2-1.81-.08-.9-.18-1.81-.08-.91-.17-1.81-.1-.91-.2-1.81,0-.91-.17-1.82a4.72,4.72,0,0,1-.15-1.58c0-.5.13-1,.18-1.59s.09-1.08.13-1.6a10.06,10.06,0,0,0,0-1.61,1.88,1.88,0,0,0-.6-1.43c-.8-.34-.8-.33-1.62-.62s-.84-.22-1.66-.52-.81-.32-1.63-.61l-1.64-.58-1.63-.61c-.82-.3-.8-.34-1.62-.63s-.84-.24-1.66-.54l-1.64-.59c-.82-.3-.81-.33-1.63-.63s-.77-.51-1.64-.59-1,.15-2,.27-1,.08-2,.16A9,9,0,0,0,279.44,198.36Z"/><path class="cls-4" d="M280.19,223c-.81-.12-.76.31-1.53.6l-1.54.57-1.53.58-1.53.59-1.54.57-1.54.59c-.77.29-1.2-.17-1.53.58s.29.78.58,1.56l.58,1.56c.29.78.28.79.57,1.57s.3.78.59,1.57-.22,1.32.58,1.58.68-.48,1.36-.94l1.36-.93c.68-.47.67-.48,1.35-.95s.69-.45,1.37-.92l1.36-.94,1.36-.94c.68-.47,1.06-.16,1.38-.93.39-.94-.9-.25-1.45-1.37a4.78,4.78,0,0,1-.45-2A9.43,9.43,0,0,1,280.19,223Z"/><path class="cls-12" d="M272.32,207a8.73,8.73,0,0,1,1.73.29,13.89,13.89,0,0,1,1.66.58c.53.21,1.07.44,1.61.71s1,.57,1.53.87,1,.6,1.5.92,1,.66,1.45,1,1,.7,1.41,1,1,.7,1.41,1.06.95.76,1.36,1.11.92.85,1.3,1.19c.75.68,1.23,1.12,1.29,1.19s.4-.51.9-1.49c.23-.45.45-1,.75-1.59l.8-1.57c.26-.5.57-1,.85-1.54s.56-1,.84-1.55.57-1,.86-1.54.6-1,.91-1.51.68-1,1-1.45a16.2,16.2,0,0,1,1.08-1.39,4.9,4.9,0,0,1,1.33-1.11c-.68-.47-.77-.29-1.55-.58l-1.55-.58c-.78-.29-.76-.32-1.54-.61s-.79-.25-1.57-.53l-1.54-.59-1.55-.58c-.78-.29-.77-.31-1.55-.6a4.92,4.92,0,0,0-1.57-.55c-.76-.1-.76.09-1.52.18l-1.53.18c-.76.09-.76.12-1.53.21a8.17,8.17,0,0,0-1.53.18c-.83.21-.55.33-1.45.89l-1.46.9-1.45.91c-.46.29-1,.57-1.47.88s-.93.65-1.41,1-1,.6-1.45.91l-1.43,1c-.49.32-1,.63-1.43.95s-1,.68-1.4,1-1,.68-1.39,1c0,0,.75-.16,1.81-.3.54-.07,1.17-.13,1.82-.2s1.23-.08,1.83-.11S271.78,207,272.32,207Z"/><path class="cls-18" d="M280.19,183.39a5,5,0,1,1-.25-1.57A5.07,5.07,0,0,1,280.19,183.39Z"/><path class="cls-19" d="M284.19,194.68h0a11,11,0,0,1-1.76.06,4.09,4.09,0,0,1-1.68-.49,4.81,4.81,0,0,1-1.33-1.13,15,15,0,0,1-1-1.41c-.29-.44-.64-.91-1-1.46a12.61,12.61,0,0,1-1.9-5.7c-.08-.92-.05-.92-.13-1.83s-.08-.92-.16-1.83-.1-.92-.18-1.83a8,8,0,0,1,1.27-5,7.86,7.86,0,0,1,1.13-1.32,7.78,7.78,0,0,1,1.38-1,7,7,0,0,1,3.28-1.07v0a8.19,8.19,0,0,1,5,1.29,8.83,8.83,0,0,1,2.4,2.49,7.26,7.26,0,0,1,1,3.3c.08.87.1.87.18,1.74s0,.88.11,1.75.09.87.16,1.75.09.87.17,1.75a8.8,8.8,0,0,1-.35,3.21c-.18.6-.33,1.16-.5,1.66s-.39,1.15-.61,1.62a7.76,7.76,0,0,1-.9,1.47,4.45,4.45,0,0,1-1.27,1.14,5.44,5.44,0,0,1-1.59.62A12,12,0,0,1,284.19,194.68Z"/><path class="cls-14" d="M281.85,187.78l.23.1.22.09.21.07.23.06c.14,0,.3.08.43.1l.44.07.21,0H284l.25,0h1.08l.46,0h.2l.22,0,.46,0,.41,0,.24,0,.21,0,.45-.1.24-.05.22-.06.47-.15-.13.22-.16.2a1.37,1.37,0,0,1-.19.19l-.19.16c-.13.1-.28.21-.41.29l-.24.13-.21.11a3.21,3.21,0,0,1-.52.19l-.48.12-.25,0-.27,0-.22,0h-.55l-.25,0c-.14,0-.35,0-.5-.06l-.27-.06-.22-.06-.26-.07-.25-.09c-.2-.09-.28-.14-.46-.24a3.28,3.28,0,0,1-.43-.31l-.19-.17a1.19,1.19,0,0,1-.18-.2c0-.07-.1-.14-.15-.22Z"/><path class="cls-19" d="M278.62,199.8a4.52,4.52,0,0,0,.59-1.66,16.83,16.83,0,0,0,.23-1.76c.05-.62.07-1.24.09-1.78,0-1-.54-1.08,0-1.77s.69-.46,1.37-.93.54-.87,1.36-.93.74.36,1.48.72.88.16,1.48.73.08.75.25,1.76c.09.53.21,1.14.35,1.74a16.71,16.71,0,0,0,.49,1.71,4.49,4.49,0,0,0,.82,1.56c.59.61.43,1.23-.21,1.74a5.28,5.28,0,0,1-1.85.83A10.69,10.69,0,0,1,281,202a5.28,5.28,0,0,1-2-.56C278.36,201.07,278.12,200.48,278.62,199.8Z"/><path class="cls-18" d="M282.07,170.5a8.2,8.2,0,0,0-3.35,1.11,8,8,0,0,0-3.37,4,7.94,7.94,0,0,0-.51,3.5c.08,1-.2,1,.18,1.93.62-.07,1.22-.16,1.8-.28s1.2-.28,1.76-.44,1.18-.36,1.72-.57,1.15-.45,1.67-.71,1.1-.57,1.59-.87,1-.68,1.5-1a17.4,17.4,0,0,0,1.38-1.17,15.94,15.94,0,0,0,1.25-1.31c.73-.86.37-2,1.07-1.45s.3.7.62,1.4.33.69.65,1.39a5.88,5.88,0,0,0,.62,1.4,7.89,7.89,0,0,0-1.18-3.23,7.88,7.88,0,0,0-4-3.2,8.08,8.08,0,0,0-3.41-.47Z"/><path class="cls-20" d="M288,211.69c-.65-.81-.9-.34-2-.52a6.47,6.47,0,0,0-2.06-.07c-1.74.29-1.86-.14-1.74.88s-.44,1.24.29,1.74,1-.08,2-.15,1.07.2,2-.13.72-.48,1.37-1.05C288.22,212.14,288.24,212,288,211.69Z"/><path class="cls-21" d="M285.7,215.17c.53-.69,0-.87,0-1.74s.41-1,0-1.74-.73.36-1.71.46a4.22,4.22,0,0,1-1.77-.17l.29,1.74c.17,1-.54,1.43.29,1.74s.73-.23,1.45-.14S285.26,215.75,285.7,215.17Z"/><path class="cls-22" d="M282.51,222.14c-.67-.52-.1-.85-.19-1.69s-.09-.85-.18-1.69-.1-.84-.2-1.69-.11-.85-.2-1.69-.09-.85-.18-1.7-.45-.88-.21-1.7.61.29,1.51.51a7.61,7.61,0,0,0,1.57.23,5.77,5.77,0,0,0,1.58-.16c2.32-.58,2.39-2,2-.87a5.91,5.91,0,0,0-.21,1.78c-.1.89-.09.89-.19,1.79l-.19,1.79c-.1.9-.09.9-.19,1.79l-.19,1.79c-.1.9.55,1.28-.2,1.8-.9.62-1.1-.28-2.18-.16S283.37,222.81,282.51,222.14Z"/><path class="cls-4" d="M268,187.16h-.58c0-.13,0-.19,0-.25s0-.13,0-.26,0-.2,0-.27,0-.12,0-.25,0-.19,0-.25,0-.13,0-.26,0-.19,0-.25,0-.13,0-.26v-.51c0-.13,0-.2,0-.26s0-.13,0-.25,0-.2,0-.26,0-.13,0-.25v-1c0-.13,0-.19,0-.25s0-.13,0-.26v-.51H268V182c0,.13,0,.19,0,.25s0,.13,0,.26v1c0,.13,0,.2,0,.26s0,.13,0,.25,0,.2,0,.26,0,.13,0,.25v.51c0,.13,0,.19,0,.25s0,.13,0,.26,0,.19,0,.25,0,.13,0,.26,0,.2,0,.27,0,.12,0,.25,0,.19,0,.25S268,187,268,187.16Z"/><ellipse class="cls-4" cx="267.71" cy="187.02" rx="0.87" ry="1.16"/><path class="cls-4" d="M267.71,186.15c-.82,0-.21.8-.42,1.6l-.42,1.59a.7.7,0,0,0,.67.88h.33a.7.7,0,0,0,.67-.88c-.21-.8-.41-.77-.41-1.6S268.53,186.15,267.71,186.15Z"/><path class="cls-22" d="M283.1,227.07c-.19.77,0,.79,0,1.59s0,.8,0,1.6,0,.8,0,1.6-.33.87,0,1.6.8.23,1.75.26a4.41,4.41,0,0,0,1.73-.27c1.45-.58,1.72-.09,1.75-1.15a6.12,6.12,0,0,0-.24-1.56c-.12-.78-.11-.78-.23-1.56s-.11-.78-.23-1.57-.11-.79-.23-1.57.41-1.11-.24-1.56-.79.13-1.59.28-.89-.1-1.59.3C283,225.59,283.35,226,283.1,227.07Z"/><path class="cls-19" d="M280.63,222.95l1.36-.79,1.35-.8,1.35-.8a2.07,2.07,0,0,1,1.9-.1l1.66.72a1.53,1.53,0,0,1,.86,1.77,1.49,1.49,0,0,0-.11.45c0,.17,0,.17.08.33a4,4,0,0,1-.25,2.63c-.55,1.16-.18,1.42-1.1,2.32-.49.48-.68,0-1.36.07l-1.36.08a4.79,4.79,0,0,1-1.69-.2l-1.63-.5a2.76,2.76,0,0,1-.56-.24c-.61-.35-.87-.09-1.21-.7s0-.73,0-1.47,0-.74,0-1.47A1.5,1.5,0,0,1,280.63,222.95Z"/></g><circle class="cls-10" cx="281.35" cy="181.51" r="29.19"/><g class="cls-23"><polygon class="cls-14" points="219.36 124.73 220.66 125.43 221.99 126.03 223.32 126.61 224.66 127.2 225.95 127.88 227.26 128.52 228.6 129.1 229.9 129.77 231.19 130.47 232.51 131.09 233.79 131.81 235.11 132.44 236.35 133.21 237.63 133.93 238.78 134.81 239.54 136.07 240.04 137.46 240.5 138.87 240.9 140.3 241.35 141.72 241.72 143.15 242.05 144.6 242.44 146.04 242.75 147.49 243.1 148.94 243.45 150.39 243.7 151.86 244.03 153.31 244.31 154.78 244.59 156.24 244.87 157.7 245.16 159.16 245.47 160.61 245.77 162.06 246.06 163.52 244.6 163.56 243.14 163.5 241.68 163.57 240.23 163.5 238.77 163.46 237.32 163.57 235.87 163.51 234.41 163.5 232.96 163.55 231.5 163.51 230.04 163.57 228.59 163.5 227.13 163.48 225.68 163.54 224.22 163.56 222.77 163.49 221.31 163.49 219.85 163.55 218.39 163.54 216.94 163.54 215.48 163.57 214.02 163.47 212.56 163.54 211.1 163.48 209.64 163.55 208.18 163.51 206.72 163.51 205.26 163.54 203.8 163.47 202.34 163.47 200.88 163.51 199.43 163.46 197.97 163.56 196.5 163.56 195.04 163.49 193.58 163.51 192.12 163.55 190.66 163.57 189.19 163.5 187.72 163.52 188.08 162.05 188.54 160.61 188.91 159.14 189.31 157.68 189.67 156.21 190.06 154.75 190.42 153.28 190.79 151.82 191.24 150.37 191.62 148.91 191.94 147.43 192.39 145.98 192.72 144.5 193.15 143.04 193.48 141.56 193.86 140.09 194.43 138.72 195.1 137.4 196.05 136.25 197.18 135.28 198.38 134.51 199.51 133.63 200.71 132.85 201.84 131.96 203 131.12 204.22 130.36 205.37 129.5 206.55 128.69 207.68 127.79 208.89 127.02 210.03 126.14 211.25 125.36 212.38 124.44 213.78 124.56 215.17 124.62 216.57 124.6 217.96 124.68 219.36 124.73"/><path class="cls-19" d="M219.87,126.19c-1.24-1.49-1.49-7.19-1.49-7.19l-3-1.74-3,1.74s-.25,5.7-1.49,7.19,1.24,2.73,4.46,2.73S221.11,127.68,219.87,126.19Z"/><rect class="cls-19" x="211.75" y="108.96" width="7.31" height="17.73"/><path class="cls-19" d="M213.64,121.83h0a9,9,0,0,1-10.4-7.31l-2-11.46a9,9,0,0,1,7.31-10.4h0a9,9,0,0,1,10.4,7.31l2,11.46C220.54,109.13,218.5,121,213.64,121.83Z"/><polygon class="cls-4" points="219.56 103.15 219.17 101.57 218.97 99.97 218.54 98.63 218.06 97.3 217.26 96.14 216.3 95.11 215.23 94.2 214.05 93.43 212.74 92.9 211.35 92.63 209.95 92.55 208.54 92.67 208.53 92.63 207.23 93.03 205.97 93.55 204.82 94.29 203.78 95.17 202.88 96.19 202.16 97.35 201.61 98.57 203.01 98.35 204.42 98.06 205.84 97.84 207.25 97.6 208.66 97.36 210.07 97.05 211.49 96.82 212.91 96.64 213.8 97.63 214.65 98.68 215.54 99.71 216.47 100.69 217.37 101.72 217.55 102.97 217.78 104.21 218 105.43 218.75 104.31 219.56 103.15"/><path class="cls-19" d="M218.4,102.73a2.47,2.47,0,1,1,.85,4.86Z"/><path class="cls-16" d="M202.18,108.74l-.49-.11-.42-.19-.37-.27-.31-.33-.25-.36-.22-.4-.14-.41-.1-.43,0-.42v-.46l.06-.45.13-.43.19-.41.27-.39.34-.31.41-.24.46-.13.44,0,.49.11.43.2.36.27.32.32.26.36.21.4.15.41.1.43.05.42v.47l-.07.44-.12.43-.19.42-.27.38-.34.32-.41.25-.47.13Zm-.28-.65.33.07h.33l.31-.1.29-.18.25-.24.2-.29.15-.33.1-.35.05-.36v-.37l0-.37-.09-.36-.12-.35-.17-.32-.21-.29L203,104l-.28-.21-.31-.14-.33-.07-.33,0-.32.1-.29.18-.25.23-.19.29-.15.33-.1.35,0,.36v.37l0,.37.09.36.12.35.18.32.21.3.25.26.29.2Z"/><path class="cls-16" d="M208.18,107.69l-.5-.1-.41-.2-.37-.27-.32-.32-.26-.37-.2-.4-.15-.42-.1-.43,0-.44v-.44l.06-.45.13-.42.19-.42.27-.37.34-.32.41-.24.46-.13.44,0,.49.11.43.19.37.27.3.32.27.37.2.39.16.42.1.43,0,.42v.46l-.06.44-.13.44-.2.41-.27.38-.34.32-.41.24-.46.13Zm-.29-.64.33.06h.34l.32-.1.29-.18.25-.24.2-.29.15-.32.1-.35,0-.37v-.37l0-.37-.08-.36-.13-.35-.17-.33-.22-.29-.25-.26-.28-.2-.32-.14-.33-.07h-.33l-.32.1-.29.18-.25.24-.2.29-.15.33-.11.35,0,.36v.37l0,.37.08.36.13.35.17.32.21.29.25.25.29.21Z"/><polygon class="cls-19" points="232.68 162.04 233.39 160.82 233.77 159.44 233.85 158.02 233.76 156.6 233.49 155.21 232.35 154.34 231.05 153.65 229.66 153.15 228.29 152.6 226.88 152.17 225.49 151.68 224.08 151.24 222.66 150.83 221.26 150.37 219.84 149.97 218.41 149.6 216.99 149.18 215.53 148.89 214.09 148.53 212.67 148.14 211.22 147.83 209.77 147.56 208.32 147.3 206.87 147.04 205.4 146.89 203.92 146.82 202.44 146.75 200.97 146.89 199.53 147.18 198.9 147.58 197.77 148.62 196.66 149.68 195.53 150.73 194.36 151.73 193.22 152.76 192.06 153.76 191.22 154.84 190.52 156.03 189.77 157.2 189.09 158.41 188.38 159.61 187.63 160.79 189.64 160.31 190.64 159.37 191.51 158.29 192.37 157.2 193.1 156.01 194.6 155.9 196.08 155.68 197.57 155.51 199.07 155.42 200.51 154.66 201.9 153.82 203.09 152.73 205.03 152.19 206.41 152.66 207.75 153.23 209.14 153.69 210.48 154.28 211.84 154.83 213.22 155.34 214.56 155.94 215.89 156.56 217.23 157.16 218.52 157.85 219.83 158.53 221.02 159.37 222.22 160.28 223.43 161.18 224.71 161.96 226.04 162.64 227.51 162.89 228.84 162.87 230.16 162.77 231.48 162.54 232.68 162.04"/><polyline class="cls-19" points="193.44 154.66 193.05 156.22 192.66 157.77 192.27 159.33 191.88 160.9 193.57 160.18 194.07 158.91 194.56 157.64 195.04 156.36 195.51 155.09 193.44 154.66"/><polygon class="cls-19" points="195.78 154.77 195.63 156.25 195.48 157.74 195.34 159.23 195.18 160.71 196.33 160.35 197 159.34 197.32 158.09 197.59 156.83 197.84 155.57 198.07 154.31 196.92 154.54 195.78 154.77"/><path class="cls-24" d="M206.58,151.91c-2.61-.58-3.48-.58-4.06.58s-4.28,2.86-4.66,3l1.2-.13a14.91,14.91,0,0,0,4.05-2.64,1.89,1.89,0,0,1,1.92-.58,141.69,141.69,0,0,1,13.42,5.65C215.85,156,209.16,152.48,206.58,151.91Z"/><path class="cls-13" d="M203.5,113.84a5.5,5.5,0,0,0,1.62.13,12.23,12.23,0,0,0,1.53-.17,15.13,15.13,0,0,0,1.51-.32,9.13,9.13,0,0,0,1.55-.57,2.73,2.73,0,0,1-1.16,1.4,4.5,4.5,0,0,1-1.71.64,4.33,4.33,0,0,1-1.83-.07A2.4,2.4,0,0,1,203.5,113.84Z"/><polygon class="cls-4" points="202.59 111.69 202.9 113.06 203.08 114.46 203.28 115.86 203.59 117.24 203.8 118.64 204.05 120.04 204.26 121.44 204.86 122.64 205.95 123.38 207.26 123.55 208.64 123.33 210 123.06 211.36 122.78 212.73 122.56 214.02 122.17 215.22 121.54 216.3 120.71 217.02 119.55 217.85 118.19 218.63 116.79 219.39 115.39 220.22 114.02 220.73 112.82 220.95 111.54 220.84 110.25 220.59 108.63 219.26 108.81 217.92 109.04 216.56 109.22 215.24 109.57 213.88 109.76 212.54 110 211.17 110.18 210.03 110.88 209.58 112.11 209.45 114.07 208.28 115.43 206.86 115.6 205.47 115.82 204.18 115.14 203.62 114.02 203.14 112.83 202.59 111.69"/><polygon class="cls-4" points="205.06 111.02 203.72 110.83 203.27 110.97 201.98 112.31 201.89 112.9 202.29 113.63 203.05 113.78 204.18 112.85 205.3 111.92 205.06 111.02"/><polygon class="cls-4" points="205.66 111 207.48 110.17 207.96 110.13 209.06 110.55 210.18 110.93 210.47 111.38 210.22 112.41 209.5 112.76 208.24 112.43 206.97 112.12 205.7 111.77 205.66 111"/></g><circle class="cls-10" cx="211.78" cy="114.47" r="29.19"/><g class="cls-25"><polygon class="cls-13" points="274.64 111.57 274.09 110.09 273.56 108.56 273 107.04 272.52 105.48 271.13 104.42 270.35 102.84 270.38 101.51 271.01 100.35 271.77 99.26 272.25 98.03 272.43 96.33 272.9 94.72 274.37 94.01 275.95 93.96 277.51 93.7 278.93 93.01 280.28 92.05 281.81 91.42 283.42 91.66 284.89 92.29 286.39 92.83 287.96 92.69 289.29 92.61 290.5 93.21 291.26 94.31 291.38 95.64 291.34 97.01 291.14 98.37 290.64 99.63 289.54 100.43 288.18 100.64 286.8 100.65 285.41 100.73 284.04 100.93 282.66 101.01 281.3 101.23 280.22 102.04 279.19 102.94 278.11 103.77 277.07 104.67 275.95 105.48 275.64 107.02 275.33 108.55 274.96 110.08 274.64 111.57"/><polygon class="cls-26" points="285.57 131.05 286.94 131.32 288.32 131.64 289.7 131.97 291.06 132.33 292.43 132.69 293.8 133.04 295.17 133.41 296.55 133.77 297.92 134.13 299.29 134.49 300.67 134.84 302.03 135.22 303.4 135.58 303.08 136.83 302.77 138.08 302.52 139.36 302.34 140.64 302.23 142.24 302.22 143.84 302.34 145.43 300.85 145.22 299.36 145.01 297.87 144.78 296.38 144.56 294.88 144.37 294.03 143.16 293.18 141.95 292.36 140.73 291.51 139.52 290.65 138.32 289.8 137.12 288.96 135.9 288.11 134.69 287.25 133.49 286.42 132.26 285.57 131.05"/><polygon class="cls-26" points="278.5 131.18 277.35 132.09 276.21 133.02 275.09 133.96 273.97 134.91 272.89 135.92 271.73 136.83 270.65 137.84 269.54 138.79 268.67 139.74 268 140.85 267.64 142.1 267.52 143.57 267.36 145.03 267.23 146.5 267.06 147.96 266.95 149.42 266.78 150.88 266.64 152.34 266.48 153.81 266.32 155.27 266.16 156.73 266.02 158.2 265.86 159.66 265.71 161.13 265.58 162.61 267.04 162.6 268.49 162.6 269.94 162.64 271.4 162.62 272.85 162.59 274.3 162.6 275.75 162.6 277.2 162.63 278.66 162.64 280.11 162.6 281.56 162.59 283.02 162.58 284.47 162.63 285.93 162.62 287.38 162.59 288.84 162.59 290.29 162.57 291.74 162.6 293.2 162.58 294.65 162.61 296.11 162.62 297.56 162.61 299.02 162.62 300.48 162.58 301.94 162.59 303.4 162.6 303.07 161.15 302.63 159.73 302.29 158.28 301.89 156.85 301.56 155.4 301.2 153.96 300.78 152.53 300.45 151.07 300.08 149.64 299.73 148.19 299.37 146.75 298.98 145.31 298.6 143.87 298.22 142.43 297.87 140.98 297.51 139.53 297.08 138.1 296.74 136.65 295.45 136 294.16 135.32 292.84 134.7 291.53 134.07 290.25 133.37 288.95 132.73 287.65 132.07 286.34 131.42 285.03 130.77 283.4 130.88 281.77 131.01 280.14 131.08 278.5 131.18"/><polygon class="cls-12" points="286.31 132.21 285.71 131 285.42 129.67 285.16 128.33 285.04 126.97 284.95 125.62 284.93 124.22 284.93 122.83 284.93 121.44 284.96 120.05 284.97 118.66 284.94 117.26 284.94 115.86 284.94 114.46 283.58 114.46 282.21 114.47 280.84 114.48 279.46 114.45 279.48 115.86 279.48 117.25 279.45 118.64 279.49 120.03 279.5 121.43 279.48 122.82 279.5 124.22 279.48 125.62 279.39 126.97 279.24 128.33 279.04 129.68 278.69 131 278.13 132.22 278.04 133.56 279.31 134.29 280.74 134.63 282.21 134.72 283.68 134.64 285.1 134.28 286.34 133.54 286.31 132.21"/><polygon class="cls-13" points="279.47 114.46 279.48 115.85 279.48 117.24 279.48 118.63 279.47 120.02 279.48 121.41 280.65 121.79 281.87 121.97 283.1 121.95 283.1 121.95 284.94 121.52 284.94 120.11 284.93 118.71 284.94 117.29 284.93 115.88 284.94 114.46 283.58 114.46 282.21 114.46 280.84 114.47 279.47 114.46"/><polygon class="cls-12" points="284.09 120 282.12 120.19 280.64 120.16 279.21 119.81 277.89 119.17 276.76 118.22 275.85 117.06 275.24 115.73 274.93 114.3 274.76 112.83 274.64 111.36 274.46 109.89 274.34 108.42 274.16 106.95 274.05 105.47 273.89 104 273.88 102.52 274.25 101.09 274.93 99.79 275.85 98.66 277 97.73 278.32 97.1 279.77 96.79 281.74 96.58 283.21 96.6 284.64 96.96 285.95 97.64 287.08 98.57 288.01 99.71 288.62 101.05 288.94 102.49 289.09 103.95 289.24 105.42 289.39 106.89 289.55 108.36 289.68 109.83 289.82 111.31 289.96 112.78 289.93 114.25 289.59 115.68 288.96 117.02 288.01 118.14 286.85 119.05 285.53 119.68 284.09 120"/><polygon class="cls-13" points="288.24 111.78 288.15 113.24 287.5 114.56 286.4 115.54 285.01 116.02 283.55 115.92 282.23 115.27 281.25 114.17 280.78 112.78 282.27 112.58 283.76 112.38 285.25 112.18 286.75 111.98 288.24 111.78"/><polygon class="cls-12" points="275.17 111.61 273.98 111.29 273.1 110.42 272.78 109.22 273.1 108.02 273.98 107.14 275.18 106.82 275.18 108.42 275.17 110.02 275.17 111.61"/><polygon class="cls-13" points="273.59 105.22 273.76 106.81 274.43 108.28 275.44 109.47 276.25 109.49 276.22 108.15 276.12 106.83 276.06 105.49 276 104.16 275.94 102.81 277.31 102.18 278.67 101.61 280.09 101.18 281.55 100.95 283.03 100.91 284.45 101.1 285.88 101.23 287.31 101.31 288.7 101.02 289.53 99.89 289.89 98.36 289.75 96.79 289.11 95.37 287.94 94.33 286.63 93.95 285.24 93.84 283.85 93.89 282.45 93.92 281.07 94.1 279.72 94.35 278.44 95.03 277.19 95.79 275.92 96.52 274.63 97.23 274.03 98.39 273.44 99.56 272.75 100.69 273.01 102.21 273.33 103.71 273.59 105.22"/></g><circle class="cls-10" cx="281.35" cy="114.47" r="29.19"/><g class="cls-27"><polygon class="cls-12" points="155.08 202.79 153.85 202.06 152.62 201.32 151.39 200.58 150.16 199.86 148.93 199.14 147.69 198.43 146.48 197.68 145.29 196.89 144.14 196.5 143.1 195.82 142.16 195.03 142.16 194.93 142.07 194.93 141.99 194.9 141.97 195.01 141.03 195.82 140.01 196.51 138.85 196.88 137.63 197.63 136.43 198.4 135.19 199.12 133.99 199.89 132.76 200.6 131.54 201.34 130.31 202.08 129.05 202.78 127.84 203.75 127 205.06 126.29 206.44 125.91 207.96 125.71 209.5 125.61 211.05 125.66 212.61 125.81 214.19 127.62 214.13 129.38 214.17 129.37 215.7 129.3 217.25 129.3 218.79 129.23 220.34 129.18 221.88 129.14 223.44 129.08 224.98 129.07 226.53 128.92 228.07 128.81 229.51 128.67 230.94 128.44 232.37 128.17 233.79 129.7 233.74 131.23 233.81 132.76 233.75 134.3 233.74 135.84 233.78 137.37 233.77 138.91 233.78 140.44 233.77 141.99 233.82 142.16 233.81 143.69 233.77 145.22 233.76 146.75 233.74 148.29 233.78 149.82 233.81 151.35 233.76 152.89 233.75 154.43 233.74 155.97 233.78 155.73 232.36 155.51 230.94 155.3 229.51 155.23 228.07 155.11 226.53 155.03 224.99 154.96 223.44 154.95 221.9 154.88 220.35 154.82 218.8 154.83 217.25 154.81 215.7 154.72 214.14 156.52 214.15 158.3 214.15 158.47 212.61 158.53 211.05 158.43 209.5 158.26 207.95 157.85 206.44 157.19 205.03 156.28 203.77 155.08 202.79"/><polygon class="cls-4" points="142.08 162.91 140.58 163.13 139.11 163.52 137.7 164.09 136.41 164.88 135.27 165.89 134.36 167.1 133.71 168.48 133.37 169.96 133.24 171.49 133.25 172.94 133.17 174.39 133.1 175.84 132.96 177.29 132.84 178.73 132.67 180.18 132.51 181.63 132.29 183.06 132.13 184.5 131.88 185.94 131.64 187.37 131.39 188.79 131.11 190.24 132.64 190.22 134.17 190.22 135.7 190.2 137.22 190.19 138.75 190.22 140.28 190.22 141.82 190.21 142.35 190.22 143.88 190.22 145.4 190.19 146.93 190.23 148.46 190.19 149.99 190.24 151.52 190.22 153.04 190.19 152.8 188.79 152.52 187.36 152.28 185.93 152.08 184.5 151.86 183.06 151.67 181.62 151.46 180.19 151.34 178.74 151.21 177.29 151.07 175.84 150.99 174.39 150.91 172.94 150.91 171.49 150.78 169.97 150.43 168.49 149.81 167.1 148.93 165.87 147.78 164.87 146.47 164.09 145.06 163.51 143.59 163.09 142.08 162.91"/><polygon class="cls-22" points="146.15 197.28 145.6 196.04 145.25 194.72 145.06 193.36 144.92 192 144.81 190.64 144.81 189.24 144.82 187.84 144.8 186.44 144.81 185.04 144.82 183.65 144.81 182.24 144.8 180.84 144.8 179.44 143.43 179.43 142.06 179.42 140.69 179.43 139.31 179.43 139.35 180.84 139.34 182.23 139.34 183.63 139.3 185.03 139.31 186.43 139.34 187.83 139.31 189.24 139.33 190.64 139.2 192 139.06 193.36 138.84 194.71 138.54 196.05 137.95 197.26 137.89 198.61 139.14 199.38 140.59 199.67 142.06 199.79 143.53 199.69 144.97 199.35 146.24 198.61 146.15 197.28"/><polygon class="cls-28" points="139.31 189.41 140.67 189.81 142.08 189.96 143.47 189.82 144.8 189.43 144.81 188 144.81 186.58 144.8 185.15 144.8 183.72 144.81 182.3 144.81 180.87 144.8 179.44 143.43 179.43 142.06 179.44 140.69 179.43 139.32 179.44 139.32 180.86 139.31 182.28 139.32 183.7 139.32 185.13 139.32 186.55 139.31 187.98 139.31 189.41"/><polygon class="cls-22" points="143.05 188.63 141.12 188.63 139.69 188.46 138.35 187.96 137.14 187.21 136.12 186.21 135.36 184.99 134.88 183.64 134.75 182.22 134.7 180.77 134.74 179.33 134.75 177.89 134.72 176.44 134.71 175 134.74 173.55 134.74 172.11 134.73 170.66 134.87 169.23 135.38 167.89 136.14 166.69 137.14 165.67 138.34 164.88 139.7 164.43 141.12 164.27 143.05 164.26 144.47 164.44 145.82 164.91 147.03 165.67 148.06 166.66 148.79 167.89 149.28 169.24 149.44 170.66 149.45 172.1 149.46 173.54 149.43 174.99 149.46 176.43 149.43 177.87 149.42 179.32 149.43 180.77 149.43 182.22 149.29 183.64 148.81 184.99 148.04 186.2 147.04 187.23 145.82 187.97 144.47 188.43 143.05 188.63"/><polygon class="cls-28" points="149.44 173.36 149.45 171.62 149.34 170.32 148.99 169.06 148.23 167.83 147.31 166.71 146.18 165.78 144.91 165.1 143.53 164.65 142.08 164.51 140.64 164.66 139.26 165.11 137.99 165.79 136.87 166.71 135.94 167.82 135.19 169.06 134.84 170.32 134.74 171.62 134.74 173.35 136.19 173.37 137.66 173.35 139.13 173.35 140.6 173.36 142.07 173.36 143.54 173.36 145.01 173.34 146.49 173.35 147.97 173.35 149.44 173.36"/><path class="cls-14" d="M138.66,183.44a5.15,5.15,0,0,1,.89-.23,6.49,6.49,0,0,1,.78-.07L140,183a4.6,4.6,0,0,1,1.35-.23l-.36-.07a4.57,4.57,0,0,1,1.25-.11h-.32a4.34,4.34,0,0,1,1.31.06l-.36.07a4.7,4.7,0,0,1,1.42.22l-.29.13a4.83,4.83,0,0,1,.82.11,3.9,3.9,0,0,1,.44.11c.15,0,.32.12.48.17,0,.17,0,.36-.07.51a3.92,3.92,0,0,1-.11.44,4.84,4.84,0,0,1-.29.77l-.29.13a4.7,4.7,0,0,1-1.08.94l-.36.07a4.34,4.34,0,0,1-1.29.27h-.33a4.57,4.57,0,0,1-1.22-.31l-.36-.07a4.61,4.61,0,0,1-1-.93l-.32-.15a6.47,6.47,0,0,1-.23-.75A5.14,5.14,0,0,1,138.66,183.44Z"/><polygon class="cls-4" points="134.19 172.33 134.31 170.86 134.61 169.43 135.15 168.07 135.89 166.8 136.83 165.69 137.96 164.75 139.24 164.05 140.63 163.62 142.08 163.45 142.08 163.46 143.54 163.6 144.93 164.04 146.2 164.76 147.33 165.69 148.26 166.82 149 168.07 149.55 169.43 149.86 170.85 149.98 172.31 148.54 172.3 147.11 172.31 145.68 172.32 144.25 172.3 142.81 172.32 141.38 172.31 139.94 172.31 138.51 172.3 137.07 172.32 135.63 172.31 134.19 172.33"/><polygon class="cls-28" points="126.56 217.77 127.36 219.11 128.16 220.44 127.63 218.57 126.56 216.97 126.56 217.77"/></g><circle class="cls-10" cx="142.21" cy="181.51" r="29.19"/><g class="cls-29"><path class="cls-15" d="M221.65,204.44c.87.21.25.65.78,1.65.24.45.5,1,.85,1.58s.66.94,1,1.47.67,1,1.07,1.44.71.94,1.14,1.39.83.84,1.28,1.26.91.75,1.39,1.14.91.76,1.41,1.11,1,.67,1.51,1,1,.59,1.57.86,1.06.54,1.63.77,1.1.44,1.69.63,1.14.32,1.74.47,1.15.27,1.75.38a2.57,2.57,0,0,1,.31,1.92,10.1,10.1,0,0,1-.45,2c-.36,1.05,0,1.26-.74,1.91s-.67,0-1.77,0c-.5,0-1.09-.07-1.74-.15s-1.11-.15-1.72-.27-1.12-.21-1.71-.38-1.1-.34-1.67-.55-1.06-.45-1.61-.7-1-.54-1.54-.84-1-.55-1.51-.89-.91-.71-1.37-1.09-.89-.74-1.32-1.16-.75-.88-1.14-1.33-.79-.84-1.1-1.28a15.74,15.74,0,0,1-.91-1.42,12.23,12.23,0,0,1-.68-1.54,10,10,0,0,1-.47-1.61,8.89,8.89,0,0,1-.26-1.66,7.63,7.63,0,0,1,.67-3.27,8.39,8.39,0,0,1,.8-1.46C221.14,204.94,220.84,204.25,221.65,204.44Z"/><path class="cls-14" d="M204.45,197.86c-.86-.21-.53.3-1.33,1.17-.33.36-.68.83-1.1,1.39s-.6.94-1,1.49-.63.94-.93,1.5-.51,1-.78,1.59-.44,1.06-.68,1.63-.44,1.07-.66,1.64-.46,1.07-.66,1.65-.34,1.11-.52,1.7-.39,1.12-.54,1.68-.32,1.14-.45,1.7-.17,1.17-.29,1.74-.23,1.16-.33,1.73-.3,1.16-.38,1.73-.18,1.18-.25,1.75,0,1.2-.08,1.77-.11,1.19-.15,1.75-.18,1.2-.2,1.75,0,1.22,0,1.76,0,1.26,0,1.75c0,1.12-.76,1.45.07,1.75s.86.06,1.73.06.87-.08,1.73-.08l1.73,0c.86,0,.86.07,1.73.07s.86-.1,1.73-.1.87,0,1.73,0,.86,0,1.73,0h1.73c.87,0,.87-.08,1.73-.08s.87.07,1.73.07.87,0,1.73,0l1.73,0,1.73,0c.86,0,.86,0,1.73,0h1.73c.87,0,.87,0,1.73,0h1.73c.87,0,.87,0,1.74,0h1.74c.87,0,.9.2,1.71-.11s0-.58-.16-1.69c-.06-.49-.2-1.07-.29-1.74s-.16-1.11-.26-1.74-.23-1.12-.34-1.73-.12-1.15-.23-1.75-.22-1.14-.34-1.73-.21-1.14-.34-1.73-.27-1.13-.41-1.71-.28-1.13-.43-1.71-.37-1.11-.52-1.68-.27-1.14-.44-1.71-.28-1.15-.46-1.7-.47-1.08-.67-1.64-.35-1.13-.56-1.67-.46-1.09-.68-1.62-.42-1.11-.67-1.63-.61-1-.89-1.53-.54-1.06-.84-1.54-.67-1-1-1.44a17.49,17.49,0,0,0-1.08-1.39,13.14,13.14,0,0,0-1.27-1.22c-.55.21-1.09.46-1.64.62s-1.17.2-1.72.32-1.18.21-1.72.28-1.23.16-1.73.2c-1.06.09-.9.37-1.73.08a8.84,8.84,0,0,1-2-.86A5.6,5.6,0,0,0,204.45,197.86Z"/><path class="cls-12" d="M209.08,186.38c-.4.7-.09.81-.2,1.61l-.22,1.6-.22,1.6c-.11.8-.1.8-.2,1.6L208,194.4a6.32,6.32,0,0,1-.23,1.6c-.34,1.09-.61,1-1.84,1.24-.59.12-.6.85.2,1.56a5,5,0,0,0,1.71,1,10,10,0,0,0,1.92.43,15.58,15.58,0,0,0,2,.09c.59,0,1.11,0,1.57-.07a10.3,10.3,0,0,0,1.56-.22,4.09,4.09,0,0,0,1.44-.63c.84-.63,1.18-.79.65-1.36s-.74-.29-1.4-.69-1.07-.72-1.07-1.07,0-.9,0-1.76c0-.54,0-1.16,0-1.77s0-1.24,0-1.78c0-1,.54-1.05,0-1.77s-.71-.6-1.42-1.19l-1.43-1.18c-.71-.59-.57-.82-1.42-1.2C209.61,185.31,209.43,185.78,209.08,186.38Z"/><path class="cls-13" d="M214.53,189.93c-.56-.73-.72-.58-1.43-1.17s-.7-.61-1.41-1.2-.52-1-1.44-1.17c-.68-.11-.83.15-1.15.76-.45.88-.26,1-.25,2a9.39,9.39,0,0,0,1,1.53,7.76,7.76,0,0,0,1.31,1.27,6.3,6.3,0,0,0,1.59.89,5.54,5.54,0,0,0,1.79.35c0-.57,0-1.13,0-1.62C214.52,190.61,215,190.57,214.53,189.93Z"/><circle class="cls-5" cx="205.67" cy="197.86" r="1.23"/><circle class="cls-5" cx="207.5" cy="199.08" r="1.22"/><circle class="cls-5" cx="209.64" cy="199.69" r="1.22"/><ellipse class="cls-5" cx="211.78" cy="199.69" rx="1.22" ry="1.22"/><circle class="cls-5" cx="213.92" cy="199.69" r="1.22"/><circle class="cls-5" cx="216.06" cy="199.08" r="1.22"/><circle class="cls-5" cx="216.98" cy="198.16" r="1.23"/><path class="cls-30" d="M217,208.63h0a.07.07,0,0,1-.06-.08l0-.22c0-.09,0-.19,0-.28s0-.19,0-.29,0-.15,0-.22l0-.21c0-.1,0-.19,0-.29s0-.32,0-.49l0-.2c0-.11,0-.22,0-.33s0-.18,0-.28,0-.16,0-.24,0-.17,0-.25,0-.17,0-.26,0-.19,0-.29,0-.15,0-.22,0-.34,0-.51,0-.16,0-.23,0-.19,0-.28,0-.17,0-.26,0-.17,0-.25,0-.16,0-.24,0-.18,0-.28,0-.17,0-.25,0-.17,0-.26,0-.17,0-.26,0-.17,0-.26,0-.17,0-.26,0-.17,0-.25a2.11,2.11,0,0,1,0-.26,1.89,1.89,0,0,0,0-.25c0-.09,0-.18,0-.27s0-.16,0-.24a2.09,2.09,0,0,0,0-.25,2.33,2.33,0,0,1,0-.26,2.52,2.52,0,0,1,0-.26,2.27,2.27,0,0,0,0-.25c0-.09,0-.17,0-.26s0-.17,0-.25,0-.17,0-.25,0-.17,0-.25v-.23c0-.09,0-.19,0-.28l0-.51a2.53,2.53,0,0,0,0-.25,2.51,2.51,0,0,1,0-.26c0-.09,0-.17,0-.26s0-.17,0-.25,0-.17,0-.26,0-.17,0-.25a1.56,1.56,0,0,1,0-.27,1.37,1.37,0,0,0,0-.24,2.24,2.24,0,0,0,0-.25,2.33,2.33,0,0,1,0-.25l0-.24c0-.09,0-.18,0-.27s0-.18,0-.27,0-.16,0-.24,0-.18,0-.26,0-.16,0-.24l0-.25c0-.09,0-.18,0-.26s0-.19,0-.28,0-.16,0-.23a2.67,2.67,0,0,1,0-.3,1.87,1.87,0,0,0,0-.21c0-.19,0-.24,0-.3s0-.09,0-.2a.07.07,0,0,1,.06-.08.07.07,0,0,1,.08.06l0,.2c0,.06,0,.12,0,.31a2.09,2.09,0,0,1,0,.23,2.49,2.49,0,0,0,0,.28c0,.07,0,.14,0,.22s0,.19,0,.29l0,.26,0,.25c0,.08,0,.15,0,.23s0,.18,0,.28,0,.17,0,.26,0,.17,0,.26l0,.27,0,.24a2.21,2.21,0,0,0,0,.24,2.37,2.37,0,0,1,0,.27,1.5,1.5,0,0,1,0,.27,1.44,1.44,0,0,0,0,.25c0,.08,0,.16,0,.24s0,.18,0,.27,0,.17,0,.26,0,.17,0,.25,0,.16,0,.24a2.59,2.59,0,0,1,0,.27l0,.51c0,.09,0,.19,0,.28v.23c0,.08,0,.16,0,.24s0,.18,0,.27,0,.18,0,.26,0,.17,0,.25a2.45,2.45,0,0,1,0,.27,2.28,2.28,0,0,0,0,.25,2.14,2.14,0,0,0,0,.24,2.27,2.27,0,0,1,0,.27c0,.08,0,.16,0,.24s0,.18,0,.27a2.05,2.05,0,0,1,0,.27,2,2,0,0,0,0,.24c0,.08,0,.16,0,.24s0,.18,0,.27,0,.16,0,.25,0,.18,0,.27,0,.18,0,.27,0,.16,0,.24,0,.19,0,.28,0,.16,0,.23,0,.16,0,.24,0,.18,0,.27,0,.19,0,.28,0,.15,0,.23,0,.34,0,.51,0,.15,0,.22,0,.2,0,.29,0,.18,0,.27,0,.16,0,.24,0,.16,0,.23,0,.19,0,.28,0,.23,0,.34l0,.2c0,.16,0,.33,0,.49s0,.2,0,.3l0,.21,0,.22c0,.1,0,.2,0,.29s0,.19-.05.29l0,.21A.07.07,0,0,1,217,208.63Z"/><path class="cls-5" d="M221.62,176c.82-.55.85-.35,1.55-1.17a3.41,3.41,0,0,0,.85-1.74,3.19,3.19,0,0,0-.28-2,2.85,2.85,0,0,1-.37-2,6.37,6.37,0,0,0,.14-1.52,3,3,0,0,0-.49-1.44,3.59,3.59,0,0,0-1.14-1,4.32,4.32,0,0,1-1.15-1c-.33-.42-.58-.89-.84-1.28a2.47,2.47,0,0,0-1.09-1,4.23,4.23,0,0,0-1.79-.25,4.33,4.33,0,0,0-1.71.59,5.33,5.33,0,0,0-1.36,1.19,3.07,3.07,0,0,1-1.24,1c-.5.15-.9-.16-1.53-.41a3.89,3.89,0,0,0-1.54-.33,4,4,0,0,0-1.48.26,3.37,3.37,0,0,0-1.23.85,2.79,2.79,0,0,0-.66,1.33,2.05,2.05,0,0,1-.78,1.22c-.36.3-.81.53-1.19.89a3,3,0,0,0-.82,1.24,4.3,4.3,0,0,0-.22,1.85,17.45,17.45,0,0,1,.28,1.83,2.86,2.86,0,0,1-.63,1.4,8.25,8.25,0,0,0-.75,1.36,2.76,2.76,0,0,0-.14,1.52,2.41,2.41,0,0,0,.68,1.34c.37.38.85.64,1.2,1a1.46,1.46,0,0,1,.58,1.38,6.15,6.15,0,0,0-.17,1.77,2.43,2.43,0,0,0,.7,1.61,13.45,13.45,0,0,1,1.09,1.29,1.74,1.74,0,0,0,1.39.86,4.44,4.44,0,0,0,1.43-.33,3.08,3.08,0,0,0,1.29-.67c.74-.57.76-.54,1.47-1.14s.68-.63,1.39-1.23.74-.57,1.45-1.17l1.43-1.19c.71-.6.66-.66,1.37-1.26s.74-.56,1.46-1.16.75-.56,1.43-1.19A8.09,8.09,0,0,1,221.62,176Z"/><path class="cls-12" d="M221.86,180.29c0,.57,0,1.13,0,1.67s-.16,1.12-.26,1.65a16.57,16.57,0,0,1-.39,1.62,15.11,15.11,0,0,1-.5,1.6,12.46,12.46,0,0,1-.77,1.48,10,10,0,0,1-1,1.36,7.77,7.77,0,0,1-1.14,1.22,5.65,5.65,0,0,1-1.47.8,4.57,4.57,0,0,1-3.26,0,5.57,5.57,0,0,1-1.44-.82,7.54,7.54,0,0,1-1.2-1.15,10.14,10.14,0,0,1-.92-1.39,12.32,12.32,0,0,1-.8-1.47,14.86,14.86,0,0,1-.56-1.58c-.15-.52-.26-1.07-.36-1.63s-.18-1.09-.23-1.66,0-1.11,0-1.67,0-1.13,0-1.67.14-1.12.24-1.66a16.64,16.64,0,0,1,.39-1.62,14.87,14.87,0,0,1,.54-1.58,12.55,12.55,0,0,1,.74-1.5,9.92,9.92,0,0,1,1-1.35,7.51,7.51,0,0,1,1.19-1.16,5.67,5.67,0,0,1,1.41-.88,4.59,4.59,0,0,1,1.64-.25,10.93,10.93,0,0,1,1.74.1,5.87,5.87,0,0,1,1.66.52,4.71,4.71,0,0,1,1.42,1,6.19,6.19,0,0,1,1,1.46,9.48,9.48,0,0,1,.68,1.61,15.68,15.68,0,0,1,.38,1.71c.09.54.17,1.12.23,1.74s0,1.13.07,1.75S221.86,179.67,221.86,180.29Z"/><path class="cls-5" d="M206.92,178.29c.34.93.84-.08,1.79-.72a4.83,4.83,0,0,0,1.4-1.4,6.22,6.22,0,0,0,.75-1.85,10.12,10.12,0,0,0,2-.31,7.13,7.13,0,0,0,1.81-.79c1-.65.51-1,1.43-1.33.74-.27.62.34,1.51.49a5.33,5.33,0,0,0,1.58,0,4.1,4.1,0,0,0,1.49-.51,3.89,3.89,0,0,0,1.39-1.25c.59-.93,1.1-1.12.46-1.81s-.68-.33-1.34-.68l-1.32-.73c-.66-.36-.57-.67-1.32-.73s-.8.23-1.6.48l-1.58.5c-.79.24-.79.27-1.58.52l-1.59.48c-.8.24-.9,0-1.61.45s-.48.59-1,1.15-.53.54-1,1.1-.73.42-1,1.12c-.36.9-.08,1-.18,1.94a9.94,9.94,0,0,1-.2,1.94C206.88,177.33,206.59,177.37,206.92,178.29Z"/><path class="cls-26" d="M214.38,182.86a2,2,0,0,1-1.07-.24,2.74,2.74,0,0,1-.47-.28,2.94,2.94,0,0,1-.41-.36,2.65,2.65,0,0,1-.57-.87l0,0a3.59,3.59,0,0,1-.19-.5,3.69,3.69,0,0,1-.11-.52,3.87,3.87,0,0,1,0-.53,3.94,3.94,0,0,1,0-.53,3.86,3.86,0,0,1,.12-.52,3.65,3.65,0,0,1,.19-.5,3.4,3.4,0,0,1,.25-.48,2.64,2.64,0,0,1,.3-.36l.05-.05a3,3,0,0,1,.4-.38,2.76,2.76,0,0,1,.48-.28,2.57,2.57,0,0,1,2.16,0,2.69,2.69,0,0,1,.47.3,2.94,2.94,0,0,1,.42.35,3.24,3.24,0,0,1,.33.43,3.44,3.44,0,0,1,.26.47,3.59,3.59,0,0,1,.19.5,3.7,3.7,0,0,1,.12.52,3.49,3.49,0,0,1,0,1.07,3.77,3.77,0,0,1-.12.52l0,.06a3.09,3.09,0,0,1-.15.45,3.44,3.44,0,0,1-.27.47,3.23,3.23,0,0,1-.33.43,3,3,0,0,1-.4.37,2.76,2.76,0,0,1-.48.27,2.57,2.57,0,0,1-.53.18A2.52,2.52,0,0,1,214.38,182.86Zm0-6.1a1.94,1.94,0,0,0-.43,0,2,2,0,0,0-.41.14,2.15,2.15,0,0,0-.38.22,2.39,2.39,0,0,0-.31.3l-.06.06a2.16,2.16,0,0,0-.24.28,2.86,2.86,0,0,0-.2.38,3.23,3.23,0,0,0-.17.44,3.2,3.2,0,0,0-.09,1.35,3.16,3.16,0,0,0,.1.44,3.1,3.1,0,0,0,.16.42l0,0a2.73,2.73,0,0,0,.19.37,2.66,2.66,0,0,0,.28.35,2.36,2.36,0,0,0,.33.29,2.15,2.15,0,0,0,.37.22,2.06,2.06,0,0,0,.4.16,2,2,0,0,0,.43,0,1.94,1.94,0,0,0,.42,0,2,2,0,0,0,.41-.14,2.2,2.2,0,0,0,.38-.21,2.4,2.4,0,0,0,.32-.3,2.66,2.66,0,0,0,.27-.35,2.91,2.91,0,0,0,.22-.39,2.63,2.63,0,0,0,.12-.37l0-.06a3.28,3.28,0,0,0,.1-.44,3.38,3.38,0,0,0,0-.45,3.3,3.3,0,0,0,0-.45,3.17,3.17,0,0,0-.1-.43,3,3,0,0,0-.16-.43,2.93,2.93,0,0,0-.21-.39,2.69,2.69,0,0,0-.27-.36,2.44,2.44,0,0,0-.34-.28,2.19,2.19,0,0,0-.36-.24,2,2,0,0,0-.41-.14A1.93,1.93,0,0,0,214.38,176.76Z"/><path class="cls-26" d="M221.1,182.87a2.51,2.51,0,0,1-.55-.07,2.59,2.59,0,0,1-.53-.17,2.72,2.72,0,0,1-.47-.29,3,3,0,0,1-.42-.36,2.85,2.85,0,0,1-.3-.4l0,0a3.38,3.38,0,0,1-.26-.47,3.59,3.59,0,0,1-.19-.5,3.76,3.76,0,0,1-.12-.52,4.89,4.89,0,0,1,0-1.07,3.73,3.73,0,0,1,.12-.52,3.58,3.58,0,0,1,.18-.5,3.37,3.37,0,0,1,.27-.47,3.23,3.23,0,0,1,.33-.43,3,3,0,0,1,.4-.37,2.81,2.81,0,0,1,.47-.29,2.6,2.6,0,0,1,1.64-.18,2.56,2.56,0,0,1,.52.19,2.76,2.76,0,0,1,.48.27,3,3,0,0,1,.4.37,3.2,3.2,0,0,1,.34.42,3.44,3.44,0,0,1,.25.48,3.57,3.57,0,0,1,.2.5,3.72,3.72,0,0,1,.12.52,2.64,2.64,0,0,1,0,.41v.12a3.92,3.92,0,0,1,0,.53,3.78,3.78,0,0,1-.1.52,3.65,3.65,0,0,1-.18.51,3.37,3.37,0,0,1-.27.47,3.22,3.22,0,0,1-.32.43,3,3,0,0,1-.42.35,2.73,2.73,0,0,1-.47.29,2.59,2.59,0,0,1-.53.18A2.54,2.54,0,0,1,221.1,182.87Zm0-6.12a2,2,0,0,0-.42.06,2.07,2.07,0,0,0-.41.12,2.21,2.21,0,0,0-.37.23,2.38,2.38,0,0,0-.32.3,2.66,2.66,0,0,0-.27.35,2.78,2.78,0,0,0-.22.39,3,3,0,0,0-.15.42,3.28,3.28,0,0,0-.1.44,3.41,3.41,0,0,0,0,.45,3.36,3.36,0,0,0,0,.45,3.26,3.26,0,0,0,.1.44,3.06,3.06,0,0,0,.16.42,2.79,2.79,0,0,0,.22.39l0,0a2.39,2.39,0,0,0,.24.32,2.44,2.44,0,0,0,.34.28,2.25,2.25,0,0,0,.37.23,2.06,2.06,0,0,0,.41.13,1.84,1.84,0,0,0,.85,0,2,2,0,0,0,.41-.14,2.22,2.22,0,0,0,.37-.23,2.43,2.43,0,0,0,.34-.28,2.71,2.71,0,0,0,.26-.36,2.89,2.89,0,0,0,.23-.39,3.14,3.14,0,0,0,.15-.43,3.27,3.27,0,0,0,.09-.44,3.35,3.35,0,0,0,0-.45v-.13a2.19,2.19,0,0,0,0-.32,3.26,3.26,0,0,0-.1-.44,3.08,3.08,0,0,0-.17-.42,2.94,2.94,0,0,0-.21-.4,2.64,2.64,0,0,0-.28-.34,2.45,2.45,0,0,0-.32-.3,2.22,2.22,0,0,0-.38-.21,2,2,0,0,0-.4-.15A2,2,0,0,0,221.1,176.75Z"/><path class="cls-14" d="M212.78,186.73a.89.89,0,0,1,.18.11.57.57,0,0,0,.15.09l.16.07.16,0c.13,0,.25.11.34.12a2.85,2.85,0,0,0,.31.09l.35.09.3.06.34.06.34,0,.33.05.18,0,.15,0,.17,0h.16l.37,0,.34,0c.09,0,.23,0,.36,0h.35l.18,0,.21,0-.11.17a1,1,0,0,1-.14.17l-.16.14-.19.11a2.2,2.2,0,0,1-.36.19,3.14,3.14,0,0,1-.39.13l-.38.08-.22,0-.2,0h-.42l-.4,0-.18,0-.21,0-.38-.11a3.15,3.15,0,0,1-.4-.17c-.14-.08-.21-.13-.34-.21a2.13,2.13,0,0,1-.34-.27,2,2,0,0,1-.27-.31l-.13-.17a1.32,1.32,0,0,1-.1-.19.77.77,0,0,1-.07-.22A1.57,1.57,0,0,0,212.78,186.73Z"/><path class="cls-12" d="M208.11,181.51a1.54,1.54,0,0,1-1.25-.71,2.63,2.63,0,0,1,0-2.84,1.54,1.54,0,0,1,1.25-.72c.24,1-.07,1.07,0,2.14A4.79,4.79,0,0,1,208.11,181.51Z"/><ellipse class="cls-30" cx="207.96" cy="179.52" rx="0.46" ry="0.61"/><path class="cls-30" d="M207.81,178.91c-.61,0-.61,0-.61.92s-.19,1.35.61,2.14c.15.15.3-.09.3-.31,0-.79-.3-.31-.3-1.53"/><path class="cls-30" d="M221,212.89h0a.82.82,0,0,0-.16-.1,1,1,0,0,1-.27-.18l-.11-.09-.28-.24-.2-.2-.16-.16a1.13,1.13,0,0,1-.16-.21,1.23,1.23,0,0,0-.15-.2l-.18-.2-.16-.17a1,1,0,0,0-.18-.14,1.16,1.16,0,0,1-.23-.18l-.12-.13-.22-.25-.17-.22L218,210a1.37,1.37,0,0,1-.14-.23,1.38,1.38,0,0,0-.13-.21,1,1,0,0,0-.17-.15,1.14,1.14,0,0,1-.21-.19l-.19-.25-.11-.16-.17-.23-.13-.18c-.05-.07-.1-.15-.14-.23l-.13-.2a1.32,1.32,0,0,0-.16-.17,1.43,1.43,0,0,1-.18-.21l-.14-.23-.12-.2a1,1,0,0,1-.11-.26.92.92,0,0,0-.09-.22,1.07,1.07,0,0,0-.15-.17,1.18,1.18,0,0,1-.18-.21l-.13-.24-.12-.21-.13-.24-.11-.21a2,2,0,0,1-.11-.24,2,2,0,0,0-.1-.22l-.2-.36,0-.09a.94.94,0,0,0-.14-.18,1.08,1.08,0,0,1-.17-.22,1.46,1.46,0,0,1-.1-.25,1.39,1.39,0,0,0-.08-.23l-.16-.33-.06-.13-.14-.28-.08-.18-.09-.18-.13-.28a1.21,1.21,0,0,0-.13-.2,1,1,0,0,1-.22-.5,1.23,1.23,0,0,0-.07-.23l-.1-.26-.09-.22-.09-.21-.11-.25a1.5,1.5,0,0,0-.11-.21,1.61,1.61,0,0,1-.13-.24,1.94,1.94,0,0,1-.08-.26,1.89,1.89,0,0,0-.07-.23,1.91,1.91,0,0,1-.07-.26,1.87,1.87,0,0,0-.06-.23l-.09-.22c0-.08-.07-.17-.1-.25a.92.92,0,0,0-.12-.2,1,1,0,0,1-.14-.25,2.34,2.34,0,0,1-.07-.26,2.4,2.4,0,0,0-.06-.23,2.1,2.1,0,0,0-.09-.22,2.2,2.2,0,0,1-.1-.25,1,1,0,0,1,0-.28.94.94,0,0,0,0-.24,1.29,1.29,0,0,0-.1-.22,1.37,1.37,0,0,1-.11-.25c0-.09,0-.17-.06-.26s0-.16-.06-.23a1.32,1.32,0,0,1,0-.27,1.26,1.26,0,0,0,0-.24,1.53,1.53,0,0,0-.09-.22,1.62,1.62,0,0,1-.1-.25l-.06-.22-.08-.27a2.19,2.19,0,0,1,0-.26,2.16,2.16,0,0,0,0-.24c0-.09,0-.17-.06-.26l0-.23a1,1,0,0,0-.09-.22,1.13,1.13,0,0,1-.11-.26c0-.09,0-.17,0-.26s0-.16,0-.24l-.06-.23c0-.09,0-.17-.06-.26l0-.22-.06-.28,0-.23-.06-.27a1.67,1.67,0,0,1,0-.27,1.58,1.58,0,0,0,0-.24,2.24,2.24,0,0,0-.06-.23,2.32,2.32,0,0,1-.07-.26c0-.09,0-.18,0-.27s0-.16,0-.24a1.76,1.76,0,0,0-.06-.23,1.87,1.87,0,0,1-.07-.26c0-.09,0-.18,0-.26s0-.16,0-.24,0-.18,0-.27,0-.16,0-.24a1.48,1.48,0,0,1,0-.27,1.37,1.37,0,0,0,0-.24.91.91,0,0,0-.08-.23,1,1,0,0,1-.08-.25,1.76,1.76,0,0,1,0-.27,1.5,1.5,0,0,0,0-.23,1.66,1.66,0,0,0-.06-.24,1.71,1.71,0,0,1-.06-.24,1.92,1.92,0,0,1,0-.26,1.6,1.6,0,0,0,0-.23c0-.09,0-.17-.06-.26s0-.15-.05-.23l-.1-.49c0-.08,0-.17,0-.24s0-.17,0-.24a2,2,0,0,0-.08-.26,2,2,0,0,1-.07-.21,1.82,1.82,0,0,1,0-.28,1.27,1.27,0,0,0,0-.22,1.87,1.87,0,0,0-.11-.28,1.68,1.68,0,0,1-.07-.18A1.08,1.08,0,0,1,208,182a.39.39,0,0,0-.06-.18.07.07,0,0,1,0-.1.07.07,0,0,1,.1,0,.52.52,0,0,1,.07.23,1,1,0,0,0,.06.26,1.59,1.59,0,0,0,.07.16,2,2,0,0,1,.12.3,1.38,1.38,0,0,1,0,.24,1.72,1.72,0,0,0,0,.25,1.93,1.93,0,0,0,.07.2,2.12,2.12,0,0,1,.09.28c0,.08,0,.17,0,.25s0,.16,0,.24l.1.49c0,.07,0,.14.05.22s0,.18.06.27a1.75,1.75,0,0,1,0,.26,1.81,1.81,0,0,0,0,.24,1.59,1.59,0,0,0,.06.22,1.78,1.78,0,0,1,.07.27,1.61,1.61,0,0,1,0,.26,1.63,1.63,0,0,0,0,.24.89.89,0,0,0,.07.21,1,1,0,0,1,.09.27,1.54,1.54,0,0,1,0,.27,1.3,1.3,0,0,0,0,.24c0,.08,0,.17,0,.25s0,.17,0,.26,0,.17,0,.26,0,.17,0,.25a1.75,1.75,0,0,0,.06.24,1.88,1.88,0,0,1,.07.25c0,.08,0,.16,0,.24s0,.18,0,.26a2.29,2.29,0,0,0,.06.24,2.41,2.41,0,0,1,.06.25,1.71,1.71,0,0,1,0,.26,1.48,1.48,0,0,0,0,.25l.06.27,0,.23.06.28,0,.22c0,.09,0,.17.06.26s0,.16.06.24,0,.17,0,.25,0,.17,0,.25a1,1,0,0,0,.09.22,1.13,1.13,0,0,1,.1.25c0,.08,0,.16.05.24s0,.17.05.26a2.34,2.34,0,0,1,0,.25,2,2,0,0,0,0,.25l.07.27.06.22a1.54,1.54,0,0,0,.09.23,1.67,1.67,0,0,1,.09.24,1.37,1.37,0,0,1,0,.27,1.22,1.22,0,0,0,0,.24c0,.08,0,.16.06.24s0,.17.06.25a1.28,1.28,0,0,0,.1.23,1.4,1.4,0,0,1,.11.24,1.06,1.06,0,0,1,0,.27.91.91,0,0,0,0,.24,2,2,0,0,0,.1.23,2.28,2.28,0,0,1,.1.23,2.48,2.48,0,0,1,.06.25,2.2,2.2,0,0,0,.06.24.92.92,0,0,0,.12.21,1,1,0,0,1,.13.24c0,.08.06.16.1.24l.09.22a2,2,0,0,1,.07.25,1.78,1.78,0,0,0,.07.24,2,2,0,0,1,.07.25,1.81,1.81,0,0,0,.07.24,1.48,1.48,0,0,0,.12.22,1.64,1.64,0,0,1,.12.23l.11.25.1.21.09.22.1.25a1.36,1.36,0,0,1,.07.26,1.15,1.15,0,0,0,.07.23,1.18,1.18,0,0,0,.13.21,1.34,1.34,0,0,1,.14.22l.13.27.09.18.08.18.13.28.06.13.16.33a1.53,1.53,0,0,1,.09.25,1.33,1.33,0,0,0,.09.23,1,1,0,0,0,.15.19,1.08,1.08,0,0,1,.17.21l0,.09.2.36a2.11,2.11,0,0,1,.11.23,1.86,1.86,0,0,0,.1.23l.12.21.13.23.12.21.13.23a1.06,1.06,0,0,0,.16.19,1.18,1.18,0,0,1,.17.2,1,1,0,0,1,.11.26.87.87,0,0,0,.09.22l.13.21.14.22a1.3,1.3,0,0,0,.17.19,1.49,1.49,0,0,1,.17.19l.13.21.14.22.13.18.16.23.12.16.19.25a1,1,0,0,0,.18.17,1.14,1.14,0,0,1,.19.18,1.49,1.49,0,0,1,.14.23,1.23,1.23,0,0,0,.13.2l.15.19.17.21.22.24.12.13a1.06,1.06,0,0,0,.2.16,1.13,1.13,0,0,1,.2.16l.16.18.18.2a1.33,1.33,0,0,1,.17.23,1,1,0,0,0,.14.18l.16.16.2.19.28.24.11.09a.88.88,0,0,0,.24.16.94.94,0,0,1,.19.11.07.07,0,0,1,0,.13Z"/><path class="cls-5" d="M239.77,228.45c-.89,0-.89-.09-1.77-.09s-.89.07-1.77.07-.89,0-1.78,0-.89-.07-1.77-.07-.88.06-1.77.06-.89,0-1.78,0-.89.05-1.77.05h-1.78c-.89,0-.89-.07-1.78-.07s-.89,0-1.77,0-.89,0-1.78,0-.89,0-1.78,0h-1.78a1.43,1.43,0,0,1-1.27-1.67c.13-.83.2-.82.33-1.64l.25-1.66c.13-.83.15-.83.27-1.65s.08-.84.2-1.67.11-.83.23-1.66.21-.82.33-1.65.08-.84.21-1.67.15-.83.28-1.66.08-.84.21-1.67a1.29,1.29,0,0,1,1.24-1.13c.89,0,.89,0,1.77,0s.89,0,1.77,0,.89.08,1.78.08.89-.06,1.77-.06h1.77c.89,0,.89.06,1.78.06s.89-.09,1.77-.09.89.08,1.78.08.89,0,1.78,0,.89.05,1.77.05.89-.06,1.78-.06.89,0,1.78,0,.89,0,1.78,0a1.39,1.39,0,0,1,1.26,1.64c-.13.83-.15.82-.27,1.65s-.1.83-.23,1.66-.2.82-.33,1.65-.12.83-.25,1.66-.15.83-.28,1.66-.09.84-.21,1.67-.16.83-.29,1.66-.05.84-.18,1.68-.15.83-.27,1.66A1.34,1.34,0,0,1,239.77,228.45Z"/><path class="cls-31" d="M231,219.81a4,4,0,0,1-.63,1.64,1.35,1.35,0,0,1-2.59-.39,4.12,4.12,0,0,1,.5-3.4,1.35,1.35,0,0,1,2.6.4A3.94,3.94,0,0,1,231,219.81Z"/><path class="cls-12" d="M214.31,217.87c.59-.39.58-.41,1.17-.8s.6-.37,1.19-.76a3.24,3.24,0,0,1,1.33-.53l2.44-.36a.59.59,0,0,1,.6.85h0a.55.55,0,0,1-.35.28c-.7.21-.69.25-1.4.46s-.78,0-1.42.4-1.35.45-.92.93.71-.19,1.42-.37.71-.16,1.42-.33a.44.44,0,0,1,.52.58c-.32.83-.33.82-.65,1.65s-.33.82-.66,1.65a4.15,4.15,0,0,1-1.82,2.12c-.68.38-1,.07-1.35.75-.6,1.11.18,1.37-.39,2.5-.42.83-.88,0-1.83-.3a4.17,4.17,0,0,1-1.63-.84,2.5,2.5,0,0,1-.83-1.62,5.34,5.34,0,0,1,.14-1.89,6.49,6.49,0,0,1,.73-1.74,13.42,13.42,0,0,1,1.11-1.54A5.19,5.19,0,0,1,214.31,217.87Z"/><path class="cls-12" d="M240.81,215c.67-.06.59.32,1.16.66s.56.37,1.14.72a1.52,1.52,0,0,1,.74,1.3,2.79,2.79,0,0,1,0,.66c-.1.62-.26.59-.32,1.22a12.91,12.91,0,0,0,0,1.89,3.82,3.82,0,0,1-1,2.55c-.64.69-.36,1.57-1.28,1.36s.12-.79.25-1.59.39-.81.23-1.61-.66-.54-1.27-1.16a2.67,2.67,0,0,1-.89-1.44A5.84,5.84,0,0,1,240,218c.26-.78.89-.77.55-1.5S239.59,215.9,240.81,215Z"/><path class="cls-30" d="M218.06,210l0,0a.19.19,0,0,0,0-.27l-.75-1a.19.19,0,0,0-.27,0l0,0a.2.2,0,0,0,0,.27l.76,1A.19.19,0,0,0,218.06,210Z"/></g><circle class="cls-10" cx="211.78" cy="181.51" r="29.19"/><rect class="cls-6" x="27.58" y="197.31" width="36" height="24.34" rx="12" ry="12"/><line class="cls-10" x1="37.42" y1="206.64" x2="53.75" y2="206.64"/><line class="cls-10" x1="37.42" y1="212.26" x2="46.08" y2="212.26"/></g></svg>