<svg xmlns="http://www.w3.org/2000/svg" viewBox="0 0 250 250"><defs><style>.cls-1{fill:#f8f8f8;}.cls-2{fill:#fff;}.cls-3{fill:none;stroke:#3e82f7;stroke-miterlimit:10;stroke-width:3px;}.cls-4{fill:#3e82f7;}</style></defs><title>icon-flash-share</title><g id="Base_Dots" data-name="Base Dots"><circle class="cls-1" cx="125" cy="125" r="100"/></g><g id="Artwork"><polygon class="cls-2" points="188.91 189.8 190.2 188.46 191.59 187.24 192.68 185.74 193.45 184.06 194.19 182.38 194.68 180.61 194.86 178.78 194.97 176.95 194.85 175.1 194.31 173.32 193.81 171.53 192.8 169.97 191.92 168.34 190.62 167.01 189.23 165.78 187.76 164.64 186.09 163.82 184.35 163.21 182.54 162.83 180.7 162.73 178.85 162.68 177.03 163.01 175.24 163.48 173.42 163.94 171.9 165.05 170.37 166.1 169.09 167.45 167.83 168.82 166.89 170.42 165.98 172.05 165.38 173.83 165.25 175.7 164.97 177.54 164.98 179.32 165.39 181.05 165.87 182.75 166.74 184.3 167.66 185.78 168.59 187.28 169.86 188.5 171.17 189.69 170.89 191.41 169.27 192.09 167.65 192.75 166.11 193.59 164.55 194.38 163.03 195.25 161.64 196.34 160.2 197.35 158.9 198.53 157.71 199.84 156.67 201.26 155.6 202.64 154.44 203.99 153.76 205.62 152.75 207.09 152.11 208.73 151.46 210.36 150.95 212.06 149.4 212.32 148.28 211 147.1 209.72 145.88 208.49 144.51 207.43 143.21 206.31 141.82 205.28 140.42 204.25 138.88 203.47 137.42 202.5 135.76 201.97 134.15 201.3 133.76 199.59 135.26 198.52 136.47 197.14 137.6 195.69 138.4 194.03 139.11 192.35 139.64 190.6 139.81 188.78 139.84 186.95 139.72 185.12 139.36 183.31 138.84 181.52 137.76 180 136.76 178.46 135.5 177.13 134.32 175.67 132.66 174.81 131.13 173.75 129.32 173.3 127.55 172.77 125.72 172.44 123.86 172.76 122.02 172.95 120.15 173.2 118.49 174.09 116.78 174.86 115.31 176.03 113.93 177.3 112.68 178.71 111.73 180.33 111.03 182.07 110.38 183.83 110.26 185.7 110.16 187.54 109.98 189.32 110.42 191.04 111 192.71 111.59 194.37 112.41 195.95 113.67 197.21 114.73 198.64 116.11 199.76 115.91 201.5 114.3 202.12 112.7 202.77 111.12 203.47 109.57 204.24 108.13 205.21 106.74 206.24 105.43 207.37 104.22 208.6 102.85 209.68 101.8 211.06 100.62 212.34 98.91 212.09 98.54 210.37 97.78 208.77 97.03 207.19 96.25 205.62 95.54 204 94.48 202.59 93.47 201.15 92.23 199.89 91.09 198.54 89.77 197.38 88.33 196.38 86.96 195.27 85.52 194.27 83.93 193.52 82.33 192.79 80.71 192.14 79.09 191.48 78.84 189.7 80.14 188.4 81.58 187.23 82.62 185.71 83.58 184.12 84.28 182.41 84.63 180.6 85.04 178.79 84.92 176.95 84.92 175.09 84.45 173.28 83.87 171.51 82.95 169.88 81.73 168.49 80.71 166.92 79.19 165.83 77.72 164.71 76.03 163.98 74.31 163.33 72.55 162.75 70.71 162.53 68.84 162.48 66.96 162.69 65.15 163.2 63.46 164.03 61.85 164.98 60.39 166.12 59.05 167.41 57.88 168.85 56.71 170.32 56.16 172.12 55.33 173.81 54.96 175.66 54.92 177.54 55.19 179.3 55.52 181.02 55.97 182.72 56.5 184.42 57.42 185.95 58.51 187.35 59.85 188.52 61.22 189.62 60.93 191.53 59.22 192.08 57.5 192.64 55.95 193.58 54.36 194.44 52.87 195.44 51.32 196.39 49.9 197.51 48.72 198.89 47.41 200.13 46.3 201.56 45.39 203.13 44.19 204.49 43.48 206.16 42.71 207.79 41.8 209.36 41.48 211.16 40.9 212.86 40.44 214.61 40.18 216.4 40.08 218.2 39.88 220 40 221.66 40.06 223.33 40.06 224.99 40.06 226.66 39.9 228.33 39.91 230.09 41.77 229.85 43.55 230.11 45.32 230.16 47.09 229.97 48.85 230.13 50.62 230.04 52.39 229.97 54.17 229.96 55.94 230.16 57.71 229.99 59.48 229.91 61.25 230.01 63.03 229.96 64.8 230 66.58 230.04 68.35 229.87 70.13 230.12 71.9 229.86 73.67 230.13 75.45 230.11 77.23 229.86 79 230.05 80.77 229.85 82.55 229.99 84.32 230 86.1 229.87 87.88 230.02 89.65 230 91.43 229.94 93.22 229.95 95 229.93 96.67 230.16 98.33 230.07 100 229.91 101.78 229.95 103.56 230.1 105.34 230.16 107.12 230 108.91 229.91 110.69 230.09 112.47 230.01 114.25 229.92 116.04 230.02 117.82 229.92 119.61 230 121.39 229.95 123.18 229.85 124.97 229.91 126.75 230.15 128.54 229.84 130.32 230.08 132.11 229.98 133.9 229.91 135.68 230 137.47 230.07 139.25 229.88 141.04 230.14 142.83 230.16 144.62 229.95 146.41 230.09 148.21 229.9 150 229.9 151.66 229.97 153.33 229.86 155 230.1 156.77 230.07 158.55 230.01 160.32 229.9 162.09 229.88 163.85 229.88 165.62 230.13 167.39 229.95 169.17 229.91 170.94 230.03 172.71 229.98 174.48 230.08 176.25 229.85 178.03 230.06 179.8 230.04 181.57 229.83 183.35 229.87 185.13 230.11 186.9 230.1 188.67 230.11 190.45 229.84 192.23 229.85 194 230.16 195.77 230.09 197.55 229.92 199.32 230.1 201.1 230.16 202.88 230.05 204.65 229.98 206.43 230.03 208.22 229.84 210.03 230.03 209.97 228.34 209.87 226.67 209.98 225.01 209.9 223.34 210.05 221.67 210.05 220 209.94 218.2 209.77 216.4 209.44 214.63 209.13 212.86 208.61 211.13 208.06 209.41 207.5 207.69 206.61 206.12 205.69 204.57 204.75 203.03 203.67 201.59 202.51 200.2 201.37 198.8 199.91 197.72 198.61 196.46 197.1 195.48 195.67 194.38 194.15 193.4 192.45 192.75 190.79 192.07 189.09 191.47 188.91 189.8"/><polygon class="cls-3" points="188.91 189.8 190.2 188.46 191.59 187.24 192.68 185.74 193.45 184.06 194.19 182.38 194.68 180.61 194.86 178.78 194.97 176.95 194.85 175.1 194.31 173.32 193.81 171.53 192.8 169.97 191.92 168.34 190.62 167.01 189.23 165.78 187.76 164.64 186.09 163.82 184.35 163.21 182.54 162.83 180.7 162.73 178.85 162.68 177.03 163.01 175.24 163.48 173.42 163.94 171.9 165.05 170.37 166.1 169.09 167.45 167.83 168.82 166.89 170.42 165.98 172.05 165.38 173.83 165.25 175.7 164.97 177.54 164.98 179.32 165.39 181.05 165.87 182.75 166.74 184.3 167.66 185.78 168.59 187.28 169.86 188.5 171.17 189.69 170.89 191.41 169.27 192.09 167.65 192.75 166.11 193.59 164.55 194.38 163.03 195.25 161.64 196.34 160.2 197.35 158.9 198.53 157.71 199.84 156.67 201.26 155.6 202.64 154.44 203.99 153.76 205.62 152.75 207.09 152.11 208.73 151.46 210.36 150.95 212.06 149.4 212.32 148.28 211 147.1 209.72 145.88 208.49 144.51 207.43 143.21 206.31 141.82 205.28 140.42 204.25 138.88 203.47 137.42 202.5 135.76 201.97 134.15 201.3 133.76 199.59 135.26 198.52 136.47 197.14 137.6 195.69 138.4 194.03 139.11 192.35 139.64 190.6 139.81 188.78 139.84 186.95 139.72 185.12 139.36 183.31 138.84 181.52 137.76 180 136.76 178.46 135.5 177.13 134.32 175.67 132.66 174.81 131.13 173.75 129.32 173.3 127.55 172.77 125.72 172.44 123.86 172.76 122.02 172.95 120.15 173.2 118.49 174.09 116.78 174.86 115.31 176.03 113.93 177.3 112.68 178.71 111.73 180.33 111.03 182.07 110.38 183.83 110.26 185.7 110.16 187.54 109.98 189.32 110.42 191.04 111 192.71 111.59 194.37 112.41 195.95 113.67 197.21 114.73 198.64 116.11 199.76 115.91 201.5 114.3 202.12 112.7 202.77 111.12 203.47 109.57 204.24 108.13 205.21 106.74 206.24 105.43 207.37 104.22 208.6 102.85 209.68 101.8 211.06 100.62 212.34 98.91 212.09 98.54 210.37 97.78 208.77 97.03 207.19 96.25 205.62 95.54 204 94.48 202.59 93.47 201.15 92.23 199.89 91.09 198.54 89.77 197.38 88.33 196.38 86.96 195.27 85.52 194.27 83.93 193.52 82.33 192.79 80.71 192.14 79.09 191.48 78.84 189.7 80.14 188.4 81.58 187.23 82.62 185.71 83.58 184.12 84.28 182.41 84.63 180.6 85.04 178.79 84.92 176.95 84.92 175.09 84.45 173.28 83.87 171.51 82.95 169.88 81.73 168.49 80.71 166.92 79.19 165.83 77.72 164.71 76.03 163.98 74.31 163.33 72.55 162.75 70.71 162.53 68.84 162.48 66.96 162.69 65.15 163.2 63.46 164.03 61.85 164.98 60.39 166.12 59.05 167.41 57.88 168.85 56.71 170.32 56.16 172.12 55.33 173.81 54.96 175.66 54.92 177.54 55.19 179.3 55.52 181.02 55.97 182.72 56.5 184.42 57.42 185.95 58.51 187.35 59.85 188.52 61.22 189.62 60.93 191.53 59.22 192.08 57.5 192.64 55.95 193.58 54.36 194.44 52.87 195.44 51.32 196.39 49.9 197.51 48.72 198.89 47.41 200.13 46.3 201.56 45.39 203.13 44.19 204.49 43.48 206.16 42.71 207.79 41.8 209.36 41.48 211.16 40.9 212.86 40.44 214.61 40.18 216.4 40.08 218.2 39.88 220 40 221.66 40.06 223.33 40.06 224.99 40.06 226.66 39.9 228.33 39.91 230.09 41.77 229.85 43.55 230.11 45.32 230.16 47.09 229.97 48.85 230.13 50.62 230.04 52.39 229.97 54.17 229.96 55.94 230.16 57.71 229.99 59.48 229.91 61.25 230.01 63.03 229.96 64.8 230 66.58 230.04 68.35 229.87 70.13 230.12 71.9 229.86 73.67 230.13 75.45 230.11 77.23 229.86 79 230.05 80.77 229.85 82.55 229.99 84.32 230 86.1 229.87 87.88 230.02 89.65 230 91.43 229.94 93.22 229.95 95 229.93 96.67 230.16 98.33 230.07 100 229.91 101.78 229.95 103.56 230.1 105.34 230.16 107.12 230 108.91 229.91 110.69 230.09 112.47 230.01 114.25 229.92 116.04 230.02 117.82 229.92 119.61 230 121.39 229.95 123.18 229.85 124.97 229.91 126.75 230.15 128.54 229.84 130.32 230.08 132.11 229.98 133.9 229.91 135.68 230 137.47 230.07 139.25 229.88 141.04 230.14 142.83 230.16 144.62 229.95 146.41 230.09 148.21 229.9 150 229.9 151.66 229.97 153.33 229.86 155 230.1 156.77 230.07 158.55 230.01 160.32 229.9 162.09 229.88 163.85 229.88 165.62 230.13 167.39 229.95 169.17 229.91 170.94 230.03 172.71 229.98 174.48 230.08 176.25 229.85 178.03 230.06 179.8 230.04 181.57 229.83 183.35 229.87 185.13 230.11 186.9 230.1 188.67 230.11 190.45 229.84 192.23 229.85 194 230.16 195.77 230.09 197.55 229.92 199.32 230.1 201.1 230.16 202.88 230.05 204.65 229.98 206.43 230.03 208.22 229.84 210.03 230.03 209.97 228.34 209.87 226.67 209.98 225.01 209.9 223.34 210.05 221.67 210.05 220 209.94 218.2 209.77 216.4 209.44 214.63 209.13 212.86 208.61 211.13 208.06 209.41 207.5 207.69 206.61 206.12 205.69 204.57 204.75 203.03 203.67 201.59 202.51 200.2 201.37 198.8 199.91 197.72 198.61 196.46 197.1 195.48 195.67 194.38 194.15 193.4 192.45 192.75 190.79 192.07 189.09 191.47 188.91 189.8"/><path class="cls-2" d="M129.93,189.89a4.94,4.94,0,0,1-9.89,0"/><polyline class="cls-3" points="130 189.89 129.8 191.18 129.32 192.39 128.43 193.33 127.41 194.07 126.23 194.52 124.99 194.82 123.73 194.59 122.58 194.06 121.61 193.27 120.6 192.42 120.31 191.14 120.2 189.89"/><path class="cls-2" d="M74.94,180.56a4.94,4.94,0,1,1-9.89,0"/><polyline class="cls-3" points="74.75 180.56 74.86 181.86 74.35 183.07 73.58 184.14 72.56 184.99 71.32 185.49 70 185.61 68.74 185.27 67.45 184.97 66.47 184.08 65.74 183.01 65.19 181.85 65.16 180.56"/><path class="cls-2" d="M184.94,180.56a4.94,4.94,0,0,1-9.89,0"/><polyline class="cls-3" points="184.76 180.56 184.93 181.88 184.36 183.07 183.62 184.18 182.38 184.67 181.32 185.48 180 185.42 178.74 185.27 177.52 184.86 176.64 183.91 175.8 182.98 175.22 181.84 175.12 180.56"/><polyline class="cls-3" points="69.98 154.5 69.89 153.32 69.84 152.15 70.23 150.97 70.05 149.79 70.03 148.61 69.81 147.43 69.9 146.25"/><polyline class="cls-3" points="59.73 156.52 58.83 155.68 58 154.76 57.04 153.98 56.24 153.03 55.32 152.19 54.42 151.33"/><polyline class="cls-3" points="80.06 156.56 80.79 155.63 81.65 154.83 82.54 154.05 83.32 153.16 84.2 152.37 84.98 151.48"/><polyline class="cls-3" points="180.27 154.5 180.11 153.32 180.28 152.15 180.38 150.97 180.02 149.79 180.44 148.61 180.38 147.43 180.27 146.25"/><polyline class="cls-3" points="170.1 156.4 169.15 155.61 168.26 154.75 167.29 153.98 166.6 152.91 165.64 152.12 164.68 151.32"/><polyline class="cls-3" points="190.24 156.49 191.12 155.7 191.83 154.76 192.66 153.92 193.65 153.25 194.47 152.4 195.3 151.55"/><polygon class="cls-2" points="97.31 93.51 95.46 93.26 93.66 92.81 91.87 92.29 90.34 91.23 88.88 90.1 87.54 88.84 86.44 87.36 85.53 85.75 84.78 84.05 84.39 82.23 84.38 80.38 84.41 78.58 84.2 76.79 84.21 75 84.19 73.2 84.44 71.4 84.43 69.61 84.46 67.81 84.2 66.01 84.18 64.22 84.41 62.42 84.31 60.62 84.43 58.82 84.42 57.02 84.43 55.22 84.19 53.42 84.41 51.62 84.29 49.82 84.37 48.02 84.44 46.22 84.16 44.43 84.44 42.62 84.21 40.83 84.46 39.02 84.29 37.22 84.24 35.42 84.22 33.62 84.28 31.81 84.25 30 84.57 28.17 84.84 26.34 85.48 24.6 86.38 22.98 87.49 21.49 88.72 20.09 90.24 18.99 91.89 18.13 93.65 17.54 95.48 17.22 97.31 16.93 99.11 17.01 100.9 17.08 102.69 16.86 104.49 16.99 106.28 17.06 108.08 17.13 109.88 16.96 111.67 17.02 113.47 16.96 115.27 16.97 117.07 17.1 118.87 16.99 120.67 17.03 122.47 16.87 124.26 17.13 126.06 16.85 127.86 16.91 129.66 16.91 131.47 17.14 133.26 17.06 135.06 17.14 136.86 16.88 138.66 17.09 140.47 16.86 142.27 17.02 144.07 16.91 145.88 17.01 147.69 17.15 149.53 17.2 151.36 17.5 153.09 18.17 154.67 19.13 156.28 20.08 157.56 21.44 158.6 22.99 159.5 24.61 160.13 26.35 160.48 28.16 160.61 30 160.57 31.79 160.78 33.59 160.7 35.38 160.64 37.17 160.66 38.97 160.72 40.77 160.54 42.57 160.59 44.36 160.72 46.16 160.59 47.96 160.66 49.76 160.55 51.55 160.81 53.35 160.78 55.15 160.83 56.95 160.77 58.75 160.76 60.55 160.62 62.35 160.8 64.15 160.64 65.95 160.7 67.75 160.68 69.55 160.69 71.35 160.57 73.15 160.55 74.95 160.61 76.76 160.64 78.57 160.59 80.38 160.47 82.21 160.15 84.03 159.64 85.83 158.61 87.4 157.49 88.87 156.24 90.25 154.72 91.32 153.09 92.21 151.37 92.92 149.53 93.22 147.69 93.23 145.89 93.33 144.1 93.38 142.31 93.23 140.51 93.31 138.72 93.5 136.92 93.43 135.12 93.43 133.32 93.39 131.53 93.33 129.73 93.49 127.93 93.5 126.13 93.26 124.33 93.29 122.53 93.3 120.74 93.24 118.94 93.35 117.14 93.36 115.33 93.51 113.53 93.24 111.74 93.36 109.94 93.47 108.14 93.36 106.34 93.46 104.53 93.36 102.73 93.3 100.93 93.52 99.12 93.26 97.31 93.51"/><polygon class="cls-2" points="147.69 90.4 145.89 90.4 144.1 90.44 142.31 90.38 140.51 90.49 138.72 90.4 136.92 90.45 135.12 90.47 133.32 90.38 131.53 90.44 129.73 90.47 127.93 90.24 126.13 90.35 124.33 90.36 122.53 90.48 120.74 90.43 118.94 90.24 117.14 90.44 115.33 90.43 113.53 90.46 111.74 90.5 109.94 90.49 108.14 90.45 106.34 90.33 104.53 90.48 102.73 90.4 100.93 90.35 99.12 90.4 97.31 90.3 95.6 90.1 93.85 89.88 92.28 89.09 90.8 88.13 89.75 86.72 88.56 85.43 87.96 83.78 87.51 82.1 87.3 80.38 87.45 78.58 87.38 76.79 87.31 75 87.36 73.2 87.26 71.4 87.29 69.61 87.27 67.81 87.37 66.01 87.39 64.22 87.42 62.42 87.32 60.62 87.37 58.82 87.41 57.02 87.43 55.22 87.23 53.42 87.39 51.62 87.42 49.82 87.36 48.02 87.42 46.22 87.33 44.43 87.26 42.62 87.36 40.83 87.23 39.02 87.42 37.22 87.44 35.42 87.31 33.62 87.27 31.81 87.45 30 87.37 28.25 87.99 26.61 88.74 25.05 89.61 23.54 90.89 22.34 92.25 21.22 93.94 20.72 95.58 20.16 97.31 20.13 99.11 20.13 100.9 20.04 102.69 19.94 104.49 19.99 106.28 19.88 108.08 19.91 109.88 19.91 111.67 19.89 113.47 20.04 115.27 20.04 117.07 20.04 118.87 20 120.67 19.91 122.47 20.07 124.26 20.03 126.06 20.12 127.86 20.06 129.66 19.88 131.47 20.04 133.26 19.94 135.06 19.97 136.86 20.01 138.66 20.07 140.47 20.14 142.27 20 144.07 19.94 145.88 19.89 147.69 20.03 149.42 20.16 151.12 20.56 152.68 21.36 154.19 22.26 155.42 23.51 156.43 24.95 157.17 26.55 157.59 28.25 157.66 30 157.71 31.79 157.66 33.59 157.75 35.38 157.69 37.17 157.82 38.97 157.79 40.77 157.75 42.57 157.57 44.36 157.56 46.16 157.73 47.96 157.69 49.76 157.56 51.55 157.67 53.35 157.57 55.15 157.79 56.95 157.72 58.75 157.72 60.55 157.66 62.35 157.71 64.15 157.75 65.95 157.66 67.75 157.65 69.55 157.6 71.35 157.81 73.15 157.66 74.95 157.68 76.76 157.55 78.57 157.73 80.38 157.47 82.1 156.97 83.75 156.44 85.43 155.35 86.8 154.17 88.1 152.64 88.96 151.08 89.7 149.43 90.25 147.69 90.4"/><polygon class="cls-4" points="134.29 51.11 132.39 51.07 130.46 51.18 128.52 51.17 126.58 51.17 124.59 51.14 125.24 49.47 125.95 47.89 126.56 46.27 127.24 44.68 127.82 43.05 128.51 41.45 129.06 39.81 129.73 38.21 130.4 36.6 131.14 34.92 129.82 36.28 128.73 37.71 127.51 39.03 126.23 40.3 125.1 41.7 123.84 42.99 122.78 44.45 121.54 45.75 120.35 47.09 119.11 48.39 117.94 49.76 116.77 51.12 115.51 52.42 114.31 53.75 113.08 55.07 112.01 56.53 110.71 57.79 109.52 59.16 111.46 59.27 113.39 59.12 115.33 59.22 117.27 59.26 119.28 59.1 118.56 60.76 117.98 62.39 117.2 63.94 116.56 65.55 116 67.19 115.23 68.75 114.73 70.41 114.14 72.05 113.31 73.58 112.78 75.17 113.96 73.91 115.12 72.53 116.38 71.25 117.62 69.95 118.82 68.62 119.87 67.13 121.07 65.8 122.42 64.59 123.44 63.1 124.71 61.83 125.94 60.51 127.09 59.13 128.26 57.76 129.5 56.45 130.79 55.19 131.86 53.73 133.09 52.41 134.29 51.11"/><polygon class="cls-3" points="147.69 90.38 145.89 90.33 144.1 90.35 142.31 90.41 140.51 90.24 138.72 90.28 136.92 90.41 135.12 90.28 133.32 90.35 131.53 90.25 129.73 90.49 127.93 90.46 126.13 90.51 124.33 90.45 122.53 90.44 120.74 90.31 118.94 90.48 117.14 90.33 115.33 90.38 113.53 90.37 111.74 90.38 109.94 90.27 108.14 90.25 106.34 90.31 104.53 90.33 102.73 90.28 100.93 90.29 99.12 90.36 97.31 90.51 95.58 90.22 93.9 89.75 92.28 89.09 90.88 88.04 89.64 86.81 88.59 85.41 87.94 83.79 87.59 82.09 87.36 80.38 87.31 78.58 87.45 76.79 87.37 75 87.2 73.2 87.26 71.4 87.26 69.61 87.3 67.81 87.36 66.01 87.2 64.22 87.2 62.42 87.42 60.62 87.39 58.82 87.38 57.02 87.44 55.22 87.34 53.42 87.32 51.62 87.19 49.82 87.43 48.02 87.32 46.22 87.23 44.43 87.32 42.62 87.23 40.83 87.33 39.02 87.39 37.22 87.18 35.42 87.42 33.62 87.38 31.81 87.33 30 87.54 28.28 87.86 26.56 88.64 24.99 89.7 23.61 90.88 22.33 92.34 21.38 93.88 20.58 95.57 20.13 97.31 19.94 99.11 19.99 100.9 19.88 102.69 19.98 104.49 19.92 106.28 19.9 108.08 19.99 109.88 19.94 111.67 19.91 113.47 20.13 115.27 20.03 117.07 20.02 118.87 19.89 120.67 19.94 122.47 20.14 124.26 19.94 126.06 19.95 127.86 19.91 129.66 19.87 131.47 19.88 133.26 19.92 135.06 20.05 136.86 19.9 138.66 19.97 140.47 20.02 142.27 19.97 144.07 20.08 145.88 20.13 147.69 19.89 149.44 20.09 151.15 20.48 152.62 21.46 154.19 22.26 155.31 23.61 156.31 25.02 157.1 26.57 157.4 28.29 157.62 30 157.69 31.79 157.64 33.59 157.74 35.38 157.71 37.17 157.73 38.97 157.63 40.77 157.61 42.57 157.58 44.36 157.68 46.16 157.63 47.96 157.59 49.76 157.57 51.55 157.77 53.35 157.61 55.15 157.58 56.95 157.64 58.75 157.58 60.55 157.68 62.35 157.74 64.15 157.64 65.95 157.77 67.75 157.58 69.55 157.56 71.35 157.69 73.15 157.73 74.95 157.55 76.76 157.78 78.57 157.6 80.38 157.44 82.09 157.14 83.82 156.35 85.38 155.45 86.89 154.03 87.94 152.68 89.03 151.06 89.65 149.4 90.09 147.69 90.38"/><polygon class="cls-2" points="140.67 126.07 139.44 127.37 138.17 128.63 136.86 129.86 135.69 131.22 134.39 132.47 133.08 133.69 131.81 134.97 130.53 136.23 129.29 137.48 129.32 135.75 129.34 133.98 129.22 132.21 129.27 130.43 129.3 128.66 129.29 126.89 129.25 125.12 129.36 123.35 129.34 121.58 129.25 119.8 129.34 118.03 129.29 116.25 129.36 114.47 129.2 112.69 128.87 110.95 127.86 109.5 126.41 108.48 124.67 108.13 124.67 108.05 122.93 108.5 121.39 109.42 120.42 110.93 120.05 112.69 120.06 114.47 119.99 116.24 119.98 118.01 120.01 119.78 120.03 121.55 120 123.32 120 125.09 120.05 126.86 120.15 128.64 120.06 130.41 120.04 132.19 120.1 133.96 120.07 135.74 120.06 137.53 118.76 136.29 117.54 134.97 116.32 133.66 115.01 132.43 113.72 131.18 112.52 129.85 111.21 128.62 109.86 127.42 108.61 126.12 107.13 125.13 105.38 124.76 103.6 125.07 102.17 126.15 102.18 126.15 101.06 127.56 100.72 129.35 101.08 131.13 102.06 132.67 103.34 133.85 104.58 135.07 105.87 136.24 106.98 137.59 108.27 138.76 109.55 139.95 110.73 141.23 112.01 142.42 113.2 143.7 114.41 144.96 115.74 146.1 116.86 147.45 118.12 148.68 119.27 149.77 120.58 150.87 122.16 151.53 123.81 151.94 125.53 151.99 127.18 151.56 128.74 150.86 130.05 149.75 131.17 148.63 132.38 147.38 133.64 146.18 134.82 144.89 136.09 143.71 137.29 142.45 138.52 141.21 139.79 140.02 141 138.76 142.22 137.51 143.56 136.38 144.75 135.1 145.98 133.85 147.16 132.56 148.18 131.1 148.65 129.35 148.17 127.6 147.19 126.12 147.17 126.14 145.69 125.17 143.96 124.82 142.21 125.14 140.67 126.07"/><polygon class="cls-3" points="140.67 126.07 139.44 127.37 138.17 128.63 136.86 129.86 135.69 131.22 134.39 132.47 133.08 133.69 131.81 134.97 130.53 136.23 129.29 137.48 129.32 135.75 129.34 133.98 129.22 132.21 129.27 130.43 129.3 128.66 129.29 126.89 129.25 125.12 129.36 123.35 129.34 121.58 129.25 119.8 129.34 118.03 129.29 116.25 129.36 114.47 129.2 112.69 128.87 110.95 127.86 109.5 126.41 108.48 124.67 108.13 124.67 108.05 122.93 108.5 121.39 109.42 120.42 110.93 120.05 112.69 120.06 114.47 119.99 116.24 119.98 118.01 120.01 119.78 120.03 121.55 120 123.32 120 125.09 120.05 126.86 120.15 128.64 120.06 130.41 120.04 132.19 120.1 133.96 120.07 135.74 120.06 137.53 118.76 136.29 117.54 134.97 116.32 133.66 115.01 132.43 113.72 131.18 112.52 129.85 111.21 128.62 109.86 127.42 108.61 126.12 107.13 125.13 105.38 124.76 103.6 125.07 102.17 126.15 102.18 126.15 101.06 127.56 100.72 129.35 101.08 131.13 102.06 132.67 103.34 133.85 104.58 135.07 105.87 136.24 106.98 137.59 108.27 138.76 109.55 139.95 110.73 141.23 112.01 142.42 113.2 143.7 114.41 144.96 115.74 146.1 116.86 147.45 118.12 148.68 119.27 149.77 120.58 150.87 122.16 151.53 123.81 151.94 125.53 151.99 127.18 151.56 128.74 150.86 130.05 149.75 131.17 148.63 132.38 147.38 133.64 146.18 134.82 144.89 136.09 143.71 137.29 142.45 138.52 141.21 139.79 140.02 141 138.76 142.22 137.51 143.56 136.38 144.75 135.1 145.98 133.85 147.16 132.56 148.18 131.1 148.65 129.35 148.17 127.6 147.19 126.12 147.17 126.14 145.69 125.17 143.96 124.82 142.21 125.14 140.67 126.07"/></g></svg>
