<svg xmlns="http://www.w3.org/2000/svg" viewBox="0 0 250 250"><defs><style>.cls-1{fill:#f8f8f8;}.cls-10,.cls-2,.cls-7,.cls-9{fill:none;stroke-miterlimit:10;}.cls-10,.cls-2{stroke:#3e82f7;}.cls-2,.cls-7{stroke-width:3px;}.cls-3{fill:#fff;}.cls-4{fill:#fadc2d;}.cls-5{fill:#ff852d;}.cls-6{fill:#3e82f7;}.cls-7,.cls-9{stroke:#f37f82;}.cls-8{fill:#2dd6a5;}.cls-10{stroke-width:0.25px;}</style></defs><title>icon-analyze-livereports</title><g id="Base_Dots" data-name="Base Dots"><circle class="cls-1" cx="125" cy="125" r="100"/></g><g id="Artwork"><polyline class="cls-2" points="40.77 78 40.77 184.41 160.86 184.41"/><polygon class="cls-3" points="63.82 179.32 63.78 177.51 63.49 175.72 63.15 173.95 62.65 172.21 62.05 170.51 61.28 168.87 60.44 167.27 59.45 165.75 58.3 164.35 56.99 163.1 55.71 161.83 54.24 160.78 52.77 159.74 51.25 158.76 49.55 158.12 47.9 157.4 46.13 157.02 44.37 156.63 42.58 156.38 40.77 156.34 38.97 156.4 37.17 156.62 35.39 156.9 33.67 157.47 31.93 157.99 30.31 158.79 28.78 159.76 27.21 160.66 25.81 161.81 24.55 163.1 23.33 164.43 22.09 165.75 21.08 167.26 20.2 168.84 19.51 170.52 18.87 172.21 18.48 173.97 18.04 175.72 17.76 177.51 17.8 179.32 17.82 181.13 18.13 182.91 18.37 184.71 18.84 186.45 19.52 188.13 20.23 189.79 21.23 191.3 22.21 192.81 23.22 194.32 24.56 195.54 25.8 196.86 27.29 197.88 28.79 198.88 30.32 199.84 31.96 200.6 33.66 201.23 35.39 201.74 37.18 202.03 38.96 202.31 40.77 202.32 42.58 202.25 44.36 201.97 46.15 201.71 47.9 201.24 49.6 200.62 51.18 199.74 52.78 198.9 54.3 197.93 55.76 196.87 57.08 195.63 58.2 194.2 59.36 192.82 60.4 191.34 61.3 189.78 61.97 188.1 62.69 186.44 63.08 184.68 63.48 182.92 63.76 181.13 63.82 179.32"/><polygon class="cls-4" points="60.81 179.33 60.75 177.48 60.43 175.65 60.02 173.85 59.42 172.1 58.69 170.4 57.78 168.8 56.78 167.24 55.61 165.8 54.27 164.51 52.79 163.41 51.3 162.32 49.65 161.49 47.99 160.71 46.26 160.03 44.44 159.72 42.62 159.38 40.77 159.39 38.93 159.44 37.09 159.66 35.3 160.1 33.55 160.68 31.86 161.44 30.21 162.28 28.73 163.39 27.25 164.49 25.96 165.83 24.85 167.31 23.72 168.77 22.84 170.4 22.16 172.12 21.59 173.87 21.03 175.64 20.78 177.48 20.7 179.33 20.85 181.18 21.09 183.01 21.59 184.79 22.1 186.56 22.8 188.28 23.78 189.85 24.8 191.39 26.04 192.76 27.27 194.14 28.69 195.33 30.24 196.33 31.83 197.28 33.57 197.92 35.31 198.52 37.08 199.07 38.93 199.18 40.77 199.38 42.61 199.19 44.44 198.93 46.25 198.59 48.01 198 49.7 197.26 51.33 196.37 52.82 195.28 54.28 194.15 55.55 192.8 56.73 191.38 57.72 189.82 58.7 188.25 59.46 186.57 60.06 184.82 60.36 182.99 60.66 181.17 60.81 179.33"/><path class="cls-5" d="M43.17,178.88l2.06,1.19L45.9,182l-1.05,2.26-1.55.83-1.74.32V187H40l0-1.65L38.37,185l-1.47-.79-1-1.25-.32-1.56,2.15,0,.57,1.34,1.64.59V179.8l-.92-.32-1.26-.5-1.14-.73-.83-2,1.06-2.17,1.46-.75L40,173v-1.4h1.56V173l1.45.32,1.26.79.78,1.1.41,1.3H43.32l-.54-1-1.21-.6v3.35Zm-4.5-3.49-.44.91.28.83.95.52.56.22v-3ZM43,182.92l.45-1-1.32-1.56-.59-.21v3.22Z"/><polygon class="cls-3" points="233.79 60.94 233.78 59.12 233.52 57.31 233.28 55.5 232.91 53.72 232.49 51.95 231.92 50.22 231.34 48.48 230.63 46.8 229.74 45.2 228.68 43.72 227.74 42.16 226.55 40.78 225.43 39.35 224.29 37.92 222.84 36.8 221.54 35.52 220 34.55 218.52 33.49 216.98 32.52 215.34 31.71 213.69 30.96 211.98 30.33 210.28 29.68 208.49 29.34 206.73 28.82 204.91 28.63 203.09 28.62 201.27 28.4 199.45 28.5 197.65 28.77 195.85 29.04 194.02 29.18 192.25 29.63 190.51 30.19 188.84 30.95 187.17 31.67 185.62 32.63 183.99 33.44 182.42 34.38 181.06 35.6 179.63 36.73 178.4 38.08 177.03 39.28 175.84 40.66 174.81 42.17 173.72 43.64 172.96 45.3 172.1 46.9 171.16 48.47 170.73 50.26 170 51.93 169.72 53.74 169.37 55.52 168.99 57.3 168.84 59.12 168.78 60.94 168.8 62.77 169.04 64.57 169.19 66.39 169.63 68.17 170.09 69.93 170.74 71.63 171.25 73.38 171.98 75.05 172.8 76.68 173.89 78.15 174.85 79.69 175.9 81.18 176.99 82.64 178.27 83.95 179.73 85.05 181.06 86.29 182.49 87.42 183.98 88.46 185.62 89.27 187.17 90.23 188.88 90.85 190.56 91.56 192.26 92.21 194.06 92.55 195.82 93.02 197.62 93.3 199.46 93.23 201.27 93.28 203.09 93.35 204.91 93.25 206.69 92.83 208.5 92.61 210.28 92.2 212.02 91.66 213.65 90.82 215.38 90.24 216.97 89.34 218.56 88.45 220.09 87.46 221.5 86.3 222.86 85.1 224.14 83.81 225.46 82.56 226.63 81.16 227.72 79.71 228.74 78.2 229.66 76.63 230.59 75.06 231.15 73.32 231.84 71.64 232.46 69.93 233 68.19 233.37 66.4 233.45 64.57 233.75 62.77 233.79 60.94"/><polygon class="cls-4" points="230.43 60.93 230.4 59.1 230.13 57.29 229.87 55.48 229.45 53.69 228.97 51.93 228.33 50.22 227.67 48.51 226.87 46.86 225.89 45.31 224.75 43.87 223.68 42.39 222.4 41.09 221.15 39.76 219.87 38.45 218.33 37.45 216.89 36.32 215.25 35.51 213.65 34.63 211.99 33.86 210.26 33.27 208.51 32.76 206.72 32.38 204.93 32 203.1 31.93 201.27 31.73 199.44 31.84 197.63 32.14 195.8 32.27 194.02 32.71 192.3 33.33 190.59 33.96 188.83 34.5 187.2 35.34 185.62 36.28 184.16 37.39 182.71 38.5 181.42 39.8 180.04 41.01 178.77 42.32 177.76 43.85 176.68 45.33 175.86 46.97 174.9 48.52 174.15 50.2 173.6 51.94 173.02 53.68 172.79 55.5 172.48 57.3 172.12 59.1 172.27 60.93 172.16 62.77 172.49 64.57 172.78 66.37 173.06 68.18 173.57 69.94 174.18 71.66 174.88 73.35 175.79 74.94 176.64 76.57 177.74 78.03 178.86 79.48 180.14 80.78 181.34 82.16 182.7 83.39 184.13 84.52 185.74 85.41 187.28 86.39 188.88 87.26 190.52 88.08 192.25 88.68 194.06 89.01 195.82 89.48 197.62 89.81 199.44 90.01 201.27 89.94 203.1 90.01 204.91 89.72 206.72 89.5 208.53 89.18 210.26 88.58 212.01 88.05 213.7 87.34 215.24 86.34 216.81 85.41 218.38 84.48 219.85 83.39 221.12 82.06 222.5 80.86 223.74 79.52 224.87 78.08 225.75 76.46 226.82 74.98 227.59 73.32 228.36 71.66 229 69.94 229.44 68.17 229.81 66.38 230.04 64.57 230.3 62.76 230.43 60.93"/><path class="cls-5" d="M204.76,60.27l3,1.77,1,2.78-.38,1.81-1.1,1.52L205,69.36l-2.51.44,0,2.35-2.24,0,0-2.38-2.36-.53L195.67,68l-1.39-1.8L193.79,64l3.13,0,.81,2,2.41.82.06-2.58,0-2.6-1.33-.48L197,60.43l-1.67-1-1.2-3,.36-1.77,1.15-1.42,2.14-1.08,2.41-.37v-2l2.24,0v2.07l2.1.51,1.84,1.11L207.54,55l.56,1.87-3.12,0-.8-1.42-1.77-.88,0,2.44v2.41Zm-6.54-5.06-.68,1.31.42,1.22,1.39.75.77.28V54.5Zm6.3,10.94.69-1.39-1.94-2.29-.89-.29.06,2.35v2.32Z"/><polyline class="cls-2" points="53 156.32 70.5 120.33 98.13 70.14 139.76 129.65 179.88 90"/><circle class="cls-6" cx="98.13" cy="70.14" r="6.26"/><polyline class="cls-3" points="149.82 184.68 151.62 184.81 153.41 184.82 155.21 184.82 157 184.81 158.8 184.63 160.59 184.83 162.39 184.75 164.18 184.77 165.97 184.73 167.76 184.82 169.55 184.65 171.35 184.78 173.14 184.63 174.94 184.76 176.73 184.63 178.52 184.79 180.32 184.65 182.12 184.69 183.91 184.68 185.71 184.81 187.51 184.65 189.3 184.76 191.1 184.77 192.9 184.62 194.7 184.77 196.49 184.8 198.29 184.64 200.09 184.67 201.88 184.6 203.68 184.71 205.48 184.64 207.28 184.71 209.08 184.63 210.89 184.67 212.69 184.75"/><polyline class="cls-7" points="149.82 184.68 151.62 184.81 153.41 184.82 155.21 184.82 157 184.81 158.8 184.63 160.59 184.83 162.39 184.75 164.18 184.77 165.97 184.73 167.76 184.82 169.55 184.65 171.35 184.78 173.14 184.63 174.94 184.76 176.73 184.63 178.52 184.79 180.32 184.65 182.12 184.69 183.91 184.68 185.71 184.81 187.51 184.65 189.3 184.76 191.1 184.77 192.9 184.62 194.7 184.77 196.49 184.8 198.29 184.64 200.09 184.67 201.88 184.6 203.68 184.71 205.48 184.64 207.28 184.71 209.08 184.63 210.89 184.67 212.69 184.75"/><polyline class="cls-3" points="149.82 193.94 151.62 194.07 153.41 194.08 155.21 194.08 157 194.07 158.8 193.89 160.59 194.09 162.39 194.01 164.18 194.03 165.97 193.99 167.76 194.08 169.55 193.91 171.35 194.04 173.14 193.89 174.94 194.02 176.73 193.89 178.52 194.05 180.32 193.91 182.12 193.95 183.91 193.94 185.71 194.07 187.51 193.9 189.3 194.02 191.1 194.03 192.9 193.88 194.7 194.03 196.49 194.06 198.29 193.9 200.09 193.93 201.88 193.86 203.68 193.97 205.48 193.9 207.28 193.97 209.08 193.89 210.89 193.93 212.69 194.01"/><polyline class="cls-7" points="149.82 193.94 151.62 194.07 153.41 194.08 155.21 194.08 157 194.07 158.8 193.89 160.59 194.09 162.39 194.01 164.18 194.03 165.97 193.99 167.76 194.08 169.55 193.91 171.35 194.04 173.14 193.89 174.94 194.02 176.73 193.89 178.52 194.05 180.32 193.91 182.12 193.95 183.91 193.94 185.71 194.07 187.51 193.9 189.3 194.02 191.1 194.03 192.9 193.88 194.7 194.03 196.49 194.06 198.29 193.9 200.09 193.93 201.88 193.86 203.68 193.97 205.48 193.9 207.28 193.97 209.08 193.89 210.89 193.93 212.69 194.01"/><polyline class="cls-3" points="149.82 202.33 151.62 202.46 153.41 202.47 155.21 202.47 157 202.46 158.8 202.27 160.59 202.47 162.39 202.4 164.18 202.41 165.97 202.37 167.76 202.46 169.55 202.29 171.35 202.42 173.14 202.28 174.94 202.4 176.73 202.28 178.52 202.44 180.32 202.29 182.12 202.33 183.91 202.33 185.71 202.46 187.51 202.29 189.3 202.41 191.1 202.42 192.9 202.26 194.7 202.42 196.49 202.45 198.29 202.29 200.09 202.31 201.88 202.25 203.68 202.36 205.48 202.28 207.28 202.35 209.08 202.28 210.89 202.31 212.69 202.39"/><polyline class="cls-7" points="149.82 202.33 151.62 202.46 153.41 202.47 155.21 202.47 157 202.46 158.8 202.27 160.59 202.47 162.39 202.4 164.18 202.41 165.97 202.37 167.76 202.46 169.55 202.29 171.35 202.42 173.14 202.28 174.94 202.4 176.73 202.28 178.52 202.44 180.32 202.29 182.12 202.33 183.91 202.33 185.71 202.46 187.51 202.29 189.3 202.41 191.1 202.42 192.9 202.26 194.7 202.42 196.49 202.45 198.29 202.29 200.09 202.31 201.88 202.25 203.68 202.36 205.48 202.28 207.28 202.35 209.08 202.28 210.89 202.31 212.69 202.39"/><circle class="cls-6" cx="139.76" cy="129.65" r="11.26"/><polygon class="cls-3" points="147.04 223.01 145.28 222.82 143.53 222.53 141.92 221.77 140.41 220.82 139.26 219.46 138.08 218.14 137.41 216.49 136.8 214.82 136.62 213.04 136.73 211.22 136.62 209.41 136.92 207.59 136.61 205.77 136.66 203.95 136.62 202.13 136.88 200.31 136.91 198.5 136.77 196.68 136.75 194.86 136.84 193.04 136.73 191.22 136.81 189.4 136.95 187.58 136.86 185.77 136.84 183.95 136.71 182.14 136.66 180.32 136.57 178.5 136.81 176.69 136.73 174.87 136.72 173.05 136.59 171.23 136.76 169.41 136.92 167.59 136.66 165.77 136.76 163.95 136.79 162.13 136.69 160.31 136.67 158.49 136.72 156.67 136.66 154.85 136.62 153.02 136.62 151.21 136.76 149.38 136.79 147.56 136.73 145.74 136.71 143.92 136.62 142.09 136.71 140.27 136.8 138.44 136.85 136.61 136.85 134.84 137.35 133.14 138.04 131.49 139.32 130.24 140.59 129.06 141.94 127.92 143.54 127.16 145.29 126.88 147.04 126.64 148.81 126.7 150.59 126.59 152.36 126.83 154.13 126.63 155.9 126.53 157.67 126.83 159.44 126.73 161.22 126.74 162.99 126.75 164.77 126.57 166.54 126.68 168.31 126.81 170.09 126.55 171.87 126.67 173.64 126.71 175.41 126.54 177.19 126.82 178.97 126.68 180.75 126.68 182.52 126.67 184.3 126.72 186.08 126.62 187.85 126.75 189.63 126.48 191.41 126.79 193.18 126.63 194.96 126.47 196.74 126.74 198.52 126.63 200.31 126.66 202.09 126.69 204.1 126.74 206 127.38 207.71 128.4 209.33 129.55 210.73 130.75 211.87 132.21 213.36 133.32 214.57 134.72 216.06 135.83 217.34 137.15 218.71 138.4 219.85 139.88 221.33 141.2 222.05 143.05 222.71 144.89 222.9 146.83 223.16 148.62 223.06 150.41 222.93 152.19 223 153.98 223.12 155.77 222.85 157.56 222.88 159.35 223.08 161.14 223.02 162.92 222.94 164.71 223.07 166.49 223.02 168.28 222.92 170.06 222.83 171.85 223.03 173.64 223.16 175.43 223.13 177.21 223.09 179 222.85 180.79 222.88 182.58 223.17 184.37 222.95 186.16 222.93 187.95 222.85 189.74 222.96 191.53 222.95 193.32 223.06 195.11 222.93 196.9 222.88 198.69 222.93 200.48 223.03 202.27 222.87 204.06 222.93 205.86 222.83 207.65 222.83 209.44 222.86 211.24 223.13 213.04 222.75 214.78 222.42 216.52 221.59 218.08 220.52 219.48 219.23 220.68 217.78 221.66 216.14 222.28 214.49 222.93 212.72 222.97 210.9 223.15 209.07 222.89 207.25 222.99 205.43 223.07 203.61 222.81 201.78 223.03 199.96 223.01 198.14 222.91 196.32 222.99 194.5 222.88 192.68 223.05 190.86 223.17 189.04 223.13 187.21 222.81 185.39 223.16 183.57 222.97 181.75 223.13 179.92 222.93 178.09 223.17 176.27 223.17 174.45 222.89 172.62 223.14 170.8 223 168.97 223.02 167.15 223.07 165.32 222.9 163.49 222.82 161.67 222.92 159.84 223.01 158.02 222.84 156.19 222.83 154.36 222.94 152.53 223 150.7 222.97 148.87 223.15 147.04 223.01"/><polygon class="cls-3" points="220.14 146.83 219.91 148.62 220.16 150.41 220.08 152.19 220.03 153.98 220.07 155.77 220.1 157.56 220.01 159.35 219.83 161.14 219.88 162.92 219.84 164.71 220.02 166.49 220.01 168.28 220.16 170.06 220.01 171.85 220.01 173.64 220.02 175.43 220.1 177.21 219.87 179 219.84 180.79 219.97 182.58 220.15 184.37 219.86 186.16 219.95 187.95 219.87 189.74 220.07 191.53 219.86 193.32 220.05 195.11 220 196.9 220.07 198.69 220.07 200.48 219.96 202.27 220.06 204.06 219.97 205.86 220.12 207.65 220.1 209.44 219.9 211.24 219.99 213.04 219.71 214.87 218.95 216.55 217.71 217.91 216.27 219.05 214.57 219.78 212.72 220.07 210.9 219.94 209.07 219.85 207.25 220.06 205.43 220.04 203.61 220.15 201.78 219.93 199.96 220.06 198.14 219.85 196.32 220.11 194.5 219.85 192.68 220.16 190.86 219.94 189.04 219.92 187.21 220.06 185.39 220.06 183.57 220.17 181.75 219.82 179.92 220.06 178.09 219.85 176.27 219.84 174.45 220.03 172.62 219.96 170.8 219.87 168.97 220.06 167.15 220.16 165.32 220.08 163.49 220.01 161.67 219.84 159.84 220.15 158.02 219.87 156.19 220.06 154.36 220.12 152.53 220.08 150.7 219.91 148.87 220.12 147.04 219.88 145.15 219.94 143.43 219.15 141.99 217.97 140.69 216.63 139.86 214.93 139.74 213.04 139.89 211.22 139.79 209.41 139.71 207.59 139.85 205.77 139.63 203.95 139.69 202.13 139.75 200.31 139.61 198.5 139.62 196.68 139.93 194.86 139.86 193.04 139.87 191.22 139.8 189.4 139.83 187.58 139.85 185.77 139.9 183.95 139.73 182.14 139.78 180.32 139.88 178.5 139.7 176.69 139.7 174.87 139.84 173.05 139.61 171.23 139.86 169.41 139.66 167.59 139.76 165.77 139.67 163.95 139.81 162.13 139.85 160.31 139.93 158.49 139.92 156.67 139.76 154.85 139.93 153.02 139.71 151.21 139.62 149.38 139.78 147.56 139.58 145.74 139.72 143.92 139.78 142.09 139.82 140.27 139.85 138.44 139.8 136.61 140.18 134.82 140.69 133.02 142.01 131.7 143.44 130.51 145.15 129.7 147.04 129.67 148.81 129.57 150.59 129.51 152.36 129.67 154.13 129.5 155.9 129.5 157.67 129.72 159.44 129.66 161.22 129.8 162.99 129.51 164.77 129.65 166.54 129.78 168.31 129.6 170.09 129.56 171.87 129.53 173.64 129.58 175.41 129.67 177.19 129.63 178.97 129.59 180.75 129.65 182.52 129.79 184.3 129.66 186.08 129.63 187.85 129.62 189.63 129.77 191.41 129.53 193.18 129.55 194.96 129.68 196.74 129.57 198.52 129.6 200.31 129.62 202.09 129.66 204.01 129.74 205.77 130.51 207.19 131.78 208.51 133.05 209.94 134.22 211.35 135.41 212.51 136.86 213.87 138.11 215.15 139.44 216.49 140.7 217.89 141.92 218.89 143.43 219.78 145.01 220.14 146.83"/><polyline class="cls-8" points="220 147.16 216.42 147.08 212.84 147.11 209.26 147.09 205.68 147.04 202.05 147.14 202.03 143.61 202.04 140.13 202.05 136.64 202.03 133.15 202.09 129.64 206.07 130.81"/><polyline class="cls-9" points="220 147.16 216.42 147.08 212.84 147.11 209.26 147.09 205.68 147.04 202.05 147.14 202.03 143.61 202.04 140.13 202.05 136.64 202.03 133.15 202.09 129.64 206.07 130.81"/><polygon class="cls-3" points="225.14 151.83 224.91 153.62 225.16 155.41 225.08 157.19 225.03 158.98 225.07 160.77 225.1 162.56 225.01 164.35 224.83 166.14 224.88 167.92 224.84 169.71 225.02 171.49 225.01 173.28 225.16 175.06 225.01 176.85 225.01 178.64 225.02 180.43 225.1 182.21 224.87 184 224.84 185.79 224.97 187.58 225.15 189.37 224.86 191.16 224.95 192.95 224.87 194.74 225.07 196.53 224.86 198.32 225.05 200.11 225 201.9 225.07 203.69 225.07 205.48 224.96 207.27 225.06 209.06 224.97 210.86 225.12 212.65 225.1 214.44 224.9 216.24 224.99 218.04 224.71 219.87 223.95 221.55 222.71 222.91 221.27 224.05 219.57 224.78 217.72 225.07 215.9 224.94 214.07 224.85 212.25 225.06 210.43 225.04 208.61 225.15 206.78 224.93 204.96 225.06 203.14 224.85 201.32 225.11 199.5 224.85 197.68 225.16 195.86 224.94 194.04 224.92 192.21 225.06 190.39 225.06 188.57 225.17 186.75 224.82 184.92 225.06 183.09 224.85 181.27 224.84 179.45 225.03 177.62 224.96 175.8 224.87 173.97 225.06 172.15 225.16 170.32 225.08 168.49 225.01 166.67 224.84 164.84 225.15 163.02 224.87 161.19 225.06 159.36 225.12 157.53 225.08 155.7 224.91 153.87 225.12 152.04 224.88 150.15 224.94 148.43 224.15 146.99 222.97 145.69 221.63 144.86 219.93 144.74 218.04 144.89 216.22 144.79 214.41 144.71 212.59 144.85 210.77 144.63 208.95 144.69 207.13 144.75 205.31 144.61 203.5 144.62 201.68 144.93 199.86 144.86 198.04 144.87 196.22 144.8 194.4 144.83 192.58 144.85 190.77 144.9 188.95 144.73 187.14 144.78 185.32 144.88 183.5 144.7 181.69 144.7 179.87 144.84 178.05 144.61 176.23 144.86 174.41 144.66 172.59 144.76 170.77 144.67 168.95 144.81 167.13 144.85 165.31 144.93 163.49 144.92 161.67 144.76 159.85 144.93 158.02 144.71 156.21 144.62 154.38 144.78 152.56 144.58 150.74 144.72 148.92 144.78 147.09 144.82 145.27 144.85 143.44 144.8 141.61 145.18 139.82 145.69 138.02 147.01 136.7 148.44 135.51 150.15 134.7 152.04 134.67 153.81 134.57 155.59 134.51 157.36 134.67 159.13 134.5 160.9 134.5 162.67 134.72 164.44 134.66 166.22 134.8 167.99 134.51 169.77 134.65 171.54 134.78 173.31 134.6 175.09 134.56 176.87 134.53 178.64 134.58 180.41 134.67 182.19 134.63 183.97 134.59 185.75 134.65 187.52 134.79 189.3 134.66 191.08 134.63 192.85 134.62 194.63 134.77 196.41 134.53 198.18 134.55 199.96 134.68 201.74 134.57 203.52 134.6 205.31 134.62 207.09 134.66 209.01 134.74 210.77 135.51 212.19 136.78 213.51 138.05 214.94 139.22 216.35 140.41 217.51 141.86 218.87 143.11 220.15 144.44 221.49 145.7 222.89 146.92 223.89 148.43 224.78 150.01 225.14 151.83"/><rect class="cls-3" x="202.09" y="129.65" width="4.28" height="16.35"/><polygon class="cls-2" points="219.84 146.83 219.92 148.62 219.92 150.41 219.94 152.19 219.87 153.98 220.07 155.77 220.17 157.56 220.01 159.35 220.06 161.14 219.84 162.92 220.15 164.71 219.94 166.49 220.03 168.28 220.12 170.06 220.16 171.85 220.13 173.64 219.93 175.43 220.06 177.21 219.94 179 220 180.79 219.94 182.58 219.91 184.37 219.94 186.16 219.98 187.95 220.02 189.74 220.08 191.53 219.82 193.32 219.85 195.11 220.1 196.9 220.03 198.69 219.94 200.48 220.02 202.27 220.09 204.06 220.07 205.86 219.96 207.65 219.83 209.44 220.09 211.24 220.16 213.04 219.67 214.86 219.08 216.63 217.82 218.03 216.33 219.15 214.59 219.86 212.72 219.89 210.9 219.84 209.07 220 207.25 219.84 205.43 220.06 203.61 220 201.78 220.16 199.96 219.88 198.14 219.89 196.32 219.89 194.5 220.17 192.68 220.08 190.86 220.09 189.04 220.16 187.21 219.94 185.39 220.12 183.57 220.14 181.75 219.88 179.92 220.04 178.09 219.92 176.27 219.96 174.45 220.07 172.62 220.12 170.8 219.88 168.97 219.97 167.15 219.95 165.32 220.07 163.49 219.98 161.67 219.87 159.84 219.9 158.02 219.85 156.19 219.96 154.36 220.16 152.53 220.07 150.7 220.15 148.87 220.07 147.04 220.09 145.18 219.81 143.48 219.06 141.84 218.13 140.62 216.67 139.91 214.91 139.9 213.04 139.84 211.22 139.6 209.41 139.58 207.59 139.77 205.77 139.9 203.95 139.83 202.13 139.85 200.31 139.63 198.5 139.75 196.68 139.8 194.86 139.66 193.04 139.67 191.22 139.93 189.4 139.73 187.58 139.89 185.77 139.75 183.95 139.9 182.14 139.59 180.32 139.86 178.5 139.89 176.69 139.82 174.87 139.73 173.05 139.75 171.23 139.92 169.41 139.7 167.59 139.58 165.77 139.91 163.95 139.64 162.13 139.83 160.31 139.6 158.49 139.88 156.67 139.86 154.85 139.88 153.02 139.75 151.21 139.82 149.38 139.84 147.56 139.9 145.74 139.66 143.92 139.79 142.09 139.64 140.27 139.64 138.44 139.91 136.61 140.18 134.82 140.91 133.16 141.84 131.52 143.46 130.55 145.23 130.05 147.04 129.81 148.81 129.49 150.59 129.83 152.36 129.71 154.13 129.72 155.9 129.65 157.67 129.51 159.44 129.74 161.22 129.49 162.99 129.57 164.77 129.62 166.54 129.58 168.31 129.55 170.09 129.64 171.87 129.82 173.64 129.78 175.41 129.81 177.19 129.63 178.97 129.64 180.75 129.49 182.52 129.64 184.3 129.65 186.08 129.63 187.85 129.55 189.63 129.78 191.41 129.81 193.18 129.68 194.96 129.5 196.74 129.79 198.52 129.7 200.31 129.78 202.09 129.58 203.94 130.02 205.76 130.53 207.26 131.7 208.63 132.93 209.96 134.21 211.21 135.56 212.6 136.77 213.87 138.1 215.31 139.27 216.62 140.57 217.81 142 219.01 143.36 219.72 145.03 219.84 146.83"/><polyline class="cls-3" points="149.82 156.92 151.62 156.81 153.41 157.05 155.21 156.96 157 156.99 158.8 156.94 160.59 156.99 162.39 156.86 164.18 157.05 165.97 156.93 167.76 156.92 169.55 156.81 171.35 156.96 173.14 156.87 174.94 156.86 176.73 157.03 178.52 157.03 180.32 156.91 182.12 156.88 183.91 157.06 185.71 156.98 187.51 156.9 189.3 156.83 191.1 156.85 192.9 156.97 194.7 156.82 196.49 156.97 198.29 157.03 200.09 156.87 201.88 156.81 203.68 156.94 205.48 157.04 207.28 156.9 209.08 156.84 210.89 156.93 212.69 156.94"/><polyline class="cls-2" points="149.82 156.92 151.62 156.81 153.41 157.05 155.21 156.96 157 156.99 158.8 156.94 160.59 156.99 162.39 156.86 164.18 157.05 165.97 156.93 167.76 156.92 169.55 156.81 171.35 156.96 173.14 156.87 174.94 156.86 176.73 157.03 178.52 157.03 180.32 156.91 182.12 156.88 183.91 157.06 185.71 156.98 187.51 156.9 189.3 156.83 191.1 156.85 192.9 156.97 194.7 156.82 196.49 156.97 198.29 157.03 200.09 156.87 201.88 156.81 203.68 156.94 205.48 157.04 207.28 156.9 209.08 156.84 210.89 156.93 212.69 156.94"/><polyline class="cls-3" points="149.82 147.09 151.63 147.02 153.43 147.18 155.24 147.12 157.04 147.14 158.85 147.11 160.66 147.14 162.46 147.06 164.27 147.18 166.07 147.1 167.88 147.09 169.69 147.02 171.5 147.12 173.31 147.06 175.11 147.05 176.92 147.16 178.73 147.16 180.53 147.09 182.34 147.07 184.16 147.18 185.96 147.14 187.78 147.08 189.59 147.04 191.41 147.05"/><polyline class="cls-2" points="149.82 147.09 151.63 147.02 153.43 147.18 155.24 147.12 157.04 147.14 158.85 147.11 160.66 147.14 162.46 147.06 164.27 147.18 166.07 147.1 167.88 147.09 169.69 147.02 171.5 147.12 173.31 147.06 175.11 147.05 176.92 147.16 178.73 147.16 180.53 147.09 182.34 147.07 184.16 147.18 185.96 147.14 187.78 147.08 189.59 147.04 191.41 147.05"/><polyline class="cls-3" points="149.82 166.16 151.62 166.31 153.41 166.23 155.21 166.09 157 166.16 158.8 166.26 160.59 166.22 162.39 166.25 164.18 166.24 165.97 166.16 167.76 166.22 169.55 166.26 171.35 166.31 173.14 166.2 174.94 166.07 176.73 166.09 178.52 166.19 180.32 166.14 182.12 166.17 183.91 166.21 185.71 166.26 187.51 166.27 189.3 166.18 191.1 166.16 192.9 166.12 194.7 166.1 196.49 166.23 198.29 166.09 200.09 166.12 201.88 166.09 203.68 166.27 205.48 166.22 207.28 166.26 209.08 166.08 210.89 166.22 212.69 166.25"/><polyline class="cls-2" points="149.82 166.16 151.62 166.31 153.41 166.23 155.21 166.09 157 166.16 158.8 166.26 160.59 166.22 162.39 166.25 164.18 166.24 165.97 166.16 167.76 166.22 169.55 166.26 171.35 166.31 173.14 166.2 174.94 166.07 176.73 166.09 178.52 166.19 180.32 166.14 182.12 166.17 183.91 166.21 185.71 166.26 187.51 166.27 189.3 166.18 191.1 166.16 192.9 166.12 194.7 166.1 196.49 166.23 198.29 166.09 200.09 166.12 201.88 166.09 203.68 166.27 205.48 166.22 207.28 166.26 209.08 166.08 210.89 166.22 212.69 166.25"/><polyline class="cls-3" points="149.82 175.51 151.62 175.36 153.41 175.51 155.21 175.54 157 175.38 158.8 175.41 160.59 175.34 162.39 175.45 164.18 175.38 165.97 175.45 167.76 175.37 169.55 175.41 171.35 175.49 173.14 175.46 174.94 175.35 176.73 175.38 178.52 175.51 180.32 175.37 182.12 175.38 183.91 175.4 185.71 175.45 187.51 175.52 189.3 175.57 191.1 175.42 192.9 175.57 194.7 175.49 196.49 175.35 198.29 175.42 200.09 175.52 201.88 175.48 203.68 175.5 205.48 175.5 207.28 175.42 209.08 175.48 210.89 175.52 212.69 175.57"/><polyline class="cls-2" points="149.82 175.51 151.62 175.36 153.41 175.51 155.21 175.54 157 175.38 158.8 175.41 160.59 175.34 162.39 175.45 164.18 175.38 165.97 175.45 167.76 175.37 169.55 175.41 171.35 175.49 173.14 175.46 174.94 175.35 176.73 175.38 178.52 175.51 180.32 175.37 182.12 175.38 183.91 175.4 185.71 175.45 187.51 175.52 189.3 175.57 191.1 175.42 192.9 175.57 194.7 175.49 196.49 175.35 198.29 175.42 200.09 175.52 201.88 175.48 203.68 175.5 205.48 175.5 207.28 175.42 209.08 175.48 210.89 175.52 212.69 175.57"/><polyline class="cls-3" points="149.82 184.77 151.62 184.62 153.41 184.77 155.21 184.8 157 184.64 158.8 184.67 160.59 184.6 162.39 184.71 164.18 184.64 165.97 184.71 167.76 184.63 169.55 184.67 171.35 184.75 173.14 184.72 174.94 184.61 176.73 184.64 178.52 184.77 180.32 184.63 182.12 184.63 183.91 184.66 185.71 184.71 187.51 184.78 189.3 184.83 191.1 184.68 192.9 184.83 194.7 184.75 196.49 184.61 198.29 184.68 200.09 184.78 201.88 184.74 203.68 184.76 205.48 184.76 207.28 184.68 209.08 184.74 210.89 184.78 212.69 184.83"/><polyline class="cls-2" points="149.82 184.77 151.62 184.62 153.41 184.77 155.21 184.8 157 184.64 158.8 184.67 160.59 184.6 162.39 184.71 164.18 184.64 165.97 184.71 167.76 184.63 169.55 184.67 171.35 184.75 173.14 184.72 174.94 184.61 176.73 184.64 178.52 184.77 180.32 184.63 182.12 184.63 183.91 184.66 185.71 184.71 187.51 184.78 189.3 184.83 191.1 184.68 192.9 184.83 194.7 184.75 196.49 184.61 198.29 184.68 200.09 184.78 201.88 184.74 203.68 184.76 205.48 184.76 207.28 184.68 209.08 184.74 210.89 184.78 212.69 184.83"/><polyline class="cls-3" points="149.82 193.59 151.62 193.44 153.41 193.59 155.21 193.63 157 193.46 158.8 193.49 160.59 193.43 162.39 193.53 164.18 193.46 165.97 193.53 167.76 193.46 169.55 193.49 171.35 193.57 173.14 193.54 174.94 193.43 176.73 193.46 178.52 193.6 180.32 193.45 182.12 193.46 183.91 193.48 185.71 193.53 187.51 193.6 189.3 193.65 191.1 193.5 192.9 193.65 194.7 193.57 196.49 193.43 198.29 193.5 200.09 193.6 201.88 193.56 203.68 193.59 205.48 193.58 207.28 193.5 209.08 193.56 210.89 193.6 212.69 193.65"/><polyline class="cls-2" points="149.82 193.59 151.62 193.44 153.41 193.59 155.21 193.63 157 193.46 158.8 193.49 160.59 193.43 162.39 193.53 164.18 193.46 165.97 193.53 167.76 193.46 169.55 193.49 171.35 193.57 173.14 193.54 174.94 193.43 176.73 193.46 178.52 193.6 180.32 193.45 182.12 193.46 183.91 193.48 185.71 193.53 187.51 193.6 189.3 193.65 191.1 193.5 192.9 193.65 194.7 193.57 196.49 193.43 198.29 193.5 200.09 193.6 201.88 193.56 203.68 193.59 205.48 193.58 207.28 193.5 209.08 193.56 210.89 193.6 212.69 193.65"/><polyline class="cls-3" points="149.82 202.42 151.62 202.26 153.41 202.42 155.21 202.45 157 202.29 158.8 202.31 160.59 202.25 162.39 202.36 164.18 202.28 165.97 202.35 167.76 202.28 169.55 202.31 171.35 202.39 173.14 202.36 174.94 202.25 176.73 202.28 178.52 202.42 180.32 202.27 182.12 202.28 183.91 202.3 185.71 202.35 187.51 202.43 189.3 202.47 191.1 202.33 192.9 202.47 194.7 202.4 196.49 202.26 198.29 202.32 200.09 202.43 201.88 202.39 203.68 202.41 205.48 202.4 207.28 202.32 209.08 202.39 210.89 202.42 212.69 202.47"/><polyline class="cls-2" points="149.82 202.42 151.62 202.26 153.41 202.42 155.21 202.45 157 202.29 158.8 202.31 160.59 202.25 162.39 202.36 164.18 202.28 165.97 202.35 167.76 202.28 169.55 202.31 171.35 202.39 173.14 202.36 174.94 202.25 176.73 202.28 178.52 202.42 180.32 202.27 182.12 202.28 183.91 202.3 185.71 202.35 187.51 202.43 189.3 202.47 191.1 202.33 192.9 202.47 194.7 202.4 196.49 202.26 198.29 202.32 200.09 202.43 201.88 202.39 203.68 202.41 205.48 202.4 207.28 202.32 209.08 202.39 210.89 202.42 212.69 202.47"/><polyline class="cls-2" points="202.15 129.65 202.07 133.14 202.1 136.63 202.08 140.11 202.04 143.61 202.13 147.06 205.67 147.04 209.25 147.05 212.83 147.06 216.41 147.04 220 147.09"/><polygon class="cls-3" points="43.7 109.78 41.84 109.71 39.97 109.83 38.09 109.79 36.23 109.83 34.35 109.79 32.48 109.75 30.61 109.83 28.74 109.77 26.86 109.83 24.99 109.72 23.11 109.8 21.23 109.8 19.51 110.48 18.78 112.2 18.78 113.96 18.86 115.73 18.8 117.49 18.83 119.26 18.82 121.03 18.79 122.79 18.86 124.56 18.73 126.34 18.85 128.11 19.55 129.79 21.23 130.5 23.1 130.47 24.97 130.51 26.84 130.56 28.71 130.57 30.58 130.55 32.45 130.58 34.33 130.49 36.2 130.54 38.08 130.52 39.95 130.54 41.83 130.57 43.71 130.54 44.96 129.39 46.18 128.19 47.43 127.03 48.77 125.97 49.95 124.73 51.2 123.58 52.49 122.45 53.72 121.26 54.98 120.15 53.74 119.04 52.57 117.8 51.24 116.73 50.01 115.55 48.72 114.42 47.52 113.21 46.25 112.07 44.99 110.91 43.7 109.78"/><polygon class="cls-2" points="44.7 109.78 42.84 109.71 40.97 109.83 39.09 109.79 37.23 109.83 35.35 109.79 33.48 109.75 31.61 109.83 29.74 109.77 27.86 109.83 25.99 109.72 24.11 109.8 22.23 109.8 20.51 110.48 19.78 112.2 19.78 113.96 19.86 115.73 19.8 117.49 19.83 119.26 19.82 121.03 19.79 122.79 19.86 124.56 19.73 126.34 19.85 128.11 20.55 129.79 22.23 130.5 24.1 130.47 25.97 130.51 27.84 130.56 29.71 130.57 31.58 130.55 33.45 130.58 35.33 130.49 37.2 130.54 39.08 130.52 40.95 130.54 42.83 130.57 44.71 130.54 45.96 129.39 47.18 128.19 48.43 127.03 49.77 125.97 50.95 124.73 52.2 123.58 53.49 122.45 54.72 121.26 55.98 120.15 54.74 119.04 53.57 117.8 52.24 116.73 51.01 115.55 49.72 114.42 48.52 113.21 47.25 112.07 45.99 110.91 44.7 109.78"/><path class="cls-6" d="M36,115v3.58h3.6v1.9H37.81l-1.79,0v3.58l-2.18,0v-1.78l0-1.8-1.81,0-1.79,0,0-1.9,1.81,0h1.8V115Z"/><circle class="cls-6" cx="70.5" cy="120.15" r="7.82"/><polygon class="cls-3" points="121.28 59.73 123.06 59.83 124.83 59.66 126.6 59.72 128.37 59.66 130.14 59.72 131.91 59.78 133.69 59.66 135.46 59.76 137.23 59.66 139.01 59.83 140.78 59.72 142.55 59.71 144.32 59.75 146.1 59.78 147.87 59.78 149.64 59.66 151.42 59.75 153.19 59.71 154.97 59.73 156.75 59.77 158.53 59.66 160.11 60.51 160.93 62.08 160.94 63.87 160.91 65.66 160.96 67.44 160.91 69.23 160.83 71.02 160.82 72.81 160.84 74.6 160.8 76.4 160.93 78.19 160.18 79.84 158.53 80.55 156.76 80.53 154.99 80.47 153.22 80.52 151.45 80.53 149.68 80.61 147.91 80.62 146.13 80.45 144.36 80.61 142.59 80.62 140.82 80.56 139.04 80.61 137.27 80.6 135.5 80.59 133.73 80.42 131.96 80.58 130.18 80.53 128.41 80.58 126.63 80.47 124.85 80.5 123.07 80.5 121.26 80.6 120.03 79.38 118.75 78.25 117.59 77 116.21 75.98 115.06 74.71 113.7 73.67 112.51 72.44 111.28 71.25 110.06 70.14 111.27 69.03 112.44 67.78 113.81 66.76 114.95 65.48 116.26 64.38 117.48 63.19 118.81 62.12 120.01 60.88 121.28 59.73"/><polygon class="cls-2" points="121.28 59.73 123.06 59.83 124.83 59.66 126.6 59.72 128.37 59.66 130.14 59.72 131.91 59.78 133.69 59.66 135.46 59.76 137.23 59.66 139.01 59.83 140.78 59.72 142.55 59.71 144.32 59.75 146.1 59.78 147.87 59.78 149.64 59.66 151.42 59.75 153.19 59.71 154.97 59.73 156.75 59.77 158.53 59.66 160.11 60.51 160.93 62.08 160.94 63.87 160.91 65.66 160.96 67.44 160.91 69.23 160.83 71.02 160.82 72.81 160.84 74.6 160.8 76.4 160.93 78.19 160.18 79.84 158.53 80.55 156.76 80.53 154.99 80.47 153.22 80.52 151.45 80.53 149.68 80.61 147.91 80.62 146.13 80.45 144.36 80.61 142.59 80.62 140.82 80.56 139.04 80.61 137.27 80.6 135.5 80.59 133.73 80.42 131.96 80.58 130.18 80.53 128.41 80.58 126.63 80.47 124.85 80.5 123.07 80.5 121.26 80.6 120.03 79.38 118.75 78.25 117.59 77 116.21 75.98 115.06 74.71 113.7 73.67 112.51 72.44 111.28 71.25 110.06 70.14 111.27 69.03 112.44 67.78 113.81 66.76 114.95 65.48 116.26 64.38 117.48 63.19 118.81 62.12 120.01 60.88 121.28 59.73"/><path class="cls-6" d="M124.42,66.61,126,66h1.06l0,2,0,2v2l0,2h-1.43V67.67l-1.23.3Z"/><path class="cls-10" d="M124.42,66.61,126,66h1.06l0,2,0,2v2l0,2h-1.43V67.67l-1.23.3Z"/><path class="cls-6" d="M130.33,72.52h4.45v1.29h-2l-2,0-1.95,0V72.48l1-2,.78-.38,1.6-.61.78-.51.24-.77-.34-.75-.91-.31-1,.29-.45.86-1.57,0,.87-1.77,2.1-.59,2,.64.8,1.65-.49,1.55-1.5,1-1.62.62-.67.41-.23.56Z"/><path class="cls-10" d="M130.33,72.52h4.45v1.29h-2l-2,0-1.95,0V72.48l1-2,.78-.38,1.6-.61.78-.51.24-.77-.34-.75-.91-.31-1,.29-.45.86-1.57,0,.87-1.77,2.1-.59,2,.64.8,1.65-.49,1.55-1.5,1-1.62.62-.67.41-.23.56Z"/><path class="cls-6" d="M136,73.66l-.28-.67.28-.68.71-.28.72.28.28.68-.29.67-.72.27Z"/><path class="cls-10" d="M136,73.66l-.28-.67.28-.68.71-.28.72.28.28.68-.29.67-.72.27Z"/><path class="cls-6" d="M143.64,65.95v4.92H145v1.2h-1.36v1.74h-1.41V72.08H138.3V71l1-1.27,1-1.26,1-1.28,1-1.26ZM140,71h2.35V68l-1.18,1.48Z"/><path class="cls-10" d="M143.64,65.95v4.92H145v1.2h-1.36v1.74h-1.41V72.08H138.3V71l1-1.27,1-1.26,1-1.28,1-1.26ZM140,71h2.35V68l-1.18,1.48Z"/><path class="cls-6" d="M149,65.88l1.32.22,1,.75.72,1.45.19,1.62L152,71.54,151.3,73,149,74l-2.35-1-.7-1.46-.2-1.61.2-1.61.7-1.45Zm1.32,2L149,67.17l-1.3.71-.47,2.05.47,2,1.3.72,1.3-.72.48-2Z"/><path class="cls-10" d="M149,65.88l1.32.22,1,.75.72,1.45.19,1.62L152,71.54,151.3,73,149,74l-2.35-1-.7-1.46-.2-1.61.2-1.61.7-1.45Zm1.32,2L149,67.17l-1.3.71-.47,2.05.47,2,1.3.72,1.3-.72.48-2Z"/></g></svg>
