<svg xmlns="http://www.w3.org/2000/svg" viewBox="0 0 250 250"><defs><style>.cls-1{fill:#f8f8f8;}.cls-2{fill:#fff;}.cls-3{fill:none;stroke:#3e82f7;stroke-miterlimit:10;stroke-width:3px;}.cls-4{fill:#fadc2d;}.cls-5{fill:#ff852d;}</style></defs><title>icon-roundup-linkup</title><g id="Base_Dots" data-name="Base Dots"><circle class="cls-1" cx="125" cy="125" r="100"/></g><g id="Artwork"><rect class="cls-2" x="90" y="20" width="120" height="210"/><polyline class="cls-3" points="89.99 104 89.97 102.2 89.92 100.39 90 98.59 89.99 96.79 89.98 94.98 89.99 93.18 89.98 91.38 90.06 89.57 89.92 87.77 89.95 85.97 90 84.16 90.06 82.36 90.07 80.55 89.95 78.75 90.05 76.95 89.97 75.16 89.94 73.35 90.01 71.55 90.06 69.75 90.05 67.94 89.98 66.14 89.92 64.34 89.95 62.53 89.93 60.73 90 58.92 89.93 57.12 90.09 55.31 90 53.51 89.92 51.7 90.08 49.89 89.94 48.09 90.04 46.28 90.06 44.48 89.96 42.67 90.01 40.86 89.97 39.06 90 37.25 90.08 35.44 89.92 33.63 90.04 31.81 90.04 30 90.2 28.27 90.58 26.57 91.4 25.04 92.4 23.62 93.62 22.4 95.04 21.4 96.56 20.55 98.28 20.23 100 20.03 101.8 20.04 103.61 20.01 105.41 20.08 107.22 19.96 109.03 20.05 110.83 19.95 112.64 20.04 114.44 19.95 116.25 20.06 118.05 19.96 119.86 19.98 121.66 19.98 123.47 20.07 125.28 19.95 127.08 20.04 128.89 20.05 130.69 19.93 132.49 20.04 134.29 20.07 136.09 19.95 137.9 19.97 139.71 19.92 141.51 20 143.32 19.95 145.12 20 146.93 19.95 148.74 19.97 150.54 20.03 152.35 20 154.16 19.93 155.97 19.95 157.78 20.05 159.58 19.94 161.39 19.95 163.2 19.96 165.01 20 166.82 20.05 168.62 20.08 170.43 19.98 172.25 20.08 174.05 20.03 175.87 19.93 177.68 19.98 179.5 20.05"/><polyline class="cls-3" points="100.03 101 100 99.21 100 97.42 100.02 95.62 99.99 93.83 100.02 92.03 99.99 90.24 100.03 88.45 100 86.67 100.06 84.88 99.96 83.09 99.94 81.3 99.96 79.5 100.03 77.71 100.02 75.92 100.01 74.13 100.05 72.33 100.06 70.54 99.99 68.75 100.02 66.95 99.97 65.16 100.07 63.36 100.01 61.57 99.96 59.77 100.05 57.98 99.98 56.18 100.07 54.39 99.94 52.59 100.03 50.8 100.01 49 99.95 47.2 99.95 45.41 99.98 43.61 100.05 41.8 99.98 39.98 101.79 39.99 103.57 39.96 105.36 40.05 107.14 40.01 108.93 40.03 110.72 40 112.5 40.06 114.29 40.01 116.08 40.03 117.86 40.06 119.65 40.06 121.43 39.93 123.22 40.02 125 40.03 126.78 40.04 128.56 39.93 130.35 40.06 132.14 40.03 133.92 39.94 135.71 40.07 137.49 39.96 139.28 40 141.07 39.94 142.85 40.01 144.64 39.99 146.43 40.06 148.22 40.05 150.01 39.98 151.8 39.99 153.59 39.97 155.38 40.02 157.16 39.95 158.95 39.99 160.74 40.01 162.53 39.97 164.32 39.97 166.11 39.99 167.91 39.99 169.7 40.06 171.5 40.05"/><polygon class="cls-3" points="159.98 210 159.83 211.73 159.38 213.42 158.65 214.99 157.67 216.44 156.42 217.65 155 218.66 153.42 219.39 151.74 219.85 150 219.98 148.26 219.86 146.58 219.39 144.99 218.67 143.58 217.65 142.33 216.44 141.35 214.99 140.59 213.42 140.15 211.74 140 210 140.17 208.26 140.59 206.57 141.35 205 142.35 203.58 143.56 202.33 145 201.35 146.58 200.61 148.26 200.14 150 199.99 151.74 200.13 153.42 200.6 155.01 201.33 156.43 202.34 157.67 203.56 158.67 205 159.39 206.58 159.85 208.26 159.98 210"/><polygon class="cls-2" points="123.18 120.27 123.13 118.45 122.85 116.66 122.51 114.89 122.01 113.15 121.4 111.45 120.63 109.82 119.8 108.21 118.81 106.69 117.66 105.29 116.35 104.04 115.06 102.78 113.59 101.72 112.13 100.68 110.6 99.7 108.91 99.06 107.25 98.35 105.48 97.96 103.72 97.57 101.93 97.32 100.13 97.28 98.32 97.34 96.53 97.56 94.74 97.84 93.02 98.41 91.29 98.93 89.66 99.73 88.14 100.7 86.57 101.61 85.17 102.75 83.9 104.04 82.69 105.37 81.44 106.69 80.44 108.2 79.55 109.78 78.87 111.46 78.22 113.15 77.83 114.91 77.39 116.66 77.11 118.45 77.15 120.27 77.18 122.07 77.49 123.85 77.72 125.65 78.2 127.39 78.88 129.07 79.58 130.74 80.58 132.24 81.57 133.75 82.57 135.26 83.92 136.48 85.15 137.8 86.65 138.82 88.15 139.82 89.67 140.78 91.31 141.54 93.01 142.17 94.74 142.69 96.53 142.97 98.32 143.26 100.13 143.26 101.93 143.19 103.72 142.91 105.51 142.66 107.25 142.18 108.95 141.57 110.53 140.69 112.13 139.85 113.65 138.87 115.12 137.81 116.44 136.57 117.55 135.14 118.72 133.77 119.75 132.29 120.65 130.72 121.32 129.04 122.04 127.39 122.43 125.62 122.84 123.86 123.11 122.07 123.18 120.27"/><polygon class="cls-4" points="120.02 120.27 119.88 118.43 119.61 116.61 119.29 114.78 118.67 113.04 117.93 111.34 116.98 109.76 115.97 108.21 114.82 106.76 113.5 105.46 112.09 104.26 110.54 103.25 108.88 102.43 107.22 101.65 105.46 101.09 103.67 100.64 101.84 100.4 100 100.29 98.15 100.34 96.34 100.68 94.55 101.11 92.79 101.66 91.06 102.31 89.45 103.24 87.99 104.37 86.58 105.55 85.22 106.8 83.99 108.18 82.97 109.73 82.06 111.34 81.4 113.07 80.76 114.8 80.32 116.59 80.13 118.43 80.04 120.27 80.01 122.13 80.35 123.95 80.7 125.76 81.35 127.5 82.04 129.22 83.06 130.76 84 132.35 85.18 133.79 86.51 135.07 87.95 136.23 89.47 137.28 91.05 138.25 92.78 138.9 94.55 139.44 96.31 140 98.16 140.13 100 140.3 101.84 140.12 103.69 139.99 105.49 139.56 107.25 138.98 108.92 138.18 110.55 137.3 112.08 136.26 113.52 135.1 114.75 133.72 115.97 132.33 116.96 130.78 117.86 129.16 118.72 127.52 119.31 125.77 119.73 123.96 119.85 122.11 120.02 120.27"/><path class="cls-5" d="M102.52,119.83l2.05,1.2.68,1.91-1,2.27-1.56.82-1.74.33V128H99.36v-1.66L97.72,126l-1.46-.81-1-1.23L95,122.39h2.15l.56,1.36,1.65.58v-3.56l-.91-.33-1.26-.49-1.13-.74-.84-2,1-2.19,1.47-.73,1.64-.28,0-1.41h1.55V114l1.45.33,1.27.77.78,1.1.41,1.3h-2.15l-.54-1-1.23-.59v3.34Zm-4.5-3.5-.46.91.3.83,1,.51.56.24v-3Zm4.35,7.54.46-1-1.33-1.56-.58-.2,0,1.6v1.61Z"/><polyline class="cls-3" points="131 190.04 132.81 190 134.63 190 136.44 190.03 138.26 189.99 140.07 190.04 141.88 189.99 143.7 190.06 145.51 190 147.33 190.11 149.14 189.93 150.95 189.9 152.76 189.93 154.57 190.04 156.39 190.03 158.2 190.02 160.02 190.08 161.83 190.11 163.64 189.99 165.46 190.03 167.27 189.95 169.09 190.11 170.9 190.02 172.72 189.94 174.54 190.09 176.35 189.97 178.17 190.12 179.99 189.9 181.81 190.06 183.62 190.02 185.44 189.92 187.25 189.92 189.07 189.97 190.89 190.09 192.71 189.96 194.53 189.98 196.35 189.94 198.18 190.09 200.01 190.01 200.04 188.21 199.99 186.41 200.11 184.62 200.02 182.83 200.06 181.03 200.11 179.24 200.11 177.45 199.89 175.65 200.04 173.86 200.04 172.06 200.07 170.27 199.88 168.48 200.11 166.69 200.05 164.9 199.9 163.11 200.12 161.32 199.94 159.52 200 157.73 199.9 155.94 200.02 154.15 199.98 152.35 200.11 150.56 200.09 148.76 199.96 146.97 199.98 145.17 199.94 143.38 200.03 141.58 199.91 139.78 199.98 137.99 200.01 136.19 199.95 134.4 199.95 132.6 199.99 130.8 199.98 129.01 200.09 127.21 200.09 125.41 200.01 123.61 200 121.8 200.05 120 200.02 118.2 199.92 116.39 199.92 114.58 199.99 112.78 199.94 110.97 199.88 109.17 200.01 107.36 200.07 105.56 200.11 103.75 199.92 101.95 200 100.14 199.94 98.33 199.92 96.53 200.02 94.71 200 92.9 199.89 91.09 199.91 89.29 200.08 87.49 199.99 85.69 200.03 83.9 199.99 82.1 200.09 80.31 200.05 78.51 200.01 76.71 199.89 74.91 199.96 73.11 199.9 71.31 200 69.5"/><polyline class="cls-3" points="209.96 67.76 209.93 69.56 209.91 71.35 210.15 73.14 210.06 74.93 210 76.72 209.86 78.52 209.89 80.31 210.16 82.1 210.05 83.9 209.99 85.69 209.94 87.49 210.11 89.29 209.94 91.09 210.11 92.89 210.02 94.7 209.9 96.5 210.04 98.31 209.9 100.11 209.87 101.92 210.14 103.73 210.14 105.53 209.99 107.33 209.93 109.14 210.14 110.95 209.97 112.76 209.91 114.56 209.9 116.37 210.15 118.19 209.92 120 210.01 121.78 209.96 123.57 209.92 125.35 210.01 127.13 210.06 128.91 210.14 130.7 210.01 132.48 210.03 134.26 210.03 136.05 210.02 137.84 210.03 139.62 209.9 141.4 210.15 143.19 210.09 144.97 210 146.75 209.89 148.54 209.88 150.33 210.09 152.11 209.91 153.9 210.06 155.68 210.1 157.46 209.99 159.25 209.88 161.04 209.91 162.82 210.04 164.61 210.15 166.39 210.09 168.18 210.13 169.96 210.01 171.74 210.13 173.53 209.84 175.31 210 177.09 210.14 178.87 209.86 180.66 210.12 182.44 209.92 184.23 209.9 186.01 210.07 187.8 209.98 189.59 210.05 191.37 210 193.16 209.86 194.95 210.14 196.73 209.94 198.52 209.93 200.31 209.91 202.1 210.03 203.89 209.87 205.67 209.86 207.46 209.86 209.25 209.87 211.04 210.11 212.83 209.85 214.62 209.95 216.41 209.93 218.2 209.98 220 209.71 221.71 209.47 223.45 208.58 224.96 207.73 226.49 206.39 227.61 205.05 228.75 203.39 229.3 201.75 229.93 200 230.03 198.22 230.04 196.43 229.87 194.65 230.08 192.87 229.93 191.09 229.92 189.3 230.12 187.52 229.92 185.74 229.88 183.95 230.09 182.16 230.05 180.38 230.14 178.6 230 176.81 230.09 175.03 230 173.25 230.1 171.46 230.05 169.67 229.95 167.89 229.99 166.1 230.13 164.32 230.09 162.54 229.92 160.75 230.11 158.96 230.1 157.18 230.07 155.39 230 153.61 229.91 151.82 229.85 150.04 230.04 148.26 229.85 146.47 229.95 144.69 230.13 142.91 230.04 141.13 229.91 139.34 229.96 137.56 229.93 135.77 229.94 133.99 230.04 132.2 229.96 130.41 229.91 128.63 229.85 126.84 229.98 125.05 230.15 123.27 230.13 121.48 230 119.69 230.07 117.9 230.03 116.11 229.97 114.33 229.9 112.54 229.9 110.75 230.02 108.96 230.03 107.17 230.09 105.38 230.12 103.59 229.95 101.8 230.13 100 230.09 98.24 229.97 96.61 229.31 95.02 228.63 93.63 227.59 92.23 226.52 91.37 224.98 90.67 223.4 90.15 221.74 89.91 220 89.96 218.23 89.84 216.46 90.05 214.69 90.13 212.92 90.01 211.15 89.87 209.38 90.13 207.6 89.99 205.83 89.98 204.06 89.84 202.28 90.15 200.5"/><rect class="cls-2" x="20" y="130" width="110" height="70" rx="10.45" ry="10.45"/><rect class="cls-2" x="37" y="107" width="76" height="116" rx="13.45" ry="13.45" transform="translate(240 90) rotate(90)"/><rect class="cls-2" x="20" y="130" width="110" height="70" rx="10.45" ry="10.45"/><polygon class="cls-3" points="119.51 200.03 117.7 199.98 115.88 200.03 114.06 199.97 112.25 200.03 110.44 200 108.62 199.94 106.81 199.9 104.99 200.06 103.18 199.99 101.36 200 99.54 199.91 97.73 199.98 95.91 200.02 94.1 200.01 92.28 200.09 90.47 199.93 88.65 199.97 86.83 199.98 85.02 200.09 83.2 199.92 81.39 200.02 79.57 200.07 77.76 200.09 75.95 199.9 74.14 200.09 72.32 200.06 70.5 199.93 68.69 200.03 66.88 200 65.06 200.09 63.24 199.92 61.42 199.96 59.61 200.09 57.79 199.89 55.97 200.06 54.16 199.95 52.34 199.95 50.52 200.09 48.7 200.1 46.88 200.11 45.06 199.97 43.24 199.91 41.43 200.03 39.61 199.91 37.78 200.1 35.97 199.91 34.14 200.01 32.31 199.93 30.49 199.91 28.66 199.88 26.92 199.3 25.22 198.64 23.77 197.52 22.46 196.24 21.37 194.78 20.65 193.09 20.1 191.34 20.1 189.51 20.08 187.7 20 185.89 20.04 184.08 19.94 182.27 20.02 180.45 20.11 178.64 20.05 176.83 19.99 175.02 20.07 173.2 19.98 171.39 19.92 169.57 19.98 167.76 19.92 165.94 19.92 164.13 19.94 162.31 20 160.49 20.1 158.68 19.98 156.86 19.95 155.05 20.03 153.23 20.05 151.41 19.94 149.59 20.06 147.78 20.07 145.96 19.98 144.14 19.94 142.31 20.01 140.49 20.14 138.66 20.69 136.92 21.38 135.23 22.37 133.68 23.68 132.38 25.21 131.35 26.87 130.56 28.67 130.17 30.49 130.02 32.3 129.95 34.12 129.92 35.94 130.05 37.75 130.04 39.56 130.05 41.38 129.97 43.19 130.07 45.01 130.1 46.82 129.94 48.64 130.11 50.46 130.07 52.27 130.01 54.09 129.96 55.9 130.11 57.72 129.95 59.53 130.03 61.35 129.94 63.17 130 64.98 130.03 66.8 130.01 68.61 130.06 70.43 129.94 72.24 129.91 74.05 129.94 75.86 130.1 77.68 130.07 79.5 130.05 81.31 130.09 83.13 130.04 84.94 129.93 86.76 130.08 88.58 130.1 90.39 129.93 92.21 129.97 94.03 130.06 95.84 130.02 97.66 129.98 99.48 130.01 101.3 130.07 103.12 130.03 104.94 129.9 106.76 129.94 108.57 129.96 110.39 129.97 112.22 129.98 114.03 129.98 115.86 129.96 117.69 130 119.51 129.9 121.33 130.18 123.11 130.61 124.7 131.5 126.32 132.38 127.53 133.76 128.61 135.24 129.44 136.87 129.76 138.68 129.95 140.49 129.91 142.3 129.91 144.11 130.04 145.92 130.07 147.73 130.06 149.55 129.96 151.36 130.07 153.17 130.05 154.98 129.9 156.8 130.05 158.61 129.97 160.43 129.96 162.24 130.05 164.06 129.94 165.88 130.08 167.69 129.9 169.51 130.09 171.32 130.01 173.14 130.01 174.95 130.08 176.77 130 178.59 130 180.41 129.9 182.22 129.93 184.04 130 185.86 129.94 187.69 130 189.51 129.86 191.34 129.36 193.1 128.53 194.72 127.55 196.26 126.27 197.56 124.72 198.54 123.1 199.36 121.34 199.87 119.51 200.03"/><polyline class="cls-3" points="30 188 31.82 188.01 33.63 187.99 35.45 188 37.26 187.99 39.08 188.02 40.9 188.01 42.72 188 44.53 188.01 46.35 187.99 48.18 188.02 50 188"/><polyline class="cls-3" points="60 188.01 61.82 188.02 63.63 187.98 65.44 188.02 67.26 188 69.08 187.98 70.89 188.01 72.72 187.98 74.53 188.02 76.35 188.02 78.18 187.99 80 188"/><polyline class="cls-3" points="30 177.98 31.78 178 33.56 178.03 35.34 177.98 37.12 177.98 38.91 177.98 40.69 177.98 42.47 177.97 44.26 178.02 46.04 177.97 47.82 177.97 49.61 178 51.39 177.99 53.18 178.01 54.97 178.01 56.75 177.97 58.54 177.99 60.32 178.03 62.11 177.97 63.9 177.96 65.68 177.96 67.47 177.99 69.25 178 71.04 178.03 72.83 178.04 74.62 177.96 76.41 177.98 78.21 178.04 80 178"/><polygon class="cls-3" points="114.21 177.1 112.58 177 110.99 177.31 109.5 177.96 107.5 177.95 106.02 177.28 104.41 177.03 102.79 177.11 101.19 177.59 99.73 178.41 98.56 179.61 97.66 181.01 97.15 182.6 97.02 184.36 97.33 186.1 98.05 187.72 99.17 189.09 100.61 190.12 102.25 190.78 104 191 105.82 190.75 107.52 190.06 109.48 190.07 111.18 190.75 113 191.02 114.75 190.77 116.39 190.12 117.83 189.09 118.92 187.7 119.66 186.1 120.01 184.37 119.87 182.6 119.33 181.02 118.46 179.59 117.25 178.43 115.82 177.57 114.21 177.1"/><polyline class="cls-2" points="130 154.94 128.2 154.9 126.4 155.03 124.6 155.09 122.8 154.97 120.99 155.02 119.19 154.97 117.39 154.98 115.59 155.08 113.79 155.06 111.99 155.03 110.19 154.95 108.39 155.07 106.59 155.09 104.78 154.95 102.98 155.11 101.18 155.01 99.38 154.95 97.58 155.05 95.77 155.03 93.97 155 92.17 155.1 90.36 155.06 88.56 154.9 86.76 154.96 84.96 155.04 83.16 154.98 81.35 154.97 79.55 154.94 77.75 155.06 75.94 155.07 74.14 155.08 72.34 154.97 70.53 155.05 68.73 155.03 66.94 155.05 65.14 154.95 63.34 155.05 61.53 154.91 59.73 154.96 57.93 154.94 56.13 155.1 54.33 154.95 52.52 155.06 50.72 154.99 48.91 155.03 47.11 155.1 45.3 155.07 43.5 155.09 41.69 154.98 39.89 155.02 38.08 155.07 36.27 154.9 34.47 155.06 32.66 154.95 30.86 155.03 29.05 155.02 27.24 154.9 25.44 154.95 23.63 154.98 21.81 154.97 20 154.92"/><polyline class="cls-3" points="130 154.94 128.2 154.9 126.4 155.03 124.6 155.09 122.8 154.97 120.99 155.02 119.19 154.97 117.39 154.98 115.59 155.08 113.79 155.06 111.99 155.03 110.19 154.95 108.39 155.07 106.59 155.09 104.78 154.95 102.98 155.11 101.18 155.01 99.38 154.95 97.58 155.05 95.77 155.03 93.97 155 92.17 155.1 90.36 155.06 88.56 154.9 86.76 154.96 84.96 155.04 83.16 154.98 81.35 154.97 79.55 154.94 77.75 155.06 75.94 155.07 74.14 155.08 72.34 154.97 70.53 155.05 68.73 155.03 66.94 155.05 65.14 154.95 63.34 155.05 61.53 154.91 59.73 154.96 57.93 154.94 56.13 155.1 54.33 154.95 52.52 155.06 50.72 154.99 48.91 155.03 47.11 155.1 45.3 155.07 43.5 155.09 41.69 154.98 39.89 155.02 38.08 155.07 36.27 154.9 34.47 155.06 32.66 154.95 30.86 155.03 29.05 155.02 27.24 154.9 25.44 154.95 23.63 154.98 21.81 154.97 20 154.92"/><polyline class="cls-2" points="130 145.1 128.2 145.03 126.4 145.09 124.6 145 122.8 145.08 120.99 144.92 119.19 145.07 117.39 145.03 115.59 144.98 113.79 145.02 111.99 145.02 110.19 145.04 108.39 144.99 106.59 144.91 104.78 144.94 102.98 144.91 101.18 145 99.38 144.9 97.58 145.1 95.77 144.99 93.97 145.09 92.17 145.04 90.36 144.93 88.56 145.08 86.76 145.11 84.96 144.94 83.16 144.89 81.35 144.95 79.55 145 77.75 144.94 75.94 145.02 74.14 144.97 72.34 145.01 70.53 144.91 68.73 145.1 66.94 144.99 65.14 145.09 63.34 144.97 61.53 144.96 59.73 144.97 57.93 145 56.13 144.94 54.33 145.05 52.52 144.96 50.72 144.94 48.91 145 47.11 144.94 45.3 144.95 43.5 144.96 41.69 144.94 39.89 145.09 38.08 144.94 36.27 145.03 34.47 144.9 32.66 144.94 30.86 144.95 29.05 145.02 27.24 144.92 25.44 144.96 23.63 144.95 21.81 144.91 20 144.94"/><polyline class="cls-3" points="130 145.1 128.2 145.03 126.4 145.09 124.6 145 122.8 145.08 120.99 144.92 119.19 145.07 117.39 145.03 115.59 144.98 113.79 145.02 111.99 145.02 110.19 145.04 108.39 144.99 106.59 144.91 104.78 144.94 102.98 144.91 101.18 145 99.38 144.9 97.58 145.1 95.77 144.99 93.97 145.09 92.17 145.04 90.36 144.93 88.56 145.08 86.76 145.11 84.96 144.94 83.16 144.89 81.35 144.95 79.55 145 77.75 144.94 75.94 145.02 74.14 144.97 72.34 145.01 70.53 144.91 68.73 145.1 66.94 144.99 65.14 145.09 63.34 144.97 61.53 144.96 59.73 144.97 57.93 145 56.13 144.94 54.33 145.05 52.52 144.96 50.72 144.94 48.91 145 47.11 144.94 45.3 144.95 43.5 144.96 41.69 144.94 39.89 145.09 38.08 144.94 36.27 145.03 34.47 144.9 32.66 144.94 30.86 144.95 29.05 145.02 27.24 144.92 25.44 144.96 23.63 144.95 21.81 144.91 20 144.94"/><polygon class="cls-2" points="186.09 179.98 184.25 179.97 182.4 179.97 180.55 179.98 178.71 180.02 176.86 179.97 175.01 179.99 173.17 179.99 171.32 180 169.47 179.97 167.62 180.01 165.76 179.98 163.91 180.02 161.96 179.47 160.51 178.06 160.02 176.09 159.99 174.21 160 172.34 159.99 170.46 160.02 168.58 159.99 166.7 160.01 164.82 160.01 162.94 159.98 161.06 160.01 159.18 160.02 157.29 159.98 155.41 160.51 153.45 161.94 152 163.91 151.5 165.75 151.48 167.6 151.5 169.45 151.48 171.29 151.49 173.14 151.51 174.99 151.5 176.83 151.47 178.68 151.48 180.53 151.51 182.38 151.48 184.24 151.48 186.09 151.49 188.05 152.02 189.46 153.46 189.97 155.41 190.01 157.29 189.97 159.16 189.99 161.04 190.02 162.92 190.01 164.8 189.98 166.68 189.99 168.56 189.99 170.44 189.99 172.32 190.01 174.21 189.99 176.09 189.46 178.04 188.03 179.45 186.09 179.98"/><polygon class="cls-3" points="186.09 179.98 184.25 179.97 182.4 179.97 180.55 179.98 178.71 180.02 176.86 179.97 175.01 179.99 173.17 179.99 171.32 180 169.47 179.97 167.62 180.01 165.76 179.98 163.91 180.02 161.96 179.47 160.51 178.06 160.02 176.09 159.99 174.21 160 172.34 159.99 170.46 160.02 168.58 159.99 166.7 160.01 164.82 160.01 162.94 159.98 161.06 160.01 159.18 160.02 157.29 159.98 155.41 160.51 153.45 161.94 152 163.91 151.5 165.75 151.48 167.6 151.5 169.45 151.48 171.29 151.49 173.14 151.51 174.99 151.5 176.83 151.47 178.68 151.48 180.53 151.51 182.38 151.48 184.24 151.48 186.09 151.49 188.05 152.02 189.46 153.46 189.97 155.41 190.01 157.29 189.97 159.16 189.99 161.04 190.02 162.92 190.01 164.8 189.98 166.68 189.99 168.56 189.99 170.44 189.99 172.32 190.01 174.21 189.99 176.09 189.46 178.04 188.03 179.45 186.09 179.98"/><polyline class="cls-3" points="167.5 171.42 169.37 171.43 171.24 171.42 173.12 171.43 174.99 171.42 176.86 171.43 178.74 171.42 180.62 171.42 182.5 171.42"/><polyline class="cls-3" points="168 164.5 169.87 164.51 171.74 164.5 173.62 164.51 175.49 164.51 177.36 164.49 179.24 164.5 181.12 164.51 183 164.5"/><polyline class="cls-3" points="167.48 151 167.48 149 167.51 147 167.84 144.67 168.94 142.6 170.61 140.95 172.68 139.85 175 139.47 177.32 139.87 179.39 140.95 181.07 142.59 182.16 144.68 182.5 147 182.5 149 182.47 151"/><path class="cls-3" d="M120.5,107.5l7.72-5.4a4.57,4.57,0,0,1,4.75-.3L144.69,108a4.57,4.57,0,0,0,6.47-2.64l6.7-20.77a4.57,4.57,0,0,1,6.39-2.68l10.85,5.42A4.57,4.57,0,0,0,181.37,85L187,71.31"/><polygon class="cls-2" points="228.23 42 228.21 40.2 227.95 38.42 227.7 36.65 227.31 34.9 226.85 33.16 226.25 31.47 225.64 29.78 224.87 28.15 223.95 26.61 222.85 25.19 221.85 23.7 220.62 22.4 219.44 21.05 218.23 19.72 216.75 18.7 215.38 17.54 213.8 16.68 212.27 15.75 210.68 14.93 209.02 14.27 207.33 13.68 205.6 13.21 203.86 12.74 202.07 12.58 200.3 12.27 198.5 12.28 196.71 12.46 194.91 12.46 193.14 12.77 191.41 13.26 189.69 13.75 187.93 14.15 186.27 14.84 184.66 15.63 183.14 16.6 181.63 17.56 180.26 18.73 178.81 19.78 177.44 20.95 176.31 22.35 175.12 23.69 174.17 25.21 173.06 26.63 172.16 28.18 171.44 29.82 170.69 31.45 170.27 33.2 169.76 34.92 169.2 36.63 169.14 38.43 168.81 40.2 168.92 42 168.98 43.79 169.01 45.58 169.28 47.36 169.66 49.11 170.11 50.85 170.77 52.52 171.37 54.21 172.23 55.79 173.11 57.35 174.17 58.8 175.12 60.32 176.26 61.71 177.48 63.03 178.9 64.13 180.23 65.32 181.65 66.42 183.1 67.48 184.68 68.34 186.37 68.95 187.99 69.72 189.67 70.34 191.39 70.85 193.16 71.1 194.92 71.5 196.71 71.53 198.5 71.65 200.3 71.68 202.07 71.42 203.86 71.26 205.63 70.9 207.3 70.23 208.99 69.65 210.69 69.07 212.32 68.32 213.8 67.3 215.37 66.44 216.84 65.4 218.22 64.26 219.4 62.9 220.75 61.71 221.85 60.29 222.94 58.87 223.94 57.38 224.76 55.78 225.52 54.16 226.15 52.49 226.82 50.83 227.29 49.1 227.66 47.35 227.94 45.58 228.09 43.79 228.23 42"/><polygon class="cls-4" points="224.16 42.01 224.03 40.25 223.83 38.5 223.66 36.74 223.2 35.04 222.68 33.36 221.96 31.74 221.25 30.13 220.44 28.56 219.46 27.1 218.41 25.67 217.2 24.39 215.88 23.22 214.59 22.03 213.16 21 211.72 20 210.18 19.15 208.61 18.36 206.98 17.67 205.27 17.25 203.57 16.84 201.84 16.51 200.1 16.19 198.34 16.17 196.58 16.36 194.83 16.55 193.08 16.74 191.35 17.09 189.68 17.66 188.03 18.3 186.5 19.17 184.93 19.97 183.44 20.91 182.09 22.04 180.76 23.19 179.41 24.34 178.34 25.74 177.2 27.09 176.29 28.61 175.35 30.1 174.75 31.77 173.97 33.35 173.42 35.03 173.04 36.75 172.79 38.5 172.6 40.25 172.44 42.01 172.63 43.77 172.88 45.51 172.99 47.28 173.56 48.96 173.99 50.67 174.75 52.26 175.37 53.91 176.25 55.45 177.2 56.93 178.33 58.29 179.46 59.64 180.7 60.9 182.01 62.09 183.49 63.05 184.92 64.07 186.5 64.86 188.08 65.61 189.67 66.41 191.35 66.95 193.07 67.36 194.83 67.48 196.57 67.75 198.34 67.91 200.1 67.84 201.84 67.48 203.61 67.37 205.31 66.89 206.99 66.36 208.62 65.68 210.17 64.85 211.77 64.1 213.16 63.01 214.59 61.98 215.93 60.85 217.16 59.59 218.3 58.25 219.41 56.88 220.47 55.47 221.31 53.91 222.09 52.33 222.64 50.65 223.18 48.97 223.51 47.24 223.89 45.52 224.07 43.77 224.16 42.01"/><path class="cls-5" d="M201.59,41.43,203,42l1.22.94.86,2.47-.34,1.61-1,1.31-1.28.83-1.46.44-1.51.22v2.09h-2V49.82l-2.1-.44-1.88-1-1.26-1.59-.37-2,1.38,0h1.4l.72,1.75,2.14.75,0-1.53,0-1.53V42.63l-1.17-.42-1.62-.66-1.47-.93-.83-1.19L192.13,38l.36-1.57,1-1.23,1.89-.95,2.08-.38,0-1.78,2,0V33.9l1.87.42,1.64,1,1,1.43.53,1.68-1.39,0h-1.38l-.7-1.26-1.59-.77v4.32Zm-5.8-4.5-.56,1.17.36,1.06,1.21.69.72.27V38.2l0-1.9Zm5.6,9.72L202,45.4l-.5-1.27-1.19-.74-.76-.27V45.2l0,2.07Z"/></g></svg>
