<svg xmlns="http://www.w3.org/2000/svg" viewBox="0 0 250 250"><defs><style>.cls-1{fill:#f8f8f8;}.cls-2{fill:#fff;}.cls-3{fill:none;stroke:#3e82f7;stroke-miterlimit:10;stroke-width:3px;}.cls-4{fill:#3e82f7;}</style></defs><title>icon-flash-create</title><g id="Base_Dots" data-name="Base Dots"><circle class="cls-1" cx="125" cy="125" r="100"/></g><g id="Artwork"><polygon class="cls-2" points="119.75 133.06 117.87 133.05 116.05 132.62 114.38 131.76 112.61 131.1 111.29 129.76 110.07 128.38 108.71 127.09 107.72 125.49 107.29 123.66 107.07 121.82 106.69 120 106.58 118.2 106.74 116.4 106.77 114.6 106.95 112.81 106.59 111.01 106.67 109.21 106.98 107.41 106.9 105.61 106.89 103.82 106.82 102.02 106.69 100.22 106.74 98.42 106.63 96.62 106.73 94.82 106.93 93.02 106.75 91.22 106.89 89.42 106.78 87.63 106.57 85.83 106.97 84.03 106.95 82.23 106.62 80.43 106.72 78.63 106.73 76.84 106.93 75.04 106.56 73.25 106.92 71.45 106.59 69.65 106.72 67.85 106.72 66.05 106.59 64.25 106.52 62.45 106.95 60.65 106.88 58.85 106.72 57.05 106.78 55.25 106.55 53.45 106.73 51.65 106.8 49.84 106.63 48.04 106.98 46.24 106.86 44.44 106.55 42.64 106.81 40.84 106.64 39.03 106.93 37.23 106.77 35.43 106.81 33.62 106.61 31.81 106.73 30 106.93 28.16 107.24 26.33 108.07 24.66 108.83 22.99 109.81 21.39 111.17 20.09 112.76 19.13 114.34 18.15 116.03 17.32 117.91 17.2 119.75 17.15 121.54 17.19 123.32 17.12 125.11 16.8 126.89 17.18 128.67 17.16 130.45 16.94 132.23 16.83 134.02 17.03 135.81 17.08 137.59 17.17 139.37 17.21 141.16 17.09 142.94 17.17 144.73 17.15 146.52 16.94 148.3 16.82 150.09 16.85 151.88 17.08 153.67 17.11 155.46 16.87 157.24 16.79 159.03 17.01 160.82 16.77 162.61 16.84 164.39 17.03 166.18 17.15 167.97 17.22 169.76 17.02 171.56 17 173.35 17.04 175.15 16.79 176.86 17.01 178.47 17.64 180.1 18.1 181.62 18.85 183.04 19.77 184.25 20.95 185.64 21.99 186.95 23.12 188.02 24.48 189.27 25.66 190.29 27.09 191.79 28.02 192.81 29.45 194.12 30.58 195.42 31.73 196.67 32.92 197.87 34.17 198.91 35.58 200.14 36.76 200.96 38.25 201.78 39.73 202.24 41.35 202.52 43.01 202.68 44.69 202.73 46.48 202.78 48.27 202.86 50.06 202.52 51.86 202.56 53.65 202.88 55.44 202.79 57.23 202.68 59.02 202.77 60.81 202.87 62.61 202.84 64.4 202.7 66.19 202.53 67.98 202.86 69.77 202.95 71.56 202.65 73.35 202.88 75.14 202.77 76.93 202.82 78.72 202.86 80.51 202.61 82.3 202.54 84.09 202.75 85.89 202.54 87.68 202.83 89.47 202.76 91.26 202.96 93.06 202.59 94.85 202.61 96.64 202.61 98.44 202.97 100.23 202.85 102.03 202.87 103.83 202.96 105.62 202.68 107.41 202.9 109.21 202.93 111 202.59 112.8 202.8 114.6 202.65 116.39 202.7 118.2 202.85 120 202.78 121.87 202.08 123.62 201.54 125.38 200.63 126.99 199.64 128.57 198.25 129.81 196.68 130.79 195.09 131.71 193.36 132.29 191.59 132.82 189.75 133.21 187.96 133.09 186.16 133.19 184.37 133.09 182.58 133.12 180.78 133.05 178.99 132.95 177.2 133.2 175.4 133.22 173.61 133.14 171.81 132.82 170.02 132.9 168.23 133.2 166.44 133.22 164.65 132.99 162.86 132.82 161.07 132.91 159.27 132.89 157.48 133.17 155.69 133.01 153.9 132.95 152.1 133.12 150.31 133.11 148.51 132.78 146.72 133.03 144.92 132.83 143.13 133.01 141.33 132.82 139.53 133.21 137.74 132.87 135.94 132.83 134.15 132.92 132.35 133.03 130.55 133.01 128.76 132.79 126.96 133.07 125.16 133.22 123.36 132.81 121.56 133.15 119.75 133.06"/><polygon class="cls-2" points="199.64 44.69 199.79 46.48 199.71 48.27 199.87 50.06 199.75 51.86 199.62 53.65 199.57 55.44 199.82 57.23 199.75 59.02 199.58 60.81 199.72 62.61 199.66 64.4 199.53 66.19 199.89 67.98 199.96 69.77 199.77 71.56 199.79 73.35 199.84 75.14 199.79 76.93 199.67 78.72 199.75 80.51 199.73 82.3 199.92 84.09 199.62 85.89 199.73 87.68 199.73 89.47 199.89 91.26 199.72 93.06 199.7 94.85 199.79 96.64 199.95 98.44 199.88 100.23 199.78 102.03 199.67 103.83 199.63 105.62 199.91 107.41 199.68 109.21 199.77 111 199.71 112.8 199.57 114.6 199.93 116.39 199.94 118.2 199.9 120 199.72 121.76 199.34 123.49 198.43 125.02 197.36 126.39 196.27 127.77 194.69 128.55 193.11 129.24 191.47 129.76 189.75 129.89 187.96 129.93 186.16 130.09 184.37 130.08 182.58 129.9 180.78 129.86 178.99 130.16 177.2 130.15 175.4 130.17 173.61 129.81 171.81 129.83 170.02 129.79 168.23 130.16 166.44 130.19 164.65 129.85 162.86 130 161.07 129.83 159.27 129.85 157.48 129.83 155.69 130.18 153.9 129.86 152.1 130.03 150.31 129.92 148.51 129.81 146.72 130.22 144.92 129.81 143.13 130.15 141.33 129.78 139.53 130.03 137.74 130.11 135.94 130.13 134.15 130.05 132.35 130.09 130.55 129.81 128.76 129.99 126.96 130.01 125.16 130 123.36 130 121.55 130.17 119.75 130.13 118 129.92 116.34 129.38 114.82 128.54 113.26 127.73 112.1 126.42 111.19 124.94 110.16 123.49 109.89 121.74 109.83 120 109.94 118.2 109.69 116.4 109.78 114.6 109.7 112.81 109.71 111.01 109.89 109.21 109.74 107.41 109.79 105.61 109.57 103.82 109.93 102.02 109.54 100.22 109.62 98.42 109.63 96.62 109.95 94.82 109.83 93.02 109.95 91.22 109.58 89.42 109.87 87.63 109.55 85.83 109.78 84.03 109.63 82.23 109.77 80.43 109.97 78.63 109.84 76.84 109.72 75.04 109.75 73.25 109.86 71.45 109.56 69.65 109.65 67.85 109.79 66.05 109.77 64.25 109.8 62.45 109.86 60.65 109.86 58.85 109.91 57.05 109.62 55.25 109.74 53.45 109.82 51.65 109.78 49.84 109.7 48.04 109.96 46.24 109.89 44.44 109.7 42.64 109.89 40.84 109.78 39.03 109.95 37.23 109.58 35.43 109.61 33.62 109.54 31.81 109.63 30 109.8 28.25 110.44 26.61 110.95 24.92 112.14 23.62 113.31 22.33 114.76 21.35 116.33 20.59 118.04 20.32 119.75 20.19 121.54 20.11 123.32 20.07 125.11 20.14 126.89 20.13 128.67 20.02 130.45 19.79 132.23 20.01 134.02 20.04 135.81 19.9 137.59 19.99 139.37 19.98 141.16 19.9 142.94 20.04 144.73 20.21 146.52 20.07 148.3 20 150.09 20.21 151.88 20.09 153.67 19.83 155.46 19.93 157.24 19.92 159.03 19.98 160.82 20.07 162.61 19.83 164.39 19.82 166.18 20.16 167.97 20.12 169.76 20.11 171.56 20.2 173.35 20.04 175.15 20.01 177.14 20.01 178.91 20.94 180.71 21.71 182.33 22.86 183.44 24.18 184.75 25.3 185.86 26.63 187.01 27.91 188.46 28.91 189.41 30.4 190.66 31.58 191.95 32.74 193.09 34.04 194.46 35.12 195.63 36.4 196.77 37.71 198.09 39.14 198.92 40.9 199.59 42.74 199.64 44.69"/><polygon class="cls-3" points="199.56 44.69 199.66 46.48 199.65 48.27 199.68 50.06 199.59 51.86 199.83 53.65 199.96 55.44 199.77 57.23 199.82 59.02 199.55 60.81 199.94 62.61 199.67 64.4 199.79 66.19 199.9 67.98 199.95 69.77 199.91 71.56 199.67 73.35 199.82 75.14 199.68 76.93 199.75 78.72 199.68 80.51 199.64 82.3 199.68 84.09 199.73 85.89 199.78 87.68 199.85 89.47 199.54 91.26 199.57 93.06 199.87 94.85 199.79 96.64 199.68 98.44 199.77 100.23 199.86 102.03 199.84 103.83 199.7 105.62 199.55 107.41 199.86 109.21 199.94 111 199.66 112.8 199.88 114.6 199.77 116.39 199.82 118.2 199.85 120 199.47 121.71 198.97 123.35 198.41 125 197.26 126.3 196.23 127.72 194.75 128.67 193.24 129.58 191.46 129.7 189.75 129.86 187.96 129.87 186.16 130.21 184.37 130.1 182.58 130.11 180.78 130.2 178.99 129.93 177.2 130.14 175.4 130.17 173.61 129.85 171.81 130.05 170.02 129.9 168.23 129.95 166.44 130.09 164.65 130.15 162.86 129.85 161.07 129.96 159.27 129.94 157.48 130.09 155.69 129.98 153.9 129.84 152.1 129.88 150.31 129.81 148.51 129.95 146.72 130.2 144.92 130.09 143.13 130.18 141.33 130.09 139.53 130.12 137.74 130.05 135.94 129.95 134.15 130.19 132.35 130.21 130.55 130.13 128.76 129.83 126.96 129.9 125.16 130.19 123.36 130.21 121.55 129.99 119.75 129.83 118.03 129.76 116.36 129.3 114.67 128.8 113.32 127.66 112.13 126.39 110.99 125.06 110.25 123.46 110.1 121.7 109.72 120 109.91 118.2 109.74 116.4 109.92 114.6 109.55 112.81 109.88 111.01 109.91 109.21 109.83 107.41 109.72 105.61 109.74 103.82 109.95 102.02 109.68 100.22 109.54 98.42 109.93 96.62 109.6 94.82 109.83 93.02 109.56 91.22 109.89 89.42 109.87 87.63 109.9 85.83 109.74 84.03 109.82 82.23 109.85 80.43 109.92 78.63 109.64 76.84 109.79 75.04 109.61 73.25 109.6 71.45 109.94 69.65 109.96 67.85 109.95 66.05 109.56 64.25 109.74 62.45 109.97 60.65 109.94 58.85 109.56 57.05 109.96 55.25 109.82 53.45 109.84 51.65 109.75 49.84 109.58 48.04 109.86 46.24 109.56 44.44 109.65 42.64 109.71 40.84 109.67 39.03 109.62 37.23 109.73 35.43 109.96 33.62 109.9 31.81 109.94 30 109.88 28.26 110.34 26.57 110.92 24.9 112.08 23.57 113.32 22.33 114.74 21.32 116.28 20.48 118.04 20.3 119.75 20.19 121.54 20.03 123.32 19.82 125.11 20.17 126.89 20.06 128.67 20.16 130.45 19.92 132.23 20.17 134.02 19.93 135.81 20 137.59 19.91 139.37 19.91 141.16 20.05 142.94 19.93 144.73 20.03 146.52 19.85 148.3 19.88 150.09 20.13 151.88 20.02 153.67 20.04 155.46 20.06 157.24 20.18 159.03 20.07 160.82 19.99 162.61 19.92 164.39 20.07 166.18 20.18 167.97 19.92 169.76 19.95 171.56 19.81 173.35 20.09 175.15 19.93 177.07 20.37 179.04 20.64 180.62 21.84 182.37 22.81 183.4 24.22 184.6 25.46 185.93 26.56 187.15 27.78 188.46 28.91 189.38 30.43 190.8 31.45 191.83 32.86 193.04 34.09 194.42 35.16 195.58 36.45 196.73 37.75 198.14 39.11 199.18 40.8 199.66 42.73 199.56 44.69"/><polygon class="cls-2" points="139.88 199.82 138.2 199.89 136.4 200.15 134.6 199.87 132.79 199.9 130.99 199.9 129.19 200.09 127.39 199.85 125.59 199.82 123.79 199.99 121.99 200.13 120.19 199.74 118.39 199.78 116.59 199.9 114.78 200.13 112.98 199.97 111.18 200.03 109.38 200.08 107.58 199.89 105.77 199.81 103.97 200.13 102.17 200.07 100.36 200 98.56 199.94 96.76 200.12 94.96 199.96 93.16 199.88 91.35 199.74 89.55 199.73 87.75 200.15 85.94 199.74 84.14 199.97 82.34 199.98 80.53 200.12 78.73 199.94 76.94 200.17 75.14 200.05 73.34 199.94 71.53 199.83 69.73 199.85 67.93 199.86 66.13 200.09 64.33 199.96 62.52 200.13 60.72 199.84 58.91 200.08 57.11 199.76 55.3 199.86 53.5 199.79 51.69 200.15 49.89 199.76 48.08 199.97 46.27 199.77 44.47 199.72 42.66 200.06 40.86 200 39.05 199.99 37.24 199.82 35.44 199.85 33.63 199.79 31.81 200 30 199.77 28.25 199.86 26.54 199.44 25.06 198.49 23.46 197.73 22.32 196.38 21.14 195.05 20.83 193.28 20.33 191.64 20.19 189.94 20.07 188.14 20.2 186.34 20.17 184.54 19.98 182.74 19.76 180.94 19.99 179.15 20.17 177.35 19.88 175.55 19.83 173.75 19.88 171.95 19.91 170.15 20 168.35 19.78 166.56 19.85 164.76 20.11 162.96 20.11 161.16 20.23 159.36 19.93 157.56 19.89 155.76 20.15 153.96 20.05 152.16 20.18 150.37 19.93 148.57 20.19 146.78 19.86 144.98 20.03 143.18 20.1 141.38 20.05 139.58 19.96 137.78 19.79 135.99 19.98 134.19 20.04 132.39 20.06 130.59 19.9 128.79 19.79 126.99 20.07 125.19 20.19 123.39 19.98 121.58 19.87 119.78 20.18 117.98 20.18 116.18 19.96 114.38 20.22 112.57 20.06 110.77 19.8 108.97 19.89 107.17 20.22 105.36 20.23 103.56 20.23 101.75 19.99 99.94 19.96 98.17 20.6 96.52 21.48 95.02 22.22 93.41 23.55 92.25 25.1 91.45 26.55 90.45 28.28 90.17 30 90.03 31.78 89.97 33.57 89.9 35.35 89.9 37.13 89.87 38.91 89.74 40.7 90.12 42.48 90.12 44.27 89.84 46.05 89.94 47.84 89.96 49.62 90.05 51.4 89.88 53.19 90.08 54.97 90.15 56.76 89.85 58.54 90.09 60.33 89.88 62.11 89.99 63.9 90.14 65.68 89.91 67.46 89.96 69.25 89.75 71.04 89.89 72.82 89.75 74.61 89.81 76.39 89.98 78.18 90.01 79.96 89.86 81.74 89.8 83.53 90.05 85.31 89.81 87.09 90.12 88.87 90.14 90.66 90.16 92.44 90.1 94.23 90.17 96.01 89.83 97.8 90.03 99.59 90.15 101.37 90.11 103.16 89.96 104.95 89.88 106.73 89.72 108.52 90.06 110.31 90 112.1 89.97 113.89 89.77 115.67 89.96 117.46 90.09 119.25 89.86 121.04 90.06 122.83 89.82 124.62 89.93 126.41 89.81 128.2 89.72 130 89.74 131.74 90.08 133.41 90.57 135.01 91.27 136.38 92.33 137.8 93.39 138.57 94.99 139.4 96.52 139.69 98.23 140.1 99.94 140 101.72 139.89 103.5 140.16 105.29 140.04 107.07 140.03 108.85 139.77 110.63 139.78 112.42 140.16 114.2 140.05 115.99 139.81 117.77 140.22 119.56 140.07 121.34 140.22 123.12 140.09 124.91 139.93 126.69 140.22 128.48 139.99 130.26 140.21 132.05 139.82 133.83 140.09 135.62 140.09 137.4 140.01 139.19 139.94 140.97 139.93 142.76 140.21 144.54 140.01 146.33 140.11 148.12 140.06 149.9 139.96 151.68 140.21 153.46 139.76 155.24 140.15 157.03 140.18 158.81 140.12 160.6 140.24 162.38 140.11 164.16 139.94 165.95 139.9 167.74 139.96 169.52 139.86 171.31 140.16 173.09 139.99 174.88 140.06 176.67 140.01 178.46 139.88 180.25 140 182.03 140 183.82 140.22 185.61 140.22 187.4 139.84 189.18 140.19 190.97 140.22 192.76 140.08 194.55 140.22 196.34 140.18 198.15 139.88 199.82"/><polygon class="cls-3" points="139.88 199.82 138.2 199.89 136.4 200.15 134.6 199.87 132.79 199.9 130.99 199.9 129.19 200.09 127.39 199.85 125.59 199.82 123.79 199.99 121.99 200.13 120.19 199.74 118.39 199.78 116.59 199.9 114.78 200.13 112.98 199.97 111.18 200.03 109.38 200.08 107.58 199.89 105.77 199.81 103.97 200.13 102.17 200.07 100.36 200 98.56 199.94 96.76 200.12 94.96 199.96 93.16 199.88 91.35 199.74 89.55 199.73 87.75 200.15 85.94 199.74 84.14 199.97 82.34 199.98 80.53 200.12 78.73 199.94 76.94 200.17 75.14 200.05 73.34 199.94 71.53 199.83 69.73 199.85 67.93 199.86 66.13 200.09 64.33 199.96 62.52 200.13 60.72 199.84 58.91 200.08 57.11 199.76 55.3 199.86 53.5 199.79 51.69 200.15 49.89 199.76 48.08 199.97 46.27 199.77 44.47 199.72 42.66 200.06 40.86 200 39.05 199.99 37.24 199.82 35.44 199.85 33.63 199.79 31.81 200 30 199.77 28.25 199.86 26.54 199.44 25.06 198.49 23.46 197.73 22.32 196.38 21.14 195.05 20.83 193.28 20.33 191.64 20.19 189.94 20.07 188.14 20.2 186.34 20.17 184.54 19.98 182.74 19.76 180.94 19.99 179.15 20.17 177.35 19.88 175.55 19.83 173.75 19.88 171.95 19.91 170.15 20 168.35 19.78 166.56 19.85 164.76 20.11 162.96 20.11 161.16 20.23 159.36 19.93 157.56 19.89 155.76 20.15 153.96 20.05 152.16 20.18 150.37 19.93 148.57 20.19 146.78 19.86 144.98 20.03 143.18 20.1 141.38 20.05 139.58 19.96 137.78 19.79 135.99 19.98 134.19 20.04 132.39 20.06 130.59 19.9 128.79 19.79 126.99 20.07 125.19 20.19 123.39 19.98 121.58 19.87 119.78 20.18 117.98 20.18 116.18 19.96 114.38 20.22 112.57 20.06 110.77 19.8 108.97 19.89 107.17 20.22 105.36 20.23 103.56 20.23 101.75 19.99 99.94 19.96 98.17 20.6 96.52 21.48 95.02 22.22 93.41 23.55 92.25 25.1 91.45 26.55 90.45 28.28 90.17 30 90.03 31.78 89.97 33.57 89.9 35.35 89.9 37.13 89.87 38.91 89.74 40.7 90.12 42.48 90.12 44.27 89.84 46.05 89.94 47.84 89.96 49.62 90.05 51.4 89.88 53.19 90.08 54.97 90.15 56.76 89.85 58.54 90.09 60.33 89.88 62.11 89.99 63.9 90.14 65.68 89.91 67.46 89.96 69.25 89.75 71.04 89.89 72.82 89.75 74.61 89.81 76.39 89.98 78.18 90.01 79.96 89.86 81.74 89.8 83.53 90.05 85.31 89.81 87.09 90.12 88.87 90.14 90.66 90.16 92.44 90.1 94.23 90.17 96.01 89.83 97.8 90.03 99.59 90.15 101.37 90.11 103.16 89.96 104.95 89.88 106.73 89.72 108.52 90.06 110.31 90 112.1 89.97 113.89 89.77 115.67 89.96 117.46 90.09 119.25 89.86 121.04 90.06 122.83 89.82 124.62 89.93 126.41 89.81 128.2 89.72 130 89.74 131.74 90.08 133.41 90.57 135.01 91.27 136.38 92.33 137.8 93.39 138.57 94.99 139.4 96.52 139.69 98.23 140.1 99.94 140 101.72 139.89 103.5 140.16 105.29 140.04 107.07 140.03 108.85 139.77 110.63 139.78 112.42 140.16 114.2 140.05 115.99 139.81 117.77 140.22 119.56 140.07 121.34 140.22 123.12 140.09 124.91 139.93 126.69 140.22 128.48 139.99 130.26 140.21 132.05 139.82 133.83 140.09 135.62 140.09 137.4 140.01 139.19 139.94 140.97 139.93 142.76 140.21 144.54 140.01 146.33 140.11 148.12 140.06 149.9 139.96 151.68 140.21 153.46 139.76 155.24 140.15 157.03 140.18 158.81 140.12 160.6 140.24 162.38 140.11 164.16 139.94 165.95 139.9 167.74 139.96 169.52 139.86 171.31 140.16 173.09 139.99 174.88 140.06 176.67 140.01 178.46 139.88 180.25 140 182.03 140 183.82 140.22 185.61 140.22 187.4 139.84 189.18 140.19 190.97 140.22 192.76 140.08 194.55 140.22 196.34 140.18 198.15 139.88 199.82"/><polyline class="cls-2" points="149.67 69.94 151.49 69.87 153.31 70.03 155.12 69.97 156.94 69.99 158.76 69.96 160.57 69.99 162.39 69.91 164.21 70.03 166.03 69.95 167.85 69.95 169.67 69.87 171.49 69.97 173.31 69.91 175.13 69.9 176.95 70.01 178.77 70.01 180.59 69.94 182.41 69.92 184.23 70.03 186.06 69.98 187.88 69.93 189.71 69.89"/><polyline class="cls-3" points="149.67 69.94 151.49 69.87 153.31 70.03 155.12 69.97 156.94 69.99 158.76 69.96 160.57 69.99 162.39 69.91 164.21 70.03 166.03 69.95 167.85 69.95 169.67 69.87 171.49 69.97 173.31 69.91 175.13 69.9 176.95 70.01 178.77 70.01 180.59 69.94 182.41 69.92 184.23 70.03 186.06 69.98 187.88 69.93 189.71 69.89"/><polyline class="cls-2" points="149.67 80.09 151.49 80.07 153.31 80.05 155.12 80.14 156.94 80.05 158.76 80.07 160.57 80.05 162.39 80.16 164.21 80.13 166.03 80.16 167.85 80.04 169.67 80.13 171.49 80.15 173.31 80.11 175.13 80.07 176.95 80.09 178.77 80.03 180.59 80.13 182.41 80.17 184.23 80.11 186.06 80.05 187.88 80.18 189.71 80.11"/><polyline class="cls-3" points="149.67 80.09 151.49 80.07 153.31 80.05 155.12 80.14 156.94 80.05 158.76 80.07 160.57 80.05 162.39 80.16 164.21 80.13 166.03 80.16 167.85 80.04 169.67 80.13 171.49 80.15 173.31 80.11 175.13 80.07 176.95 80.09 178.77 80.03 180.59 80.13 182.41 80.17 184.23 80.11 186.06 80.05 187.88 80.18 189.71 80.11"/><polyline class="cls-2" points="149.67 90.25 151.49 90.34 153.31 90.3 155.12 90.21 156.94 90.25 158.76 90.31 160.57 90.29 162.39 90.31 164.21 90.3 166.03 90.25 167.85 90.29 169.67 90.31 171.49 90.34 173.31 90.28 175.13 90.19 176.95 90.2 178.77 90.27 180.59 90.24 182.41 90.26 184.23 90.28 186.06 90.32 187.88 90.32 189.71 90.26"/><polyline class="cls-3" points="149.67 90.25 151.49 90.34 153.31 90.3 155.12 90.21 156.94 90.25 158.76 90.31 160.57 90.29 162.39 90.31 164.21 90.3 166.03 90.25 167.85 90.29 169.67 90.31 171.49 90.34 173.31 90.28 175.13 90.19 176.95 90.2 178.77 90.27 180.59 90.24 182.41 90.26 184.23 90.28 186.06 90.32 187.88 90.32 189.71 90.26"/><polyline class="cls-2" points="149.67 99.91 151.49 99.81 153.31 99.91 155.12 99.93 156.94 99.83 158.76 99.85 160.57 99.81 162.39 99.88 164.21 99.83 166.03 99.87 167.85 99.82 169.67 99.85 171.49 99.9 173.31 99.88 175.13 99.81 176.95 99.83 178.77 99.91 180.59 99.82 182.41 99.83 184.23 99.84 186.06 99.87 187.88 99.92 189.71 99.95"/><polyline class="cls-3" points="149.67 99.91 151.49 99.81 153.31 99.91 155.12 99.93 156.94 99.83 158.76 99.85 160.57 99.81 162.39 99.88 164.21 99.83 166.03 99.87 167.85 99.82 169.67 99.85 171.49 99.9 173.31 99.88 175.13 99.81 176.95 99.83 178.77 99.91 180.59 99.82 182.41 99.83 184.23 99.84 186.06 99.87 187.88 99.92 189.71 99.95"/><polyline class="cls-2" points="149.67 109.86 151.49 109.94 153.31 109.94 155.12 109.94 156.94 109.94 158.76 109.82 160.57 109.95 162.39 109.9 164.21 109.91 166.03 109.88 167.85 109.94 169.67 109.83 171.49 109.92 173.31 109.83 175.13 109.9 176.95 109.82 178.77 109.92 180.59 109.83 182.41 109.86 184.23 109.86 186.06 109.94 187.88 109.83 189.71 109.91"/><polyline class="cls-3" points="149.67 109.86 151.49 109.94 153.31 109.94 155.12 109.94 156.94 109.94 158.76 109.82 160.57 109.95 162.39 109.9 164.21 109.91 166.03 109.88 167.85 109.94 169.67 109.83 171.49 109.92 173.31 109.83 175.13 109.9 176.95 109.82 178.77 109.92 180.59 109.83 182.41 109.86 184.23 109.86 186.06 109.94 187.88 109.83 189.71 109.91"/><polygon class="cls-4" points="29.97 159.84 31.28 158.43 32.63 157.2 34.04 156.02 35.13 154.5 36.52 153.3 37.82 152.01 39.06 150.66 40.51 149.5 41.71 148.11 43.04 146.84 44.24 145.44 45.61 144.22 47.01 143.02 48.29 141.71 49.58 140.41 50.9 139.13 52.25 137.87 53.5 136.53 54.76 135.18 55.96 133.79 57.31 132.53 58.81 131.42 60 130.07 61.36 131.23 62.53 132.64 63.75 134.01 65.24 135.11 66.56 136.38 67.66 137.86 69.18 138.93 70.49 140.21 71.76 141.53 72.83 143.05 74.34 144.13 75.67 145.39 76.98 146.67 78.24 148 79.45 149.37 80.88 150.54 82.08 151.92 83.31 153.29 84.69 154.51 85.81 155.98 87.13 157.26 88.47 158.52 89.84 159.92 91.14 158.57 92.38 157.33 93.63 156.11 94.74 154.75 96.18 153.71 97.33 152.39 98.53 151.12 99.68 149.79 100.91 148.54 102.24 147.4 103.57 146.25 104.75 144.94 105.97 143.68 107.12 142.35 108.37 141.11 109.75 140.03 111.1 141.14 112.28 142.46 113.39 143.84 114.82 144.9 115.98 146.23 117.43 147.26 118.53 148.66 119.9 149.77 121.11 151.06 122.3 152.37 123.48 153.68 124.85 154.82 125.99 156.17 127.3 157.37 128.75 158.42 129.89 159.67 129.97 157.95 129.96 156.15 129.81 154.35 130.1 152.54 129.75 150.75 130.08 148.95 130.1 147.15 130.12 145.36 129.88 143.56 130.06 141.76 130.01 139.95 130.04 138.15 130.08 136.35 130.03 134.56 129.9 132.75 130.02 130.95 130.01 129.15 129.96 127.35 129.94 125.54 129.99 123.74 130.03 121.94 129.73 120.13 130.05 118.33 130.03 116.52 130.09 114.72 129.86 112.92 129.94 111.12 129.81 109.31 129.75 107.5 129.96 105.7 129.91 103.89 129.75 102.08 129.86 100.34 128.14 100.28 126.36 100.35 124.58 100.17 122.8 100.32 121.02 100.27 119.24 100.38 117.45 100.2 115.67 100.24 113.89 100.16 112.1 100.37 110.32 100.15 108.54 100.09 106.76 100.42 104.97 100.21 103.19 100.23 101.41 100.26 99.62 100.22 97.84 100.31 96.06 100.24 94.27 100.27 92.49 100.28 90.7 100.47 88.92 100.23 87.14 100.42 85.35 100.39 83.57 100.32 81.78 100.41 80 100.24 78.22 100.38 76.44 100.31 74.66 100.1 72.88 100.24 71.1 100.24 69.31 100.19 67.53 100.19 65.75 100.44 63.96 100.11 62.18 100.34 60.39 100.09 58.61 100.17 56.82 100.2 55.03 100.21 53.25 100.29 51.46 100.38 49.68 100.25 47.89 100.22 46.1 100.23 44.32 100.21 42.53 100.08 40.74 100.34 38.96 100.22 37.17 100.11 35.38 100.22 33.59 100.11 31.79 100.2 29.97 100.24 30.07 102.07 30.11 103.87 30.1 105.67 29.99 107.47 29.99 109.27 30.18 111.07 30.16 112.87 29.97 114.66 30.05 116.46 30.17 118.26 29.89 120.07 29.83 121.87 30.14 123.67 29.98 125.47 30.19 127.27 30.18 129.07 30.14 130.87 30.14 132.67 29.99 134.48 30.2 136.28 30.13 138.08 29.94 139.89 29.92 141.69 30.15 143.5 30.12 145.29 29.87 147.1 30.09 148.9 29.98 150.71 30.01 152.51 30.02 154.32 30.02 156.13 30.16 157.94 29.97 159.84"/><polygon class="cls-2" points="109.78 119.87 109.58 121.61 109.14 123.29 108.44 124.89 107.41 126.3 106.19 127.55 104.73 128.5 103.18 129.29 101.49 129.72 99.75 129.91 98.02 129.7 96.34 129.24 94.75 128.52 93.31 127.55 92.08 126.31 91.08 124.88 90.37 123.29 89.87 121.61 89.77 119.87 89.92 118.14 90.37 116.46 91.09 114.87 92.06 113.42 93.33 112.22 94.75 111.2 96.34 110.5 98.01 110.03 99.75 109.86 101.49 110.02 103.18 110.44 104.76 111.2 106.19 112.19 107.42 113.44 108.39 114.88 109.13 116.46 109.59 118.14 109.78 119.87"/><polygon class="cls-2" points="134.56 209.09 133.07 208.03 132.09 206.48 130.81 205.22 129.58 203.91 128.19 202.77 127 201.42 125.77 200.12 124.56 198.78 123.07 197.73 121.94 196.33 120.53 195.19 119.26 193.91 118.28 192.36 117.04 191.06 115.78 189.79 114.19 188.82 113.09 187.39 112.01 185.93 110.73 184.66 109.15 183.7 108.22 182.08 106.84 180.91 105.61 179.68 106.81 178.4 107.98 176.97 109.5 175.92 110.55 174.38 111.92 173.18 113.27 171.95 114.53 170.62 115.8 169.3 117.19 168.11 118.67 167.01 119.92 165.68 121.25 164.42 122.38 162.96 123.69 161.68 124.83 160.25 126.29 159.12 127.59 157.84 128.88 156.54 130.09 155.17 131.63 154.11 132.96 152.85 134.13 151.43 135.26 149.96 136.85 148.96 138.06 147.9 139.58 147.39 141.15 146.91 142.95 147.2 144.75 146.92 146.55 147 148.35 146.9 150.15 146.9 151.95 147.06 153.75 146.92 155.55 147.04 157.34 146.83 159.14 146.86 160.94 147.15 162.75 147.02 164.54 147.05 166.34 147.07 168.14 147.21 169.94 147.08 171.74 146.99 173.54 146.9 175.34 147.08 177.14 147.21 178.94 146.91 180.75 146.95 182.54 146.78 184.34 147.1 186.14 146.92 187.93 147.21 189.73 146.85 191.53 147.2 193.33 146.78 195.13 147.09 196.93 147.11 198.73 146.91 200.53 146.91 202.33 146.76 204.13 147.25 205.93 146.91 207.74 147.22 209.54 147.23 211.34 146.96 213.15 147.06 214.95 147.18 216.75 146.91 218.55 146.77 220.35 146.88 222.16 146.99 223.96 147.23 225.77 146.79 227.57 147.19 229.38 146.92 231.19 146.83 233.08 146.92 232.87 148.79 233.17 150.58 232.82 152.37 233.24 154.16 233.08 155.94 232.91 157.73 233.13 159.52 233.23 161.31 233.02 163.1 232.81 164.88 232.95 166.67 233.07 168.45 232.86 170.24 233.19 172.03 233.1 173.82 233.01 175.6 233.2 177.39 233.2 179.18 232.75 180.97 232.85 182.76 232.85 184.55 232.94 186.34 232.9 188.13 232.87 189.92 232.79 191.71 233.04 193.5 232.97 195.29 232.83 197.09 233.09 198.87 233.09 200.67 232.88 202.46 233.21 204.25 232.85 206.04 233.14 207.84 233 209.63 233.12 211.43 232.94 213.17 231.19 213.1 229.38 212.99 227.57 213.01 225.76 213.22 223.95 212.99 222.14 213.3 220.33 213.42 218.52 213.2 216.71 213.48 214.89 213.29 213.08 213.21 211.27 213.14 209.46 213.09 207.65 213.17 205.84 212.99 204.03 213.37 202.22 213.11 200.41 213.29 198.59 213.49 196.78 213.2 194.97 213.34 193.16 213.42 191.36 213.2 189.55 213.45 187.74 213.45 185.93 213.13 184.12 213.21 182.31 213.02 180.5 213.43 178.69 213.23 176.87 213.05 175.06 213.3 173.25 213.35 171.44 213.4 169.62 213.34 167.81 213.21 165.99 213.26 164.18 213.31 162.36 213.23 160.55 213.04 158.74 213.21 156.92 213.26 155.11 213.27 153.3 213.06 151.48 213.4 149.66 213.38 147.84 213.19 146.02 213.35 144.2 213.31 142.4 213.15 140.64 212.75 138.85 212.37 137.26 211.47 135.92 210.24 134.56 209.09"/><polygon class="cls-2" points="109.79 179.71 110.9 178.26 112.31 177.08 113.66 175.84 114.89 174.47 116.26 173.25 117.63 172.02 118.9 170.7 120.27 169.47 121.49 168.1 122.92 166.93 123.95 165.36 125.5 164.31 126.79 163.01 128.04 161.66 129.49 160.52 130.58 159.01 132.02 157.86 133.29 156.53 134.48 155.11 135.88 153.91 137.07 152.5 138.64 151.46 139.8 150.01 141.59 149.78 143.4 149.83 145.2 149.98 147 149.88 148.81 150.14 150.61 149.96 152.41 149.85 154.21 150.2 156.01 149.92 157.82 150.06 159.62 149.89 161.42 150.21 163.23 149.76 165.03 149.84 166.83 149.78 168.64 150.23 170.44 150.16 172.24 149.81 174.05 150.06 175.85 149.79 177.65 149.84 179.46 149.88 181.26 149.89 183.06 150.15 184.85 149.81 186.65 149.9 188.46 149.98 190.26 150.21 192.06 149.97 193.87 149.92 195.67 149.82 197.47 150.04 199.28 149.98 201.08 150.1 202.89 149.84 204.69 150.15 206.5 149.79 208.3 149.91 210.11 150.06 211.92 149.97 213.72 150.11 215.53 149.93 217.33 149.92 219.14 150.09 220.94 150.18 222.75 150.24 224.56 150.16 226.37 149.77 228.19 150.11 230.01 149.99 230.09 151.82 230.05 153.65 229.84 155.47 230.14 157.29 229.79 159.12 230.11 160.94 229.88 162.76 229.84 164.58 229.83 166.4 230.24 168.22 230.04 170.05 230.15 171.87 230.18 173.69 230.01 175.51 229.86 177.34 230.03 179.16 230.02 180.99 229.86 182.81 229.84 184.64 230.03 186.46 229.97 188.29 229.78 190.12 229.82 191.94 230.03 193.77 229.92 195.59 230.06 197.42 230.16 199.25 229.77 201.07 230.23 202.9 229.8 204.73 229.78 206.56 229.96 208.4 230.11 210.34 228.2 210.28 226.39 210.29 224.59 210.08 222.78 210.23 220.98 210.15 219.18 210 217.38 210.47 215.57 210.01 213.77 210.26 211.97 210.41 210.16 210.01 208.36 210.15 206.56 210.25 204.75 210.16 202.95 210.35 201.14 210.45 199.34 210.28 197.53 210.2 195.73 210.12 193.93 210.37 192.12 210.28 190.32 210.47 188.52 210.05 186.72 210.28 184.92 210.35 183.12 210.01 181.31 210.24 179.5 210.45 177.7 210.04 175.9 210.37 174.1 210.3 172.29 210.24 170.48 210.41 168.68 210.39 166.87 210.16 165.07 210.25 163.26 210.25 161.45 210.12 159.65 210.35 157.84 210.05 156.03 210.1 154.23 210 152.42 210.39 150.61 210.01 148.81 210.06 147 210.07 145.19 210.01 143.38 210.16 141.56 210.26 139.74 210.24 138.46 209 137.16 207.78 136.08 206.35 134.82 205.09 133.54 203.86 132.29 202.58 130.88 201.47 129.93 199.91 128.41 198.91 127.38 197.42 125.97 196.31 124.74 195.01 123.51 193.73 122.23 192.49 120.9 191.3 119.68 190 118.55 188.6 117.33 187.3 115.89 186.22 114.63 184.95 113.65 183.41 112.32 182.21 110.87 181.12 109.79 179.71"/><polygon class="cls-3" points="109.69 179.71 111.17 178.57 112.21 177.05 113.55 175.82 114.75 174.45 116.29 173.43 117.33 171.89 118.83 170.83 120.06 169.49 121.27 168.13 122.79 167.09 124.08 165.81 125.13 164.3 126.42 163.02 127.98 162.01 129.2 160.66 130.39 159.28 131.69 158.01 133.01 156.77 134.18 155.35 135.43 154.02 136.74 152.75 138.34 151.6 140.16 150.89 141.99 150.29 143.9 150.15 145.71 149.79 147.52 150.04 149.34 149.91 151.15 150.04 152.96 149.8 154.76 150.08 156.57 149.9 158.39 150.01 160.2 150.19 162.01 150.17 163.82 150.19 165.63 149.97 167.44 150.08 169.25 150.24 171.06 150.07 172.86 150 174.67 149.97 176.48 150.21 178.29 149.96 180.1 149.99 181.91 150.07 183.72 150.11 185.53 150.18 187.34 149.97 189.15 150.14 190.96 149.87 192.78 149.94 194.59 149.81 196.4 150.22 198.22 150.16 200.03 149.78 201.84 150.13 203.66 150.09 205.47 150.22 207.28 149.97 209.09 149.93 210.91 149.92 212.72 150.05 214.54 149.88 216.36 150.16 218.18 149.84 220 149.86 221.74 150.14 223.46 150.5 225.04 151.27 226.5 152.26 227.6 153.62 228.7 154.98 229.57 156.52 230.01 158.24 230.02 160 229.87 161.82 230.04 163.65 229.76 165.47 230.09 167.3 229.88 169.13 229.81 170.95 229.86 172.78 230.1 174.61 229.98 176.44 229.82 178.27 230.17 180.09 229.77 181.92 229.84 183.75 230.02 185.58 229.81 187.41 229.99 189.23 229.86 191.06 229.96 192.9 230.19 194.72 229.91 196.56 230.2 198.39 229.86 200.23 229.82 201.96 229.24 203.59 228.85 205.34 227.62 206.63 226.47 207.94 225.07 209.01 223.43 209.66 221.71 209.94 220 210.07 218.19 210.17 216.38 210.29 214.57 210.09 212.76 210 210.95 210.2 209.14 210.05 207.34 210.26 205.52 210.45 203.71 210.46 201.9 210.44 200.09 210.37 198.28 210.26 196.47 210.43 194.66 210.43 192.86 210.26 191.05 210.36 189.25 210.26 187.44 210.15 185.63 210.34 183.82 210.04 182.01 210.14 180.2 210.08 178.39 210.44 176.58 210.41 174.77 210.29 172.96 210.33 171.15 210.45 169.34 210.11 167.53 210.11 165.71 210.3 163.9 210.11 162.09 210.29 160.28 210.29 158.47 210.24 156.65 210.36 154.84 210.14 153.03 210.42 151.21 210.22 149.4 210.25 147.58 210.32 145.76 210.47 143.94 210.37 142.01 209.81 140.16 209.24 138.38 208.44 136.64 207.41 135.39 206.06 134.38 204.49 132.88 203.38 131.69 201.98 130.49 200.58 129 199.48 127.67 198.2 126.68 196.6 125.32 195.36 123.85 194.23 122.66 192.82 121.36 191.53 119.98 190.31 118.78 188.91 117.48 187.61 116.14 186.35 115 184.89 113.55 183.74 112.33 182.35 110.91 181.16 109.69 179.71"/><path class="cls-4" d="M174.45,178.93l1.61.65,1.49.87,1.38,1,.86,1.23.5,1.42.16,1.51-.23,1.86-.94,1.62-1.2,1.42-1.59,1.08-1.74.84-1.89.39-1.95.2v1.77l0,1.77-1.69,0h-1.73l.12-1.85-.16-1.76-1.71-.29-1.77-.45-1.65-.78-1.54-1-1.18-1.25-.91-1.46-.47-1.66-.15-1.67,1.54,0h1.56l1.56-.08.2,1.65,1.07,1.22,1.63,1,2,.35-.12-2,.14-1.93-.09-1.94,0-1.9-1.95-.71-1.84-.68-1.79-.81-1.53-1.22-1-1.27-.74-1.46,0-1.65.24-1.77.74-1.64,1.23-1.34,1.49-1,1.72-.55,1.74-.47,1.8-.14.07-1.51-.12-1.57,1.72.08,1.68,0,0,1.54-.06,1.56,1.68.23,1.56.44,1.47.68,1.26,1,1.26,1.51.76,1.81.57,1.84-1.54.07-1.56,0-1.57,0-1.22-2.1-1.19-.85L171,170.4l-.11,1.79L171,174l-.06,1.82,0,1.84,1.79.59Zm-9.77-7.64-1,2,.63,1.84,2.1,1.07,1.2.47,0-1.6,0-1.6,0-1.61.14-1.63-1.58.34Zm9.47,16.4,1-2.12-.37-1.56-1.16-1.09-1.41-.7-1.26-.46,0,1.73,0,1.74L170.9,187l0,1.75,1.68-.3Z"/><path class="cls-4" d="M201.48,178.79l1.57.76,1.57.76,1.25,1.21.91,1.19.38,1.45.16,1.48-.16,1.85-.8,1.69-1.29,1.34-1.59,1.06-1.74.81-1.87.43-2,.2.1,1.79-.08,1.7-1.61,0-1.74.1.09-1.86,0-1.81-1.88-.17-1.75-.53-1.7-.68-1.43-1.13-1.23-1.18-1-1.44-.53-1.65-.07-1.69,1.54.05,1.56-.18,1.53.14.38,1.52.84,1.38,1.75.78,1.9.46-.09-1.94,0-1.93,0-1.94v-1.93l-2-.7-1.8-.77-1.75-.85-1.7-1-1-1.31-.66-1.52-.08-1.65.22-1.8.75-1.66,1.27-1.32,1.58-.86,1.64-.72,1.77-.28,1.84-.27-.16-1.54,0-1.58,1.74.08,1.64,0,.08,1.5,0,1.53,1.6.24,1.58.4,1.43.77,1.27,1,1.3,1.48.77,1.81.49,1.8-1.51.14-1.56,0-1.54-.07-1.2-2.09-1.2-.9L198,170.4l0,1.78L197.9,174l-.05,1.82.11,1.81,1.73.67Zm-9.72-7.4-1.07,1.89.73,1.73,2,1.24,1.21.41.1-1.6,0-1.6-.11-1.61v-1.59l-1.49.29ZM201,187.58l1.09-2-.49-1.48-1-1.22-1.44-.65-1.34-.55v1.81l.11,1.74V187l-.08,1.76,1.7-.27Z"/><polygon class="cls-3" points="139.93 180.12 139.54 182.03 138.46 183.65 136.84 184.73 134.93 185.12 133.01 184.74 131.38 183.66 130.31 182.03 129.91 180.12 130.3 178.2 131.38 176.57 133.01 175.48 134.93 175.11 136.84 175.49 138.47 176.57 139.53 178.21 139.93 180.12"/><polygon class="cls-4" points="148.75 50.8 146.85 50.74 144.96 50.86 143.06 50.84 141.16 50.84 139.26 50.84 139.09 50.56 139.85 48.85 140.52 47.09 141.25 45.36 141.88 43.59 142.63 41.87 143.22 40.09 143.95 38.35 144.68 36.61 145.53 34.92 145.12 34.67 144.03 36.11 142.81 37.42 141.53 38.68 140.41 40.09 139.15 41.37 138.1 42.84 136.85 44.13 135.66 45.47 134.43 46.77 133.26 48.14 132.09 49.5 130.84 50.79 129.63 52.12 128.4 53.44 127.34 54.89 126.04 56.15 124.85 57.51 123.57 58.78 123.76 59.05 125.65 59.15 127.54 59.2 129.44 58.99 131.34 59.09 133.24 59.01 133.29 59.24 132.61 60.99 131.99 62.76 131.17 64.45 130.61 66.25 129.97 68.02 129.08 69.68 128.55 71.49 127.75 73.21 127.11 74.98 127.34 75.14 128.57 73.84 129.78 72.51 130.82 71.03 132.02 69.69 133.37 68.49 134.39 67 135.66 65.73 136.88 64.41 138.03 63.03 139.2 61.67 140.43 60.36 141.72 59.11 142.79 57.65 144.01 56.33 145.16 54.95 146.49 53.72 147.56 52.26 148.88 51.01 148.75 50.8"/></g></svg>
