<svg xmlns="http://www.w3.org/2000/svg" viewBox="0 0 250 250"><defs><style>.cls-1{fill:#f8f8f8;}.cls-2{fill:#fff;}.cls-3{fill:#fadc2d;}.cls-4{fill:#f37f82;}.cls-5{fill:none;stroke:#3e82f7;stroke-miterlimit:10;stroke-width:3px;}.cls-6{fill:#ff852d;}</style></defs><title>icon-roundup-collect</title><g id="Base_Dots" data-name="Base Dots"><circle class="cls-1" cx="125" cy="125" r="100"/></g><g id="Artwork"><polygon class="cls-2" points="163.05 139.96 163.01 138.15 162.72 136.36 162.38 134.59 161.88 132.85 161.27 131.15 160.5 129.51 159.67 127.91 158.68 126.39 157.53 124.99 156.22 123.74 154.94 122.47 153.47 121.42 152 120.38 150.48 119.4 148.78 118.76 147.12 118.04 145.36 117.66 143.6 117.27 141.81 117.02 140 116.97 138.2 117.04 136.4 117.26 134.62 117.54 132.9 118.11 131.16 118.63 129.54 119.43 128.01 120.4 126.44 121.3 125.04 122.45 123.78 123.74 122.56 125.07 121.32 126.39 120.31 127.9 119.43 129.48 118.74 131.16 118.1 132.84 117.71 134.61 117.26 136.36 116.99 138.15 117.03 139.96 117.05 141.77 117.36 143.55 117.59 145.34 118.07 147.09 118.75 148.77 119.46 150.43 120.46 151.94 121.44 153.45 122.44 154.96 123.79 156.18 125.03 157.5 126.52 158.52 128.02 159.51 129.55 160.48 131.19 161.24 132.88 161.87 134.62 162.38 136.41 162.67 138.19 162.95 140 162.96 141.81 162.89 143.59 162.6 145.38 162.35 147.13 161.88 148.83 161.26 150.41 160.38 152 159.54 153.52 158.57 154.99 157.51 156.31 156.27 157.43 154.84 158.59 153.47 159.62 151.98 160.53 150.42 161.2 148.74 161.92 147.08 162.31 145.32 162.71 143.56 162.99 141.77 163.05 139.96"/><polygon class="cls-3" points="160.02 139.96 159.88 138.12 159.61 136.29 159.29 134.47 158.67 132.73 157.93 131.03 156.98 129.45 155.97 127.9 154.82 126.45 153.5 125.15 152.09 123.95 150.54 122.94 148.88 122.12 147.22 121.34 145.46 120.78 143.67 120.33 141.84 120.09 140 119.98 138.15 120.03 136.34 120.37 134.54 120.8 132.79 121.35 131.06 122 129.45 122.92 127.99 124.06 126.58 125.24 125.22 126.49 123.99 127.87 122.97 129.42 122.06 131.03 121.4 132.76 120.76 134.49 120.32 136.28 120.13 138.12 120.04 139.96 120.01 141.81 120.35 143.64 120.7 145.45 121.35 147.19 122.04 148.91 123.06 150.46 124 152.04 125.18 153.48 126.51 154.76 127.95 155.92 129.47 156.97 131.05 157.94 132.78 158.59 134.55 159.13 136.31 159.69 138.16 159.82 140 159.99 141.84 159.81 143.69 159.68 145.49 159.25 147.25 158.67 148.92 157.87 150.54 156.99 152.08 155.95 153.52 154.79 154.75 153.41 155.97 152.02 156.96 150.46 157.86 148.85 158.72 147.21 159.31 145.46 159.73 143.65 159.85 141.8 160.02 139.96"/><path class="cls-4" d="M142.4,139.52l2.07,1.19.68,1.93-1.07,2.27-1.55.84-1.75.31v1.61h-1.54l0-1.66-1.65-.34-1.48-.78-1-1.25-.3-1.54H137l.57,1.34,1.66.59v-3.57l-.92-.32-1.25-.52-1.14-.72-.86-2,1.06-2.19,1.47-.73,1.63-.28v-1.4h1.54v1.42l1.46.33,1.27.77.79,1.1.41,1.3h-2.15l-.54-1-1.21-.59v3.33ZM137.9,136l-.44.91.29.81.93.52.55.23v-3Zm4.34,7.53.44-1-1.32-1.54-.58-.23v3.22Z"/><polygon class="cls-2" points="205 149.96 203.2 149.93 201.41 149.96 199.61 149.99 197.81 150.02 196.02 150.06 194.23 149.87 192.43 149.89 190.64 150.07 188.85 150.02 187.06 149.96 185.26 150.01 183.47 150.07 181.68 150.05 179.88 149.97 178.09 149.87 176.29 150.07 174.5 150.12 172.7 149.94 170.9 150.08 169.11 150.01 167.31 150.04 165.51 150.06 163.72 149.92 161.92 149.88 160.13 150 158.34 149.88 156.54 150.05 154.75 150 152.95 150.12 151.15 149.91 149.36 149.91 147.56 149.92 145.76 150.13 143.96 150.06 142.16 150.07 140.37 150.12 138.57 149.96 136.78 150.09 134.98 150.1 133.18 149.91 131.39 150.03 129.59 149.94 127.79 149.97 125.99 150.06 124.19 150.09 122.4 149.91 120.6 149.98 118.8 149.96 117 150.06 115.2 149.99 113.4 149.9 111.61 149.92 109.81 149.88 108.01 149.97 106.21 150.12 104.41 150.06 102.61 150.11 100.81 150.05 99.02 150.07 97.22 150.03 95.42 149.97 93.62 150.12 91.83 150.13 90.03 150.08 88.24 149.9 86.44 149.94 84.64 150.12 82.84 150.13 81.04 149.99 79.25 149.9 77.44 149.95 75.64 149.93 73.85 150.1 72.05 150 70.24 149.97 68.44 150.07 66.64 150.06 64.84 149.87 63.04 150.02 61.24 149.9 59.44 150.01 57.63 149.9 55.84 150.12 54.03 149.92 52.23 149.9 50.42 149.95 48.62 150.02 46.81 150 45 149.88 43.14 149.77 41.42 148.96 40.48 147.34 39.91 145.56 40.05 145 40.27 143.04 41.53 141.53 43.11 140.45 45 140.09 46.8 139.99 48.59 140.05 50.39 140.06 52.19 140.11 53.98 139.93 55.77 140.02 57.57 139.91 59.36 139.91 61.15 140.12 62.94 140.13 64.74 140.12 66.53 139.88 68.32 140 70.12 140.13 71.91 140.12 73.7 139.88 75.5 140.13 77.3 140.04 79.1 140.05 80.89 140 82.69 139.9 84.49 140.07 86.28 139.88 88.08 139.94 89.87 139.98 91.67 139.95 93.46 139.92 95.25 139.99 97.05 140.13 98.85 140.09 100.64 140.12 102.44 139.99 104.24 139.99 106.04 139.88 107.83 139.99 109.63 140 111.43 139.98 113.22 139.92 115.02 140.09 116.82 140.12 118.61 140.02 120.41 139.89 122.21 140.1 124.01 140.04 125.81 140.1 127.6 139.95 129.4 140.1 131.2 139.96 133 140 134.8 139.94 136.6 139.95 138.39 140.03 140.19 139.96 141.99 140.02 143.79 139.91 145.59 139.92 147.39 140.08 149.19 140.01 150.98 140.02 152.78 140.04 154.58 140.11 156.38 140.04 158.17 139.99 159.97 139.95 161.76 140.04 163.56 140.11 165.36 139.95 167.16 139.97 168.96 139.88 170.75 140.06 172.56 139.96 174.35 140.11 176.15 139.92 177.95 140.11 179.76 139.88 181.56 140.04 183.36 140.06 185.16 139.96 186.96 139.95 188.76 139.87 190.56 140.13 192.37 139.95 194.16 140.12 195.97 140.12 197.77 139.98 199.57 140.03 201.38 140.1 203.19 139.96 205 139.88 206.94 140.32 208.54 141.46 209.51 143.13 210.11 145 209.9 145.56 209.66 147.4 208.55 148.92 206.87 149.79 205 149.96"/><polygon class="cls-5" points="205 149.96 203.2 149.93 201.41 149.96 199.61 149.99 197.81 150.02 196.02 150.06 194.23 149.87 192.43 149.89 190.64 150.07 188.85 150.02 187.06 149.96 185.26 150.01 183.47 150.07 181.68 150.05 179.88 149.97 178.09 149.87 176.29 150.07 174.5 150.12 172.7 149.94 170.9 150.08 169.11 150.01 167.31 150.04 165.51 150.06 163.72 149.92 161.92 149.88 160.13 150 158.34 149.88 156.54 150.05 154.75 150 152.95 150.12 151.15 149.91 149.36 149.91 147.56 149.92 145.76 150.13 143.96 150.06 142.16 150.07 140.37 150.12 138.57 149.96 136.78 150.09 134.98 150.1 133.18 149.91 131.39 150.03 129.59 149.94 127.79 149.97 125.99 150.06 124.19 150.09 122.4 149.91 120.6 149.98 118.8 149.96 117 150.06 115.2 149.99 113.4 149.9 111.61 149.92 109.81 149.88 108.01 149.97 106.21 150.12 104.41 150.06 102.61 150.11 100.81 150.05 99.02 150.07 97.22 150.03 95.42 149.97 93.62 150.12 91.83 150.13 90.03 150.08 88.24 149.9 86.44 149.94 84.64 150.12 82.84 150.13 81.04 149.99 79.25 149.9 77.44 149.95 75.64 149.93 73.85 150.1 72.05 150 70.24 149.97 68.44 150.07 66.64 150.06 64.84 149.87 63.04 150.02 61.24 149.9 59.44 150.01 57.63 149.9 55.84 150.12 54.03 149.92 52.23 149.9 50.42 149.95 48.62 150.02 46.81 150 45 149.88 43.14 149.77 41.42 148.96 40.48 147.34 39.91 145.56 40.05 145 40.27 143.04 41.53 141.53 43.11 140.45 45 140.09 46.8 139.99 48.59 140.05 50.39 140.06 52.19 140.11 53.98 139.93 55.77 140.02 57.57 139.91 59.36 139.91 61.15 140.12 62.94 140.13 64.74 140.12 66.53 139.88 68.32 140 70.12 140.13 71.91 140.12 73.7 139.88 75.5 140.13 77.3 140.04 79.1 140.05 80.89 140 82.69 139.9 84.49 140.07 86.28 139.88 88.08 139.94 89.87 139.98 91.67 139.95 93.46 139.92 95.25 139.99 97.05 140.13 98.85 140.09 100.64 140.12 102.44 139.99 104.24 139.99 106.04 139.88 107.83 139.99 109.63 140 111.43 139.98 113.22 139.92 115.02 140.09 116.82 140.12 118.61 140.02 120.41 139.89 122.21 140.1 124.01 140.04 125.81 140.1 127.6 139.95 129.4 140.1 131.2 139.96 133 140 134.8 139.94 136.6 139.95 138.39 140.03 140.19 139.96 141.99 140.02 143.79 139.91 145.59 139.92 147.39 140.08 149.19 140.01 150.98 140.02 152.78 140.04 154.58 140.11 156.38 140.04 158.17 139.99 159.97 139.95 161.76 140.04 163.56 140.11 165.36 139.95 167.16 139.97 168.96 139.88 170.75 140.06 172.56 139.96 174.35 140.11 176.15 139.92 177.95 140.11 179.76 139.88 181.56 140.04 183.36 140.06 185.16 139.96 186.96 139.95 188.76 139.87 190.56 140.13 192.37 139.95 194.16 140.12 195.97 140.12 197.77 139.98 199.57 140.03 201.38 140.1 203.19 139.96 205 139.88 206.94 140.32 208.54 141.46 209.51 143.13 210.11 145 209.9 145.56 209.66 147.4 208.55 148.92 206.87 149.79 205 149.96"/><polygon class="cls-2" points="49.9 149.92 50.3 151.76 50.75 153.49 51.39 155.16 51.59 156.95 52.12 158.66 52.53 160.4 53.01 162.12 53.33 163.88 53.96 165.56 54.25 167.33 54.85 169.02 55.14 170.78 55.71 172.48 55.96 174.25 56.56 175.94 56.95 177.69 57.39 179.41 57.67 181.18 58.29 182.85 58.59 184.62 59.01 186.35 59.62 188.04 59.88 189.81 60.27 191.55 60.89 193.24 61.3 194.98 61.8 196.69 62.11 198.45 62.63 200.16 62.98 201.92 63.5 203.63 63.89 205.37 64.23 207.13 64.71 208.85 65.27 210.56 65.66 212.3 65.94 214.07 66.54 215.76 66.97 217.5 67.37 219.24 67.75 220.99 68.1 222.75 68.48 224.51 69.08 226.21 69.59 227.8 70.8 228.98 72.31 229.62 73.9 229.96 75.7 230.09 77.49 230.04 79.28 230.07 81.07 230.06 82.86 229.96 84.65 230.04 86.44 230.08 88.23 230.14 90.02 230.01 91.81 229.86 93.6 229.88 95.39 230 97.19 229.94 98.97 229.98 100.77 230.03 102.56 230.09 104.35 230.1 106.14 229.98 107.94 229.97 109.73 229.92 111.52 229.89 113.31 230.04 115.1 229.88 116.9 229.92 118.69 229.88 120.48 230.09 122.27 230.03 124.07 230.08 125.86 229.87 127.65 230.03 129.44 230.07 131.22 230 133.01 229.92 134.81 229.96 136.6 229.85 138.39 230.04 140.18 230.12 141.97 230.01 143.77 229.88 145.56 230.12 147.35 229.99 149.15 229.99 150.94 229.85 152.74 230.14 154.53 230.03 156.33 230.06 158.12 230.01 159.92 230.07 161.71 229.92 163.51 230.14 165.3 229.99 167.1 229.99 168.9 229.85 170.69 230.04 172.49 229.92 174.29 229.91 176.1 230.11 177.76 229.84 179.16 228.92 180.24 227.69 181.09 226.25 181.44 224.5 181.77 222.75 182.13 221 182.59 219.27 183.16 217.57 183.41 215.8 184.02 214.11 184.53 212.4 184.76 210.62 185.13 208.87 185.72 207.18 186.26 205.47 186.53 203.7 186.9 201.96 187.43 200.25 187.88 198.52 188.43 196.82 188.63 195.04 189.12 193.33 189.74 191.65 190.12 189.9 190.55 188.17 190.94 186.43 191.29 184.68 191.76 182.96 192.12 181.2 192.61 179.49 193.17 177.79 193.49 176.03 194.01 174.31 194.38 172.56 194.68 170.8 195.37 169.13 195.78 167.39 196.01 165.6 196.51 163.89 196.95 162.16 197.51 160.46 197.71 158.66 198.37 156.98 198.6 155.2 199.11 153.48 199.55 151.74 199.92 150.07 198.2 150.15 196.4 149.87 194.59 149.92 192.79 150.02 190.99 149.98 189.19 150.13 187.39 150.01 185.58 149.97 183.78 150.08 181.97 149.85 180.17 149.93 178.36 150.13 176.56 149.96 174.75 150.07 172.94 149.88 171.14 149.99 169.33 149.96 167.53 150.09 165.72 150.01 163.92 149.97 162.12 150.02 160.31 149.9 158.51 149.99 156.7 150.1 154.9 150.07 153.09 149.95 151.28 150.02 149.47 150.13 147.67 149.95 145.86 149.9 144.06 149.88 142.25 149.92 140.45 150.13 138.64 149.88 136.83 149.9 135.02 150.04 133.22 150.11 131.41 149.98 129.6 149.95 127.8 149.89 125.99 149.87 124.18 149.94 122.38 149.89 120.57 149.91 118.76 150.04 116.95 150.12 115.14 150.09 113.34 149.95 111.53 149.93 109.72 150.09 107.91 150.13 106.1 149.99 104.3 150.15 102.48 150.1 100.68 149.98 98.87 149.9 97.07 149.86 95.27 149.99 93.46 150 91.65 149.98 89.84 150.13 88.04 150.07 86.23 149.87 84.42 149.94 82.61 149.94 80.8 149.95 79 149.89 77.19 150.06 75.37 150.14 73.56 150.01 71.75 150.05 69.94 149.87 68.13 150.13 66.32 149.95 64.51 150.03 62.7 150.1 60.89 150.13 59.08 150.11 57.27 149.94 55.45 150.05 53.64 149.95 51.82 150 49.9 149.92"/><polygon class="cls-5" points="49.9 149.92 50.3 151.76 50.75 153.49 51.39 155.16 51.59 156.95 52.12 158.66 52.53 160.4 53.01 162.12 53.33 163.88 53.96 165.56 54.25 167.33 54.85 169.02 55.14 170.78 55.71 172.48 55.96 174.25 56.56 175.94 56.95 177.69 57.39 179.41 57.67 181.18 58.29 182.85 58.59 184.62 59.01 186.35 59.62 188.04 59.88 189.81 60.27 191.55 60.89 193.24 61.3 194.98 61.8 196.69 62.11 198.45 62.63 200.16 62.98 201.92 63.5 203.63 63.89 205.37 64.23 207.13 64.71 208.85 65.27 210.56 65.66 212.3 65.94 214.07 66.54 215.76 66.97 217.5 67.37 219.24 67.75 220.99 68.1 222.75 68.48 224.51 69.08 226.21 69.59 227.8 70.8 228.98 72.31 229.62 73.9 229.96 75.7 230.09 77.49 230.04 79.28 230.07 81.07 230.06 82.86 229.96 84.65 230.04 86.44 230.08 88.23 230.14 90.02 230.01 91.81 229.86 93.6 229.88 95.39 230 97.19 229.94 98.97 229.98 100.77 230.03 102.56 230.09 104.35 230.1 106.14 229.98 107.94 229.97 109.73 229.92 111.52 229.89 113.31 230.04 115.1 229.88 116.9 229.92 118.69 229.88 120.48 230.09 122.27 230.03 124.07 230.08 125.86 229.87 127.65 230.03 129.44 230.07 131.22 230 133.01 229.92 134.81 229.96 136.6 229.85 138.39 230.04 140.18 230.12 141.97 230.01 143.77 229.88 145.56 230.12 147.35 229.99 149.15 229.99 150.94 229.85 152.74 230.14 154.53 230.03 156.33 230.06 158.12 230.01 159.92 230.07 161.71 229.92 163.51 230.14 165.3 229.99 167.1 229.99 168.9 229.85 170.69 230.04 172.49 229.92 174.29 229.91 176.1 230.11 177.76 229.84 179.16 228.92 180.24 227.69 181.09 226.25 181.44 224.5 181.77 222.75 182.13 221 182.59 219.27 183.16 217.57 183.41 215.8 184.02 214.11 184.53 212.4 184.76 210.62 185.13 208.87 185.72 207.18 186.26 205.47 186.53 203.7 186.9 201.96 187.43 200.25 187.88 198.52 188.43 196.82 188.63 195.04 189.12 193.33 189.74 191.65 190.12 189.9 190.55 188.17 190.94 186.43 191.29 184.68 191.76 182.96 192.12 181.2 192.61 179.49 193.17 177.79 193.49 176.03 194.01 174.31 194.38 172.56 194.68 170.8 195.37 169.13 195.78 167.39 196.01 165.6 196.51 163.89 196.95 162.16 197.51 160.46 197.71 158.66 198.37 156.98 198.6 155.2 199.11 153.48 199.55 151.74 199.92 150.07 198.2 150.15 196.4 149.87 194.59 149.92 192.79 150.02 190.99 149.98 189.19 150.13 187.39 150.01 185.58 149.97 183.78 150.08 181.97 149.85 180.17 149.93 178.36 150.13 176.56 149.96 174.75 150.07 172.94 149.88 171.14 149.99 169.33 149.96 167.53 150.09 165.72 150.01 163.92 149.97 162.12 150.02 160.31 149.9 158.51 149.99 156.7 150.1 154.9 150.07 153.09 149.95 151.28 150.02 149.47 150.13 147.67 149.95 145.86 149.9 144.06 149.88 142.25 149.92 140.45 150.13 138.64 149.88 136.83 149.9 135.02 150.04 133.22 150.11 131.41 149.98 129.6 149.95 127.8 149.89 125.99 149.87 124.18 149.94 122.38 149.89 120.57 149.91 118.76 150.04 116.95 150.12 115.14 150.09 113.34 149.95 111.53 149.93 109.72 150.09 107.91 150.13 106.1 149.99 104.3 150.15 102.48 150.1 100.68 149.98 98.87 149.9 97.07 149.86 95.27 149.99 93.46 150 91.65 149.98 89.84 150.13 88.04 150.07 86.23 149.87 84.42 149.94 82.61 149.94 80.8 149.95 79 149.89 77.19 150.06 75.37 150.14 73.56 150.01 71.75 150.05 69.94 149.87 68.13 150.13 66.32 149.95 64.51 150.03 62.7 150.1 60.89 150.13 59.08 150.11 57.27 149.94 55.45 150.05 53.64 149.95 51.82 150 49.9 149.92"/><polyline class="cls-5" points="182.53 220.01 182.79 218.22 183.31 216.51 183.92 214.81 184.11 213.01 184.49 211.26 185.22 209.59 185.72 207.87 186.05 206.11 186.41 204.35 186.94 202.64 187.25 200.88 187.77 199.16 188.13 197.41 188.72 195.71 188.85 193.89 189.47 192.2 189.73 190.42 190.38 188.73 190.83 186.99 191.24 185.25 191.62 183.5 192.17 181.78 192.41 179.99 193 178.29 193.47 176.56 193.81 174.79 194.33 173.07 194.76 171.33 195.18 169.59 195.64 167.85 195.82 166.05 196.52 164.37 196.8 162.59 197.45 160.89 197.82 159.13 198.25 157.38"/><polyline class="cls-5" points="179.95 157.37 179.62 159.13 179.34 160.89 178.86 162.58 178.65 164.36 178.11 166.04 178 167.84 177.64 169.58 177.33 171.32 177.03 173.06 176.62 174.78 176.35 176.55 176.01 178.28 175.54 179.99 175.39 181.77 174.95 183.49 174.68 185.24 174.38 186.98 174.06 188.71 173.53 190.41 173.37 192.18 172.86 193.88 172.82 195.69 172.32 197.4 172.09 199.15 171.68 200.87 171.46 202.63 171.06 204.35 170.8 206.1 170.57 207.86 170.17 209.59 169.58 211.27 169.3 213.01 169.19 214.81 168.72 216.5 168.3 218.23 168.17 220"/><polyline class="cls-5" points="161.64 157.37 161.41 159.13 161.23 160.89 160.92 162.57 160.78 164.35 160.4 166.04 160.37 167.83 160.1 169.57 159.9 171.31 159.73 173.04 159.44 174.77 159.23 176.54 159.01 178.27 158.67 179.98 158.61 181.76 158.27 183.49 158.11 185.23 157.92 186.97 157.74 188.7 157.34 190.4 157.27 192.17 156.88 193.88 156.93 195.67 156.52 197.4 156.42 199.13 156.12 200.86 155.98 202.63 155.71 204.34 155.55 206.09 155.42 207.85 155.13 209.58 154.66 211.27 154.49 213.02 154.45 214.81 154.14 216.5 153.82 218.24 153.81 219.99"/><polyline class="cls-5" points="143.34 157.37 143.21 159.13 143.11 160.89 142.98 162.57 142.92 164.34 142.68 166.04 142.74 167.81 142.56 169.57 142.47 171.31 142.43 173.03 142.25 174.76 142.11 176.54 142.02 178.26 141.8 179.98 141.83 181.74 141.6 183.48 141.54 185.22 141.47 186.96 141.42 188.68 141.14 190.4 141.17 192.15 140.89 193.88 141.03 195.65 140.72 197.39 140.75 199.12 140.56 200.85 140.5 202.62 140.36 204.33 140.3 206.08 140.27 207.83 140.08 209.57 139.75 211.28 139.69 213.02 139.72 214.8 139.55 216.5 139.33 218.25 139.46 219.99"/><polyline class="cls-5" points="125.04 157.37 125 159.12 125 160.88 125.03 162.56 125.05 164.34 124.97 166.03 125.11 167.8 125.01 169.56 125.04 171.3 125.13 173.01 125.06 174.75 124.98 176.53 125.03 178.25 124.93 179.97 125.05 181.73 124.92 183.48 124.98 185.21 125.02 186.95 125.1 188.66 124.94 190.39 125.08 192.14 124.9 193.87 125.13 195.64 124.92 197.39 125.07 199.11 125 200.84 125.03 202.61 125.01 204.32 125.05 206.07 125.12 207.82 125.04 209.56 124.83 211.28 124.88 213.03 124.98 214.8 124.97 216.5 124.84 218.26 125.1 219.98"/><polyline class="cls-5" points="106.73 157.37 106.79 159.12 106.89 160.88 107.09 162.56 107.18 164.33 107.25 166.03 107.47 167.79 107.47 169.56 107.61 171.29 107.83 173 107.88 174.74 107.86 176.52 108.04 178.24 108.06 179.97 108.27 181.72 108.25 183.47 108.41 185.21 108.57 186.94 108.78 188.65 108.74 190.38 108.98 192.12 108.92 193.87 109.22 195.62 109.11 197.38 109.4 199.09 109.44 200.83 109.55 202.6 109.66 204.32 109.8 206.06 109.97 207.81 110 209.56 109.91 211.29 110.08 213.03 110.25 214.8 110.38 216.5 110.36 218.27 110.74 219.97"/><polyline class="cls-5" points="88.43 157.36 88.58 159.12 88.77 160.88 89.15 162.55 89.31 164.32 89.54 166.03 89.84 167.78 89.93 169.55 90.18 171.28 90.52 172.99 90.69 174.72 90.74 176.51 91.05 178.22 91.19 179.96 91.49 181.71 91.57 183.47 91.84 185.2 92.12 186.92 92.46 188.63 92.55 190.38 92.88 192.11 92.93 193.87 93.33 195.6 93.31 197.38 93.73 199.08 93.88 200.82 94.07 202.59 94.31 204.31 94.55 206.05 94.82 207.79 94.95 209.55 95 211.3 95.27 213.03 95.51 214.8 95.8 216.5 95.87 218.28 96.39 219.97"/><polyline class="cls-5" points="70.13 157.36 70.38 159.12 70.66 160.88 71.21 162.55 71.45 164.32 71.82 166.03 72.21 167.77 72.39 169.54 72.75 171.27 73.22 172.97 73.5 174.71 73.62 176.51 74.06 178.21 74.32 179.96 74.71 181.69 74.9 183.46 75.28 185.19 75.67 186.91 76.14 188.61 76.35 190.37 76.78 192.09 76.94 193.86 77.43 195.58 77.51 197.38 78.05 199.07 78.32 200.82 78.59 202.58 78.96 204.3 79.3 206.04 79.67 207.78 79.91 209.54 80.08 211.3 80.46 213.03 80.78 214.79 81.21 216.5 81.38 218.28 82.03 219.96"/><polyline class="cls-5" points="51.82 157.36 52.17 159.12 52.54 160.87 53.27 162.54 53.58 164.31 54.11 166.02 54.57 167.76 54.84 169.54 55.32 171.26 55.92 172.96 56.32 174.7 56.49 176.5 57.06 178.2 57.45 179.95 57.93 181.68 58.22 183.46 58.71 185.18 59.22 186.9 59.82 188.6 60.15 190.36 60.68 192.08 60.96 193.86 61.53 195.57 61.71 197.37 62.38 199.05 62.76 200.81 63.12 202.57 63.61 204.3 64.05 206.03 64.52 207.77 64.86 209.53 65.17 211.31 65.66 213.04 66.04 214.79 66.63 216.5 66.89 218.29 67.67 219.96"/><polygon class="cls-2" points="174.64 224.97 172.88 224.91 171.1 224.93 169.32 224.99 167.53 224.94 165.75 225 163.97 225.08 162.19 224.99 160.4 224.99 158.62 225 156.83 224.97 155.05 225.08 153.26 225.04 151.48 225.09 149.7 225.03 147.91 225.09 146.13 225.09 144.34 224.9 142.56 225.02 140.77 225 138.99 224.93 137.2 224.96 135.42 224.99 133.63 225.08 131.85 224.93 130.06 225 128.28 225.05 126.49 225.04 124.7 224.97 122.92 224.97 121.14 224.96 119.36 224.99 117.58 225.03 115.79 224.9 114.01 224.97 112.22 225 110.44 225 108.65 224.97 106.87 225.01 105.08 224.97 103.3 225.01 101.51 224.95 99.72 225 97.93 224.91 96.14 225.06 94.36 225.08 92.57 225.06 90.78 224.96 89 224.98 87.21 224.98 85.42 224.94 83.63 224.91 81.84 225.01 80.05 224.97 78.26 225.04 76.46 224.91 74.68 224.99 74.61 223.22 74.74 221.44 74.65 219.65 76.45 219.77 78.23 219.58 80.02 219.71 81.8 219.68 83.58 219.6 85.36 219.6 87.15 219.64 88.93 219.74 90.72 219.63 92.5 219.65 94.29 219.62 96.07 219.74 97.85 219.68 99.64 219.7 101.42 219.66 103.21 219.76 104.99 219.68 106.78 219.71 108.56 219.76 110.35 219.75 112.13 219.57 113.92 219.7 115.7 219.7 117.49 219.73 119.27 219.57 121.06 219.76 122.84 219.71 124.63 219.58 126.41 219.76 128.19 219.61 129.97 219.66 131.75 219.58 133.54 219.68 135.33 219.65 137.11 219.75 138.9 219.74 140.68 219.63 142.47 219.65 144.25 219.62 146.04 219.69 147.82 219.59 149.61 219.65 151.4 219.68 153.19 219.62 154.98 219.62 156.76 219.66 158.55 219.65 160.34 219.74 162.13 219.74 163.91 219.68 165.7 219.67 167.49 219.71 169.28 219.68 171.07 219.6 172.87 219.6 174.67 219.66 174.71 221.44 174.77 223.22 174.64 224.97"/><polygon class="cls-2" points="187.25 160 185.47 160.06 183.66 159.93 181.86 159.91 180.06 159.96 178.25 159.91 176.45 159.93 174.64 160.06 172.84 160.08 171.03 160.11 169.23 160.03 167.42 159.99 165.61 160.01 163.81 160.14 162 160.05 160.2 159.96 158.39 159.98 156.59 159.9 154.78 160.07 152.97 160.03 151.17 159.97 149.36 159.96 147.55 160.01 145.75 159.95 143.94 159.97 142.13 160.03 140.33 159.97 138.52 160.1 136.71 160.05 134.9 159.92 133.1 160.03 131.29 160.06 129.48 159.94 127.68 159.95 125.87 160.14 124.06 159.95 122.25 160.12 120.44 159.94 118.64 159.99 116.83 159.98 115.02 159.96 113.22 160.04 111.41 160.08 109.61 160.03 107.81 159.97 106 160.04 104.19 159.96 102.38 159.92 100.58 160.1 98.77 159.93 96.96 160.05 95.15 159.95 93.34 160.09 91.53 160.04 89.72 160.09 87.91 159.99 86.1 160.08 84.29 160.1 82.48 160 80.67 160.06 78.86 160.01 77.05 160.06 75.24 160.07 73.43 159.9 71.61 159.9 69.8 160.09 67.99 160.07 66.17 159.93 64.42 159.95 64.25 158.25 64.46 156.47 64.27 154.61 66.16 154.65 67.96 154.58 69.76 154.66 71.57 154.63 73.37 154.68 75.17 154.58 76.98 154.66 78.78 154.76 80.59 154.76 82.39 154.63 84.2 154.73 86.01 154.77 87.82 154.73 89.62 154.66 91.43 154.71 93.23 154.81 95.04 154.76 96.84 154.71 98.65 154.81 100.45 154.8 102.26 154.6 104.07 154.71 105.88 154.79 107.68 154.6 109.49 154.59 111.3 154.59 113.1 154.7 114.91 154.78 116.72 154.61 118.53 154.77 120.33 154.62 122.14 154.58 123.95 154.62 125.75 154.57 127.56 154.72 129.37 154.66 131.18 154.65 132.99 154.62 134.8 154.57 136.6 154.66 138.41 154.67 140.21 154.6 142.01 154.75 143.82 154.64 145.63 154.72 147.44 154.77 149.24 154.73 151.05 154.6 152.85 154.76 154.66 154.71 156.47 154.81 158.28 154.74 160.09 154.75 161.9 154.73 163.71 154.61 165.52 154.57 167.33 154.81 169.14 154.58 170.96 154.58 172.76 154.67 174.57 154.6 176.38 154.69 178.19 154.8 180.01 154.69 181.82 154.63 183.63 154.6 185.45 154.66 187.2 154.76 187.38 156.46 187.23 158.24 187.25 160"/><polyline class="cls-5" points="59.99 140 60.4 138.22 60.56 136.39 60.94 134.6 61.12 132.77 61.6 131 61.93 129.2 62.17 127.37 62.56 125.58 62.7 123.73 63.2 122 63.96 120.36 64.39 118.61 65.28 117.04 65.91 115.35 66.77 113.77 67.83 112.32 68.84 110.84 69.93 109.42 71.1 108.06 72.25 106.68 73.59 105.5 74.87 104.23 76.25 103.09 77.63 101.94 79.2 101.06 80.74 100.15 82.32 99.31 83.86 98.36 85.54 97.72 87.23 97.14 88.97 96.7 90.7 96.22 92.4 95.63 94.19 95.42 95.98 95.26 97.77 95.17 99.56 94.99 101.37 95.14 103.18 94.99 104.99 95.07 106.8 95.16 108.62 95.05 110.43 95.16 112.25 95.19 114.06 94.97 115.87 94.97 117.69 95.09 119.5 95.14 121.32 94.97 123.13 95.11 124.95 95.15 126.77 95.17 128.59 94.96 130.4 95.15 132.22 95.08 134.04 95.12 135.85 95.15 137.67 95.07 139.49 95.03 141.3 94.97 143.13 95.08 144.94 95.06 146.76 95.06 148.59 95.06 150.41 95.06 152.21 95.21 154.01 95.13 155.79 95.39 157.55 95.75 159.28 96.22 161.01 96.69 162.77 97.08 164.4 97.84 166.1 98.43 167.74 99.18 169.27 100.12 170.76 101.12 172.25 102.1 173.76 103.08 175.2 104.15 176.5 105.4 177.8 106.64 178.95 108.03 180.18 109.34 181.07 110.91 182.19 112.32 183.22 113.79 183.9 115.47 184.88 116.99 185.45 118.69 186.07 120.38 186.75 122.04 187.16 123.79 187.53 125.57 187.81 127.38 188 129.2 188.54 130.96 188.69 132.79 189 134.59 189.3 136.4 189.71 138.19 189.9 140.02"/><polygon class="cls-2" points="113.18 99.99 113.13 98.18 112.85 96.39 112.51 94.62 112.01 92.88 111.4 91.18 110.63 89.54 109.8 87.94 108.81 86.42 107.66 85.02 106.35 83.77 105.06 82.5 103.59 81.45 102.13 80.41 100.6 79.43 98.91 78.79 97.25 78.07 95.48 77.69 93.72 77.3 91.93 77.05 90.13 77.01 88.32 77.07 86.53 77.29 84.74 77.57 83.02 78.14 81.29 78.66 79.66 79.46 78.14 80.43 76.57 81.33 75.17 82.48 73.9 83.77 72.69 85.1 71.44 86.42 70.44 87.93 69.55 89.51 68.87 91.19 68.22 92.88 67.83 94.64 67.39 96.39 67.11 98.18 67.15 99.99 67.18 101.8 67.49 103.58 67.72 105.38 68.2 107.12 68.88 108.8 69.58 110.46 70.58 111.97 71.57 113.48 72.57 114.99 73.92 116.21 75.15 117.53 76.65 118.55 78.15 119.55 79.67 120.51 81.31 121.27 83.01 121.9 84.74 122.41 86.53 122.7 88.32 122.98 90.13 122.99 91.93 122.92 93.72 122.64 95.51 122.39 97.25 121.91 98.95 121.29 100.53 120.41 102.13 119.57 103.65 118.6 105.12 117.54 106.44 116.3 107.55 114.87 108.72 113.5 109.75 112.01 110.65 110.45 111.32 108.77 112.04 107.11 112.43 105.35 112.84 103.59 113.11 101.8 113.18 99.99"/><polygon class="cls-3" points="110.14 100 110.01 98.16 109.74 96.33 109.42 94.51 108.79 92.77 108.05 91.07 107.11 89.49 106.09 87.94 104.95 86.49 103.63 85.19 102.22 83.98 100.67 82.98 99.01 82.16 97.34 81.38 95.58 80.82 93.8 80.37 91.97 80.13 90.13 80.02 88.28 80.07 86.46 80.4 84.67 80.83 82.92 81.39 81.18 82.04 79.58 82.96 78.11 84.09 76.7 85.28 75.34 86.52 74.12 87.91 73.09 89.45 72.19 91.07 71.53 92.79 70.89 94.53 70.45 96.32 70.25 98.16 70.16 100 70.14 101.85 70.48 103.67 70.83 105.49 71.48 107.23 72.17 108.94 73.18 110.49 74.13 112.08 75.31 113.51 76.64 114.8 78.08 115.95 79.6 117 81.18 117.97 82.91 118.63 84.67 119.17 86.44 119.73 88.29 119.86 90.13 120.03 91.97 119.84 93.81 119.71 95.61 119.28 97.38 118.71 99.04 117.9 100.67 117.03 102.2 115.99 103.64 114.83 104.88 113.44 106.1 112.06 107.09 110.5 107.99 108.89 108.84 107.25 109.44 105.5 109.86 103.69 109.97 101.84 110.14 100"/><path class="cls-6" d="M92.52,99.55l2.06,1.2.67,1.92-1,2.27-1.56.83-1.75.32v1.62H89.36V106l-1.64-.33-1.46-.81-1-1.25L85,102.11h2.15l.56,1.36,1.66.58v-3.56l-.9-.33-1.26-.5-1.13-.73-.85-2,1.06-2.17L87.73,94l1.65-.26V92.3h1.55v1.41l1.44.33,1.27.77.79,1.1.4,1.28H92.67l-.55-1-1.21-.6,0,1.67V99ZM88,96.06l-.45.91.29.82.95.51.55.23v-3Zm4.34,7.53.46-1-1.32-1.55-.58-.21,0,1.6v1.61Z"/><polygon class="cls-2" points="180 60.03 180 104.97 175 101.97 169.75 104.97 165.25 101.97 160 104.97 155.25 101.97 150 104.97 145.14 101.97 140 104.97 140 60.03 180 60.03"/><polygon class="cls-2" points="182.99 56.67 183.02 58.44 182.94 60.22 182.91 61.99 183.09 63.77 183.04 65.55 183.09 67.33 182.9 69.11 183.08 70.89 182.96 72.67 182.97 74.45 183.01 76.23 182.9 78.01 182.95 79.79 183 81.57 182.97 83.36 183.04 85.14 183.02 86.92 183.03 88.7 182.96 90.49 182.94 92.27 182.92 94.05 182.99 95.83 182.96 97.61 182.93 99.4 182.91 101.19 183.06 102.97 182.94 104.76 182.92 106.55 182.98 108.31 181.61 107.41 180.13 106.61 178.67 105.78 177.25 104.85 175.77 105.8 174.19 106.54 172.68 107.39 171.21 108.33 169.47 107.22 167.82 105.95 166.03 104.96 164.5 105.69 162.99 106.55 161.53 107.51 160 108.34 158.59 107.56 157.32 106.53 155.91 105.74 154.54 104.79 152.98 105.66 151.51 106.59 150.03 107.51 148.5 108.34 147.06 107.55 145.68 106.67 144.28 105.81 142.91 104.97 141.42 105.72 139.94 106.58 138.46 107.45 137 108.33 136.94 106.56 137.05 104.78 137.03 103.01 137.09 101.23 137.04 99.45 136.91 97.67 137.03 95.89 136.96 94.11 136.98 92.33 137.01 90.55 137.05 88.77 137.1 86.99 137 85.21 136.96 83.43 136.92 81.64 137.02 79.86 137 78.08 136.97 76.3 137.01 74.51 136.92 72.73 136.93 70.95 136.93 69.17 136.94 67.39 136.96 65.6 137.02 63.81 136.99 62.03 137.02 60.24 136.96 58.45 137 56.66 138.76 56.57 140.53 56.59 142.29 56.62 144.06 56.75 145.83 56.76 147.59 56.63 149.36 56.66 151.13 56.76 152.9 56.68 154.66 56.75 156.43 56.59 158.2 56.64 159.97 56.64 161.74 56.68 163.51 56.65 165.28 56.62 167.05 56.68 168.82 56.69 170.59 56.73 172.36 56.58 174.13 56.69 175.9 56.67 177.67 56.76 179.44 56.63 181.22 56.71 182.99 56.67"/><polygon class="cls-5" points="179.98 60.05 180.02 61.83 180.09 63.62 180.07 65.42 180.07 67.21 179.98 69 179.94 70.8 180.08 72.59 179.93 74.39 179.97 76.19 180.04 77.98 180.01 79.78 180.01 81.58 179.94 83.37 179.98 85.17 180.09 86.97 179.92 88.77 180.07 90.56 180.07 92.36 179.96 94.16 179.99 95.95 180.02 97.76 179.94 99.55 179.95 101.36 180.03 103.16 180 104.97 178.36 103.92 176.71 102.89 175 101.93 173.29 103.04 171.54 104.04 169.75 105.05 168.24 103.99 166.78 102.92 165.25 101.99 163.47 102.92 161.72 103.9 160 104.88 158.39 104.01 156.84 102.95 155.25 101.9 153.53 103.01 151.71 103.9 150 104.96 148.41 103.92 146.76 102.96 145.14 102.02 143.42 102.95 141.74 104.01 139.97 105.02 139.94 103.17 140.05 101.38 140.05 99.58 139.96 97.79 139.99 96 140.07 94.2 140.02 92.41 139.94 90.61 140.05 88.81 139.99 87.02 139.97 85.22 140.02 83.42 139.96 81.63 139.92 79.83 140.01 78.03 139.99 76.23 139.96 74.44 140.06 72.64 139.93 70.84 140.03 69.05 140.01 67.24 139.98 65.45 139.99 63.64 140.04 61.84 139.99 60.02 141.81 60.05 143.63 59.99 145.44 60.03 147.26 60.09 149.08 60.11 150.89 60.01 152.71 60.03 154.53 60.1 156.34 60.05 158.16 60.07 159.98 60.12 161.8 59.98 163.62 59.95 165.43 60.03 167.25 60.02 169.07 60 170.88 60.02 172.71 60.07 174.53 60.03 176.35 60.04 178.18 59.96 179.98 60.05"/><polyline class="cls-5" points="145.14 70.05 146.93 69.94 148.73 70.05 150.52 69.96 152.31 70.06 154.11 69.99 155.91 69.97 157.7 69.97 159.49 69.99 161.29 69.98 163.08 70.05 164.88 70 166.68 70 168.47 70 170.27 70 172.07 69.95 173.88 69.97"/><polyline class="cls-5" points="145.14 76.62 146.93 76.62 148.73 76.62 150.52 76.71 152.31 76.71 154.11 76.72 155.91 76.62 157.7 76.61 159.49 76.7 161.29 76.66 163.08 76.71 164.88 76.7 166.68 76.71 168.47 76.62 170.27 76.7 172.07 76.65 173.88 76.68"/><polyline class="cls-5" points="145.14 83.28 146.93 83.28 148.73 83.29 150.52 83.29 152.31 83.27 154.11 83.32 155.91 83.34 157.7 83.29 159.49 83.36 161.29 83.37 163.08 83.35 164.88 83.35 166.68 83.34 168.47 83.3 170.27 83.31 172.07 83.35 173.88 83.36"/><polyline class="cls-5" points="145.14 90.02 146.93 89.99 148.73 89.99 150.52 89.95 152.31 90 154.11 90 155.91 89.98 157.7 89.94 159.49 89.95 161.29 89.98 163.08 90.01 164.88 90.02 166.68 89.94 168.47 90 170.27 89.98 172.07 90 173.88 90.03"/></g></svg>
