<svg xmlns="http://www.w3.org/2000/svg" viewBox="0 0 250 250"><defs><style>.cls-1{fill:#f8f8f8;}.cls-2{fill:#fff;}.cls-3{fill:none;stroke:#3e82f7;stroke-miterlimit:10;stroke-width:3px;}.cls-4{fill:#fadc2d;}.cls-5{fill:#ff852d;}</style></defs><title>icon-analyze-history</title><g id="Base_Dots" data-name="Base Dots"><circle class="cls-1" cx="125" cy="125" r="100"/></g><g id="Artwork"><polygon class="cls-2" points="130.21 209.8 126.53 209.94 122.84 209.96 119.16 209.9 115.47 209.87 111.79 209.92 108.11 209.75 104.43 210.09 100.75 210.01 97.06 210.08 93.38 209.69 89.69 210.09 86.01 210.01 82.32 209.93 78.63 209.99 74.95 210.06 71.26 209.98 67.58 209.87 63.88 209.89 60.19 209.88 56.3 209.27 52.98 207.08 51.07 203.65 50.12 199.88 50.03 196.28 50.13 192.68 50.3 189.08 50.19 185.48 50.06 181.88 50.02 178.29 50.19 174.69 50.01 171.09 50.4 167.49 50.07 163.89 50.34 160.3 50.1 156.7 50.03 153.1 50.07 149.5 50.3 145.9 50.12 142.31 50.22 138.71 50.38 135.1 49.98 131.5 50.38 127.9 50.19 124.3 50.1 120.7 50.16 117.09 50.22 113.49 50 109.88 51.04 106.09 53.05 102.74 56.37 100.65 60.19 99.87 63.87 99.83 67.56 99.91 71.24 99.79 74.93 99.84 78.61 99.67 82.29 100.08 85.97 99.72 89.65 99.98 93.34 99.93 97.02 99.76 100.71 99.87 104.39 100.08 108.08 99.83 111.77 100.08 115.45 100.02 119.14 100.03 122.83 100.04 126.52 100.03 130.21 100.09 134.04 100.62 137.43 102.66 139.55 106.01 140.29 109.88 140 113.48 140.23 117.07 140.03 120.67 140.14 124.27 140.16 127.87 140.19 131.47 140.1 135.07 140.12 138.66 140.4 142.26 140.16 145.86 140.37 149.46 140.2 153.05 140.1 156.65 140.35 160.25 140.19 163.85 140 167.45 140.34 171.05 140.06 174.65 140.1 178.25 140.13 181.85 140.42 185.46 140.3 189.06 140.18 192.66 140.25 196.27 140.19 199.88 139.59 203.76 137.3 206.97 134.08 209.22 130.21 209.8"/><polygon class="cls-3" points="130.21 209.8 126.53 209.94 122.84 209.96 119.16 209.9 115.47 209.87 111.79 209.92 108.11 209.75 104.43 210.09 100.75 210.01 97.06 210.08 93.38 209.69 89.69 210.09 86.01 210.01 82.32 209.93 78.63 209.99 74.95 210.06 71.26 209.98 67.58 209.87 63.88 209.89 60.19 209.88 56.3 209.27 52.98 207.08 51.07 203.65 50.12 199.88 50.03 196.28 50.13 192.68 50.3 189.08 50.19 185.48 50.06 181.88 50.02 178.29 50.19 174.69 50.01 171.09 50.4 167.49 50.07 163.89 50.34 160.3 50.1 156.7 50.03 153.1 50.07 149.5 50.3 145.9 50.12 142.31 50.22 138.71 50.38 135.1 49.98 131.5 50.38 127.9 50.19 124.3 50.1 120.7 50.16 117.09 50.22 113.49 50 109.88 51.04 106.09 53.05 102.74 56.37 100.65 60.19 99.87 63.87 99.83 67.56 99.91 71.24 99.79 74.93 99.84 78.61 99.67 82.29 100.08 85.97 99.72 89.65 99.98 93.34 99.93 97.02 99.76 100.71 99.87 104.39 100.08 108.08 99.83 111.77 100.08 115.45 100.02 119.14 100.03 122.83 100.04 126.52 100.03 130.21 100.09 134.04 100.62 137.43 102.66 139.55 106.01 140.29 109.88 140 113.48 140.23 117.07 140.03 120.67 140.14 124.27 140.16 127.87 140.19 131.47 140.1 135.07 140.12 138.66 140.4 142.26 140.16 145.86 140.37 149.46 140.2 153.05 140.1 156.65 140.35 160.25 140.19 163.85 140 167.45 140.34 171.05 140.06 174.65 140.1 178.25 140.13 181.85 140.42 185.46 140.3 189.06 140.18 192.66 140.25 196.27 140.19 199.88 139.59 203.76 137.3 206.97 134.08 209.22 130.21 209.8"/><polygon class="cls-2" points="140.16 199.81 136.47 199.98 132.79 200.06 129.11 199.79 125.42 199.98 121.74 199.9 118.06 199.9 114.38 199.96 110.69 199.91 107.01 200.07 103.33 199.83 99.64 199.99 95.95 199.79 92.27 200 88.58 200.02 84.9 199.74 81.21 199.94 77.52 199.96 73.83 200.09 70.14 199.96 66.34 199.09 62.91 197.15 60.83 193.78 60.27 189.93 60.23 186.33 60.03 182.73 60.14 179.13 60.1 175.54 59.94 171.94 60.06 168.34 60.33 164.74 60.3 161.14 60.12 157.54 59.99 153.95 59.96 150.35 60.03 146.75 60.24 143.15 60.02 139.56 60.02 135.96 59.92 132.36 60.21 128.76 60.24 125.16 60.16 121.55 60.09 117.95 60.27 114.35 60.13 110.75 60.17 107.15 60.11 103.54 60.35 99.93 60.84 96.08 63.03 92.82 66.32 90.71 70.14 89.83 73.82 89.85 77.5 89.78 81.19 89.75 84.87 89.86 88.56 90.07 92.24 90.07 95.92 89.86 99.6 89.78 103.29 90.12 106.97 89.78 110.65 89.93 114.34 89.96 118.03 89.99 121.71 89.78 125.4 90.07 129.09 90.14 132.77 90.09 136.47 89.78 140.16 90.13 143.96 90.75 147.22 92.87 149.49 96.07 149.96 99.93 150.09 103.53 150.25 107.13 149.95 110.73 150.31 114.32 150.25 117.92 150.2 121.52 150.02 125.12 150.02 128.72 150.06 132.32 150.36 135.91 150 139.51 150.32 143.11 150.03 146.71 150.12 150.3 150.21 153.9 150.07 157.5 150 161.1 150.09 164.7 150.33 168.31 150.11 171.91 150.23 175.51 150.08 179.11 150.2 182.71 150.25 186.32 149.95 189.93 149.48 193.79 147.1 196.87 143.95 199.09 140.16 199.81"/><polygon class="cls-3" points="140.16 199.81 136.47 199.98 132.79 200.06 129.11 199.79 125.42 199.98 121.74 199.9 118.06 199.9 114.38 199.96 110.69 199.91 107.01 200.07 103.33 199.83 99.64 199.99 95.95 199.79 92.27 200 88.58 200.02 84.9 199.74 81.21 199.94 77.52 199.96 73.83 200.09 70.14 199.96 66.34 199.09 62.91 197.15 60.83 193.78 60.27 189.93 60.23 186.33 60.03 182.73 60.14 179.13 60.1 175.54 59.94 171.94 60.06 168.34 60.33 164.74 60.3 161.14 60.12 157.54 59.99 153.95 59.96 150.35 60.03 146.75 60.24 143.15 60.02 139.56 60.02 135.96 59.92 132.36 60.21 128.76 60.24 125.16 60.16 121.55 60.09 117.95 60.27 114.35 60.13 110.75 60.17 107.15 60.11 103.54 60.35 99.93 60.84 96.08 63.03 92.82 66.32 90.71 70.14 89.83 73.82 89.85 77.5 89.78 81.19 89.75 84.87 89.86 88.56 90.07 92.24 90.07 95.92 89.86 99.6 89.78 103.29 90.12 106.97 89.78 110.65 89.93 114.34 89.96 118.03 89.99 121.71 89.78 125.4 90.07 129.09 90.14 132.77 90.09 136.47 89.78 140.16 90.13 143.96 90.75 147.22 92.87 149.49 96.07 149.96 99.93 150.09 103.53 150.25 107.13 149.95 110.73 150.31 114.32 150.25 117.92 150.2 121.52 150.02 125.12 150.02 128.72 150.06 132.32 150.36 135.91 150 139.51 150.32 143.11 150.03 146.71 150.12 150.3 150.21 153.9 150.07 157.5 150 161.1 150.09 164.7 150.33 168.31 150.11 171.91 150.23 175.51 150.08 179.11 150.2 182.71 150.25 186.32 149.95 189.93 149.48 193.79 147.1 196.87 143.95 199.09 140.16 199.81"/><polygon class="cls-2" points="150.46 189.69 146.77 189.48 143.09 189.82 139.41 189.78 135.72 189.53 132.04 189.43 128.36 189.69 124.68 189.83 120.99 189.47 117.31 189.51 113.63 189.56 109.94 189.6 106.25 189.48 102.57 189.76 98.88 189.43 95.2 189.84 91.51 189.79 87.82 189.76 84.13 189.63 80.44 189.65 76.61 188.87 73.47 186.59 71.39 183.38 70.58 179.63 70.58 176.03 70.52 172.43 70.48 168.83 70.45 165.24 70.42 161.64 70.22 158.04 70.38 154.44 70.36 150.84 70.65 147.24 70.3 143.65 70.48 140.05 70.63 136.45 70.63 132.85 70.61 129.26 70.57 125.66 70.5 122.06 70.22 118.46 70.44 114.86 70.62 111.25 70.59 107.65 70.58 104.05 70.26 100.45 70.3 96.85 70.3 93.24 70.53 89.63 71.27 85.83 73.36 82.55 76.67 80.55 80.44 79.78 84.12 79.81 87.81 79.62 91.49 79.57 95.17 79.84 98.86 79.42 102.54 79.68 106.22 79.54 109.9 79.63 113.59 79.53 117.27 79.8 120.95 79.59 124.64 79.64 128.33 79.55 132.01 79.67 135.7 79.51 139.38 79.81 143.07 79.44 146.76 79.59 150.46 79.81 154.32 80.31 157.49 82.6 159.79 85.77 160.39 89.63 160.4 93.23 160.39 96.83 160.3 100.43 160.54 104.02 160.58 107.62 160.56 111.22 160.56 114.82 160.53 118.42 160.61 122.02 160.29 125.61 160.61 129.21 160.58 132.81 160.68 136.41 160.54 140 160.47 143.6 160.4 147.2 160.49 150.8 160.42 154.4 160.26 158 160.39 161.61 160.34 165.21 160.57 168.81 160.25 172.41 160.66 176.02 160.58 179.63 159.87 183.53 157.44 186.61 154.36 189.04 150.46 189.69"/><polygon class="cls-3" points="150.46 189.69 146.77 189.48 143.09 189.82 139.41 189.78 135.72 189.53 132.04 189.43 128.36 189.69 124.68 189.83 120.99 189.47 117.31 189.51 113.63 189.56 109.94 189.6 106.25 189.48 102.57 189.76 98.88 189.43 95.2 189.84 91.51 189.79 87.82 189.76 84.13 189.63 80.44 189.65 76.61 188.87 73.47 186.59 71.39 183.38 70.58 179.63 70.58 176.03 70.52 172.43 70.48 168.83 70.45 165.24 70.42 161.64 70.22 158.04 70.38 154.44 70.36 150.84 70.65 147.24 70.3 143.65 70.48 140.05 70.63 136.45 70.63 132.85 70.61 129.26 70.57 125.66 70.5 122.06 70.22 118.46 70.44 114.86 70.62 111.25 70.59 107.65 70.58 104.05 70.26 100.45 70.3 96.85 70.3 93.24 70.53 89.63 71.27 85.83 73.36 82.55 76.67 80.55 80.44 79.78 84.12 79.81 87.81 79.62 91.49 79.57 95.17 79.84 98.86 79.42 102.54 79.68 106.22 79.54 109.9 79.63 113.59 79.53 117.27 79.8 120.95 79.59 124.64 79.64 128.33 79.55 132.01 79.67 135.7 79.51 139.38 79.81 143.07 79.44 146.76 79.59 150.46 79.81 154.32 80.31 157.49 82.6 159.79 85.77 160.39 89.63 160.4 93.23 160.39 96.83 160.3 100.43 160.54 104.02 160.58 107.62 160.56 111.22 160.56 114.82 160.53 118.42 160.61 122.02 160.29 125.61 160.61 129.21 160.58 132.81 160.68 136.41 160.54 140 160.47 143.6 160.4 147.2 160.49 150.8 160.42 154.4 160.26 158 160.39 161.61 160.34 165.21 160.57 168.81 160.25 172.41 160.66 176.02 160.58 179.63 159.87 183.53 157.44 186.61 154.36 189.04 150.46 189.69"/><polygon class="cls-2" points="160.41 179.56 156.72 179.78 153.04 179.52 149.35 179.84 145.67 179.61 141.99 179.88 138.31 179.56 134.62 179.68 130.94 179.52 127.26 179.72 123.57 179.67 119.89 179.5 116.2 179.47 112.52 179.66 108.83 179.55 105.14 179.64 101.46 179.51 97.77 179.88 94.08 179.54 90.39 179.47 86.62 178.78 83.18 176.89 80.97 173.58 80.4 169.68 80.41 166.08 80.39 162.49 80.41 158.89 80.42 155.29 80.45 151.69 80.6 148.09 80.46 144.49 80.36 140.89 80.52 137.29 80.42 133.7 80.59 130.1 80.25 126.51 80.6 122.91 80.38 119.31 80.5 115.71 80.53 112.11 80.56 108.51 80.35 104.91 80.54 101.31 80.5 97.7 80.31 94.1 80.44 90.5 80.22 86.9 80.2 83.29 80.41 79.69 81.23 75.89 83.31 72.61 86.58 70.49 90.39 69.89 94.07 69.51 97.75 69.52 101.44 69.48 105.12 69.78 108.8 69.56 112.48 69.81 116.17 69.64 119.85 69.59 123.53 69.51 127.22 69.47 130.9 69.55 134.59 69.7 138.28 69.79 141.96 69.73 145.65 69.88 149.33 69.74 153.02 69.86 156.71 69.78 160.41 69.51 164.17 70.59 167.49 72.6 169.49 75.92 170.28 79.69 170.48 83.28 170.51 86.88 170.28 90.48 170.5 94.08 170.2 97.67 170.44 101.27 170.28 104.87 170.28 108.47 170.54 112.07 170.2 115.67 170.24 119.26 170.48 122.86 170.32 126.46 170.2 130.06 170.49 133.66 170.41 137.25 170.46 140.85 170.21 144.46 170.32 148.06 170.35 151.66 170.57 155.26 170.31 158.86 170.47 162.46 170.45 166.07 170.37 169.68 169.68 173.52 167.63 176.9 164.29 179.06 160.41 179.56"/><polygon class="cls-3" points="160.41 179.56 156.72 179.78 153.04 179.52 149.35 179.84 145.67 179.61 141.99 179.88 138.31 179.56 134.62 179.68 130.94 179.52 127.26 179.72 123.57 179.67 119.89 179.5 116.2 179.47 112.52 179.66 108.83 179.55 105.14 179.64 101.46 179.51 97.77 179.88 94.08 179.54 90.39 179.47 86.62 178.78 83.18 176.89 80.97 173.58 80.4 169.68 80.41 166.08 80.39 162.49 80.41 158.89 80.42 155.29 80.45 151.69 80.6 148.09 80.46 144.49 80.36 140.89 80.52 137.29 80.42 133.7 80.59 130.1 80.25 126.51 80.6 122.91 80.38 119.31 80.5 115.71 80.53 112.11 80.56 108.51 80.35 104.91 80.54 101.31 80.5 97.7 80.31 94.1 80.44 90.5 80.22 86.9 80.2 83.29 80.41 79.69 81.23 75.89 83.31 72.61 86.58 70.49 90.39 69.89 94.07 69.51 97.75 69.52 101.44 69.48 105.12 69.78 108.8 69.56 112.48 69.81 116.17 69.64 119.85 69.59 123.53 69.51 127.22 69.47 130.9 69.55 134.59 69.7 138.28 69.79 141.96 69.73 145.65 69.88 149.33 69.74 153.02 69.86 156.71 69.78 160.41 69.51 164.17 70.59 167.49 72.6 169.49 75.92 170.28 79.69 170.48 83.28 170.51 86.88 170.28 90.48 170.5 94.08 170.2 97.67 170.44 101.27 170.28 104.87 170.28 108.47 170.54 112.07 170.2 115.67 170.24 119.26 170.48 122.86 170.32 126.46 170.2 130.06 170.49 133.66 170.41 137.25 170.46 140.85 170.21 144.46 170.32 148.06 170.35 151.66 170.57 155.26 170.31 158.86 170.47 162.46 170.45 166.07 170.37 169.68 169.68 173.52 167.63 176.9 164.29 179.06 160.41 179.56"/><polygon class="cls-2" points="170.7 169.4 167.01 169.24 163.33 169.6 159.65 169.42 155.96 169.31 152.28 169.35 148.6 169.49 144.92 169.57 141.23 169.32 137.55 169.45 133.87 169.25 130.18 169.43 126.49 169.48 122.81 169.52 119.12 169.28 115.44 169.35 111.75 169.49 108.06 169.28 104.37 169.34 100.68 169.29 96.89 168.53 93.57 166.5 91.63 163.14 90.81 159.39 90.84 155.79 90.52 152.19 90.49 148.59 90.49 145 90.46 141.4 90.53 137.8 90.84 134.2 90.88 130.6 90.66 127 90.88 123.41 90.58 119.81 90.47 116.21 90.67 112.61 90.49 109.02 90.51 105.42 90.7 101.82 90.73 98.22 90.71 94.62 90.56 91.01 90.83 87.41 90.83 83.81 90.81 80.21 90.8 76.61 90.7 73 90.84 69.39 91.59 65.63 93.67 62.38 96.78 59.99 100.68 59.61 104.36 59.45 108.05 59.37 111.73 59.44 115.41 59.4 119.1 59.51 122.78 59.38 126.46 59.3 130.14 59.48 133.83 59.55 137.51 59.46 141.19 59.57 144.88 59.52 148.57 59.31 152.25 59.19 155.94 59.21 159.63 59.33 163.31 59.19 167 59.45 170.7 59.19 174.55 60.09 177.89 62.2 179.91 65.58 180.6 69.39 180.82 72.99 180.89 76.59 180.62 80.19 180.6 83.78 180.78 87.38 180.83 90.98 180.75 94.58 180.87 98.18 180.89 101.78 180.82 105.37 180.68 108.97 180.74 112.57 180.74 116.17 180.87 119.76 180.67 123.36 180.52 126.96 180.86 130.56 180.91 134.16 180.68 137.76 180.61 141.37 180.6 144.97 180.67 148.57 180.84 152.17 180.76 155.78 180.71 159.39 179.76 163.14 177.69 166.38 174.48 168.51 170.7 169.4"/><polygon class="cls-3" points="170.7 169.4 167.01 169.24 163.33 169.6 159.65 169.42 155.96 169.31 152.28 169.35 148.6 169.49 144.92 169.57 141.23 169.32 137.55 169.45 133.87 169.25 130.18 169.43 126.49 169.48 122.81 169.52 119.12 169.28 115.44 169.35 111.75 169.49 108.06 169.28 104.37 169.34 100.68 169.29 96.89 168.53 93.57 166.5 91.63 163.14 90.81 159.39 90.84 155.79 90.52 152.19 90.49 148.59 90.49 145 90.46 141.4 90.53 137.8 90.84 134.2 90.88 130.6 90.66 127 90.88 123.41 90.58 119.81 90.47 116.21 90.67 112.61 90.49 109.02 90.51 105.42 90.7 101.82 90.73 98.22 90.71 94.62 90.56 91.01 90.83 87.41 90.83 83.81 90.81 80.21 90.8 76.61 90.7 73 90.84 69.39 91.59 65.63 93.67 62.38 96.78 59.99 100.68 59.61 104.36 59.45 108.05 59.37 111.73 59.44 115.41 59.4 119.1 59.51 122.78 59.38 126.46 59.3 130.14 59.48 133.83 59.55 137.51 59.46 141.19 59.57 144.88 59.52 148.57 59.31 152.25 59.19 155.94 59.21 159.63 59.33 163.31 59.19 167 59.45 170.7 59.19 174.55 60.09 177.89 62.2 179.91 65.58 180.6 69.39 180.82 72.99 180.89 76.59 180.62 80.19 180.6 83.78 180.78 87.38 180.83 90.98 180.75 94.58 180.87 98.18 180.89 101.78 180.82 105.37 180.68 108.97 180.74 112.57 180.74 116.17 180.87 119.76 180.67 123.36 180.52 126.96 180.86 130.56 180.91 134.16 180.68 137.76 180.61 141.37 180.6 144.97 180.67 148.57 180.84 152.17 180.76 155.78 180.71 159.39 179.76 163.14 177.69 166.38 174.48 168.51 170.7 169.4"/><polygon class="cls-2" points="180.65 159.62 176.96 159.57 173.28 159.26 169.59 159.25 165.91 159.29 162.23 159.51 158.55 159.52 154.86 159.55 151.18 159.31 147.5 159.57 143.81 159.55 140.13 159.4 136.44 159.5 132.75 159.31 129.07 159.6 125.38 159.25 121.7 159.63 118.01 159.63 114.32 159.5 110.63 159.57 106.74 158.82 103.65 156.41 101.32 153.29 100.48 149.44 100.45 145.84 100.56 142.25 100.78 138.65 100.58 135.05 100.76 131.45 100.48 127.85 100.64 124.25 100.72 120.65 100.53 117.06 100.71 113.46 100.48 109.86 100.5 106.27 100.84 102.67 100.73 99.07 100.43 95.47 100.55 91.87 100.47 88.27 100.42 84.67 100.56 81.07 100.64 77.47 100.55 73.86 100.68 70.26 100.77 66.66 100.77 63.05 100.41 59.45 101.53 55.67 103.65 52.47 106.76 50.11 110.63 49.53 114.31 49.42 117.99 49.45 121.68 49.52 125.36 49.63 129.04 49.29 132.72 49.64 136.41 49.52 140.09 49.52 143.77 49.31 147.46 49.32 151.14 49.5 154.83 49.64 158.51 49.42 162.2 49.56 165.89 49.32 169.57 49.53 173.26 49.31 176.95 49.33 180.65 49.3 184.44 50.29 187.69 52.4 190.04 55.55 190.63 59.45 190.73 63.04 190.52 66.64 190.61 70.24 190.45 73.84 190.57 77.44 190.69 81.03 190.81 84.63 190.74 88.23 190.46 91.83 190.45 95.42 190.62 99.02 190.52 102.62 190.72 106.22 190.75 109.81 190.83 113.42 190.57 117.01 190.47 120.61 190.48 124.22 190.5 127.82 190.44 131.42 190.83 135.02 190.64 138.62 190.53 142.22 190.82 145.83 190.81 149.44 189.98 153.31 187.87 156.66 184.53 158.83 180.65 159.62"/><polygon class="cls-3" points="180.65 159.62 176.96 159.57 173.28 159.26 169.59 159.25 165.91 159.29 162.23 159.51 158.55 159.52 154.86 159.55 151.18 159.31 147.5 159.57 143.81 159.55 140.13 159.4 136.44 159.5 132.75 159.31 129.07 159.6 125.38 159.25 121.7 159.63 118.01 159.63 114.32 159.5 110.63 159.57 106.74 158.82 103.65 156.41 101.32 153.29 100.48 149.44 100.45 145.84 100.56 142.25 100.78 138.65 100.58 135.05 100.76 131.45 100.48 127.85 100.64 124.25 100.72 120.65 100.53 117.06 100.71 113.46 100.48 109.86 100.5 106.27 100.84 102.67 100.73 99.07 100.43 95.47 100.55 91.87 100.47 88.27 100.42 84.67 100.56 81.07 100.64 77.47 100.55 73.86 100.68 70.26 100.77 66.66 100.77 63.05 100.41 59.45 101.53 55.67 103.65 52.47 106.76 50.11 110.63 49.53 114.31 49.42 117.99 49.45 121.68 49.52 125.36 49.63 129.04 49.29 132.72 49.64 136.41 49.52 140.09 49.52 143.77 49.31 147.46 49.32 151.14 49.5 154.83 49.64 158.51 49.42 162.2 49.56 165.89 49.32 169.57 49.53 173.26 49.31 176.95 49.33 180.65 49.3 184.44 50.29 187.69 52.4 190.04 55.55 190.63 59.45 190.73 63.04 190.52 66.64 190.61 70.24 190.45 73.84 190.57 77.44 190.69 81.03 190.81 84.63 190.74 88.23 190.46 91.83 190.45 95.42 190.62 99.02 190.52 102.62 190.72 106.22 190.75 109.81 190.83 113.42 190.57 117.01 190.47 120.61 190.48 124.22 190.5 127.82 190.44 131.42 190.83 135.02 190.64 138.62 190.53 142.22 190.82 145.83 190.81 149.44 189.98 153.31 187.87 156.66 184.53 158.83 180.65 159.62"/><polygon class="cls-2" points="120.55 152.53 117.16 152.31 114.14 150.76 111.25 148.96 109.36 146.11 107.79 143.07 107.67 139.65 107.55 136.06 107.72 132.46 107.51 128.86 107.57 125.26 107.75 121.66 107.78 118.06 107.57 114.46 107.69 110.87 107.59 107.27 107.73 103.67 107.34 100.07 107.69 96.48 107.78 92.88 107.71 89.28 107.35 85.68 107.35 82.08 107.56 78.48 107.57 74.88 107.56 71.28 107.58 67.68 107.59 64.08 107.62 60.47 107.78 56.87 107.64 53.26 107.53 49.66 108.13 46.33 109.33 43.18 111.52 40.62 113.98 38.28 117.25 37.32 120.55 36.65 124.24 36.78 127.92 36.81 131.6 36.84 135.29 36.63 138.97 36.82 142.65 36.78 146.33 36.58 150.02 36.71 153.7 36.48 157.38 36.47 161.07 36.68 164.75 36.75 168.44 36.66 172.13 36.7 175.81 36.87 179.5 36.47 183.19 36.48 186.88 36.44 190.57 36.75 193.97 36.98 197.01 38.51 199.79 40.44 201.92 43.11 203.31 46.24 203.79 49.66 203.72 53.25 203.55 56.85 203.46 60.45 203.53 64.05 203.37 67.65 203.51 71.24 203.39 74.84 203.47 78.44 203.76 82.04 203.4 85.64 203.6 89.23 203.39 92.83 203.44 96.43 203.65 100.03 203.69 103.63 203.44 107.23 203.67 110.83 203.36 114.43 203.61 118.03 203.44 121.63 203.44 125.23 203.72 128.83 203.36 132.44 203.39 136.04 203.65 139.65 203.04 142.99 201.64 146.04 199.82 148.9 197.07 150.91 193.95 152.27 190.57 152.45 186.89 152.56 183.21 152.59 179.52 152.82 175.84 152.55 172.15 152.72 168.47 152.7 164.79 152.61 161.11 152.69 157.42 152.88 153.74 152.81 150.06 152.72 146.37 152.5 142.68 152.86 139 152.81 135.31 152.55 131.62 152.45 127.94 152.72 124.24 152.87 120.55 152.53"/><polygon class="cls-2" points="190.57 149.66 186.89 149.5 183.21 149.86 179.52 149.68 175.84 149.57 172.15 149.62 168.47 149.75 164.79 149.83 161.11 149.59 157.42 149.72 153.74 149.51 150.06 149.69 146.37 149.75 142.68 149.79 139 149.54 135.31 149.62 131.62 149.75 127.94 149.54 124.24 149.6 120.55 149.55 116.76 148.79 113.44 146.76 111.5 143.4 110.68 139.65 110.71 136.06 110.39 132.46 110.36 128.86 110.36 125.26 110.33 121.66 110.4 118.06 110.71 114.46 110.75 110.87 110.53 107.27 110.75 103.67 110.46 100.07 110.34 96.48 110.55 92.88 110.36 89.28 110.38 85.68 110.57 82.08 110.6 78.48 110.58 74.88 110.44 71.28 110.7 67.68 110.7 64.08 110.68 60.47 110.68 56.87 110.58 53.26 110.72 49.66 111.47 45.89 113.54 42.65 116.66 40.26 120.55 39.87 124.23 39.71 127.92 39.64 131.6 39.71 135.29 39.67 138.97 39.77 142.65 39.64 146.33 39.57 150.02 39.74 153.7 39.81 157.38 39.72 161.07 39.84 164.75 39.78 168.44 39.58 172.13 39.45 175.81 39.47 179.5 39.59 183.19 39.45 186.88 39.72 190.57 39.45 194.42 40.36 197.76 42.46 199.78 45.84 200.48 49.66 200.7 53.25 200.76 56.85 200.5 60.45 200.48 64.05 200.66 67.65 200.7 71.24 200.62 74.84 200.75 78.44 200.76 82.04 200.69 85.64 200.55 89.23 200.62 92.83 200.62 96.43 200.75 100.03 200.55 103.63 200.39 107.23 200.73 110.83 200.78 114.43 200.55 118.03 200.48 121.63 200.48 125.23 200.54 128.83 200.71 132.44 200.63 136.04 200.59 139.65 199.64 143.41 197.57 146.65 194.35 148.78 190.57 149.66"/><polygon class="cls-2" points="195.57 154.83 191.89 154.78 188.21 154.47 184.52 154.46 180.84 154.5 177.15 154.72 173.47 154.73 169.79 154.76 166.11 154.52 162.42 154.78 158.74 154.76 155.06 154.61 151.37 154.72 147.68 154.52 144 154.82 140.31 154.47 136.62 154.85 132.94 154.85 129.24 154.71 125.55 154.78 121.67 154.03 118.58 151.62 116.25 148.51 115.41 144.65 115.38 141.06 115.48 137.46 115.7 133.86 115.51 130.26 115.69 126.66 115.41 123.06 115.57 119.46 115.64 115.87 115.46 112.27 115.63 108.67 115.41 105.07 115.43 101.48 115.77 97.88 115.65 94.28 115.36 90.68 115.47 87.08 115.39 83.48 115.35 79.88 115.48 76.28 115.57 72.68 115.48 69.08 115.61 65.47 115.69 61.87 115.69 58.26 115.34 54.66 116.45 50.89 118.58 47.68 121.69 45.33 125.55 44.74 129.24 44.63 132.92 44.67 136.6 44.73 140.29 44.85 143.97 44.5 147.65 44.85 151.33 44.73 155.02 44.73 158.7 44.53 162.38 44.53 166.07 44.71 169.75 44.85 173.44 44.63 177.13 44.77 180.81 44.53 184.5 44.74 188.19 44.52 191.88 44.54 195.57 44.52 199.36 45.51 202.62 47.61 204.97 50.77 205.56 54.66 205.66 58.25 205.45 61.85 205.53 65.45 205.38 69.05 205.5 72.65 205.62 76.24 205.74 79.84 205.67 83.44 205.39 87.04 205.38 90.64 205.55 94.23 205.45 97.83 205.65 101.43 205.68 105.03 205.76 108.63 205.49 112.23 205.39 115.83 205.41 119.43 205.42 123.03 205.37 126.63 205.76 130.23 205.57 133.83 205.46 137.44 205.75 141.04 205.74 144.65 204.91 148.52 202.8 151.88 199.46 154.04 195.57 154.83"/><polygon class="cls-3" points="190.57 149.47 186.89 149.62 183.21 149.53 179.52 149.85 175.84 149.72 172.15 149.45 168.47 149.56 164.79 149.78 161.11 149.83 157.42 149.68 153.74 149.48 150.06 149.66 146.37 149.81 142.68 149.82 139 149.73 135.31 149.56 131.62 149.84 127.94 149.49 124.24 149.56 120.55 149.77 116.79 148.72 113.56 146.64 111.5 143.4 110.6 139.65 110.73 136.06 110.42 132.46 110.76 128.86 110.77 125.26 110.36 121.66 110.37 118.06 110.67 114.46 110.39 110.87 110.57 107.27 110.51 103.67 110.4 100.07 110.44 96.48 110.37 92.88 110.73 89.28 110.35 85.68 110.47 82.08 110.47 78.48 110.36 74.88 110.44 71.28 110.48 67.68 110.59 64.08 110.45 60.47 110.44 56.87 110.59 53.26 110.54 49.66 111.12 45.75 113.56 42.66 116.7 40.35 120.55 39.69 124.23 39.61 127.92 39.52 131.6 39.85 135.29 39.6 138.97 39.58 142.65 39.58 146.33 39.81 150.02 39.57 153.7 39.54 157.38 39.84 161.07 39.56 164.75 39.73 168.44 39.66 172.13 39.74 175.81 39.7 179.5 39.55 183.19 39.84 186.88 39.71 190.57 39.62 194.42 40.37 197.74 42.49 199.72 45.87 200.76 49.66 200.48 53.25 200.7 56.85 200.71 60.45 200.73 64.05 200.43 67.65 200.62 71.24 200.66 74.84 200.43 78.44 200.56 82.04 200.49 85.64 200.36 89.23 200.39 92.83 200.66 96.43 200.52 100.03 200.73 103.63 200.44 107.23 200.59 110.83 200.4 114.43 200.78 118.03 200.46 121.63 200.37 125.23 200.79 128.83 200.66 132.44 200.57 136.04 200.49 139.65 199.88 143.51 197.6 146.68 194.37 148.82 190.57 149.47"/><polygon class="cls-4" points="180.76 82.44 180.72 80.63 180.44 78.83 180.14 77.04 179.68 75.29 179.13 73.56 178.42 71.9 177.66 70.25 176.76 68.67 175.69 67.2 174.46 65.87 173.27 64.5 171.88 63.34 170.51 62.17 169.09 61.03 167.46 60.23 165.89 59.32 164.17 58.73 162.47 58.12 160.73 57.64 158.94 57.34 157.14 57.15 155.33 57.09 153.52 57.08 151.72 57.36 149.92 57.55 148.17 58.05 146.49 58.73 144.76 59.3 143.15 60.14 141.65 61.15 140.17 62.2 138.65 63.2 137.32 64.44 136.09 65.77 135.02 67.24 133.97 68.71 133.14 70.33 132.23 71.89 131.47 73.54 131.01 75.3 130.52 77.04 130.31 78.84 129.99 80.63 129.9 82.44 130.03 84.25 130.16 86.06 130.63 87.82 131.05 89.58 131.46 91.35 132.32 92.95 133 94.64 134.05 96.12 135.09 97.6 136.14 99.08 137.38 100.4 138.7 101.64 140.1 102.8 141.63 103.77 143.14 104.77 144.79 105.52 146.47 106.21 148.21 106.71 149.93 107.26 151.72 107.6 153.52 107.8 155.33 107.72 157.14 107.71 158.94 107.55 160.75 107.32 162.5 106.85 164.17 106.12 165.86 105.5 167.5 104.72 169.07 103.81 170.5 102.69 171.97 101.64 173.22 100.33 174.5 99.05 175.69 97.68 176.65 96.14 177.66 94.63 178.49 93.02 179.03 91.28 179.59 89.57 180.13 87.84 180.49 86.06 180.55 84.25 180.76 82.44"/><path class="cls-5" d="M158.81,81.8l3,1.71,1,2.81-.39,1.83-1.2,1.43L159,90.8l-2.49.5-.06,2.32h-2.22l0-2.41-2.43-.48-2.14-1.15-1.41-1.81-.43-2.25,3.13,0,.81,2,2.4.82V85.73l0-2.59-1.34-.44L151.05,82l-1.66-1.06-1.2-3,.37-1.77,1.13-1.43,2.14-1.08,2.38-.38,0-2,2.24,0,0,2.08,2.17.44,1.81,1.17,1.13,1.6.62,1.84-3.13,0-.78-1.45-1.81-.88.06,2.44L156.43,81Zm-6.55-5.1L151.65,78l.41,1.18,1.37.74.83.37V78.15L154.19,76Zm6.33,11,.63-1.41L157.32,84l-.82-.32L156.43,86v2.35Z"/><polyline class="cls-2" points="127.97 124.87 131.48 124.88 134.99 124.99 138.5 125.09 142 124.97 145.51 125.17 149.02 124.94 152.53 125.09 156.04 125.13 159.55 125.1 163.07 124.93 166.57 125.01 170.09 125.13 173.6 124.88 177.11 125.16 180.63 125.11 184.15 124.99"/><polyline class="cls-3" points="127.97 124.87 131.48 124.88 134.99 124.99 138.5 125.09 142 124.97 145.51 125.17 149.02 124.94 152.53 125.09 156.04 125.13 159.55 125.1 163.07 124.93 166.57 125.01 170.09 125.13 173.6 124.88 177.11 125.16 180.63 125.11 184.15 124.99"/><polyline class="cls-2" points="138.78 133.67 142.24 133.6 145.69 133.72 149.14 133.58 152.6 133.59 156.05 133.65 159.5 133.6 162.96 133.61 166.42 133.6 169.88 133.68 173.34 133.63"/><polyline class="cls-3" points="138.78 133.67 142.24 133.6 145.69 133.72 149.14 133.58 152.6 133.59 156.05 133.65 159.5 133.6 162.96 133.61 166.42 133.6 169.88 133.68 173.34 133.63"/></g></svg>
