<svg xmlns="http://www.w3.org/2000/svg" viewBox="0 0 250 250"><defs><style>.cls-1{fill:#f8f8f8;}.cls-2{fill:#fff;}.cls-3{fill:none;stroke:#3e82f7;stroke-miterlimit:10;stroke-width:3px;}.cls-4{fill:#3e82f7;}.cls-5{fill:#fadc2d;}.cls-6{fill:#ff852d;}</style></defs><title>icon-whitelabel-control</title><g id="Base_Dots" data-name="Base Dots"><circle class="cls-1" cx="125" cy="125" r="100"/></g><g id="Artwork"><polygon class="cls-2" points="209.44 97.05 207.61 96.96 205.79 96.77 204.02 96.27 202.3 95.67 200.63 94.92 198.97 94.13 197.49 93.06 196.09 91.86 194.85 90.52 193.67 89.13 192.53 87.69 191.68 86.07 190.97 84.38 190.41 82.64 189.91 80.88 189.74 79.05 189.57 77.22 189.7 75.39 190.01 73.59 190.36 71.8 191.01 70.08 191.76 68.42 192.54 66.76 193.58 65.24 194.81 63.88 196.12 62.61 197.46 61.36 199.02 60.39 200.63 59.52 202.3 58.79 204 58.09 205.81 57.78 207.61 57.49 209.44 57.43 211.27 57.53 213.09 57.73 214.88 58.13 216.63 58.68 218.28 59.48 219.88 60.37 221.39 61.4 222.8 62.58 224.09 63.87 225.21 65.32 226.35 66.76 227.22 68.37 227.93 70.06 228.46 71.82 228.87 73.59 229.22 75.39 229.22 77.22 229.21 79.06 228.98 80.88 228.5 82.65 227.87 84.36 227.14 86.04 226.31 87.67 225.31 89.21 224.11 90.6 222.83 91.91 221.38 93.04 219.91 94.13 218.24 94.9 216.6 95.71 214.88 96.36 213.07 96.64 211.28 97.02 209.44 97.05"/><polygon class="cls-2" points="226.3 77.22 226.22 75.46 225.9 73.73 225.45 72.02 224.81 70.38 224.02 68.81 223.05 67.33 221.98 65.94 220.74 64.68 219.35 63.59 217.83 62.69 216.28 61.86 214.62 61.28 212.94 60.8 211.21 60.44 209.44 60.45 207.68 60.47 205.95 60.82 204.25 61.24 202.6 61.85 201.04 62.67 199.56 63.62 198.2 64.74 196.91 65.94 195.85 67.35 194.82 68.78 194.04 70.37 193.48 72.04 192.94 73.72 192.69 75.46 192.67 77.22 192.76 78.98 192.92 80.74 193.38 82.44 194.02 84.09 194.87 85.64 195.82 87.12 196.99 88.44 198.18 89.73 199.52 90.88 201.04 91.78 202.59 92.61 204.26 93.17 205.94 93.71 207.68 93.99 209.44 94.04 211.21 93.99 212.93 93.62 214.63 93.18 216.31 92.65 217.83 91.75 219.36 90.87 220.66 89.69 221.9 88.44 223.07 87.12 224.03 85.64 224.83 84.08 225.48 82.44 225.89 80.72 226.22 78.99 226.3 77.22"/><polygon class="cls-2" points="63.9 201.72 62.09 201.5 60.28 201.58 58.51 201.18 56.69 201.14 54.92 200.78 53.16 200.41 51.46 199.78 49.66 199.51 48.01 198.76 46.33 198.1 44.58 197.61 43.05 196.63 41.47 195.76 39.79 195.07 38.28 194.08 36.72 193.15 35.37 191.95 33.88 190.91 32.58 189.65 31.18 188.51 29.94 187.19 28.8 185.79 27.59 184.46 26.34 183.14 25.31 181.66 24.46 180.05 23.32 178.64 22.44 177.06 21.63 175.44 20.93 173.78 20.32 172.08 19.75 170.38 18.96 168.74 18.66 166.95 18.11 165.24 17.52 163.51 17.31 161.72 17.23 159.91 17 158.12 16.93 156.32 16.89 154.52 16.8 152.72 17 150.92 17.22 149.13 17.53 147.36 17.69 145.56 17.87 143.75 18.34 142 19 140.31 19.5 138.58 20.2 136.91 20.96 135.28 21.8 133.68 22.64 132.09 23.41 130.46 24.35 128.91 25.31 127.38 26.36 125.91 27.63 124.61 28.65 123.11 29.91 121.81 31.16 120.51 32.66 119.47 33.98 118.24 35.43 117.17 36.73 115.89 38.34 115.05 39.89 114.13 41.41 113.16 42.96 112.24 44.62 111.52 46.23 110.68 48 110.26 49.73 109.77 51.42 109.13 53.13 108.52 54.96 108.44 56.71 107.98 58.49 107.73 60.28 107.39 62.1 107.64 63.9 107.47 65.7 107.55 67.5 107.59 69.29 107.84 71.1 107.88 72.83 108.46 74.63 108.66 76.38 109.1 78.16 109.45 79.8 110.25 81.53 110.76 83.2 111.46 84.72 112.46 86.32 113.29 87.96 114.04 89.53 114.94 90.87 116.17 92.38 117.15 93.87 118.18 95.31 119.28 96.61 120.53 97.76 121.93 99.16 123.1 100.16 124.62 101.21 126.09 102.48 127.39 103.56 128.84 104.35 130.48 105.12 132.11 106.13 133.61 106.98 135.21 107.58 136.92 108.19 138.61 108.64 140.37 109.42 142.01 109.81 143.78 109.94 145.59 110.31 147.35 110.55 149.13 110.78 150.92 111 152.72 110.98 154.52 111.05 156.33 110.86 158.13 110.53 159.91 110.43 161.71 110.01 163.47 109.72 165.25 109.44 167.04 108.62 168.68 108.06 170.38 107.67 172.16 106.88 173.79 106.1 175.42 105.12 176.94 104.49 178.66 103.29 180.03 102.5 181.68 101.34 183.07 100.22 184.48 99.13 185.92 97.94 187.29 96.42 188.32 95.14 189.58 93.85 190.85 92.41 191.93 91.06 193.15 89.49 194.05 87.93 194.95 86.43 195.96 84.7 196.55 83.11 197.4 81.56 198.35 79.79 198.79 78.13 199.5 76.33 199.78 74.62 200.35 72.85 200.7 71.1 201.17 69.3 201.31 67.5 201.43 65.7 201.6 63.9 201.72"/><polygon class="cls-2" points="108.08 154.52 108.08 152.69 107.83 150.88 107.66 149.06 107.38 147.26 107.08 145.46 106.65 143.69 106.28 141.9 105.76 140.15 105.07 138.45 104.17 136.85 103.5 135.16 102.53 133.61 101.71 131.99 100.92 130.33 99.68 128.97 98.74 127.39 97.44 126.11 96.29 124.7 95.08 123.33 93.73 122.11 92.38 120.89 90.95 119.76 89.57 118.55 87.98 117.66 86.55 116.5 84.92 115.67 83.21 115.01 81.66 114.03 79.95 113.39 78.18 112.92 76.44 112.39 74.76 111.61 72.98 111.2 71.18 110.87 69.35 110.76 67.54 110.54 65.71 110.62 63.9 110.4 62.07 110.31 60.26 110.63 58.44 110.73 56.66 111.18 54.83 111.29 53.04 111.67 51.31 112.27 49.54 112.72 47.92 113.59 46.23 114.25 44.45 114.75 42.97 115.87 41.26 116.55 39.85 117.72 38.36 118.75 36.79 119.69 35.37 120.85 34 122.05 32.65 123.28 31.48 124.69 30.16 125.96 29.11 127.45 28.02 128.91 27.11 130.49 25.98 131.93 25.05 133.5 24.19 135.11 23.66 136.88 22.88 138.52 22.19 140.2 21.49 141.9 21.04 143.67 20.91 145.51 20.46 147.27 20.13 149.06 19.9 150.87 19.97 152.7 19.74 154.52 19.97 156.34 19.98 158.16 20.04 159.99 20.45 161.77 20.64 163.59 21.01 165.38 21.78 167.06 22.34 168.79 22.8 170.56 23.44 172.27 24.42 173.82 25.09 175.53 25.94 177.14 26.89 178.7 28.15 180.05 29.04 181.65 30.26 183.01 31.43 184.41 32.66 185.76 34.05 186.94 35.45 188.11 36.91 189.19 38.28 190.4 39.8 191.41 41.34 192.37 42.92 193.28 44.54 194.11 46.14 195 47.93 195.45 49.61 196.14 51.31 196.78 53.04 197.38 54.82 197.81 56.65 197.92 58.43 198.37 60.26 198.4 62.08 198.46 63.9 198.62 65.72 198.7 67.55 198.56 69.34 198.22 71.13 197.84 72.93 197.58 74.69 197.13 76.48 196.78 78.17 196.09 79.99 195.76 81.61 194.9 83.2 194 84.95 193.43 86.4 192.29 88.06 191.5 89.58 190.49 90.93 189.25 92.41 188.18 93.71 186.91 95.07 185.69 96.44 184.48 97.42 182.91 98.74 181.64 99.84 180.18 100.89 178.69 101.74 177.07 102.8 175.57 103.65 173.95 104.42 172.3 105.11 170.6 105.49 168.8 106.31 167.15 106.69 165.36 107.13 163.59 107.41 161.78 107.8 160 107.75 158.16 108.04 156.35 108.08 154.52"/><polygon class="cls-2" points="81.13 104.19 77.34 103.42 74.06 101.35 71.94 98.08 71.13 94.28 71.16 90.49 71.26 86.7 71.07 82.91 71.21 79.12 71.21 75.33 71.22 71.54 71.14 67.75 71.25 63.95 71.26 60.16 72.01 56.38 74.15 53.17 77.29 50.88 81.13 50.29 84.92 50.22 88.71 50.24 92.5 50.2 96.29 50.28 100.08 50.14 103.87 50.25 107.66 50.12 111.46 50.23 115.25 50.12 119.04 51.01 122.33 53.08 124.48 56.34 125.24 60.16 125.13 63.94 125.28 67.73 125.17 71.52 125.17 75.31 125.3 79.1 125.17 82.89 125.14 86.68 125.28 90.48 125.25 94.28 124.55 98.13 122.3 101.32 119.09 103.54 115.25 104.24 111.47 104.31 107.67 104.28 103.88 104.21 100.09 104.24 96.31 104.33 92.52 104.3 88.72 104.19 84.93 104.32 81.13 104.19"/><polygon class="cls-2" points="115.25 101.17 111.47 101.24 107.67 101.26 103.88 101.28 100.09 101.28 96.31 101.29 92.52 101.17 88.72 101.32 84.93 101.17 81.13 101.15 77.67 100.27 75.06 97.78 74.1 94.28 74.14 90.49 74.25 86.7 74.24 82.91 74.23 79.12 74.14 75.33 74.13 71.54 74.1 67.75 74.13 63.95 74.21 60.16 75.06 56.65 77.64 54.11 81.13 53.16 84.92 53.25 88.71 53.28 92.5 53.18 96.29 53.24 100.08 53.21 103.87 53.1 107.66 53.25 111.46 53.14 115.25 53.13 118.7 54.19 121.36 56.63 122.24 60.16 122.2 63.94 122.2 67.73 122.23 71.52 122.15 75.31 122.22 79.1 122.25 82.89 122.25 86.68 122.25 90.48 122.16 94.28 121.22 97.72 118.78 100.38 115.25 101.17"/><rect class="cls-2" x="132.17" y="26.16" width="54.05" height="54.05" rx="9.97" ry="9.97" transform="translate(212.38 -106) rotate(90)"/><rect class="cls-2" x="135.17" y="29.16" width="48.05" height="48.05" rx="6.97" ry="6.97"/><polygon class="cls-3" points="115.25 101.17 111.47 101.24 107.67 101.26 103.88 101.28 100.09 101.28 96.31 101.29 92.52 101.17 88.72 101.32 84.93 101.17 81.13 101.15 77.67 100.27 75.06 97.78 74.1 94.28 74.14 90.49 74.25 86.7 74.24 82.91 74.23 79.12 74.14 75.33 74.13 71.54 74.1 67.75 74.13 63.95 74.21 60.16 75.06 56.65 77.64 54.11 81.13 53.16 84.92 53.25 88.71 53.28 92.5 53.18 96.29 53.24 100.08 53.21 103.87 53.1 107.66 53.25 111.46 53.14 115.25 53.13 118.7 54.19 121.36 56.63 122.24 60.16 122.2 63.94 122.2 67.73 122.23 71.52 122.15 75.31 122.22 79.1 122.25 82.89 122.25 86.68 122.25 90.48 122.16 94.28 121.22 97.72 118.78 100.38 115.25 101.17"/><polygon class="cls-3" points="87.4 93.54 89.18 93.46 90.96 93.53 92.73 93.52 94.51 93.46 96.29 93.48 98.07 93.48 99.85 93.45 101.63 93.47 103.41 93.5 105.19 93.46 106.98 93.51 108.86 92.67 109.71 90.79 109.67 88.81 109.56 87.05 109.27 85.3 108.69 83.62 107.92 82.03 106.95 80.56 105.8 79.23 104.53 78 103.08 77 101.54 76.15 99.93 75.42 99.74 74.61 101.09 73.37 102.02 71.8 102.57 70.05 102.59 68.22 102.15 66.41 101.19 64.8 99.82 63.52 98.26 62.5 96.46 61.96 94.77 62.01 93.13 62.41 91.67 63.25 90.44 64.38 89.44 65.72 88.87 67.31 88.64 68.97 88.84 70.61 89.44 72.13 90.35 73.5 91.57 74.59 91.39 75.49 89.76 76.09 88.24 76.93 86.8 77.91 85.51 79.08 84.39 80.43 83.48 81.91 82.71 83.47 82.08 85.09 81.78 86.6 81.52 88.11 81.49 89.66 81.47 90.79 82.28 92.72 84.21 93.53 85.81 93.5 87.4 93.54"/><polyline class="cls-3" points="111.9 59.71 111.89 63.26 111.88 66.82 111.88 70.38"/><polyline class="cls-3" points="117.23 65.06 113.68 65.06 110.12 65.04 106.56 65.04"/><polygon class="cls-3" points="176.25 77.16 172.47 77.12 168.68 77.22 164.89 77.27 161.1 77.16 157.31 77.21 153.52 77.26 149.73 77.21 145.93 77.26 142.13 77.22 138.64 76.31 136.03 73.78 135.12 70.25 135.25 66.46 135.08 62.67 135.21 58.88 135.15 55.09 135.12 51.3 135.16 47.51 135.21 43.72 135.1 39.92 135.24 36.13 136.18 32.69 138.64 30.07 142.13 29.21 145.92 29.1 149.71 29.11 153.5 29.15 157.29 29.08 161.08 29.22 164.87 29.2 168.66 29.17 172.46 29.1 176.25 29.09 179.77 30.04 182.23 32.68 183.25 36.13 183.27 39.92 183.21 43.71 183.23 47.5 183.18 51.29 183.31 55.08 183.19 58.87 183.2 62.66 183.31 66.45 183.3 70.25 182.24 73.7 179.71 76.24 176.25 77.16"/><polygon class="cls-4" points="155.34 67.22 151.95 67.5 148.58 67.78 145.2 68.07 145.48 64.69 145.76 61.32 146.06 57.96 148.36 60.27 150.69 62.57 153.01 64.89 155.34 67.22"/><polygon class="cls-3" points="166.42 39.28 168.95 41.79 171.48 44.31 173.95 46.85 171.64 49.21 169.29 51.59 166.91 53.93 164.55 56.31 162.18 58.67 159.8 61.03 157.43 63.45 154.94 60.86 152.36 58.39 149.9 55.83 152.24 53.5 154.55 51.08 156.96 48.75 159.29 46.35 161.68 44.01 164.05 41.64 166.42 39.28"/><polyline class="cls-3" points="161.63 43.77 164.15 46.3 166.68 48.81 169.2 51.35"/><polygon class="cls-2" points="105.51 219.88 104.85 218.32 104.06 216.71 103.62 214.97 102.93 213.32 102.41 211.61 101.93 209.89 101.48 208.15 101.16 206.39 100.89 204.62 100.62 202.86 100.47 201.08 100.22 199.31 99.96 197.53 100 195.74 100.07 193.95 99.9 192.15 100.03 190.35 100.14 188.55 100.39 186.77 100.53 184.97 100.97 183.22 101.17 181.43 101.61 179.68 102.03 177.93 102.41 176.17 102.95 174.45 103.47 172.73 104.2 171.08 104.8 169.38 105.52 167.73 106.25 166.08 107.04 164.46 107.92 162.9 108.9 161.38 109.77 159.8 110.87 158.38 111.89 156.9 112.94 155.44 113.93 153.93 115.02 152.5 116.34 151.26 117.45 149.83 118.81 148.64 120.12 147.42 121.44 146.2 122.79 145.02 124.11 143.79 125.56 142.72 127 141.64 128.5 140.65 129.97 139.62 131.53 138.72 133.06 137.78 134.7 137.02 136.24 136.08 137.88 135.32 139.56 134.68 141.26 134.1 142.89 133.33 144.66 132.95 146.36 132.35 148.1 131.92 149.85 131.49 151.6 131.12 153.37 130.77 155.15 130.56 156.91 130.15 158.71 130.06 160.51 129.97 162.31 129.93 164.1 129.74 165.91 129.75 167.7 129.95 169.49 130.08 171.28 130.29 173.07 130.46 174.86 130.69 176.64 130.94 178.41 131.3 180.13 131.84 181.86 132.33 183.62 132.75 185.28 133.44 187 133.97 188.69 134.62 190.36 135.28 191.89 136.25 193.49 137.07 195.17 137.75 196.76 138.6 198.22 139.66 199.67 140.72 201.26 141.59 202.62 142.78 204.02 143.9 205.41 145.04 206.84 146.14 208.24 147.27 209.43 148.63 210.77 149.84 211.93 151.21 213.03 152.64 214.21 154 215.44 155.32 216.51 156.77 217.38 158.36 218.47 159.79 219.4 161.34 220.19 162.95 221.19 164.46 221.88 166.13 222.67 167.74 223.34 169.41 224.14 171.03 224.7 172.75 225.23 174.47 225.73 176.19 226.1 177.96 226.66 179.67 227.03 181.43 227.36 183.2 227.62 184.98 227.71 186.78 228.14 188.55 228.05 190.36 228.09 192.15 228.15 193.95 228.18 195.74 228.15 197.52 227.98 199.31 227.81 201.09 227.7 202.87 227.3 204.62 227.13 206.41 226.7 208.15 226.31 209.9 225.85 211.63 225.37 213.35 224.74 215.03 224.15 216.72 223.4 218.34 222.75 220.09 220.9 220 219.06 219.89 217.23 220.13 215.39 219.99 213.56 220.02 211.72 219.91 209.92 220.05 209.81 221.69 209.81 223.37 210.06 225.05 209.97 226.74 209.91 228.44 210.08 230.21 208.2 230.23 206.4 230.2 204.6 230.22 202.79 230.24 201 230.01 199.19 230.13 197.4 230.18 195.59 230.2 193.79 230.1 191.99 230.11 190.19 230.03 188.39 230.02 186.59 230.19 184.79 230.13 182.99 230.02 181.18 230.23 179.38 230.21 177.58 230.1 175.78 230.06 173.98 230.1 172.17 230.06 170.37 230.19 168.57 230.12 166.78 230.25 164.98 230.07 163.18 230.04 161.38 230.2 159.58 230.01 157.78 230.15 155.98 230.06 154.18 230.23 152.37 230.16 150.57 230.06 148.77 230.09 146.96 230.11 145.16 230.08 143.36 230.19 141.55 230.06 139.75 230.16 137.94 230.17 136.14 230 134.34 230 132.53 230.03 130.73 230.07 128.92 230.07 127.11 230.12 125.31 230.1 123.5 230.09 121.69 230.14 119.94 230.06 120.02 228.44 119.84 226.75 119.97 225.07 119.88 223.38 120.07 221.69 119.91 220.09 118.19 220.12 116.38 219.97 114.56 219.87 112.75 219.98 110.94 220.06 109.12 220.12 107.3 219.95 105.51 219.88"/><polygon class="cls-3" points="105.51 219.88 104.85 218.32 104.06 216.71 103.62 214.97 102.93 213.32 102.41 211.61 101.93 209.89 101.48 208.15 101.16 206.39 100.89 204.62 100.62 202.86 100.47 201.08 100.22 199.31 99.96 197.53 100 195.74 100.07 193.95 99.9 192.15 100.03 190.35 100.14 188.55 100.39 186.77 100.53 184.97 100.97 183.22 101.17 181.43 101.61 179.68 102.03 177.93 102.41 176.17 102.95 174.45 103.47 172.73 104.2 171.08 104.8 169.38 105.52 167.73 106.25 166.08 107.04 164.46 107.92 162.9 108.9 161.38 109.77 159.8 110.87 158.38 111.89 156.9 112.94 155.44 113.93 153.93 115.02 152.5 116.34 151.26 117.45 149.83 118.81 148.64 120.12 147.42 121.44 146.2 122.79 145.02 124.11 143.79 125.56 142.72 127 141.64 128.5 140.65 129.97 139.62 131.53 138.72 133.06 137.78 134.7 137.02 136.24 136.08 137.88 135.32 139.56 134.68 141.26 134.1 142.89 133.33 144.66 132.95 146.36 132.35 148.1 131.92 149.85 131.49 151.6 131.12 153.37 130.77 155.15 130.56 156.91 130.15 158.71 130.06 160.51 129.97 162.31 129.93 164.1 129.74 165.91 129.75 167.7 129.95 169.49 130.08 171.28 130.29 173.07 130.46 174.86 130.69 176.64 130.94 178.41 131.3 180.13 131.84 181.86 132.33 183.62 132.75 185.28 133.44 187 133.97 188.69 134.62 190.36 135.28 191.89 136.25 193.49 137.07 195.17 137.75 196.76 138.6 198.22 139.66 199.67 140.72 201.26 141.59 202.62 142.78 204.02 143.9 205.41 145.04 206.84 146.14 208.24 147.27 209.43 148.63 210.77 149.84 211.93 151.21 213.03 152.64 214.21 154 215.44 155.32 216.51 156.77 217.38 158.36 218.47 159.79 219.4 161.34 220.19 162.95 221.19 164.46 221.88 166.13 222.67 167.74 223.34 169.41 224.14 171.03 224.7 172.75 225.23 174.47 225.73 176.19 226.1 177.96 226.66 179.67 227.03 181.43 227.36 183.2 227.62 184.98 227.71 186.78 228.14 188.55 228.05 190.36 228.09 192.15 228.15 193.95 228.18 195.74 228.15 197.52 227.98 199.31 227.81 201.09 227.7 202.87 227.3 204.62 227.13 206.41 226.7 208.15 226.31 209.9 225.85 211.63 225.37 213.35 224.74 215.03 224.15 216.72 223.4 218.34 222.75 220.09 220.9 220 219.06 219.89 217.23 220.13 215.39 219.99 213.56 220.02 211.72 219.91 209.92 220.05 209.81 221.69 209.81 223.37 210.06 225.05 209.97 226.74 209.91 228.44 210.08 230.21 208.2 230.23 206.4 230.2 204.6 230.22 202.79 230.24 201 230.01 199.19 230.13 197.4 230.18 195.59 230.2 193.79 230.1 191.99 230.11 190.19 230.03 188.39 230.02 186.59 230.19 184.79 230.13 182.99 230.02 181.18 230.23 179.38 230.21 177.58 230.1 175.78 230.06 173.98 230.1 172.17 230.06 170.37 230.19 168.57 230.12 166.78 230.25 164.98 230.07 163.18 230.04 161.38 230.2 159.58 230.01 157.78 230.15 155.98 230.06 154.18 230.23 152.37 230.16 150.57 230.06 148.77 230.09 146.96 230.11 145.16 230.08 143.36 230.19 141.55 230.06 139.75 230.16 137.94 230.17 136.14 230 134.34 230 132.53 230.03 130.73 230.07 128.92 230.07 127.11 230.12 125.31 230.1 123.5 230.09 121.69 230.14 119.94 230.06 120.02 228.44 119.84 226.75 119.97 225.07 119.88 223.38 120.07 221.69 119.91 220.09 118.19 220.12 116.38 219.97 114.56 219.87 112.75 219.98 110.94 220.06 109.12 220.12 107.3 219.95 105.51 219.88"/><line class="cls-3" x1="163.83" y1="137.83" x2="163.83" y2="145.82"/><line class="cls-3" x1="135.91" y1="145.31" x2="139.9" y2="152.23"/><line class="cls-3" x1="115.47" y1="165.75" x2="122.39" y2="169.75"/><line class="cls-3" x1="107.99" y1="193.67" x2="115.98" y2="193.67"/><line class="cls-3" x1="212.19" y1="193.95" x2="220.22" y2="193.95"/><line class="cls-3" x1="205.27" y1="169.75" x2="212.19" y2="165.75"/><line class="cls-3" x1="187.76" y1="152.23" x2="191.75" y2="145.31"/><polygon class="cls-3" points="172.1 192.37 171.95 194.16 171.33 195.86 170.36 197.38 169.1 198.67 167.58 199.64 165.87 200.21 164.08 200.44 162.28 200.23 160.59 199.6 159.07 198.64 157.8 197.37 156.81 195.87 156.22 194.16 156.04 192.37 156.23 190.58 156.85 188.88 157.76 187.33 159.05 186.06 160.59 185.12 162.28 184.49 164.08 184.32 165.87 184.54 167.58 185.1 169.12 186.05 170.39 187.34 171.36 188.86 171.94 190.57 172.1 192.37"/><polygon class="cls-4" points="167.85 192.37 167.36 194.26 165.97 195.64 164.08 196.14 162.18 195.65 160.79 194.26 160.29 192.37 160.79 190.47 162.18 189.08 164.08 188.59 165.96 189.1 167.35 190.48 167.85 192.37"/><path class="cls-4" d="M163.92,183.71c.58-1.23,1.19-2.53,1.83-3.74s1.19-2.35,1.77-3.56,1.09-2.47,1.71-3.7,1.16-2.48,1.78-3.73c.3-.59.63-1.18.91-1.78s.53-1.22.84-1.84c.63-1.23,1.16-2.49,1.81-3.69s1.22-2.37,1.75-3.65c.26-.63.61-1.23.9-1.84l.86-1.83,1.05.39-.56,2c-.19.65-.43,1.28-.58,1.94-.3,1.3-.73,2.67-1.15,3.94s-.75,2.59-1.16,3.87c-.2.63-.35,1.32-.53,2s-.42,1.32-.63,2c-.39,1.26-.75,2.56-1.12,3.86s-.68,2.6-1.08,3.93-.76,2.71-1.22,4-.77,2.51-1.14,3.82Z"/><polygon class="cls-5" points="108.08 154.52 108.08 152.69 107.83 150.88 107.66 149.06 107.38 147.26 107.08 145.46 106.65 143.69 106.28 141.9 105.76 140.15 105.07 138.45 104.17 136.85 103.5 135.16 102.53 133.61 101.71 131.99 100.92 130.33 99.68 128.97 98.74 127.39 97.44 126.11 96.29 124.7 95.08 123.33 93.73 122.11 92.38 120.89 90.95 119.76 89.57 118.55 87.98 117.66 86.55 116.5 84.92 115.67 83.21 115.01 81.66 114.03 79.95 113.39 78.18 112.92 76.44 112.39 74.76 111.61 72.98 111.2 71.18 110.87 69.35 110.76 67.54 110.54 65.71 110.62 63.9 110.4 62.07 110.31 60.26 110.63 58.44 110.73 56.66 111.18 54.83 111.29 53.04 111.67 51.31 112.27 49.54 112.72 47.92 113.59 46.23 114.25 44.45 114.75 42.97 115.87 41.26 116.55 39.85 117.72 38.36 118.75 36.79 119.69 35.37 120.85 34 122.05 32.65 123.28 31.48 124.69 30.16 125.96 29.11 127.45 28.02 128.91 27.11 130.49 25.98 131.93 25.05 133.5 24.19 135.11 23.66 136.88 22.88 138.52 22.19 140.2 21.49 141.9 21.04 143.67 20.91 145.51 20.46 147.27 20.13 149.06 19.9 150.87 19.97 152.7 19.74 154.52 19.97 156.34 19.98 158.16 20.04 159.99 20.45 161.77 20.64 163.59 21.01 165.38 21.78 167.06 22.34 168.79 22.8 170.56 23.44 172.27 24.42 173.82 25.09 175.53 25.94 177.14 26.89 178.7 28.15 180.05 29.04 181.65 30.26 183.01 31.43 184.41 32.66 185.76 34.05 186.94 35.45 188.11 36.91 189.19 38.28 190.4 39.8 191.41 41.34 192.37 42.92 193.28 44.54 194.11 46.14 195 47.93 195.45 49.61 196.14 51.31 196.78 53.04 197.38 54.82 197.81 56.65 197.92 58.43 198.37 60.26 198.4 62.08 198.46 63.9 198.62 65.72 198.7 67.55 198.56 69.34 198.22 71.13 197.84 72.93 197.58 74.69 197.13 76.48 196.78 78.17 196.09 79.99 195.76 81.61 194.9 83.2 194 84.95 193.43 86.4 192.29 88.06 191.5 89.58 190.49 90.93 189.25 92.41 188.18 93.71 186.91 95.07 185.69 96.44 184.48 97.42 182.91 98.74 181.64 99.84 180.18 100.89 178.69 101.74 177.07 102.8 175.57 103.65 173.95 104.42 172.3 105.11 170.6 105.49 168.8 106.31 167.15 106.69 165.36 107.13 163.59 107.41 161.78 107.8 160 107.75 158.16 108.04 156.35 108.08 154.52"/><path class="cls-6" d="M69.17,153.55l2.46,1,2.1,1.61,1.2,2,.22,2.29-.6,2.73-1.65,2.3-2.25,1.31-2.46.81-2.64.37.07,3.59H62.2v-1.84l0-1.83-2.45-.37-2.3-.89-2.14-1.21-1.57-1.73-.91-2.15-.29-2.34h4.77l1.23,3,1.74.87,1.87.4v-2.6l0-2.62,0-2.64-2.06-.66-2.73-1.2-2.55-1.53-1.39-2.05-.4-2.44.58-2.66,1.68-2.17,2.11-1.21,2.33-.65,2.36-.38.09-3,3.33,0,0,3.09,2.15.44,2.06.73,1.75,1.3,1.76,2.4.93,2.89-2.39-.07-2.39.08-1.15-2.25-2.73-1.29,0,2.46.11,2.46-.07,2.47,1.8.6Zm-9.92-7.73-.93,2,.62,1.79L61,150.74l1.25.57v-2.21l-.11-2.18.09-2.2Zm9.59,16.63,1-2.14-.85-2.16-2-1.2-1.33-.57v2.4l.11,2.36-.09,2.39Z"/><polygon class="cls-5" points="226.3 77.22 226.22 75.46 225.9 73.73 225.45 72.02 224.81 70.38 224.02 68.81 223.05 67.33 221.98 65.94 220.74 64.68 219.35 63.59 217.83 62.69 216.28 61.86 214.62 61.28 212.94 60.8 211.21 60.44 209.44 60.45 207.68 60.47 205.95 60.82 204.25 61.24 202.6 61.85 201.04 62.67 199.56 63.62 198.2 64.74 196.91 65.94 195.85 67.35 194.82 68.78 194.04 70.37 193.48 72.04 192.94 73.72 192.69 75.46 192.67 77.22 192.76 78.98 192.92 80.74 193.38 82.44 194.02 84.09 194.87 85.64 195.82 87.12 196.99 88.44 198.18 89.73 199.52 90.88 201.04 91.78 202.59 92.61 204.26 93.17 205.94 93.71 207.68 93.99 209.44 94.04 211.21 93.99 212.93 93.62 214.63 93.18 216.31 92.65 217.83 91.75 219.36 90.87 220.66 89.69 221.9 88.44 223.07 87.12 224.03 85.64 224.83 84.08 225.48 82.44 225.89 80.72 226.22 78.99 226.3 77.22"/><path class="cls-6" d="M211.46,76.85l1.74,1,.56,1.62-.89,1.9-1.3.7-1.47.27v1.37h-1.3V82.32l-1.37-.3-1.24-.66L205.13,79l1.81,0,.47,1.14,1.39.49v-3l-.77-.27-2-1-.71-1.7.88-1.83,1.24-.61,1.38-.24V70.75h1.29v1.18l2.29.92,1,2h-1.82l-.46-.83-1-.51v2.81Zm-3.78-2.94-.37.76.24.7.8.43.47.19V73.5Zm3.65,6.34.38-.81-1.11-1.31-.5-.18v2.71Z"/><polyline class="cls-3" points="110.09 128.89 112.18 126 114.65 123.44 116.98 120.74 119.12 117.9 121.53 115.28 123.75 112.5 125.99 109.73 128.27 107 130.7 104.4 132.87 101.57 135.1 98.79 137.46 96.12 139.75 93.35 142.36 96.07 144.94 98.79 147.67 101.36 150.11 104.21 152.89 106.73 155.33 109.59 157.95 112.27 160.74 114.79 163.23 117.61 165.88 120.14 168.26 117.7 170.65 115.15 172.95 112.5 175.43 110.03 177.8 107.46 180.15 104.86 182.54 102.3 184.92 99.72 187.47 97.3 189.8 94.67"/><polygon class="cls-4" points="145.23 93.39 143.62 97.29 139.72 98.89 135.81 97.29 134.19 93.39 135.81 89.48 139.72 87.86 143.61 89.5 145.23 93.39"/><polygon class="cls-4" points="171.23 119.87 169.59 123.76 165.69 125.4 161.78 123.78 160.2 119.87 161.78 115.95 165.69 114.35 169.59 115.97 171.23 119.87"/><polygon class="cls-3" points="187.87 220.4 184.14 220.39 180.44 220.32 176.74 220.36 173.04 220.28 169.34 220.45 165.64 220.4 161.94 220.35 158.24 220.45 154.53 220.36 150.83 220.3 147.13 220.4 143.42 220.46 139.69 220.4 139.63 216.35 139.69 212.31 143.41 212.36 147.11 212.4 150.81 212.31 154.51 212.32 158.21 212.39 161.91 212.34 165.62 212.41 169.32 212.26 173.02 212.4 176.72 212.28 180.42 212.33 184.13 212.31 187.84 212.33 187.79 216.35 187.87 220.4"/></g></svg>
