<svg xmlns="http://www.w3.org/2000/svg" viewBox="0 0 250 250"><defs><style>.cls-1{fill:#f8f8f8;}.cls-2{fill:#fff;}.cls-3{fill:none;stroke:#3e82f7;stroke-miterlimit:10;stroke-width:3px;}.cls-4{fill:#3e82f7;}.cls-5{fill:#f37f82;}.cls-6{fill:#2dd6a5;}.cls-7{fill:#fadc2d;}.cls-8{fill:#e2dfd6;}.cls-9{fill:#fdfdfd;}</style></defs><title>icon-whitelabel-yourbrand</title><g id="Base_Dots" data-name="Base Dots"><circle class="cls-1" cx="125" cy="125" r="100"/></g><g id="Artwork"><polygon class="cls-2" points="212.84 145.29 209.25 145.15 205.67 144.91 202.1 144.53 198.56 143.91 195.07 143.13 192.01 141.57 189.3 139.44 187.45 136.55 186.16 133.35 185.88 129.9 186.66 126.54 187.96 123.5 190.13 121.01 192.73 118.96 195.82 117.75 199.12 117.33 203.17 118.03 206.7 120.23 209.58 123.27 212.56 126.31 215.78 129.09 218.4 130.74 221.21 132.03 224.5 133.76 227.21 136.24 227.61 139.77 225.77 142.51 222.8 144.05 219.54 144.83 216.2 145.16 212.84 145.29"/><polygon class="cls-2" points="18.05 76.67 21.55 77.53 24.75 79.23 28.22 80.15 31.49 81.66 34.82 82.98 38.32 83.85 41.67 85.13 45.02 86.4 48.39 87.63 51.75 88.88 55.08 90.21 58.6 91.04 61.83 92.64 65.27 93.69 68.77 94.55 72.14 95.77 75.44 97.18 78.88 98.25 82.18 99.66 85.47 101.11 89.03 101.82 92.34 103.21 95.67 104.55 98.95 106.04 102.47 106.87 105.76 108.31 109.19 109.39 112.64 110.41 115.95 111.8 119.34 112.99 122.7 114.24 125.95 115.79 129.4 116.8 132.71 118.18 136.25 118.95 139.64 120.14 142.9 121.68 146.27 122.92 149.76 123.81 153.08 125.22 156.47 126.41 159.9 127.47 163.1 129.19 166.65 129.93 169.85 131.65 173.44 132.3 176.74 133.76 180.4 134.17 183.47 132.23 185.53 129.35 186.61 126.53 187.64 123.69 187.93 119.94 186.01 116.73 182.88 114.75 179.47 113.61 176.01 112.69 172.52 111.85 168.97 111.22 165.54 110.2 162.2 108.85 158.79 107.73 155.23 107.11 151.92 105.66 148.43 104.83 144.92 104.06 141.43 103.23 138 102.18 134.66 100.8 131.09 100.24 127.77 98.8 124.17 98.36 120.75 97.23 117.31 96.24 113.96 94.92 110.42 94.22 107.05 92.97 103.49 92.36 100.09 91.19 96.7 89.98 93.26 88.97 89.81 87.98 86.38 86.93 82.88 86.13 79.35 85.41 76.01 84.03 72.58 82.96 69.12 82.02 65.69 80.99 62.19 80.15 58.62 79.6 55.22 78.44 51.75 77.49 48.29 76.55 44.88 75.41 41.53 74.06 38.07 73.11 34.54 72.39 30.99 71.73 27.57 70.62 24.16 69.47 20.71 68.44 17.51 68.8 15.65 71.33 15.38 71.24 15.86 74.37 18.05 76.67"/><polygon class="cls-3" points="18.05 76.67 21.55 77.53 24.75 79.23 28.22 80.15 31.49 81.66 34.82 82.98 38.32 83.85 41.67 85.13 45.02 86.4 48.39 87.63 51.75 88.88 55.08 90.21 58.6 91.04 61.83 92.64 65.27 93.69 68.77 94.55 72.14 95.77 75.44 97.18 78.88 98.25 82.18 99.66 85.47 101.11 89.03 101.82 92.34 103.21 95.67 104.55 98.95 106.04 102.47 106.87 105.76 108.31 109.19 109.39 112.64 110.41 115.95 111.8 119.34 112.99 122.7 114.24 125.95 115.79 129.4 116.8 132.71 118.18 136.25 118.95 139.64 120.14 142.9 121.68 146.27 122.92 149.76 123.81 153.08 125.22 156.47 126.41 159.9 127.47 163.1 129.19 166.65 129.93 169.85 131.65 173.44 132.3 176.74 133.76 180.4 134.17 183.47 132.23 185.53 129.35 186.61 126.53 187.64 123.69 187.93 119.94 186.01 116.73 182.88 114.75 179.47 113.61 176.01 112.69 172.52 111.85 168.97 111.22 165.54 110.2 162.2 108.85 158.79 107.73 155.23 107.11 151.92 105.66 148.43 104.83 144.92 104.06 141.43 103.23 138 102.18 134.66 100.8 131.09 100.24 127.77 98.8 124.17 98.36 120.75 97.23 117.31 96.24 113.96 94.92 110.42 94.22 107.05 92.97 103.49 92.36 100.09 91.19 96.7 89.98 93.26 88.97 89.81 87.98 86.38 86.93 82.88 86.13 79.35 85.41 76.01 84.03 72.58 82.96 69.12 82.02 65.69 80.99 62.19 80.15 58.62 79.6 55.22 78.44 51.75 77.49 48.29 76.55 44.88 75.41 41.53 74.06 38.07 73.11 34.54 72.39 30.99 71.73 27.57 70.62 24.16 69.47 20.71 68.44 17.51 68.8 15.65 71.33 15.38 71.24 15.86 74.37 18.05 76.67"/><polygon class="cls-2" points="110.85 155.58 109.07 155.66 107.29 155.83 105.5 155.65 103.72 155.67 101.94 155.67 100.16 155.79 98.38 155.64 96.6 155.62 94.82 155.72 93.05 155.81 91.27 155.56 89.49 155.59 87.71 155.67 85.93 155.82 84.15 155.72 82.37 155.75 80.59 155.78 78.81 155.66 77.02 155.61 75.24 155.82 73.46 155.78 71.68 155.74 69.89 155.69 68.11 155.81 66.33 155.71 64.54 155.66 62.76 155.56 60.98 155.56 59.19 155.82 57.41 155.57 55.63 155.71 53.84 155.72 52.05 155.81 50.27 155.69 48.48 155.84 46.68 155.76 45.02 155.47 43.51 154.77 42.19 153.77 41.17 152.46 40.39 150.96 40.25 149.27 40.14 147.47 40.33 145.67 40.18 143.86 40.38 142.06 40.32 140.26 40.36 138.46 40.13 136.66 40.38 134.86 40.25 133.06 40.37 131.26 40.41 129.45 40.19 127.65 40.23 125.85 40.23 124.05 40.34 122.24 40.33 120.44 40.36 118.63 40.22 116.83 40.38 115.02 40.22 113.22 40.2 111.41 40.35 109.6 40.16 107.8 40.26 106 40.12 104.19 40.42 102.38 40.38 100.58 40.39 98.77 40.31 96.96 40.39 95.15 40.38 93.34 40.25 91.52 40.34 89.82 41.12 88.31 42.22 87.06 43.44 85.9 44.99 85.22 46.68 85.03 48.47 85.05 50.25 85.11 52.03 84.97 53.81 85.01 55.59 85.18 57.37 85.18 59.15 85.25 60.93 85.06 62.71 85.04 64.49 85.2 66.26 85.14 68.04 85.22 69.82 85.06 71.61 85.23 73.39 85.02 75.17 85.13 76.94 85.17 78.73 85.14 80.51 85.08 82.29 84.97 84.07 85.1 85.86 85.13 87.64 85.15 89.42 85.04 91.21 84.97 92.99 85.15 94.78 85.23 96.56 85.1 98.34 85.02 100.12 85.22 101.91 85.22 103.69 85.08 105.48 85.25 107.27 85.15 109.06 84.98 110.85 85.03 112.48 85.46 113.99 86.09 115.28 87.09 116.41 88.31 117.17 89.83 117.27 91.52 117.17 93.33 117.37 95.13 117.29 96.93 117.14 98.74 117.32 100.53 117.21 102.33 117.21 104.13 117.25 105.93 117.29 107.73 117.29 109.54 117.31 111.34 117.39 113.14 117.15 114.94 117.15 116.75 117.33 118.56 117.26 120.36 117.25 122.16 117.2 123.97 117.3 125.77 117.17 127.58 117.13 129.38 117.32 131.19 117.17 133 117.31 134.8 117.23 136.61 117.14 138.41 117.29 140.22 117.25 142.03 117.39 143.83 117.3 145.64 117.39 147.46 117.35 149.27 117.03 150.93 116.37 152.46 115.42 153.84 114.1 154.91 112.49 155.4 110.85 155.58"/><polygon class="cls-3" points="110.85 155.58 109.07 155.66 107.29 155.83 105.5 155.65 103.72 155.67 101.94 155.67 100.16 155.79 98.38 155.64 96.6 155.62 94.82 155.72 93.05 155.81 91.27 155.56 89.49 155.59 87.71 155.67 85.93 155.82 84.15 155.72 82.37 155.75 80.59 155.78 78.81 155.66 77.02 155.61 75.24 155.82 73.46 155.78 71.68 155.74 69.89 155.69 68.11 155.81 66.33 155.71 64.54 155.66 62.76 155.56 60.98 155.56 59.19 155.82 57.41 155.57 55.63 155.71 53.84 155.72 52.05 155.81 50.27 155.69 48.48 155.84 46.68 155.76 45.02 155.47 43.51 154.77 42.19 153.77 41.17 152.46 40.39 150.96 40.25 149.27 40.14 147.47 40.33 145.67 40.18 143.86 40.38 142.06 40.32 140.26 40.36 138.46 40.13 136.66 40.38 134.86 40.25 133.06 40.37 131.26 40.41 129.45 40.19 127.65 40.23 125.85 40.23 124.05 40.34 122.24 40.33 120.44 40.36 118.63 40.22 116.83 40.38 115.02 40.22 113.22 40.2 111.41 40.35 109.6 40.16 107.8 40.26 106 40.12 104.19 40.42 102.38 40.38 100.58 40.39 98.77 40.31 96.96 40.39 95.15 40.38 93.34 40.25 91.52 40.34 89.82 41.12 88.31 42.22 87.06 43.44 85.9 44.99 85.22 46.68 85.03 48.47 85.05 50.25 85.11 52.03 84.97 53.81 85.01 55.59 85.18 57.37 85.18 59.15 85.25 60.93 85.06 62.71 85.04 64.49 85.2 66.26 85.14 68.04 85.22 69.82 85.06 71.61 85.23 73.39 85.02 75.17 85.13 76.94 85.17 78.73 85.14 80.51 85.08 82.29 84.97 84.07 85.1 85.86 85.13 87.64 85.15 89.42 85.04 91.21 84.97 92.99 85.15 94.78 85.23 96.56 85.1 98.34 85.02 100.12 85.22 101.91 85.22 103.69 85.08 105.48 85.25 107.27 85.15 109.06 84.98 110.85 85.03 112.48 85.46 113.99 86.09 115.28 87.09 116.41 88.31 117.17 89.83 117.27 91.52 117.17 93.33 117.37 95.13 117.29 96.93 117.14 98.74 117.32 100.53 117.21 102.33 117.21 104.13 117.25 105.93 117.29 107.73 117.29 109.54 117.31 111.34 117.39 113.14 117.15 114.94 117.15 116.75 117.33 118.56 117.26 120.36 117.25 122.16 117.2 123.97 117.3 125.77 117.17 127.58 117.13 129.38 117.32 131.19 117.17 133 117.31 134.8 117.23 136.61 117.14 138.41 117.29 140.22 117.25 142.03 117.39 143.83 117.3 145.64 117.39 147.46 117.35 149.27 117.03 150.93 116.37 152.46 115.42 153.84 114.1 154.91 112.49 155.4 110.85 155.58"/><polygon class="cls-4" points="46.66 129.96 47.95 128.62 49.27 127.38 50.62 126.18 51.76 124.77 53.1 123.55 54.38 122.28 55.62 120.97 56.99 119.79 58.21 118.46 59.51 117.2 60.73 115.86 62.05 114.63 63.41 113.42 64.68 112.12 65.93 110.85 67.18 112.12 68.43 113.42 69.73 114.66 71.04 115.89 72.38 117.1 73.63 118.39 74.78 119.79 76.1 121.01 77.45 122.21 78.65 123.56 79.88 124.89 81.28 126.04 82.57 127.3 83.73 128.7 85.08 129.81 86.28 128.56 87.57 127.32 88.99 126.19 90.13 124.79 91.38 123.5 92.66 122.23 93.96 120.99 95.29 119.77 96.49 118.41 97.86 117.19 99.13 118.51 100.47 119.72 101.65 121.11 102.96 122.36 104.28 123.6 105.54 124.9 106.88 126.12 108.17 127.39 109.47 128.67 110.78 129.84 110.92 128.09 110.84 126.28 110.8 124.46 110.71 122.65 110.7 120.83 110.78 119.02 110.86 117.2 110.8 115.38 110.77 113.57 110.69 111.75 110.69 109.93 110.83 108.11 110.72 106.3 110.8 104.48 110.93 102.67 110.78 100.85 110.87 99.03 110.69 97.21 110.84 95.39 110.73 93.56 110.78 91.76 109.03 91.7 107.24 91.63 105.46 91.72 103.68 91.61 101.91 91.65 100.13 91.82 98.34 91.79 96.57 91.71 94.79 91.71 93.01 91.81 91.24 91.63 89.46 91.85 87.68 91.64 85.9 91.63 84.12 91.62 82.34 91.77 80.57 91.65 78.78 91.68 77 91.67 75.22 91.64 73.44 91.67 71.66 91.75 69.88 91.67 68.1 91.69 66.31 91.72 64.53 91.73 62.75 91.69 60.97 91.67 59.19 91.86 57.4 91.66 55.62 91.67 53.84 91.63 52.05 91.78 50.26 91.73 48.47 91.81 46.76 91.81 46.66 93.55 46.69 95.36 46.8 97.18 46.75 99 46.69 100.81 46.74 102.63 46.62 104.44 46.71 106.26 46.68 108.08 46.76 109.89 46.64 111.71 46.66 113.53 46.61 115.34 46.75 117.16 46.6 118.98 46.57 120.79 46.78 122.61 46.65 124.43 46.66 126.25 46.68 128.08 46.66 129.96"/><polygon class="cls-2" points="97.88 104.32 97.63 105.98 96.99 107.52 95.99 108.87 94.65 109.88 93.11 110.53 91.44 110.71 89.78 110.53 88.23 109.88 86.89 108.87 85.9 107.52 85.26 105.97 85.03 104.32 85.23 102.65 85.87 101.1 86.9 99.78 88.24 98.77 89.78 98.1 91.44 97.91 93.1 98.13 94.64 98.77 95.98 99.78 97.02 101.1 97.63 102.66 97.88 104.32"/><path class="cls-2" d="M139.69,141.85l3.84.18,3.8-.18,3.8.07,1,3.35,1.15,3.31,1,3.37,1.34,3.25,1.09,3.34.84,3.42,1.23,3.29,1,3.37,1.17,3.31,1.08,3.34,1,3.35,1.11,3.33,1.07,3.34,1.32,3.27,1.05,3.42h-3.27l-3.21.1-3.15-.22-1.23-3.51-1.18-3.59-1.17-3.54-3.66-.07-3.71,0-3.71,0L139.6,181l-3.64.21-1.41,3.43-1,3.65-1.28,3.49-3.12.09-3.21.14-3.15-.17,1.19-3.26,1.11-3.34,1.06-3.36,1.13-3.33,1.23-3.3,1-3.36,1.17-3.32,1.12-3.34L133,162l1.07-3.35,1.12-3.34,1.06-3.36,1.05-3.37,1.37-3.26Zm-1.43,32.39,3.44.16,3.5-.18,3.51.07,3.57,0-1.2-3.62-1-3.62-1.41-3.5L147.49,160l-.9-3.67-1.3-3.55-1.3,3.55-1.11,3.61-1.19,3.58-1.24,3.56-1.17,3.59Z"/><path class="cls-2" d="M186.44,170.15l3.47.17,3.45.46,3.31.69v-3.66l-.17-3.06-1.25-2.81-2.44-1.41L190,160l-2.89.34-2.61,1.21-1.9,4.1-3.34,0-3.32-.14-3.34.15.54-3.59,1.31-3.33,2.66-2.42,2.95-1.43,3.18-.74,3.22-.54,3.27,0,3.63.09,3.53.85,3.23,1.62,2.66,2.41,1.83,3.09.87,3.2.32,3.32.09,3.4-.14,3.4,0,3.4,0,3.4,0,3.4.05,3.41.12,3.48-4,0h-4l-.72-5-1.94,2.62-2.72,1.87-3.08,1.14-3.28.43-4-.2-3.87-1.15-3.37-2.19-2-2.47-1.27-2.94-.46-3.19.52-3.09,1.32-2.83,2.38-2,3.4-1.9,3.82-.82Zm10.4,7.08-4.27-.91-4.29-.29-3.32.46-2.9,1.48-1.22,3,1.68,3.65,2.64,1.11,2.85.45,3.37-.66,2.78-2,1.83-2.91Z"/><polygon class="cls-2" points="211.53 86.06 215.35 85.55 218.5 83.35 220.98 80.46 222.08 76.8 221.77 73.03 221.07 69.46 219.67 66.11 218.25 62.79 216.72 59.51 214.72 56.49 212.62 53.55 210.39 50.71 208.01 47.99 205.36 45.52 202.58 43.21 199.6 41.15 196.63 39.09 193.49 37.27 190.29 35.55 186.91 34.19 183.43 33.15 179.94 32.16 176.38 31.46 172.83 30.72 169.22 30.39 165.6 30.09 161.98 29.96 158.33 30.09 154.68 30.37 151.09 31.02 147.44 31.36 143.87 32.14 140.41 33.31 136.84 34.15 133.5 35.66 130.24 37.31 126.83 38.69 123.77 40.7 120.83 42.88 118.06 45.26 115.06 47.37 112.69 50.17 110.11 52.78 108.07 55.83 106 58.85 104.54 62.22 103 65.53 101.98 69.05 101.22 72.62 100.86 76.24 100.57 79.88 100.47 83.47 101.1 87.01 102.19 90.42 103.29 93.82 104.65 97.14 106.57 100.17 108.48 103.2 110.68 106.03 113.16 108.62 115.71 111.13 118.47 113.41 121.44 115.4 124.39 117.4 127.25 119.58 130.53 121.03 133.81 122.45 137 124.05 140.4 125.16 143.73 126.47 147.25 127.13 150.69 128.12 154.19 128.84 157.86 128.66 161.19 127.23 164.06 124.98 165.9 121.8 166.55 118.15 166.18 114.74 166.53 111.32 166.53 107.91 166.34 104.49 166.3 101.07 166.42 97.64 166.2 94.22 166.79 91.07 168.6 88.42 171.2 86.52 174.39 85.99 178.1 86.17 181.81 85.98 185.53 85.88 189.24 85.95 192.95 86.13 196.66 85.84 200.38 85.93 204.09 86.11 207.81 86.06 211.53 86.06"/><polygon class="cls-3" points="211.53 86.06 215.35 85.55 218.5 83.35 220.98 80.46 222.08 76.8 221.77 73.03 221.07 69.46 219.67 66.11 218.25 62.79 216.72 59.51 214.72 56.49 212.62 53.55 210.39 50.71 208.01 47.99 205.36 45.52 202.58 43.21 199.6 41.15 196.63 39.09 193.49 37.27 190.29 35.55 186.91 34.19 183.43 33.15 179.94 32.16 176.38 31.46 172.83 30.72 169.22 30.39 165.6 30.09 161.98 29.96 158.33 30.09 154.68 30.37 151.09 31.02 147.44 31.36 143.87 32.14 140.41 33.31 136.84 34.15 133.5 35.66 130.24 37.31 126.83 38.69 123.77 40.7 120.83 42.88 118.06 45.26 115.06 47.37 112.69 50.17 110.11 52.78 108.07 55.83 106 58.85 104.54 62.22 103 65.53 101.98 69.05 101.22 72.62 100.86 76.24 100.57 79.88 100.47 83.47 101.1 87.01 102.19 90.42 103.29 93.82 104.65 97.14 106.57 100.17 108.48 103.2 110.68 106.03 113.16 108.62 115.71 111.13 118.47 113.41 121.44 115.4 124.39 117.4 127.25 119.58 130.53 121.03 133.81 122.45 137 124.05 140.4 125.16 143.73 126.47 147.25 127.13 150.69 128.12 154.19 128.84 157.86 128.66 161.19 127.23 164.06 124.98 165.9 121.8 166.55 118.15 166.18 114.74 166.53 111.32 166.53 107.91 166.34 104.49 166.3 101.07 166.42 97.64 166.2 94.22 166.79 91.07 168.6 88.42 171.2 86.52 174.39 85.99 178.1 86.17 181.81 85.98 185.53 85.88 189.24 85.95 192.95 86.13 196.66 85.84 200.38 85.93 204.09 86.11 207.81 86.06 211.53 86.06"/><polygon class="cls-4" points="154.49 102.66 154.01 106.06 152.74 109.25 150.61 111.93 147.92 114.06 144.74 115.33 141.34 115.81 137.94 115.36 134.75 114.08 132.05 111.95 129.95 109.24 128.61 106.07 128.16 102.66 128.66 99.26 129.96 96.09 132.04 93.36 134.78 91.3 137.94 89.98 141.34 89.51 144.74 89.98 147.9 91.3 150.61 93.39 152.76 96.07 154.06 99.25 154.49 102.66"/><polygon class="cls-5" points="136.57 72.39 136.02 75.66 134.52 78.61 132.19 80.97 129.23 82.45 125.96 82.99 122.69 82.45 119.72 80.98 117.4 78.61 115.84 75.68 115.32 72.39 115.87 69.11 117.39 66.16 119.73 63.82 122.69 62.32 125.96 61.79 129.22 62.34 132.18 63.83 134.55 66.15 136.05 69.11 136.57 72.39"/><polygon class="cls-6" points="184.33 49.67 183.35 53.39 180.62 56.09 176.9 57.08 173.18 56.12 170.47 53.38 169.5 49.67 170.48 45.96 173.19 43.23 176.9 42.26 180.61 43.25 183.35 45.95 184.33 49.67"/><polygon class="cls-7" points="158.89 53 158.25 56.49 156.25 59.43 153.31 61.42 149.82 62.1 146.34 61.42 143.4 59.42 141.42 56.48 140.73 53 141.39 49.51 143.38 46.55 146.35 44.62 149.82 43.92 153.3 44.61 156.26 46.56 158.24 49.51 158.89 53"/><polygon class="cls-8" points="205.88 61.73 205.01 64.99 202.62 67.37 199.37 68.22 196.12 67.36 193.75 64.98 192.85 61.73 193.73 58.48 196.13 56.13 199.37 55.22 202.63 56.09 204.99 58.48 205.88 61.73"/><polygon class="cls-2" points="224.72 138.84 221.95 141.07 218.3 141.84 214.58 142.23 210.83 142.15 207.08 142.03 203.35 141.63 199.63 141.14 195.98 140.31 192.54 138.31 190.08 135.2 188.91 131.39 189.38 127.42 191.38 123.98 194.51 121.57 198.31 120.41 202.27 120.84 205.46 123.2 208.16 126.13 210.92 129 214.02 131.5 216.9 133.28 219.92 134.82 222.94 136.35 224.72 138.84"/><polygon class="cls-3" points="224.77 138.85 221.97 141.14 218.31 141.9 214.58 142.14 210.83 142.12 207.09 141.96 203.35 141.62 199.65 141.07 196 140.24 192.57 138.27 190.06 135.21 189.05 131.38 189.42 127.44 191.36 123.97 194.51 121.55 198.31 120.41 202.26 120.86 205.39 123.27 208.18 126.11 211.01 128.91 214.04 131.48 216.87 133.34 219.93 134.79 222.94 136.35 224.77 138.85"/><path class="cls-9" d="M121.67,232.81l-1.72-.44-1.75,0-1.73-.23-1.64-.6-1.56-.79-1.63-.61-1.59-.73-1.48-.95-1.25-1.25-1.43-1-.84-1.6-1.38-1.13-.7-1.63-1.08-1.39-.79-1.57-.54-1.67-.2-1.75-.52-1.68L99.78,212l.14-1.74-.37-1.77.18-1.79-1.29-1.28-1.5-1-1.41-1.12-1.4-1.12-1.59-.86L91.29,200l-1.58-.88L88.35,198l-1.46-1-1.47-1L84,194.78l-1.53-.95-1.4-1.12-1.56-.91-1.17-1.44-1.69-.74-1.27-1.3-1.48-1-1.56-.91L71,185.23,69.69,184l-1.62-.83-1.27-1.3-1.48-1-1.45-1.07-1.44-1.08L61,177.62l-1.41-1.13-1.6-.86-1.58-.89L55,173.59l-1.44-1.1-1.27-1.19-1.68-.42-1.6-.64H47.27l-1.38.11-1.34.32-1.94.33-1.94.28-2,.41L37,171.34l-1.77,0-1.68-.54-1.64-.59-1.74-.34L28.66,169l-1.4-1.05-1.66-.65-1.2-1.39-1.33-1.2-1.22-1.32-1.37-1.24-.85-1.62-.72-1.66-.78-1.63-.5-1.74L17,153.78,16.85,152l-.25-.51,0-1.67,0-1.62.88-1.41L19,144.94l1.51-1.43,2.06-.65,1.45.38,1.2.82,1.64.91,1.46,1.16,1.43,1.19,1.48,1.14,1.57,1,1.53,1,1-1.29,1-1.32,1-1.28.88-1.4.29-.36-.34-.31-1.46-1.19-1.61-1-1.65-.92-1.53-1.1L30.61,139l-.52-.32-1.76-1.35-1-2,.33-1.69.68-1.56.82-1.44,1.74-1.25,1.77-1.21,2-.29,2-.08,2-.5,1.73.39,1.73.16L44,128l1.71.4,1.69.5,1.48,1L50.24,131l1.51.86,1.52,1L54.67,134l1.27,1.34,1,1.58L58,138.44l.88,1.62.54,1.77.36,1.8.58,1.73.49,1.78L60.77,149l.13,1.84-.12,1.62.85,1.39,1.14,1.09L64,156.29l1.5,1,1.49,1,1.52,1,1.49,1,1.32,1.24,1.33,1.23,1.74.67,1.45,1.07L77,165.9l1.48,1,1.65.79,1.4,1.14,1.5,1,1.35,1.21,1.31,1.25,1.7.73,1.35,1.21,1.55.94,1.31,1.27,1.44,1.09,1.37,1.18,1.68.75,1.41,1.12,1.43,1.1,1.32,1.25,1.44,1.09,1.48,1,1.56.92,1.35,1.22,1.55,1,1.51,1,1.41.78,1.6.58,2-.39,1.71-1,2-.06,1.89-.45,1.94-.06,1.75,0,1.69.54,1.74.13,1.61.68,1.71.39,1.48.93,1.61.68,1.41,1,1.29,1.26,1.39,1.14,1.42,1.15.74,1.7,1.35,1.28.85,1.61.38,1.8.51,1.72.79,1.67.13,1.82.14,1.81,0,1.81-.31,1.78-.05,1.83-.57,1.73-.49,1.75-1,1.52-.86,1.57-1,1.47-.93,1.56-1.08,1.37-1.53.9-1.11,1.39-1.67.61-1.3,1.23-1.67.53-1.7.36-1.58.76-1.73.19-1.71.28Zm-1.5-15.89,1.64-.06,1.61-.64,1.64-.53,1.67-.28.64-1.57.34-1.69.33-1.7.43-1.57-1-1.28-1.35-1.09-.87-1.56-1.42-.93-1.67.11-1.6.69-1.65.5-1.62.34-.69,1.52-.27,1.71-.59,1.62-.65,1.72,1.58,1,.86,1.56,1.36,1.08Z"/><path class="cls-9" d="M107.39,191.58,106,190.49l-1.64-.81-1.39-1.15-1.4-1.13-1.56-.91-1.49-1-1.18-1.42L95.85,183l-1.5-1-1.47-1-1.36-1.19-1.6-.86-1.34-1.22-1.44-1.08-1.56-.91-1.31-1.25-1.46-1.06-1.61-.85-1.35-1.2-1.43-1.1-1.57-.91-1.36-1.2-1.58-.89-1.24-1.35-1.71-.72-1.19-1.43-1.66-.8-1.51-1-1.28-1.3-1.58-.9-1.47-1.06-1.4-1.15-1.42-1.37-1.08-1.66-.59-1.89-.25-2,.06-1.71.07-1.73-.28-1.7-.59-1.62-.34-1.71-.68-1.6L54.88,139l-1.21-1.26-1.11-1.32-1.19-1.25-1.37-1-1.49-.88-1.37-1.13-1.69-.49-1.66-.5-1.69-.38-1.7-.34-1.74-.15-1.72.33-1.71.2-1.73.22-2,1.29-1,1.33.21,1.87,1.53,1.16,1.57,1L35.27,139l1.68.88,1.32,1.37,1.5,1.13,1.11,1.28.54,1.73-.69,1.73-1.27,1.13-1,1.32-1,1.33-.73,1.53-1.21,1-1.57.21-1.32-.78-1.54-1-1.55-1L28,149.64l-1.45-1.17-1.43-1.21-1.67-.88-2.38.2-1.32,1.9-.3,1.52.15,1.65.68,1.65.47,1.65.57,1.62.41,1.72.82,1.54,1.19,1.29,1,1.44,1.49.95,1.16,1.32,1.48.88,1.5.83L32,167l1.54.79,1.72.17,1.67.43,1.72-.12,1.7-.06,1.68-.28,1.71-.19,1.73-.25,1.73-.33,1.75.2,1.66.54,1.74.27,1.65.64,1.45,1L56.91,171,58.36,172l1.26,1.32,1.63.8,1.32,1.22,1.55.91,1.36,1.17,1.58.88,1.32,1.24,1.58.88,1.23,1.35,1.6.85,1.29,1.27,1.65.79L77,186l1.58.89,1.24,1.35,1.54.94,1.58.89,1.3,1.27,1.49,1,1.48,1,1.33,1.22,1.4,1.13,1.59.86L93,197.68l1.32,1.24,1.68.75,1.43,1.1L98.78,202l1.31,1.27,1.35.94.86,1.42.32,1.62.18,1.63.1,1.76v1.74l.23,1.73.3,1.73.34,1.75.81,1.58,1,1.47.79,1.6,1.23,1.28,1.22,1.28,1.54.9,1.33,1.17,1.6.83,1.64.73,1.67.71,1.77.37,1.8.18,1.8-.18,1.81.21,1.73-.59,1.72-.47,1.69-.58,1.75-.49L132,226.3l1.54-.91,1.55-1,1.25-1.32.9-1.64,1-1.56.67-1.7.93-1.6.32-1.81.69-1.75-.11-1.86-.06-1.83-.26-1.81-.21-1.83-.64-1.73-.51-1.79-1-1.57-1.14-1.45-1.1-1.48-1.25-1.37-1.42-1.2-1.76-.75-1.68-.8-1.58-1.08-1.88-.28-1.81-.53-1.87-.31-1.87.47-1.89-.14-1.77.67-1.79.5-1.63.34-1.66.16-1.59-.5-1.62-.31ZM131.9,208l-.5,1.58-.17,1.74-.57,1.63-.55,1.64-.29,1.71-.46,1.78-1.88,0-1.67.43-1.65.51-1.66.46-1.71.28-1.63.67-1.08-1.38-1.19-1.25-1.33-1.1-1-1.4-1.21-1.23L111.88,213l.63-1.65.51-1.65.28-1.71.62-1.62.26-1.72.75-1.47,1.47-.79h1.78l1.59-.75,1.65-.52,1.74-.14,1.7-.62,1.28,1.26,1.13,1.3,1.19,1.24,1.23,1.21,1.2,1.25Z"/><path class="cls-3" d="M107.37,191.6l-1.52-1-1.48-1L103,188.41l-1.5-1-1.45-1.07-1.35-1.2L97.31,184l-1.56-.91-1.51-1-1.46-1.06L91.33,180,90,178.82l-1.57-.91-1.31-1.26-1.59-.88-1.32-1.24-1.54-.95-1.44-1.09-1.54-.95-1.34-1.23-1.5-1-1.52-1-1.48-1L72.55,166l-1.49-1-1.49-1-1.35-1.21-1.47-1-1.53-1-1.39-1.16-1.43-1.12-1.45-1.08-1.65-1.13-1-1.74-.47-1.93.06-2-.24-1.73v-1.73l-.36-1.69-.55-1.63-.34-1.71-.94-1.46-.87-1.47-.88-1.48-1.25-1.19-1.24-1.17-1.3-1.11-1.37-1.05-1.53-.8-1.58-.69-1.66-.46-1.65-.53-1.71-.3-1.74-.25-1.75.11-1.71.39-1.69.4-1.8,1.39-1.07,1.26.17,1.71,1.5,1.17,1.48,1.15,1.53,1.08,1.52,1.1,1.65.94,1.34,1.35,1.07,1.36.46,1.73-.94,1.51-.83,1.45-.87,1.42-1.29,1.12-.88,1.42-1.1,1-1.54.39-1.26-.94L31,151.89l-1.34-1.32-1.59-1-1.41-1.23L25,147.45l-1.42-1.23-2.38.43-1.37,1.87-.3,1.45.34,1.64v1.77l.52,1.68.79,1.57.63,1.62.74,1.59,1.15,1.32,1,1.4L26,163.8l1.42,1,1.42,1,1.54.77,1.65.48,1.62.53,1.59.75,1.74-.05,1.71-.06,1.71.15,1.67-.38,1.72-.15,1.66-.64,1.77.08,1.74.2,1.74.22,1.71.43,1.5.94,1.44,1,1.42,1.1,1.65.78,1.22,1.36,1.43,1.08,1.54.92,1.46,1,1.36,1.18,1.56.91,1.46,1.05,1.42,1.1,1.52,1,1.38,1.15,1.34,1.21,1.56.92,1.51,1,1.4,1.13,1.34,1.21,1.62.84,1.4,1.14,1.34,1.21,1.48,1,1.41,1.11,1.6.85L90,195.66l1.58.89,1.32,1.24,1.4,1.14,1.6.86,1.42,1.11,1.43,1.1,1.44,1.08,1.16,1.15.76,1.43.74,1.49-.24,1.65,0,1.77.35,1.74.23,1.72.25,1.73.66,1.62.57,1.66.7,1.63,1.3,1.23,1,1.42,1.18,1.3,1.23,1.29,1.62.76,1.49,1,1.69.63,1.74.41,1.71.52,1.78.2,1.79.08,1.82.14,1.76-.43,1.78-.33,1.58-.92,1.6-.77,1.67-.7,1.47-1,1.18-1.37,1.33-1.21,1.11-1.46.88-1.6,1.16-1.48.33-1.85.86-1.67-.1-1.88.32-1.81.06-1.84-.49-1.79-.27-1.8-.44-1.78-.65-1.72-.81-1.67-1.15-1.45-1.14-1.44-1.24-1.38-1.47-1.13-1.63-1-1.77-.64-1.71-.73-1.72-.79-1.84-.45-1.9.1-1.88-.32-1.87.31-1.81.54-1.75.67-1.63.38-1.66-.17-1.67.09-1.45-.84ZM131.92,208l-.36,1.63-.42,1.67-.62,1.61-.39,1.68-.47,1.66-.58,1.54-1.61.32-1.62.61-1.64.52-1.67.43-1.68.41-1.67.27-1.31-1.08-1-1.4-1.37-1.07-1-1.39-1.31-1.14L111.92,213l.32-1.71.66-1.6.4-1.68.37-1.69.43-1.67.72-1.57,1.64-.46,1.66-.48,1.71-.25,1.67-.45,1.64-.55,1.68-.31,1.14,1.26,1.19,1.24,1.43,1,1.15,1.28,1.11,1.33Z"/></g></svg>
