<svg xmlns="http://www.w3.org/2000/svg" viewBox="0 0 250 250"><defs><style>.cls-1{fill:#f8f8f8;}.cls-2{fill:#fff;}.cls-3{fill:#fadc2d;}.cls-4{fill:#ff852d;}.cls-5,.cls-6{fill:none;stroke-miterlimit:10;stroke-width:3px;}.cls-5{stroke:#ff852d;}.cls-6{stroke:#3e82f7;}.cls-7{fill:#3e82f7;}</style></defs><title>icon-roundup-customize</title><g id="Base_Dots" data-name="Base Dots"><circle class="cls-1" cx="125" cy="125" r="100"/></g><g id="Artwork"><polygon class="cls-2" points="157.36 96.78 157.47 94.97 157.67 93.17 158.12 91.41 158.72 89.7 159.52 88.06 160.44 86.5 161.56 85.07 162.79 83.75 164.11 82.51 165.52 81.35 167.1 80.45 168.72 79.61 170.45 79.04 172.23 78.68 174.01 78.31 175.83 78.31 177.65 78.31 179.44 78.61 181.2 79.08 182.92 79.67 184.56 80.45 186.12 81.38 187.54 82.51 188.93 83.68 190.08 85.09 191.19 86.52 192.2 88.03 192.89 89.72 193.52 91.42 194.03 93.16 194.31 94.96 194.27 96.78 194.18 98.59 193.92 100.38 193.54 102.16 192.92 103.86 192.21 105.54 191.21 107.06 190.08 108.48 188.93 109.89 187.56 111.08 186.15 112.23 184.54 113.08 182.9 113.85 181.21 114.5 179.43 114.9 177.65 115.27 175.83 115.34 174.02 115.13 172.21 115 170.47 114.45 168.72 113.94 167.07 113.16 165.56 112.16 164.1 111.08 162.76 109.86 161.55 108.5 160.43 107.07 159.54 105.49 158.72 103.87 158.11 102.16 157.61 100.41 157.43 98.6 157.36 96.78"/><polygon class="cls-3" points="154.25 100.39 154.29 98.62 154.53 96.87 155.05 95.18 155.61 93.5 156.37 91.91 157.24 90.37 158.32 88.97 159.54 87.7 160.84 86.51 162.26 85.47 163.75 84.53 165.32 83.69 167 83.13 168.71 82.67 170.46 82.45 172.23 82.35 174 82.46 175.74 82.75 177.48 83.1 179.15 83.69 180.74 84.47 182.2 85.47 183.63 86.5 185 87.62 186.2 88.93 187.2 90.39 188.06 91.93 188.84 93.51 189.43 95.17 189.94 96.87 190.15 98.63 190.21 100.39 190.18 102.16 189.92 103.91 189.4 105.6 188.88 107.28 188.06 108.85 187.2 110.39 186.1 111.78 185 113.17 183.62 114.27 182.2 115.31 180.71 116.25 179.13 117.03 177.46 117.62 175.73 117.98 174 118.33 172.23 118.46 170.47 118.25 168.71 118.09 167.01 117.59 165.32 117.08 163.77 116.23 162.25 115.33 160.84 114.27 159.5 113.12 158.34 111.79 157.29 110.37 156.4 108.85 155.56 107.29 155.01 105.61 154.53 103.91 154.27 102.16 154.25 100.39"/><path class="cls-4" d="M178,96.37l1.84,1.1.63,1.72-1,2-1.38.77-1.56.28v1.45h-1.38v-1.49l-1.48-.32-1.32-.71-.86-1.13-.28-1.39h1.94l.52,1.2,1.48.54V97.22l-.84-.27-2.15-1.13L171.41,94l1-2,1.31-.67,1.45-.26V89.85h1.39v1.28l2.46,1,1.07,2.15h-1.94l-.49-.89-1.11-.54v3Zm-4-3.11-.43.8.29.73.83.49.49.19V92.8Zm3.88,6.75.43-.85-1.21-1.38-.53-.21,0,1.45v1.44Z"/><polygon class="cls-5" points="157.78 96.79 157.93 95.03 158.11 93.26 158.59 91.56 159.2 89.9 159.98 88.31 160.9 86.81 161.93 85.38 163.15 84.11 164.39 82.84 165.85 81.85 167.34 80.9 168.91 80.09 170.61 79.57 172.31 79.1 174.06 78.82 175.83 78.8 177.6 78.81 179.36 79.07 181.05 79.59 182.72 80.16 184.29 80.97 185.86 81.78 187.25 82.88 188.52 84.1 189.76 85.36 190.83 86.77 191.75 88.28 192.49 89.89 193.05 91.56 193.5 93.28 193.77 95.02 193.83 96.79 193.69 98.55 193.48 100.3 193.07 102.02 192.48 103.69 191.67 105.25 190.84 106.82 189.78 108.24 188.55 109.51 187.27 110.73 185.84 111.78 184.32 112.68 182.72 113.42 181.08 114.08 179.35 114.48 177.59 114.67 175.83 114.75 174.06 114.72 172.31 114.51 170.61 113.99 168.94 113.41 167.36 112.63 165.85 111.73 164.41 110.71 163.15 109.47 161.91 108.22 160.9 106.77 160 105.25 159.15 103.7 158.64 102.01 158.2 100.3 157.9 98.56 157.78 96.79"/><polyline class="cls-5" points="186.73 110.84 185.72 112.28 184.53 113.58 183.25 114.79 181.76 115.73 180.29 116.7 178.67 117.38 177.02 117.97 175.33 118.46 173.59 118.69 171.83 118.74 170.06 118.73 168.31 118.5 166.59 118.05 164.94 117.43 163.37 116.62 161.8 115.8 160.44 114.67 159.09 113.53 157.88 112.24 156.84 110.81 155.98 109.26 155.16 107.7 154.65 106 154.11 104.31 153.9 102.56 153.85 100.79 153.89 98.92 154.16 97.07 154.69 95.28 155.4 93.55 156.21 91.88 157.19 90.29 158.4 88.86 159.65 87.48 161.1 86.3"/><polygon class="cls-2" points="145.98 66.18 145.93 64.36 145.65 62.58 145.31 60.8 144.81 59.06 144.2 57.36 143.43 55.73 142.59 54.12 141.61 52.6 140.46 51.2 139.15 49.95 137.86 48.69 136.4 47.64 134.93 46.59 133.4 45.61 131.71 44.98 130.05 44.26 128.28 43.87 126.52 43.48 124.73 43.23 122.93 43.19 121.12 43.25 119.33 43.48 117.54 43.75 115.82 44.32 114.09 44.84 112.46 45.64 110.94 46.61 109.37 47.52 107.97 48.66 106.7 49.96 105.49 51.29 104.25 52.61 103.24 54.11 102.35 55.7 101.67 57.37 101.03 59.06 100.63 60.82 100.19 62.58 99.91 64.36 99.95 66.18 99.98 67.98 100.29 69.77 100.52 71.56 101 73.31 101.68 74.98 102.38 76.65 103.38 78.16 104.37 79.66 105.37 81.18 106.72 82.39 107.95 83.72 109.45 84.73 110.95 85.73 112.47 86.7 114.11 87.45 115.81 88.08 117.54 88.6 119.33 88.88 121.12 89.17 122.93 89.17 124.73 89.1 126.52 88.82 128.31 88.57 130.05 88.09 131.75 87.48 133.34 86.6 134.93 85.76 136.45 84.78 137.92 83.72 139.24 82.48 140.35 81.05 141.51 79.68 142.55 78.2 143.45 76.64 144.12 74.96 144.84 73.3 145.23 71.53 145.63 69.77 145.91 67.99 145.98 66.18"/><polygon class="cls-3" points="142.94 65.91 142.81 64.07 142.53 62.25 142.22 60.42 141.59 58.68 140.85 56.98 139.9 55.4 138.89 53.85 137.75 52.4 136.43 51.1 135.02 49.9 133.46 48.89 131.81 48.07 130.14 47.29 128.38 46.73 126.59 46.28 124.77 46.04 122.92 45.93 121.08 45.98 119.26 46.32 117.47 46.75 115.71 47.3 113.98 47.95 112.38 48.88 110.91 50.01 109.5 51.19 108.14 52.44 106.91 53.82 105.89 55.37 104.98 56.98 104.32 58.71 103.69 60.44 103.24 62.23 103.05 64.07 102.96 65.91 102.93 67.77 103.27 69.59 103.63 71.4 104.28 73.14 104.96 74.86 105.98 76.41 106.93 77.99 108.1 79.43 109.43 80.71 110.88 81.87 112.4 82.92 113.98 83.89 115.71 84.54 117.47 85.08 119.24 85.64 121.08 85.78 122.92 85.94 124.77 85.76 126.61 85.63 128.41 85.19 130.17 84.62 131.84 83.82 133.47 82.94 135 81.9 136.44 80.74 137.68 79.36 138.9 77.97 139.89 76.41 140.78 74.81 141.64 73.16 142.24 71.41 142.66 69.6 142.77 67.75 142.94 65.91"/><path class="cls-4" d="M125.32,65.73l2.06,1.2.69,1.92L127,71.12l-1.56.82-1.73.33v1.62h-1.56V72.24l-1.63-.34L119,71.1l-1-1.25-.31-1.56h2.15l.57,1.35,1.65.59V66.66l-.94-.29L120,65.85l-1.14-.73-.82-2,1-2.19,1.47-.73,1.64-.28v-1.4h1.54V59.9l1.47.32,1.26.78.8,1.09.4,1.3h-2.15l-.54-1-1.24-.6v3.35Zm-4.5-3.48-.45.9.3.81.93.53.56.23,0-1.49V61.76Zm4.33,7.52.46-1-1.33-1.53-.58-.23,0,1.61,0,1.61Z"/><polygon class="cls-2" points="83.78 175.77 83.73 173.96 83.44 172.17 83.11 170.4 82.61 168.66 82 166.96 81.23 165.32 80.39 163.72 79.41 162.2 78.25 160.8 76.95 159.55 75.66 158.28 74.19 157.23 72.72 156.19 71.2 155.21 69.51 154.57 67.85 153.86 66.08 153.47 64.32 153.08 62.53 152.83 60.73 152.79 58.92 152.85 57.13 153.07 55.34 153.35 53.62 153.92 51.89 154.44 50.26 155.24 48.74 156.21 47.17 157.11 45.77 158.26 44.5 159.55 43.29 160.88 42.04 162.2 41.04 163.71 40.15 165.29 39.47 166.97 38.82 168.66 38.43 170.42 37.99 172.17 37.71 173.96 37.75 175.77 37.78 177.58 38.09 179.36 38.32 181.16 38.8 182.9 39.48 184.58 40.18 186.24 41.18 187.75 42.17 189.26 43.17 190.77 44.52 191.99 45.75 193.31 47.25 194.33 48.75 195.33 50.27 196.29 51.91 197.05 53.61 197.68 55.34 198.19 57.13 198.48 58.92 198.76 60.73 198.77 62.53 198.7 64.32 198.42 66.11 198.17 67.85 197.69 69.55 197.07 71.13 196.19 72.73 195.36 74.25 194.38 75.72 193.32 77.03 192.08 78.15 190.65 79.31 189.28 80.35 187.8 81.25 186.23 81.92 184.55 82.64 182.9 83.03 181.13 83.44 179.37 83.71 177.58 83.78 175.77"/><polygon class="cls-3" points="80.74 175.51 80.61 173.67 80.33 171.84 80.02 170.02 79.39 168.28 78.65 166.58 77.7 165 76.69 163.45 75.55 162 74.23 160.69 72.82 159.49 71.26 158.49 69.61 157.67 67.94 156.88 66.18 156.33 64.39 155.88 62.57 155.63 60.72 155.53 58.88 155.57 57.06 155.91 55.27 156.34 53.51 156.9 51.78 157.55 50.17 158.47 48.71 159.6 47.3 160.79 45.94 162.03 44.71 163.42 43.69 164.96 42.78 166.58 42.12 168.3 41.48 170.03 41.04 171.83 40.85 173.67 40.76 175.51 40.73 177.36 41.07 179.18 41.43 181 42.07 182.74 42.76 184.45 43.78 186 44.73 187.59 45.9 189.02 47.23 190.31 48.68 191.46 50.2 192.51 51.77 193.48 53.51 194.14 55.27 194.68 57.03 195.24 58.88 195.37 60.72 195.54 62.56 195.35 64.41 195.22 66.21 194.79 67.97 194.22 69.64 193.41 71.27 192.54 72.8 191.5 74.24 190.34 75.47 188.95 76.7 187.57 77.69 186.01 78.58 184.4 79.44 182.76 80.04 181 80.46 179.2 80.57 177.35 80.74 175.51"/><path class="cls-4" d="M63.12,175.32l2.06,1.2.69,1.92-1.07,2.27-1.56.82-1.73.33v1.62H60v-1.66l-1.63-.34-1.47-.8-1-1.25-.31-1.56h2.15l.57,1.35,1.65.59v-3.57L59,176l-1.26-.52-1.14-.73-.82-2,1-2.19,1.47-.73,1.64-.28v-1.4H61.5v1.41l1.47.32,1.26.78.8,1.09.4,1.3H63.27l-.54-1-1.24-.6v3.35Zm-4.5-3.48-.45.9.3.81.93.53.56.23,0-1.49v-1.48ZM63,179.37l.46-1-1.33-1.53-.58-.23,0,1.61,0,1.61Z"/><polygon class="cls-2" points="177.89 46.44 177.84 44.63 177.56 42.84 177.22 41.07 176.72 39.33 176.11 37.63 175.34 35.99 174.5 34.39 173.52 32.87 172.36 31.47 171.06 30.22 169.77 28.95 168.3 27.9 166.83 26.86 165.31 25.88 163.62 25.24 161.96 24.52 160.19 24.14 158.43 23.75 156.64 23.5 154.84 23.45 153.03 23.52 151.24 23.74 149.45 24.02 147.73 24.59 146 25.11 144.37 25.91 142.85 26.88 141.28 27.78 139.88 28.93 138.61 30.22 137.4 31.55 136.15 32.87 135.15 34.38 134.26 35.96 133.58 37.64 132.93 39.33 132.54 41.09 132.1 42.84 131.82 44.63 131.86 46.44 131.89 48.25 132.19 50.03 132.43 51.82 132.9 53.57 133.59 55.25 134.29 56.91 135.29 58.42 136.28 59.93 137.28 61.44 138.63 62.66 139.86 63.98 141.36 65 142.86 66 144.38 66.96 146.02 67.72 147.72 68.35 149.45 68.86 151.24 69.15 153.03 69.43 154.84 69.44 156.64 69.37 158.43 69.08 160.22 68.83 161.96 68.36 163.66 67.74 165.24 66.86 166.84 66.02 168.36 65.05 169.83 63.99 171.15 62.75 172.26 61.32 173.43 59.94 174.46 58.46 175.36 56.9 176.03 55.22 176.75 53.56 177.14 51.8 177.54 50.04 177.82 48.25 177.89 46.44"/><polygon class="cls-3" points="174.85 46.18 174.72 44.33 174.44 42.51 174.13 40.69 173.5 38.95 172.76 37.25 171.81 35.66 170.8 34.12 169.66 32.66 168.34 31.36 166.93 30.16 165.37 29.16 163.72 28.34 162.05 27.55 160.29 27 158.5 26.55 156.68 26.3 154.83 26.2 152.99 26.24 151.17 26.58 149.38 27.01 147.62 27.57 145.89 28.21 144.28 29.14 142.82 30.27 141.41 31.45 140.05 32.7 138.82 34.09 137.8 35.63 136.89 37.24 136.23 38.97 135.59 40.7 135.15 42.5 134.96 44.34 134.87 46.18 134.84 48.03 135.18 49.85 135.54 51.67 136.18 53.4 136.87 55.12 137.89 56.67 138.84 58.26 140.01 59.69 141.34 60.98 142.79 62.13 144.31 63.18 145.88 64.15 147.62 64.81 149.38 65.34 151.15 65.91 152.99 66.04 154.83 66.21 156.67 66.02 158.52 65.89 160.32 65.46 162.08 64.88 163.75 64.08 165.38 63.21 166.91 62.17 168.35 61 169.59 59.62 170.81 58.24 171.8 56.68 172.69 55.07 173.55 53.43 174.15 51.67 174.57 49.87 174.68 48.02 174.85 46.18"/><path class="cls-4" d="M157.23,46l2.06,1.2.69,1.92-1.07,2.27-1.56.82-1.73.33v1.62h-1.56V52.5l-1.63-.34-1.47-.8-1-1.25-.31-1.56h2.15l.57,1.35,1.65.59V46.92l-.94-.29-1.26-.52-1.14-.73-.82-2,1-2.19,1.47-.73,1.64-.28v-1.4h1.54v1.41l1.47.32,1.26.78.8,1.09.4,1.3h-2.15l-.54-1-1.24-.6v3.35Zm-4.5-3.48-.45.9.3.81.93.53.56.23,0-1.49V42ZM157.07,50l.46-1-1.33-1.53-.58-.23,0,1.61,0,1.61Z"/><polygon class="cls-2" points="210.47 54.14 210.42 52.33 210.14 50.54 209.8 48.76 209.3 47.02 208.69 45.32 207.92 43.69 207.09 42.08 206.1 40.56 204.95 39.16 203.64 37.91 202.35 36.65 200.89 35.6 199.42 34.55 197.89 33.57 196.2 32.94 194.54 32.22 192.77 31.83 191.01 31.44 189.22 31.2 187.42 31.15 185.61 31.21 183.82 31.43 182.03 31.71 180.31 32.28 178.58 32.8 176.95 33.6 175.43 34.57 173.86 35.48 172.46 36.62 171.19 37.92 169.98 39.24 168.74 40.57 167.73 42.07 166.84 43.65 166.16 45.33 165.52 47.02 165.12 48.78 164.68 50.53 164.4 52.33 164.44 54.14 164.47 55.95 164.78 57.73 165.01 59.52 165.49 61.27 166.17 62.94 166.87 64.61 167.87 66.12 168.86 67.62 169.86 69.14 171.21 70.35 172.44 71.67 173.94 72.69 175.44 73.69 176.96 74.66 178.61 75.42 180.3 76.04 182.03 76.56 183.82 76.84 185.61 77.13 187.42 77.14 189.22 77.06 191.01 76.78 192.8 76.53 194.54 76.06 196.24 75.44 197.83 74.56 199.42 73.72 200.94 72.74 202.41 71.69 203.73 70.44 204.84 69.01 206.01 67.64 207.04 66.16 207.94 64.59 208.61 62.91 209.33 61.26 209.72 59.49 210.13 57.73 210.4 55.95 210.47 54.14"/><polygon class="cls-3" points="207.43 53.87 207.3 52.03 207.03 50.2 206.71 48.38 206.08 46.64 205.34 44.95 204.39 43.36 203.38 41.81 202.24 40.36 200.92 39.06 199.51 37.86 197.95 36.85 196.3 36.03 194.63 35.25 192.87 34.7 191.09 34.24 189.26 34 187.42 33.89 185.57 33.94 183.75 34.28 181.96 34.71 180.21 35.26 178.47 35.91 176.87 36.84 175.4 37.97 173.99 39.15 172.63 40.4 171.41 41.78 170.38 43.33 169.47 44.94 168.81 46.67 168.18 48.4 167.73 50.19 167.54 52.03 167.45 53.87 167.43 55.73 167.76 57.55 168.12 59.36 168.77 61.1 169.45 62.82 170.47 64.36 171.42 65.95 172.59 67.39 173.92 68.67 175.37 69.83 176.89 70.88 178.47 71.84 180.2 72.5 181.96 73.04 183.73 73.6 185.57 73.73 187.42 73.9 189.26 73.72 191.1 73.59 192.9 73.16 194.66 72.58 196.33 71.78 197.96 70.9 199.49 69.86 200.93 68.7 202.17 67.32 203.39 65.93 204.38 64.37 205.28 62.76 206.13 61.12 206.73 59.37 207.15 57.56 207.26 55.71 207.43 53.87"/><path class="cls-4" d="M189.81,53.69l2.06,1.2.69,1.92-1.07,2.27-1.56.82-1.73.33v1.62h-1.56V60.2L185,59.86l-1.47-.8-1-1.25-.31-1.56h2.15L185,57.6l1.65.59V54.62l-.94-.29-1.26-.52-1.14-.73-.82-2,1-2.19,1.47-.73,1.64-.28v-1.4h1.54v1.41l1.47.32,1.26.78.8,1.09.4,1.3H190l-.54-1-1.24-.6v3.35Zm-4.5-3.48-.45.9.3.81.93.53.56.23,0-1.49V49.72Zm4.33,7.52.46-1-1.33-1.53L188.2,55l0,1.61,0,1.61Z"/><polygon class="cls-2" points="222.02 87 221.97 85.19 221.69 83.4 221.35 81.62 220.85 79.89 220.24 78.19 219.47 76.55 218.64 74.94 217.65 73.43 216.5 72.03 215.19 70.78 213.9 69.51 212.44 68.46 210.97 67.42 209.44 66.44 207.75 65.8 206.09 65.08 204.32 64.69 202.56 64.31 200.77 64.06 198.97 64.01 197.16 64.08 195.37 64.3 193.58 64.58 191.86 65.15 190.13 65.67 188.5 66.47 186.98 67.44 185.41 68.34 184.01 69.49 182.74 70.78 181.53 72.11 180.28 73.43 179.28 74.94 178.39 76.52 177.71 78.19 177.06 79.88 176.67 81.65 176.23 83.4 175.95 85.19 175.99 87 176.02 88.81 176.33 90.59 176.56 92.38 177.03 94.13 177.72 95.81 178.42 97.47 179.42 98.98 180.41 100.49 181.41 102 182.76 103.21 183.99 104.54 185.49 105.56 186.99 106.55 188.51 107.52 190.16 108.28 191.85 108.91 193.58 109.42 195.37 109.7 197.16 109.99 198.97 110 200.77 109.93 202.56 109.64 204.35 109.39 206.09 108.92 207.79 108.3 209.38 107.42 210.97 106.58 212.49 105.61 213.96 104.55 215.28 103.31 216.39 101.88 217.56 100.5 218.59 99.02 219.49 97.46 220.16 95.78 220.88 94.12 221.27 92.36 221.68 90.6 221.95 88.81 222.02 87"/><polygon class="cls-3" points="218.98 86.73 218.85 84.89 218.57 83.07 218.26 81.25 217.63 79.5 216.89 77.81 215.94 76.22 214.93 74.68 213.79 73.22 212.47 71.92 211.06 70.72 209.5 69.71 207.85 68.89 206.18 68.11 204.42 67.56 202.64 67.1 200.81 66.86 198.97 66.75 197.12 66.8 195.3 67.14 193.51 67.57 191.75 68.13 190.02 68.77 188.41 69.7 186.95 70.83 185.54 72.01 184.18 73.26 182.95 74.65 181.93 76.19 181.02 77.8 180.36 79.53 179.72 81.26 179.28 83.06 179.09 84.89 179 86.73 178.97 88.59 179.31 90.41 179.67 92.23 180.31 93.96 181 95.68 182.02 97.23 182.97 98.82 184.14 100.25 185.47 101.54 186.92 102.69 188.44 103.74 190.02 104.71 191.75 105.37 193.51 105.9 195.28 106.46 197.12 106.6 198.97 106.77 200.81 106.58 202.65 106.45 204.45 106.02 206.21 105.44 207.88 104.64 209.51 103.76 211.04 102.72 212.48 101.56 213.72 100.18 214.94 98.8 215.93 97.24 216.82 95.63 217.68 93.99 218.28 92.23 218.7 90.42 218.81 88.58 218.98 86.73"/><path class="cls-4" d="M201.36,86.55l2.06,1.2.69,1.92L203,91.94l-1.56.82-1.73.33v1.62H198.2V93.06l-1.63-.34-1.47-.8-1-1.25-.31-1.56H196l.57,1.35,1.65.59V87.48l-.94-.29L196,86.67l-1.14-.73-.82-2,1-2.19,1.47-.73,1.64-.28V79.3h1.54v1.41l1.47.32,1.26.78.8,1.09.4,1.3h-2.15l-.54-1-1.24-.6V86Zm-4.5-3.48-.45.9.3.81.93.53.56.23,0-1.49V82.58Zm4.33,7.52.46-1-1.33-1.53-.58-.23,0,1.61,0,1.61Z"/><polygon class="cls-2" points="106.78 202.22 106.73 200.41 106.44 198.62 106.11 196.85 105.61 195.11 105 193.41 104.23 191.78 103.39 190.17 102.41 188.65 101.25 187.25 99.95 186 98.66 184.74 97.19 183.68 95.72 182.64 94.2 181.66 92.51 181.02 90.85 180.31 89.08 179.92 87.32 179.53 85.53 179.28 83.73 179.24 81.92 179.3 80.13 179.52 78.34 179.8 76.62 180.37 74.89 180.89 73.26 181.69 71.74 182.66 70.17 183.56 68.77 184.71 67.5 186 66.29 187.33 65.04 188.65 64.04 190.16 63.15 191.74 62.47 193.42 61.82 195.11 61.43 196.87 60.99 198.62 60.71 200.41 60.75 202.22 60.78 204.03 61.09 205.81 61.32 207.61 61.8 209.35 62.48 211.03 63.18 212.69 64.18 214.2 65.17 215.71 66.17 217.22 67.52 218.44 68.75 219.76 70.25 220.78 71.75 221.78 73.27 222.75 74.91 223.5 76.61 224.13 78.34 224.65 80.13 224.93 81.92 225.22 83.73 225.22 85.53 225.15 87.32 224.87 89.11 224.62 90.85 224.14 92.55 223.53 94.13 222.65 95.73 221.81 97.25 220.83 98.72 219.77 100.03 218.53 101.15 217.1 102.31 215.73 103.35 214.25 104.25 212.68 104.92 211 105.64 209.35 106.03 207.58 106.44 205.82 106.71 204.03 106.78 202.22"/><polygon class="cls-3" points="103.74 201.96 103.61 200.12 103.33 198.29 103.02 196.47 102.39 194.73 101.65 193.03 100.7 191.45 99.69 189.9 98.55 188.45 97.23 187.15 95.82 185.94 94.26 184.94 92.61 184.12 90.94 183.34 89.18 182.78 87.39 182.33 85.57 182.09 83.72 181.98 81.88 182.03 80.06 182.36 78.27 182.79 76.51 183.35 74.78 184 73.17 184.92 71.71 186.05 70.3 187.24 68.94 188.48 67.71 189.87 66.69 191.41 65.78 193.03 65.12 194.75 64.48 196.49 64.04 198.28 63.85 200.12 63.76 201.96 63.73 203.81 64.07 205.63 64.43 207.45 65.07 209.19 65.76 210.91 66.78 212.45 67.73 214.04 68.9 215.47 70.23 216.76 71.68 217.91 73.2 218.97 74.78 219.93 76.51 220.59 78.27 221.13 80.03 221.69 81.88 221.82 83.72 221.99 85.56 221.81 87.41 221.67 89.21 221.24 90.97 220.67 92.64 219.86 94.27 218.99 95.8 217.95 97.24 216.79 98.47 215.41 99.7 214.02 100.69 212.46 101.58 210.85 102.44 209.21 103.04 207.46 103.46 205.65 103.57 203.8 103.74 201.96"/><path class="cls-4" d="M86.12,201.78l2.06,1.2.69,1.92-1.07,2.27-1.56.82-1.73.33v1.62H83v-1.66l-1.63-.34-1.47-.8-1-1.25-.31-1.56h2.15l.57,1.35,1.65.59V202.7l-.94-.29-1.26-.52-1.14-.73-.82-2,1-2.19,1.47-.73,1.64-.28v-1.4H84.5v1.41l1.47.32,1.26.78.8,1.09.4,1.3H86.27l-.54-1-1.24-.6v3.35Zm-4.5-3.48-.45.9.3.81.93.53.56.23,0-1.49V197.8ZM86,205.82l.46-1-1.33-1.53-.58-.23,0,1.61,0,1.61Z"/><polygon class="cls-2" points="139.05 165.07 138.99 163.26 138.69 161.47 138.31 159.71 137.76 157.99 137.09 156.31 136.24 154.71 135.31 153.16 134.22 151.71 132.97 150.4 131.58 149.25 130.18 148.11 128.62 147.21 127.04 146.34 125.41 145.55 123.65 145.12 121.91 144.65 120.1 144.51 118.31 144.39 116.5 144.44 114.71 144.69 112.95 145.07 111.23 145.63 109.53 146.26 107.96 147.16 106.38 148.05 104.97 149.18 103.7 150.47 102.4 151.73 101.32 153.18 100.42 154.75 99.59 156.35 98.77 157.96 98.23 159.69 97.84 161.46 97.68 163.26 97.58 165.07 97.75 166.87 97.9 168.67 98.23 170.45 98.87 172.15 99.52 173.83 100.44 175.39 101.32 176.97 102.41 178.41 103.67 179.7 104.97 180.97 106.47 181.97 107.98 182.95 109.52 183.91 111.25 184.47 112.93 185.12 114.72 185.4 116.5 185.63 118.31 185.79 120.11 185.71 121.91 185.48 123.68 185.11 125.38 184.51 127.08 183.88 128.66 183 130.18 182.02 131.57 180.87 132.96 179.72 134.19 178.4 135.3 176.97 136.17 175.38 137.04 173.81 137.76 172.15 138.37 170.45 138.75 168.67 138.85 166.87 139.05 165.07"/><polygon class="cls-3" points="139.92 168.68 139.79 166.91 139.51 165.17 139.18 163.44 138.55 161.78 137.8 160.18 136.84 158.69 135.82 157.25 134.67 155.91 133.35 154.73 131.94 153.66 130.4 152.78 128.77 152.1 127.12 151.47 125.4 151.08 123.67 150.79 121.9 150.71 120.14 150.78 118.39 151 116.69 151.51 115.04 152.11 113.44 152.84 111.87 153.66 110.46 154.74 109.22 155.99 108.04 157.3 106.93 158.67 105.98 160.16 105.24 161.78 104.64 163.44 104.3 165.17 103.99 166.91 103.89 168.68 104.03 170.44 104.28 172.18 104.61 173.92 105.28 175.56 105.98 177.19 106.94 178.68 107.94 180.13 109.22 181.36 110.46 182.62 111.87 183.69 113.4 184.58 115.02 185.3 116.68 185.9 118.38 186.4 120.14 186.57 121.9 186.61 123.67 186.65 125.41 186.29 127.14 185.93 128.77 185.25 130.41 184.59 131.93 183.68 133.35 182.63 134.63 181.4 135.84 180.11 136.9 178.69 137.83 177.19 138.5 175.55 139.14 173.91 139.51 172.18 139.77 170.44 139.92 168.68"/><path class="cls-4" d="M120.46,164.65l1.84,1.1.63,1.72-1,2-1.38.77-1.56.28V172h-1.38v-1.49l-1.48-.32-1.32-.71-.86-1.13-.28-1.39h1.94l.52,1.2,1.48.54V165.5l-.84-.27-2.15-1.13-.76-1.83,1-2,1.31-.67,1.45-.26v-1.26H119v1.28l2.46,1,1.07,2.15h-1.94l-.49-.89-1.11-.54v3Zm-4-3.11-.43.8.29.73.83.49.49.19v-2.66Zm3.88,6.75.43-.85-1.21-1.38-.53-.21,0,1.45v1.44Z"/><polygon class="cls-5" points="136.34 165.08 136.28 163.31 135.96 161.56 135.54 159.85 134.94 158.19 134.19 156.58 133.27 155.07 132.26 153.62 131.08 152.3 129.75 151.13 128.28 150.15 126.79 149.2 125.17 148.5 123.52 147.88 121.83 147.36 120.06 147.21 118.3 147.04 116.54 147.21 114.79 147.44 113.07 147.84 111.42 148.45 109.82 149.2 108.31 150.12 106.86 151.13 105.59 152.36 104.33 153.61 103.31 155.06 102.47 156.61 101.62 158.17 101.05 159.84 100.69 161.57 100.44 163.32 100.23 165.08 100.32 166.85 100.58 168.6 101.07 170.31 101.65 171.97 102.48 173.53 103.32 175.09 104.34 176.54 105.59 177.79 106.87 179 108.34 179.99 109.8 180.98 111.4 181.75 113.08 182.3 114.78 182.78 116.54 182.93 118.3 183.03 120.07 183.06 121.81 182.68 123.54 182.35 125.17 181.66 126.76 180.9 128.31 180.06 129.74 179 131.05 177.82 132.25 176.52 133.26 175.07 134.22 173.59 134.94 171.97 135.53 170.3 135.9 168.58 136.24 166.84 136.34 165.08"/><polygon class="cls-2" points="141.11 193.08 137.6 192.99 134.09 192.97 130.58 192.87 127.07 193.08 123.56 193.03 120.05 192.85 116.53 192.9 113.02 192.9 109.5 192.94 105.99 193.02 102.48 192.99 98.97 193.06 95.45 193 91.93 192.88 88.41 192.98 84.6 191.88 81.76 189.13 80.61 185.29 80.85 181.78 80.83 178.27 80.64 174.76 80.7 171.25 80.71 167.74 80.82 164.23 80.6 160.72 80.82 157.2 80.62 153.69 80.7 150.18 80.7 146.66 80.62 143.15 80.58 139.63 80.83 136.11 80.79 132.59 81.73 128.74 84.57 125.94 88.41 124.78 91.92 124.88 95.43 124.92 98.94 124.83 102.45 125.03 105.96 124.96 109.47 124.78 112.98 124.93 116.5 124.83 120.01 125 123.52 124.91 127.04 124.94 130.55 124.82 134.07 124.88 137.59 124.93 141.11 124.88 144.91 126.01 147.76 128.75 148.89 132.59 148.87 136.1 148.76 139.61 148.82 143.12 148.93 146.63 148.76 150.14 148.71 153.66 148.69 157.17 148.73 160.68 148.92 164.19 148.69 167.71 148.71 171.22 148.84 174.73 148.9 178.25 148.79 181.77 148.75 185.29 147.69 189.09 144.9 191.85 141.11 193.08"/><polygon class="cls-6" points="141.11 193.08 137.6 192.99 134.09 192.97 130.58 192.87 127.07 193.08 123.56 193.03 120.05 192.85 116.53 192.9 113.02 192.9 109.5 192.94 105.99 193.02 102.48 192.99 98.97 193.06 95.45 193 91.93 192.88 88.41 192.98 84.6 191.88 81.76 189.13 80.61 185.29 80.85 181.78 80.83 178.27 80.64 174.76 80.7 171.25 80.71 167.74 80.82 164.23 80.6 160.72 80.82 157.2 80.62 153.69 80.7 150.18 80.7 146.66 80.62 143.15 80.58 139.63 80.83 136.11 80.79 132.59 81.73 128.74 84.57 125.94 88.41 124.78 91.92 124.88 95.43 124.92 98.94 124.83 102.45 125.03 105.96 124.96 109.47 124.78 112.98 124.93 116.5 124.83 120.01 125 123.52 124.91 127.04 124.94 130.55 124.82 134.07 124.88 137.59 124.93 141.11 124.88 144.91 126.01 147.76 128.75 148.89 132.59 148.87 136.1 148.76 139.61 148.82 143.12 148.93 146.63 148.76 150.14 148.71 153.66 148.69 157.17 148.73 160.68 148.92 164.19 148.69 167.71 148.71 171.22 148.84 174.73 148.9 178.25 148.79 181.77 148.75 185.29 147.69 189.09 144.9 191.85 141.11 193.08"/><polygon class="cls-7" points="91.42 164.48 91.49 159.97 91.49 155.52 95.18 155.42 98.91 155.53 102.64 155.56 106.38 155.44 110.11 155.46 113.84 155.41 117.57 155.49 121.31 155.44 125.04 155.49 128.77 155.44 132.51 155.46 136.23 155.51 136.25 159.97 136.31 164.5 132.52 164.5 128.79 164.4 125.06 164.51 121.33 164.5 117.6 164.49 113.86 164.45 110.13 164.4 106.4 164.37 102.67 164.47 98.93 164.37 95.19 164.42 91.42 164.48"/><polygon class="cls-2" points="187.68 137.87 183.98 137.8 180.27 137.69 176.56 137.73 172.85 137.71 169.15 137.71 165.44 137.8 161.73 137.73 158.02 137.69 154.31 137.64 150.6 137.75 146.89 137.89 143.18 137.88 139.46 137.77 135.75 137.82 132.65 137.17 130.05 135.38 128.36 132.75 127.76 129.69 127.65 125.99 127.64 122.28 127.59 118.57 127.57 114.86 127.71 111.16 127.56 107.45 127.59 103.74 127.56 100.03 127.75 96.32 127.7 92.61 127.75 88.9 127.55 85.19 127.7 81.47 127.73 77.75 128.28 74.66 129.98 71.99 132.64 70.26 135.75 69.55 139.45 69.72 143.16 69.78 146.86 69.69 150.57 69.57 154.28 69.79 157.99 69.67 161.7 69.67 165.41 69.54 169.12 69.8 172.83 69.7 176.54 69.74 180.25 69.69 183.96 69.75 187.68 69.6 190.72 70.41 193.4 72.04 195.15 74.66 195.89 77.75 195.72 81.46 195.83 85.17 195.84 88.87 195.65 92.58 195.65 96.29 195.78 100 195.81 103.71 195.62 107.42 195.7 111.13 195.79 114.84 195.86 118.55 195.84 122.26 195.71 125.97 195.88 129.69 195.1 132.76 193.31 135.32 190.8 137.22 187.68 137.87"/><polygon class="cls-6" points="187.68 137.87 183.98 137.8 180.27 137.69 176.56 137.73 172.85 137.71 169.15 137.71 165.44 137.8 161.73 137.73 158.02 137.69 154.31 137.64 150.6 137.75 146.89 137.89 143.18 137.88 139.46 137.77 135.75 137.82 132.65 137.17 130.05 135.38 128.36 132.75 127.76 129.69 127.65 125.99 127.64 122.28 127.59 118.57 127.57 114.86 127.71 111.16 127.56 107.45 127.59 103.74 127.56 100.03 127.75 96.32 127.7 92.61 127.75 88.9 127.55 85.19 127.7 81.47 127.73 77.75 128.28 74.66 129.98 71.99 132.64 70.26 135.75 69.55 139.45 69.72 143.16 69.78 146.86 69.69 150.57 69.57 154.28 69.79 157.99 69.67 161.7 69.67 165.41 69.54 169.12 69.8 172.83 69.7 176.54 69.74 180.25 69.69 183.96 69.75 187.68 69.6 190.72 70.41 193.4 72.04 195.15 74.66 195.89 77.75 195.72 81.46 195.83 85.17 195.84 88.87 195.65 92.58 195.65 96.29 195.78 100 195.81 103.71 195.62 107.42 195.7 111.13 195.79 114.84 195.86 118.55 195.84 122.26 195.71 125.97 195.88 129.69 195.1 132.76 193.31 135.32 190.8 137.22 187.68 137.87"/><polygon class="cls-7" points="183.49 100.5 179.92 100.46 176.34 100.44 172.76 100.4 169.17 100.48 165.53 100.55 165.51 96.91 165.58 93.33 165.55 89.74 165.57 86.16 165.59 82.56 161.1 82.51 156.59 82.52 156.63 86.15 156.64 89.73 156.68 93.31 156.69 96.9 156.61 100.47 153.04 100.56 149.46 100.54 145.88 100.56 142.29 100.43 138.69 100.47 138.66 104.97 138.77 109.4 142.29 109.47 145.87 109.49 149.45 109.45 153.04 109.4 156.64 109.43 156.71 113.03 156.6 116.61 156.56 120.19 156.62 123.78 156.67 127.31 161.1 127.44 165.58 127.36 165.58 123.79 165.5 120.2 165.67 116.62 165.6 113.03 165.61 109.47 169.17 109.46 172.75 109.49 176.33 109.4 179.92 109.53 183.5 109.44 183.5 104.97 183.49 100.5"/></g></svg>
