<svg xmlns="http://www.w3.org/2000/svg" viewBox="0 0 250 250"><defs><style>.cls-1{fill:#f8f8f8;}.cls-2,.cls-6{fill:#fff;}.cls-3,.cls-5{fill:none;}.cls-3,.cls-5,.cls-6{stroke:#3e82f7;stroke-miterlimit:10;}.cls-3,.cls-6{stroke-width:3px;}.cls-4{fill:#3e82f7;}.cls-5{stroke-width:2px;}</style></defs><title>icon-engage-push</title><g id="Base_Dots" data-name="Base Dots"><circle class="cls-1" cx="125" cy="125" r="100"/></g><g id="Artwork"><polygon class="cls-2" points="114.58 230.93 118.06 230.58 121.53 230.87 125.01 230.84 128.48 230.57 131.96 230.65 135.43 230.65 138.91 230.53 142.38 230.63 145.87 230.76 149.35 230.55 152.83 229.36 153.97 225.88 154.3 222.37 153.89 218.89 153.16 215.48 152.11 212.14 150.37 209.1 148.24 206.33 145.75 203.9 142.92 201.91 139.99 200.07 136.72 198.91 136.39 197 139.06 195.09 140.45 192.12 141.46 189.05 141.4 185.83 140.71 182.62 138.92 179.84 136.74 177.33 133.91 175.54 130.64 174.99 127.17 174.82 123.77 175.74 120.93 177.82 118.63 180.46 117.46 183.74 117.06 187.14 117.38 190.99 119.26 194.38 121.89 197.23 121.66 198.66 118.45 200.12 115.39 201.85 112.72 204.12 110.19 206.55 108.01 209.32 106.46 212.5 105.09 215.75 104.18 219.77 104.03 223.88 104.26 225.88 105.6 229.21 108.92 230.94 111.76 230.54 114.58 230.93"/><polygon class="cls-3" points="114.58 230.93 118.06 230.58 121.53 230.87 125.01 230.84 128.48 230.57 131.96 230.65 135.43 230.65 138.91 230.53 142.38 230.63 145.87 230.76 149.35 230.55 152.83 229.36 153.97 225.88 154.3 222.37 153.89 218.89 153.16 215.48 152.11 212.14 150.37 209.1 148.24 206.33 145.75 203.9 142.92 201.91 139.99 200.07 136.72 198.91 136.39 197 139.06 195.09 140.45 192.12 141.46 189.05 141.4 185.83 140.71 182.62 138.92 179.84 136.74 177.33 133.91 175.54 130.64 174.99 127.17 174.82 123.77 175.74 120.93 177.82 118.63 180.46 117.46 183.74 117.06 187.14 117.38 190.99 119.26 194.38 121.89 197.23 121.66 198.66 118.45 200.12 115.39 201.85 112.72 204.12 110.19 206.55 108.01 209.32 106.46 212.5 105.09 215.75 104.18 219.77 104.03 223.88 104.26 225.88 105.6 229.21 108.92 230.94 111.76 230.54 114.58 230.93"/><path class="cls-2" d="M133.24,189.64a4.1,4.1,0,0,1-8.21,0"/><polyline class="cls-3" points="133.09 189.64 133.17 190.95 132.51 192.09 131.63 193.08 130.35 193.39 129.13 193.87 127.89 193.48 126.75 192.91 125.8 192.06 125.38 190.86 125.11 189.64"/><polygon class="cls-2" points="114.58 75.57 118.06 75.22 121.53 75.5 125.01 75.48 128.48 75.21 131.96 75.28 135.43 75.29 138.91 75.16 142.38 75.27 145.87 75.39 149.35 75.19 152.83 74 153.97 70.52 154.3 67.01 153.89 63.53 153.16 60.12 152.11 56.78 150.37 53.74 148.24 50.97 145.75 48.54 142.92 46.55 139.99 44.71 136.72 43.55 136.39 41.64 139.06 39.73 140.45 36.76 141.46 33.69 141.4 30.47 140.71 27.26 138.92 24.48 136.74 21.97 133.91 20.17 130.64 19.63 127.17 19.46 123.77 20.37 120.93 22.46 118.63 25.1 117.46 28.38 117.06 31.78 117.38 35.63 119.26 39.02 121.89 41.87 121.66 43.29 118.45 44.76 115.39 46.49 112.72 48.75 110.19 51.19 108.01 53.96 106.46 57.13 105.09 60.39 104.18 64.41 104.03 68.51 104.26 70.52 105.6 73.84 108.92 75.57 111.76 75.18 114.58 75.57"/><polygon class="cls-3" points="114.58 75.57 118.06 75.22 121.53 75.5 125.01 75.48 128.48 75.21 131.96 75.28 135.43 75.29 138.91 75.16 142.38 75.27 145.87 75.39 149.35 75.19 152.83 74 153.97 70.52 154.3 67.01 153.89 63.53 153.16 60.12 152.11 56.78 150.37 53.74 148.24 50.97 145.75 48.54 142.92 46.55 139.99 44.71 136.72 43.55 136.39 41.64 139.06 39.73 140.45 36.76 141.46 33.69 141.4 30.47 140.71 27.26 138.92 24.48 136.74 21.97 133.91 20.17 130.64 19.63 127.17 19.46 123.77 20.37 120.93 22.46 118.63 25.1 117.46 28.38 117.06 31.78 117.38 35.63 119.26 39.02 121.89 41.87 121.66 43.29 118.45 44.76 115.39 46.49 112.72 48.75 110.19 51.19 108.01 53.96 106.46 57.13 105.09 60.39 104.18 64.41 104.03 68.51 104.26 70.52 105.6 73.84 108.92 75.57 111.76 75.18 114.58 75.57"/><path class="cls-2" d="M133.24,34.28a4.1,4.1,0,0,1-8.21,0"/><polyline class="cls-3" points="133.09 34.28 133.17 35.59 132.51 36.73 131.63 37.72 130.35 38.03 129.13 38.51 127.89 38.12 126.75 37.55 125.8 36.7 125.38 35.49 125.11 34.28"/><polygon class="cls-2" points="33.32 145.44 36.79 145.09 40.26 145.38 43.74 145.35 47.21 145.09 50.69 145.16 54.16 145.16 57.64 145.04 61.12 145.14 64.6 145.27 68.08 145.06 71.56 143.87 72.7 140.39 73.03 136.88 72.62 133.4 71.89 129.99 70.84 126.65 69.1 123.61 66.97 120.84 64.49 118.41 61.65 116.42 58.72 114.58 55.45 113.42 55.12 111.51 57.79 109.6 59.18 106.63 60.2 103.56 60.13 100.34 59.44 97.13 57.65 94.36 55.47 91.84 52.64 90.05 49.37 89.5 45.9 89.33 42.5 90.25 39.66 92.33 37.36 94.97 36.19 98.25 35.79 101.65 36.11 105.5 37.99 108.89 40.62 111.74 40.39 113.17 37.18 114.63 34.12 116.36 31.45 118.63 28.93 121.06 26.74 123.83 25.19 127.01 23.82 130.26 22.91 134.28 22.76 138.39 22.99 140.39 24.33 143.72 27.65 145.45 30.49 145.05 33.32 145.44"/><polygon class="cls-3" points="33.32 145.44 36.79 145.09 40.26 145.38 43.74 145.35 47.21 145.09 50.69 145.16 54.16 145.16 57.64 145.04 61.12 145.14 64.6 145.27 68.08 145.06 71.56 143.87 72.7 140.39 73.03 136.88 72.62 133.4 71.89 129.99 70.84 126.65 69.1 123.61 66.97 120.84 64.49 118.41 61.65 116.42 58.72 114.58 55.45 113.42 55.12 111.51 57.79 109.6 59.18 106.63 60.2 103.56 60.13 100.34 59.44 97.13 57.65 94.36 55.47 91.84 52.64 90.05 49.37 89.5 45.9 89.33 42.5 90.25 39.66 92.33 37.36 94.97 36.19 98.25 35.79 101.65 36.11 105.5 37.99 108.89 40.62 111.74 40.39 113.17 37.18 114.63 34.12 116.36 31.45 118.63 28.93 121.06 26.74 123.83 25.19 127.01 23.82 130.26 22.91 134.28 22.76 138.39 22.99 140.39 24.33 143.72 27.65 145.45 30.49 145.05 33.32 145.44"/><path class="cls-2" d="M52,104.15a4.1,4.1,0,1,1-8.21,0"/><polyline class="cls-3" points="51.82 104.15 51.9 105.46 51.24 106.6 50.37 107.59 49.09 107.9 47.87 108.38 46.62 107.99 45.48 107.42 44.53 106.57 44.11 105.37 43.84 104.15"/><polygon class="cls-2" points="187.59 145.44 191.06 145.09 194.53 145.38 198.01 145.35 201.48 145.09 204.96 145.16 208.43 145.16 211.91 145.04 215.38 145.14 218.87 145.27 222.35 145.06 225.83 143.87 226.97 140.39 227.3 136.88 226.89 133.4 226.16 129.99 225.11 126.65 223.37 123.61 221.24 120.84 218.75 118.41 215.92 116.42 212.99 114.58 209.72 113.42 209.39 111.51 212.06 109.6 213.45 106.63 214.46 103.56 214.4 100.34 213.71 97.13 211.92 94.36 209.74 91.84 206.91 90.05 203.64 89.5 200.17 89.33 196.77 90.25 193.93 92.33 191.63 94.97 190.46 98.25 190.06 101.65 190.38 105.5 192.26 108.89 194.89 111.74 194.66 113.17 191.45 114.63 188.39 116.36 185.72 118.63 183.19 121.06 181.01 123.83 179.46 127.01 178.09 130.26 177.18 134.28 177.03 138.39 177.26 140.39 178.6 143.72 181.92 145.45 184.76 145.05 187.59 145.44"/><polygon class="cls-3" points="187.59 145.44 191.06 145.09 194.53 145.38 198.01 145.35 201.48 145.09 204.96 145.16 208.43 145.16 211.91 145.04 215.38 145.14 218.87 145.27 222.35 145.06 225.83 143.87 226.97 140.39 227.3 136.88 226.89 133.4 226.16 129.99 225.11 126.65 223.37 123.61 221.24 120.84 218.75 118.41 215.92 116.42 212.99 114.58 209.72 113.42 209.39 111.51 212.06 109.6 213.45 106.63 214.46 103.56 214.4 100.34 213.71 97.13 211.92 94.36 209.74 91.84 206.91 90.05 203.64 89.5 200.17 89.33 196.77 90.25 193.93 92.33 191.63 94.97 190.46 98.25 190.06 101.65 190.38 105.5 192.26 108.89 194.89 111.74 194.66 113.17 191.45 114.63 188.39 116.36 185.72 118.63 183.19 121.06 181.01 123.83 179.46 127.01 178.09 130.26 177.18 134.28 177.03 138.39 177.26 140.39 178.6 143.72 181.92 145.45 184.76 145.05 187.59 145.44"/><path class="cls-2" d="M206.24,104.15a4.1,4.1,0,0,1-8.21,0"/><polyline class="cls-3" points="206.09 104.15 206.17 105.46 205.51 106.6 204.63 107.59 203.35 107.9 202.13 108.38 200.89 107.99 199.75 107.42 198.8 106.57 198.38 105.37 198.11 104.15"/><polygon class="cls-2" points="61.58 138.13 63.49 137.26 64.87 135.93 66.24 134.58 67.58 133.21 68.94 131.85 70.31 130.5 71.66 129.12 73.03 127.77 73.81 125.82 73.06 123.84 71.68 122.51 70.29 121.19 68.92 119.83 67.62 118.43 66.27 117.06 64.9 115.7 63.54 114.34 61.58 113.56 59.62 114.35 58.83 116.31 58.81 118.04 58.8 119.77 58.8 121.49 58.8 123.22 58.79 124.94 58.84 126.67 58.78 128.4 58.8 130.13 58.83 131.86 58.78 133.6 58.86 135.33 59.64 137.27 61.58 138.13"/><polygon class="cls-2" points="61.58 140.53 63.56 140.11 65.26 139.02 66.57 137.63 67.93 136.27 69.29 134.91 70.7 133.61 71.98 132.17 73.42 130.88 74.74 129.48 75.74 128.2 76.14 126.62 76.2 125.01 75.65 123.49 74.77 122.14 73.39 120.81 72.01 119.47 70.68 118.08 69.3 116.75 67.99 115.34 66.63 113.97 65.22 112.66 63.54 111.56 61.58 111.17 59.97 111.36 58.53 112.11 57.42 113.29 56.68 114.72 56.42 116.31 56.35 118.04 56.38 119.77 56.42 121.49 56.42 123.22 56.37 124.94 56.39 126.67 56.34 128.4 56.35 130.13 56.37 131.86 56.43 133.6 56.37 135.33 56.67 136.93 57.39 138.38 58.52 139.53 59.99 140.23 61.58 140.53"/><polygon class="cls-2" points="62.62 136.38 63.98 135.03 65.36 133.7 66.73 132.35 68.08 130.99 69.43 129.62 70.78 128.24 72.14 126.89 72.17 124.73 70.77 123.42 69.42 122.05 68.09 120.67 66.74 119.31 65.36 117.97 64.01 116.59 62.64 115.24 61 114.93 60.05 116.31 60.06 118.04 60.05 119.77 60.03 121.49 60.05 123.22 60.03 124.94 60.08 126.67 60.08 128.4 60.04 130.13 60.08 131.86 60.09 133.6 60.09 135.33 60.98 136.76 62.62 136.38"/><polygon class="cls-2" points="110.23 136.6 110.19 134.8 110.23 133.01 110.2 131.21 110.22 129.42 110.23 127.63 110.19 125.84 110.19 124.04 110.24 122.24 110.21 120.45 110.2 118.65 110.18 116.85 110.24 115.05 109.97 113.3 109.28 111.67 108.23 110.26 106.85 109.15 105.19 108.52 103.44 108.23 101.59 108.31 99.75 108.31 97.9 108.28 96.05 108.24 94.2 108.25 92.35 108.31 90.51 108.29 88.66 108.28 86.81 108.31 84.97 108.29 83.11 108.29 81.27 108.25 79.41 108.27 77.56 108.3 75.7 108.23 73.96 108.53 72.33 109.21 70.89 110.23 69.86 111.67 69.16 113.29 68.95 115.05 68.95 116.84 68.92 118.64 68.96 120.43 68.9 122.22 68.91 124.02 68.96 125.81 68.93 127.6 68.92 129.4 68.93 131.19 68.89 132.99 68.97 134.79 68.89 136.6 69.17 138.34 69.85 139.97 70.9 141.4 72.32 142.45 73.94 143.15 75.7 143.34 77.55 143.36 79.4 143.39 81.25 143.39 83.09 143.37 84.94 143.36 86.79 143.4 88.63 143.33 90.48 143.36 92.33 143.33 94.18 143.35 96.03 143.4 97.88 143.37 99.73 143.36 101.59 143.41 103.44 143.41 105.2 143.17 106.81 142.43 108.26 141.41 109.34 140 110.01 138.35 110.23 136.6"/><polygon class="cls-2" points="75.7 139.73 77.55 139.72 79.4 139.69 81.25 139.68 83.09 139.74 84.94 139.7 86.79 139.67 88.63 139.71 90.48 139.72 92.33 139.74 94.18 139.68 96.03 139.68 97.88 139.7 99.73 139.73 101.59 139.7 103.44 139.72 105 139.3 106.11 138.13 106.58 136.6 106.52 134.8 106.52 133.01 106.53 131.21 106.56 129.42 106.54 127.63 106.53 125.83 106.58 124.04 106.56 122.24 106.56 120.45 106.54 118.65 106.53 116.85 106.57 115.05 106.12 113.5 104.98 112.38 103.44 111.96 101.59 111.9 99.75 111.92 97.9 111.93 96.05 111.97 94.2 111.92 92.35 111.92 90.51 111.92 88.66 111.91 86.81 111.96 84.97 111.94 83.11 111.92 81.27 111.96 79.41 111.96 77.56 111.91 75.7 111.95 74.16 112.38 73.02 113.5 72.61 115.05 72.62 116.84 72.61 118.64 72.61 120.43 72.63 122.22 72.57 124.02 72.58 125.81 72.61 127.6 72.62 129.4 72.6 131.19 72.61 132.99 72.59 134.79 72.62 136.6 72.99 138.16 74.14 139.31 75.7 139.73"/><polygon class="cls-3" points="62.58 136.34 64.95 133.97 67.33 131.59 69.75 129.25 72.19 126.94 72.1 124.8 69.77 122.38 67.43 119.97 65.08 117.56 62.61 115.27 60.09 116.31 60.09 120.11 60.01 123.91 60.07 127.72 60.1 131.52 59.97 135.33 62.58 136.34"/><polygon class="cls-3" points="75.7 139.73 79.17 139.8 82.63 139.84 86.1 139.74 89.56 139.81 93.03 139.61 96.5 139.82 99.97 139.7 103.44 139.84 106.56 136.6 106.51 133.01 106.57 129.42 106.59 125.83 106.49 122.24 106.46 118.64 106.55 115.05 103.44 111.81 99.98 112.02 96.51 112 93.05 111.97 89.58 111.83 86.11 111.86 82.65 111.96 79.17 111.95 75.7 111.94 72.52 115.05 72.61 118.64 72.49 122.22 72.63 125.81 72.55 129.4 72.69 133 72.69 136.6 75.7 139.73"/><polygon class="cls-2" points="158.41 144.09 156.75 143.86 155.16 143.35 153.74 142.46 152.53 141.28 151.66 139.85 151.04 138.28 150.91 136.6 150.88 134.35 149.7 132.87 148.56 131.33 147.35 129.85 146.15 128.35 145.07 126.75 143.84 125.3 145.01 123.8 146.13 122.24 147.34 120.76 148.62 119.33 149.71 117.74 150.9 116.24 150.87 115.05 151.05 113.27 151.6 111.57 152.48 110.01 153.67 108.69 155 107.5 156.65 106.81 158.41 106.58 160.14 106.55 161.87 106.62 163.61 106.65 165.34 106.5 167.07 106.53 168.8 106.49 170.53 106.66 172.27 106.5 174 106.61 175.74 106.6 177.48 106.56 179.22 106.66 180.96 106.61 182.62 106.76 184.19 107.34 185.64 108.18 186.81 109.38 187.72 110.79 188.21 112.39 188.38 114.05 188.37 115.78 188.43 117.51 188.4 119.25 188.37 120.98 188.36 122.71 188.49 124.45 188.39 126.18 188.37 127.91 188.41 129.65 188.37 131.38 188.43 133.12 188.47 134.86 188.4 136.6 188.3 138.28 187.63 139.81 186.74 141.21 185.62 142.44 184.21 143.36 182.6 143.81 180.96 144.14 179.22 144.02 177.49 144.01 175.76 144.11 174.02 144.08 172.29 144.16 170.56 143.99 168.83 144.07 167.09 143.99 165.36 143.99 163.62 144.06 161.89 144.12 160.15 144.08 158.41 144.09"/><polygon class="cls-2" points="180.96 141.08 179.77 141.04 178.59 141.06 177.4 141.1 176.22 140.97 175.03 141 173.84 141.1 172.66 141 171.47 141.06 170.29 140.97 169.1 141.17 167.92 141.15 166.73 141.18 165.54 141.14 164.36 141.13 163.17 141.03 161.98 141.16 160.79 141.04 159.6 141.08 158.41 141.07 157.24 140.93 156.21 140.4 155.31 139.7 154.58 138.81 154.11 137.75 154 136.6 154 135.5 153.94 134.4 153.83 133.34 153.15 132.29 152.37 131.29 151.53 130.33 150.78 129.31 149.99 128.31 149.17 127.34 148.44 126.29 147.74 125.3 148.45 124.32 149.21 123.3 150.08 122.36 150.81 121.33 151.49 120.25 152.32 119.28 153.1 118.27 153.92 117.29 153.97 116.17 153.84 115.05 154 113.75 154.6 112.6 155.24 111.49 156.1 110.55 157.19 109.93 158.41 109.59 159.59 109.58 160.78 109.47 161.96 109.67 163.15 109.58 164.33 109.5 165.52 109.58 166.71 109.51 167.89 109.58 169.07 109.63 170.26 109.46 171.44 109.66 172.63 109.63 173.82 109.58 175.01 109.64 176.19 109.53 177.38 109.56 178.57 109.62 179.76 109.56 180.96 109.61 182.12 109.7 183.21 110.15 184.16 110.85 184.84 111.81 185.37 112.86 185.45 114.05 185.5 115.23 185.51 116.42 185.44 117.6 185.49 118.79 185.51 119.98 185.33 121.16 185.41 122.35 185.42 123.53 185.52 124.72 185.48 125.9 185.33 127.09 185.48 128.27 185.48 129.46 185.5 130.65 185.54 131.84 185.53 133.03 185.5 134.22 185.4 135.41 185.52 136.6 185.31 137.77 184.82 138.83 184.14 139.78 183.16 140.43 182.09 140.82 180.96 141.08"/><polygon class="cls-4" points="174.96 123.5 172.81 123.48 170.61 123.52 171.33 121.68 172.05 119.88 172.78 118.08 173.52 116.31 172.32 117.64 171.13 118.99 169.91 120.33 168.72 121.71 167.5 123.04 166.33 124.42 165.11 125.77 163.89 127.09 166.04 127.15 168.17 127.13 167.5 128.9 166.76 130.69 165.99 132.48 165.31 134.31 166.56 132.98 167.7 131.57 168.92 130.24 170.13 128.89 171.35 127.56 172.55 126.19 173.75 124.83 174.96 123.5"/><polygon class="cls-3" points="180.96 141.09 177.2 141.03 173.44 141.06 169.69 141.11 165.93 140.94 162.17 140.98 158.41 141.11 155.31 139.7 153.95 136.6 154.06 133.25 151.74 130.71 149.66 128.02 147.49 125.3 149.67 122.58 151.78 119.92 153.99 117.32 153.82 115.05 155.22 111.48 158.41 109.56 162.16 109.58 165.92 109.56 169.67 109.69 173.43 109.7 177.19 109.65 180.96 109.62 184.05 110.95 185.34 114.05 185.42 117.81 185.58 121.56 185.43 125.32 185.41 129.07 185.5 132.84 185.44 136.6 184.13 139.78 180.96 141.09"/><polygon class="cls-2" points="139.79 103.51 137.85 103.7 135.9 103.77 134.26 103.65 132.63 103.6 130.74 103.59 128.85 103.65 127.13 103.64 125.4 103.54 123.5 103.55 121.61 103.63 119.84 103.64 118.08 103.5 116.44 104.53 114.75 105.48 113.06 106.44 111.38 107.48 111.34 105.66 111.34 103.89 111.41 102.11 111.34 100.34 111.36 98.56 111.41 96.79 111.38 95.01 111.42 93.24 111.33 91.46 111.46 89.68 111.43 87.91 111.43 86.13 111.34 84.35 111.41 82.57 111.42 80.8 111.4 79.02 111.34 77.24 111.4 75.47 111.41 73.69 111.36 71.91 111.38 70.13 111.47 68.34 111.43 66.59 113.24 66.62 115.08 66.59 116.93 66.48 118.77 66.54 120.61 66.63 122.46 66.56 124.3 66.5 126.15 66.55 128 66.5 129.84 66.48 131.68 66.55 133.53 66.49 135.37 66.53 137.22 66.5 139.06 66.5 140.91 66.53 142.76 66.49 144.61 66.56 146.43 66.6 146.45 68.36 146.53 70.16 146.44 71.97 146.39 73.77 146.45 75.58 146.39 77.38 146.4 79.19 146.47 81 146.39 82.8 146.52 84.61 146.53 86.42 146.49 88.22 146.5 90.03 146.53 91.84 146.43 93.64 146.44 95.45 146.38 97.26 146.49 99.07 146.45 100.88 146.39 102.69 146.46 104.5 144.81 104.21 143.13 104.02 141.47 103.74 139.79 103.51"/><polygon class="cls-2" points="143.47 69.56 143.47 102.21 139.83 100.03 136.02 102.21 132.75 100.03 128.93 102.21 125.48 100.03 121.66 102.21 118.13 100.03 114.4 102.21 114.4 69.56 143.47 69.56"/><polygon class="cls-3" points="143.47 69.55 143.46 73.18 143.47 76.81 143.57 80.44 143.55 84.06 143.51 87.69 143.45 91.32 143.39 94.94 143.52 98.58 143.46 102.2 139.83 99.96 136.02 102.33 132.75 100.04 128.93 102.16 125.48 99.92 121.66 102.25 118.13 100.01 114.39 102.24 114.37 98.58 114.48 94.96 114.39 91.33 114.42 87.7 114.29 84.08 114.5 80.45 114.27 76.82 114.32 73.19 114.34 69.5 118.03 69.67 121.66 69.6 125.29 69.67 128.93 69.45 132.56 69.63 136.19 69.44 139.83 69.58 143.47 69.55"/><polyline class="cls-5" points="118.13 76.83 119.87 76.76 121.61 76.83 123.35 76.77 125.08 76.84 126.82 76.79 128.56 76.78 130.3 76.78 132.04 76.79 133.78 76.78 135.52 76.83 137.27 76.8 139.01 76.8"/><polyline class="cls-5" points="118.13 84.03 119.87 84.03 121.61 84.03 123.35 84.1 125.08 84.09 126.82 84.1 128.56 84.03 130.3 84.03 132.04 84.09 133.78 84.06 135.52 84.09 137.27 84.09 139.01 84.09"/><polyline class="cls-5" points="118.13 91.35 119.87 91.33 121.61 91.33 123.35 91.3 125.08 91.33 126.82 91.33 128.56 91.32 130.3 91.29 132.04 91.3 133.78 91.32 135.52 91.34 137.27 91.35 139.01 91.29"/><polygon class="cls-2" points="138.04 141.79 137.15 142.07 135.8 143.33 134.44 144.59 133.08 145.83 131.71 147.07 130.33 148.32 128.98 149.57 127.12 149.61 125.27 149.61 123.42 149.61 121.56 149.56 119.7 149.57 117.84 149.61 115.99 149.55 114.13 149.57 112.26 149.54 110.4 149.56 108.84 149.92 107.47 150.76 106.6 152.11 106.3 153.69 106.29 155.41 106.33 157.12 106.26 158.84 106.28 160.56 106.32 162.28 106.34 164 106.3 165.72 106.3 167.44 106.33 169.16 106.34 170.89 106.29 172.62 106.58 174.2 107.47 175.54 108.84 176.37 110.4 176.74 112.22 176.75 114.04 176.72 115.86 176.75 117.68 176.7 119.5 176.72 121.32 176.76 123.14 176.72 124.96 176.72 126.79 176.7 128.61 176.68 130.43 176.73 132.25 176.73 134.07 176.72 135.89 176.73 137.72 176.76 139.54 176.71 141.37 176.68 143.2 176.71 145.03 176.7 146.6 176.41 147.93 175.52 148.84 174.2 149.13 172.62 149.15 170.9 149.16 169.18 149.17 167.46 149.13 165.74 149.16 164.02 149.12 162.3 149.16 160.58 149.1 158.86 149.12 157.14 149.14 155.41 149.15 153.69 148.82 152.11 147.9 150.81 146.6 149.88 145.03 149.56 143.22 149.62 141.42 149.55 139.59 149.61 139.65 147.52 139.63 145.46 139.63 143.39 138.04 141.79"/><polygon class="cls-2" points="110.4 178.43 108.6 178.15 106.96 177.35 105.71 176.02 104.87 174.41 104.59 172.62 104.53 170.9 104.52 169.18 104.52 167.46 104.51 165.74 104.53 164.02 104.59 162.3 104.6 160.58 104.56 158.86 104.6 157.14 104.54 155.41 104.52 153.69 104.84 151.88 105.64 150.23 106.95 148.93 108.6 148.14 110.4 147.86 112.2 147.85 114 147.82 115.81 147.88 117.61 147.88 119.41 147.87 121.22 147.87 123.02 147.85 124.83 147.88 126.64 147.88 128.46 147.86 129.72 146.62 131.06 145.48 132.32 144.26 133.6 143.05 134.91 141.85 136.19 140.65 138.04 140.1 139.7 140.52 140.93 141.73 141.34 143.39 141.32 145.62 141.35 147.85 143.19 147.88 145.03 147.87 146.84 148.12 148.48 148.93 149.78 150.23 150.59 151.88 150.91 153.69 150.85 155.41 150.91 157.12 150.88 158.84 150.9 160.56 150.86 162.28 150.84 164 150.89 165.72 150.9 167.44 150.85 169.16 150.84 170.89 150.88 172.62 150.6 174.43 149.75 176.05 148.48 177.37 146.84 178.21 145.03 178.48 143.21 178.45 141.38 178.46 139.56 178.46 137.75 178.49 135.92 178.45 134.1 178.42 132.28 178.49 130.46 178.5 128.64 178.45 126.81 178.43 125 178.43 123.17 178.45 121.35 178.48 119.53 178.47 117.71 178.46 115.88 178.41 114.06 178.43 112.23 178.43 110.4 178.43"/><polygon class="cls-2" points="145.03 175.81 143.21 175.73 141.38 175.76 139.56 175.74 137.75 175.74 135.92 175.78 134.1 175.8 132.28 175.76 130.46 175.78 128.64 175.79 126.81 175.8 125 175.73 123.17 175.8 121.35 175.8 119.53 175.79 117.71 175.8 115.88 175.76 114.06 175.75 112.23 175.8 110.4 175.77 108.8 175.38 107.69 174.18 107.25 172.62 107.25 170.9 107.27 169.18 107.25 167.46 107.21 165.74 107.21 164.02 107.25 162.3 107.21 160.58 107.28 158.86 107.28 157.14 107.27 155.41 107.24 153.69 107.64 152.09 108.84 150.98 110.4 150.53 112.28 150.51 114.17 150.56 116.06 150.52 117.94 150.51 119.82 150.57 121.71 150.49 123.59 150.56 125.48 150.53 127.38 150.51 129.28 150.56 130.69 149.28 132.08 147.98 133.47 146.7 134.88 145.44 136.28 144.15 137.69 142.87 138.65 143.39 138.64 145.17 138.64 146.96 138.65 148.74 138.65 150.55 140.26 150.54 141.84 150.5 143.44 150.52 145.03 150.57 146.59 150.97 147.73 152.12 148.17 153.69 148.18 155.41 148.21 157.12 148.18 158.84 148.21 160.56 148.22 162.28 148.22 164 148.21 165.72 148.19 167.44 148.16 169.16 148.21 170.89 148.18 172.62 147.77 174.2 146.6 175.34 145.03 175.81"/><polygon class="cls-3" points="145.03 175.71 141.57 175.66 138.11 175.74 134.64 175.67 131.18 175.84 127.72 175.66 124.26 175.65 120.8 175.88 117.34 175.87 113.87 175.7 110.4 175.86 107.25 172.62 107.22 168.83 107.16 165.05 107.19 161.26 107.15 157.47 107.34 153.69 110.4 150.42 114.17 150.49 117.94 150.48 121.71 150.42 125.49 150.47 129.26 150.5 132.09 148 134.84 145.38 137.65 142.82 138.65 143.39 138.68 146.96 138.76 150.46 141.85 150.59 145.03 150.49 148.16 153.69 148.21 157.47 148.25 161.25 148.07 165.03 148.21 168.82 148.22 172.62 145.03 175.71"/><polyline class="cls-5" points="113.47 156.87 115.24 156.9 117.01 156.89 118.78 156.86 120.55 156.85 122.32 156.87 124.09 156.9 125.86 156.88 127.63 156.86 129.4 156.86 131.17 156.87 132.94 156.89 134.71 156.85 136.48 156.9 138.26 156.89 140.03 156.86 141.81 156.9"/><polyline class="cls-5" points="113.47 162.41 115.24 162.41 117.01 162.37 118.78 162.4 120.55 162.38 122.32 162.38 124.09 162.39 125.86 162.39 127.63 162.39 129.4 162.41 131.17 162.37 132.94 162.39 134.71 162.36 136.48 162.4 138.26 162.39 140.03 162.37 141.81 162.41"/><polyline class="cls-5" points="113.47 167.91 115.19 167.89 116.91 167.88 118.63 167.91 120.35 167.9 122.06 167.9 123.79 167.9 125.51 167.88 127.23 167.9 128.95 167.91 130.68 167.88 132.41 167.89"/><polyline class="cls-5" points="80.64 125.82 82.5 125.86 84.36 125.84 86.23 125.82 88.09 125.82 89.95 125.82 91.82 125.83 93.69 125.8 95.56 125.84 97.43 125.84 99.3 125.82"/><rect class="cls-6" x="119.79" y="118.48" width="14.7" height="14.7" transform="translate(126.21 -53.04) rotate(45)"/></g></svg>
