<svg xmlns="http://www.w3.org/2000/svg" viewBox="0 0 250 250"><defs><style>.cls-1{fill:#f8f8f8;}.cls-2{fill:#fff;}.cls-3,.cls-6{fill:none;stroke:#3e82f7;stroke-miterlimit:10;}.cls-3{stroke-width:3px;}.cls-4{fill:#fadc2d;}.cls-5{fill:#ff852d;}.cls-6{stroke-width:2px;}.cls-7{fill:#3e82f7;}</style></defs><title>icon-custom-custom</title><g id="Base_Dots" data-name="Base Dots"><circle class="cls-1" cx="125" cy="125" r="100"/></g><g id="Artwork"><polygon class="cls-2" points="100.15 220.38 98.35 220.4 96.54 220.3 94.74 220.16 92.93 220.11 91.15 219.74 89.36 219.54 87.59 219.18 85.8 218.9 84.06 218.41 82.25 218.19 80.54 217.59 78.78 217.16 77.1 216.48 75.34 216.02 73.75 215.12 72.1 214.41 70.37 213.85 68.79 212.96 67.21 212.07 65.56 211.33 63.99 210.44 62.51 209.38 60.93 208.5 59.46 207.44 58.12 206.22 56.68 205.13 55.27 204.01 53.79 202.95 52.47 201.72 51.23 200.4 49.92 199.16 48.75 197.78 47.36 196.6 46.24 195.18 45.15 193.73 43.93 192.39 42.97 190.85 42.02 189.31 40.9 187.89 39.86 186.4 39.01 184.8 38.08 183.25 37.31 181.61 36.61 179.94 35.92 178.27 35.08 176.66 34.44 174.97 33.91 173.24 33.28 171.55 32.85 169.79 32.16 168.11 31.91 166.31 31.34 164.58 31.07 162.79 30.75 161.01 30.52 159.22 30.38 157.42 30.26 155.62 30.1 153.82 29.88 152.01 30.07 150.2 29.84 148.39 30.06 146.59 30.17 144.79 30.4 142.99 30.53 141.19 30.77 139.4 31.05 137.61 31.29 135.81 31.95 134.11 32.31 132.34 32.62 130.55 33.39 128.89 33.73 127.1 34.34 125.39 35.25 123.81 35.7 122.04 36.63 120.47 37.44 118.86 38.25 117.25 39.15 115.68 40.07 114.13 40.88 112.5 41.93 111.03 42.91 109.51 44.08 108.12 45.17 106.69 46.19 105.18 47.4 103.84 48.76 102.63 49.87 101.19 51.25 100.02 52.55 98.77 53.8 97.46 55.2 96.31 56.6 95.17 57.99 94.01 59.48 92.99 61.01 92.01 62.46 90.93 64.06 90.09 65.55 89.04 67.21 88.32 68.77 87.41 70.4 86.61 72.08 85.94 73.72 85.19 75.39 84.5 77.07 83.84 78.76 83.19 80.51 82.72 82.24 82.17 84 81.74 85.81 81.57 87.55 81.04 89.34 80.79 91.13 80.46 92.93 80.35 94.73 80.14 96.54 80.14 98.35 80.09 100.15 79.89 101.96 80.05 103.76 80.19 105.57 80.23 107.37 80.41 109.18 80.48 110.98 80.7 112.74 81.14 114.53 81.42 116.28 81.89 118.03 82.31 119.8 82.71 121.53 83.25 123.26 83.77 124.94 84.45 126.6 85.18 128.28 85.84 129.88 86.69 131.5 87.49 133.12 88.29 134.76 89.06 136.31 89.99 137.75 91.1 139.37 91.92 140.75 93.11 142.24 94.13 143.64 95.26 145.05 96.39 146.41 97.58 147.79 98.74 149.13 99.95 150.42 101.22 151.75 102.45 152.94 103.82 154.1 105.21 155.17 106.67 156.33 108.06 157.24 109.63 158.37 111.04 159.29 112.6 160.4 114.03 161.22 115.65 162.14 117.21 162.94 118.83 163.82 120.41 164.56 122.06 165.22 123.75 165.96 125.4 166.58 127.1 167.1 128.84 167.59 130.58 167.97 132.35 168.61 134.05 168.97 135.83 169.37 137.59 169.42 139.42 169.87 141.18 169.89 143 170.24 144.78 170.28 146.59 170.23 148.4 170.5 150.2 170.42 152.01 170.15 153.81 170.2 155.63 169.9 157.41 169.75 159.21 169.46 161 169.1 162.77 168.8 164.55 168.49 166.33 167.99 168.07 167.69 169.86 167.16 171.6 166.37 173.24 165.86 174.97 165.25 176.68 164.44 178.3 163.63 179.91 163.02 181.63 162.02 183.14 161.16 184.73 160.39 186.37 159.47 187.94 158.46 189.44 157.39 190.9 156.26 192.31 155.19 193.76 154.06 195.17 152.91 196.57 151.75 197.96 150.37 199.14 149.16 200.49 147.76 201.64 146.49 202.94 145.04 204.01 143.72 205.26 142.31 206.39 140.84 207.45 139.26 208.34 137.8 209.4 136.24 210.31 134.73 211.31 133.1 212.1 131.52 212.96 129.94 213.86 128.27 214.54 126.58 215.2 124.94 215.96 123.25 216.62 121.54 217.21 119.79 217.68 118.03 218.07 116.31 218.65 114.5 218.85 112.74 219.25 110.95 219.51 109.16 219.76 107.38 220.09 105.57 220.13 103.77 220.37 101.96 220.29 100.15 220.38"/><polygon class="cls-2" points="167.7 150.21 167.72 152 167.79 153.81 167.49 155.59 167.46 157.4 167.25 159.19 167.01 160.98 166.73 162.76 166.33 164.52 165.87 166.26 165.42 168.01 164.84 169.72 164.39 171.46 163.94 173.21 163.18 174.85 162.42 176.49 161.88 178.22 161.06 179.82 160.26 181.44 159.34 182.99 158.52 184.6 157.43 186.04 156.57 187.63 155.49 189.08 154.44 190.54 153.43 192.03 152.28 193.43 151.15 194.83 149.85 196.09 148.67 197.45 147.38 198.71 146.1 199.98 144.77 201.2 143.37 202.34 141.91 203.4 140.53 204.55 138.98 205.48 137.49 206.5 135.99 207.49 134.53 208.56 133 209.51 131.32 210.19 129.79 211.15 128.09 211.78 126.43 212.47 124.76 213.15 123.08 213.78 121.42 214.48 119.69 214.99 117.96 215.5 116.21 215.91 114.47 216.37 112.69 216.69 110.93 217.06 109.13 217.2 107.36 217.57 105.56 217.74 103.76 217.78 101.95 217.75 100.15 217.95 98.36 217.72 96.56 217.72 94.76 217.56 92.97 217.41 91.18 217.19 89.4 216.96 87.64 216.58 85.83 216.42 84.09 215.93 82.36 215.44 80.64 214.92 78.87 214.54 77.16 213.96 75.52 213.21 73.85 212.52 72.22 211.76 70.56 211.05 68.93 210.28 67.31 209.5 65.73 208.62 64.26 207.57 62.75 206.58 61.2 205.65 59.82 204.49 58.33 203.47 56.91 202.36 55.51 201.22 54.33 199.84 53.04 198.59 51.62 197.46 50.34 196.19 49.25 194.74 48.16 193.31 46.87 192.03 45.91 190.5 44.88 189.02 43.86 187.54 42.79 186.09 41.74 184.62 40.99 182.97 40.02 181.45 39.28 179.8 38.62 178.13 37.85 176.5 37.01 174.9 36.36 173.21 35.96 171.44 35.29 169.76 34.81 168.03 34.47 166.25 33.9 164.54 33.68 162.74 33.32 160.97 33.11 159.19 32.75 157.41 32.65 155.61 32.57 153.81 32.53 152.01 32.62 150.21 32.5 148.4 32.56 146.6 32.68 144.8 32.87 143.01 33.21 141.24 33.21 139.42 33.74 137.68 34.13 135.92 34.5 134.16 34.89 132.4 35.34 130.66 35.93 128.96 36.52 127.25 37.04 125.52 37.84 123.9 38.42 122.19 39.25 120.59 40.03 118.96 40.88 117.37 41.74 115.78 42.74 114.28 43.7 112.75 44.81 111.33 45.75 109.78 46.93 108.42 48.16 107.09 49.13 105.55 50.44 104.31 51.66 102.98 53.02 101.79 54.21 100.43 55.66 99.35 57.04 98.2 58.29 96.88 59.79 95.87 61.3 94.88 62.68 93.7 64.2 92.74 65.76 91.83 67.31 90.91 68.89 90.04 70.61 89.45 72.19 88.56 73.81 87.79 75.48 87.09 77.2 86.56 78.9 85.96 80.64 85.49 82.37 85.01 84.07 84.39 85.85 84.05 87.63 83.81 89.37 83.28 91.16 83.04 92.96 82.94 94.76 82.82 96.55 82.66 98.35 82.63 100.15 82.47 101.96 82.56 103.76 82.5 105.55 82.81 107.34 83 109.15 83.05 110.9 83.51 112.7 83.67 114.45 84.12 116.25 84.35 117.98 84.87 119.68 85.47 121.4 85.98 123.11 86.55 124.79 87.21 126.5 87.78 128.1 88.63 129.77 89.31 131.38 90.11 132.89 91.12 134.45 92.01 136 92.92 137.54 93.86 139.02 94.88 140.51 95.89 141.93 97 143.32 98.15 144.72 99.27 145.99 100.56 147.27 101.82 148.7 102.94 149.85 104.33 151.14 105.59 152.18 107.08 153.49 108.34 154.58 109.77 155.51 111.33 156.44 112.87 157.51 114.32 158.52 115.82 159.47 117.35 160.16 119.03 161.02 120.61 161.85 122.21 162.57 123.86 163.08 125.6 163.89 127.22 164.34 128.97 164.92 130.68 165.54 132.37 166.03 134.11 166.28 135.9 166.63 137.67 167.04 139.43 167.21 141.22 167.46 143.01 167.72 144.79 167.81 146.6 167.9 148.4 167.7 150.21"/><polygon class="cls-2" points="172.01 154.43 172.11 156.24 171.86 158.03 171.97 159.84 171.8 161.64 171.44 163.41 171.07 165.18 170.88 166.97 170.6 168.76 170.26 170.53 169.63 172.23 169.18 173.97 168.71 175.72 168.12 177.42 167.31 179.04 166.8 180.78 165.94 182.37 165.22 184.02 164.52 185.68 163.7 187.29 162.66 188.78 161.72 190.31 160.83 191.88 159.75 193.32 158.72 194.8 157.69 196.29 156.54 197.68 155.38 199.06 154.18 200.41 152.9 201.68 151.67 203 150.36 204.24 148.93 205.35 147.52 206.47 146.22 207.72 144.75 208.78 143.32 209.88 141.79 210.83 140.29 211.84 138.77 212.79 137.19 213.67 135.62 214.56 133.97 215.29 132.39 216.16 130.72 216.85 129 217.39 127.37 218.18 125.61 218.61 123.96 219.35 122.17 219.66 120.43 220.1 118.71 220.68 116.94 221.01 115.14 221.16 113.37 221.54 111.57 221.66 109.79 221.97 107.99 222.07 106.19 222.05 104.38 222.09 102.58 222.03 100.78 221.96 98.99 221.85 97.19 221.72 95.4 221.54 93.6 221.32 91.82 221.04 90.05 220.7 88.31 220.21 86.56 219.78 84.8 219.36 83.09 218.78 81.43 218.08 79.73 217.48 78.07 216.78 76.43 216.03 74.75 215.36 73.22 214.41 71.61 213.6 70.08 212.65 68.5 211.78 67.04 210.72 65.43 209.88 64.04 208.73 62.55 207.71 61.22 206.5 59.74 205.45 58.56 204.06 57.27 202.82 55.85 201.69 54.69 200.3 53.53 198.93 52.25 197.65 51.1 196.26 50.1 194.76 48.94 193.37 47.95 191.87 47.12 190.26 46.18 188.73 45.27 187.18 44.28 185.66 43.49 184.04 42.82 182.37 42.05 180.74 41.47 179.03 40.61 177.43 40.09 175.7 39.61 173.97 38.98 172.27 38.66 170.49 38.34 168.72 37.84 166.98 37.44 165.22 37.25 163.43 36.97 161.64 36.88 159.84 36.85 158.03 36.84 156.23 36.68 154.43 36.72 152.63 36.89 150.84 36.94 149.03 37.21 147.25 37.21 145.44 37.66 143.68 37.8 141.88 38.23 140.12 38.61 138.36 39.08 136.62 39.64 134.91 40.22 133.2 40.76 131.49 41.26 129.75 42.14 128.16 42.63 126.41 43.53 124.84 44.34 123.23 45.25 121.67 46.08 120.08 47.01 118.53 47.97 117.01 48.9 115.46 50.17 114.15 51.2 112.68 52.2 111.17 53.55 109.95 54.59 108.46 55.81 107.14 57.27 106.05 58.4 104.61 59.87 103.56 61.25 102.4 62.63 101.25 64.08 100.18 65.55 99.14 66.94 97.98 68.5 97.07 70 96.08 71.62 95.28 73.2 94.42 74.74 93.48 76.39 92.74 78.12 92.19 79.72 91.36 81.45 90.85 83.15 90.25 84.83 89.59 86.57 89.12 88.32 88.68 90.06 88.22 91.84 87.91 93.62 87.66 95.39 87.3 97.19 87.21 98.98 86.9 100.78 86.94 102.58 86.79 104.38 86.76 106.18 86.86 107.98 86.89 109.78 86.97 111.58 87.09 113.39 87.22 115.16 87.55 116.95 87.8 118.72 88.16 120.43 88.78 122.22 89.05 123.94 89.6 125.68 90.07 127.36 90.74 129.06 91.33 130.69 92.11 132.33 92.86 134.03 93.47 135.58 94.4 137.13 95.32 138.73 96.14 140.26 97.1 141.85 97.96 143.36 98.95 144.74 100.12 146.21 101.17 147.56 102.36 148.94 103.51 150.34 104.66 151.64 105.91 152.96 107.14 154.15 108.49 155.3 109.89 156.51 111.23 157.56 112.69 158.64 114.13 159.72 115.57 160.83 116.99 161.79 118.52 162.58 120.14 163.64 121.61 164.33 123.28 165.19 124.87 165.93 126.51 166.66 128.15 167.32 129.83 168.01 131.49 168.65 133.18 169.2 134.89 169.8 136.59 170.22 138.35 170.61 140.11 170.88 141.89 171.25 143.66 171.32 145.47 171.66 147.24 171.74 149.04 172.03 150.83 172 152.63 172.01 154.43"/><polygon class="cls-3" points="167.7 150.21 167.72 152 167.79 153.81 167.49 155.59 167.46 157.4 167.25 159.19 167.01 160.98 166.73 162.76 166.33 164.52 165.87 166.26 165.42 168.01 164.84 169.72 164.39 171.46 163.94 173.21 163.18 174.85 162.42 176.49 161.88 178.22 161.06 179.82 160.26 181.44 159.34 182.99 158.52 184.6 157.43 186.04 156.57 187.63 155.49 189.08 154.44 190.54 153.43 192.03 152.28 193.43 151.15 194.83 149.85 196.09 148.67 197.45 147.38 198.71 146.1 199.98 144.77 201.2 143.37 202.34 141.91 203.4 140.53 204.55 138.98 205.48 137.49 206.5 135.99 207.49 134.53 208.56 133 209.51 131.32 210.19 129.79 211.15 128.09 211.78 126.43 212.47 124.76 213.15 123.08 213.78 121.42 214.48 119.69 214.99 117.96 215.5 116.21 215.91 114.47 216.37 112.69 216.69 110.93 217.06 109.13 217.2 107.36 217.57 105.56 217.74 103.76 217.78 101.95 217.75 100.15 217.95 98.36 217.72 96.56 217.72 94.76 217.56 92.97 217.41 91.18 217.19 89.4 216.96 87.64 216.58 85.83 216.42 84.09 215.93 82.36 215.44 80.64 214.92 78.87 214.54 77.16 213.96 75.52 213.21 73.85 212.52 72.22 211.76 70.56 211.05 68.93 210.28 67.31 209.5 65.73 208.62 64.26 207.57 62.75 206.58 61.2 205.65 59.82 204.49 58.33 203.47 56.91 202.36 55.51 201.22 54.33 199.84 53.04 198.59 51.62 197.46 50.34 196.19 49.25 194.74 48.16 193.31 46.87 192.03 45.91 190.5 44.88 189.02 43.86 187.54 42.79 186.09 41.74 184.62 40.99 182.97 40.02 181.45 39.28 179.8 38.62 178.13 37.85 176.5 37.01 174.9 36.36 173.21 35.96 171.44 35.29 169.76 34.81 168.03 34.47 166.25 33.9 164.54 33.68 162.74 33.32 160.97 33.11 159.19 32.75 157.41 32.65 155.61 32.57 153.81 32.53 152.01 32.62 150.21 32.5 148.4 32.56 146.6 32.68 144.8 32.87 143.01 33.21 141.24 33.21 139.42 33.74 137.68 34.13 135.92 34.5 134.16 34.89 132.4 35.34 130.66 35.93 128.96 36.52 127.25 37.04 125.52 37.84 123.9 38.42 122.19 39.25 120.59 40.03 118.96 40.88 117.37 41.74 115.78 42.74 114.28 43.7 112.75 44.81 111.33 45.75 109.78 46.93 108.42 48.16 107.09 49.13 105.55 50.44 104.31 51.66 102.98 53.02 101.79 54.21 100.43 55.66 99.35 57.04 98.2 58.29 96.88 59.79 95.87 61.3 94.88 62.68 93.7 64.2 92.74 65.76 91.83 67.31 90.91 68.89 90.04 70.61 89.45 72.19 88.56 73.81 87.79 75.48 87.09 77.2 86.56 78.9 85.96 80.64 85.49 82.37 85.01 84.07 84.39 85.85 84.05 87.63 83.81 89.37 83.28 91.16 83.04 92.96 82.94 94.76 82.82 96.55 82.66 98.35 82.63 100.15 82.47 101.96 82.56 103.76 82.5 105.55 82.81 107.34 83 109.15 83.05 110.9 83.51 112.7 83.67 114.45 84.12 116.25 84.35 117.98 84.87 119.68 85.47 121.4 85.98 123.11 86.55 124.79 87.21 126.5 87.78 128.1 88.63 129.77 89.31 131.38 90.11 132.89 91.12 134.45 92.01 136 92.92 137.54 93.86 139.02 94.88 140.51 95.89 141.93 97 143.32 98.15 144.72 99.27 145.99 100.56 147.27 101.82 148.7 102.94 149.85 104.33 151.14 105.59 152.18 107.08 153.49 108.34 154.58 109.77 155.51 111.33 156.44 112.87 157.51 114.32 158.52 115.82 159.47 117.35 160.16 119.03 161.02 120.61 161.85 122.21 162.57 123.86 163.08 125.6 163.89 127.22 164.34 128.97 164.92 130.68 165.54 132.37 166.03 134.11 166.28 135.9 166.63 137.67 167.04 139.43 167.21 141.22 167.46 143.01 167.72 144.79 167.81 146.6 167.9 148.4 167.7 150.21"/><line class="cls-3" x1="100.15" y1="91" x2="100.15" y2="99.47"/><line class="cls-3" x1="100.15" y1="200.94" x2="100.15" y2="209.41"/><line class="cls-3" x1="70.55" y1="98.93" x2="74.79" y2="106.27"/><line class="cls-3" x1="125.52" y1="194.14" x2="129.76" y2="201.48"/><line class="cls-3" x1="48.88" y1="120.6" x2="56.22" y2="124.84"/><line class="cls-3" x1="144.09" y1="175.57" x2="151.43" y2="179.81"/><line class="cls-3" x1="40.95" y1="150.2" x2="49.42" y2="150.2"/><line class="cls-3" x1="150.89" y1="150.2" x2="159.36" y2="150.2"/><line class="cls-3" x1="48.88" y1="179.81" x2="56.22" y2="175.57"/><line class="cls-3" x1="144.09" y1="124.84" x2="151.43" y2="120.6"/><line class="cls-3" x1="70.55" y1="201.48" x2="74.79" y2="194.14"/><line class="cls-3" x1="125.52" y1="106.27" x2="129.76" y2="98.93"/><polygon class="cls-2" points="199.13 163.1 197.33 162.94 195.53 162.94 193.77 162.46 191.98 162.3 190.19 162.05 188.52 161.33 186.74 161.01 185.11 160.21 183.47 159.48 181.79 158.84 180.25 157.89 178.68 157.02 177.22 155.97 175.86 154.78 174.31 153.84 173.11 152.49 171.84 151.21 170.65 149.88 169.41 148.56 168.46 147.03 167.46 145.55 166.53 144.02 165.66 142.45 164.67 140.93 164.18 139.19 163.47 137.54 162.94 135.82 162.43 134.1 162.16 132.33 161.66 130.59 161.6 128.78 161.3 127 161.41 125.2 161.3 123.4 161.61 121.62 161.66 119.81 162 118.05 162.37 116.28 162.99 114.59 163.35 112.82 164.11 111.18 164.83 109.54 165.45 107.84 166.48 106.35 167.45 104.84 168.3 103.24 169.4 101.82 170.49 100.38 171.8 99.14 173.01 97.8 174.4 96.66 175.73 95.44 177.19 94.39 178.74 93.46 180.25 92.49 181.76 91.51 183.4 90.76 185.12 90.19 186.74 89.4 188.46 88.86 190.21 88.42 191.98 88.09 193.76 87.88 195.55 87.73 197.33 87.43 199.13 87.56 200.92 87.51 202.73 87.47 204.51 87.76 206.26 88.18 208.03 88.52 209.75 89.01 211.47 89.55 213.19 90.09 214.81 90.87 216.4 91.69 217.94 92.61 219.54 93.44 221.12 94.32 222.55 95.42 223.86 96.66 225.23 97.82 226.48 99.13 227.65 100.49 228.75 101.91 229.82 103.35 230.92 104.77 231.87 106.3 232.78 107.85 233.59 109.46 234.16 111.18 234.95 112.8 235.47 114.53 235.96 116.27 236.14 118.07 236.49 119.83 236.66 121.61 237 123.39 236.88 125.2 236.8 127 236.74 128.79 236.61 130.59 236.27 132.36 235.99 134.14 235.34 135.83 234.72 137.52 234.2 139.24 233.61 140.95 232.6 142.45 231.85 144.09 230.91 145.63 230.01 147.2 228.71 148.46 227.65 149.91 226.41 151.22 225.18 152.52 223.81 153.69 222.52 154.95 220.95 155.86 219.55 156.98 218.02 157.93 216.5 158.91 214.81 159.53 213.2 160.35 211.51 160.99 209.74 161.34 208.01 161.81 206.28 162.32 204.51 162.66 202.71 162.66 200.92 162.88 199.13 163.1"/><polygon class="cls-4" points="233.99 125.2 233.97 123.37 233.72 121.56 233.5 119.75 233.16 117.97 232.76 116.19 232.22 114.44 231.7 112.69 231.03 110.99 230.19 109.37 229.18 107.85 228.3 106.25 227.16 104.83 226.11 103.34 225.06 101.85 223.66 100.67 222.44 99.31 220.95 98.25 219.55 97.09 218.08 96.01 216.51 95.09 214.92 94.21 213.27 93.44 211.63 92.64 209.87 92.15 208.17 91.47 206.38 91.11 204.56 90.93 202.78 90.51 200.95 90.42 199.13 90.51 197.31 90.57 195.48 90.47 193.66 90.71 191.87 91.04 190.12 91.59 188.37 92.08 186.7 92.83 184.96 93.39 183.27 94.09 181.75 95.11 180.16 96 178.75 97.16 177.2 98.12 175.8 99.29 174.54 100.61 173.22 101.87 172.19 103.39 171.06 104.81 169.84 106.18 169.09 107.86 168.05 109.36 167.44 111.09 166.75 112.77 166 114.44 165.49 116.19 165.06 117.96 164.69 119.74 164.56 121.56 164.3 123.37 164.35 125.2 164.4 127.02 164.65 128.82 164.73 130.65 165.04 132.45 165.45 134.23 166.16 135.91 166.7 137.65 167.35 139.35 168.03 141.05 168.92 142.64 170.07 144.07 171.02 145.62 172.09 147.1 173.25 148.51 174.6 149.73 175.82 151.09 177.3 152.16 178.69 153.33 180.14 154.44 181.75 155.3 183.3 156.27 184.93 157.09 186.7 157.57 188.41 158.17 190.12 158.81 191.88 159.29 193.7 159.44 195.49 159.82 197.3 160.01 199.13 160.07 200.94 159.81 202.77 159.86 204.57 159.55 206.37 159.26 208.15 158.87 209.88 158.28 211.58 157.63 213.23 156.87 214.92 156.19 216.51 155.31 218.06 154.35 219.56 153.32 221 152.21 222.46 151.11 223.63 149.7 224.92 148.42 226.16 147.09 227.35 145.7 228.39 144.2 229.19 142.56 230.2 141.03 230.87 139.33 231.53 137.64 232.23 135.95 232.83 134.23 233.24 132.45 233.45 130.64 233.59 128.82 233.79 127.02 233.99 125.2"/><path class="cls-5" d="M203.3,124.4l1.93.82,1.62,1.31.91,1.53.34,1.78-.49,2.18-1.43,1.71-1.71,1.11-1.94.67-2,.28v2.81l-2.7,0,0-2.88-2.82-.57-2.55-1.41-1.64-2.19-.55-2.66h1.86l1.89-.07,1,2.38,2.87,1,0-2.05-.05-2.07.06-2.08-1.62-.51L194,124.6l-1.95-1.3-1.13-1.58-.33-1.93.42-2.11,1.38-1.66,2.55-1.25,2.84-.53,0-2.44h2.69l0,2.48,2.58.54,2.19,1.36,1.36,1.92.71,2.22-1.86,0-1.87,0-.92-1.74-2.12-1v2.9l0,2.88Zm-7.82-6-.76,1.56.45,1.45,1.65.92.95.33v-2.56l.08-2.59ZM203,131.43l.77-1.66-.63-1.74-1.62-1-1-.33v2.78l-.08,2.82Z"/><polygon class="cls-2" points="220.01 80.06 218.19 79.99 216.37 80.12 214.56 80.07 212.74 80.12 210.92 80.08 209.11 80.03 207.29 80.12 205.47 80.05 203.66 80.12 201.84 79.99 200.02 80.08 198.2 80.08 196.38 80.05 194.57 80.03 192.75 80.03 190.93 80.12 189.12 80.05 187.29 80.09 185.47 80.07 183.65 80.04 181.83 80.12 180.06 79.99 179.95 78.24 179.94 76.42 179.96 74.61 179.92 72.79 179.96 70.97 180.02 69.16 180.03 67.34 180.01 65.53 180.05 63.71 179.95 61.89 180 60.07 179.98 58.25 180 56.44 180.04 54.62 180 52.8 180 50.98 179.93 49.16 179.93 47.34 180.05 45.52 179.94 43.7 179.93 41.88 179.98 40.03 181.81 39.98 183.63 39.99 185.44 39.99 187.26 40.13 189.08 40.01 190.89 40.05 192.71 40 194.53 40.1 196.34 40.07 198.16 40.07 199.98 39.99 201.8 40.04 203.62 40.01 205.43 40.13 207.25 39.98 209.07 40.1 210.88 39.98 212.71 40.07 214.53 40.1 216.35 40.12 218.17 40.1 220.04 40.01 219.92 41.87 220.06 43.68 220 45.49 220.04 47.31 219.95 49.13 220.03 50.94 219.95 52.76 220.07 54.58 220.06 56.39 220.01 58.21 220.03 60.03 219.94 61.85 220.03 63.67 219.95 65.48 220.07 67.3 219.94 69.12 220.03 70.94 219.95 72.76 220.05 74.58 219.94 76.4 219.99 78.22 220.01 80.06"/><polygon class="cls-6" points="220.01 80.06 218.19 79.99 216.37 80.12 214.56 80.07 212.74 80.12 210.92 80.08 209.11 80.03 207.29 80.12 205.47 80.05 203.66 80.12 201.84 79.99 200.02 80.08 198.2 80.08 196.38 80.05 194.57 80.03 192.75 80.03 190.93 80.12 189.12 80.05 187.29 80.09 185.47 80.07 183.65 80.04 181.83 80.12 180.06 79.99 179.95 78.24 179.94 76.42 179.96 74.61 179.92 72.79 179.96 70.97 180.02 69.16 180.03 67.34 180.01 65.53 180.05 63.71 179.95 61.89 180 60.07 179.98 58.25 180 56.44 180.04 54.62 180 52.8 180 50.98 179.93 49.16 179.93 47.34 180.05 45.52 179.94 43.7 179.93 41.88 179.98 40.03 181.81 39.98 183.63 39.99 185.44 39.99 187.26 40.13 189.08 40.01 190.89 40.05 192.71 40 194.53 40.1 196.34 40.07 198.16 40.07 199.98 39.99 201.8 40.04 203.62 40.01 205.43 40.13 207.25 39.98 209.07 40.1 210.88 39.98 212.71 40.07 214.53 40.1 216.35 40.12 218.17 40.1 220.04 40.01 219.92 41.87 220.06 43.68 220 45.49 220.04 47.31 219.95 49.13 220.03 50.94 219.95 52.76 220.07 54.58 220.06 56.39 220.01 58.21 220.03 60.03 219.94 61.85 220.03 63.67 219.95 65.48 220.07 67.3 219.94 69.12 220.03 70.94 219.95 72.76 220.05 74.58 219.94 76.4 219.99 78.22 220.01 80.06"/><path class="cls-7" d="M202.08,51.52l0,1.7,0,1.72,0,1.72,0,1.74,1.74,0,1.73,0H209v3.68h-1.74l-1.73,0-1.73,0-1.76,0,0,1.74V69H200l-2.08,0,0-1.7-.06-1.72,0-1.72V62l-1.73,0-1.73,0-1.73,0-1.74,0,0-1.83,0-1.82,1.72,0h5.22V56.68l0-1.72,0-1.72V51.51H200Z"/><polygon class="cls-2" points="219.37 210.07 217.55 210.03 215.77 210.07 213.98 209.98 212.19 210.06 210.41 209.98 208.62 210.1 206.84 210.09 205.05 210.04 203.26 210.07 201.47 209.97 199.69 210.06 197.9 209.98 196.11 210.11 194.33 209.98 192.54 210.06 190.75 209.98 188.96 210.08 187.17 209.98 185.38 210.03 183.59 209.99 181.8 210.05 180.04 209.99 179.99 208.24 180.03 206.45 179.95 204.65 180.04 202.86 180.01 201.06 179.98 199.27 179.99 197.47 179.95 195.68 179.97 193.88 180.05 192.08 180 190.28 180.08 188.49 179.98 186.69 179.99 184.9 180 183.1 179.97 181.3 179.99 179.5 180.06 177.7 180.07 175.91 179.93 174.1 180 172.3 180.01 170.51 181.78 170.56 183.57 170.48 185.35 170.55 187.14 170.47 188.93 170.57 190.71 170.52 192.5 170.57 194.28 170.56 196.07 170.56 197.86 170.56 199.65 170.52 201.44 170.43 203.22 170.49 205.01 170.49 206.8 170.46 208.58 170.57 210.37 170.53 212.16 170.51 213.95 170.47 215.74 170.49 217.54 170.53 219.32 170.5 219.32 172.29 219.4 174.08 219.26 175.87 219.32 177.67 219.34 179.47 219.27 181.26 219.4 183.06 219.32 184.85 219.25 186.65 219.41 188.45 219.33 190.24 219.36 192.04 219.33 193.84 219.4 195.63 219.36 197.43 219.29 199.23 219.29 201.02 219.35 202.82 219.27 204.62 219.32 206.42 219.37 208.23 219.37 210.07"/><polygon class="cls-6" points="219.37 210.07 217.55 210.03 215.77 210.07 213.98 209.98 212.19 210.06 210.41 209.98 208.62 210.1 206.84 210.09 205.05 210.04 203.26 210.07 201.47 209.97 199.69 210.06 197.9 209.98 196.11 210.11 194.33 209.98 192.54 210.06 190.75 209.98 188.96 210.08 187.17 209.98 185.38 210.03 183.59 209.99 181.8 210.05 180.04 209.99 179.99 208.24 180.03 206.45 179.95 204.65 180.04 202.86 180.01 201.06 179.98 199.27 179.99 197.47 179.95 195.68 179.97 193.88 180.05 192.08 180 190.28 180.08 188.49 179.98 186.69 179.99 184.9 180 183.1 179.97 181.3 179.99 179.5 180.06 177.7 180.07 175.91 179.93 174.1 180 172.3 180.01 170.51 181.78 170.56 183.57 170.48 185.35 170.55 187.14 170.47 188.93 170.57 190.71 170.52 192.5 170.57 194.28 170.56 196.07 170.56 197.86 170.56 199.65 170.52 201.44 170.43 203.22 170.49 205.01 170.49 206.8 170.46 208.58 170.57 210.37 170.53 212.16 170.51 213.95 170.47 215.74 170.49 217.54 170.53 219.32 170.5 219.32 172.29 219.4 174.08 219.26 175.87 219.32 177.67 219.34 179.47 219.27 181.26 219.4 183.06 219.32 184.85 219.25 186.65 219.41 188.45 219.33 190.24 219.36 192.04 219.33 193.84 219.4 195.63 219.36 197.43 219.29 199.23 219.29 201.02 219.35 202.82 219.27 204.62 219.32 206.42 219.37 208.23 219.37 210.07"/><path class="cls-7" d="M192.43,189.31h10.85l1.82,0h1.8v3.59l-1.8,0h-7.23l-1.81-.06h-1.82l-1.82,0,0-1.82Z"/><polygon class="cls-7" points="104.34 150.22 104.04 151.84 103.11 153.21 101.74 154.12 100.13 154.46 98.5 154.14 97.14 153.21 96.21 151.84 95.89 150.22 96.23 148.61 97.14 147.24 98.51 146.32 100.13 145.99 101.75 146.31 103.11 147.24 104.03 148.6 104.34 150.22"/><polyline class="cls-3" points="100.14 150.2 100.82 148.52 101.46 146.83 102.09 145.13 102.8 143.46 103.4 141.75 104.03 140.04 104.67 138.35 105.32 136.66 106.03 134.99 106.7 133.3 107.24 131.56 107.99 129.91 108.66 128.22 109.23 126.5 109.94 124.83 110.56 123.12 111.19 121.41 111.83 119.72 112.56 118.05 113.15 116.32 113.77 114.61"/><polyline class="cls-3" points="100.15 150.2 98.84 151.44 97.52 152.67 96.21 153.91 94.91 155.16 93.64 156.44 92.34 157.69 91.05 158.95 89.74 160.2 88.44 161.45 87.09 162.65 85.84 163.97 84.48 165.15 83.17 166.39 81.89 167.66 80.62 168.95 79.32 170.2 78 171.44 76.64 172.64 75.34 173.9 74.04 175.15 72.76 176.45 71.46 177.71"/></g></svg>
