<svg xmlns="http://www.w3.org/2000/svg" viewBox="0 0 250 250"><defs><style>.cls-1{fill:#f8f8f8;}.cls-2{fill:#fff;}.cls-3{fill:none;stroke:#3e82f7;stroke-miterlimit:10;stroke-width:3px;}</style></defs><title>icon-partners-nonprofit</title><g id="Base_Dots" data-name="Base Dots"><circle class="cls-1" cx="125" cy="125" r="100"/></g><g id="Artwork"><polygon class="cls-2" points="117.85 190.59 114.2 190.35 110.6 189.74 107.08 188.82 103.61 187.75 100.04 186.93 96.77 185.3 93.36 184.02 89.93 182.74 86.81 180.91 83.25 180.65 79.67 180.74 76.09 180.69 72.52 180.71 68.94 180.9 65.36 180.74 61.78 180.66 58.38 179.87 55.32 178.11 53.04 175.27 52.36 171.65 52.59 168.04 52.48 164.43 52.55 160.82 52.66 157.21 52.78 153.59 53.48 150.15 55.27 147.08 58.24 145.05 61.78 144.24 65.02 144.2 68.27 144.5 71.52 144.17 74.73 144.25 77.48 142.95 80.46 142.07 83.25 140.3 86.14 138.71 88.77 136.66 91.98 135.41 95.21 134.36 98.52 133.55 101.93 133.16 105.75 133.54 109.39 133.86 112.94 134.78 116.08 135.61 119.21 136.49 122.25 137.73 124.68 139.96 127.29 141.91 129.52 144.13 131.87 146.1 135.07 147.36 138.52 147.87 141.9 148.67 145.33 149.3 148.71 150.13 152.18 150.56 155.5 151.71 159.51 153.31 162.48 151.4 165.32 149.26 168.5 147.66 171.35 145.56 174.31 143.63 177.52 142.06 180.5 140.15 183.34 138.01 186.27 136.02 189.27 135.13 192.28 134.54 196.56 135.18 200.31 137.5 202.13 139.99 202.98 142.91 203.66 145.91 202.78 148.85 201.38 151.48 199.71 154.01 197.16 156.55 194.31 158.76 191.52 161.03 189.1 163.71 186.56 166.25 183.78 168.54 181.12 170.94 178.32 173.22 176 176 173.28 178.36 170.37 180.51 167.8 183.04 165.16 185.48 162.45 187.58 159.42 189.25 156.07 190.11 152.63 190.57 149.15 190.44 145.68 190.18 142.2 190.41 138.72 190.23 135.25 190.38 131.77 190.65 128.3 190.12 124.82 190.16 121.34 190.59 117.85 190.59"/><polygon class="cls-3" points="195.14 137.29 194.03 136.92 191.29 135.24 188.06 135.01 185.06 136.43 181.88 138.5 178.43 140.14 175.45 142.53 172.22 144.5 168.89 146.34 165.86 148.64 162.62 150.62 159.45 152.72 156.23 154.74 155.74 154.84 151.89 152.17 148.37 151.39 144.87 150.55 141.31 149.97 137.79 149.17 134.28 148.34 130.72 147.7 127.2 146.8 124.54 144.37 122.11 141.72 119.46 139.28 116.23 137.69 112.94 136.35 109.47 135.54 105.93 134.52 102.27 134.35 98.44 133.8 94.6 134.34 90.96 135.59 87.31 136.9 84.65 138.99 81.58 140.39 78.77 142.24 75.5 143.45 72.45 145.25 69 144.91 65.6 145.24 62.19 145.2 58.78 144.84 55.62 145.74 53.44 148.13 52.89 151.22 52.32 154.83 52.57 158.44 52.73 162.04 52.61 165.66 52.8 169.28 53.35 172.41 55.84 174.38 58.78 175.25 62.57 175.47 66.36 175.56 70.16 175.33 73.96 175.44 77.51 175.73 81.07 175.65 84.66 175.2 87.68 177.29 90.84 178.95 94.31 179.89 97.58 181.27 100.96 182.35 104.36 183.34 107.8 184.23 111.28 185.08 114.85 185.26 118.33 185.03 121.8 185.19 125.28 184.76 128.75 184.96 132.23 184.96 135.7 184.77 139.18 184.94 142.66 185.08 146.14 185.33 149.63 185.01 153.41 184.43 157.05 183.19 160.27 181.08 162.92 178.64 165.62 176.26 168.01 173.54 170.86 171.33 173.55 168.93 176.3 166.6 178.61 163.81 181.26 161.38 183.91 158.94 186.54 156.47 189.51 154.38 191.81 151.55 194.46 149.09 196.48 146.57 197.32 143.43 197.04 140.09 195.14 137.29"/><polyline class="cls-3" points="87.39 137.04 90.92 135.48 94.63 134.46 98.44 134 102.3 134.13 105.9 134.74 109.49 135.4 113 136.14 116.39 137.37 119.49 139.24 122.2 141.63 124.72 144.18 127.21 146.8 130.73 147.62 134.28 148.24 137.78 149.12 141.36 149.62 144.87 150.47 148.4 151.23 151.92 152.06 155.11 153.8 156.85 157.03 157.04 158.46 156.21 161.72 153.87 164.19 150.56 165.14 146.9 165.08 143.25 165.09 139.59 165.04 135.93 164.93 132.28 164.91 128.62 165.09 124.97 165.02 121.31 165.15 117.64 165.14 113.58 164.72 109.77 163.26 106.49 161.63 103.22 159.97 99.93 158.37 96.61 156.79 93.34 155.13"/><polygon class="cls-2" points="188.67 85.49 188.47 85.28 188.59 85.41 190.91 82.83 192.47 79.74 193.59 76.48 195.03 73.3 195 69.81 195.37 66.36 194.44 62.93 193.65 59.52 192.2 56.34 190.89 53.01 188.27 50.58 186.11 47.74 183.17 45.73 180.09 43.99 176.62 43.2 173.28 42.19 169.8 41.55 166.1 41.82 162.52 42.7 158.83 43.32 155.51 45.04 152.68 47.46 149.87 49.85 147.37 52.59 145.54 55.96 143.57 52.68 141.36 49.7 138.71 47.06 135.41 45.31 132.01 43.91 128.55 42.73 124.96 42.01 121.27 41.38 117.73 41.81 114.46 43.22 111.03 44.08 107.92 45.76 104.97 47.76 102.58 50.38 100.38 53.15 98.79 56.3 97.16 59.43 96.14 62.83 95.77 66.36 95.99 69.81 96.12 73.28 97.15 76.6 98.31 79.89 100.07 82.9 102.25 85.62 104.99 87.84 106.98 90.74 109.54 93.12 111.78 95.79 114.05 98.44 116.35 101.06 118.68 103.65 120.86 106.38 123.53 108.66 125.7 111.39 128.3 113.75 130.23 116.7 132.72 119.16 135.18 121.65 137.12 124.6 140.29 126.57 143.71 127.81 147.4 128.01 150.82 126.64 153.86 124.52 155.93 121.69 158.07 118.93 160.46 116.4 163.28 114.24 165.06 111.16 167.68 108.83 169.77 106.02 172.4 103.7 174.37 100.79 176.69 98.19 179.45 95.98 181.4 93.04 183.94 90.63 186.25 88.01 188.67 85.49"/><polygon class="cls-3" points="188.67 85.49 188.47 85.28 188.59 85.41 190.91 82.83 192.47 79.74 193.59 76.48 195.03 73.3 195 69.81 195.37 66.36 194.44 62.93 193.65 59.52 192.2 56.34 190.89 53.01 188.27 50.58 186.11 47.74 183.17 45.73 180.09 43.99 176.62 43.2 173.28 42.19 169.8 41.55 166.1 41.82 162.52 42.7 158.83 43.32 155.51 45.04 152.68 47.46 149.87 49.85 147.37 52.59 145.54 55.96 143.57 52.68 141.36 49.7 138.71 47.06 135.41 45.31 132.01 43.91 128.55 42.73 124.96 42.01 121.27 41.38 117.73 41.81 114.46 43.22 111.03 44.08 107.92 45.76 104.97 47.76 102.58 50.38 100.38 53.15 98.79 56.3 97.16 59.43 96.14 62.83 95.77 66.36 95.99 69.81 96.12 73.28 97.15 76.6 98.31 79.89 100.07 82.9 102.25 85.62 104.99 87.84 106.98 90.74 109.54 93.12 111.78 95.79 114.05 98.44 116.35 101.06 118.68 103.65 120.86 106.38 123.53 108.66 125.7 111.39 128.3 113.75 130.23 116.7 132.72 119.16 135.18 121.65 137.12 124.6 140.29 126.57 143.71 127.81 147.4 128.01 150.82 126.64 153.86 124.52 155.93 121.69 158.07 118.93 160.46 116.4 163.28 114.24 165.06 111.16 167.68 108.83 169.77 106.02 172.4 103.7 174.37 100.79 176.69 98.19 179.45 95.98 181.4 93.04 183.94 90.63 186.25 88.01 188.67 85.49"/></g></svg>
