<svg xmlns="http://www.w3.org/2000/svg" viewBox="0 0 250 250"><defs><style>.cls-1{fill:#f8f8f8;}.cls-2{fill:#fff;}.cls-3{fill:#3e82f7;}.cls-4,.cls-5{fill:none;stroke-miterlimit:10;stroke-width:3px;}.cls-4{stroke:#3e82f7;}.cls-5{stroke:#0e2a70;}.cls-6{fill:#fadc2d;}</style></defs><title>icon-analyze-annualreports</title><g id="Base_Dots" data-name="Base Dots"><circle class="cls-1" cx="125" cy="125" r="100"/></g><g id="Artwork"><polygon class="cls-2" points="99.74 79.9 99.74 79.87 96.23 81.39 94.78 84.9 94.77 88.47 94.76 92.03 94.78 95.59 94.75 99.16 98.07 99.17 101.41 99.14 104.76 99.18 104.77 95.6 104.76 92.04 104.76 88.47 104.76 84.9 103.27 81.38 99.74 79.9"/><rect class="cls-2" x="20" y="90.83" width="110.74" height="29.53"/><polygon class="cls-2" points="110.79 189.74 107.16 189.69 103.53 189.89 99.9 189.8 96.27 189.58 92.64 189.58 89.01 189.76 85.38 189.91 81.75 189.61 78.12 189.66 74.49 189.57 70.86 189.6 67.23 189.71 63.6 189.5 59.97 189.74 56.34 189.58 52.71 189.54 49.08 189.87 45.44 189.59 41.81 189.63 38.18 189.75 34.55 189.91 30.91 189.88 27.28 189.89 23.64 189.65 20.11 189.59 19.81 186.05 20.17 182.41 20.07 178.76 19.91 175.11 19.98 171.46 19.98 167.82 20.14 164.17 20.06 160.52 19.78 156.87 20.2 153.22 19.83 149.57 19.82 145.92 20.09 142.27 20.02 138.62 19.94 134.97 20.14 131.32 20.11 127.67 19.94 124.01 20 120.36 23.57 120.49 27.14 120.57 30.72 120.45 34.29 120.14 37.86 120.15 41.43 120.15 45 120.29 48.57 120.5 52.15 120.29 55.72 120.49 59.29 120.53 62.87 120.57 66.44 120.24 70.01 120.4 73.59 120.53 77.16 120.23 80.73 120.55 84.3 120.38 87.87 120.51 91.44 120.37 95.02 120.23 98.59 120.41 102.17 120.23 105.74 120.21 109.32 120.22 112.89 120.49 116.47 120.47 120.05 120.26 123.62 120.32 127.2 120.53 130.75 120.39 130.94 123.87 130.66 127.4 130.81 130.92 130.87 134.44 130.75 137.96 130.9 141.49 130.99 145.01 130.75 148.54 130.81 152.06 130.9 155.59 130.64 159.11 130.97 162.64 130.72 166.17 130.75 169.7 130.54 173.19 129.6 176.55 128.02 179.65 126.14 182.59 123.62 184.99 120.85 187.13 117.63 188.5 114.24 189.27 110.79 189.74"/><polygon class="cls-3" points="135.64 193.56 132.22 193.74 128.64 193.65 125.07 193.54 121.5 193.78 117.93 193.9 114.36 193.81 110.78 193.71 107.21 193.51 103.64 193.89 100.07 193.54 96.49 193.77 92.92 193.85 89.35 193.81 85.78 193.59 82.2 193.85 78.63 193.55 75.06 193.91 71.49 193.77 67.92 193.62 64.34 193.82 60.77 193.9 57.2 193.72 53.62 193.54 50.04 193.66 46.47 193.77 42.89 193.58 39.32 193.87 35.74 193.79 32.16 193.72 28.58 193.88 24.88 193.82 25.21 190.05 25.13 186.41 25.13 182.76 25.05 179.11 25.09 175.46 25.11 171.82 25.18 168.17 24.97 164.52 25.02 160.87 25.14 157.22 24.92 153.57 24.93 149.92 25.1 146.27 24.82 142.62 25.13 138.97 24.88 135.32 25 131.67 24.89 128.01 25.05 124.4 28.57 124.46 32.15 124.56 35.72 124.55 39.29 124.36 42.86 124.56 46.43 124.29 50 124.19 53.57 124.38 57.15 124.14 60.72 124.31 64.29 124.38 67.87 124.43 71.44 124.47 75.01 124.4 78.59 124.56 82.16 124.24 85.73 124.46 89.3 124.3 92.87 124.13 96.44 124.38 100.02 124.26 103.59 124.19 107.17 124.38 110.74 124.16 114.32 124.16 117.89 124.44 121.47 124.37 125.05 124.54 128.62 124.18 132.2 124.36 135.68 124.46 135.85 128 135.89 131.65 135.93 135.3 135.88 138.95 135.77 142.6 135.81 146.24 135.86 149.89 135.79 153.54 135.62 157.19 135.77 160.83 135.81 164.48 135.82 168.13 135.64 171.78 135.94 175.44 135.91 179.09 135.76 182.74 135.89 186.39 135.85 190.05 135.64 193.56"/><polygon class="cls-4" points="130.72 189.63 127.22 189.89 123.64 189.91 120.07 189.69 116.5 189.53 112.93 189.61 109.36 189.59 105.78 189.86 102.21 189.71 98.64 189.65 95.07 189.82 91.49 189.81 87.92 189.5 84.35 189.74 80.78 189.54 77.2 189.72 73.63 189.53 70.06 189.9 66.49 189.57 62.91 189.54 59.34 189.62 55.77 189.73 52.2 189.71 48.62 189.5 45.04 189.77 41.47 189.92 37.89 189.52 34.32 189.85 30.74 189.62 27.16 189.9 23.58 189.56 20.09 189.62 20.16 186.04 19.99 182.38 20.07 178.72 20.1 175.06 20.17 171.4 19.89 167.74 20.04 164.08 19.86 160.42 19.85 156.76 20.19 153.1 20.21 149.43 20.2 145.77 19.81 142.11 19.99 138.46 20.22 134.79 20.2 131.13 19.8 127.47 20.21 123.81 20.07 120.15 20.09 116.48 20 112.82 19.83 109.16 20.11 105.49 19.8 101.83 19.9 98.17 19.96 94.5 19.94 90.77 23.57 90.7 27.14 90.81 30.72 91.04 34.29 90.98 37.86 91.02 41.43 90.81 45 90.81 48.57 90.62 52.15 90.81 55.72 90.82 59.29 90.8 62.87 90.7 66.44 90.98 70.01 91.02 73.59 90.86 77.16 90.64 80.73 90.99 84.3 90.89 87.87 90.98 91.44 90.74 95.02 91 98.59 90.76 102.17 90.82 105.74 90.73 109.32 90.74 112.89 90.87 116.47 90.75 120.05 90.86 123.62 90.67 127.2 90.7 130.7 90.91 130.77 94.49 130.75 98.15 130.72 101.81 130.6 105.47 130.72 109.13 130.8 112.79 130.87 116.45 130.72 120.11 130.6 123.77 130.87 127.43 130.83 131.09 130.97 134.75 130.7 138.42 130.86 142.07 130.6 145.73 130.92 149.39 130.61 153.06 130.98 156.72 130.71 160.38 130.69 164.04 130.86 167.71 130.86 171.37 131 175.03 130.57 178.7 130.86 182.36 130.6 186.03 130.72 189.63"/><polygon class="cls-3" points="104.76 105.68 103.29 109.22 99.74 110.68 96.21 109.21 94.75 105.68 96.2 102.14 99.74 100.69 103.28 102.14 104.76 105.68"/><polygon class="cls-2" points="200.45 179.84 200.45 183.61 200.56 187.39 200.61 191.18 200.28 194.97 200.33 198.75 200.45 202.54 200.4 206.33 200.54 210.23 196.75 210.14 193.07 210.09 189.38 210.22 185.7 209.95 182.02 210.04 178.34 210.28 174.66 210.08 170.98 210.21 167.29 209.98 163.61 210.11 159.93 210.07 156.24 210.23 152.56 210.14 148.87 210.09 145.19 210.15 141.5 210 137.81 210.11 134.12 210.25 130.37 210.19 130.49 206.34 130.41 202.55 130.27 198.76 130.49 194.98 130.55 191.19 130.58 187.41 130.53 183.61 130.31 179.92 127.1 179.68 123.77 179.69 120.47 179.85 120.56 183.61 120.41 187.39 120.37 191.18 120.3 194.97 120.27 198.75 120.36 202.54 120.3 206.33 120.32 210.13 120.48 213.35 120.57 216.59 120.55 219.82 120.43 220.18 124.03 220.21 127.63 220.02 131.22 219.96 134.82 220.14 138.42 219.95 142.02 220 145.62 220.15 149.22 220.24 152.82 220.29 156.41 220.14 160.01 220.12 163.61 220.15 167.21 219.96 170.81 220.04 174.41 220.28 178 220.2 181.6 220.2 185.21 220.19 188.81 220.26 192.41 220.06 196.01 219.96 199.61 220.11 203.22 220.07 206.82 220.29 210.42 219.97 210.5 219.82 210.4 216.59 210.31 213.36 210.27 210.13 210.3 206.34 210.5 202.55 210.38 198.76 210.49 194.98 210.43 191.19 210.49 187.41 210.52 183.61 210.47 179.78 207.1 179.8 203.77 179.84 200.45 179.84"/><polygon class="cls-4" points="200.45 179.84 200.45 183.61 200.56 187.39 200.61 191.18 200.28 194.97 200.33 198.75 200.45 202.54 200.4 206.33 200.54 210.23 196.75 210.14 193.07 210.09 189.38 210.22 185.7 209.95 182.02 210.04 178.34 210.28 174.66 210.08 170.98 210.21 167.29 209.98 163.61 210.11 159.93 210.07 156.24 210.23 152.56 210.14 148.87 210.09 145.19 210.15 141.5 210 137.81 210.11 134.12 210.25 130.37 210.19 130.49 206.34 130.41 202.55 130.27 198.76 130.49 194.98 130.55 191.19 130.58 187.41 130.53 183.61 130.31 179.92 127.1 179.68 123.77 179.69 120.47 179.85 120.56 183.61 120.41 187.39 120.37 191.18 120.3 194.97 120.27 198.75 120.36 202.54 120.3 206.33 120.32 210.13 120.48 213.35 120.57 216.59 120.55 219.82 120.43 220.18 124.03 220.21 127.63 220.02 131.22 219.96 134.82 220.14 138.42 219.95 142.02 220 145.62 220.15 149.22 220.24 152.82 220.29 156.41 220.14 160.01 220.12 163.61 220.15 167.21 219.96 170.81 220.04 174.41 220.28 178 220.2 181.6 220.2 185.21 220.19 188.81 220.26 192.41 220.06 196.01 219.96 199.61 220.11 203.22 220.07 206.82 220.29 210.42 219.97 210.5 219.82 210.4 216.59 210.31 213.36 210.27 210.13 210.3 206.34 210.5 202.55 210.38 198.76 210.49 194.98 210.43 191.19 210.49 187.41 210.52 183.61 210.47 179.78 207.1 179.8 203.77 179.84 200.45 179.84"/><polyline class="cls-2" points="130.93 85.44 132.72 85.59 134.51 85.6 136.31 85.6 138.1 85.59 139.89 85.38 141.69 85.6 143.48 85.52 145.27 85.53 147.07 85.49 148.86 85.59 150.66 85.4 152.45 85.55 154.24 85.38 156.03 85.53 157.81 85.38 159.61 85.56 161.4 85.4 163.19 85.44 164.99 85.44 166.78 85.58 168.57 85.4 170.37 85.53 172.16 85.54 173.96 85.36 175.75 85.54 177.55 85.58 179.34 85.39 181.14 85.42 182.93 85.35 184.73 85.47 186.53 85.39 188.32 85.47 190.12 85.38 191.91 85.42 193.71 85.51 195.51 85.48 197.31 85.35 199.11 85.39 200.91 85.54 202.72 85.37"/><polyline class="cls-5" points="130.93 85.44 132.72 85.59 134.51 85.6 136.31 85.6 138.1 85.59 139.89 85.38 141.69 85.6 143.48 85.52 145.27 85.53 147.07 85.49 148.86 85.59 150.66 85.4 152.45 85.55 154.24 85.38 156.03 85.53 157.81 85.38 159.61 85.56 161.4 85.4 163.19 85.44 164.99 85.44 166.78 85.58 168.57 85.4 170.37 85.53 172.16 85.54 173.96 85.36 175.75 85.54 177.55 85.58 179.34 85.39 181.14 85.42 182.93 85.35 184.73 85.47 186.53 85.39 188.32 85.47 190.12 85.38 191.91 85.42 193.71 85.51 195.51 85.48 197.31 85.35 199.11 85.39 200.91 85.54 202.72 85.37"/><polygon class="cls-2" points="128.14 143.39 126.4 143.29 124.7 142.9 123.08 142.23 121.7 141.15 120.22 140.14 119.45 138.53 118.3 137.13 117.86 135.38 117.73 133.6 117.86 131.79 117.84 129.97 117.86 128.16 118.02 126.35 118.08 124.53 118.02 122.72 118.01 120.9 117.95 119.09 117.91 117.28 117.88 115.46 117.85 113.65 117.64 111.84 117.8 110.02 117.78 108.2 118.09 106.39 117.71 104.58 117.91 102.76 118.07 100.95 118.06 99.13 118.05 97.32 118 95.5 117.93 93.69 117.63 91.87 117.87 90.06 118.06 88.24 118.03 86.43 118.02 84.62 117.68 82.81 117.72 81 117.71 79.18 117.96 77.36 117.94 75.55 117.85 73.74 118.04 71.92 118.02 70.11 118.05 68.29 117.85 66.48 117.8 64.66 118.08 62.84 117.64 61.02 117.92 59.21 117.77 57.39 117.86 55.57 117.76 53.75 118.04 51.94 117.82 50.12 117.87 48.3 117.77 46.48 117.91 44.66 117.73 42.84 118.05 41.02 117.66 39.2 117.82 37.37 118.21 35.65 118.42 33.88 119.33 32.37 120.24 30.84 121.64 29.75 123.1 28.77 124.7 28.06 126.41 27.73 128.14 27.33 129.91 27.28 131.69 27.31 133.47 27.3 135.24 27.34 137.02 27.25 138.79 27.59 140.57 27.25 142.35 27.29 144.12 27.18 145.89 27.33 147.66 27.4 149.43 27.48 151.21 27.39 152.99 27.45 154.76 27.62 156.53 27.48 158.31 27.54 160.09 27.3 161.87 27.63 163.64 27.2 165.42 27.29 167.2 27.22 168.97 27.55 170.75 27.22 172.53 27.54 174.31 27.36 176.09 27.28 177.86 27.56 179.64 27.36 181.42 27.44 183.2 27.45 184.98 27.38 186.76 27.43 188.54 27.26 190.33 27.52 192.12 27.34 194.07 27.75 196.04 28.09 197.84 28.99 199.21 30.45 200.69 31.57 202.03 32.83 203.45 34.01 204.68 35.38 205.92 36.75 207.48 37.8 208.71 39.19 209.88 40.63 211.18 42.08 212.32 43.7 212.81 45.63 213.06 47.59 213.23 49.38 213.1 51.17 212.82 52.96 212.84 54.75 213.04 56.54 213.18 58.33 213.21 60.12 213.13 61.91 212.91 63.7 213.14 65.49 213.14 67.28 213.25 69.07 212.95 70.86 212.91 72.66 212.99 74.45 213.06 76.24 212.88 78.03 213.02 79.82 212.99 81.61 213.05 83.4 212.79 85.19 213.09 86.97 213.08 88.76 213 90.55 213.13 92.34 213.11 94.13 213.18 95.92 213.22 97.71 213.09 99.5 212.88 101.3 212.87 103.09 213.1 104.88 213.19 106.67 212.82 108.46 213.18 110.26 213.02 112.05 212.99 113.84 212.96 115.64 213.18 117.43 212.87 119.22 212.8 121.02 212.85 122.81 213.19 124.61 212.81 126.4 212.95 128.2 213.01 130 213.12 131.8 212.81 133.6 212.79 135.34 212.47 137.09 211.42 138.52 210.68 140.16 209.35 141.35 207.84 142.29 206.16 142.83 204.48 143.27 202.74 143.46 200.93 143.77 199.11 143.39 197.29 143.73 195.47 143.42 193.65 143.51 191.84 143.61 190.02 143.46 188.2 143.39 186.38 143.48 184.56 143.74 182.74 143.5 180.92 143.63 179.11 143.47 177.29 143.6 175.48 143.65 173.66 143.34 171.85 143.65 170.03 143.36 168.21 143.47 166.39 143.47 164.57 143.63 162.76 143.64 160.94 143.57 159.12 143.55 157.3 143.6 155.48 143.42 153.66 143.78 151.84 143.7 150.02 143.77 148.2 143.35 146.37 143.78 144.55 143.69 142.74 143.61 140.91 143.67 139.09 143.75 137.27 143.66 135.45 143.54 133.62 143.56 131.8 143.56 129.96 143.73 128.14 143.39"/><polygon class="cls-2" points="210.19 47.59 209.91 49.38 210.22 51.17 210.12 52.96 210.06 54.75 210.1 56.54 210.15 58.33 210.04 60.12 209.81 61.91 209.87 63.7 209.83 65.49 210.04 67.28 210.04 69.07 210.22 70.86 210.03 72.66 210.03 74.45 210.05 76.24 210.15 78.03 209.87 79.82 209.83 81.61 209.99 83.4 210.21 85.19 209.85 86.97 209.96 88.76 209.86 90.55 210.1 92.34 209.85 94.13 210.09 95.92 210.03 97.71 210.11 99.5 210.11 101.3 209.97 103.09 210.09 104.88 209.99 106.67 210.17 108.46 210.15 110.26 209.9 112.05 210.01 113.84 209.98 115.64 209.96 117.43 209.84 119.22 209.95 121.02 210.03 122.81 210.1 124.61 209.95 126.4 209.84 128.2 210.1 129.99 210.07 131.8 210.21 133.6 209.68 135.41 209.07 137.17 207.71 138.44 206.39 139.77 204.55 140.16 202.74 140.75 200.93 140.48 199.11 140.46 197.29 140.63 195.47 140.63 193.65 140.77 191.84 140.34 190.02 140.63 188.2 140.37 186.38 140.36 184.56 140.59 182.74 140.5 180.92 140.4 179.11 140.63 177.29 140.75 175.48 140.66 173.66 140.56 171.85 140.36 170.03 140.74 168.21 140.39 166.39 140.62 164.57 140.7 162.76 140.66 160.94 140.44 159.12 140.71 157.3 140.4 155.48 140.76 153.66 140.62 151.84 140.48 150.02 140.67 148.2 140.75 146.37 140.57 144.55 140.4 142.74 140.51 140.91 140.62 139.09 140.44 137.27 140.72 135.44 140.64 133.62 140.57 131.8 140.73 129.97 140.73 128.14 140.34 126.33 140.21 124.62 139.54 123.09 138.53 121.95 137.09 121.22 135.41 121.04 133.6 120.83 131.78 120.88 129.97 121.01 128.16 120.78 126.35 120.79 124.53 120.97 122.72 120.68 120.9 120.99 119.09 120.74 117.28 120.86 115.46 120.76 113.65 120.93 111.83 120.97 110.02 121.07 108.2 121.05 106.39 120.87 104.58 121.07 102.76 120.8 100.95 120.69 99.13 120.89 97.32 120.65 95.5 120.81 93.69 120.88 91.87 120.94 90.06 120.98 88.24 120.91 86.43 121.07 84.62 120.75 82.81 120.97 81 120.81 79.18 120.64 77.36 120.89 75.55 120.77 73.74 120.69 71.92 120.88 70.11 120.67 68.29 120.67 66.47 120.95 64.66 120.88 62.84 121.04 61.02 120.69 59.21 120.86 57.39 121.01 55.57 120.8 53.75 120.75 51.94 120.72 50.12 120.77 48.3 120.88 46.48 120.84 44.66 120.79 42.84 120.86 41.02 121.03 39.2 120.88 37.37 121.1 35.52 121.84 33.81 123.15 32.5 124.49 31.18 126.26 30.52 128.14 30.44 129.91 30.31 131.69 30.34 133.47 30.38 135.24 30.42 137.02 30.23 138.79 30.31 140.57 30.53 142.34 30.53 144.12 30.35 145.89 30.2 147.66 30.5 149.43 30.45 151.21 30.54 152.99 30.51 154.76 30.41 156.53 30.61 158.31 30.38 160.09 30.54 161.87 30.57 163.64 30.25 165.42 30.52 167.2 30.48 168.97 30.36 170.75 30.2 172.53 30.23 174.31 30.23 176.09 30.46 177.86 30.57 179.64 30.22 181.42 30.58 183.2 30.48 184.98 30.32 186.76 30.39 188.54 30.39 190.33 30.55 192.12 30.47 194.05 30.44 195.66 31.52 197.4 32.34 198.73 33.61 199.87 35.08 201.25 36.3 202.63 37.52 203.81 38.95 205.16 40.2 206.62 41.36 207.9 42.69 208.93 44.18 209.57 45.84 210.19 47.59"/><polyline class="cls-6" points="210.02 47.91 206.44 47.84 202.87 47.87 199.29 47.85 195.7 47.8 192.07 47.9 192.05 44.38 192.07 40.89 192.07 37.4 192.05 33.91 192.11 30.4 196.09 31.57"/><polygon class="cls-2" points="215.19 52.59 214.91 54.38 215.22 56.17 215.12 57.96 215.06 59.75 215.1 61.54 215.15 63.33 215.04 65.12 214.81 66.91 214.87 68.7 214.83 70.49 215.04 72.28 215.04 74.07 215.22 75.86 215.03 77.66 215.03 79.45 215.05 81.24 215.15 83.03 214.87 84.82 214.83 86.61 214.99 88.4 215.21 90.19 214.85 91.97 214.96 93.76 214.86 95.55 215.1 97.34 214.85 99.13 215.09 100.92 215.03 102.71 215.11 104.5 215.11 106.3 214.97 108.09 215.09 109.88 214.99 111.67 215.17 113.46 215.15 115.26 214.9 117.05 215.01 118.84 214.98 120.64 214.96 122.43 214.84 124.22 214.95 126.02 215.03 127.81 215.1 129.6 214.95 131.4 214.84 133.2 215.1 134.99 215.07 136.8 215.21 138.6 214.68 140.41 214.07 142.17 212.71 143.44 211.39 144.77 209.55 145.16 207.74 145.75 205.93 145.48 204.11 145.46 202.29 145.63 200.47 145.63 198.65 145.77 196.84 145.34 195.02 145.63 193.2 145.37 191.38 145.36 189.56 145.59 187.74 145.5 185.92 145.4 184.11 145.63 182.29 145.75 180.48 145.66 178.66 145.56 176.85 145.36 175.03 145.74 173.21 145.39 171.39 145.62 169.57 145.7 167.76 145.66 165.94 145.44 164.12 145.71 162.3 145.4 160.48 145.76 158.66 145.62 156.84 145.48 155.02 145.67 153.2 145.75 151.37 145.57 149.55 145.4 147.74 145.51 145.91 145.62 144.09 145.44 142.27 145.72 140.44 145.64 138.62 145.57 136.8 145.73 134.97 145.73 133.14 145.34 131.32 145.21 129.62 144.54 128.09 143.53 126.95 142.09 126.22 140.41 126.04 138.6 125.83 136.78 125.88 134.97 126.01 133.16 125.78 131.35 125.79 129.53 125.97 127.72 125.68 125.9 125.99 124.09 125.74 122.28 125.86 120.46 125.76 118.65 125.93 116.83 125.97 115.02 126.07 113.2 126.05 111.39 125.87 109.58 126.07 107.76 125.8 105.95 125.69 104.13 125.89 102.32 125.65 100.5 125.81 98.69 125.88 96.87 125.94 95.06 125.98 93.24 125.91 91.43 126.07 89.62 125.75 87.81 125.97 86 125.81 84.18 125.64 82.36 125.89 80.55 125.77 78.74 125.69 76.92 125.88 75.11 125.67 73.29 125.67 71.47 125.95 69.66 125.88 67.84 126.04 66.03 125.69 64.21 125.86 62.39 126.01 60.57 125.8 58.75 125.75 56.94 125.72 55.12 125.77 53.3 125.88 51.48 125.84 49.66 125.79 47.84 125.86 46.02 126.03 44.2 125.88 42.37 126.1 40.52 126.84 38.81 128.15 37.5 129.49 36.18 131.26 35.52 133.14 35.44 134.91 35.31 136.69 35.34 138.47 35.38 140.24 35.42 142.02 35.23 143.79 35.31 145.57 35.53 147.34 35.53 149.12 35.35 150.89 35.2 152.66 35.5 154.43 35.45 156.21 35.54 157.99 35.51 159.76 35.41 161.53 35.61 163.31 35.38 165.09 35.53 166.87 35.57 168.64 35.25 170.42 35.52 172.2 35.48 173.97 35.36 175.75 35.2 177.53 35.23 179.31 35.23 181.09 35.46 182.86 35.57 184.64 35.22 186.42 35.58 188.2 35.48 189.98 35.32 191.76 35.39 193.54 35.39 195.33 35.55 197.12 35.47 199.05 35.44 200.66 36.52 202.4 37.34 203.73 38.61 204.87 40.08 206.25 41.3 207.63 42.52 208.81 43.95 210.16 45.2 211.62 46.36 212.9 47.69 213.93 49.18 214.57 50.84 215.19 52.59"/><rect class="cls-2" x="192.12" y="30.41" width="4.28" height="16.35"/><polygon class="cls-4" points="209.83 47.59 209.93 49.38 209.93 51.17 209.95 52.96 209.86 54.75 210.1 56.54 210.23 58.33 210.04 60.12 210.09 61.91 209.82 63.7 210.21 65.49 209.94 67.28 210.06 69.07 210.17 70.86 210.22 72.66 210.18 74.45 209.94 76.24 210.09 78.03 209.95 79.82 210.03 81.61 209.95 83.4 209.91 85.19 209.95 86.97 210 88.76 210.05 90.55 210.13 92.34 209.81 94.13 209.84 95.92 210.14 97.71 210.06 99.5 209.96 101.3 210.04 103.09 210.13 104.88 210.11 106.67 209.98 108.46 209.82 110.26 210.13 112.05 210.21 113.84 209.93 115.64 210.15 117.43 210.04 119.22 210.09 121.02 210.13 122.81 209.88 124.61 209.83 126.4 210.02 128.2 209.82 129.99 210.1 131.8 210.03 133.6 209.95 135.49 208.89 137.06 207.74 138.47 206.26 139.54 204.64 140.53 202.74 140.66 200.93 140.67 199.11 140.75 197.29 140.49 195.47 140.7 193.65 140.72 191.84 140.41 190.02 140.61 188.2 140.46 186.38 140.51 184.56 140.65 182.74 140.71 180.92 140.41 179.11 140.52 177.29 140.49 175.48 140.65 173.66 140.54 171.85 140.39 170.03 140.43 168.21 140.37 166.39 140.51 164.57 140.76 162.76 140.65 160.94 140.74 159.12 140.64 157.3 140.67 155.48 140.6 153.66 140.5 151.84 140.74 150.02 140.77 148.2 140.69 146.37 140.39 144.55 140.46 142.74 140.74 140.91 140.77 139.09 140.54 137.27 140.39 135.44 140.47 133.62 140.45 131.8 140.72 129.97 140.56 128.14 140.5 126.27 140.44 124.51 139.75 123.19 138.42 121.84 137.15 121.27 135.39 120.85 133.6 121.03 131.78 120.66 129.97 120.99 128.16 121.02 126.35 120.94 124.53 120.83 122.72 120.85 120.9 121.06 119.09 120.8 117.28 120.65 115.46 121.05 113.65 120.72 111.83 120.94 110.02 120.67 108.2 121 106.39 120.98 104.58 121.02 102.76 120.85 100.95 120.94 99.13 120.96 97.32 121.03 95.5 120.75 93.69 120.9 91.87 120.72 90.06 120.71 88.24 121.05 86.43 121.07 84.62 121.06 82.81 120.67 81 120.86 79.18 121.08 77.36 121.06 75.55 120.67 73.74 121.07 71.92 120.93 70.11 120.95 68.29 120.86 66.47 120.69 64.66 120.97 62.84 120.67 61.02 120.76 59.21 120.83 57.39 120.78 55.57 120.73 53.75 120.84 51.94 121.07 50.12 121.01 48.3 121.05 46.48 120.84 44.66 120.85 42.84 120.66 41.02 120.85 39.2 120.85 37.37 121.09 35.52 121.76 33.76 123.16 32.51 124.65 31.48 126.3 30.67 128.14 30.23 129.91 30.58 131.69 30.47 133.47 30.57 135.24 30.33 137.02 30.58 138.79 30.34 140.57 30.41 142.34 30.32 144.12 30.33 145.89 30.46 147.66 30.34 149.43 30.44 151.21 30.26 152.99 30.29 154.76 30.54 156.53 30.43 158.31 30.45 160.09 30.47 161.87 30.59 163.64 30.48 165.42 30.4 167.2 30.33 168.97 30.48 170.75 30.59 172.53 30.33 174.31 30.37 176.09 30.23 177.86 30.5 179.64 30.34 181.42 30.59 183.2 30.28 184.98 30.59 186.76 30.22 188.54 30.48 190.33 30.51 192.12 30.34 194.01 30.57 195.85 31.16 197.13 32.62 198.66 33.69 199.8 35.15 201.12 36.44 202.61 37.54 203.88 38.88 205.13 40.24 206.62 41.35 208.04 42.54 209.13 44.06 209.78 45.78 209.83 47.59"/><polyline class="cls-2" points="130.93 81.54 132.72 81.36 134.51 81.54 136.31 81.58 138.1 81.39 139.89 81.42 141.69 81.35 143.48 81.47 145.27 81.39 147.07 81.47 148.86 81.38 150.66 81.42 152.45 81.51 154.24 81.48 156.03 81.35 157.81 81.39 159.61 81.54 161.4 81.37 163.19 81.38 164.99 81.41 166.78 81.47 168.57 81.55 170.37 81.6 172.16 81.44 173.96 81.6 175.75 81.52 177.55 81.36 179.34 81.43 181.14 81.55 182.93 81.51 184.73 81.53 186.53 81.53 188.32 81.43 190.12 81.51 191.91 81.55 193.71 81.6 195.51 81.48 197.31 81.33 199.11 81.35 200.91 81.47 202.72 81.41"/><polyline class="cls-4" points="130.93 81.54 132.72 81.36 134.51 81.54 136.31 81.58 138.1 81.39 139.89 81.42 141.69 81.35 143.48 81.47 145.27 81.39 147.07 81.47 148.86 81.38 150.66 81.42 152.45 81.51 154.24 81.48 156.03 81.35 157.81 81.39 159.61 81.54 161.4 81.37 163.19 81.38 164.99 81.41 166.78 81.47 168.57 81.55 170.37 81.6 172.16 81.44 173.96 81.6 175.75 81.52 177.55 81.36 179.34 81.43 181.14 81.55 182.93 81.51 184.73 81.53 186.53 81.53 188.32 81.43 190.12 81.51 191.91 81.55 193.71 81.6 195.51 81.48 197.31 81.33 199.11 81.35 200.91 81.47 202.72 81.41"/><polyline class="cls-2" points="130.93 92.42 132.72 92.25 134.51 92.42 136.31 92.46 138.1 92.27 139.89 92.31 141.69 92.23 143.48 92.36 145.27 92.27 147.07 92.35 148.86 92.27 150.66 92.31 152.45 92.4 154.24 92.36 156.03 92.23 157.81 92.27 159.61 92.42 161.4 92.26 163.19 92.27 164.99 92.29 166.78 92.35 168.57 92.43 170.37 92.49 172.16 92.32 173.96 92.49 175.75 92.4 177.55 92.24 179.34 92.31 181.14 92.43 182.93 92.39 184.73 92.42 186.53 92.41 188.32 92.31 190.12 92.39 191.91 92.43 193.71 92.48 195.51 92.37 197.31 92.22 199.11 92.24 200.91 92.35 202.72 92.29"/><polyline class="cls-4" points="130.93 92.42 132.72 92.25 134.51 92.42 136.31 92.46 138.1 92.27 139.89 92.31 141.69 92.23 143.48 92.36 145.27 92.27 147.07 92.35 148.86 92.27 150.66 92.31 152.45 92.4 154.24 92.36 156.03 92.23 157.81 92.27 159.61 92.42 161.4 92.26 163.19 92.27 164.99 92.29 166.78 92.35 168.57 92.43 170.37 92.49 172.16 92.32 173.96 92.49 175.75 92.4 177.55 92.24 179.34 92.31 181.14 92.43 182.93 92.39 184.73 92.42 186.53 92.41 188.32 92.31 190.12 92.39 191.91 92.43 193.71 92.48 195.51 92.37 197.31 92.22 199.11 92.24 200.91 92.35 202.72 92.29"/><polyline class="cls-2" points="130.93 103.31 132.72 103.13 134.51 103.31 136.31 103.34 138.1 103.16 139.89 103.19 141.69 103.11 143.48 103.24 145.27 103.15 147.07 103.23 148.86 103.15 150.66 103.19 152.45 103.28 154.24 103.24 156.03 103.12 157.81 103.15 159.61 103.31 161.4 103.14 163.19 103.15 164.99 103.18 166.78 103.23 168.57 103.31 170.37 103.37 172.16 103.2 173.96 103.37 175.75 103.28 177.55 103.12 179.34 103.2 181.14 103.32 182.93 103.27 184.73 103.3 186.53 103.29 188.32 103.2 190.12 103.27 191.91 103.31 193.71 103.37 195.51 103.25 197.31 103.1 199.11 103.12 200.91 103.23 202.72 103.17"/><polyline class="cls-4" points="130.93 103.31 132.72 103.13 134.51 103.31 136.31 103.34 138.1 103.16 139.89 103.19 141.69 103.11 143.48 103.24 145.27 103.15 147.07 103.23 148.86 103.15 150.66 103.19 152.45 103.28 154.24 103.24 156.03 103.12 157.81 103.15 159.61 103.31 161.4 103.14 163.19 103.15 164.99 103.18 166.78 103.23 168.57 103.31 170.37 103.37 172.16 103.2 173.96 103.37 175.75 103.28 177.55 103.12 179.34 103.2 181.14 103.32 182.93 103.27 184.73 103.3 186.53 103.29 188.32 103.2 190.12 103.27 191.91 103.31 193.71 103.37 195.51 103.25 197.31 103.1 199.11 103.12 200.91 103.23 202.72 103.17"/><polyline class="cls-2" points="130.93 114.19 132.72 114.01 134.51 114.19 136.31 114.22 138.1 114.04 139.89 114.07 141.69 114 143.48 114.12 145.27 114.03 147.07 114.12 148.86 114.03 150.66 114.07 152.45 114.16 154.24 114.12 156.03 114 157.81 114.04 159.61 114.19 161.4 114.02 163.19 114.03 164.99 114.06 166.78 114.11 168.57 114.2 170.37 114.25 172.16 114.09 173.96 114.25 175.75 114.17 177.55 114.01 179.34 114.08 181.14 114.2 182.93 114.16 184.73 114.18 186.53 114.17 188.32 114.08 190.12 114.16 191.91 114.19 193.71 114.25 195.51 114.13 197.31 113.98 199.11 114 200.91 114.11 202.72 114.06"/><polyline class="cls-4" points="130.93 114.19 132.72 114.01 134.51 114.19 136.31 114.22 138.1 114.04 139.89 114.07 141.69 114 143.48 114.12 145.27 114.03 147.07 114.12 148.86 114.03 150.66 114.07 152.45 114.16 154.24 114.12 156.03 114 157.81 114.04 159.61 114.19 161.4 114.02 163.19 114.03 164.99 114.06 166.78 114.11 168.57 114.2 170.37 114.25 172.16 114.09 173.96 114.25 175.75 114.17 177.55 114.01 179.34 114.08 181.14 114.2 182.93 114.16 184.73 114.18 186.53 114.17 188.32 114.08 190.12 114.16 191.91 114.19 193.71 114.25 195.51 114.13 197.31 113.98 199.11 114 200.91 114.11 202.72 114.06"/><polyline class="cls-2" points="130.93 125.07 132.72 124.89 134.51 125.07 136.31 125.11 138.1 124.92 139.89 124.95 141.69 124.88 143.48 125 145.27 124.92 147.07 125 148.86 124.91 150.66 124.95 152.45 125.05 154.24 125.01 156.03 124.88 157.81 124.92 159.61 125.07 161.4 124.9 163.19 124.92 164.99 124.94 166.78 125 168.57 125.08 170.37 125.14 172.16 124.97 173.96 125.13 175.75 125.05 177.55 124.89 179.34 124.96 181.14 125.08 182.93 125.04 184.73 125.06 186.53 125.06 188.32 124.96 190.12 125.04 191.91 125.08 193.71 125.13 195.51 125.01 197.31 124.86 199.11 124.88 200.91 125 202.72 124.94"/><polyline class="cls-4" points="130.93 125.07 132.72 124.89 134.51 125.07 136.31 125.11 138.1 124.92 139.89 124.95 141.69 124.88 143.48 125 145.27 124.92 147.07 125 148.86 124.91 150.66 124.95 152.45 125.05 154.24 125.01 156.03 124.88 157.81 124.92 159.61 125.07 161.4 124.9 163.19 124.92 164.99 124.94 166.78 125 168.57 125.08 170.37 125.14 172.16 124.97 173.96 125.13 175.75 125.05 177.55 124.89 179.34 124.96 181.14 125.08 182.93 125.04 184.73 125.06 186.53 125.06 188.32 124.96 190.12 125.04 191.91 125.08 193.71 125.13 195.51 125.01 197.31 124.86 199.11 124.88 200.91 125 202.72 124.94"/><polyline class="cls-4" points="192.17 30.41 192.09 33.9 192.12 37.39 192.1 40.87 192.06 44.37 192.16 47.82 195.69 47.8 199.27 47.81 202.85 47.82 206.44 47.8 210.02 47.85"/><polygon class="cls-2" points="182.47 173.21 181.24 174.52 179.95 175.8 178.63 177.04 177.44 178.42 176.13 179.67 174.81 180.91 173.53 182.2 172.23 183.47 170.98 184.74 171.01 182.99 171.03 181.2 170.91 179.41 170.96 177.62 170.99 175.83 170.98 174.04 170.94 172.25 171.05 170.47 171.03 168.68 170.94 166.88 171.03 165.09 170.98 163.3 171.05 161.5 170.89 159.7 170.55 157.95 169.54 156.48 168.07 155.45 166.31 155.09 166.31 155.01 164.56 155.47 163 156.39 162.02 157.93 161.65 159.7 161.66 161.49 161.58 163.28 161.57 165.07 161.61 166.86 161.63 168.65 161.6 170.44 161.6 172.23 161.65 174.01 161.75 175.81 161.65 177.6 161.64 179.39 161.7 181.18 161.66 182.98 161.66 184.79 160.35 183.53 159.11 182.21 157.88 180.87 156.56 179.64 155.25 178.38 154.04 177.03 152.72 175.78 151.35 174.58 150.09 173.26 148.59 172.26 146.83 171.88 145.04 172.2 143.59 173.29 143.59 173.29 142.46 174.72 142.12 176.53 142.49 178.32 143.48 179.88 144.77 181.07 146.02 182.3 147.33 183.49 148.45 184.85 149.75 186.03 151.04 187.24 152.24 188.53 153.53 189.73 154.73 191.02 155.95 192.29 157.29 193.44 158.43 194.81 159.7 196.04 160.86 197.15 162.18 198.26 163.78 198.93 165.45 199.34 167.18 199.39 168.85 198.96 170.43 198.25 171.75 197.13 172.88 196 174.1 194.74 175.37 193.52 176.56 192.22 177.85 191.03 179.07 189.76 180.3 188.5 181.59 187.3 182.81 186.03 184.04 184.77 185.4 183.63 186.59 182.33 187.84 181.07 189.03 179.76 190.06 178.29 190.54 176.53 190.05 174.76 189.06 173.26 189.04 173.28 187.54 172.31 185.79 171.95 184.03 172.28 182.47 173.21"/><polygon class="cls-4" points="182.47 173.21 181.24 174.52 179.95 175.8 178.63 177.04 177.44 178.42 176.13 179.67 174.81 180.91 173.53 182.2 172.23 183.47 170.98 184.74 171.01 182.99 171.03 181.2 170.91 179.41 170.96 177.62 170.99 175.83 170.98 174.04 170.94 172.25 171.05 170.47 171.03 168.68 170.94 166.88 171.03 165.09 170.98 163.3 171.05 161.5 170.89 159.7 170.55 157.95 169.54 156.48 168.07 155.45 166.31 155.09 166.31 155.01 164.56 155.47 163 156.39 162.02 157.93 161.65 159.7 161.66 161.49 161.58 163.28 161.57 165.07 161.61 166.86 161.63 168.65 161.6 170.44 161.6 172.23 161.65 174.01 161.75 175.81 161.65 177.6 161.64 179.39 161.7 181.18 161.66 182.98 161.66 184.79 160.35 183.53 159.11 182.21 157.88 180.87 156.56 179.64 155.25 178.38 154.04 177.03 152.72 175.78 151.35 174.58 150.09 173.26 148.59 172.26 146.83 171.88 145.04 172.2 143.59 173.29 143.59 173.29 142.46 174.72 142.12 176.53 142.49 178.32 143.48 179.88 144.77 181.07 146.02 182.3 147.33 183.49 148.45 184.85 149.75 186.03 151.04 187.24 152.24 188.53 153.53 189.73 154.73 191.02 155.95 192.29 157.29 193.44 158.43 194.81 159.7 196.04 160.86 197.15 162.18 198.26 163.78 198.93 165.45 199.34 167.18 199.39 168.85 198.96 170.43 198.25 171.75 197.13 172.88 196 174.1 194.74 175.37 193.52 176.56 192.22 177.85 191.03 179.07 189.76 180.3 188.5 181.59 187.3 182.81 186.03 184.04 184.77 185.4 183.63 186.59 182.33 187.84 181.07 189.03 179.76 190.06 178.29 190.54 176.53 190.05 174.76 189.06 173.26 189.04 173.28 187.54 172.31 185.79 171.95 184.03 172.28 182.47 173.21"/><polygon class="cls-3" points="55.02 105.68 53.53 109.21 50 110.68 46.47 109.22 44.99 105.68 46.47 102.15 50 100.69 53.54 102.14 55.02 105.68"/><polygon class="cls-2" points="50 79.87 50 79.92 46.46 81.37 44.97 84.9 44.99 88.47 44.98 92.03 44.96 95.59 45.02 99.15 48.33 99.13 51.66 99.16 54.99 99.16 54.98 95.6 54.99 92.04 55.02 88.47 55 84.9 53.54 81.37 50 79.87"/><path class="cls-2" d="M50.75,166.05l1.38,3,1.4,3,1.38-3,1.4-3h2.54v3.37l0,3.38,0,3.38H57l0-3.84,0-3.86-1.42,3.32-1.44,3.29H52.91l-1.45-3.42-1.5-3.4,0,4,0,4H48.12l0-3.36,0-3.38V166Z"/><path class="cls-2" d="M64.86,166.05h2.31l1.11,3.37,1.12,3.37,1.11,3.38h-2l-.7-2.19H64.08l-.71,2.2h-2l1.16-3.37,1.12-3.39Zm-.31,6.55h2.84L66,168.25Z"/><path class="cls-2" d="M80.59,169.16,80,171l-1.76,1.07L81,176.18H78.56l-2.25-3.92-1.41,0,0,4H73.06V166l3.75,0,2.79.84ZM76.64,171l1.53-.45.53-1.22-.5-1.2-1.39-.49-1.89,0,0,3.36Z"/><path class="cls-2" d="M87.53,165.84l1.62.23,1.18.65,1.28,2.21-2,.38L88.87,168l-1.29-.49-1.73.86-.7,2.69.62,2.68,1.72.93,1.61-.52.56-1.32h2l-1.09,2.62-3,.93L84.39,175l-1.23-3.89,1.26-3.89Z"/><path class="cls-2" d="M96.4,166.05v4.23h4.43l0-4.25h1.87v10.14h-1.86v-4.29H96.41l0,4.28H94.58V166.06Z"/><path class="cls-2" d="M59.47,153.49l3.47,0,3.47,0,3.47,0,3.49,0,0,4.06-3.66,0H66l-3.66.06-3.66,0-3.63,0,0-4.13.71-3.6,2.42-2.71,2.39-1.27,5-1.92L68,142.32l.76-2.37-1-2.36-2.87-1-3.1.88-1.39,2.67h-4.9l.66-3.13,2.09-2.42,3.1-1.46,3.43-.39,3.32.43,2.93,1.6,1.85,2.27.67,2.85L72,144.78l-2.17,1.81-2.56,1.22-2.53,1-2.53,1L60.15,151l-.7,1.75Z"/><path class="cls-2" d="M84.35,142.77l3.9-.38,3.18.43,2.82,1.44,1.79,2.3.44,2.89-.56,3.32L94,155.52l-3.07,1.94-3.6.62-3.38-.48-3-1.55-2-2.59-.62-3.22,4.53.06,1.27,2.8,3.27.85,3.27-1.27L92,149.45l-1.61-3-3.45-.67-3.7-.06-3.71,0,.36-4.17.4-4.16.35-4.18,3.65,0,3.64.05h7.3l0,4-3.4.06-3.43-.05H84.91L84.67,140Z"/><path class="cls-3" d="M169.67,55.67l2.87,1.7.93,2.68-.39,1.73L172,63.21l-2.16,1.18-2.42.44v2.27l-2.17,0,0-2.29-2.27-.47-2.06-1.11-1.31-1.78-.45-2.15h3l.83,1.82,2.3.86v-2.5l0-2.49L164,56.57l-1.75-.73-1.61-1L159.45,52l1.49-3,2-1.06,2.25-.4.06-1.91,2.14,0v2l2.05.41,1.72,1.16,1.12,1.51.57,1.78h-3L169.13,51l-1.7-.81-.06,2.33,0,2.34Zm-6.28-4.85-.64,1.25.4,1.16,1.32.74.78.28V50.13Zm6,10.5.65-1.33-1.85-2.18-.86-.29,0,2.26V62Z"/></g></svg>
