<svg xmlns="http://www.w3.org/2000/svg" viewBox="0 0 250 250"><defs><style>.cls-1{fill:#f8f8f8;}.cls-2{fill:#fff;}.cls-3{fill:none;stroke:#3e82f7;stroke-miterlimit:10;stroke-width:3px;}</style></defs><title>icon-partners-religious</title><g id="Base_Dots" data-name="Base Dots"><circle class="cls-1" cx="125" cy="125" r="100"/></g><g id="Artwork"><polygon class="cls-2" points="146.36 134.21 146.23 130.64 146.31 127.11 146.4 123.58 146.59 120.06 146.24 116.53 146.56 113 146.35 109.47 146.28 105.94 146.31 102.41 146.51 98.88 146.27 95.36 146.55 91.83 146.22 88.29 146.35 84.76 146.48 81.22 146.34 77.76 142.69 77.87 138.97 77.7 135.26 77.54 131.54 77.65 127.81 77.74 124.16 77.61 123.94 74.19 124.01 70.69 124.08 67.18 123.93 63.68 123.93 60.17 124.22 56.8 127.81 56.77 131.53 56.78 135.24 56.7 138.96 56.74 142.68 56.76 146.52 56.77 146.38 52.95 146.43 49.24 146.54 45.54 146.34 41.83 146.34 38.12 146.48 34.47 149.91 34.24 153.41 34.52 156.91 34.3 160.42 34.4 163.93 34.31 167.39 34.45 167.34 38.11 167.25 41.82 167.26 45.52 167.43 49.23 167.25 52.94 167.48 56.62 171.13 56.51 174.83 56.68 178.52 56.46 182.22 56.61 185.92 56.68 189.58 56.71 189.52 60.16 189.58 63.66 189.44 67.16 189.73 70.67 189.53 74.18 189.66 77.72 185.93 77.89 182.23 77.66 178.54 77.77 174.84 77.84 171.14 77.67 167.56 77.81 167.61 81.21 167.36 84.74 167.42 88.26 167.27 91.79 167.59 95.32 167.44 98.85 167.3 102.37 167.49 105.9 167.53 109.43 167.57 112.97 167.52 116.49 167.42 120.02 167.46 123.55 167.5 127.09 167.44 130.62 167.33 134.05 163.94 134.15 160.44 134.18 156.93 134.19 153.43 134.03 149.92 134.3 146.36 134.21"/><polygon class="cls-2" points="186.57 59.71 182.93 59.68 179.23 59.52 175.54 59.48 171.84 59.82 168.14 59.66 164.47 59.63 164.58 55.95 164.4 52.24 164.58 48.54 164.39 44.83 164.62 41.12 164.48 37.37 160.68 37.23 156.93 37.24 153.17 37.24 149.29 37.29 149.36 41.11 149.57 44.82 149.42 48.52 149.41 52.23 149.48 55.94 149.28 59.53 145.69 59.57 141.97 59.62 138.26 59.72 134.54 59.68 130.81 59.57 127.07 59.63 127.07 63.41 127.25 67.17 126.92 70.93 127.07 74.71 130.81 74.67 134.53 74.84 138.24 74.52 141.96 74.72 145.68 74.87 149.53 74.56 149.41 78.21 149.47 81.74 149.4 85.26 149.56 88.79 149.47 92.32 149.3 95.85 149.31 99.37 149.46 102.9 149.25 106.43 149.37 109.97 149.5 113.49 149.32 117.02 149.42 120.55 149.48 124.08 149.44 127.62 149.37 131.2 153.16 131.29 156.92 131.28 160.68 131.15 164.51 131.24 164.51 127.64 164.54 124.11 164.38 120.58 164.4 117.06 164.32 113.53 164.3 110 164.25 106.47 164.62 102.94 164.53 99.41 164.36 95.88 164.28 92.36 164.4 88.83 164.38 85.29 164.39 81.76 164.39 78.22 164.52 74.77 168.13 74.85 171.83 74.86 175.52 74.61 179.22 74.55 182.92 74.53 186.68 74.74 186.57 70.93 186.69 67.18 186.45 63.42 186.57 59.71"/><polygon class="cls-3" points="186.71 59.58 182.93 59.7 179.23 59.61 175.54 59.5 171.84 59.68 168.14 59.64 164.34 59.76 164.41 55.95 164.29 52.24 164.34 48.54 164.47 44.83 164.5 41.12 164.4 37.45 160.68 37.51 156.93 37.32 153.17 37.51 149.31 37.3 149.25 41.11 149.23 44.82 149.28 48.52 149.22 52.23 149.49 55.94 149.36 59.61 145.69 59.49 141.97 59.52 138.26 59.64 134.54 59.7 130.81 59.83 127.03 59.59 127.04 63.41 127.06 67.17 127.22 70.93 127.08 74.7 130.81 74.81 134.53 74.63 138.24 74.78 141.96 74.59 145.68 74.68 149.47 74.62 149.58 78.21 149.56 81.74 149.41 85.26 149.38 88.79 149.41 92.32 149.35 95.85 149.55 99.37 149.33 102.9 149.41 106.43 149.28 109.97 149.49 113.49 149.4 117.02 149.32 120.55 149.53 124.08 149.44 127.62 149.42 131.15 153.16 131.34 156.92 131.33 160.68 131.04 164.41 131.13 164.59 127.64 164.27 124.11 164.38 120.58 164.27 117.06 164.37 113.53 164.49 110 164.27 106.47 164.45 102.94 164.27 99.41 164.58 95.88 164.37 92.36 164.37 88.83 164.43 85.29 164.48 81.76 164.49 78.22 164.33 74.57 168.13 74.68 171.83 74.6 175.52 74.64 179.22 74.72 182.92 74.52 186.76 74.82 186.5 70.93 186.48 67.18 186.53 63.42 186.71 59.58"/><polygon class="cls-2" points="145.72 212.79 142.4 212.76 139.1 212.4 135.82 211.84 132.23 210.81 128.66 209.69 125.3 208.03 122 206.28 118.88 204.22 116.02 201.8 113.24 199.3 110.7 196.55 108.66 193.41 106.53 190.35 104.75 187.06 103.11 183.69 101.96 180.13 101.29 176.44 100.44 172.79 100.16 169.06 100.14 165.31 100.42 161.57 101.06 157.87 102.04 154.25 103.38 150.86 104.66 147.45 106.47 144.28 108.5 141.26 110.66 138.34 113.2 135.74 115.88 133.29 118.52 130.77 121.56 128.77 124.68 126.88 128.12 125.63 131.4 124.05 134.96 123.23 138.51 122.49 142.11 121.97 145.75 122.03 149.12 122.06 152.49 122.36 155.85 123.06 159.21 123.84 162.44 125.02 165.6 126.39 168.57 128.12 171.45 129.99 174.18 132.07 176.85 134.22 179.23 136.71 181.41 139.36 183.4 142.16 184.58 144.85 183.74 147.69 181.68 149.78 178.87 150.66 175.28 149.2 172.14 146.94 168.76 145.12 165.22 143.59 161.44 142.86 157.02 142.25 153.49 142.45 150.06 143.29 146.75 144.46 143.47 145.78 140.68 147.95 137.85 150.04 135.44 152.63 133.58 155.62 131.88 158.69 130.82 162.03 129.66 165.63 129.49 169.4 129.53 173.17 130.24 176.89 131.58 180.42 133.38 183.72 135.44 186.85 138.06 189.53 140.89 191.96 144.05 193.95 147.47 195.47 151 196.72 153.97 197.22 156.98 197.38 160.27 197.13 163.48 196.42 166.69 195.63 168.54 195.25 171.56 196.37 173.47 198.96 173.64 202.26 171.47 204.77 168.65 206.72 165.6 208.3 162.45 209.64 159.2 210.72 155.88 211.52 152.55 212.34 149.15 212.8 145.72 212.79"/><polygon class="cls-2" points="150.15 200.53 146.58 199.6 143.25 198.03 140.03 196.26 137.09 194.04 134.33 191.61 131.96 188.8 129.8 185.81 128.3 182.44 126.73 179.08 126.15 175.43 125.69 171.78 125.54 168.1 125.86 164.42 126.86 160.86 128.13 157.61 129.69 154.5 131.54 151.56 133.59 148.73 136.22 146.43 138.95 144.27 141.81 142.27 144.97 140.75 148.25 139.53 151.67 138.75 155.15 138.4 158.64 138.48 162.1 138.92 165.58 139.53 168.85 140.84 172.1 142.22 175.13 144.05 177.85 146.31 180.13 144.33 178.17 141.5 175.79 139 173.47 136.44 170.77 134.29 167.98 132.25 164.9 130.69 161.83 129.13 158.6 127.89 155.29 126.92 151.89 126.27 148.2 126.04 144.5 125.83 140.79 126.01 137.14 126.67 133.61 127.8 130.11 128.97 126.78 130.58 123.61 132.48 120.41 134.36 117.69 136.88 114.97 139.4 112.76 142.37 110.59 145.36 108.85 148.62 107.26 151.95 105.82 155.38 105.25 158.93 104.54 162.44 104.39 166.03 104.37 169.6 104.57 173.19 105.33 176.7 106.25 180.16 107.67 183.46 108.95 186.82 110.99 189.78 112.88 192.84 115.2 195.59 117.76 198.11 120.57 200.35 123.5 202.41 126.67 204.1 129.93 205.57 133.2 207.06 136.68 208.01 140.45 208.42 144.22 208.73 147.99 208.65 151.76 208.33 155.45 207.54 159.1 206.56 162.6 205.14 166 203.49 169.3 201.62 168.09 199.34 164.58 200.3 161 200.92 157.38 201.32 153.74 201.2 150.15 200.53"/><polygon class="cls-2" points="178.56 191.34 174.91 189.61 173.08 187.56 171.26 185.53 168.74 186.59 166.24 187.74 164.26 188.15 159.97 185.64 160.01 180.68 161.42 178.32 162.85 175.97 161.01 173.92 159.21 171.85 158 169.35 158.4 166.59 160.18 164.44 162.86 163.66 163.95 163.79 166.61 164.47 169.33 165.07 170.68 162.64 172.09 160.28 176.31 157.93 179.61 159.15 181.15 162.32 181.51 165.04 181.74 167.76 184.41 168.36 187.08 168.98 189.7 170.5 190.93 173.29 190.24 176.24 187.97 178.24 185.44 179.31 182.98 180.47 183.18 183.18 183.45 185.91 182.16 189.63 178.56 191.34"/><polygon class="cls-2" points="177.18 162.69 177.55 166.55 177.98 170.39 178.67 171.15 182.44 172.04 186.21 172.88 186.37 174.56 182.85 176.17 179.27 177.64 178.7 178.59 179.14 182.43 179.43 186.29 177.88 186.99 175.32 184.09 172.74 181.2 171.75 180.98 168.19 182.5 164.61 183.99 163.5 182.74 165.47 179.41 167.47 176.09 167.35 174.99 164.76 172.11 162.2 169.21 163.08 167.7 166.86 168.54 170.63 169.41 171.64 169 173.59 165.66 175.55 162.32 177.18 162.69"/><polygon class="cls-3" points="150.11 200.72 146.58 199.6 143.14 198.24 139.95 196.38 137.05 194.1 134.37 191.58 131.93 188.82 129.92 185.74 128.14 182.5 126.92 179.03 126.17 175.42 125.47 171.8 125.56 168.1 125.99 164.44 126.77 160.83 128.1 157.6 129.54 154.42 131.45 151.5 133.56 148.7 136.11 146.3 138.93 144.24 141.87 142.37 145.01 140.84 148.3 139.7 151.7 138.96 155.16 138.49 158.65 138.42 162.14 138.69 165.59 139.5 168.84 140.87 172.06 142.31 175.12 144.06 177.8 146.37 180.33 144.2 178.11 141.55 175.84 138.96 173.53 136.38 170.7 134.38 167.87 132.42 164.91 130.67 161.89 128.96 158.57 127.99 155.24 127.11 151.86 126.46 148.2 126.03 144.5 125.88 140.83 126.31 137.17 126.81 133.57 127.66 130.12 129 126.66 130.36 123.45 132.23 120.44 134.4 117.55 136.73 114.99 139.41 112.61 142.26 110.49 145.3 108.79 148.59 107.05 151.87 105.93 155.41 105.1 158.9 104.63 162.46 104.38 166.02 104.31 169.61 104.56 173.19 105.3 176.7 106.3 180.15 107.66 183.46 109.19 186.69 110.85 189.87 113.03 192.72 115.27 195.52 117.7 198.18 120.58 200.33 123.46 202.48 126.69 204.06 129.85 205.75 133.27 206.84 136.72 207.83 140.43 208.57 144.21 208.97 148 208.82 151.79 208.57 155.51 207.79 159.08 206.51 162.61 205.16 166.04 203.55 169.25 201.55 168.11 199.38 164.56 200.24 161.03 201.21 157.38 201.2 153.76 201.02 150.11 200.72"/><polygon class="cls-3" points="177.26 162.69 177.63 166.54 177.94 170.4 178.66 171.21 182.45 171.99 186.22 172.87 186.39 174.62 182.81 176.09 179.29 177.69 178.74 178.59 179.16 182.43 179.44 186.29 177.93 186.94 175.34 184.06 172.75 181.19 171.74 180.96 168.18 182.49 164.62 184 163.46 182.72 165.48 179.41 167.45 176.08 167.34 174.99 164.76 172.11 162.16 169.24 163.07 167.74 166.85 168.55 170.62 169.45 171.61 168.99 173.55 165.64 175.53 162.31 177.26 162.69"/><path class="cls-2" d="M117.58,113.71l1.88-3.07,1.62-3.14,2.08-2.88,1.73-3.09,1.55-2.68,1.46-2.74,1.64-2.64,0-3.52-3-1.6-3.1.17-3.1-.17-3.1-.14-3.5.22-3.5,0-3.51,0-3.54,0-1.6-2.91-1.78-2.76-1.59-2.88-1.46-3-1.55-2.71-1.48-2.75-1.75-2.59L89,67.21l-3,1.55-1.49,2.74-1.64,2.66-1.39,2.8L79.68,79.7l-1.42,3L76.5,85.47l-1.66,2.8-3.49,0-3.53.07-3.53.13-3.53-.15-3.09,0-3.1,0-3.1.13L48.68,90.1l-.19,3.32,1.46,2.73,1.68,2.61,1.62,2.64,1.56,3.2,1.77,3.08,1.91,3,1.57,3.1-1.63,3L56.83,120,55,123l-2,2.93-1.55,2.68-1.55,2.69-1.39,2.78.13,3.29,2.79,1.76,3.1.12,3.1-.25,3.1.1,3.5.18,3.5-.22,3.51.14h3.47L76.38,142l1.68,2.82,1.64,2.85,1.66,2.84L83,153.18l1.3,2.85,1.56,2.71,3,1.55,2.93-1.61L93.38,156,95,153.31l1.45-2.77,1.78-2.77,1.69-2.83,1.44-3,1.76-2.72,3.47-.15,3.53.09,3.53.12,3.53-.19,3.09,0,3.1-.16,3.1.11,2.8-1.72,0-3.25-1.43-2.75-1.52-2.7-1.64-2.63-1.8-3.06-1.6-3.17-1.93-3Zm-9.83,0-2,3.34-1.78,3.42-2.24,3.16L99.8,127l-1.88,3.28-3.55.08-3.63-.1-3.63,0-3.64.15-3.73.14-1.82-3.47-1.78-3.39L74,120.48l-1.94-3.3-1.89-3.39,2-3.37,2-3.3,1.78-3.42,2-3.32L80,97.17l3.59,0,3.63.09L90.82,97l3.64,0,3.58.19,1.93,3.24,1.82,3.37,2.07,3.22,1.73,3.43Z"/><path class="cls-3" d="M117.58,113.71l1.88-3.07,1.62-3.14,2.08-2.88,1.73-3.09,1.55-2.68,1.46-2.74,1.64-2.64,0-3.52-3-1.6-3.1.17-3.1-.17-3.1-.14-3.5.22-3.5,0-3.51,0-3.54,0-1.6-2.91-1.78-2.76-1.59-2.88-1.46-3-1.55-2.71-1.48-2.75-1.75-2.59L89,67.21l-3,1.55-1.49,2.74-1.64,2.66-1.39,2.8L79.68,79.7l-1.42,3L76.5,85.47l-1.66,2.8-3.49,0-3.53.07-3.53.13-3.53-.15-3.09,0-3.1,0-3.1.13L48.68,90.1l-.19,3.32,1.46,2.73,1.68,2.61,1.62,2.64,1.56,3.2,1.77,3.08,1.91,3,1.57,3.1-1.63,3L56.83,120,55,123l-2,2.93-1.55,2.68-1.55,2.69-1.39,2.78.13,3.29,2.79,1.76,3.1.12,3.1-.25,3.1.1,3.5.18,3.5-.22,3.51.14h3.47L76.38,142l1.68,2.82,1.64,2.85,1.66,2.84L83,153.18l1.3,2.85,1.56,2.71,3,1.55,2.93-1.61L93.38,156,95,153.31l1.45-2.77,1.78-2.77,1.69-2.83,1.44-3,1.76-2.72,3.47-.15,3.53.09,3.53.12,3.53-.19,3.09,0,3.1-.16,3.1.11,2.8-1.72,0-3.25-1.43-2.75-1.52-2.7-1.64-2.63-1.8-3.06-1.6-3.17-1.93-3Zm-9.83,0-2,3.34-1.78,3.42-2.24,3.16L99.8,127l-1.88,3.28-3.55.08-3.63-.1-3.63,0-3.64.15-3.73.14-1.82-3.47-1.78-3.39L74,120.48l-1.94-3.3-1.89-3.39,2-3.37,2-3.3,1.78-3.42,2-3.32L80,97.17l3.59,0,3.63.09L90.82,97l3.64,0,3.58.19,1.93,3.24,1.82,3.37,2.07,3.22,1.73,3.43Z"/><polygon class="cls-2" points="117.63 96.63 115.98 99.49 114.32 102.36 112.67 105.25 111.03 102.37 109.38 99.5 107.74 96.63 111.03 96.62 114.33 96.63 117.63 96.63"/><polygon class="cls-3" points="117.63 96.63 115.98 99.49 114.32 102.36 112.67 105.25 111.03 102.37 109.38 99.5 107.74 96.63 111.03 96.62 114.33 96.63 117.63 96.63"/><polygon class="cls-2" points="89.04 81 91.26 84.89 93.49 88.77 89.03 88.78 84.56 88.77 86.8 84.89 89.04 81"/><polygon class="cls-3" points="89.04 81 91.26 84.89 93.49 88.77 89.03 88.78 84.56 88.77 86.8 84.89 89.04 81"/><polygon class="cls-2" points="60.3 130.85 61.95 127.99 63.6 125.12 65.25 122.23 66.89 125.12 68.54 127.99 70.19 130.86 66.9 130.88 63.59 130.86 60.3 130.85"/><polygon class="cls-3" points="60.3 130.85 61.95 127.99 63.6 125.12 65.25 122.23 66.89 125.12 68.54 127.99 70.19 130.86 66.9 130.88 63.59 130.86 60.3 130.85"/><polygon class="cls-2" points="88.89 146.46 86.68 142.59 84.46 138.73 88.9 138.71 93.35 138.72 91.11 142.59 88.89 146.46"/><polygon class="cls-3" points="88.89 146.46 86.68 142.59 84.46 138.73 88.9 138.71 93.35 138.72 91.11 142.59 88.89 146.46"/><polygon class="cls-2" points="107.64 130.87 109.31 127.97 110.99 125.08 112.66 122.16 114.3 125.07 115.96 127.97 117.62 130.86 114.31 130.85 110.98 130.84 107.64 130.87"/><polygon class="cls-3" points="107.64 130.87 109.31 127.97 110.99 125.08 112.66 122.16 114.3 125.07 115.96 127.97 117.62 130.86 114.31 130.85 110.98 130.84 107.64 130.87"/><polygon class="cls-2" points="60.29 96.62 63.62 96.61 66.95 96.62 70.27 96.63 68.62 99.52 66.93 102.41 65.27 105.33 63.61 102.42 61.94 99.53 60.29 96.62"/><polygon class="cls-3" points="60.29 96.62 63.62 96.61 66.95 96.62 70.27 96.63 68.62 99.52 66.93 102.41 65.27 105.33 63.61 102.42 61.94 99.53 60.29 96.62"/></g></svg>
