<svg xmlns="http://www.w3.org/2000/svg" viewBox="0 0 250 250"><defs><style>.cls-1{fill:#f8f8f8;}.cls-2{fill:#fff;}.cls-3{fill:none;stroke:#3e82f7;stroke-miterlimit:10;stroke-width:3px;}.cls-4{fill:#3e82f7;}</style></defs><title>icon-partners-foundations</title><g id="Base_Dots" data-name="Base Dots"><circle class="cls-1" cx="125" cy="125" r="100"/></g><g id="Artwork"><polygon class="cls-2" points="76.54 91.68 73.12 91.42 69.6 91.75 66.19 91.7 66.13 95.16 66.19 98.75 66.21 102.32 65.95 105.9 66.13 109.49 66.19 113.07 66.22 116.65 66.13 120.23 65.94 123.81 66.11 127.39 65.95 130.97 66.19 134.55 66.06 138.13 65.99 141.71 66.15 145.29 66 148.87 66.19 152.45 66.18 156.03 65.88 159.62 65.98 163.2 66.24 166.78 66.14 170.37 66.21 173.95 66.25 177.54 66.13 181.12 66.06 184.71 66.12 188.26 69.59 188.35 73.11 188.43 76.73 188.39 76.45 184.72 76.77 181.14 76.76 177.56 76.56 173.98 76.71 170.4 76.62 166.82 76.65 163.24 76.7 159.66 76.81 156.08 76.5 152.5 76.81 148.91 76.71 145.34 76.7 141.75 76.53 138.18 76.53 134.59 76.69 131.02 76.81 127.43 76.62 123.85 76.74 120.27 76.53 116.69 76.71 113.1 76.52 109.52 76.54 105.93 76.52 102.35 76.72 98.77 76.67 95.17 76.54 91.68"/><polygon class="cls-3" points="76.54 91.68 73.12 91.42 69.6 91.75 66.19 91.7 66.13 95.16 66.19 98.75 66.21 102.32 65.95 105.9 66.13 109.49 66.19 113.07 66.22 116.65 66.13 120.23 65.94 123.81 66.11 127.39 65.95 130.97 66.19 134.55 66.06 138.13 65.99 141.71 66.15 145.29 66 148.87 66.19 152.45 66.18 156.03 65.88 159.62 65.98 163.2 66.24 166.78 66.14 170.37 66.21 173.95 66.25 177.54 66.13 181.12 66.06 184.71 66.12 188.26 69.59 188.35 73.11 188.43 76.73 188.39 76.45 184.72 76.77 181.14 76.76 177.56 76.56 173.98 76.71 170.4 76.62 166.82 76.65 163.24 76.7 159.66 76.81 156.08 76.5 152.5 76.81 148.91 76.71 145.34 76.7 141.75 76.53 138.18 76.53 134.59 76.69 131.02 76.81 127.43 76.62 123.85 76.74 120.27 76.53 116.69 76.71 113.1 76.52 109.52 76.54 105.93 76.52 102.35 76.72 98.77 76.67 95.17 76.54 91.68"/><polygon class="cls-2" points="186.88 91.63 183.4 91.45 179.88 91.66 176.43 91.66 176.19 95.16 176.44 98.75 176.28 102.32 176.35 105.9 176.28 109.49 176.32 113.07 176.45 116.65 176.19 120.23 176.3 123.81 176.38 127.39 176.4 130.97 176.47 134.55 176.26 138.13 176.52 141.71 176.28 145.29 176.47 148.87 176.47 152.45 176.49 156.03 176.22 159.62 176.4 163.2 176.43 166.78 176.23 170.37 176.35 173.95 176.28 177.54 176.17 181.12 176.19 184.71 176.41 188.25 179.87 188.35 183.4 188.17 187.01 188.39 186.9 184.72 187.07 181.14 186.74 177.56 187.02 173.98 187.1 170.4 186.73 166.82 186.85 163.24 186.92 159.66 186.99 156.08 186.86 152.5 186.97 148.91 186.99 145.34 186.76 141.75 186.81 138.18 187.08 134.59 187.09 131.02 187.05 127.43 186.86 123.85 186.85 120.27 186.83 116.69 187.04 113.1 186.81 109.52 186.83 105.93 186.96 102.35 186.87 98.77 187.04 95.17 186.88 91.63"/><polygon class="cls-3" points="186.88 91.63 183.4 91.45 179.88 91.66 176.43 91.66 176.19 95.16 176.44 98.75 176.28 102.32 176.35 105.9 176.28 109.49 176.32 113.07 176.45 116.65 176.19 120.23 176.3 123.81 176.38 127.39 176.4 130.97 176.47 134.55 176.26 138.13 176.52 141.71 176.28 145.29 176.47 148.87 176.47 152.45 176.49 156.03 176.22 159.62 176.4 163.2 176.43 166.78 176.23 170.37 176.35 173.95 176.28 177.54 176.17 181.12 176.19 184.71 176.41 188.25 179.87 188.35 183.4 188.17 187.01 188.39 186.9 184.72 187.07 181.14 186.74 177.56 187.02 173.98 187.1 170.4 186.73 166.82 186.85 163.24 186.92 159.66 186.99 156.08 186.86 152.5 186.97 148.91 186.99 145.34 186.76 141.75 186.81 138.18 187.08 134.59 187.09 131.02 187.05 127.43 186.86 123.85 186.85 120.27 186.83 116.69 187.04 113.1 186.81 109.52 186.83 105.93 186.96 102.35 186.87 98.77 187.04 95.17 186.88 91.63"/><polygon class="cls-2" points="155.74 141.07 155.69 141.01 155.83 141.15 157.68 138.24 159.14 135.14 159.89 131.8 160.2 128.37 159.6 124.71 158.13 121.32 156.06 118.27 153.46 115.65 150.3 113.74 146.87 112.41 143.21 111.8 139.27 112.16 135.5 113.35 132.14 115.41 129.3 118.12 127.04 121.46 124.86 118.05 121.95 115.4 118.55 113.43 114.78 112.34 110.87 111.93 107.19 112.34 103.8 113.79 100.65 115.69 97.99 118.25 96 121.34 94.64 124.76 93.99 128.38 94.16 131.8 94.97 135.13 96.4 138.24 98.33 141.08 100.64 143.68 103 146.25 105.33 148.83 107.71 151.38 109.99 154.01 112.27 156.65 114.57 159.26 116.98 161.79 119.31 164.39 121.7 166.95 125 169.24 129.08 169.26 132.44 167 134.75 164.39 137.16 161.88 139.44 159.24 141.79 156.68 144.06 154.03 146.51 151.55 148.74 148.86 151.02 146.22 153.51 143.76 155.74 141.07"/><polygon class="cls-3" points="155.74 141.07 155.69 141.01 155.83 141.15 157.68 138.24 159.14 135.14 159.89 131.8 160.2 128.37 159.6 124.71 158.13 121.32 156.06 118.27 153.46 115.65 150.3 113.74 146.87 112.41 143.21 111.8 139.27 112.16 135.5 113.35 132.14 115.41 129.3 118.12 127.04 121.46 124.86 118.05 121.95 115.4 118.55 113.43 114.78 112.34 110.87 111.93 107.19 112.34 103.8 113.79 100.65 115.69 97.99 118.25 96 121.34 94.64 124.76 93.99 128.38 94.16 131.8 94.97 135.13 96.4 138.24 98.33 141.08 100.64 143.68 103 146.25 105.33 148.83 107.71 151.38 109.99 154.01 112.27 156.65 114.57 159.26 116.98 161.79 119.31 164.39 121.7 166.95 125 169.24 129.08 169.26 132.44 167 134.75 164.39 137.16 161.88 139.44 159.24 141.79 156.68 144.06 154.03 146.51 151.55 148.74 148.86 151.02 146.22 153.51 143.76 155.74 141.07"/><polygon class="cls-4" points="198.45 204.78 194.86 204.68 191.27 204.79 187.69 204.71 184.1 204.81 180.51 204.87 176.92 204.71 173.33 205.01 169.75 204.72 166.16 204.87 162.57 204.83 158.98 204.82 155.39 204.88 151.8 204.73 148.21 205.18 144.62 205.22 141.03 205.26 137.44 204.97 133.85 204.78 130.26 204.67 126.66 205.03 123.07 204.94 119.48 205.03 115.89 204.75 112.3 204.68 108.71 204.71 105.12 205.15 101.53 205.17 97.94 204.68 94.35 205.24 90.76 204.97 87.17 205.21 83.57 205 79.98 205.08 76.38 204.97 72.79 205.14 69.2 204.68 65.6 205.27 62.01 204.69 58.41 205.05 54.81 204.71 51.6 204.55 49.09 202.51 47.49 199.83 46.81 196.8 46.77 193.14 47.44 190.09 49.22 187.56 51.65 185.53 54.81 185.22 58.4 184.79 61.98 184.8 65.57 184.75 69.16 184.66 72.75 184.66 76.33 184.95 79.92 185.29 83.51 185.13 87.1 184.95 90.69 184.69 94.28 185.15 97.87 185.18 101.46 184.75 105.05 185.14 108.64 185.12 112.23 185.11 115.82 184.71 119.41 185.27 123 185.15 126.59 185.03 130.18 184.82 133.78 185.19 137.37 184.96 140.96 185.17 144.55 184.65 148.14 185.01 151.73 184.7 155.32 184.91 158.91 185.05 162.5 184.93 166.09 185.15 169.69 185.19 173.28 185.29 176.87 184.82 180.47 185 184.06 184.92 187.66 184.79 191.25 185.24 194.85 184.95 198.45 185.03 201.65 185.41 204.33 187.26 206.2 189.93 206.52 193.14 206.81 196.8 205.97 199.92 204.37 202.72 201.66 204.56 198.45 204.78"/><polygon class="cls-4" points="41.77 86.47 44.74 84.28 48.19 83.06 51.48 81.53 54.61 79.66 58 78.31 61.07 76.33 64.38 74.82 67.76 73.47 70.86 71.56 74.11 69.93 77.28 68.16 80.47 66.42 83.91 65.17 87.16 63.54 90.38 61.85 93.65 60.27 97 58.84 100.08 56.88 103.23 55.05 106.58 53.63 109.79 51.91 113.14 50.47 116.41 48.87 119.74 47.38 122.88 45.51 127.04 45.67 130.25 47.38 133.46 49.08 136.85 50.43 139.99 52.26 143.38 53.62 146.48 55.54 149.97 56.68 153.15 58.46 156.31 60.24 159.51 61.95 162.81 63.47 166.2 64.81 169.28 66.79 172.52 68.42 175.97 69.65 178.98 71.76 182.47 72.9 185.5 74.98 188.83 76.45 192.08 78.07 195.44 79.48 198.59 81.32 201.74 83.14 205.27 84.24 208.31 86.3 210.6 88.37 210.94 91.5 209.21 94.11 206.27 95.32 202.66 94.83 199.05 95.37 195.45 95.12 191.84 95.04 188.23 95.07 184.62 95.16 181.01 95.31 177.4 95.17 173.79 95.33 170.19 94.98 166.57 95.17 162.96 95.1 159.35 94.99 155.74 95.28 152.13 95.41 148.52 95.26 144.91 95.39 141.3 95.36 137.69 94.97 134.08 95.26 130.47 94.81 126.85 94.98 123.24 95.41 119.63 95.06 116.02 95.33 112.41 95.05 108.79 95.28 105.18 94.99 101.57 94.82 97.95 95.1 94.34 94.82 90.73 95.17 87.12 95.4 83.51 94.8 79.89 95.36 76.28 95.06 72.67 95.21 69.05 95.29 65.44 95.38 61.82 95.01 58.21 95.05 54.59 95.11 50.98 95.07 47.35 95.06 43.73 94.95 40.78 94.13 39.38 91.42 39.53 88.43 41.77 86.47"/></g></svg>
