<svg xmlns="http://www.w3.org/2000/svg" viewBox="0 0 250 250"><defs><style>.cls-1{fill:#f8f8f8;}.cls-2{fill:#fff;}.cls-3,.cls-4{fill:none;stroke:#3e82f7;stroke-width:3px;}.cls-3{stroke-miterlimit:10;}.cls-4{stroke-linejoin:round;}.cls-5{fill:#3e82f7;}</style></defs><title>icon-custom-feedback</title><g id="Base_Dots" data-name="Base Dots"><circle class="cls-1" cx="125" cy="125" r="100"/></g><g id="Artwork"><polygon class="cls-2" points="197.86 38.52 196.39 38.78 195.07 39.46 193.57 40.51 192.03 41.51 190.5 42.52 188.95 43.51 187.44 44.55 185.99 45.69 184.46 46.71 182.94 47.74 181.32 48.62 179.82 49.68 178.36 50.8 176.73 51.66 175.24 52.75 173.66 53.7 172.17 54.78 170.73 55.94 169.11 56.78 167.36 56.85 165.58 56.9 163.8 56.89 162.01 57.01 160.23 56.76 158.45 56.85 156.67 56.98 154.89 57.03 153.11 56.91 151.33 56.89 149.54 57.01 147.76 57.02 145.98 56.88 144.2 56.8 142.41 56.76 140.63 57.01 138.84 56.83 137.06 56.79 135.28 56.9 133.49 56.78 131.7 56.93 129.92 56.88 128.13 56.76 126.34 56.89 124.56 56.89 122.78 56.96 120.99 57.01 119.2 56.84 117.42 56.84 115.63 56.87 113.84 56.85 112.04 56.77 110.25 56.91 108.42 57.13 106.59 57.44 104.88 58.13 103.21 58.94 101.72 60.05 100.35 61.32 99.32 62.87 98.37 64.47 97.68 66.2 97.25 68.03 97.24 69.89 97.15 71.71 97.27 73.53 97.13 75.34 97.35 77.16 97.28 78.98 97.21 80.79 97.17 82.6 97.22 84.42 97.34 86.23 97.19 88.05 97.19 89.86 97.36 91.68 97.14 93.5 97.36 95.31 97.16 97.13 97.23 98.95 97.23 100.76 97.32 102.58 97.23 104.4 97.14 106.22 97.38 108.04 97.19 109.86 97.26 111.68 97.28 113.5 97.24 115.31 97.33 117.14 97.13 118.95 97.35 120.77 97.25 122.6 97.22 124.42 97.23 126.24 97.26 128.07 97.33 129.9 97.4 131.74 97.85 133.53 98.37 135.32 99.33 136.91 100.42 138.41 101.7 139.76 103.26 140.78 104.9 141.62 106.6 142.32 108.42 142.66 110.25 142.8 112.05 142.96 113.84 142.84 115.64 143.02 117.44 142.95 119.24 142.78 121.03 142.92 122.83 142.82 124.63 142.93 126.42 142.83 128.22 142.95 130.01 143.02 131.81 142.91 133.61 143.01 135.41 142.88 137.21 142.79 139.01 143.02 140.8 142.8 142.6 142.92 144.4 142.86 146.2 142.83 148 142.8 149.79 142.94 151.59 142.92 153.39 142.9 155.19 142.92 156.99 142.92 158.79 142.96 160.59 142.9 162.38 143 164.18 142.94 165.98 142.98 167.78 143.02 169.58 142.97 171.38 143 173.17 142.96 174.96 142.94 176.76 143.01 178.56 142.88 180.36 143 182.16 142.94 183.96 142.96 185.75 142.96 187.55 142.93 189.35 143 191.15 142.81 192.95 142.79 194.75 142.77 196.56 142.9 198.36 142.97 200.16 143.02 201.96 142.87 203.76 142.91 205.56 142.87 207.36 142.99 209.16 143.02 210.97 143 212.77 142.82 214.57 142.81 216.38 143.02 218.19 142.78 220 142.9 221.84 142.66 223.66 142.36 225.38 141.68 227.03 140.83 228.46 139.66 229.91 138.49 230.83 136.85 231.93 135.34 232.44 133.55 232.98 131.76 232.91 129.9 233.04 128.08 233.11 126.26 233.07 124.45 233.06 122.63 233.08 120.81 233.12 119 232.97 117.19 233.1 115.38 232.93 113.56 232.93 111.74 232.91 109.93 232.87 108.11 232.87 106.3 232.99 104.48 233.13 102.66 233.07 100.84 232.99 99.03 232.88 97.21 233.07 95.39 233.09 93.57 232.91 91.75 233.07 89.93 233.06 88.11 233.06 86.29 232.89 84.48 233.13 82.66 233.08 80.84 233.02 79.02 232.94 77.19 233.09 75.37 232.99 73.55 233.08 71.72 232.87 69.89 232.89 68.04 232.36 66.27 231.8 64.51 230.96 62.85 229.81 61.4 228.56 60.02 227.08 58.88 225.46 57.95 223.64 57.48 221.85 57.01 220 56.92 218.29 56.97 216.58 56.78 214.87 56.91 213.16 56.87 211.45 56.98 209.73 56.95 208.02 56.99 206.3 56.85 204.59 56.97 202.88 56.89 202.78 55 202.77 53.11 202.85 51.21 202.77 49.32 202.98 47.42 202.77 45.52 202.8 43.62 202.4 41.74 201.46 40.02 199.82 38.89 197.86 38.52"/><polygon class="cls-2" points="220 140.01 218.2 139.77 216.41 139.85 214.61 139.81 212.81 139.81 211.01 139.91 209.22 139.98 207.42 139.87 205.62 139.92 203.83 139.95 202.03 139.99 200.24 139.78 198.44 140 196.64 139.98 194.84 139.97 193.04 139.99 191.24 139.87 189.45 139.83 187.65 140 185.85 139.9 184.05 140.02 182.25 139.82 180.46 139.88 178.66 139.89 176.86 139.82 175.06 139.88 173.26 140 171.46 140.01 169.66 139.89 167.87 140.01 166.07 139.76 164.27 139.79 162.47 139.82 160.67 139.89 158.88 140 157.08 139.79 155.29 139.91 153.49 139.96 151.69 139.81 149.89 139.92 148.09 139.96 146.29 139.78 144.5 140.01 142.7 139.81 140.9 139.88 139.1 139.94 137.3 139.79 135.5 139.79 133.69 139.88 131.89 139.9 130.09 139.86 128.29 139.9 126.49 139.91 124.69 139.81 122.89 139.8 121.08 139.79 119.28 139.81 117.48 139.79 115.67 139.87 113.87 140 112.06 139.91 110.25 139.78 108.53 139.68 106.86 139.19 105.26 138.54 103.82 137.56 102.52 136.38 101.59 134.89 100.78 133.34 100.28 131.65 100.14 129.9 100.17 128.08 100.22 126.26 100.32 124.45 100.16 122.63 100.25 120.81 100.22 119 100.26 117.19 100.18 115.38 100.32 113.56 100.19 111.74 100.23 109.93 100.21 108.11 100.28 106.3 100.35 104.48 100.19 102.66 100.16 100.84 100.17 99.03 100.19 97.21 100.13 95.39 100.14 93.57 100.23 91.75 100.23 89.93 100.34 88.11 100.3 86.29 100.36 84.48 100.26 82.66 100.27 80.84 100.2 79.02 100.38 77.19 100.23 75.37 100.14 73.55 100.36 71.72 100.15 69.89 100.39 68.16 100.93 66.5 101.54 64.86 102.64 63.51 103.8 62.2 105.31 61.34 106.8 60.43 108.52 60.1 110.25 59.95 112.06 60 113.87 59.78 115.68 59.98 117.5 59.86 119.3 59.95 121.11 59.86 122.92 59.97 124.72 59.8 126.53 59.81 128.34 59.8 130.16 59.99 131.97 59.88 133.78 59.98 135.59 59.85 137.4 59.96 139.21 59.88 141.02 59.93 142.83 59.94 144.65 59.97 146.46 59.97 148.27 59.88 150.09 59.84 151.9 59.77 153.72 59.98 155.52 59.91 157.34 59.92 159.15 59.86 160.97 59.9 162.78 59.89 164.6 60.02 166.42 59.84 168.24 59.9 170.06 59.9 171.61 59.01 172.97 57.83 174.44 56.82 176.03 55.98 177.45 54.9 179 54.01 180.37 52.84 181.98 52.03 183.43 50.99 184.84 49.89 186.38 48.98 187.86 47.98 189.28 46.9 190.83 45.99 192.33 45.02 193.71 43.87 195.29 42.99 196.74 41.94 198.86 41.75 199.98 43.62 199.99 45.42 199.92 47.23 199.85 49.03 199.82 50.84 199.76 52.65 199.9 54.46 199.96 56.27 199.76 58.08 199.88 59.88 201.7 59.94 203.53 59.78 205.35 59.82 207.18 59.99 209.01 59.91 210.84 59.9 212.67 59.96 214.5 59.8 216.33 59.8 218.16 59.93 220 59.85 221.74 60.02 223.41 60.53 225.02 61.2 226.49 62.16 227.59 63.53 228.61 64.92 229.31 66.51 229.86 68.16 230.06 69.89 230 71.71 230.05 73.53 229.93 75.34 230.11 77.16 229.9 78.98 230.01 80.79 230.03 82.6 230.02 84.42 229.95 86.23 229.95 88.05 229.91 89.86 229.96 91.68 229.98 93.5 230.01 95.31 230.04 97.13 229.9 98.95 230.05 100.76 230.07 102.58 229.9 104.4 230.01 106.22 229.92 108.04 229.91 109.86 229.99 111.68 229.88 113.5 230.12 115.31 230.07 117.14 229.95 118.95 229.95 120.77 230.02 122.6 229.97 124.42 229.92 126.24 229.89 128.07 229.93 129.9 229.78 131.62 229.49 133.35 228.73 134.94 227.68 136.34 226.51 137.65 225.06 138.66 223.4 139.23 221.74 139.74 220 140.01"/><polygon class="cls-2" points="225 134.93 223.2 134.8 221.41 134.82 219.61 134.81 217.81 134.9 216.01 134.99 214.22 134.93 212.42 134.85 210.62 134.97 208.83 134.88 207.03 134.85 205.24 135.02 203.44 134.86 201.64 134.87 199.84 134.98 198.04 134.93 196.24 134.98 194.45 134.9 192.65 134.84 190.85 134.8 189.05 134.99 187.25 134.91 185.46 134.88 183.66 134.79 181.86 134.78 180.06 134.82 178.26 134.95 176.46 134.8 174.66 134.78 172.87 134.8 171.07 134.81 169.27 134.9 167.47 134.98 165.67 134.81 163.88 134.84 162.08 134.78 160.29 134.85 158.49 134.82 156.69 134.91 154.89 134.89 153.09 134.94 151.29 134.96 149.5 134.79 147.7 134.87 145.9 134.87 144.1 134.96 142.3 134.88 140.5 134.86 138.69 134.91 136.89 134.89 135.09 134.96 133.29 134.86 131.49 134.99 129.69 134.99 127.89 135.01 126.08 135.02 124.28 134.91 122.48 134.82 120.67 134.96 118.87 134.9 117.06 134.94 115.25 134.97 113.52 134.69 111.81 134.34 110.3 133.47 108.76 132.62 107.49 131.4 106.55 129.92 105.78 128.34 105.43 126.63 105.17 124.89 105.31 123.08 105.13 121.26 105.19 119.45 105.31 117.63 105.21 115.81 105.18 114 105.3 112.19 105.33 110.38 105.28 108.56 105.18 106.74 105.24 104.93 105.36 103.11 105.28 101.3 105.15 99.48 105.14 97.66 105.2 95.84 105.22 94.03 105.31 92.21 105.36 90.39 105.24 88.57 105.37 86.75 105.13 84.93 105.22 83.11 105.23 81.29 105.3 79.48 105.33 77.66 105.33 75.84 105.34 74.02 105.31 72.19 105.22 70.37 105.16 68.55 105.22 66.72 105.2 64.89 105.41 63.16 105.95 61.51 106.69 59.95 107.56 58.44 108.84 57.25 110.2 56.15 111.8 55.41 113.49 54.92 115.25 54.87 117.06 54.91 118.87 54.97 120.68 54.98 122.5 54.95 124.3 55.01 126.11 54.97 127.92 54.77 129.72 54.77 131.53 54.86 133.34 54.82 135.16 54.8 136.97 55.02 138.78 54.84 140.59 54.88 142.4 54.99 144.21 54.85 146.02 54.89 147.83 54.87 149.65 54.89 151.46 54.78 153.27 54.82 155.09 54.83 156.9 54.88 158.72 54.8 160.52 54.82 162.34 54.86 164.15 54.8 165.97 54.87 167.78 54.79 169.6 54.87 171.42 54.92 173.24 54.78 175.03 54.78 176.48 53.81 178.08 52.99 179.47 51.86 181.03 50.98 182.47 49.93 183.91 48.86 185.49 48.01 186.86 46.85 188.43 45.99 189.86 44.93 191.4 44.02 192.78 42.87 194.35 42 195.76 40.88 197.25 39.9 198.83 39.04 200.3 38.01 201.75 36.95 203.87 36.74 204.74 38.62 204.85 40.42 204.92 42.23 204.87 44.03 204.95 45.84 204.83 47.65 205 49.46 204.96 51.27 204.86 53.08 204.84 54.93 206.7 54.84 208.53 54.89 210.35 55.02 212.18 54.98 214.01 54.78 215.84 54.96 217.67 55.01 219.5 54.77 221.33 54.8 223.16 54.77 225 54.78 226.75 54.99 228.39 55.59 229.95 56.32 231.43 57.23 232.61 58.51 233.77 59.83 234.44 61.46 234.89 63.15 235.12 64.89 235.05 66.71 234.98 68.53 234.87 70.34 235.01 72.16 235.07 73.98 235.02 75.79 234.98 77.6 234.98 79.42 234.94 81.23 235.11 83.05 234.97 84.86 234.94 86.68 234.87 88.5 235.09 90.31 235.08 92.13 235.08 93.95 235.09 95.76 234.88 97.58 235.11 99.4 235.11 101.22 235.07 103.04 235.03 104.86 234.9 106.68 235.11 108.5 235.12 110.31 235.07 112.14 235.06 113.95 235.02 115.77 234.89 117.6 234.91 119.42 235.06 121.24 235.05 123.07 235.11 124.89 234.75 126.61 234.49 128.35 233.64 129.88 232.63 131.3 231.51 132.65 230.06 133.66 228.39 134.22 226.73 134.7 225 134.93"/><polygon class="cls-3" points="220 139.87 218.2 140.02 216.41 139.87 214.61 139.92 212.81 139.99 211.01 139.91 209.22 139.97 207.42 139.86 205.62 139.86 203.83 139.9 202.03 139.91 200.24 139.95 198.44 139.91 196.64 139.93 194.84 139.91 193.04 139.81 191.24 139.89 189.45 139.92 187.65 139.88 185.85 139.9 184.05 139.91 182.25 139.82 180.46 139.99 178.66 139.88 176.86 139.97 175.06 139.87 173.26 139.8 171.46 139.93 169.66 139.94 167.87 139.94 166.07 139.87 164.27 139.97 162.47 139.79 160.67 139.93 158.88 139.93 157.08 139.86 155.29 139.88 153.49 139.81 151.69 139.92 149.89 139.92 148.09 139.85 146.29 139.9 144.5 139.79 142.7 139.78 140.9 139.98 139.1 139.86 137.3 139.8 135.5 139.95 133.69 139.85 131.89 139.83 130.09 139.93 128.29 139.97 126.49 140 124.69 139.9 122.89 139.9 121.08 139.91 119.28 139.89 117.48 139.84 115.67 139.89 113.87 140.01 112.06 139.91 110.25 139.98 108.5 139.83 106.8 139.38 105.22 138.6 103.9 137.46 102.61 136.31 101.65 134.86 100.82 133.33 100.33 131.65 100.23 129.9 100.34 128.08 100.29 126.26 100.29 124.45 100.37 122.63 100.29 120.81 100.18 119 100.24 117.19 100.24 115.38 100.21 113.56 100.27 111.74 100.23 109.93 100.27 108.11 100.28 106.3 100.19 104.48 100.2 102.66 100.35 100.84 100.13 99.03 100.19 97.21 100.33 95.39 100.19 93.57 100.18 91.75 100.17 89.93 100.14 88.11 100.3 86.29 100.26 84.48 100.28 82.66 100.33 80.84 100.16 79.02 100.16 77.19 100.14 75.37 100.15 73.55 100.33 71.72 100.14 69.89 100.47 68.17 100.77 66.44 101.57 64.88 102.67 63.53 103.8 62.21 105.3 61.31 106.84 60.52 108.52 60.09 110.25 59.9 112.06 59.91 113.87 59.91 115.68 59.8 117.5 59.9 119.3 59.93 121.11 59.86 122.92 59.8 124.72 59.9 126.53 59.93 128.34 59.79 130.16 60.02 131.97 60.02 133.78 59.89 135.59 59.92 137.4 59.85 139.21 59.87 141.02 59.8 142.83 59.81 144.65 59.81 146.46 59.87 148.27 59.96 150.09 60.02 151.9 59.96 153.72 59.99 155.52 59.88 157.34 59.89 159.15 59.83 160.97 59.89 162.78 59.94 164.6 59.94 166.42 59.86 168.24 59.85 170.06 59.9 171.53 58.88 172.97 57.83 174.53 56.96 176 55.95 177.53 55.02 178.91 53.87 180.49 53.02 181.89 51.9 183.38 50.92 184.85 49.92 186.32 48.9 187.86 47.99 189.28 46.89 190.88 46.06 192.22 44.85 193.78 43.97 195.26 42.95 196.74 41.94 198.82 41.82 199.94 43.62 199.87 45.42 199.97 47.23 199.85 49.03 199.92 50.84 199.77 52.65 199.91 54.46 199.81 56.27 199.84 58.08 199.96 59.8 201.7 59.84 203.53 59.96 205.35 59.8 207.18 59.88 209.01 59.84 210.84 59.77 212.67 59.88 214.5 59.92 216.33 59.87 218.16 59.78 220 59.89 221.75 59.97 223.4 60.54 224.95 61.32 226.38 62.29 227.58 63.54 228.64 64.91 229.43 66.46 229.73 68.18 230.1 69.89 230.02 71.71 230.1 73.53 229.98 75.34 229.93 77.16 230.12 78.98 230.09 80.79 229.88 82.6 229.94 84.42 229.87 86.23 230 88.05 230.08 89.86 229.88 91.68 229.93 93.5 230.1 95.31 229.99 97.13 229.96 98.95 230.08 100.76 229.96 102.58 229.92 104.4 230.08 106.22 230.07 108.04 229.88 109.86 229.91 111.68 229.92 113.5 230.07 115.31 229.93 117.14 229.93 118.95 229.87 120.77 229.93 122.6 230.06 124.42 229.94 126.24 229.93 128.07 229.87 129.9 229.95 131.65 229.39 133.31 228.72 134.93 227.57 136.25 226.39 137.52 224.96 138.48 223.41 139.25 221.76 139.86 220 139.87"/><polyline class="cls-3" points="119.99 79.99 121.78 80.1 123.58 80.06 125.37 79.96 127.17 79.94 128.96 80 130.76 80.09 132.55 80.01 134.34 79.95 136.14 79.95 137.94 79.98 139.73 80.05 141.53 79.94 143.32 80.08 145.12 80.05 146.91 79.97 148.71 80.09 150.5 80.06 152.3 80.1 154.1 80.03 155.89 80.09 157.69 79.96 159.48 80.1 161.28 80.1 163.07 79.94 164.86 79.94 166.65 80.06 168.45 79.95 170.24 80.02 172.04 80 173.83 79.95 175.63 79.97 177.43 79.94 179.22 80.09 181.02 79.94 182.81 79.98 184.61 79.98 186.41 79.94 188.21 79.97 190.01 79.99 191.81 80.03 193.61 79.97 195.4 79.97 197.2 80.03 199 80.01 200.8 79.93 202.6 80.06 204.4 79.99 206.2 80.03 208.01 80 209.81 79.96"/><polyline class="cls-3" points="119.99 100.09 121.78 100.08 123.58 99.95 125.37 100.06 127.17 99.98 128.96 100.01 130.76 100.03 132.55 100.04 134.34 100.04 136.14 100.08 137.94 99.98 139.73 100.03 141.53 99.95 143.32 100.07 145.12 100.02 146.91 99.98 148.71 100.1 150.5 100 152.3 100.01 154.1 100.06 155.89 100.02 157.69 100.07 159.48 99.99 161.28 99.94 163.07 99.96 164.86 100.11 166.65 99.94 168.45 100.03 170.24 99.95 172.04 100.05 173.83 99.94 175.63 99.94 177.43 100.07 179.22 99.95 181.02 100.02 182.81 100.01 184.61 99.98 186.41 100.06 188.21 100.1 190.01 100.05 191.81 100.01 193.61 100.09 195.4 100.09 197.2 100.04 199 100.01 200.8 100.03 202.6 99.94 204.4 100.09 206.2 100.03 208.01 100.07 209.81 99.93"/><polyline class="cls-3" points="119.99 110.08 121.8 109.99 123.61 110.06 125.43 109.96 127.24 109.99 129.06 109.97 130.87 110.08 132.69 109.97 134.5 110.08 136.31 110.05 138.13 110.06 139.94 109.95 141.76 109.99 143.57 110.04 145.39 110.02 147.2 109.97 149.02 110.08 150.83 110.06 152.64 109.98 154.45 110.01 156.26 110.04 158.07 109.98 159.89 110.01 161.71 110.05 163.52 110.08 165.33 110 167.15 109.95 168.97 109.96 170.78 109.98 172.59 110.08 174.41 110.07 176.23 109.94 178.05 110.04 179.86 110.05 181.68 110.08 183.5 110.03 185.31 110.04 187.13 109.99 188.95 110.04 190.77 110.06 192.59 110.05 194.41 110 196.23 110.07 198.05 110.05 199.88 110.09"/><polyline class="cls-3" points="119.99 119.95 121.81 119.88 123.62 119.85 125.44 119.95 127.26 119.92 129.07 119.92 130.89 119.92 132.7 119.87 134.51 119.9 136.32 119.94 138.14 119.86 139.96 119.9 141.78 119.91 143.59 119.86 145.41 119.94 147.23 119.9 149.05 119.9 150.86 119.9 152.68 119.91 154.5 119.88 156.32 119.92 158.14 119.84 159.96 119.93 161.78 119.88 163.6 119.83 165.42 119.92 167.24 119.89 169.06 119.89 170.88 119.9 172.7 119.86 174.52 119.89 176.34 119.93 178.17 119.89 180 119.86"/><polyline class="cls-3" points="119.99 90.02 121.8 90.01 123.61 90.05 125.43 90 127.24 90.04 129.06 90.09 130.87 90.06 132.69 90.05 134.5 89.99 136.31 89.97 138.13 89.94 139.94 90.04 141.76 90 143.57 90 145.39 89.94 147.2 90.02 149.02 90.08 150.83 89.97 152.64 90.02 154.45 90.03 156.26 89.98 158.07 89.98 159.89 90 161.71 89.97 163.52 89.96 165.33 89.96 167.15 90.02 168.97 90.03 170.78 90 172.59 90 174.41 89.96 176.23 89.99 178.05 90.03 179.86 90.05 181.68 89.99 183.5 89.99 185.31 89.95 187.13 90.07 188.95 90.08 190.77 90 192.59 89.98 194.41 90.05 196.23 90.01 198.05 90.04 199.88 89.99"/><polygon class="cls-2" points="52.14 220.79 50.17 220.63 48.54 219.48 47.62 217.76 47.09 215.89 47.22 213.98 47.17 212.06 47.2 210.15 47.26 208.23 47.21 206.32 47.14 204.4 47.19 202.46 45.31 202.38 43.52 202.07 41.8 201.44 40.02 201.04 38.29 200.49 36.65 199.7 35.05 198.85 33.37 198.14 31.92 197.03 30.43 195.99 28.91 194.99 27.52 193.82 26.23 192.53 25.04 191.16 23.94 189.71 22.84 188.26 21.84 186.75 20.9 185.19 20.02 183.6 19.46 181.86 18.73 180.19 18.31 178.42 17.77 176.69 17.54 174.89 17.17 173.11 16.98 171.3 16.95 169.48 17.12 167.56 17.03 165.65 17.09 163.74 16.98 161.82 17.07 159.9 17.09 158.11 17.12 156.31 17.42 154.54 17.81 152.78 18.15 151.02 18.64 149.29 19.24 147.59 20.01 145.96 20.89 144.4 21.66 142.76 22.79 141.36 23.79 139.87 24.94 138.5 26.14 137.17 27.33 135.82 28.74 134.71 30.06 133.49 31.6 132.56 33.09 131.56 34.67 130.73 36.25 129.88 37.83 129.01 39.59 128.59 41.25 127.91 43.01 127.55 44.75 127.09 46.54 126.85 48.34 126.83 50.13 126.79 51.91 126.86 53.69 126.89 55.47 126.88 57.25 126.77 59.03 126.75 60.81 126.71 62.59 126.71 64.37 126.7 66.15 126.87 67.94 126.66 69.72 126.88 71.49 126.89 73.27 126.83 75.04 126.7 76.82 126.68 78.6 126.72 80.39 126.89 82.16 126.87 83.94 126.85 85.72 126.73 87.5 126.72 89.29 126.67 91.07 126.71 92.85 126.83 94.63 126.71 96.41 126.74 98.2 126.73 99.98 126.85 101.76 126.9 103.55 126.75 105.33 126.84 107.11 126.79 108.89 126.64 110.68 126.86 112.46 126.69 114.25 126.68 116.04 126.87 117.83 126.65 119.62 126.73 121.41 126.85 123.2 126.98 124.98 127.18 126.72 127.63 128.48 127.97 130.21 128.46 131.9 129.07 133.55 129.79 135.1 130.7 136.64 131.6 138.27 132.39 139.61 133.6 140.97 134.76 142.41 135.84 143.59 137.2 144.84 138.48 146 139.85 147.06 141.3 147.9 142.89 148.89 144.38 149.75 145.96 150.39 147.64 151.05 149.31 151.55 151.04 151.95 152.78 152.42 154.52 152.46 156.33 152.81 158.1 152.65 159.9 152.66 161.81 152.87 163.72 152.71 165.64 152.87 167.56 152.76 169.48 152.7 171.27 152.66 173.07 152.3 174.84 151.98 176.6 151.59 178.35 151.06 180.07 150.45 181.76 149.57 183.34 148.83 184.97 148.06 186.59 147.06 188.09 145.92 189.47 144.76 190.83 143.66 192.26 142.44 193.58 141.01 194.66 139.65 195.84 138.24 196.94 136.69 197.85 135.16 198.81 133.53 199.55 131.89 200.29 130.23 200.99 128.5 201.48 126.72 201.72 125 202.3 123.19 202.35 121.41 202.58 119.62 202.68 117.86 202.61 116.1 202.55 114.34 202.7 112.58 202.5 110.82 202.49 109.06 202.65 107.3 202.54 105.54 202.69 103.78 202.69 102.02 202.63 100.26 202.72 98.49 202.53 96.73 202.55 94.97 202.6 93.21 202.69 91.45 202.71 89.69 202.7 87.92 202.51 86.16 202.65 84.39 202.68 82.62 202.59 80.86 202.63 79.3 203.58 77.88 204.76 76.26 205.64 74.74 206.68 73.31 207.84 71.77 208.84 70.14 209.71 68.62 210.74 67.09 211.75 65.69 212.96 64.16 213.97 62.5 214.8 61 215.87 59.55 217 57.94 217.91 56.38 218.9 54.9 220.01 53.6 220.69 52.14 220.79"/><polygon class="cls-2" points="50.13 129.84 51.91 129.84 53.69 129.67 55.47 129.7 57.25 129.85 59.03 129.74 60.81 129.83 62.59 129.69 64.37 129.7 66.15 129.79 67.94 129.77 69.72 129.81 71.49 129.81 73.27 129.81 75.04 129.77 76.82 129.74 78.6 129.7 80.39 129.67 82.16 129.65 83.94 129.74 85.72 129.72 87.5 129.64 89.29 129.68 91.07 129.79 92.85 129.75 94.63 129.78 96.41 129.8 98.2 129.7 99.98 129.86 101.76 129.8 103.55 129.86 105.33 129.8 107.11 129.89 108.89 129.68 110.68 129.8 112.46 129.7 114.25 129.8 116.04 129.65 117.83 129.88 119.62 129.89 121.44 129.75 123.25 130.02 125.03 130.35 126.84 130.59 128.6 131.06 130.29 131.76 132.02 132.35 133.65 133.17 135.14 134.22 136.67 135.2 138.14 136.26 139.64 137.31 140.94 138.58 142.12 139.97 143.32 141.33 144.32 142.85 145.49 144.26 146.34 145.88 147.08 147.54 147.9 149.18 148.37 150.94 148.78 152.71 149.3 154.46 149.65 156.25 149.75 158.08 149.87 159.9 149.8 161.81 149.72 163.72 149.66 165.64 149.79 167.56 149.77 169.48 149.62 171.29 149.52 173.11 149.16 174.89 148.97 176.72 148.31 178.42 147.87 180.19 147.1 181.85 146.33 183.5 145.41 185.07 144.37 186.56 143.26 188 142.13 189.43 140.99 190.85 139.52 191.95 138.27 193.29 136.73 194.27 135.2 195.26 133.59 196.1 131.98 196.96 130.31 197.67 128.59 198.28 126.86 198.87 125.03 199 123.25 199.34 121.44 199.67 119.62 199.49 117.82 199.71 116.02 199.73 114.22 199.48 112.42 199.74 110.61 199.55 108.81 199.53 107.01 199.55 105.21 199.52 103.41 199.51 101.6 199.67 99.8 199.6 98 199.66 96.19 199.55 94.39 199.56 92.59 199.7 90.79 199.67 88.98 199.49 87.17 199.65 85.37 199.52 83.56 199.53 81.75 199.65 79.94 199.62 78.46 200.61 77.02 201.65 75.51 202.61 73.99 203.56 72.57 204.63 71.02 205.53 69.61 206.64 68.05 207.51 66.61 208.57 65.13 209.57 63.61 210.5 62.15 211.53 60.69 212.56 59.23 213.59 57.78 214.65 56.26 215.6 54.81 216.65 53.32 217.65 51.23 217.57 50.05 215.89 50.1 214.09 50.03 212.28 50.11 210.47 50.07 208.66 50.17 206.85 50.2 205.05 50.03 203.24 50.15 201.42 50.23 199.61 50.13 199.59 48.31 199.51 46.49 199.48 44.68 199.24 42.92 198.73 41.15 198.3 39.45 197.64 37.76 196.96 36.09 196.23 34.51 195.32 32.94 194.38 31.51 193.24 30.16 192.02 28.8 190.81 27.63 189.41 26.48 188.01 25.37 186.57 24.29 185.1 23.41 183.5 22.76 181.79 21.89 180.19 21.47 178.41 20.93 176.68 20.58 174.89 20.3 173.1 20.16 171.29 20.04 169.48 20 167.56 19.99 165.65 19.88 163.74 19.91 161.82 19.93 159.9 20.07 158.08 20.17 156.26 20.62 154.49 20.88 152.69 21.45 150.96 21.88 149.18 22.67 147.54 23.42 145.88 24.35 144.31 25.26 142.73 26.35 141.27 27.55 139.89 28.75 138.51 30.08 137.26 31.51 136.13 33.01 135.08 34.59 134.18 36.08 133.11 37.73 132.34 39.4 131.6 41.2 131.22 42.9 130.56 44.72 130.34 46.49 129.9 48.31 129.81 50.13 129.84"/><polygon class="cls-2" points="45.13 134.79 46.91 134.73 48.69 134.84 50.47 134.69 52.25 134.69 54.03 134.77 55.81 134.86 57.59 134.69 59.37 134.89 61.15 134.82 62.94 134.86 64.72 134.85 66.49 134.85 68.27 134.82 70.04 134.89 71.82 134.7 73.6 134.79 75.39 134.82 77.16 134.85 78.94 134.69 80.72 134.68 82.5 134.8 84.29 134.81 86.07 134.85 87.85 134.79 89.63 134.75 91.41 134.66 93.2 134.65 94.98 134.77 96.76 134.79 98.55 134.68 100.33 134.81 102.11 134.71 103.89 134.69 105.68 134.64 107.46 134.88 109.25 134.89 111.04 134.69 112.83 134.65 114.62 134.79 116.43 134.95 118.26 134.92 120.03 135.34 121.8 135.76 123.55 136.24 125.31 136.73 127.04 137.31 128.61 138.25 130.25 139.04 131.74 140.1 133.14 141.26 134.56 142.39 136.01 143.51 137.26 144.84 138.28 146.36 139.47 147.75 140.45 149.28 141.25 150.93 142.2 152.49 142.77 154.22 143.41 155.93 143.85 157.69 144.37 159.45 144.58 161.26 144.7 163.08 144.74 164.9 144.63 166.81 144.76 168.72 144.77 170.64 144.77 172.56 144.75 174.48 144.57 176.29 144.66 178.13 144.17 179.89 143.76 181.66 143.31 183.42 142.77 185.16 142.11 186.85 141.27 188.47 140.38 190.05 139.48 191.64 138.3 193.03 137.25 194.53 135.95 195.81 134.64 197.09 133.25 198.26 131.8 199.38 130.23 200.31 128.65 201.22 126.97 201.93 125.34 202.75 123.58 203.25 121.8 203.63 120.07 204.25 118.25 204.38 116.44 204.57 114.62 204.52 112.82 204.68 111.02 204.52 109.22 204.5 107.42 204.73 105.61 204.62 103.81 204.54 102.01 204.73 100.21 204.72 98.41 204.68 96.6 204.71 94.8 204.72 93 204.49 91.19 204.61 89.39 204.67 87.59 204.69 85.79 204.59 83.98 204.59 82.17 204.52 80.37 204.51 78.56 204.68 76.75 204.61 74.91 204.51 73.52 205.7 72.03 206.67 70.48 207.57 68.98 208.53 67.52 209.56 66.02 210.53 64.61 211.63 63.09 212.57 61.68 213.68 60.1 214.51 58.6 215.49 57.2 216.62 55.62 217.46 54.21 218.57 52.68 219.5 51.28 220.63 49.76 221.58 48.21 222.49 46.21 222.62 45.15 220.89 45.18 219.09 45.07 217.28 45.2 215.47 45.1 213.66 45.09 211.85 45.26 210.05 45.26 208.24 45.23 206.42 45.19 204.61 45.13 204.55 43.31 204.55 41.5 204.37 39.71 204.08 37.91 203.75 36.19 203.16 34.49 202.54 32.73 202.03 31.14 201.13 29.5 200.34 28.06 199.2 26.47 198.3 25.07 197.12 23.84 195.76 22.67 194.37 21.42 193.05 20.28 191.63 19.23 190.13 18.49 188.46 17.65 186.84 16.89 185.19 16.3 183.46 15.98 181.66 15.43 179.92 15.29 178.1 15.09 176.29 14.92 174.48 14.87 172.56 15.03 170.65 15.04 168.74 14.94 166.82 15.02 164.9 15.04 163.08 15.11 161.25 15.41 159.45 15.78 157.66 16.26 155.9 16.91 154.19 17.55 152.48 18.35 150.84 19.35 149.31 20.39 147.82 21.36 146.27 22.56 144.9 23.77 143.54 25.16 142.34 26.53 141.15 27.98 140.05 29.52 139.08 31.09 138.15 32.77 137.43 34.41 136.62 36.15 136.07 37.94 135.71 39.69 135.18 41.51 135.07 43.31 134.71 45.13 134.79"/><polygon class="cls-4" points="50.13 129.86 51.91 129.73 53.69 129.89 55.47 129.81 57.25 129.89 59.03 129.88 60.81 129.88 62.59 129.88 64.37 129.8 66.15 129.65 67.94 129.76 69.72 129.77 71.49 129.72 73.27 129.89 75.04 129.83 76.82 129.79 78.6 129.73 80.39 129.75 82.16 129.82 83.94 129.79 85.72 129.78 87.5 129.66 89.29 129.89 91.07 129.79 92.85 129.76 94.63 129.87 96.41 129.65 98.2 129.79 99.98 129.9 101.76 129.65 103.55 129.77 105.33 129.73 107.11 129.77 108.89 129.66 110.68 129.72 112.46 129.84 114.25 129.83 116.04 129.73 117.83 129.88 119.62 129.79 121.44 129.75 123.24 130.04 125.05 130.25 126.84 130.59 128.59 131.1 130.29 131.75 131.95 132.5 133.59 133.29 135.22 134.1 136.7 135.16 138.17 136.22 139.56 137.4 140.95 138.57 142.19 139.9 143.4 141.27 144.5 142.73 145.52 144.24 146.19 145.95 147.04 147.56 147.85 149.19 148.5 150.9 148.91 152.68 149.3 154.46 149.57 156.26 149.73 158.08 149.67 159.9 149.64 161.81 149.63 163.72 149.8 165.64 149.84 167.56 149.85 169.48 149.64 171.29 149.57 173.11 149.22 174.9 149 176.72 148.42 178.46 147.9 180.21 146.99 181.8 146.3 183.48 145.36 185.04 144.41 186.6 143.3 188.04 142.23 189.51 141 190.86 139.59 192.02 138.23 193.24 136.7 194.23 135.21 195.28 133.63 196.18 131.97 196.94 130.31 197.66 128.56 198.17 126.8 198.63 125.05 199.12 123.25 199.38 121.44 199.57 119.62 199.74 117.82 199.63 116.02 199.59 114.22 199.58 112.42 199.49 110.61 199.52 108.81 199.5 107.01 199.61 105.21 199.59 103.41 199.5 101.6 199.7 99.8 199.53 98 199.6 96.19 199.72 94.39 199.66 92.59 199.65 90.79 199.53 88.98 199.72 87.17 199.71 85.37 199.49 83.56 199.72 81.75 199.69 79.91 199.49 78.47 200.63 76.98 201.6 75.52 202.62 73.96 203.51 72.5 204.54 71 205.5 69.52 206.5 68.15 207.67 66.56 208.49 65.14 209.57 63.58 210.47 62.18 211.58 60.74 212.64 59.26 213.64 57.68 214.5 56.21 215.52 54.74 216.55 53.19 217.46 51.21 217.61 50.03 215.89 50.14 214.09 50.26 212.28 50.19 210.47 50.12 208.66 50.08 206.85 50.03 205.05 50.01 203.24 50.18 201.42 50.18 199.61 50.13 199.56 48.31 199.66 46.51 199.29 44.69 199.2 42.92 198.74 41.2 198.14 39.47 197.59 37.73 197.02 36.18 196.06 34.53 195.28 33 194.29 31.52 193.23 30.1 192.08 28.81 190.8 27.6 189.43 26.44 188.04 25.42 186.53 24.36 185.05 23.34 183.53 22.66 181.84 22.04 180.13 21.26 178.47 20.83 176.7 20.43 174.92 20.24 173.11 19.98 171.3 20.11 169.48 19.97 167.56 20.04 165.65 20.04 163.74 19.94 161.82 19.96 159.9 19.96 158.07 20.25 156.27 20.44 154.46 20.84 152.68 21.29 150.91 21.87 149.18 22.61 147.51 23.49 145.91 24.32 144.29 25.43 142.84 26.51 141.39 27.66 139.98 28.8 138.56 30.08 137.26 31.6 136.24 32.97 135.03 34.58 134.16 36.18 133.3 37.8 132.5 39.48 131.81 41.16 131.11 42.92 130.66 44.7 130.26 46.5 130.03 48.31 129.81 50.13 129.86"/><polygon class="cls-4" points="110.14 165.11 110.24 166.91 109.95 168.7 109.82 170.51 109.4 172.28 108.89 174.03 107.97 175.61 107.08 177.18 106.17 178.73 105.16 180.22 103.99 181.59 103.02 183.15 101.57 184.26 100.1 185.32 98.77 186.58 97.2 187.5 95.54 188.26 93.9 189.05 92.16 189.58 90.36 189.89 88.56 190.07 86.79 190.59 84.97 190.49 83.17 190.32 81.36 190.17 79.56 189.97 77.78 189.59 76.13 188.81 74.41 188.22 72.88 187.25 71.24 186.47 69.72 185.47 68.29 184.36 67.11 182.96 65.83 181.69 64.6 180.35 63.72 178.76 62.75 177.24 61.99 175.6 61.3 173.93 60.59 172.26 60.38 170.46 60 168.7 59.83 166.91 59.47 165.11 59.51 163.28 59.7 161.47 60 159.67 60.51 157.92 61.35 156.29 62.08 154.65 62.7 152.94 63.8 151.5 64.61 149.86 65.67 148.38 67.04 147.18 68.26 145.81 69.69 144.68 71.28 143.79 72.84 142.89 74.45 142.07 76.07 141.25 77.86 140.91 79.61 140.46 81.38 140.13 83.17 139.94 84.97 139.78 86.77 139.97 88.56 140.17 90.35 140.41 92.16 140.63 93.77 141.53 95.49 142.09 97.13 142.84 98.65 143.82 100.16 144.82 101.5 146.03 102.91 147.17 104.19 148.45 105.2 149.96 106.18 151.48 107.17 152.99 107.89 154.64 108.62 156.29 109.37 157.94 109.94 159.68 110.23 161.47 110.32 163.29 110.14 165.11"/><polyline class="cls-4" points="99.89 169.85 99.16 171.49 98.27 173.03 97.36 174.58 96.14 175.88 94.92 177.19 93.41 178.16 91.91 179.14 90.25 179.84 88.54 180.36 86.75 180.54 84.97 180.67 83.19 180.68 81.45 180.28 79.72 179.83 78.13 179.04 76.56 178.21 75.18 177.1 73.84 175.95 72.62 174.65 71.56 173.22 70.75 171.62 70.25 169.91"/><polygon class="cls-5" points="79.35 158.34 78.51 160.28 76.57 161.09 74.61 160.3 73.79 158.34 74.61 156.39 76.57 155.56 78.53 156.38 79.35 158.34"/><polygon class="cls-5" points="96.16 158.34 95.32 160.29 93.38 161.13 91.42 160.3 90.6 158.34 91.43 156.4 93.38 155.6 95.34 156.38 96.16 158.34"/></g></svg>
