<svg xmlns="http://www.w3.org/2000/svg" viewBox="0 0 250 250"><defs><style>.cls-1{fill:#f8f8f8;}.cls-2{fill:#fff;}.cls-3{fill:#3e82f7;}.cls-4{fill:none;stroke:#3e82f7;stroke-miterlimit:10;stroke-width:3px;}.cls-5{fill:#fadc2d;}.cls-6{fill:#ff852d;}</style></defs><title>icon-flash-collect</title><g id="Base_Dots" data-name="Base Dots"><circle class="cls-1" cx="125" cy="125" r="100"/></g><g id="Artwork"><polygon class="cls-2" points="46.54 214.38 44.73 214.24 42.98 213.79 41.34 213.02 39.79 212.12 38.45 210.91 37.21 209.59 36.31 208.03 35.51 206.4 35.11 204.63 35 202.82 35.17 201.04 35.18 199.26 35.03 197.49 35.06 195.71 35.18 193.94 35.08 192.16 35.17 190.38 34.96 188.6 35.03 186.82 35.03 185.04 35.09 183.27 35.04 181.49 35.01 179.71 35.09 177.93 35.1 176.15 35.14 174.37 34.95 172.59 35.09 170.81 35.07 169.03 35.19 167.25 35.03 165.47 35.13 163.68 35.18 161.9 34.96 160.11 35.2 158.31 35.55 156.54 36.39 154.94 37.32 153.41 38.41 151.98 39.87 150.92 41.31 149.84 42.96 149.08 44.76 148.88 46.54 148.55 48.32 148.65 50.1 148.59 51.87 148.69 53.65 148.75 55.42 148.76 57.2 148.53 58.98 148.54 60.76 148.76 62.53 148.5 64.31 148.62 66.09 148.65 67.87 148.59 69.65 148.54 71.43 148.6 73.21 148.73 74.99 148.54 76.77 148.58 78.55 148.51 80.33 148.7 82.11 148.5 83.89 148.67 85.68 148.62 87.46 148.56 89.25 148.74 91.03 148.88 92.82 149.12 94.5 149.81 95.92 150.93 97.31 152.05 98.54 153.36 99.48 154.9 100.15 156.57 100.67 158.3 100.84 160.11 100.83 161.88 100.77 163.66 100.65 165.44 100.67 167.21 100.65 168.99 100.84 170.77 100.7 172.55 100.78 174.32 100.71 176.1 100.84 177.88 100.69 179.66 100.78 181.44 100.72 183.22 100.63 185 100.64 186.78 100.62 188.56 100.74 190.34 100.68 192.12 100.6 193.9 100.69 195.68 100.73 197.46 100.75 199.24 100.61 201.03 100.75 202.82 100.59 204.61 100.13 206.35 99.42 208 98.45 209.5 97.38 210.94 95.95 212.04 94.49 213.11 92.81 213.77 91.06 214.26 89.25 214.18 87.47 214.21 85.69 214.41 83.92 214.22 82.14 214.25 80.37 214.17 78.59 214.31 76.81 214.34 75.03 214.34 73.26 214.27 71.48 214.36 69.7 214.21 67.92 214.39 66.14 214.37 64.36 214.3 62.58 214.35 60.8 214.34 59.02 214.35 57.24 214.25 55.46 214.32 53.68 214.4 51.9 214.39 50.12 214.31 48.33 214.23 46.54 214.38"/><polygon class="cls-2" points="89.25 211.31 87.47 211.32 85.69 211.35 83.92 211.3 82.14 211.4 80.37 211.32 78.59 211.36 76.81 211.38 75.03 211.3 73.26 211.35 71.48 211.37 69.7 211.18 67.92 211.27 66.14 211.28 64.36 211.39 62.58 211.34 60.8 211.18 59.02 211.35 57.24 211.34 55.46 211.37 53.68 211.4 51.9 211.4 50.12 211.36 48.33 211.25 46.54 211.38 44.65 211.11 42.87 210.44 41.24 209.47 39.96 208.06 39 206.45 38.18 204.73 38.01 202.82 37.95 201.04 38.18 199.26 37.97 197.49 38.11 195.71 38.1 193.94 38.05 192.16 38.18 190.38 38.12 188.6 38.06 186.82 38.1 185.04 38.02 183.27 38.04 181.49 38.03 179.71 38.11 177.93 38.13 176.15 38.16 174.37 38.07 172.59 38.11 170.81 38.14 169.03 38.16 167.25 37.99 165.47 38.13 163.68 38.16 161.9 38.1 160.11 38.36 158.24 38.91 156.43 39.88 154.8 41.28 153.51 42.83 152.41 44.67 151.93 46.54 151.74 48.32 151.63 50.1 151.59 51.87 151.75 53.65 151.55 55.42 151.7 57.2 151.71 58.98 151.58 60.76 151.63 62.53 151.52 64.31 151.74 66.09 151.64 67.87 151.74 69.65 151.74 71.43 151.66 73.21 151.58 74.99 151.62 76.77 151.53 78.55 151.56 80.33 151.56 82.11 151.53 83.89 151.66 85.68 151.67 87.46 151.66 89.25 151.63 91.16 151.77 92.91 152.52 94.52 153.5 95.8 154.89 96.85 156.45 97.62 158.2 97.7 160.11 97.78 161.88 97.75 163.66 97.72 165.44 97.67 167.22 97.61 168.99 97.73 170.77 97.78 172.55 97.82 174.32 97.71 176.1 97.72 177.88 97.76 179.66 97.71 181.44 97.82 183.22 97.81 185 97.81 186.78 97.8 188.56 97.78 190.34 97.71 192.12 97.75 193.9 97.71 195.68 97.78 197.46 97.73 199.24 97.84 201.03 97.81 202.82 97.57 204.72 96.8 206.45 95.79 208.04 94.56 209.47 92.93 210.46 91.11 210.98 89.25 211.31"/><polygon class="cls-3" points="77.9 178.01 76.29 177.98 74.66 178.08 73.01 178.07 71.37 178.06 69.67 178.03 70.37 176.28 71.11 174.6 71.76 172.89 72.47 171.2 73.1 169.47 73.82 167.78 74.42 166.04 75.16 164.43 74.01 165.76 72.7 167.03 71.47 168.39 70.34 169.84 69.11 171.18 67.82 172.48 66.66 173.89 65.39 175.22 64.29 176.68 63.03 178.01 61.81 179.38 60.56 180.72 59.37 182.11 58.16 183.49 56.89 184.84 58.55 184.86 60.18 184.9 61.82 184.75 63.47 184.86 65.11 184.84 64.33 186.5 63.77 188.25 63.02 189.92 62.29 191.61 61.77 193.38 61.01 195.05 60.38 196.78 59.6 198.52 60.9 197.14 62.06 195.73 63.37 194.44 64.49 192.99 65.66 191.59 67.01 190.34 68.12 188.89 69.4 187.57 70.58 186.18 71.85 184.87 73.11 183.53 74.34 182.17 75.43 180.69 76.65 179.32 77.9 178.01"/><polygon class="cls-4" points="89.25 211.3 87.47 211.26 85.69 211.28 83.92 211.32 82.14 211.18 80.37 211.22 78.59 211.32 76.81 211.22 75.03 211.28 73.26 211.19 71.48 211.39 69.7 211.37 67.92 211.41 66.14 211.36 64.36 211.35 62.58 211.24 60.8 211.38 59.02 211.26 57.24 211.3 55.46 211.29 53.68 211.3 51.9 211.21 50.12 211.19 48.33 211.24 46.54 211.26 44.67 211.01 42.89 210.39 41.26 209.44 39.82 208.17 38.91 206.49 38.29 204.7 38.01 202.82 38.05 201.04 38.05 199.26 38.01 197.49 38.09 195.71 38.17 193.94 38.1 192.16 38.06 190.38 38.18 188.6 38.11 186.82 37.97 185.04 38.02 183.27 38.02 181.49 38.05 179.71 38.1 177.93 37.97 176.15 37.96 174.37 38.15 172.59 38.13 170.81 38.12 169.03 38.17 167.25 38.08 165.47 38.07 163.68 37.96 161.9 38.16 160.11 38.28 158.22 38.84 156.4 39.92 154.83 41.21 153.43 42.87 152.48 44.67 151.9 46.54 151.52 48.32 151.72 50.1 151.69 51.87 151.64 53.65 151.7 55.42 151.58 57.2 151.62 58.98 151.68 60.76 151.62 62.53 151.67 64.31 151.61 66.09 151.61 67.87 151.58 69.65 151.62 71.43 151.53 73.21 151.61 74.99 151.56 76.77 151.55 78.55 151.62 80.33 151.58 82.11 151.55 83.89 151.74 85.68 151.65 87.46 151.65 89.25 151.54 91.15 151.79 92.88 152.57 94.57 153.44 95.92 154.79 96.96 156.4 97.62 158.2 97.83 160.11 97.8 161.88 97.69 163.66 97.82 165.44 97.75 167.22 97.71 168.99 97.75 170.77 97.66 172.55 97.62 174.32 97.83 176.1 97.78 177.88 97.84 179.66 97.61 181.44 97.82 183.22 97.68 185 97.69 186.78 97.74 188.56 97.61 190.34 97.67 192.12 97.73 193.9 97.69 195.68 97.77 197.46 97.75 199.24 97.77 201.03 97.68 202.82 97.45 204.69 96.81 206.46 95.87 208.1 94.51 209.41 92.89 210.38 91.12 210.99 89.25 211.3"/><polygon class="cls-2" points="176.12 212.51 174.34 212.52 172.58 212.31 170.8 212.2 169.06 211.82 167.35 211.33 165.63 210.87 163.98 210.2 162.32 209.56 160.72 208.76 159.16 207.91 157.69 206.91 156.18 205.95 154.85 204.77 153.49 203.62 152.22 202.37 151.09 200.99 149.93 199.63 148.87 198.2 148.09 196.59 147.12 195.1 146.32 193.51 145.51 191.92 144.94 190.23 144.59 188.48 143.98 186.8 143.65 185.05 143.38 183.29 143.2 181.51 143.16 179.73 143.24 177.95 143.51 176.18 143.6 174.4 144.01 172.66 144.49 170.94 144.96 169.23 145.67 167.59 146.42 165.99 147.01 164.29 147.93 162.77 148.84 161.23 150.08 159.93 151.02 158.4 152.32 157.18 153.57 155.92 154.86 154.69 156.33 153.69 157.73 152.6 159.19 151.59 160.76 150.75 162.31 149.87 163.96 149.19 165.62 148.56 167.35 148.13 169.07 147.72 170.82 147.41 172.57 147.08 174.34 146.98 176.12 146.97 177.89 147.04 179.68 146.99 181.42 147.38 183.16 147.75 184.9 148.12 186.58 148.69 188.28 149.22 189.93 149.88 191.48 150.75 193.09 151.53 194.49 152.63 195.92 153.68 197.38 154.71 198.73 155.86 199.87 157.24 201.22 158.41 202.2 159.91 203.22 161.35 204.31 162.77 205.14 164.35 206.04 165.89 206.52 167.62 207.24 169.24 207.66 170.97 208.08 172.69 208.51 174.42 208.84 176.17 208.93 177.95 209.08 179.73 209 181.51 208.86 183.29 208.64 185.06 208.17 186.78 207.74 188.51 207.22 190.21 206.63 191.88 206.01 193.56 205.08 195.08 204.23 196.64 203.21 198.09 202.22 199.57 201.23 201.06 199.93 202.28 198.73 203.6 197.39 204.77 195.98 205.86 194.51 206.86 192.98 207.76 191.5 208.75 189.93 209.59 188.31 210.34 186.6 210.84 184.91 211.38 183.19 211.85 181.43 212.13 179.68 212.49 177.9 212.62 176.12 212.51"/><polygon class="cls-5" points="206.03 179.73 206.01 177.92 205.75 176.13 205.5 174.34 205.11 172.58 204.65 170.84 204.04 169.13 203.42 167.44 202.66 165.8 201.72 164.25 200.62 162.81 199.61 161.32 198.38 160.01 197.19 158.66 195.97 157.31 194.48 156.29 193.1 155.12 191.52 154.25 189.98 153.32 188.38 152.49 186.7 151.83 185 151.23 183.26 150.76 181.51 150.29 179.72 150.13 177.93 149.82 176.12 149.82 174.32 150.01 172.51 150.01 170.73 150.32 168.99 150.81 167.26 151.31 165.49 151.7 163.82 152.4 162.19 153.19 160.67 154.18 159.14 155.14 157.77 156.31 156.31 157.37 154.93 158.55 153.8 159.96 152.6 161.31 151.64 162.83 150.53 164.26 149.62 165.82 148.9 167.48 148.14 169.12 147.72 170.88 147.21 172.6 146.64 174.32 146.58 176.14 146.25 177.92 146.36 179.73 146.42 181.53 146.45 183.33 146.72 185.12 147.1 186.88 147.55 188.63 148.22 190.31 148.82 192.02 149.69 193.6 150.58 195.17 151.64 196.63 152.6 198.16 153.74 199.56 154.97 200.88 156.4 201.99 157.74 203.19 159.17 204.29 160.63 205.36 162.21 206.23 163.92 206.85 165.55 207.61 167.23 208.24 168.96 208.76 170.75 209.01 172.51 209.41 174.32 209.44 176.12 209.56 177.93 209.59 179.72 209.33 181.52 209.16 183.29 208.81 184.97 208.13 186.67 207.54 188.38 206.96 190.02 206.21 191.51 205.18 193.09 204.31 194.57 203.27 195.97 202.13 197.15 200.75 198.51 199.56 199.61 198.13 200.72 196.7 201.72 195.2 202.55 193.59 203.31 191.96 203.94 190.28 204.62 188.61 205.09 186.87 205.46 185.11 205.74 183.33 205.9 181.53 206.03 179.73"/><polygon class="cls-2" points="105.9 121.63 107.67 121.53 109.44 121.61 111.22 121.6 112.99 121.53 114.77 121.55 116.54 121.55 118.31 121.52 120.09 121.55 121.86 121.58 123.64 121.53 125.42 121.59 127.19 121.51 128.97 121.6 130.75 121.56 132.52 121.55 134.3 121.6 136.08 121.57 137.85 121.55 139.63 121.53 141.41 121.48 143.18 121.52 144.96 121.49 146.74 121.49 148.52 121.61 150.31 121.51 152.09 121.54 153.84 121.22 155.45 120.45 156.69 119.18 157.56 117.61 157.85 115.83 157.76 114.11 157.83 112.39 157.87 110.66 157.78 108.87 157.65 107.08 157.33 105.31 156.97 103.56 156.6 101.8 156.04 100.1 155.45 98.41 154.72 96.77 153.88 95.19 152.99 93.63 151.98 92.15 150.95 90.69 149.85 89.28 148.62 87.97 147.38 86.68 146.03 85.48 144.61 84.39 143.11 83.41 141.59 82.46 140.06 81.52 138.4 80.83 136.78 80.06 135.07 79.5 134.77 77.68 136.19 76.51 137.48 75.21 138.58 73.74 139.52 72.17 140.29 70.51 140.82 68.76 141.23 66.98 141.42 65.17 141.45 63.34 141.21 61.61 140.91 59.88 140.27 58.25 139.56 56.65 138.56 55.21 137.55 53.8 136.32 52.55 135 51.41 133.53 50.47 132 49.64 130.4 48.96 128.71 48.53 127 48.25 125.17 48.12 123.34 48.19 121.52 48.44 119.78 49.05 118.09 49.73 116.5 50.63 114.93 51.59 113.63 52.89 112.33 54.19 111.35 55.74 110.42 57.32 109.66 59 109.28 60.79 108.95 62.59 108.74 64.42 108.91 66.13 109.11 67.83 109.58 69.47 110.17 71.08 110.93 72.62 111.89 74.04 113 75.34 114.18 76.58 115.57 77.58 115.23 79.6 113.49 80.08 111.84 80.82 110.23 81.63 108.62 82.45 107.06 83.38 105.64 84.5 104.17 85.54 102.81 86.75 101.59 88.08 100.39 89.43 99.25 90.82 98.17 92.27 97.16 93.76 96.28 95.34 95.48 96.96 94.79 98.63 94.21 100.34 93.59 102.03 93.11 103.76 92.69 105.5 92.49 107.28 92.25 109.06 92.23 110.85 92.22 112.64 92.21 114.24 92.12 115.83 92.44 117.61 93.24 119.23 94.55 120.46 96.13 121.32 97.91 121.58 99.9 121.52 101.9 121.55 103.9 121.58 105.9 121.63"/><polygon class="cls-4" points="105.9 121.63 107.67 121.53 109.44 121.61 111.22 121.6 112.99 121.53 114.77 121.55 116.54 121.55 118.31 121.52 120.09 121.55 121.86 121.58 123.64 121.53 125.42 121.59 127.19 121.51 128.97 121.6 130.75 121.56 132.52 121.55 134.3 121.6 136.08 121.57 137.85 121.55 139.63 121.53 141.41 121.48 143.18 121.52 144.96 121.49 146.74 121.49 148.52 121.61 150.31 121.51 152.09 121.54 153.84 121.22 155.45 120.45 156.69 119.18 157.56 117.61 157.85 115.83 157.76 114.11 157.83 112.39 157.87 110.66 157.78 108.87 157.65 107.08 157.33 105.31 156.97 103.56 156.6 101.8 156.04 100.1 155.45 98.41 154.72 96.77 153.88 95.19 152.99 93.63 151.98 92.15 150.95 90.69 149.85 89.28 148.62 87.97 147.38 86.68 146.03 85.48 144.61 84.39 143.11 83.41 141.59 82.46 140.06 81.52 138.4 80.83 136.78 80.06 135.07 79.5 134.77 77.68 136.19 76.51 137.48 75.21 138.58 73.74 139.52 72.17 140.29 70.51 140.82 68.76 141.23 66.98 141.42 65.17 141.45 63.34 141.21 61.61 140.91 59.88 140.27 58.25 139.56 56.65 138.56 55.21 137.55 53.8 136.32 52.55 135 51.41 133.53 50.47 132 49.64 130.4 48.96 128.71 48.53 127 48.25 125.17 48.12 123.34 48.19 121.52 48.44 119.78 49.05 118.09 49.73 116.5 50.63 114.93 51.59 113.63 52.89 112.33 54.19 111.35 55.74 110.42 57.32 109.66 59 109.28 60.79 108.95 62.59 108.74 64.42 108.91 66.13 109.11 67.83 109.58 69.47 110.17 71.08 110.93 72.62 111.89 74.04 113 75.34 114.18 76.58 115.57 77.58 115.23 79.6 113.49 80.08 111.84 80.82 110.23 81.63 108.62 82.45 107.06 83.38 105.64 84.5 104.17 85.54 102.81 86.75 101.59 88.08 100.39 89.43 99.25 90.82 98.17 92.27 97.16 93.76 96.28 95.34 95.48 96.96 94.79 98.63 94.21 100.34 93.59 102.03 93.11 103.76 92.69 105.5 92.49 107.28 92.25 109.06 92.23 110.85 92.22 112.64 92.21 114.24 92.12 115.83 92.44 117.61 93.24 119.23 94.55 120.46 96.13 121.32 97.91 121.58 99.9 121.52 101.9 121.55 103.9 121.58 105.9 121.63"/><path class="cls-2" d="M130.39,67.7a5.39,5.39,0,1,1-10.77,0"/><polyline class="cls-4" points="130.19 67.7 130.42 68.94 129.94 70.08 129.37 71.18 128.23 71.75 127.41 72.7 126.18 72.87 125 73.01 123.8 72.97 122.75 72.36 121.71 71.83 120.79 71.06 120.21 70 119.67 68.92 119.58 67.7"/><polyline class="cls-4" points="119.42 40.06 118.9 38.87 118.72 37.59 118.47 36.33 117.75 35.2 117.82 33.84 117.41 32.62 116.95 31.41"/><polyline class="cls-4" points="109.36 45.06 108.27 44.63 107.25 44.09 106.15 43.71 105.32 42.83 104.23 42.41 103.15 41.97 102.2 41.28"/><polyline class="cls-4" points="130.62 40.07 130.81 38.79 131.33 37.61 131.79 36.4 131.78 35.06 132.55 33.95 132.84 32.7 133.1 31.43"/><polyline class="cls-4" points="140.83 45.4 141.76 44.7 142.76 44.12 143.67 43.39 144.86 43.15 145.78 42.44 146.73 41.75 147.82 41.31"/><polygon class="cls-2" points="76.68 126.89 78.47 126.79 80.26 126.74 82.05 126.72 83.84 126.55 85.64 126.52 87.43 126.5 89.23 126.44 91.03 126.39 92.8 126.32 91.59 127.57 90.37 128.86 89.23 130.22 88 131.49 86.77 132.76 85.57 134.06 84.38 135.38 83.11 136.62 81.92 137.93 80.75 139.27 79.5 140.52 78.31 141.84 77.06 143.11 75.93 144.5 74.99 146 74.72 147.75 75.1 149.49 76.14 150.94 76.09 150.99 77.66 151.86 79.42 152.22 81.17 151.79 82.63 150.74 83.83 149.44 85.08 148.19 86.3 146.9 87.49 145.59 88.68 144.28 89.91 143.01 91.11 141.71 92.3 140.39 93.45 139.04 94.72 137.79 95.93 136.5 97.11 135.17 98.34 133.89 99.56 132.58 99.66 134.38 99.67 136.17 99.68 137.96 99.79 139.76 99.87 141.55 99.86 143.34 99.97 145.14 100.12 146.94 100.15 148.74 100.56 150.48 101.59 151.94 103.1 152.92 104.88 153.13 104.88 153.12 106.66 152.82 108.12 151.75 109.07 150.21 109.4 148.42 109.28 146.68 109.21 144.94 109.08 143.2 109.15 141.45 109.03 139.72 108.92 137.97 108.91 136.23 108.8 134.49 108.79 132.75 108.76 131 108.59 129.26 108.66 127.51 108.58 125.76 108.5 124.18 108.28 122.48 107.59 120.91 106.66 119.49 105.43 118.29 103.93 117.46 102.31 116.92 100.6 116.83 99.02 116.89 97.28 116.97 95.54 117 93.8 117.12 92.05 117.13 90.32 117.22 88.57 117.29 86.83 117.3 85.09 117.39 83.35 117.46 81.6 117.41 79.86 117.52 78.11 117.59 76.36 117.71 74.62 118.09 73.1 119.07 72.23 120.66 71.94 122.42 71.96 122.42 72.39 124.14 73.42 125.58 74.92 126.53 76.68 126.89"/><polygon class="cls-4" points="76.68 126.89 78.47 126.79 80.26 126.74 82.05 126.72 83.84 126.55 85.64 126.52 87.43 126.5 89.23 126.44 91.03 126.39 92.8 126.32 91.59 127.57 90.37 128.86 89.23 130.22 88 131.49 86.77 132.76 85.57 134.06 84.38 135.38 83.11 136.62 81.92 137.93 80.75 139.27 79.5 140.52 78.31 141.84 77.06 143.11 75.93 144.5 74.99 146 74.72 147.75 75.1 149.49 76.14 150.94 76.09 150.99 77.66 151.86 79.42 152.22 81.17 151.79 82.63 150.74 83.83 149.44 85.08 148.19 86.3 146.9 87.49 145.59 88.68 144.28 89.91 143.01 91.11 141.71 92.3 140.39 93.45 139.04 94.72 137.79 95.93 136.5 97.11 135.17 98.34 133.89 99.56 132.58 99.66 134.38 99.67 136.17 99.68 137.96 99.79 139.76 99.87 141.55 99.86 143.34 99.97 145.14 100.12 146.94 100.15 148.74 100.56 150.48 101.59 151.94 103.1 152.92 104.88 153.13 104.88 153.12 106.66 152.82 108.12 151.75 109.07 150.21 109.4 148.42 109.28 146.68 109.21 144.94 109.08 143.2 109.15 141.45 109.03 139.72 108.92 137.97 108.91 136.23 108.8 134.49 108.79 132.75 108.76 131 108.59 129.26 108.66 127.51 108.58 125.76 108.5 124.18 108.28 122.48 107.59 120.91 106.66 119.49 105.43 118.29 103.93 117.46 102.31 116.92 100.6 116.83 99.02 116.89 97.28 116.97 95.54 117 93.8 117.12 92.05 117.13 90.32 117.22 88.57 117.29 86.83 117.3 85.09 117.39 83.35 117.46 81.6 117.41 79.86 117.52 78.11 117.59 76.36 117.71 74.62 118.09 73.1 119.07 72.23 120.66 71.94 122.42 71.96 122.42 72.39 124.14 73.42 125.58 74.92 126.53 76.68 126.89"/><polygon class="cls-2" points="166.34 121.48 166.45 123.26 166.5 125.06 166.52 126.85 166.69 128.64 166.72 130.44 166.73 132.23 166.8 134.03 166.85 135.83 166.92 137.59 165.66 136.39 164.38 135.17 163.02 134.03 161.75 132.79 160.48 131.57 159.17 130.37 157.86 129.18 156.62 127.91 155.31 126.72 153.97 125.55 152.72 124.29 151.39 123.11 150.13 121.85 148.74 120.73 147.24 119.79 145.48 119.52 143.75 119.9 142.3 120.94 142.25 120.89 141.38 122.46 141.01 124.22 141.45 125.96 142.49 127.43 143.79 128.63 145.05 129.88 146.34 131.1 147.65 132.29 148.96 133.48 150.23 134.71 151.53 135.91 152.85 137.09 154.2 138.25 155.45 139.51 156.74 140.73 158.07 141.91 159.35 143.14 160.65 144.36 158.86 144.46 157.06 144.47 155.27 144.48 153.48 144.59 151.69 144.67 149.89 144.66 148.1 144.77 146.3 144.92 144.5 144.94 142.76 145.36 141.29 146.39 140.32 147.9 140.11 149.68 140.12 149.68 140.41 151.46 141.49 152.92 143.03 153.87 144.82 154.19 146.56 154.08 148.3 154.01 150.04 153.88 151.78 153.95 153.52 153.83 155.26 153.72 157 153.71 158.74 153.6 160.49 153.59 162.23 153.56 163.97 153.39 165.73 153.46 167.48 153.38 169.06 153.29 170.76 153.08 172.33 152.39 173.75 151.46 174.95 150.23 175.77 148.73 176.31 147.11 176.41 145.4 176.35 143.82 176.27 142.08 176.24 140.34 176.12 138.59 176.11 136.85 176.02 135.12 175.95 133.37 175.94 131.63 175.85 129.89 175.77 128.15 175.83 126.4 175.72 124.66 175.65 122.91 175.52 121.16 175.14 119.42 174.17 117.9 172.58 117.03 170.82 116.74 170.82 116.76 169.09 117.19 167.65 118.22 166.7 119.72 166.34 121.48"/><polygon class="cls-4" points="166.34 121.48 166.45 123.26 166.5 125.06 166.52 126.85 166.69 128.64 166.72 130.44 166.73 132.23 166.8 134.03 166.85 135.83 166.92 137.59 165.66 136.39 164.38 135.17 163.02 134.03 161.75 132.79 160.48 131.57 159.17 130.37 157.86 129.18 156.62 127.91 155.31 126.72 153.97 125.55 152.72 124.29 151.39 123.11 150.13 121.85 148.74 120.73 147.24 119.79 145.48 119.52 143.75 119.9 142.3 120.94 142.25 120.89 141.38 122.46 141.01 124.22 141.45 125.96 142.49 127.43 143.79 128.63 145.05 129.88 146.34 131.1 147.65 132.29 148.96 133.48 150.23 134.71 151.53 135.91 152.85 137.09 154.2 138.25 155.45 139.51 156.74 140.73 158.07 141.91 159.35 143.14 160.65 144.36 158.86 144.46 157.06 144.47 155.27 144.48 153.48 144.59 151.69 144.67 149.89 144.66 148.1 144.77 146.3 144.92 144.5 144.94 142.76 145.36 141.29 146.39 140.32 147.9 140.11 149.68 140.12 149.68 140.41 151.46 141.49 152.92 143.03 153.87 144.82 154.19 146.56 154.08 148.3 154.01 150.04 153.88 151.78 153.95 153.52 153.83 155.26 153.72 157 153.71 158.74 153.6 160.49 153.59 162.23 153.56 163.97 153.39 165.73 153.46 167.48 153.38 169.06 153.29 170.76 153.08 172.33 152.39 173.75 151.46 174.95 150.23 175.77 148.73 176.31 147.11 176.41 145.4 176.35 143.82 176.27 142.08 176.24 140.34 176.12 138.59 176.11 136.85 176.02 135.12 175.95 133.37 175.94 131.63 175.85 129.89 175.77 128.15 175.83 126.4 175.72 124.66 175.65 122.91 175.52 121.16 175.14 119.42 174.17 117.9 172.58 117.03 170.82 116.74 170.82 116.76 169.09 117.19 167.65 118.22 166.7 119.72 166.34 121.48"/><path class="cls-6" d="M180.68,178.91l1.95.88,1.69,1.28,1,1.56.27,1.83-.25,1.5-.67,1.36-1,1.16-1.79,1.09-2,.64-2.09.3,0,1.44,0,1.43h-2.72v-1.46l0-1.47-2-.32-1.88-.64-1.67-1.06-1.27-1.38-.76-1.71-.22-1.87h1.91l1.9,0,1,2.34,1.38.73,1.54.34,0-1.58v-1.58l0-1.58,0-1.59-1.65-.54-1.5-.56-1.42-.73-1.29-.93-1.16-1.62-.36-2,.47-2.16,1.41-1.71,1.68-1,1.88-.54,1.92-.26,0-2.46h2.74l0,2.53,1.77.28,1.64.65,1.42,1,1,1.23.69,1.45.42,1.56h-1.91l-1.9,0-1-1.7L177.8,172v4l0,2,1.42.53Zm-8-6.15-.82,1.59.52,1.47,1.69.89,1,.4,0-1.73v-1.75l0-1.74Zm7.67,13.32.84-1.69-.71-1.76-1.66-1-1-.4,0,1.89v1.9l0,1.9,1.34-.24Z"/></g></svg>
