<svg xmlns="http://www.w3.org/2000/svg" viewBox="0 0 250 250"><defs><style>.cls-1{fill:#f8f8f8;}.cls-2{fill:#fff;}.cls-3{fill:none;stroke:#3e82f7;stroke-miterlimit:10;stroke-width:3px;}.cls-4{fill:#3e82f7;}</style></defs><title>icon-partners-alumni</title><g id="Base_Dots" data-name="Base Dots"><circle class="cls-1" cx="125" cy="125" r="100"/></g><g id="Artwork"><polygon class="cls-2" points="98.17 151.81 99.99 151.68 101.81 151.78 103.62 151.77 105.43 151.68 107.25 151.7 109.07 151.7 110.88 151.66 112.69 151.7 114.5 151.74 116.31 151.67 118.12 151.76 119.94 151.65 121.75 151.77 123.57 151.71 125.38 151.71 127.19 151.76 129.01 151.73 130.83 151.7 132.64 151.67 134.46 151.61 136.27 151.66 138.09 151.61 139.91 151.62 141.72 151.78 143.54 151.64 145.36 151.68 147.17 151.63 148.99 151.69 150.81 151.66 152.63 151.74 154.45 151.76 156.27 151.63 158.09 151.73 159.91 151.78 161.74 151.72 163.5 151.54 165.13 150.87 166.59 149.92 167.9 148.75 168.8 147.23 169.43 145.59 169.62 143.83 169.56 142.06 169.57 140.28 169.52 138.5 169.57 136.72 169.59 134.95 169.45 133.18 169.36 131.4 169.13 129.64 168.79 127.9 168.33 126.18 167.89 124.47 167.5 122.73 166.78 121.1 166.25 119.4 165.5 117.79 164.74 116.18 163.89 114.62 163 113.09 162 111.62 160.95 110.19 159.87 108.78 158.67 107.47 157.51 106.14 156.29 104.86 155.05 103.58 153.69 102.45 152.4 101.22 150.93 100.22 149.5 99.16 147.93 98.33 146.44 97.37 144.85 96.58 143.26 95.79 141.61 95.15 139.96 94.5 138.29 93.9 137.19 92.72 137.8 91.2 139.19 90.15 140.5 89 141.75 87.77 142.71 86.31 143.71 84.89 144.53 83.36 145.44 81.86 145.92 80.17 146.54 78.53 146.76 76.8 147.04 75.08 147.2 73.34 146.98 71.6 146.83 69.77 146.62 67.94 146.01 66.2 145.47 64.44 144.65 62.79 143.76 61.18 142.76 59.63 141.57 58.22 140.26 56.93 138.91 55.67 137.37 54.67 135.83 53.69 134.28 52.68 132.56 52.03 130.8 51.5 129.03 50.99 127.22 50.66 125.41 50.67 123.61 50.55 121.8 50.71 120.04 51.12 118.3 51.59 116.6 52.16 114.93 52.84 113.31 53.64 111.81 54.63 110.38 55.73 109.05 56.95 107.85 58.29 106.6 59.6 105.64 61.12 104.66 62.64 103.96 64.31 103.24 65.96 102.83 67.72 102.5 69.5 102.27 71.28 102.08 73.08 102.21 74.85 102.37 76.61 102.79 78.33 103.21 80.05 103.84 81.69 104.66 83.26 105.48 84.82 106.43 86.31 107.58 87.64 108.8 88.91 110.1 90.09 111.45 91.22 112 92.7 111.02 93.95 109.27 94.4 107.62 95.08 105.96 95.77 104.35 96.54 102.81 97.46 101.21 98.28 99.76 99.33 98.22 100.26 96.81 101.36 95.4 102.46 94.09 103.69 92.89 105.02 91.53 106.2 90.43 107.62 89.26 108.97 88.26 110.45 87.24 111.92 86.2 113.38 85.29 114.92 84.42 116.48 83.61 118.09 82.92 119.74 82.35 121.44 81.79 123.14 81.31 124.87 80.74 126.62 80.32 128.41 79.88 130.21 79.78 132.06 79.43 133.88 79.3 135.73 79.27 137.59 79.35 139.44 79.36 141.64 79.33 143.83 79.41 145.61 80 147.29 80.97 148.78 82.28 149.97 83.77 150.9 85.44 151.45 87.17 151.67 89 151.76 90.84 151.67 92.67 151.69 94.5 151.68 96.34 151.78 98.17 151.81"/><polygon class="cls-3" points="98.17 151.81 99.99 151.68 101.81 151.78 103.62 151.77 105.43 151.68 107.25 151.7 109.07 151.7 110.88 151.66 112.69 151.7 114.5 151.74 116.31 151.67 118.12 151.76 119.94 151.65 121.75 151.77 123.57 151.71 125.38 151.71 127.19 151.76 129.01 151.73 130.83 151.7 132.64 151.67 134.46 151.61 136.27 151.66 138.09 151.61 139.91 151.62 141.72 151.78 143.54 151.64 145.36 151.68 147.17 151.63 148.99 151.69 150.81 151.66 152.63 151.74 154.45 151.76 156.27 151.63 158.09 151.73 159.91 151.78 161.74 151.72 163.5 151.54 165.13 150.87 166.59 149.92 167.9 148.75 168.8 147.23 169.43 145.59 169.62 143.83 169.56 142.06 169.57 140.28 169.52 138.5 169.57 136.72 169.59 134.95 169.45 133.18 169.36 131.4 169.13 129.64 168.79 127.9 168.33 126.18 167.89 124.47 167.5 122.73 166.78 121.1 166.25 119.4 165.5 117.79 164.74 116.18 163.89 114.62 163 113.09 162 111.62 160.95 110.19 159.87 108.78 158.67 107.47 157.51 106.14 156.29 104.86 155.05 103.58 153.69 102.45 152.4 101.22 150.93 100.22 149.5 99.16 147.93 98.33 146.44 97.37 144.85 96.58 143.26 95.79 141.61 95.15 139.96 94.5 138.29 93.9 137.19 92.72 137.8 91.2 139.19 90.15 140.5 89 141.75 87.77 142.71 86.31 143.71 84.89 144.53 83.36 145.44 81.86 145.92 80.17 146.54 78.53 146.76 76.8 147.04 75.08 147.2 73.34 146.98 71.6 146.83 69.77 146.62 67.94 146.01 66.2 145.47 64.44 144.65 62.79 143.76 61.18 142.76 59.63 141.57 58.22 140.26 56.93 138.91 55.67 137.37 54.67 135.83 53.69 134.28 52.68 132.56 52.03 130.8 51.5 129.03 50.99 127.22 50.66 125.41 50.67 123.61 50.55 121.8 50.71 120.04 51.12 118.3 51.59 116.6 52.16 114.93 52.84 113.31 53.64 111.81 54.63 110.38 55.73 109.05 56.95 107.85 58.29 106.6 59.6 105.64 61.12 104.66 62.64 103.96 64.31 103.24 65.96 102.83 67.72 102.5 69.5 102.27 71.28 102.08 73.08 102.21 74.85 102.37 76.61 102.79 78.33 103.21 80.05 103.84 81.69 104.66 83.26 105.48 84.82 106.43 86.31 107.58 87.64 108.8 88.91 110.1 90.09 111.45 91.22 112 92.7 111.02 93.95 109.27 94.4 107.62 95.08 105.96 95.77 104.35 96.54 102.81 97.46 101.21 98.28 99.76 99.33 98.22 100.26 96.81 101.36 95.4 102.46 94.09 103.69 92.89 105.02 91.53 106.2 90.43 107.62 89.26 108.97 88.26 110.45 87.24 111.92 86.2 113.38 85.29 114.92 84.42 116.48 83.61 118.09 82.92 119.74 82.35 121.44 81.79 123.14 81.31 124.87 80.74 126.62 80.32 128.41 79.88 130.21 79.78 132.06 79.43 133.88 79.3 135.73 79.27 137.59 79.35 139.44 79.36 141.64 79.33 143.83 79.41 145.61 80 147.29 80.97 148.78 82.28 149.97 83.77 150.9 85.44 151.45 87.17 151.67 89 151.76 90.84 151.67 92.67 151.69 94.5 151.68 96.34 151.78 98.17 151.81"/><polygon class="cls-2" points="36.6 213.18 34.7 213.02 32.9 212.4 31.13 211.7 29.66 210.49 28.27 209.21 27.27 207.6 26.45 205.91 25.85 204.11 25.67 202.22 25.75 200.02 25.78 197.82 25.72 196.07 25.81 194.32 26.01 192.57 26.05 190.82 26.36 189.09 26.58 187.35 26.78 185.6 27.33 183.93 27.92 182.29 28.29 180.53 28.91 178.84 29.5 177.14 30.35 175.55 31.06 173.91 31.8 172.28 32.67 170.7 33.71 169.23 34.74 167.77 35.64 166.21 36.87 164.89 37.9 163.42 39.22 162.19 40.39 160.83 41.76 159.66 43.04 158.4 44.47 157.31 45.91 156.25 47.38 155.21 48.9 154.27 50.49 153.44 52.05 152.57 53.59 151.61 55.25 150.94 56.84 150.29 55.67 149.07 54.47 147.77 53.33 146.41 52.36 144.93 51.6 143.33 50.75 141.78 50.21 140.09 49.65 138.42 49.04 136.75 48.74 135 48.67 133.23 48.65 131.47 48.6 129.65 48.84 127.84 49.15 126.05 49.55 124.26 50.2 122.56 50.91 120.89 51.65 119.22 52.67 117.71 53.77 116.26 54.78 114.75 56.05 113.44 57.43 112.25 58.81 111.07 60.34 110.1 61.82 109.02 63.46 108.22 65.19 107.63 66.93 107.11 68.66 106.54 70.45 106.29 72.26 106.11 74.08 106.05 75.52 106.13 76.97 106.15 78.72 106.4 80.46 106.77 82.16 107.25 83.84 107.84 85.38 108.72 86.95 109.53 88.44 110.48 89.93 111.45 91.23 112.67 92.45 113.94 93.64 115.26 94.75 116.63 95.76 118.09 96.69 119.61 97.32 121.26 98.15 122.84 98.61 124.56 99.07 126.27 99.32 128.02 99.54 129.78 99.55 131.54 99.52 133.31 99.29 135.05 98.96 136.78 98.51 138.48 97.98 140.15 97.4 141.81 96.54 143.35 95.79 144.96 94.68 146.33 93.61 147.72 92.53 149.12 91.14 150.32 92.9 150.98 94.58 151.66 96.18 152.51 97.77 153.36 99.37 154.21 100.83 155.3 102.28 156.38 103.82 157.33 105.12 158.59 106.49 159.77 107.85 160.97 109.13 162.24 110.39 163.54 111.47 165 112.64 166.38 113.63 167.89 114.56 169.44 115.63 170.91 116.42 172.54 117.26 174.14 118 175.79 118.63 177.48 119.33 179.15 119.91 180.86 120.44 182.59 120.84 184.35 121.24 186.11 121.42 187.91 121.71 189.7 121.96 191.49 122.03 193.3 122.09 195.1 122.14 196.88 122.09 198.66 122.12 200.44 122 202.22 121.95 204.12 121.4 205.94 120.55 207.63 119.5 209.21 118.13 210.51 116.58 211.59 114.9 212.48 113.06 212.93 111.17 213.19 109.35 213.1 107.53 213.14 105.72 213.05 103.9 213.04 102.08 212.99 100.27 213.12 98.45 213.17 96.63 213.17 94.81 213.07 93 213.09 91.18 213.1 89.36 213.16 87.54 213.16 85.73 213.09 83.92 213.06 82.1 213.07 80.29 213.19 78.47 213.12 76.65 213.1 74.83 213.14 73.02 213.1 71.2 213.06 69.38 213.08 67.56 213.04 65.75 213.09 63.93 213.02 62.11 213.19 60.29 213.04 58.47 213.05 56.65 213.08 54.83 212.99 53.01 213.12 51.19 213.04 49.37 213.06 47.55 213.14 45.73 213.09 43.91 213.16 42.08 213 40.26 213.09 38.43 213.19 36.6 213.18"/><polygon class="cls-2" points="47.6 210.19 49.42 210.06 51.23 210.17 53.05 210.16 54.86 210.06 56.68 210.09 58.49 210.09 60.31 210.04 62.12 210.08 63.93 210.13 65.74 210.05 67.55 210.14 69.37 210.04 71.18 210.16 73 210.09 74.81 210.09 76.62 210.15 78.44 210.11 80.25 210.09 82.07 210.06 83.89 210 85.7 210.04 87.52 210 89.34 210 91.15 210.16 92.97 210.03 94.79 210.07 96.6 210.01 98.42 210.08 100.24 210.04 102.06 210.13 103.88 210.15 105.7 210.02 107.52 210.11 109.34 210.17 111.17 210.11 112.93 209.93 114.56 209.25 116.02 208.3 117.33 207.13 118.23 205.62 118.86 203.97 119.05 202.22 118.99 200.44 119 198.67 118.95 196.89 119 195.11 119.02 193.33 118.88 191.56 118.79 189.79 118.56 188.03 118.22 186.28 117.76 184.57 117.32 182.85 116.93 181.12 116.21 179.49 115.68 177.78 114.93 176.18 114.17 174.57 113.32 173.01 112.43 171.47 111.43 170 110.38 168.57 109.3 167.17 108.1 165.86 106.94 164.52 105.72 163.24 104.48 161.97 103.12 160.83 101.83 159.6 100.36 158.61 98.93 157.55 97.36 156.71 95.87 155.75 94.28 154.96 92.69 154.17 91.04 153.53 89.39 152.89 87.72 152.29 86.61 151.11 87.23 149.58 88.62 148.54 89.93 147.38 91.17 146.16 92.14 144.7 93.14 143.27 93.96 141.74 94.87 140.24 95.35 138.56 95.97 136.92 96.19 135.18 96.47 133.46 96.63 131.72 96.41 129.98 96.26 128.16 96.05 126.33 95.44 124.58 94.9 122.83 94.08 121.17 93.19 119.56 92.19 118.02 91 116.61 89.69 115.31 88.34 114.06 86.8 113.05 85.25 112.07 83.71 111.07 81.99 110.42 80.23 109.88 78.46 109.38 76.65 109.05 74.84 109.06 73.03 108.93 71.23 109.1 69.47 109.51 67.73 109.98 66.03 110.54 64.36 111.22 62.74 112.02 61.24 113.02 59.8 114.11 58.48 115.33 57.28 116.67 56.03 117.98 55.07 119.51 54.09 121.03 53.39 122.69 52.66 124.35 52.26 126.11 51.93 127.88 51.7 129.67 51.51 131.47 51.63 133.23 51.8 134.99 52.22 136.71 52.63 138.43 53.27 140.08 54.09 141.64 54.91 143.2 55.86 144.69 57.01 146.03 58.23 147.3 59.53 148.48 60.88 149.61 61.43 151.08 60.44 152.34 58.7 152.78 57.05 153.47 55.39 154.15 53.78 154.93 52.23 155.84 50.64 156.67 49.19 157.71 47.65 158.64 46.24 159.75 44.83 160.85 43.52 162.07 42.32 163.41 40.96 164.59 39.86 166 38.69 167.36 37.69 168.84 36.67 170.31 35.63 171.77 34.72 173.31 33.84 174.87 33.04 176.47 32.35 178.13 31.77 179.83 31.22 181.53 30.74 183.25 30.17 185.01 29.75 186.8 29.31 188.59 29.21 190.45 28.86 192.27 28.73 194.12 28.7 195.97 28.78 197.82 28.79 200.02 28.76 202.22 28.83 203.99 29.43 205.67 30.39 207.17 31.71 208.36 33.2 209.28 34.87 209.83 36.6 210.05 38.43 210.14 40.27 210.05 42.1 210.08 43.93 210.07 45.77 210.16 47.6 210.19"/><polyline class="cls-3" points="131.6 77.59 132.02 78.79 131.63 79.93 131.3 81.08 130.22 81.78 129.86 83 128.75 83.5 127.78 84.11 126.76 84.68 125.57 84.63 124.46 84.86 123.3 84.92 122.2 84.55 121.04 84.3 120.07 83.63 119.15 82.9 118.56 81.88 118 80.88 117.62 79.81 117.15 78.75 117.16 77.59"/><polygon class="cls-2" points="47.6 210.19 49.42 210.06 51.23 210.17 53.05 210.16 54.86 210.06 56.68 210.09 58.49 210.09 60.31 210.04 62.12 210.08 63.93 210.13 65.74 210.05 67.55 210.14 69.37 210.04 71.18 210.16 73 210.09 74.81 210.09 76.62 210.15 78.44 210.11 80.25 210.09 82.07 210.06 83.89 210 85.7 210.04 87.52 210 89.34 210 91.15 210.16 92.97 210.03 94.79 210.07 96.6 210.01 98.42 210.08 100.24 210.04 102.06 210.13 103.88 210.15 105.7 210.02 107.52 210.11 109.34 210.17 111.17 210.11 112.93 209.93 114.56 209.25 116.02 208.3 117.33 207.13 118.23 205.62 118.86 203.97 119.05 202.22 118.99 200.44 119 198.67 118.95 196.89 119 195.11 119.02 193.33 118.88 191.56 118.79 189.79 118.56 188.03 118.22 186.28 117.76 184.57 117.32 182.85 116.93 181.12 116.21 179.49 115.68 177.78 114.93 176.18 114.17 174.57 113.32 173.01 112.43 171.47 111.43 170 110.38 168.57 109.3 167.17 108.1 165.86 106.94 164.52 105.72 163.24 104.48 161.97 103.12 160.83 101.83 159.6 100.36 158.61 98.93 157.55 97.36 156.71 95.87 155.75 94.28 154.96 92.69 154.17 91.04 153.53 89.39 152.89 87.72 152.29 86.61 151.11 87.23 149.58 88.62 148.54 89.93 147.38 91.17 146.16 92.14 144.7 93.14 143.27 93.96 141.74 94.87 140.24 95.35 138.56 95.97 136.92 96.19 135.18 96.47 133.46 96.63 131.72 96.41 129.98 96.26 128.16 96.05 126.33 95.44 124.58 94.9 122.83 94.08 121.17 93.19 119.56 92.19 118.02 91 116.61 89.69 115.31 88.34 114.06 86.8 113.05 85.25 112.07 83.71 111.07 81.99 110.42 80.23 109.88 78.46 109.38 76.65 109.05 74.84 109.06 73.03 108.93 71.23 109.1 69.47 109.51 67.73 109.98 66.03 110.54 64.36 111.22 62.74 112.02 61.24 113.02 59.8 114.11 58.48 115.33 57.28 116.67 56.03 117.98 55.07 119.51 54.09 121.03 53.39 122.69 52.66 124.35 52.26 126.11 51.93 127.88 51.7 129.67 51.51 131.47 51.63 133.23 51.8 134.99 52.22 136.71 52.63 138.43 53.27 140.08 54.09 141.64 54.91 143.2 55.86 144.69 57.01 146.03 58.23 147.3 59.53 148.48 60.88 149.61 61.43 151.08 60.44 152.34 58.7 152.78 57.05 153.47 55.39 154.15 53.78 154.93 52.23 155.84 50.64 156.67 49.19 157.71 47.65 158.64 46.24 159.75 44.83 160.85 43.52 162.07 42.32 163.41 40.96 164.59 39.86 166 38.69 167.36 37.69 168.84 36.67 170.31 35.63 171.77 34.72 173.31 33.84 174.87 33.04 176.47 32.35 178.13 31.77 179.83 31.22 181.53 30.74 183.25 30.17 185.01 29.75 186.8 29.31 188.59 29.21 190.45 28.86 192.27 28.73 194.12 28.7 195.97 28.78 197.82 28.79 200.02 28.76 202.22 28.83 203.99 29.43 205.67 30.39 207.17 31.71 208.36 33.2 209.28 34.87 209.83 36.6 210.05 38.43 210.14 40.27 210.05 42.1 210.08 43.93 210.07 45.77 210.16 47.6 210.19"/><polygon class="cls-3" points="47.6 210.19 49.42 210.06 51.23 210.17 53.05 210.16 54.86 210.06 56.68 210.09 58.49 210.09 60.31 210.04 62.12 210.08 63.93 210.13 65.74 210.05 67.55 210.14 69.37 210.04 71.18 210.16 73 210.09 74.81 210.09 76.62 210.15 78.44 210.11 80.25 210.09 82.07 210.06 83.89 210 85.7 210.04 87.52 210 89.34 210 91.15 210.16 92.97 210.03 94.79 210.07 96.6 210.01 98.42 210.08 100.24 210.04 102.06 210.13 103.88 210.15 105.7 210.02 107.52 210.11 109.34 210.17 111.17 210.11 112.93 209.93 114.56 209.25 116.02 208.3 117.33 207.13 118.23 205.62 118.86 203.97 119.05 202.22 118.99 200.44 119 198.67 118.95 196.89 119 195.11 119.02 193.33 118.88 191.56 118.79 189.79 118.56 188.03 118.22 186.28 117.76 184.57 117.32 182.85 116.93 181.12 116.21 179.49 115.68 177.78 114.93 176.18 114.17 174.57 113.32 173.01 112.43 171.47 111.43 170 110.38 168.57 109.3 167.17 108.1 165.86 106.94 164.52 105.72 163.24 104.48 161.97 103.12 160.83 101.83 159.6 100.36 158.61 98.93 157.55 97.36 156.71 95.87 155.75 94.28 154.96 92.69 154.17 91.04 153.53 89.39 152.89 87.72 152.29 86.61 151.11 87.23 149.58 88.62 148.54 89.93 147.38 91.17 146.16 92.14 144.7 93.14 143.27 93.96 141.74 94.87 140.24 95.35 138.56 95.97 136.92 96.19 135.18 96.47 133.46 96.63 131.72 96.41 129.98 96.26 128.16 96.05 126.33 95.44 124.58 94.9 122.83 94.08 121.17 93.19 119.56 92.19 118.02 91 116.61 89.69 115.31 88.34 114.06 86.8 113.05 85.25 112.07 83.71 111.07 81.99 110.42 80.23 109.88 78.46 109.38 76.65 109.05 74.84 109.06 73.03 108.93 71.23 109.1 69.47 109.51 67.73 109.98 66.03 110.54 64.36 111.22 62.74 112.02 61.24 113.02 59.8 114.11 58.48 115.33 57.28 116.67 56.03 117.98 55.07 119.51 54.09 121.03 53.39 122.69 52.66 124.35 52.26 126.11 51.93 127.88 51.7 129.67 51.51 131.47 51.63 133.23 51.8 134.99 52.22 136.71 52.63 138.43 53.27 140.08 54.09 141.64 54.91 143.2 55.86 144.69 57.01 146.03 58.23 147.3 59.53 148.48 60.88 149.61 61.43 151.08 60.44 152.34 58.7 152.78 57.05 153.47 55.39 154.15 53.78 154.93 52.23 155.84 50.64 156.67 49.19 157.71 47.65 158.64 46.24 159.75 44.83 160.85 43.52 162.07 42.32 163.41 40.96 164.59 39.86 166 38.69 167.36 37.69 168.84 36.67 170.31 35.63 171.77 34.72 173.31 33.84 174.87 33.04 176.47 32.35 178.13 31.77 179.83 31.22 181.53 30.74 183.25 30.17 185.01 29.75 186.8 29.31 188.59 29.21 190.45 28.86 192.27 28.73 194.12 28.7 195.97 28.78 197.82 28.79 200.02 28.76 202.22 28.83 203.99 29.43 205.67 30.39 207.17 31.71 208.36 33.2 209.28 34.87 209.83 36.6 210.05 38.43 210.14 40.27 210.05 42.1 210.08 43.93 210.07 45.77 210.16 47.6 210.19"/><polyline class="cls-3" points="81.03 135.98 81.45 137.18 81.06 138.31 80.73 139.47 79.65 140.17 79.29 141.38 78.17 141.88 77.21 142.5 76.19 143.06 75 143.02 73.89 143.25 72.73 143.3 71.63 142.94 70.47 142.68 69.5 142.01 68.58 141.28 67.99 140.26 67.43 139.27 67.05 138.2 66.58 137.14 66.59 135.98"/><polygon class="cls-2" points="138.72 213.13 136.84 212.88 135.03 212.35 133.24 211.71 131.73 210.55 130.34 209.25 129.36 207.62 128.55 205.92 127.99 204.11 127.94 202.22 127.81 200.02 127.75 197.82 127.95 196.07 127.86 194.31 128.05 192.57 128.15 190.82 128.43 189.09 128.75 187.36 129.1 185.65 129.35 183.91 129.9 182.25 130.58 180.58 130.96 178.82 131.68 177.17 132.41 175.53 133.12 173.88 133.91 172.27 134.83 170.72 135.86 169.25 136.72 167.68 137.8 166.24 138.86 164.79 140.13 163.51 141.22 162.08 142.57 160.89 143.85 159.63 145.16 158.41 146.65 157.39 148.08 156.32 149.47 155.17 150.98 154.2 152.61 153.44 154.16 152.55 155.74 151.7 157.38 150.98 159.07 150.31 157.74 149.11 156.54 147.81 155.46 146.4 154.52 144.9 153.72 143.32 152.94 141.74 152.3 140.1 151.6 138.47 151.28 136.72 150.92 135 150.79 133.23 150.62 131.47 150.81 129.65 150.92 127.83 151.29 126.05 151.82 124.31 152.38 122.59 153.09 120.92 153.82 119.25 154.79 117.71 155.89 116.26 156.97 114.81 158.18 113.45 159.5 112.2 160.99 111.15 162.41 110.02 163.98 109.1 165.62 108.31 167.31 107.63 169.04 107.09 170.77 106.55 172.58 106.3 174.37 105.99 176.19 105.96 177.65 105.94 179.08 106.24 180.83 106.47 182.59 106.69 184.25 107.35 185.91 107.96 187.48 108.75 189.09 109.5 190.59 110.45 192.01 111.5 193.32 112.7 194.63 113.89 195.72 115.29 196.92 116.6 197.9 118.08 198.73 119.64 199.55 121.22 200.2 122.86 200.76 124.55 201.11 126.28 201.46 128.02 201.71 129.78 201.75 131.54 201.62 133.3 201.37 135.05 201.14 136.79 200.59 138.47 200.19 140.19 199.44 141.78 198.65 143.35 197.79 144.88 196.9 146.4 195.78 147.76 194.55 149.02 193.42 150.29 194.98 151.08 196.64 151.78 198.3 152.51 199.84 153.45 201.44 154.3 202.93 155.32 204.44 156.32 205.94 157.33 207.26 158.56 208.71 159.66 209.91 161.02 211.21 162.28 212.37 163.66 213.66 164.94 214.68 166.44 215.77 167.88 216.79 169.37 217.69 170.94 218.5 172.56 219.31 174.17 220.11 175.79 220.85 177.44 221.4 179.16 221.93 180.89 222.51 182.6 222.88 184.37 223.34 186.12 223.72 187.89 223.96 189.68 224.12 191.49 224.19 193.29 224.18 195.1 224.25 196.88 224.25 198.66 224.18 200.44 224.22 202.22 224.01 204.11 223.47 205.93 222.75 207.68 221.55 209.15 220.25 210.52 218.69 211.58 217.04 212.53 215.19 213.01 213.29 213.12 211.47 213.14 209.65 213.19 207.83 213.04 206.02 213.04 204.2 213.13 202.38 213.04 200.56 213.12 198.75 213.12 196.93 213.1 195.11 213.15 193.29 213.06 191.48 213.18 189.66 213.09 187.85 213.1 186.03 213.13 184.22 213.2 182.41 213.16 180.59 212.99 178.77 212.99 176.95 213.06 175.14 213.2 173.32 213.18 171.5 213.01 169.68 213.14 167.87 213.08 166.05 213.02 164.22 213.15 162.41 213.17 160.59 212.99 158.77 213.04 156.94 213.15 155.12 213.09 153.31 213.1 151.49 213.15 149.67 213.1 147.84 213.11 146.02 213.14 144.2 213.05 142.38 213.15 140.55 213.1 138.72 213.13"/><polygon class="cls-2" points="149.72 210.19 151.54 210.06 153.35 210.17 155.17 210.16 156.98 210.06 158.8 210.09 160.61 210.09 162.43 210.04 164.24 210.08 166.05 210.13 167.86 210.05 169.67 210.14 171.48 210.04 173.3 210.16 175.11 210.09 176.93 210.09 178.74 210.15 180.56 210.11 182.37 210.09 184.19 210.06 186 210 187.82 210.04 189.64 210 191.45 210 193.27 210.16 195.09 210.03 196.91 210.07 198.72 210.01 200.54 210.08 202.36 210.04 204.18 210.13 206 210.15 207.81 210.02 209.64 210.11 211.46 210.17 213.29 210.11 215.05 209.93 216.68 209.25 218.14 208.3 219.45 207.13 220.35 205.62 220.98 203.97 221.16 202.22 221.1 200.44 221.11 198.67 221.07 196.89 221.12 195.11 221.14 193.33 221 191.56 220.9 189.79 220.67 188.03 220.33 186.28 219.88 184.57 219.44 182.85 219.04 181.12 218.32 179.49 217.8 177.78 217.05 176.18 216.29 174.57 215.44 173.01 214.55 171.47 213.55 170 212.5 168.57 211.41 167.17 210.22 165.86 209.06 164.52 207.84 163.24 206.6 161.97 205.24 160.83 203.95 159.6 202.47 158.61 201.05 157.55 199.48 156.71 197.99 155.75 196.4 154.96 194.81 154.17 193.16 153.53 191.51 152.89 189.84 152.29 188.73 151.11 189.35 149.58 190.74 148.54 192.04 147.38 193.29 146.16 194.26 144.7 195.25 143.27 196.08 141.74 196.99 140.24 197.47 138.56 198.08 136.92 198.31 135.18 198.58 133.46 198.75 131.72 198.53 129.98 198.37 128.16 198.17 126.33 197.56 124.58 197.01 122.83 196.2 121.17 195.31 119.56 194.3 118.02 193.11 116.61 191.8 115.31 190.46 114.06 188.92 113.05 187.37 112.07 185.83 111.07 184.1 110.42 182.35 109.88 180.58 109.38 178.77 109.05 176.96 109.06 175.15 108.93 173.35 109.1 171.59 109.51 169.85 109.98 168.14 110.54 166.48 111.22 164.86 112.02 163.35 113.02 161.92 114.11 160.6 115.33 159.39 116.67 158.15 117.98 157.19 119.51 156.21 121.03 155.51 122.69 154.78 124.35 154.37 126.11 154.04 127.88 153.82 129.67 153.62 131.47 153.75 133.23 153.92 134.99 154.34 136.71 154.75 138.43 155.39 140.08 156.21 141.64 157.03 143.2 157.98 144.69 159.13 146.03 160.35 147.3 161.65 148.48 163 149.61 163.55 151.08 162.56 152.34 160.82 152.78 159.16 153.47 157.51 154.15 155.89 154.93 154.35 155.84 152.76 156.67 151.3 157.71 149.77 158.64 148.36 159.75 146.94 160.85 145.63 162.07 144.44 163.41 143.08 164.59 141.98 166 140.81 167.36 139.8 168.84 138.79 170.31 137.75 171.77 136.84 173.31 135.96 174.87 135.16 176.47 134.46 178.13 133.89 179.83 133.34 181.53 132.86 183.25 132.29 185.01 131.87 186.8 131.42 188.59 131.33 190.45 130.98 192.27 130.84 194.12 130.82 195.97 130.89 197.82 130.91 200.02 130.88 202.22 130.95 203.99 131.55 205.67 132.51 207.17 133.83 208.36 135.32 209.28 136.98 209.83 138.72 210.05 140.55 210.14 142.38 210.05 144.21 210.08 146.05 210.07 147.88 210.16 149.72 210.19"/><polygon class="cls-3" points="149.72 210.19 151.54 210.06 153.35 210.17 155.17 210.16 156.98 210.06 158.8 210.09 160.61 210.09 162.43 210.04 164.24 210.08 166.05 210.13 167.86 210.05 169.67 210.14 171.48 210.04 173.3 210.16 175.11 210.09 176.93 210.09 178.74 210.15 180.56 210.11 182.37 210.09 184.19 210.06 186 210 187.82 210.04 189.64 210 191.45 210 193.27 210.16 195.09 210.03 196.91 210.07 198.72 210.01 200.54 210.08 202.36 210.04 204.18 210.13 206 210.15 207.81 210.02 209.64 210.11 211.46 210.17 213.29 210.11 215.05 209.93 216.68 209.25 218.14 208.3 219.45 207.13 220.35 205.62 220.98 203.97 221.16 202.22 221.1 200.44 221.11 198.67 221.07 196.89 221.12 195.11 221.14 193.33 221 191.56 220.9 189.79 220.67 188.03 220.33 186.28 219.88 184.57 219.44 182.85 219.04 181.12 218.32 179.49 217.8 177.78 217.05 176.18 216.29 174.57 215.44 173.01 214.55 171.47 213.55 170 212.5 168.57 211.41 167.17 210.22 165.86 209.06 164.52 207.84 163.24 206.6 161.97 205.24 160.83 203.95 159.6 202.47 158.61 201.05 157.55 199.48 156.71 197.99 155.75 196.4 154.96 194.81 154.17 193.16 153.53 191.51 152.89 189.84 152.29 188.73 151.11 189.35 149.58 190.74 148.54 192.04 147.38 193.29 146.16 194.26 144.7 195.25 143.27 196.08 141.74 196.99 140.24 197.47 138.56 198.08 136.92 198.31 135.18 198.58 133.46 198.75 131.72 198.53 129.98 198.37 128.16 198.17 126.33 197.56 124.58 197.01 122.83 196.2 121.17 195.31 119.56 194.3 118.02 193.11 116.61 191.8 115.31 190.46 114.06 188.92 113.05 187.37 112.07 185.83 111.07 184.1 110.42 182.35 109.88 180.58 109.38 178.77 109.05 176.96 109.06 175.15 108.93 173.35 109.1 171.59 109.51 169.85 109.98 168.14 110.54 166.48 111.22 164.86 112.02 163.35 113.02 161.92 114.11 160.6 115.33 159.39 116.67 158.15 117.98 157.19 119.51 156.21 121.03 155.51 122.69 154.78 124.35 154.37 126.11 154.04 127.88 153.82 129.67 153.62 131.47 153.75 133.23 153.92 134.99 154.34 136.71 154.75 138.43 155.39 140.08 156.21 141.64 157.03 143.2 157.98 144.69 159.13 146.03 160.35 147.3 161.65 148.48 163 149.61 163.55 151.08 162.56 152.34 160.82 152.78 159.16 153.47 157.51 154.15 155.89 154.93 154.35 155.84 152.76 156.67 151.3 157.71 149.77 158.64 148.36 159.75 146.94 160.85 145.63 162.07 144.44 163.41 143.08 164.59 141.98 166 140.81 167.36 139.8 168.84 138.79 170.31 137.75 171.77 136.84 173.31 135.96 174.87 135.16 176.47 134.46 178.13 133.89 179.83 133.34 181.53 132.86 183.25 132.29 185.01 131.87 186.8 131.42 188.59 131.33 190.45 130.98 192.27 130.84 194.12 130.82 195.97 130.89 197.82 130.91 200.02 130.88 202.22 130.95 203.99 131.55 205.67 132.51 207.17 133.83 208.36 135.32 209.28 136.98 209.83 138.72 210.05 140.55 210.14 142.38 210.05 144.21 210.08 146.05 210.07 147.88 210.16 149.72 210.19"/><polyline class="cls-3" points="183.14 135.98 183.56 137.18 183.18 138.31 182.85 139.47 181.77 140.17 181.41 141.38 180.29 141.88 179.32 142.5 178.3 143.06 177.12 143.02 176 143.25 174.84 143.3 173.74 142.94 172.59 142.68 171.62 142.01 170.7 141.28 170.1 140.26 169.55 139.27 169.17 138.2 168.7 137.14 168.71 135.98"/><polygon class="cls-4" points="176 124.47 172.89 122.85 169.86 121.06 166.8 119.33 163.71 117.67 160.64 115.96 157.52 114.35 154.41 112.7 151.39 110.89 148.2 109.39 145.14 107.62 148.19 105.85 151.33 104.27 154.44 102.63 157.43 100.78 160.53 99.13 163.71 97.61 166.76 95.88 169.88 94.25 172.91 92.46 176 90.69 179.03 92.55 182.13 94.2 185.3 95.73 188.33 97.51 191.4 99.22 194.53 100.81 197.56 102.59 200.63 104.31 203.79 105.86 206.91 107.62 203.71 109.2 200.64 110.91 197.56 112.6 194.55 114.42 191.4 115.98 188.32 117.66 185.21 119.3 182.15 121.03 179.12 122.83 176 124.47"/><polygon class="cls-4" points="73.89 124.46 70.79 122.81 67.68 121.18 64.67 119.37 61.57 117.7 58.53 115.95 55.36 114.42 52.36 112.58 49.2 111.02 46.12 109.33 43.01 107.62 46.1 105.89 49.23 104.29 52.26 102.51 55.43 100.99 58.4 99.09 61.54 97.52 64.61 95.82 67.69 94.12 70.78 92.43 73.89 90.7 76.97 92.45 80.09 94.05 83.13 95.83 86.24 97.46 89.25 99.27 92.4 100.84 95.44 102.61 98.54 104.26 101.7 105.82 104.78 107.62 101.62 109.25 98.61 111.06 95.49 112.68 92.42 114.4 89.38 116.14 86.24 117.74 83.14 119.39 80.08 121.12 77.03 122.88 73.89 124.46"/><polygon class="cls-4" points="124.46 66.53 121.37 64.78 118.34 62.99 115.19 61.43 112.17 59.63 109.06 58.01 105.98 56.31 102.88 54.66 99.8 52.97 96.71 51.27 93.52 49.6 96.69 47.92 99.79 46.26 102.84 44.52 105.9 42.78 109.03 41.18 112.12 39.52 115.14 37.72 118.33 36.23 121.42 34.54 124.46 32.74 127.53 34.45 130.64 36.08 133.71 37.78 136.83 39.4 139.91 41.1 142.99 42.78 146.05 44.52 149.09 46.27 152.15 48.02 155.24 49.6 152.18 51.2 149.15 52.98 146.05 54.65 143 56.39 139.89 58.02 136.79 59.67 133.7 61.35 130.65 63.1 127.57 64.79 124.46 66.53"/><polyline class="cls-3" points="146.71 107.62 146.72 110.98 146.72 114.35 146.67 117.72 146.72 121.09 146.67 124.47"/><polyline class="cls-3" points="103.28 107.62 103.24 110.98 103.25 114.35 103.24 117.72 103.23 121.09 103.27 124.47"/><polyline class="cls-3" points="153.72 49.6 153.7 52.97 153.67 56.33 153.7 59.7 153.71 63.07 153.71 66.45"/></g></svg>
