<svg xmlns="http://www.w3.org/2000/svg" viewBox="0 0 250 250"><defs><style>.cls-1{fill:#f8f8f8;}.cls-2{fill:#fff;}.cls-3,.cls-6{fill:none;stroke:#3e82f7;stroke-miterlimit:10;}.cls-3{stroke-width:3px;}.cls-4{fill:#3e82f7;}.cls-5{fill:#e2dfd6;}.cls-6{stroke-width:0.5px;}</style></defs><title>icon-whitelabel-consistency</title><g id="Base_Dots" data-name="Base Dots"><circle class="cls-1" cx="125" cy="125" r="100"/></g><g id="Artwork"><polygon class="cls-2" points="163.4 160.57 161.59 160.52 159.79 160.52 157.98 160.6 156.18 160.5 154.37 160.48 152.57 160.6 150.76 160.46 148.96 160.36 147.15 160.57 145.35 160.53 143.55 160.43 141.75 160.51 139.95 160.4 138.14 160.63 136.34 160.59 134.53 160.44 132.73 160.37 130.92 160.53 129.12 160.44 127.31 160.41 125.5 160.41 123.7 160.36 121.89 160.49 120.08 160.5 118.28 160.53 116.47 160.55 114.66 160.62 112.85 160.42 111.05 160.49 109.24 160.48 107.43 160.63 105.62 160.53 103.81 160.45 102 160.47 100.19 160.52 98.37 160.56 96.56 160.61 94.89 160.19 93.22 159.75 91.93 158.6 90.85 157.27 90.26 155.66 89.99 153.97 90.04 152.19 90 150.4 90.05 148.61 90.09 146.83 90.12 145.04 90.11 143.26 90 141.47 90.13 139.69 89.93 137.91 90.13 136.12 90.12 134.34 89.95 132.55 90.15 130.76 90.03 128.98 89.95 127.19 90.02 125.4 90.01 123.62 89.91 121.83 90.07 120.05 90.14 118.26 89.93 116.47 90.12 114.69 90.1 112.9 90.01 111.11 89.98 109.32 89.89 107.54 90.04 105.75 89.93 103.97 90.03 102.18 90.13 100.39 89.93 98.6 90.06 96.81 90.03 95.03 90.05 93.24 90.14 91.45 90.04 89.66 90.02 87.88 89.98 86.09 90.03 84.3 89.98 82.51 90.14 80.72 90.07 78.93 89.97 77.15 90 75.36 89.98 73.58 89.91 71.79 89.96 70.01 89.93 68.22 90.09 66.43 89.94 64.64 90.02 62.86 90.09 61.07 90.02 59.28 90.09 57.49 90.09 55.7 89.97 53.91 90.04 52.12 89.91 50.33 90.02 48.54 89.97 46.75 90.09 44.96 90.1 43.17 90.16 41.38 90 39.59 89.94 37.8 89.93 36.01 90.07 34.21 90.03 32.42 90.02 30.63 89.95 28.83 89.95 27.03 90.26 25.34 90.94 23.78 91.96 22.43 93.23 21.26 94.86 20.68 96.56 20.5 98.36 20.44 100.17 20.49 101.97 20.54 103.78 20.52 105.58 20.57 107.39 20.5 109.19 20.6 111 20.37 112.8 20.57 114.61 20.56 116.41 20.52 118.21 20.63 120.01 20.46 121.81 20.57 123.62 20.54 125.42 20.44 127.23 20.51 129.03 20.42 130.84 20.63 132.65 20.5 134.45 20.37 136.26 20.4 138.07 20.49 139.87 20.43 141.68 20.58 143.49 20.48 145.3 20.41 147.11 20.62 148.91 20.45 150.72 20.53 152.53 20.44 154.34 20.62 156.15 20.36 157.96 20.41 159.77 20.37 161.58 20.63 163.4 20.59 165.12 20.61 166.65 21.4 168.1 22.33 169.13 23.72 169.77 25.32 169.99 27.03 169.84 28.82 170.04 30.6 169.99 32.39 169.94 34.17 169.81 35.96 169.94 37.74 169.97 39.53 170.03 41.31 169.91 43.09 169.94 44.88 169.87 46.66 170.02 48.45 169.84 50.24 170.05 52.02 169.98 53.81 169.89 55.6 169.95 57.38 169.86 59.17 169.97 60.95 169.97 62.74 169.87 64.53 169.82 66.31 169.79 68.1 169.83 69.89 170.06 71.68 169.86 73.46 169.94 75.25 169.98 77.03 169.96 78.82 169.84 80.61 170.01 82.4 169.81 84.19 169.99 85.97 169.86 87.76 169.84 89.55 169.83 91.34 170.06 93.13 169.95 94.91 170.01 96.7 170.03 98.49 169.93 100.28 169.85 102.07 169.95 103.85 169.94 105.64 169.84 107.42 169.83 109.21 169.94 110.99 169.91 112.78 169.79 114.57 169.82 116.36 169.95 118.14 169.88 119.93 169.96 121.72 170.02 123.51 169.79 125.3 170.06 127.09 169.81 128.88 169.8 130.67 169.9 132.46 170.01 134.25 169.95 136.04 169.96 137.83 169.84 139.62 169.93 141.41 169.88 143.2 169.79 144.99 170.06 146.79 169.8 148.58 169.94 150.38 170.03 152.17 169.8 153.97 169.66 155.65 169.06 157.24 167.99 158.56 166.7 159.69 165.12 160.4 163.4 160.57"/><polygon class="cls-3" points="163.4 160.57 161.59 160.52 159.79 160.52 157.98 160.6 156.18 160.5 154.37 160.48 152.57 160.6 150.76 160.46 148.96 160.36 147.15 160.57 145.35 160.53 143.55 160.43 141.75 160.51 139.95 160.4 138.14 160.63 136.34 160.59 134.53 160.44 132.73 160.37 130.92 160.53 129.12 160.44 127.31 160.41 125.5 160.41 123.7 160.36 121.89 160.49 120.08 160.5 118.28 160.53 116.47 160.55 114.66 160.62 112.85 160.42 111.05 160.49 109.24 160.48 107.43 160.63 105.62 160.53 103.81 160.45 102 160.47 100.19 160.52 98.37 160.56 96.56 160.61 94.89 160.19 93.22 159.75 91.93 158.6 90.85 157.27 90.26 155.66 89.99 153.97 90.04 152.19 90 150.4 90.05 148.61 90.09 146.83 90.12 145.04 90.11 143.26 90 141.47 90.13 139.69 89.93 137.91 90.13 136.12 90.12 134.34 89.95 132.55 90.15 130.76 90.03 128.98 89.95 127.19 90.02 125.4 90.01 123.62 89.91 121.83 90.07 120.05 90.14 118.26 89.93 116.47 90.12 114.69 90.1 112.9 90.01 111.11 89.98 109.32 89.89 107.54 90.04 105.75 89.93 103.97 90.03 102.18 90.13 100.39 89.93 98.6 90.06 96.81 90.03 95.03 90.05 93.24 90.14 91.45 90.04 89.66 90.02 87.88 89.98 86.09 90.03 84.3 89.98 82.51 90.14 80.72 90.07 78.93 89.97 77.15 90 75.36 89.98 73.58 89.91 71.79 89.96 70.01 89.93 68.22 90.09 66.43 89.94 64.64 90.02 62.86 90.09 61.07 90.02 59.28 90.09 57.49 90.09 55.7 89.97 53.91 90.04 52.12 89.91 50.33 90.02 48.54 89.97 46.75 90.09 44.96 90.1 43.17 90.16 41.38 90 39.59 89.94 37.8 89.93 36.01 90.07 34.21 90.03 32.42 90.02 30.63 89.95 28.83 89.95 27.03 90.26 25.34 90.94 23.78 91.96 22.43 93.23 21.26 94.86 20.68 96.56 20.5 98.36 20.44 100.17 20.49 101.97 20.54 103.78 20.52 105.58 20.57 107.39 20.5 109.19 20.6 111 20.37 112.8 20.57 114.61 20.56 116.41 20.52 118.21 20.63 120.01 20.46 121.81 20.57 123.62 20.54 125.42 20.44 127.23 20.51 129.03 20.42 130.84 20.63 132.65 20.5 134.45 20.37 136.26 20.4 138.07 20.49 139.87 20.43 141.68 20.58 143.49 20.48 145.3 20.41 147.11 20.62 148.91 20.45 150.72 20.53 152.53 20.44 154.34 20.62 156.15 20.36 157.96 20.41 159.77 20.37 161.58 20.63 163.4 20.59 165.12 20.61 166.65 21.4 168.1 22.33 169.13 23.72 169.77 25.32 169.99 27.03 169.84 28.82 170.04 30.6 169.99 32.39 169.94 34.17 169.81 35.96 169.94 37.74 169.97 39.53 170.03 41.31 169.91 43.09 169.94 44.88 169.87 46.66 170.02 48.45 169.84 50.24 170.05 52.02 169.98 53.81 169.89 55.6 169.95 57.38 169.86 59.17 169.97 60.95 169.97 62.74 169.87 64.53 169.82 66.31 169.79 68.1 169.83 69.89 170.06 71.68 169.86 73.46 169.94 75.25 169.98 77.03 169.96 78.82 169.84 80.61 170.01 82.4 169.81 84.19 169.99 85.97 169.86 87.76 169.84 89.55 169.83 91.34 170.06 93.13 169.95 94.91 170.01 96.7 170.03 98.49 169.93 100.28 169.85 102.07 169.95 103.85 169.94 105.64 169.84 107.42 169.83 109.21 169.94 110.99 169.91 112.78 169.79 114.57 169.82 116.36 169.95 118.14 169.88 119.93 169.96 121.72 170.02 123.51 169.79 125.3 170.06 127.09 169.81 128.88 169.8 130.67 169.9 132.46 170.01 134.25 169.95 136.04 169.96 137.83 169.84 139.62 169.93 141.41 169.88 143.2 169.79 144.99 170.06 146.79 169.8 148.58 169.94 150.38 170.03 152.17 169.8 153.97 169.66 155.65 169.06 157.24 167.99 158.56 166.7 159.69 165.12 160.4 163.4 160.57"/><polygon class="cls-2" points="136.11 147.39 135.78 149.26 134.91 150.94 133.57 152.29 131.86 153.13 129.98 153.4 128.09 153.15 126.39 152.29 125.02 150.97 124.16 149.27 123.83 147.39 124.16 145.51 125.02 143.81 126.39 142.49 128.1 141.65 129.98 141.37 131.87 141.62 133.57 142.48 134.92 143.83 135.81 145.51 136.11 147.39"/><polygon class="cls-3" points="136.11 147.39 135.78 149.26 134.91 150.94 133.57 152.29 131.86 153.13 129.98 153.4 128.09 153.15 126.39 152.29 125.02 150.97 124.16 149.27 123.83 147.39 124.16 145.51 125.02 143.81 126.39 142.49 128.1 141.65 129.98 141.37 131.87 141.62 133.57 142.48 134.92 143.83 135.81 145.51 136.11 147.39"/><path class="cls-4" d="M119.3,36.14l1.58,0,1.68.15h2.15l1.78-.06h.13l1.64-.13,1.52,0,1.66.15.24,0,.25,0,1.63-.12,1.62,0,1.78.06h.31l1.69-.12,1.52,0,1.62.16.18,0h.18l1.78,0h.11l1.64-.1,1.64.05h2l1.69,0,1.69,0h1.92l1.68,0,1.68.09h.32l1.67-.09h.52l0,.39V37l.1,1.57-.12,1.57v.35l.07,1.63-.1,1.63V44l0,1.78v.14l.1,1.7v1.62l-.08,1.7V51l0,1.78V53l.07,1.7,0,1.64L160.66,58v.35l.1,1.6-.09,1.6v.27l.05,1.78v.13l.12,1.57-.1,1.57V67l0,1.78v.32l.13,1.62,0,1.62v.18l.05,1.6-.14,1.6,0,.17v.18l0,1.78V78l.08,1.73,0,1.61L160.71,83v.11l-.05,1.79v.2l0,.2.15,1.5-.13,1.5,0,.26,0,.26.13,1.53-.13,1.53,0,.23,0,.23.11,1.6-.08,1.61v.32l.09,1.66,0,1.66v.05l0,1.78v1.8l0,1.7-.08,1.74v.19l0,1.78v.24l.15,1.58-.06,1.59v.21l.05,1.66-.09,1.66v.23l0,1.83.06,1.72,0,1.62-.12,1.69v.36l.08,1.61-.11,1.61V126l0,1.79v.25l.16,1.64v1.55l-.11,1.7v.77H158.5l-1.68-.1h-.36l-1.67.1h-1.64l-1.8,0-1.75,0-1.78,0h-.21l-1.63.09-1.63-.07H144l-1.65.11-1.65,0h-.15l-1.57.05-1.58-.16-.17,0h-.17l-1.78,0h-.22l-1.51.14L132,133.7h-.28l-1.71,0-1.72-.05h-.28l-1.7.1-1.67,0H123l-1.73-.05H121l-1.62.06-1.62-.11h-.22l-.22,0-1.65.13h-1.61l-1.74-.06h-.16l-1.73,0H107l-1.7-.08H105l-1.8.05-1.72.06H99.84l-.56,0,0-.42v-.22l0-.22-.12-1.59.08-1.59v-.11l0-1.78v-.08l0-1.78v-.13l-.09-1.66,0-1.62.07-1.78v-.19l0-.19-.13-1.51.15-1.51,0-.17v-.17l0-1.78v-.08l-.07-1.64.08-1.64v-.28L99.22,110l.05-1.67v-.17l0-1.78v-.09l-.09-1.6.11-1.6v-.41l-.11-1.56.13-1.56v-.33l0-1.69.06-1.69v-.2l0-.2-.15-1.55.1-1.55v-.27l0-1.76,0-1.72,0-1.67.07-1.79v-2l0-1.79,0-1.66.08-1.66V78l0-1.78V76l-.08-1.66.06-1.66V72.4l-.09-1.76-.08-1.72V65.47l0-1.75,0-1.78v-.2L99.12,60V58.34l.07-1.73v-.19l0-1.72,0-1.71,0-1.79V51l-.07-1.61.11-1.61v-.28l0-1.73,0-1.73v-.3l-.14-1.65V40.46l.05-1.75V36.24l.61,0,1.64.07h.27l1.71-.07h1.68l1.78,0H107l1.65,0,1.65.09h.36l1.6-.11,1.6.08H114l1.8,0,1.77,0h.06l1.68-.06m8.86-3-1.77.14-1.78.06h-1.78l-1.78-.16-1.77,0-1.77.06-1.77,0H114l-1.77-.09-1.78.12-1.78-.1-1.78.05-1.78,0h-1.78l-1.78.08-1.78-.08L98,33.29l-1.74,0L96.11,35l.05,1.79v1.79l-.05,1.79V42.2L96.27,44l0,1.79,0,1.79-.13,1.78.08,1.79,0,1.79,0,1.79,0,1.79-.07,1.79v1.79l.07,1.79,0,1.78,0,1.79V69l.08,1.78.09,1.78-.06,1.79.09,1.78,0,1.78-.09,1.78.05,1.78,0,1.78V85l-.07,1.79,0,1.78,0,1.78,0,1.78L96.11,94l.17,1.79-.06,1.78,0,1.78-.15,1.78.12,1.78-.12,1.78.1,1.78,0,1.78L96.21,110l.08,1.78-.09,1.78.08,1.78,0,1.78-.17,1.78.15,1.78-.07,1.78,0,1.78.1,1.78,0,1.78,0,1.78-.09,1.78.14,1.78L96.19,135l.06,1.75,1.75,0,1.79.06h1.78l1.78-.06,1.78,0,1.78.08h3.56l1.77,0,1.78.06h1.78l1.78-.14,1.78.12,1.78-.07,1.78.06h1.78l1.78,0,1.78-.11,1.78.06,1.78,0,1.77.15,1.78-.16,1.78,0,1.78.18,1.77-.06,1.77,0,1.77-.12,1.77.07,1.77-.09,1.78,0,1.78,0,1.78,0h1.78l1.78-.11,1.78.11h1.78l1.78,0,1.7,0,0-1.72,0-1.79.11-1.79v-1.79l-.17-1.79,0-1.79.12-1.79-.09-1.79.13-1.78,0-1.79-.07-1.79,0-1.79.1-1.79-.06-1.79.07-1.79-.17-1.79,0-1.78.09-1.79,0-1.79V101l0-1.78,0-1.78-.1-1.79.09-1.78-.12-1.78.15-1.78-.15-1.78.15-1.78L163.65,85l.05-1.79.12-1.78,0-1.78-.08-1.78,0-1.78.16-1.79-.06-1.78,0-1.78-.14-1.78,0-1.78.12-1.78-.13-1.78-.05-1.78.1-1.78-.11-1.78.1-1.78,0-1.78-.08-1.78,0-1.78.08-1.78V47.5l-.11-1.78,0-1.78.11-1.78-.07-1.78.14-1.78-.11-1.78.13-1.78,0-1.84-1.85.05-1.79,0-1.78.1-1.78-.09-1.78,0h-1.78l-1.78-.05-1.78.05h-1.77l-1.78-.06-1.78.11-1.78,0-1.78-.17-1.78,0-1.78.13-1.78-.06-1.78-.05-1.78.13-1.78-.17-1.78,0Z"/><polygon class="cls-5" points="137.81 64.42 134.32 64.42 130.82 64.4 127.33 64.37 124.83 63.39 123.78 60.89 123.83 57.34 123.79 53.79 123.81 50.24 124.83 47.74 127.33 46.7 130.82 46.74 134.32 46.75 137.81 46.72 140.28 47.77 141.34 50.24 141.33 53.78 141.36 57.34 141.31 60.89 140.28 63.36 137.81 64.42"/><polygon class="cls-3" points="134.53 61.11 131.04 61.13 127.54 61.11 124.05 61.11 121.57 60.09 120.53 57.61 120.53 54.06 120.51 50.51 120.56 46.95 121.58 44.49 124.05 43.42 127.54 43.43 131.03 43.45 134.53 43.44 137.03 44.46 138.06 46.95 138.04 50.5 138.01 54.06 138.06 57.61 137.04 60.12 134.53 61.11"/><polygon class="cls-2" points="103.37 229.96 101.56 230 99.76 229.87 97.95 229.94 96.15 230.11 94.34 230.05 92.54 230.05 90.73 230.02 88.93 229.95 87.12 230.11 85.32 230.12 83.52 229.9 81.72 229.92 79.92 229.93 78.11 229.87 76.31 229.98 74.5 229.99 72.7 230.12 70.89 229.88 69.09 229.99 67.28 230.08 65.47 229.99 63.67 230.08 61.86 229.98 60.05 229.93 58.25 230.13 56.44 229.9 54.63 229.93 52.82 229.99 51.02 229.92 49.21 230.06 47.4 230.01 45.59 229.94 43.78 230.01 41.97 229.95 40.16 230.02 38.34 230.02 36.53 230.06 34.84 229.78 33.2 229.23 31.89 228.1 30.81 226.78 30.13 225.19 29.99 223.47 29.94 221.69 29.91 219.9 30.13 218.11 30.03 216.33 30.02 214.54 29.89 212.76 29.94 210.97 30.13 209.19 29.94 207.41 29.95 205.62 29.91 203.84 29.87 202.05 29.88 200.26 29.92 198.48 30.05 196.69 29.9 194.9 29.97 193.12 30.02 191.33 29.97 189.54 30.08 187.76 30.13 185.97 29.89 184.19 29.94 182.4 29.87 180.61 30.14 178.82 29.89 177.04 30.05 175.25 30.05 173.47 29.98 171.68 30.14 169.89 30.07 168.1 30 166.31 30.05 164.53 29.95 162.74 29.98 160.95 29.96 159.16 30.06 157.38 30.08 155.59 30.11 153.8 30.01 152.01 30.05 150.22 30.09 148.43 30.12 146.65 29.91 144.86 30.07 143.08 30.11 141.29 30.05 139.51 30.11 137.72 30.01 135.93 29.95 134.14 30.05 132.36 29.92 130.57 30.11 128.78 30.13 126.99 30 125.2 29.95 123.41 30.14 121.62 29.9 119.83 30.09 118.04 30.1 116.25 29.94 114.46 30 112.67 29.87 110.88 30.13 109.09 30.01 107.3 30.13 105.51 30.13 103.71 30.04 101.92 29.94 100.13 29.99 98.33 29.88 96.53 30.14 94.81 30.8 93.22 31.83 91.83 33.28 90.91 34.85 90.26 36.53 90.04 38.33 90 40.14 89.91 41.94 90.07 43.75 90.03 45.55 90.12 47.36 90.06 49.16 89.88 50.97 90.04 52.77 89.94 54.58 89.97 56.38 90.01 58.18 90.07 59.98 90.14 61.78 90 63.59 89.94 65.4 89.89 67.2 90.03 69 90.01 70.81 89.96 72.62 90.02 74.42 89.89 76.23 89.91 78.04 89.91 79.84 89.91 81.65 89.94 83.46 90.03 85.27 89.98 87.08 90.03 88.88 89.94 90.69 90 92.5 89.87 94.31 89.9 96.12 89.94 97.92 90.12 99.74 90.13 101.55 89.96 103.37 90 105.03 90.34 106.62 90.89 107.91 91.99 109.11 93.21 109.71 94.83 109.93 96.53 109.87 98.31 109.92 100.1 109.95 101.89 109.87 103.67 109.86 105.46 109.81 107.24 110.02 109.03 109.86 110.81 109.89 112.59 109.76 114.38 109.94 116.16 109.83 117.95 109.77 119.74 110.01 121.52 109.9 123.31 109.98 125.1 109.81 126.88 109.82 128.67 109.92 130.46 109.77 132.24 109.95 134.03 110.02 135.81 109.78 137.6 109.99 139.39 109.87 141.18 109.94 142.96 109.84 144.75 109.77 146.53 109.76 148.32 110 150.11 110 151.9 109.76 153.69 110.03 155.47 109.91 157.26 109.87 159.05 109.94 160.84 109.99 162.63 109.93 164.41 109.79 166.2 109.99 167.99 109.95 169.78 110.03 171.57 109.82 173.35 110.03 175.14 109.86 176.92 109.91 178.71 109.98 180.49 109.78 182.28 109.78 184.07 109.98 185.86 109.98 187.64 109.76 189.43 109.82 191.22 109.9 193.01 109.9 194.8 109.87 196.59 109.98 198.38 110.02 200.17 110.01 201.96 109.94 203.75 109.81 205.54 109.84 207.33 109.81 209.12 110.02 210.91 109.87 212.7 109.95 214.49 109.88 216.29 110.01 218.08 109.85 219.88 109.95 221.67 109.89 223.47 109.57 225.13 108.94 226.69 107.91 228.01 106.64 229.14 105.05 229.73 103.37 229.96"/><polygon class="cls-3" points="103.37 229.96 101.56 230 99.76 229.87 97.95 229.94 96.15 230.11 94.34 230.05 92.54 230.05 90.73 230.02 88.93 229.95 87.12 230.11 85.32 230.12 83.52 229.9 81.72 229.92 79.92 229.93 78.11 229.87 76.31 229.98 74.5 229.99 72.7 230.12 70.89 229.88 69.09 229.99 67.28 230.08 65.47 229.99 63.67 230.08 61.86 229.98 60.05 229.93 58.25 230.13 56.44 229.9 54.63 229.93 52.82 229.99 51.02 229.92 49.21 230.06 47.4 230.01 45.59 229.94 43.78 230.01 41.97 229.95 40.16 230.02 38.34 230.02 36.53 230.06 34.84 229.78 33.2 229.23 31.89 228.1 30.81 226.78 30.13 225.19 29.99 223.47 29.94 221.69 29.91 219.9 30.13 218.11 30.03 216.33 30.02 214.54 29.89 212.76 29.94 210.97 30.13 209.19 29.94 207.41 29.95 205.62 29.91 203.84 29.87 202.05 29.88 200.26 29.92 198.48 30.05 196.69 29.9 194.9 29.97 193.12 30.02 191.33 29.97 189.54 30.08 187.76 30.13 185.97 29.89 184.19 29.94 182.4 29.87 180.61 30.14 178.82 29.89 177.04 30.05 175.25 30.05 173.47 29.98 171.68 30.14 169.89 30.07 168.1 30 166.31 30.05 164.53 29.95 162.74 29.98 160.95 29.96 159.16 30.06 157.38 30.08 155.59 30.11 153.8 30.01 152.01 30.05 150.22 30.09 148.43 30.12 146.65 29.91 144.86 30.07 143.08 30.11 141.29 30.05 139.51 30.11 137.72 30.01 135.93 29.95 134.14 30.05 132.36 29.92 130.57 30.11 128.78 30.13 126.99 30 125.2 29.95 123.41 30.14 121.62 29.9 119.83 30.09 118.04 30.1 116.25 29.94 114.46 30 112.67 29.87 110.88 30.13 109.09 30.01 107.3 30.13 105.51 30.13 103.71 30.04 101.92 29.94 100.13 29.99 98.33 29.88 96.53 30.14 94.81 30.8 93.22 31.83 91.83 33.28 90.91 34.85 90.26 36.53 90.04 38.33 90 40.14 89.91 41.94 90.07 43.75 90.03 45.55 90.12 47.36 90.06 49.16 89.88 50.97 90.04 52.77 89.94 54.58 89.97 56.38 90.01 58.18 90.07 59.98 90.14 61.78 90 63.59 89.94 65.4 89.89 67.2 90.03 69 90.01 70.81 89.96 72.62 90.02 74.42 89.89 76.23 89.91 78.04 89.91 79.84 89.91 81.65 89.94 83.46 90.03 85.27 89.98 87.08 90.03 88.88 89.94 90.69 90 92.5 89.87 94.31 89.9 96.12 89.94 97.92 90.12 99.74 90.13 101.55 89.96 103.37 90 105.03 90.34 106.62 90.89 107.91 91.99 109.11 93.21 109.71 94.83 109.93 96.53 109.87 98.31 109.92 100.1 109.95 101.89 109.87 103.67 109.86 105.46 109.81 107.24 110.02 109.03 109.86 110.81 109.89 112.59 109.76 114.38 109.94 116.16 109.83 117.95 109.77 119.74 110.01 121.52 109.9 123.31 109.98 125.1 109.81 126.88 109.82 128.67 109.92 130.46 109.77 132.24 109.95 134.03 110.02 135.81 109.78 137.6 109.99 139.39 109.87 141.18 109.94 142.96 109.84 144.75 109.77 146.53 109.76 148.32 110 150.11 110 151.9 109.76 153.69 110.03 155.47 109.91 157.26 109.87 159.05 109.94 160.84 109.99 162.63 109.93 164.41 109.79 166.2 109.99 167.99 109.95 169.78 110.03 171.57 109.82 173.35 110.03 175.14 109.86 176.92 109.91 178.71 109.98 180.49 109.78 182.28 109.78 184.07 109.98 185.86 109.98 187.64 109.76 189.43 109.82 191.22 109.9 193.01 109.9 194.8 109.87 196.59 109.98 198.38 110.02 200.17 110.01 201.96 109.94 203.75 109.81 205.54 109.84 207.33 109.81 209.12 110.02 210.91 109.87 212.7 109.95 214.49 109.88 216.29 110.01 218.08 109.85 219.88 109.95 221.67 109.89 223.47 109.57 225.13 108.94 226.69 107.91 228.01 106.64 229.14 105.05 229.73 103.37 229.96"/><polyline class="cls-3" points="36.63 169.6 40.24 169.63 43.84 169.68 47.45 169.75 51.05 169.8 54.65 169.65 58.26 169.8 61.86 169.72 65.47 169.58 69.07 169.65 72.68 169.76 76.29 169.72 79.9 169.74 83.5 169.73 87.11 169.65 90.72 169.72 94.33 169.75 97.94 169.8 101.56 169.69"/><polygon class="cls-2" points="76.08 216.89 75.75 218.76 74.88 220.44 73.54 221.79 71.83 222.63 69.95 222.9 68.06 222.65 66.36 221.79 64.99 220.47 64.13 218.77 63.8 216.89 64.13 215.01 64.98 213.31 66.36 211.99 68.07 211.15 69.95 210.87 71.84 211.12 73.54 211.98 74.89 213.33 75.78 215.01 76.08 216.89"/><polygon class="cls-3" points="76.08 216.89 75.75 218.76 74.88 220.44 73.54 221.79 71.83 222.63 69.95 222.9 68.06 222.65 66.36 221.79 64.99 220.47 64.13 218.77 63.8 216.89 64.13 215.01 64.98 213.31 66.36 211.99 68.07 211.15 69.95 210.87 71.84 211.12 73.54 211.98 74.89 213.33 75.78 215.01 76.08 216.89"/><path class="cls-4" d="M94.92,105.64l1.59,0h1.72l1.66.14.18,0h.63l0,.26,0,.24,0,.24.13,1.56-.1,1.56V110l.07,1.66-.06,1.62-.09,1.78v.26l.06,1.78.06,1.72v1.69l-.05,1.75v.33l.13,1.63,0,1.58-.07,1.78v3.64l0,1.82v1.75l0,1.78v.27l.12,1.62,0,1.65,0,1.78v.1l0,1.82,0,1.65-.11,1.65v.25l0,1.78v.1l.08,1.63-.08,1.63v.24l0,1.68-.07,1.67v.21l0,.21.16,1.62,0,1.62v.08l0,1.72,0,1.72v1.77l-.09,1.71v.36l.11,1.59-.1,1.59v.25l0,1.74v3.49l-.08,1.7v2l0,1.76,0,1.74,0,1.74v1.93l.05,1.79v.09l.1,1.61-.09,1.6v2.07l.06,1.7,0,1.7v1.92l0,1.7-.06,1.69,0,.67-.6,0H100l-1.59.09-1.59-.11H96.5l-1.74.07-1.67,0-1.71-.05h-.21l-1.73.07-1.65,0-1.64-.1h-.23l-1.8,0-1.64,0-1.64-.11-.23,0-.23,0-1.55.13-1.55-.1h-2l-1.73,0-1.69,0-1.74-.06h-.22l-1.69.07-1.69,0h-.19l-1.67.07L63,203.25l-1.78-.06h-.06l-1.78,0h-.24l-1.65.11-1.61,0-1.74-.08h-.25l-1.7.06-1.67,0-1.75-.06h-.19l-.19,0-1.66.16-1.56,0-1.68-.08h-2l-1.74,0h-.57v-.75l-.08-1.59.13-1.59V199l0-1.74v-1.86l-.07-1.65.07-1.65v-2l0-1.83-.07-1.7,0-1.67,0-1.78,0-1.83,0-1.78v-.25l-.12-1.58.1-1.58v-.25l0-1.73,0-1.7.06-1.76v-.19l0-.19-.15-1.65v-1.6l0-1.8v-1.87l0-1.69.08-1.69V160l0-1.78v-.24l-.09-1.6.11-1.6v-.18l0-1.78v-.1l0-1.74v-1.78l0-1.78v-.1l-.07-1.71v-1.65l.08-1.72v-.11l0-1.78V140l-.13-1.66v-3.32l.16-1.64v-2l0-1.79v-.16l0-.16-.16-1.65v-1.5l.15-1.64,0-.19v-.19l-.06-1.67.07-1.67v-4l-.14-1.53.13-1.52,0-.19v-.19l-.08-1.68,0-1.68.05-1.79V108l0-.2-.16-1.47.06-.56.71,0,1.66,0h1.74l1.74,0h.09l1.65,0,1.65.12h.36l1.72-.08h5.38l1.69-.08,1.67,0,1.75,0,1.76,0,1.78.05h.27l1.64-.1,1.64,0,1.78.05h.34l1.58-.13,1.57.08h.08l1.76,0,1.78.05h.29l1.64-.11,1.64,0h.14l1.74,0h1.67l1.71.08H86l1.69-.07,1.69,0h.22l1.55-.09,1.55.15.3,0,.3,0,1.59-.17m-.12-3-1.78.19-1.78-.17-1.78.11-1.77,0-1.78.07-1.78-.09H82.35l-1.78,0-1.78,0-1.78.12-1.78-.05-1.78,0-1.78-.09-1.78.15-1.78-.05-1.77,0-1.78.11-1.78-.05-1.78,0-1.77,0-1.77,0-1.77.08H50.39l-1.78.08-1.78-.13-1.78,0-1.78,0H41.5l-1.78,0-1.78.12-1.82-.15.14,1.84-.19,1.79.19,1.79-.05,1.79-.05,1.79.08,1.79-.15,1.79.16,1.79v3.57l-.08,1.79.07,1.79L36.09,126v1.79l.18,1.79,0,1.79v1.78l-.17,1.79v3.57l.14,1.78,0,1.78-.08,1.79v1.78l.08,1.78,0,1.78V151l0,1.78,0,1.78-.13,1.79.1,1.78,0,1.78-.08,1.78,0,1.78v1.79l0,1.78v1.78l.17,1.78-.06,1.78,0,1.78,0,1.78-.11,1.78.13,1.78,0,1.78,0,1.78,0,1.78,0,1.78.07,1.78,0,1.78V192l-.08,1.78.07,1.78v1.78l.05,1.78-.14,1.78.09,1.78v1.78l0,1.76,1.76,0,1.79,0,1.78,0h1.78l1.78.09,1.78,0,1.78-.17,1.78.06,1.77,0,1.78-.07,1.78.08,1.78,0,1.78-.12,1.78,0,1.78.06,1.78.05,1.78-.07,1.78,0L70,206.2l1.78.06,1.77,0,1.78,0h1.78l1.78.11,1.77-.15,1.77.12,1.77,0,1.77,0,1.77.11,1.78,0,1.78-.07,1.78.06,1.78,0,1.78-.07,1.78.13,1.78-.1,1.78-.06,1.79.09-.11-1.8.08-1.79.07-1.79,0-1.79v-1.79l0-1.79-.07-1.79v-1.79l.1-1.78-.11-1.79-.05-1.79v-1.79l0-1.79,0-1.79,0-1.79v-1.79l.08-1.78v-3.57l0-1.78.11-1.78-.12-1.78.09-1.79v-1.78l0-1.78,0-1.78,0-1.78-.18-1.78.08-1.78-.05-1.79.09-1.78-.09-1.78,0-1.78.12-1.78,0-1.79,0-1.78,0-1.78.05-1.78-.14-1.78,0-1.78V133l0-1.78,0-1.78V127.7l.07-1.78,0-1.78-.14-1.78.06-1.78v-1.78l-.06-1.78-.06-1.78.09-1.78.07-1.78-.07-1.78.11-1.78-.15-1.78.14-1.78-.15-1.72-1.72,0-1.79.06-1.78-.15H96.58l-1.78,0Z"/><polyline class="cls-3" points="108.43 72.92 112.01 73 115.61 73.06 119.19 73.03 122.78 73.04 126.38 72.94 129.97 73 133.56 73.02 137.15 72.95 140.74 72.96 144.33 73.08 147.93 72.99 151.53 73.06"/><polyline class="cls-3" points="108.43 82.09 112.01 82.14 115.61 82.1 119.19 82.14 122.78 82.13 126.38 82.15 129.97 82.19 133.56 82.1 137.15 82.09 140.74 82.12 144.33 82.24 147.93 82.21 151.53 82.1"/><polyline class="cls-3" points="108.43 91.38 112.01 91.36 115.61 91.31 119.19 91.28 122.78 91.4 126.38 91.35 129.97 91.36 133.56 91.31 137.15 91.35 140.74 91.4 144.33 91.39 147.93 91.41 151.53 91.36"/><polyline class="cls-3" points="108.43 100.44 112.01 100.57 115.61 100.56 119.19 100.56 122.78 100.43 126.38 100.47 129.97 100.47 133.56 100.43 137.15 100.54 140.74 100.45 144.33 100.44 147.93 100.57 151.53 100.49"/><polyline class="cls-3" points="108.43 109.64 112.01 109.61 115.61 109.72 119.19 109.63 122.78 109.67 126.38 109.66 129.97 109.64 133.56 109.73 137.15 109.76 140.74 109.68 144.33 109.76 147.93 109.65 151.53 109.68"/><polyline class="cls-3" points="108.43 118.86 112.01 118.84 115.61 118.81 119.19 118.94 122.78 118.92 126.38 118.8 129.97 118.84 133.56 118.88 137.15 118.84 140.74 118.81 144.33 118.82 147.93 118.87 151.53 118.93"/><polygon class="cls-5" points="83.21 157.48 79.61 157.5 76.03 157.43 72.43 157.51 68.84 157.49 65.24 157.43 61.65 157.39 58.07 156.41 55.39 153.82 54.42 150.21 54.43 146.56 54.35 142.91 54.39 139.27 54.48 135.62 54.45 131.96 54.45 128.31 55.41 124.71 58.06 122.09 61.65 121.05 65.24 121.01 68.83 121.08 72.42 121.06 76.01 121.15 79.61 121.02 83.21 121.11 86.83 122.04 89.51 124.67 90.5 128.31 90.49 131.96 90.41 135.6 90.46 139.25 90.41 142.9 90.43 146.56 90.41 150.21 89.43 153.81 86.81 156.45 83.21 157.48"/><polygon class="cls-3" points="79.21 153.47 75.61 153.38 72.03 153.43 68.43 153.42 64.84 153.48 61.24 153.44 57.65 153.42 54.03 152.48 51.43 149.8 50.43 146.21 50.37 142.56 50.38 138.91 50.44 135.27 50.41 131.62 50.35 127.96 50.44 124.31 51.43 120.72 54.06 118.1 57.65 117.12 61.24 117.02 64.83 117.14 68.42 117.13 72.01 117.06 75.61 117.03 79.21 117.09 82.81 118.07 85.42 120.72 86.37 124.31 86.41 127.96 86.38 131.6 86.39 135.25 86.45 138.9 86.49 142.56 86.48 146.21 85.44 149.81 82.8 152.44 79.21 153.47"/><path class="cls-4" d="M48.8,182.91l3,1.07,1.14,2.94-1.13,2.93-3,1.07H46.2v-4l0-4Zm-1.15,6.7H48.8l1.84-.76.65-1.92-.65-2-1.85-.76H47.65Z"/><path class="cls-6" d="M48.8,182.91l3,1.07,1.14,2.94-1.13,2.93-3,1.07H46.2v-4l0-4Zm-1.15,6.7H48.8l1.84-.76.65-1.92-.65-2-1.85-.76H47.65Z"/><path class="cls-4" d="M58,182.72l1.47.29,1.16.77,1,3.13-1,3.16-2.64,1L55.39,190l-1-3.12,1-3.14Zm2.11,4.2-.56-2.13L58,184.06l-1.56.74-.58,2.13.58,2.11,1.55.75,1.56-.74Z"/><path class="cls-6" d="M58,182.72l1.47.29,1.16.77,1,3.13-1,3.16-2.64,1L55.39,190l-1-3.12,1-3.14Zm2.11,4.2-.56-2.13L58,184.06l-1.56.74-.58,2.13.58,2.11,1.55.75,1.56-.74Z"/><path class="cls-4" d="M65.21,182.91,67,185.75l1.77,2.85v-5.7H70.2v4l0,4h-1.5l-1.82-3L65.08,185v5.89H63.62v-4l0-4Z"/><path class="cls-6" d="M65.21,182.91,67,185.75l1.77,2.85v-5.7H70.2v4l0,4h-1.5l-1.82-3L65.08,185v5.89H63.62v-4l0-4Z"/><path class="cls-4" d="M74.63,182.9h1.83l1.33,4,1.32,4H77.54L77,189.19H74l-.57,1.72H71.89l1.37-4Zm-.26,5.2h2.26l-1.11-3.44Z"/><path class="cls-6" d="M74.63,182.9h1.83l1.33,4,1.32,4H77.54L77,189.19H74l-.57,1.72H71.89l1.37-4Zm-.26,5.2h2.26l-1.11-3.44Z"/><path class="cls-4" d="M79.13,182.91h6.43v1.25H83.07l0,3.39v3.39H81.61v-3.39l0-3.39-2.51,0Z"/><path class="cls-6" d="M79.13,182.91h6.43v1.25H83.07l0,3.39v3.39H81.61v-3.39l0-3.39-2.51,0Z"/><path class="cls-4" d="M87,182.89H92.2v1.28H88.49v2.09H92v1.25H88.48v2.13H92.2v1.27H87v-8.05Z"/><path class="cls-6" d="M87,182.89H92.2v1.28H88.49v2.09H92v1.25H88.48v2.13H92.2v1.27H87v-8.05Z"/><polygon class="cls-2" points="224.47 229.87 222.67 229.96 220.87 229.94 219.06 230 217.25 230.11 215.45 229.93 213.64 230.12 211.84 230.06 210.03 230.02 208.23 230.05 206.43 230.08 204.63 230.01 202.82 229.87 201.02 229.9 199.22 229.88 197.41 230.01 195.61 230.01 193.8 230.13 192 230.01 190.19 230 188.38 230.02 186.58 230.08 184.77 229.9 182.97 229.88 181.16 229.98 179.35 230.12 177.54 229.89 175.73 229.96 173.93 229.9 172.12 230.05 170.31 229.89 168.51 230.04 166.7 230 164.88 230.06 163.08 230.05 161.26 229.97 159.45 230.04 157.63 229.98 155.92 229.87 154.33 229.19 153.07 228.03 151.99 226.73 151.35 225.16 151.15 223.47 151.22 221.69 151.15 219.9 151.1 218.11 151.05 216.33 151.15 214.54 151.22 212.76 151.06 210.97 151.08 209.19 150.99 207.41 151.16 205.62 151.06 203.84 151.22 202.05 151.02 200.26 151.22 198.48 150.98 196.69 151.15 194.9 151.17 193.12 151.06 191.33 151.06 189.54 150.97 187.76 151.24 185.97 151.06 184.19 151.22 182.4 151.23 180.61 151.08 178.82 151.14 177.04 151.21 175.25 151.06 173.47 150.98 171.68 151.04 169.89 151.1 168.1 151.23 166.31 150.99 164.53 151.21 162.74 151.06 160.95 151.01 159.16 151.04 157.38 151.18 155.59 151.01 153.8 151.2 152.01 150.97 150.22 151.06 148.43 151.16 146.65 151.03 144.86 150.98 143.08 151.09 141.29 151.21 139.51 151.13 137.72 151.06 135.93 151.18 134.14 151 132.36 151.05 130.57 151.1 128.78 150.99 126.99 150.99 125.2 151.24 123.41 151.19 121.62 151.19 119.83 151.14 118.04 151.16 116.25 151.18 114.46 151.22 112.67 151.08 110.88 151.12 109.09 151.2 107.3 151.06 105.51 151.06 103.71 151.17 101.92 150.99 100.13 151.19 98.33 151.03 96.53 151.32 94.84 151.92 93.23 153.05 91.94 154.4 90.93 155.98 90.35 157.63 90.12 159.44 90 161.24 90.13 163.05 89.96 164.85 89.89 166.66 90.02 168.46 89.86 170.27 89.97 172.07 90.01 173.88 90.05 175.68 90.08 177.48 90.03 179.28 90.13 181.08 89.93 182.89 90.07 184.7 89.97 186.5 89.86 188.3 90.02 190.11 89.94 191.91 89.89 193.72 90.02 195.53 89.88 197.33 89.88 199.14 90.06 200.95 90.01 202.76 90.12 204.56 89.89 206.37 90 208.18 90.1 209.99 89.96 211.79 89.93 213.6 89.91 215.41 89.94 217.22 90.01 219.03 89.98 220.84 89.95 222.66 90 224.47 90.11 226.16 90.23 227.75 90.86 229.11 91.89 230.05 93.31 230.87 94.81 231.08 96.53 230.98 98.31 231.07 100.1 231.04 101.89 231.02 103.67 231 105.46 231.12 107.24 231.07 109.03 230.93 110.81 230.93 112.59 231.04 114.38 231.13 116.16 230.95 117.95 230.98 119.74 230.92 121.52 230.94 123.31 231.01 125.1 230.88 126.88 231.03 128.67 230.92 130.46 230.9 132.24 231.11 134.03 230.93 135.81 230.96 137.6 231.04 139.39 231.14 141.18 231.12 142.96 231.12 144.75 230.97 146.53 230.9 148.32 231.12 150.11 230.89 151.9 230.96 153.69 231.06 155.47 231.02 157.26 231.02 159.05 230.91 160.84 230.97 162.63 231.14 164.41 230.88 166.2 231.11 167.99 231.12 169.78 230.94 171.57 230.99 173.35 231.04 175.14 230.91 176.92 230.93 178.71 231.04 180.49 231 182.28 230.92 184.07 230.87 185.86 230.94 187.64 231.14 189.43 231.13 191.22 231.13 193.01 231.04 194.8 230.91 196.59 231.04 198.38 230.92 200.17 230.89 201.96 230.87 203.75 231.07 205.54 230.97 207.33 230.89 209.12 231.08 210.91 230.88 212.7 230.99 214.49 230.9 216.29 231 218.08 231.08 219.88 230.97 221.67 231.08 223.47 230.87 225.19 230.2 226.78 229.03 228.03 227.7 229.06 226.18 229.84 224.47 229.87"/><polygon class="cls-3" points="224.47 229.87 222.67 229.96 220.87 229.94 219.06 230 217.25 230.11 215.45 229.93 213.64 230.12 211.84 230.06 210.03 230.02 208.23 230.05 206.43 230.08 204.63 230.01 202.82 229.87 201.02 229.9 199.22 229.88 197.41 230.01 195.61 230.01 193.8 230.13 192 230.01 190.19 230 188.38 230.02 186.58 230.08 184.77 229.9 182.97 229.88 181.16 229.98 179.35 230.12 177.54 229.89 175.73 229.96 173.93 229.9 172.12 230.05 170.31 229.89 168.51 230.04 166.7 230 164.88 230.06 163.08 230.05 161.26 229.97 159.45 230.04 157.63 229.98 155.92 229.87 154.33 229.19 153.07 228.03 151.99 226.73 151.35 225.16 151.15 223.47 151.22 221.69 151.15 219.9 151.1 218.11 151.05 216.33 151.15 214.54 151.22 212.76 151.06 210.97 151.08 209.19 150.99 207.41 151.16 205.62 151.06 203.84 151.22 202.05 151.02 200.26 151.22 198.48 150.98 196.69 151.15 194.9 151.17 193.12 151.06 191.33 151.06 189.54 150.97 187.76 151.24 185.97 151.06 184.19 151.22 182.4 151.23 180.61 151.08 178.82 151.14 177.04 151.21 175.25 151.06 173.47 150.98 171.68 151.04 169.89 151.1 168.1 151.23 166.31 150.99 164.53 151.21 162.74 151.06 160.95 151.01 159.16 151.04 157.38 151.18 155.59 151.01 153.8 151.2 152.01 150.97 150.22 151.06 148.43 151.16 146.65 151.03 144.86 150.98 143.08 151.09 141.29 151.21 139.51 151.13 137.72 151.06 135.93 151.18 134.14 151 132.36 151.05 130.57 151.1 128.78 150.99 126.99 150.99 125.2 151.24 123.41 151.19 121.62 151.19 119.83 151.14 118.04 151.16 116.25 151.18 114.46 151.22 112.67 151.08 110.88 151.12 109.09 151.2 107.3 151.06 105.51 151.06 103.71 151.17 101.92 150.99 100.13 151.19 98.33 151.03 96.53 151.32 94.84 151.92 93.23 153.05 91.94 154.4 90.93 155.98 90.35 157.63 90.12 159.44 90 161.24 90.13 163.05 89.96 164.85 89.89 166.66 90.02 168.46 89.86 170.27 89.97 172.07 90.01 173.88 90.05 175.68 90.08 177.48 90.03 179.28 90.13 181.08 89.93 182.89 90.07 184.7 89.97 186.5 89.86 188.3 90.02 190.11 89.94 191.91 89.89 193.72 90.02 195.53 89.88 197.33 89.88 199.14 90.06 200.95 90.01 202.76 90.12 204.56 89.89 206.37 90 208.18 90.1 209.99 89.96 211.79 89.93 213.6 89.91 215.41 89.94 217.22 90.01 219.03 89.98 220.84 89.95 222.66 90 224.47 90.11 226.16 90.23 227.75 90.86 229.11 91.89 230.05 93.31 230.87 94.81 231.08 96.53 230.98 98.31 231.07 100.1 231.04 101.89 231.02 103.67 231 105.46 231.12 107.24 231.07 109.03 230.93 110.81 230.93 112.59 231.04 114.38 231.13 116.16 230.95 117.95 230.98 119.74 230.92 121.52 230.94 123.31 231.01 125.1 230.88 126.88 231.03 128.67 230.92 130.46 230.9 132.24 231.11 134.03 230.93 135.81 230.96 137.6 231.04 139.39 231.14 141.18 231.12 142.96 231.12 144.75 230.97 146.53 230.9 148.32 231.12 150.11 230.89 151.9 230.96 153.69 231.06 155.47 231.02 157.26 231.02 159.05 230.91 160.84 230.97 162.63 231.14 164.41 230.88 166.2 231.11 167.99 231.12 169.78 230.94 171.57 230.99 173.35 231.04 175.14 230.91 176.92 230.93 178.71 231.04 180.49 231 182.28 230.92 184.07 230.87 185.86 230.94 187.64 231.14 189.43 231.13 191.22 231.13 193.01 231.04 194.8 230.91 196.59 231.04 198.38 230.92 200.17 230.89 201.96 230.87 203.75 231.07 205.54 230.97 207.33 230.89 209.12 231.08 210.91 230.88 212.7 230.99 214.49 230.9 216.29 231 218.08 231.08 219.88 230.97 221.67 231.08 223.47 230.87 225.19 230.2 226.78 229.03 228.03 227.7 229.06 226.18 229.84 224.47 229.87"/><polygon class="cls-2" points="197.19 216.89 196.86 218.76 195.98 220.44 194.64 221.79 192.93 222.63 191.05 222.9 189.17 222.65 187.47 221.79 186.09 220.47 185.24 218.77 184.91 216.89 185.23 215.01 186.09 213.31 187.47 211.99 189.17 211.15 191.05 210.87 192.94 211.12 194.65 211.98 195.99 213.33 196.89 215.01 197.19 216.89"/><polygon class="cls-3" points="197.19 216.89 196.86 218.76 195.98 220.44 194.64 221.79 192.93 222.63 191.05 222.9 189.17 222.65 187.47 221.79 186.09 220.47 185.24 218.77 184.91 216.89 185.23 215.01 186.09 213.31 187.47 211.99 189.17 211.15 191.05 210.87 192.94 211.12 194.65 211.98 195.99 213.33 196.89 215.01 197.19 216.89"/><path class="cls-4" d="M182.22,105.64l1.6,0h1.94l1.63,0,1.63.12h.38l1.7-.1h1.57l1.64.14.2,0h.2l1.64-.09,1.64.06h.15l1.78,0H200l1.74-.06,1.61,0,1.64.13h.32l1.73,0h1.87l1.67-.07,1.65,0,1.78.07h.14l1.74,0,1.74,0h.16l1.78-.07h.08l1.64-.11.57,0v.63l0,1.72,0,1.78v.27l.11,1.7v1.66l0,1.65-.13,1.7v.29l0,1.78V119l.13,1.68v1.58l-.1,1.69V124l-.07,1.78V126l0,1.74v2l.11,1.62-.07,1.62V133l0,1.78V135l.07,1.72v1.6l-.14,1.67,0,.22v.22l.1,1.61-.08,1.61v.29l.07,1.64-.08,1.64v.22l0,.22.15,1.51-.13,1.51v2.11l0,1.81,0,1.73v1.66l-.09,1.71V160l.12,1.73.06,1.52-.16,1.57,0,.29,0,.29.14,1.57-.09,1.56v.4l.11,1.54-.14,1.54v2l0,1.79V176l.07,1.69,0,1.73v1.75l0,1.79v.28l.12,1.62-.06,1.62v.26l.08,1.72V190l-.14,1.65v4l0,.15.16,1.56-.07,1.53-.1,1.79V203l0,.27h-.63l-1.58.07-1.59-.14-.17,0h-.17l-1.78.05h-.15l-1.56.12-1.56-.1h-.32l-1.6.07-1.6-.12h-.34l-1.7.07-1.7,0h-.18l-1.65.08-1.68,0-1.77,0h-.12l-1.67,0-1.68-.08h-.24l-1.81.06-1.69.08-1.64,0-1.73-.08h-.21l-1.78,0h-.06l-1.6.07-1.6-.11H184l-1.81,0-1.78,0h-.08l-1.78,0h-.19l-1.51.12-1.51-.15h-2.23l-1.73.1-1.62,0-1.66-.08H168l-1.76,0-1.82,0-1.78,0h-.12l-1.71.05h-.62l0-.55,0-1.65.1-1.71v-2.13l-.1-1.72,0-1.61.09-1.67v-.35l-.1-1.67,0-1.62.08-1.79.06-1.83,0-1.78v-.19l-.08-1.72v-1.69l0-1.76v-.21l-.1-1.65,0-1.58.13-1.71v-.3l0-1.75V167l0-1.74V165l-.11-1.74-.05-1.61.08-1.66v-.19l0-1.66.12-1.66,0-.26,0-.26-.15-1.53.11-1.53v-.3l-.06-1.77,0-1.74,0-1.74,0-1.67.11-1.7v-.31l-.07-1.67.06-1.67v-.17l0-1.72,0-1.75,0-1.79v-.07l0-1.79,0-1.79,0-1.8,0-1.63.14-1.63V126l0-1.79V124l-.13-1.64,0-1.62,0-1.79v-.15l0-1.78,0-1.74v-1.7l.06-1.73.07-1.79v-.19l0-.18-.14-1.7,0-1.56.05-.69h.62l1.66,0,1.67.11h.14l1.78,0h.2l1.62-.08,1.62.08h.37l1.64-.12,1.64,0h.21l1.56-.08,1.56.14h4.09l1.59-.15m-.09-3-1.77.16h-3.54l-1.77-.16-1.77.09-1.78,0-1.78.13-1.78-.09-1.78.09-1.78,0-1.78-.11-1.78,0-1.78,0-1.82,0,.09,1.84-.13,1.79,0,1.79.15,1.79-.07,1.79-.06,1.79v1.79l0,1.79,0,1.78,0,1.79,0,1.79.14,1.79,0,1.79-.15,1.79,0,1.79,0,1.79,0,1.78,0,1.79,0,1.79,0,1.78,0,1.78-.07,1.78.07,1.79-.11,1.78,0,1.78,0,1.78,0,1.78.06,1.78-.12,1.78.18,1.79-.13,1.78,0,1.78-.09,1.78.06,1.78.11,1.79,0,1.78v3.57l0,1.78-.13,1.78,0,1.78.11,1.78,0,1.78v1.78l.09,1.78,0,1.78-.05,1.78-.08,1.78,0,1.78.11,1.78-.1,1.78,0,1.78.11,1.78v1.78l-.1,1.78,0,1.78.05,1.78.07,1.74,1.74,0,1.79,0,1.78-.05,1.78,0,1.78,0,1.78,0,1.78.09,1.78-.05,1.77-.1h1.78l1.78.17,1.78-.14,1.78,0,1.78,0,1.78,0,1.78.13,1.78-.08,1.78,0,1.78.08,1.78,0,1.77-.08,1.78-.06,1.78.08,1.78,0,1.77,0,1.77.05,1.77-.09,1.77,0,1.77-.07,1.78.13,1.78-.07,1.78.12,1.78-.14,1.78-.05,1.78.15,1.78-.07,1.78,0,1.84.05,0-1.86-.18-1.79v-1.79l.1-1.79.09-1.79-.18-1.79v-3.57l.16-1.78v-1.79l-.08-1.79.07-1.79-.13-1.79,0-1.79v-1.79l0-1.79-.08-1.78,0-1.79v-1.79l.16-1.78-.13-1.78.11-1.78-.16-1.79.19-1.78-.07-1.78-.13-1.78.1-1.78v-1.78l0-1.78,0-1.79v-1.78l.15-1.78-.17-1.78.09-1.78-.08-1.79.09-1.78-.11-1.78.14-1.78v-1.78l-.08-1.78,0-1.78.07-1.78-.13-1.78V127.7l0-1.78.07-1.78.1-1.78v-1.78l-.13-1.78,0-1.78.14-1.78,0-1.78v-1.78l-.11-1.78,0-1.78,0-1.78v-1.78l0-1.85-1.85,0-1.79-.05-1.78.12-1.78.07-1.78,0-1.78,0-1.78-.07-1.78-.05-1.77.07H207l-1.78.05-1.78-.14-1.78,0-1.78.07-1.78,0-1.78-.07-1.78.09-1.78-.15H191l-1.78.1-1.77-.13-1.78,0h-1.78l-1.78-.05Z"/><polygon class="cls-5" points="207.31 177.59 207.26 177.54 207.33 180.86 207.16 184.17 204.96 185.3 201.73 182.69 198.49 180.08 195.18 177.59 191.18 177.63 187.16 177.55 183.15 177.47 179.33 176.77 176.06 174.64 173.95 171.35 173.08 167.54 173.11 164.19 173.14 160.82 173.07 157.46 173.07 154.09 173.24 150.72 173.2 147.35 173.96 143.55 176.09 140.3 179.33 138.15 183.15 137.4 186.44 137.43 189.74 137.34 193.04 137.36 196.35 137.42 199.65 137.32 202.96 137.32 206.77 138.15 210.09 140.23 212.15 143.55 213.01 147.35 212.96 150.86 213 154.36 212.93 157.86 212.91 161.37 212.87 164.87 212.88 168.38 212.96 171.9 211.24 175.82 207.31 177.59"/><polygon class="cls-3" points="203.31 173.53 203.37 173.55 203.32 176.86 203.17 180.17 201.03 181.22 197.76 178.66 194.49 176.09 191.22 173.47 187.18 173.51 183.16 173.55 179.15 173.58 175.33 172.76 172.13 170.56 169.88 167.39 169.13 163.54 169.07 160.19 169.19 156.82 169.12 153.46 169.23 150.09 169.09 146.72 169.22 143.35 169.83 139.49 172.1 136.31 175.34 134.15 179.15 133.32 182.44 133.32 185.74 133.26 189.04 133.45 192.35 133.32 195.65 133.44 198.96 133.44 202.79 134.1 206.01 136.3 208.14 139.55 208.99 143.35 209.04 146.86 209 150.36 208.96 153.86 208.87 157.37 209.04 160.87 208.89 164.38 208.99 167.9 207.35 171.94 203.31 173.53"/><polyline class="cls-3" points="178.28 151.96 181.87 151.92 185.46 151.93 189.05 151.91 192.64 151.91 196.23 151.94 199.83 151.91"/><polyline class="cls-2" points="178.28 158 181.87 157.97 185.46 157.93 189.05 158 192.64 157.98 196.23 158 199.83 157.95"/><polyline class="cls-3" points="178.28 158 181.87 157.97 185.46 157.93 189.05 158 192.64 157.98 196.23 158 199.83 157.95"/><polyline class="cls-2" points="178.28 164 181.87 163.96 185.46 164 189.05 164 192.64 164 196.23 163.97 199.83 164.03"/><polyline class="cls-3" points="178.28 164 181.87 163.96 185.46 164 189.05 164 192.64 164 196.23 163.97 199.83 164.03"/><circle class="cls-4" cx="180.81" cy="142.79" r="4.12"/><circle class="cls-4" cx="129.29" cy="52.28" r="3.95"/><circle class="cls-4" cx="68.43" cy="135.08" r="7.17"/></g></svg>
