<svg xmlns="http://www.w3.org/2000/svg" viewBox="0 0 250 250"><defs><style>.cls-1{fill:#f8f8f8;}.cls-2{fill:#fff;}.cls-3{fill:#fadc2d;}.cls-4{fill:#ff852d;}.cls-5,.cls-7,.cls-8{fill:none;stroke-miterlimit:10;}.cls-5,.cls-8{stroke:#3e82f7;}.cls-5{stroke-width:3px;}.cls-6{fill:#3e82f7;}.cls-7{stroke:#fff;}.cls-7,.cls-8{stroke-width:6px;}</style></defs><title>icon-custom-secure</title><g id="Base_Dots" data-name="Base Dots"><circle class="cls-1" cx="125" cy="125" r="100"/></g><g id="Artwork"><polygon class="cls-2" points="120.01 95.75 119.94 93.98 119.76 92.22 119.44 90.48 119.08 88.74 118.38 87.11 117.74 85.47 116.99 83.86 116.14 82.3 115.14 80.84 113.92 79.54 112.8 78.17 111.44 77.03 110.05 75.95 108.63 74.88 107.14 73.92 105.55 73.13 103.88 72.53 102.18 72.04 100.48 71.56 98.74 71.28 96.99 71.02 95.22 71.03 93.44 70.92 91.69 71.2 89.96 71.6 88.2 71.87 86.57 72.58 84.89 73.14 83.3 73.93 81.83 74.92 80.35 75.89 79 77.03 77.68 78.22 76.41 79.46 75.43 80.94 74.32 82.32 73.41 83.84 72.61 85.43 72 87.09 71.34 88.74 70.89 90.46 70.58 92.21 70.4 93.98 70.48 95.75 70.39 97.53 70.64 99.29 70.94 101.04 71.41 102.75 71.9 104.45 72.7 106.04 73.4 107.67 74.4 109.13 75.33 110.64 76.52 111.96 77.64 113.34 79.01 114.46 80.37 115.6 81.82 116.6 83.3 117.59 84.94 118.27 86.54 119.04 88.22 119.6 89.96 119.92 91.68 120.35 93.44 120.56 95.22 120.5 96.99 120.46 98.74 120.22 100.5 119.99 102.2 119.5 103.89 119 105.5 118.26 107.1 117.5 108.65 116.64 110.09 115.61 111.41 114.43 112.72 113.25 114 112.03 115.03 110.58 116.04 109.13 116.96 107.62 117.78 106.06 118.52 104.44 119.11 102.77 119.44 101.02 119.86 99.3 119.99 97.53 120.01 95.75"/><polygon class="cls-2" points="123.06 95.75 123.03 93.93 122.76 92.13 122.48 90.33 122.06 88.56 121.55 86.81 120.89 85.12 120.21 83.43 119.37 81.81 118.37 80.28 117.2 78.88 116.1 77.44 114.79 76.18 113.5 74.9 112.18 73.64 110.61 72.71 109.13 71.65 107.47 70.91 105.84 70.11 104.16 69.43 102.41 68.93 100.64 68.51 98.84 68.23 97.04 67.97 95.22 68.01 93.39 67.93 91.58 68.16 89.81 68.58 88 68.84 86.27 69.41 84.61 70.15 82.96 70.91 81.27 71.6 79.72 72.57 78.24 73.63 76.9 74.87 75.56 76.09 74.4 77.5 73.16 78.83 72.03 80.27 71.18 81.88 70.28 83.46 69.64 85.16 68.86 86.81 68.32 88.55 67.97 90.33 67.61 92.12 67.59 93.94 67.51 95.75 67.39 97.58 67.76 99.37 67.9 101.19 68.46 102.93 68.99 104.66 69.52 106.4 70.27 108.06 71.13 109.67 72.07 111.23 73.2 112.66 74.28 114.12 75.58 115.4 76.91 116.64 78.37 117.72 79.77 118.88 81.3 119.86 82.9 120.73 84.63 121.33 86.3 122.03 88.03 122.59 89.78 123.1 91.58 123.37 93.41 123.36 95.22 123.5 97.04 123.48 98.85 123.34 100.63 122.93 102.42 122.64 104.13 121.99 105.85 121.41 107.54 120.73 109.1 119.79 110.69 118.91 112.19 117.86 113.47 116.57 114.79 115.33 116.11 114.07 117.3 112.69 118.24 111.13 119.3 109.66 120.19 108.07 120.95 106.41 121.43 104.65 122.11 102.96 122.46 101.17 122.79 99.39 122.99 97.58 123.06 95.75"/><polygon class="cls-3" points="119.7 95.75 119.66 93.98 119.39 92.22 119.09 90.47 118.64 88.76 118.1 87.07 117.41 85.44 116.67 83.83 115.79 82.29 114.74 80.85 113.54 79.55 112.37 78.22 111.02 77.08 109.68 75.93 108.29 74.82 106.7 74.03 105.16 73.15 103.48 72.58 101.82 71.98 100.12 71.5 98.37 71.22 96.61 71.02 94.84 70.97 93.07 70.95 91.31 71.23 89.54 71.42 87.83 71.91 86.19 72.57 84.5 73.12 82.93 73.95 81.46 74.94 80.02 75.96 78.53 76.94 77.23 78.15 76.02 79.45 74.98 80.89 73.95 82.33 73.14 83.91 72.25 85.44 71.51 87.05 71.06 88.77 70.58 90.47 70.37 92.23 70.06 93.98 69.98 95.75 70.11 97.52 70.23 99.29 70.68 101.01 71.1 102.73 71.5 104.46 72.34 106.03 73.01 107.67 74.03 109.13 75.05 110.57 76.08 112.01 77.28 113.31 78.58 114.52 79.94 115.66 81.44 116.61 82.92 117.58 84.54 118.32 86.17 118.99 87.87 119.48 89.56 120.02 91.3 120.35 93.07 120.55 94.84 120.46 96.61 120.45 98.37 120.3 100.13 120.08 101.85 119.62 103.48 118.9 105.14 118.29 106.73 117.53 108.27 116.65 109.66 115.55 111.11 114.53 112.33 113.24 113.58 111.98 114.74 110.65 115.69 109.15 116.67 107.67 117.48 106.09 118.01 104.39 118.56 102.72 119.09 101.03 119.44 99.29 119.49 97.52 119.7 95.75"/><path class="cls-4" d="M98.19,95.19l1.37.59,1.18.9.86,2.38-.35,1.55-1,1.26-1.93,1-2.17.4,0,2H94.27l0-2.06-2-.42-1.81-1-1.22-1.53-.36-1.93h2.67l.7,1.67,2.05.73V96.34L93.14,96l-1.55-.64-1.42-.88-.8-1.15-.24-1.38.35-1.5,1-1.21,1.82-.91,2-.35,0-1.75h1.92V88l1.79.42,1.56,1,1,1.35.5,1.59-2.66,0-.68-1.21-1.52-.76,0,2.08v2.08Zm-5.58-4.31L92.07,92l.36,1,1.17.63.67.28V92.09l0-1.84ZM98,100.2,98.55,99l-.48-1.22-1.15-.68-.71-.28v2l0,2Z"/><polygon class="cls-2" points="159.09 219.88 157.31 219.83 155.53 219.85 153.75 219.95 151.96 220.02 150.18 220 148.4 219.88 146.61 219.87 144.83 219.99 143.04 220.03 141.26 219.91 139.48 220.04 137.69 220 135.91 219.91 134.13 219.84 132.34 219.81 130.56 219.91 128.77 219.92 126.99 219.9 125.21 220.03 123.42 219.97 121.64 219.82 119.85 219.87 118.07 219.87 116.28 219.88 114.5 219.83 112.71 219.97 110.93 220.03 109.15 219.93 107.37 219.96 105.59 219.81 103.81 220.02 102.02 219.88 100.23 219.94 98.45 220 96.67 220.03 94.89 220.01 93.1 219.88 91.31 219.96 89.53 219.88 87.74 219.92 85.95 219.88 84.17 219.86 82.38 219.88 80.59 219.91 78.81 219.94 77.02 219.98 75.23 219.81 73.44 219.82 71.66 219.99 69.87 219.94 68.08 219.88 66.29 219.93 64.5 219.98 62.7 219.97 60.91 219.9 59.22 219.68 57.52 219.45 55.91 218.83 54.53 217.8 53.15 216.77 52.07 215.43 51.16 213.98 50.48 212.4 50.21 210.71 50.11 209.01 50 207.23 50.11 205.45 49.96 203.67 50 201.88 49.89 200.1 50.08 198.32 50.08 196.54 50.07 194.75 49.88 192.97 49.95 191.18 49.94 189.4 49.89 187.62 50.04 185.83 49.92 184.05 49.91 182.26 50.08 180.48 49.97 178.7 50.05 176.91 50.03 175.13 49.95 173.34 49.92 171.56 50.08 169.77 50.02 167.99 50.03 166.21 49.95 164.42 50.01 162.63 50.09 160.85 50.07 159.07 50.1 157.29 50.02 155.51 49.89 153.73 49.95 151.94 49.9 150.16 49.95 148.37 49.94 146.59 49.97 144.81 50.03 143.02 49.9 141.23 49.88 139.45 49.93 137.66 50.09 135.88 50.05 134.09 49.9 132.3 49.88 130.51 50.01 128.73 50.09 126.94 50.05 125.16 50.06 123.37 49.91 121.58 50 119.79 50.03 118 49.94 116.21 49.94 114.42 50.11 112.63 49.98 110.83 50.22 109.14 50.52 107.46 51.27 105.92 51.99 104.35 53.24 103.17 54.55 102.07 55.98 101.15 57.53 100.44 59.2 100.05 60.91 100.03 62.69 99.89 64.47 99.81 66.25 100.02 68.04 99.84 69.82 99.97 71.6 99.81 73.39 100 75.17 99.99 76.96 100 78.74 99.92 80.52 99.96 82.31 99.98 84.09 100.02 85.87 99.86 87.66 99.94 89.44 99.84 91.23 99.84 93.01 100.02 94.79 100.03 96.58 100.03 98.36 99.82 100.15 99.92 101.93 100.04 103.72 100.03 105.5 99.81 107.29 100.04 109.07 99.96 110.85 99.97 112.63 99.92 114.41 99.83 116.19 99.98 117.98 99.82 119.77 99.87 121.55 99.9 123.33 99.88 125.11 99.85 126.9 99.91 128.69 100.04 130.47 100 132.26 100.03 134.05 99.91 135.83 99.91 137.62 99.81 139.41 99.92 141.19 99.92 142.98 99.91 144.77 99.85 146.56 100 148.34 100.02 150.13 99.94 151.92 99.82 153.71 100.01 155.5 99.95 157.3 100.01 159.09 99.88 160.78 100.14 162.47 100.42 164.05 101.11 165.53 101.97 166.84 103.08 167.9 104.43 168.85 105.86 169.45 107.46 169.95 109.11 170.07 110.83 169.93 112.61 169.99 114.39 169.98 116.18 169.97 117.96 169.9 119.74 169.96 121.52 170.01 123.31 170.04 125.09 169.96 126.88 169.9 128.66 170.04 130.44 170.02 132.23 170.1 134.01 169.95 135.79 170.04 137.58 169.9 139.36 170.07 141.15 169.9 142.93 170.1 144.71 169.96 146.5 169.95 148.28 170.04 150.07 170.04 151.85 170.12 153.64 169.88 155.42 170.04 157.21 169.9 158.99 169.89 160.77 170.02 162.55 169.97 164.33 169.91 166.12 170.04 167.9 170.11 169.69 170.06 171.47 170 173.25 169.89 175.04 170.1 176.82 169.91 178.61 170.04 180.39 170.08 182.18 170.06 183.97 169.94 185.75 170.08 187.54 169.92 189.33 170.11 191.12 170.04 192.9 169.96 194.69 170.06 196.48 170.11 198.26 170.01 200.05 169.91 201.84 169.98 203.63 170.03 205.42 169.94 207.22 170.09 209.01 169.91 210.73 169.48 212.39 168.9 214.01 167.99 215.48 166.72 216.64 165.46 217.78 164.01 218.67 162.45 219.36 160.79 219.74 159.09 219.88"/><polygon class="cls-5" points="159.09 219.88 157.31 219.83 155.53 219.85 153.75 219.95 151.96 220.02 150.18 220 148.4 219.88 146.61 219.87 144.83 219.99 143.04 220.03 141.26 219.91 139.48 220.04 137.69 220 135.91 219.91 134.13 219.84 132.34 219.81 130.56 219.91 128.77 219.92 126.99 219.9 125.21 220.03 123.42 219.97 121.64 219.82 119.85 219.87 118.07 219.87 116.28 219.88 114.5 219.83 112.71 219.97 110.93 220.03 109.15 219.93 107.37 219.96 105.59 219.81 103.81 220.02 102.02 219.88 100.23 219.94 98.45 220 96.67 220.03 94.89 220.01 93.1 219.88 91.31 219.96 89.53 219.88 87.74 219.92 85.95 219.88 84.17 219.86 82.38 219.88 80.59 219.91 78.81 219.94 77.02 219.98 75.23 219.81 73.44 219.82 71.66 219.99 69.87 219.94 68.08 219.88 66.29 219.93 64.5 219.98 62.7 219.97 60.91 219.9 59.22 219.68 57.52 219.45 55.91 218.83 54.53 217.8 53.15 216.77 52.07 215.43 51.16 213.98 50.48 212.4 50.21 210.71 50.11 209.01 50 207.23 50.11 205.45 49.96 203.67 50 201.88 49.89 200.1 50.08 198.32 50.08 196.54 50.07 194.75 49.88 192.97 49.95 191.18 49.94 189.4 49.89 187.62 50.04 185.83 49.92 184.05 49.91 182.26 50.08 180.48 49.97 178.7 50.05 176.91 50.03 175.13 49.95 173.34 49.92 171.56 50.08 169.77 50.02 167.99 50.03 166.21 49.95 164.42 50.01 162.63 50.09 160.85 50.07 159.07 50.1 157.29 50.02 155.51 49.89 153.73 49.95 151.94 49.9 150.16 49.95 148.37 49.94 146.59 49.97 144.81 50.03 143.02 49.9 141.23 49.88 139.45 49.93 137.66 50.09 135.88 50.05 134.09 49.9 132.3 49.88 130.51 50.01 128.73 50.09 126.94 50.05 125.16 50.06 123.37 49.91 121.58 50 119.79 50.03 118 49.94 116.21 49.94 114.42 50.11 112.63 49.98 110.83 50.22 109.14 50.52 107.46 51.27 105.92 51.99 104.35 53.24 103.17 54.55 102.07 55.98 101.15 57.53 100.44 59.2 100.05 60.91 100.03 62.69 99.89 64.47 99.81 66.25 100.02 68.04 99.84 69.82 99.97 71.6 99.81 73.39 100 75.17 99.99 76.96 100 78.74 99.92 80.52 99.96 82.31 99.98 84.09 100.02 85.87 99.86 87.66 99.94 89.44 99.84 91.23 99.84 93.01 100.02 94.79 100.03 96.58 100.03 98.36 99.82 100.15 99.92 101.93 100.04 103.72 100.03 105.5 99.81 107.29 100.04 109.07 99.96 110.85 99.97 112.63 99.92 114.41 99.83 116.19 99.98 117.98 99.82 119.77 99.87 121.55 99.9 123.33 99.88 125.11 99.85 126.9 99.91 128.69 100.04 130.47 100 132.26 100.03 134.05 99.91 135.83 99.91 137.62 99.81 139.41 99.92 141.19 99.92 142.98 99.91 144.77 99.85 146.56 100 148.34 100.02 150.13 99.94 151.92 99.82 153.71 100.01 155.5 99.95 157.3 100.01 159.09 99.88 160.78 100.14 162.47 100.42 164.05 101.11 165.53 101.97 166.84 103.08 167.9 104.43 168.85 105.86 169.45 107.46 169.95 109.11 170.07 110.83 169.93 112.61 169.99 114.39 169.98 116.18 169.97 117.96 169.9 119.74 169.96 121.52 170.01 123.31 170.04 125.09 169.96 126.88 169.9 128.66 170.04 130.44 170.02 132.23 170.1 134.01 169.95 135.79 170.04 137.58 169.9 139.36 170.07 141.15 169.9 142.93 170.1 144.71 169.96 146.5 169.95 148.28 170.04 150.07 170.04 151.85 170.12 153.64 169.88 155.42 170.04 157.21 169.9 158.99 169.89 160.77 170.02 162.55 169.97 164.33 169.91 166.12 170.04 167.9 170.11 169.69 170.06 171.47 170 173.25 169.89 175.04 170.1 176.82 169.91 178.61 170.04 180.39 170.08 182.18 170.06 183.97 169.94 185.75 170.08 187.54 169.92 189.33 170.11 191.12 170.04 192.9 169.96 194.69 170.06 196.48 170.11 198.26 170.01 200.05 169.91 201.84 169.98 203.63 170.03 205.42 169.94 207.22 170.09 209.01 169.91 210.73 169.48 212.39 168.9 214.01 167.99 215.48 166.72 216.64 165.46 217.78 164.01 218.67 162.45 219.36 160.79 219.74 159.09 219.88"/><polygon class="cls-2" points="64.99 204.94 65.07 203.12 65.05 201.32 65.08 199.53 65.03 197.73 65.04 195.93 64.97 194.13 65.07 192.33 64.91 190.54 65.07 188.74 65.07 186.94 64.99 185.14 64.93 183.34 65.02 181.54 65.08 179.74 65.08 177.94 65.07 176.15 64.96 174.34 65.07 172.55 65.07 170.75 64.97 168.95 64.97 167.15 64.94 165.35 64.94 163.55 64.98 161.76 65.03 159.97 65.06 158.17 64.97 156.37 65.06 154.57 64.98 152.77 64.95 150.97 65 149.17 64.96 147.37 65.01 145.57 64.92 143.77 65.03 141.97 64.99 140.17 65.03 138.37 64.93 136.57 64.99 134.77 65.01 132.96 65.03 131.16 65.02 129.36 64.94 127.56 65.02 125.76 65.07 123.95 65.05 122.15 64.94 120.35 64.98 118.54 64.95 116.73 64.94 114.86 66.8 114.99 68.6 114.89 70.4 114.97 72.19 114.85 73.99 114.89 75.79 114.84 77.59 114.88 79.39 115 81.18 114.83 82.98 114.91 84.78 114.84 86.58 114.87 88.38 114.96 90.18 114.9 91.98 114.93 93.78 114.83 95.58 114.99 97.38 114.84 99.17 114.97 100.97 114.97 102.77 114.96 104.57 114.92 106.37 114.92 108.16 114.86 109.96 114.84 111.75 115 113.55 115 115.35 114.87 117.15 114.87 118.95 114.84 120.75 114.88 122.55 114.84 124.35 114.89 126.15 114.87 127.95 114.9 129.75 114.99 131.55 114.89 133.35 114.97 135.16 115 136.96 114.92 138.76 114.9 140.56 114.96 142.36 114.86 144.16 114.97 145.97 114.88 147.77 114.89 149.57 114.94 151.38 114.89 153.19 114.91 154.96 114.96 155.03 116.72 154.97 118.52 154.94 120.32 154.99 122.12 155 123.91 154.96 125.71 154.94 127.51 154.93 129.31 155.05 131.1 154.99 132.9 154.95 134.7 155 136.5 155.05 138.3 154.97 140.1 155 141.9 155.07 143.7 155 145.5 155.01 147.3 155.01 149.09 154.95 150.89 155.03 152.69 155.06 154.49 155.09 156.29 154.91 158.08 154.98 159.88 155.01 161.68 154.97 163.47 154.96 165.28 154.94 167.07 154.98 168.87 155.08 170.67 154.97 172.47 154.99 174.27 154.99 176.07 155.06 177.87 154.97 179.67 154.96 181.47 155.02 183.28 155.07 185.08 154.93 186.88 154.94 188.68 154.99 190.48 155.07 192.28 155.01 194.08 155.03 195.89 155.05 197.69 154.98 199.5 154.95 201.3 155.07 203.11 155.04 204.96 153.2 204.95 151.4 204.92 149.6 204.99 147.81 204.93 146.01 204.9 144.21 204.85 142.41 204.84 140.62 205 138.82 204.85 137.02 204.93 135.22 204.94 133.42 204.99 131.62 204.92 129.82 205.01 128.02 204.96 126.22 204.92 124.42 204.88 122.63 204.89 120.83 204.89 119.03 204.98 117.23 204.93 115.43 205 113.63 204.88 111.84 204.97 110.04 204.85 108.25 204.89 106.45 204.87 104.65 205 102.85 204.85 101.05 204.93 99.25 204.86 97.45 204.84 95.65 204.97 93.85 204.94 92.05 204.94 90.25 204.88 88.45 204.89 86.65 204.87 84.84 204.95 83.04 204.86 81.24 204.95 79.44 204.96 77.64 204.87 75.84 204.99 74.03 204.93 72.23 205.01 70.43 204.83 68.62 204.85 66.81 204.85 64.99 204.94"/><polygon class="cls-5" points="64.99 204.94 65.07 203.12 65.05 201.32 65.08 199.53 65.03 197.73 65.04 195.93 64.97 194.13 65.07 192.33 64.91 190.54 65.07 188.74 65.07 186.94 64.99 185.14 64.93 183.34 65.02 181.54 65.08 179.74 65.08 177.94 65.07 176.15 64.96 174.34 65.07 172.55 65.07 170.75 64.97 168.95 64.97 167.15 64.94 165.35 64.94 163.55 64.98 161.76 65.03 159.97 65.06 158.17 64.97 156.37 65.06 154.57 64.98 152.77 64.95 150.97 65 149.17 64.96 147.37 65.01 145.57 64.92 143.77 65.03 141.97 64.99 140.17 65.03 138.37 64.93 136.57 64.99 134.77 65.01 132.96 65.03 131.16 65.02 129.36 64.94 127.56 65.02 125.76 65.07 123.95 65.05 122.15 64.94 120.35 64.98 118.54 64.95 116.73 64.94 114.86 66.8 114.99 68.6 114.89 70.4 114.97 72.19 114.85 73.99 114.89 75.79 114.84 77.59 114.88 79.39 115 81.18 114.83 82.98 114.91 84.78 114.84 86.58 114.87 88.38 114.96 90.18 114.9 91.98 114.93 93.78 114.83 95.58 114.99 97.38 114.84 99.17 114.97 100.97 114.97 102.77 114.96 104.57 114.92 106.37 114.92 108.16 114.86 109.96 114.84 111.75 115 113.55 115 115.35 114.87 117.15 114.87 118.95 114.84 120.75 114.88 122.55 114.84 124.35 114.89 126.15 114.87 127.95 114.9 129.75 114.99 131.55 114.89 133.35 114.97 135.16 115 136.96 114.92 138.76 114.9 140.56 114.96 142.36 114.86 144.16 114.97 145.97 114.88 147.77 114.89 149.57 114.94 151.38 114.89 153.19 114.91 154.96 114.96 155.03 116.72 154.97 118.52 154.94 120.32 154.99 122.12 155 123.91 154.96 125.71 154.94 127.51 154.93 129.31 155.05 131.1 154.99 132.9 154.95 134.7 155 136.5 155.05 138.3 154.97 140.1 155 141.9 155.07 143.7 155 145.5 155.01 147.3 155.01 149.09 154.95 150.89 155.03 152.69 155.06 154.49 155.09 156.29 154.91 158.08 154.98 159.88 155.01 161.68 154.97 163.47 154.96 165.28 154.94 167.07 154.98 168.87 155.08 170.67 154.97 172.47 154.99 174.27 154.99 176.07 155.06 177.87 154.97 179.67 154.96 181.47 155.02 183.28 155.07 185.08 154.93 186.88 154.94 188.68 154.99 190.48 155.07 192.28 155.01 194.08 155.03 195.89 155.05 197.69 154.98 199.5 154.95 201.3 155.07 203.11 155.04 204.96 153.2 204.95 151.4 204.92 149.6 204.99 147.81 204.93 146.01 204.9 144.21 204.85 142.41 204.84 140.62 205 138.82 204.85 137.02 204.93 135.22 204.94 133.42 204.99 131.62 204.92 129.82 205.01 128.02 204.96 126.22 204.92 124.42 204.88 122.63 204.89 120.83 204.89 119.03 204.98 117.23 204.93 115.43 205 113.63 204.88 111.84 204.97 110.04 204.85 108.25 204.89 106.45 204.87 104.65 205 102.85 204.85 101.05 204.93 99.25 204.86 97.45 204.84 95.65 204.97 93.85 204.94 92.05 204.94 90.25 204.88 88.45 204.89 86.65 204.87 84.84 204.95 83.04 204.86 81.24 204.95 79.44 204.96 77.64 204.87 75.84 204.99 74.03 204.93 72.23 205.01 70.43 204.83 68.62 204.85 66.81 204.85 64.99 204.94"/><polygon class="cls-2" points="164.9 44.87 164.83 43.1 164.65 41.34 164.34 39.59 163.97 37.86 163.27 36.23 162.63 34.58 161.88 32.98 161.03 31.42 160.03 29.95 158.82 28.66 157.69 27.29 156.33 26.14 154.94 25.06 153.53 23.99 152.03 23.03 150.44 22.25 148.77 21.65 147.08 21.15 145.38 20.68 143.63 20.39 141.88 20.13 140.11 20.15 138.34 20.03 136.58 20.31 134.85 20.71 133.1 20.98 131.47 21.69 129.78 22.26 128.19 23.04 126.72 24.04 125.24 25 123.89 26.15 122.58 27.33 121.3 28.57 120.32 30.05 119.21 31.43 118.3 32.96 117.5 34.54 116.89 36.2 116.23 37.85 115.79 39.57 115.47 41.32 115.29 43.09 115.38 44.87 115.28 46.64 115.53 48.4 115.83 50.15 116.3 51.86 116.79 53.57 117.59 55.15 118.29 56.78 119.3 58.25 120.23 59.75 121.42 61.07 122.53 62.45 123.9 63.58 125.26 64.71 126.72 65.72 128.19 66.71 129.83 67.39 131.43 68.15 133.11 68.72 134.85 69.03 136.57 69.47 138.34 69.68 140.11 69.61 141.88 69.57 143.63 69.33 145.39 69.11 147.09 68.61 148.78 68.11 150.4 67.38 151.99 66.61 153.54 65.76 154.98 64.72 156.3 63.55 157.61 62.36 158.9 61.14 159.92 59.69 160.93 58.24 161.85 56.73 162.68 55.17 163.41 53.55 164.01 51.88 164.33 50.13 164.76 48.41 164.88 46.64 164.9 44.87"/><polygon class="cls-2" points="167.95 44.87 167.92 43.04 167.65 41.24 167.37 39.44 166.95 37.67 166.44 35.93 165.79 34.23 165.1 32.54 164.26 30.92 163.26 29.4 162.09 28 160.99 26.55 159.68 25.3 158.39 24.02 157.07 22.76 155.5 21.83 154.03 20.77 152.36 20.02 150.73 19.23 149.05 18.54 147.3 18.05 145.53 17.63 143.74 17.35 141.93 17.08 140.11 17.12 138.29 17.04 136.48 17.27 134.7 17.69 132.9 17.95 131.16 18.52 129.5 19.26 127.86 20.02 126.16 20.71 124.61 21.68 123.13 22.75 121.79 23.98 120.45 25.21 119.29 26.61 118.05 27.95 116.93 29.38 116.08 30.99 115.17 32.57 114.53 34.27 113.75 35.92 113.21 37.66 112.87 39.45 112.5 41.23 112.49 43.06 112.41 44.87 112.28 46.69 112.65 48.48 112.79 50.3 113.35 52.04 113.88 53.77 114.41 55.52 115.17 57.17 116.02 58.78 116.96 60.34 118.09 61.77 119.17 63.23 120.47 64.51 121.8 65.75 123.26 66.83 124.66 67.99 126.2 68.97 127.8 69.84 129.52 70.44 131.19 71.14 132.92 71.7 134.67 72.21 136.47 72.48 138.3 72.48 140.11 72.61 141.93 72.6 143.74 72.45 145.52 72.04 147.32 71.75 149.02 71.1 150.74 70.52 152.43 69.84 153.99 68.9 155.59 68.02 157.08 66.98 158.37 65.68 159.69 64.44 161 63.19 162.19 61.81 163.13 60.25 164.19 58.77 165.08 57.18 165.85 55.53 166.32 53.77 167 52.07 167.35 50.29 167.68 48.5 167.89 46.69 167.95 44.87"/><polygon class="cls-3" points="164.59 44.87 164.55 43.09 164.28 41.33 163.98 39.59 163.53 37.87 163 36.19 162.3 34.55 161.56 32.94 160.68 31.4 159.63 29.97 158.43 28.66 157.27 27.33 155.91 26.19 154.57 25.04 153.18 23.93 151.59 23.15 150.05 22.26 148.38 21.69 146.71 21.09 145.01 20.61 143.26 20.33 141.5 20.13 139.73 20.08 137.96 20.07 136.2 20.34 134.44 20.53 132.73 21.02 131.08 21.68 129.4 22.24 127.83 23.07 126.35 24.05 124.91 25.07 123.42 26.05 122.13 27.26 120.92 28.56 119.87 30 118.84 31.44 118.03 33.02 117.15 34.55 116.4 36.16 115.95 37.88 115.47 39.59 115.27 41.35 114.95 43.09 114.87 44.87 115 46.63 115.12 48.41 115.58 50.12 115.99 51.84 116.4 53.57 117.24 55.14 117.9 56.79 118.93 58.24 119.94 59.69 120.97 61.13 122.18 62.42 123.47 63.63 124.84 64.77 126.33 65.72 127.81 66.7 129.43 67.43 131.06 68.11 132.77 68.59 134.45 69.13 136.19 69.46 137.96 69.66 139.73 69.58 141.5 69.57 143.26 69.42 145.03 69.19 146.74 68.73 148.37 68.02 150.03 67.4 151.63 66.64 153.16 65.76 154.56 64.67 156 63.64 157.22 62.35 158.47 61.1 159.64 59.76 160.58 58.26 161.56 56.78 162.37 55.2 162.9 53.51 163.45 51.83 163.98 50.14 164.33 48.4 164.38 46.63 164.59 44.87"/><path class="cls-4" d="M143.09,44.3l1.37.59,1.18.9.86,2.38-.35,1.55-1,1.26-1.93,1-2.17.4,0,2h-1.92l0-2.06-2-.42-1.81-1-1.22-1.53-.36-1.93h2.67l.7,1.67,2.05.73V45.46L138,45.07l-1.55-.64-1.42-.88-.8-1.15L134,41l.35-1.5,1-1.21,1.82-.91,2-.35,0-1.75h1.92v1.75l1.79.42,1.56,1,1,1.35.5,1.59-2.66,0-.68-1.21-1.52-.76,0,2.08v2.08ZM137.51,40,137,41.1l.36,1,1.17.63.67.28V41.21l0-1.84Zm5.37,9.33.56-1.19L143,46.91l-1.15-.68-.71-.28v2l0,2Z"/><polygon class="cls-6" points="134.85 155.21 133.28 155.32 131.7 155.28 130.12 155.24 128.54 155.17 126.96 154.62 125.77 153.41 125.52 151.66 126.33 150.05 127.56 149.05 128.66 147.92 129.73 146.76 130.9 145.69 131.54 144.3 131.56 142.81 130.81 141.52 129.62 140.32 128.45 139.1 127.17 138.25 125.62 138.3 124.25 139.04 123.21 140.22 122.04 141.29 121.03 142.51 119.88 143.61 118.28 144.43 116.59 144.04 115.31 142.99 114.64 141.41 114.69 139.83 114.84 138.25 114.72 136.67 114.83 135.09 114.18 133.66 113.17 132.53 111.7 132.14 110.01 132.07 108.32 132.12 106.86 132.56 105.7 133.58 105.28 135.09 105.23 136.66 105.47 138.24 105.29 139.83 105.32 141.41 104.7 142.99 103.5 144.22 101.77 144.27 100.33 143.42 99.01 142.5 97.99 141.29 96.8 140.25 95.83 138.98 94.43 138.19 92.87 138.31 91.41 138.95 90.37 140.29 89.24 141.55 88.23 142.75 88.46 144.31 89.11 145.69 90.28 146.75 91.31 147.96 92.38 149.13 93.49 150.26 94.56 151.65 94.36 153.45 93.06 154.62 91.49 155.41 89.91 155.27 88.33 155.23 86.75 155.31 85.17 155.36 83.69 155.69 82.46 156.68 82.28 158.25 82.24 159.93 82.33 161.62 82.5 163.16 83.75 164.07 85.17 164.66 86.74 164.6 88.32 164.52 89.9 164.75 91.49 164.75 93.21 165.03 94.35 166.42 94.27 168.16 93.54 169.66 92.49 170.84 91.37 171.95 90.23 173.05 89.2 174.26 88.5 175.57 88.49 177.05 89.17 178.39 90.25 179.69 91.47 180.86 92.83 181.68 94.37 181.44 95.77 180.83 96.82 179.65 98 178.6 99 177.36 100.26 176.38 101.74 175.45 103.48 175.7 104.72 176.86 105.22 178.46 105.19 180.03 105.35 181.61 105.27 183.19 105.16 184.78 105.69 186.3 106.83 187.37 108.32 187.75 110.01 187.92 111.7 187.74 113.19 187.36 114.33 186.3 114.77 184.78 114.82 183.2 114.67 181.62 114.79 180.04 114.6 178.46 115.15 176.77 116.49 175.57 118.24 175.66 119.72 176.42 121.02 177.35 121.97 178.64 123.1 179.74 124.16 180.92 125.61 181.57 127.15 181.54 128.46 180.77 129.72 179.64 130.83 178.37 131.77 177.11 131.55 175.56 130.82 174.26 129.77 173.08 128.61 172.01 127.5 170.88 126.37 169.78 125.64 168.18 125.75 166.45 126.8 165.01 128.54 164.5 130.11 164.6 131.69 164.7 133.27 164.59 134.85 164.78 136.32 164.16 137.52 163.16 137.98 161.62 137.94 159.93 137.78 158.25 137.46 156.74 136.41 155.54 134.85 155.21"/><polygon class="cls-6" points="129.51 159.93 129.32 158.13 129.27 156.32 128.77 154.58 128.12 152.9 127.47 151.22 126.52 149.69 125.57 148.16 124.45 146.74 123.06 145.59 121.8 144.29 120.3 143.29 118.7 142.45 117.07 141.67 115.32 141.21 113.58 140.76 111.8 140.45 110 140.43 108.19 140.46 106.41 140.77 104.66 141.18 102.97 141.78 101.3 142.47 99.78 143.42 98.25 144.38 96.9 145.56 95.64 146.84 94.43 148.18 93.45 149.69 92.6 151.26 91.7 152.84 91.21 154.58 90.8 156.34 90.66 158.13 90.54 159.93 90.46 161.74 90.87 163.5 91.27 165.25 91.87 166.95 92.63 168.58 93.49 170.15 94.48 171.64 95.55 173.1 96.91 174.28 98.26 175.47 99.72 176.53 101.31 177.37 102.92 178.18 104.63 178.8 106.43 179.01 108.2 179.3 110 179.32 111.81 179.46 113.56 179.01 115.35 178.74 117.06 178.16 118.69 177.38 120.33 176.61 121.79 175.54 123.14 174.34 124.44 173.09 125.53 171.66 126.57 170.19 127.43 168.61 128.23 166.99 128.83 165.28 129.26 163.53 129.43 161.73 129.51 159.93"/><polygon class="cls-2" points="122.55 159.93 122.35 158.15 122.1 156.38 121.42 154.72 120.52 153.17 119.48 151.71 118.19 150.49 116.79 149.37 115.23 148.49 113.52 147.96 111.8 147.46 110 147.35 108.22 147.51 106.46 147.85 104.81 148.55 103.23 149.39 101.77 150.43 100.53 151.72 99.43 153.14 98.61 154.72 97.98 156.4 97.63 158.15 97.47 159.93 97.66 161.71 97.98 163.46 98.64 165.12 99.5 166.68 100.53 168.14 101.82 169.38 103.25 170.44 104.77 171.4 106.47 171.98 108.22 172.35 110 172.41 111.79 172.31 113.56 172.03 115.2 171.31 116.77 170.45 118.19 169.37 119.43 168.09 120.5 166.67 121.37 165.12 122.06 163.47 122.36 161.71 122.55 159.93"/><polygon class="cls-6" points="85.09 229.99 83.27 230.02 81.45 229.96 79.63 229.98 77.8 230.03 75.98 229.99 74.15 230.02 72.32 229.97 70.5 230 68.67 229.99 66.83 230.02 65 230 65.01 228.34 64.99 226.67 65.03 225.01 65 223.34 64.97 221.67 64.99 219.99 66.83 220.01 68.65 220 70.47 219.96 72.3 220.01 74.12 220.03 75.95 220.03 77.78 220.02 79.6 219.97 81.43 220.03 83.27 220.03 85.11 219.99 85.13 221.66 85.09 223.33 85.09 224.99 85.07 226.66 85.06 228.33 85.09 229.99"/><polygon class="cls-6" points="155.12 230.02 153.27 230.01 151.45 229.96 149.63 229.97 147.8 229.97 145.98 229.99 144.15 230.01 142.32 230 140.5 230.02 138.67 230 136.83 229.97 135 230 135.02 228.34 135 226.67 134.97 225.01 135.04 223.34 135.03 221.67 134.98 219.98 136.83 220 138.65 220 140.47 220.03 142.3 219.97 144.12 220.03 145.95 219.97 147.78 220 149.6 220 151.43 219.97 153.27 219.96 155.08 220.03 155.08 221.66 155.1 223.33 155.09 224.99 155.13 226.66 155.1 228.33 155.12 230.02"/><polyline class="cls-2" points="173.21 80.49 173.21 78.21 173.26 75.93 173.2 73.66 173.51 71.16 174.26 68.77 175.38 66.52 176.96 64.56 178.94 63.01 181.17 61.86 183.55 61.08 186.05 60.81 188.55 61.09 190.95 61.82 193.15 63.04 195.13 64.58 196.72 66.53 197.84 68.77 198.59 71.16 198.83 73.66 198.84 75.93 198.88 78.21 198.86 80.49"/><polyline class="cls-7" points="173.21 80.49 173.21 78.21 173.26 75.93 173.2 73.66 173.51 71.16 174.26 68.77 175.38 66.52 176.96 64.56 178.94 63.01 181.17 61.86 183.55 61.08 186.05 60.81 188.55 61.09 190.95 61.82 193.15 63.04 195.13 64.58 196.72 66.53 197.84 68.77 198.59 71.16 198.83 73.66 198.84 75.93 198.88 78.21 198.86 80.49"/><polyline class="cls-2" points="177.21 79.34 177.21 76.66 177.5 74.16 178.18 71.73 179.42 69.55 181.03 67.63 182.92 65.98 185.13 64.77 187.55 64.09 190.05 63.89 192.56 64.08 194.97 64.78 197.17 66 199.11 67.6 200.67 69.56 201.92 71.74 202.63 74.15 202.81 76.66 202.83 79.34"/><polygon class="cls-2" points="167.11 133.06 165.23 132.79 163.43 132.24 161.75 131.36 160.27 130.18 159.07 128.71 158.22 127.02 157.61 125.23 157.38 123.34 157.49 121.58 157.4 119.81 157.46 118.05 157.39 116.28 157.47 114.52 157.47 112.75 157.48 110.99 157.44 109.22 157.46 107.46 157.46 105.69 157.48 103.92 157.41 102.16 157.45 100.4 157.4 98.63 157.4 96.86 157.49 95.1 157.49 93.33 157.49 91.56 157.39 89.79 157.44 88.01 157.68 86.14 158.22 84.33 159.03 82.61 160.31 81.22 161.75 79.99 163.42 79.1 165.22 78.53 167.11 78.3 168.91 78.37 170.71 78.29 172.51 78.31 174.31 78.33 176.12 78.32 177.92 78.31 179.72 78.34 181.52 78.39 183.33 78.38 185.13 78.39 186.94 78.33 188.74 78.34 190.54 78.29 192.35 78.34 194.15 78.34 195.95 78.33 197.76 78.31 199.56 78.38 201.37 78.39 203.19 78.35 205 78.29 206.88 78.57 208.69 79.09 210.34 80.01 211.85 81.16 213 82.67 213.95 84.31 214.49 86.13 214.69 88.01 214.69 89.78 214.66 91.54 214.69 93.3 214.66 95.07 214.71 96.83 214.7 98.6 214.64 100.36 214.66 102.13 214.66 103.89 214.65 105.66 214.62 107.43 214.65 109.19 214.67 110.95 214.69 112.72 214.65 114.49 214.62 116.25 214.69 118.02 214.68 119.79 214.72 121.56 214.65 123.34 214.5 125.23 213.89 127.02 213.06 128.73 211.8 130.14 210.4 131.42 208.69 132.26 206.88 132.8 205 133.03 203.2 133.03 201.4 133.06 199.59 132.96 197.79 133.03 195.99 132.96 194.19 132.96 192.38 133.02 190.58 133 188.78 132.97 186.97 133.03 185.17 133.06 183.37 133.04 181.57 133.01 179.76 132.96 177.96 133.06 176.15 132.97 174.35 133.03 172.54 133.05 170.73 133.04 168.92 132.98 167.11 133.06"/><polygon class="cls-2" points="205 129.97 203.2 129.97 201.4 129.97 199.59 129.97 197.79 130.04 195.99 129.96 194.19 129.99 192.38 129.99 190.58 130 188.78 129.97 186.97 130.03 185.17 129.98 183.37 130.04 181.57 129.99 179.76 130.04 177.96 129.98 176.15 130.03 174.35 130.02 172.54 130.02 170.73 129.97 168.92 130.04 167.11 129.99 165.39 129.76 163.75 129.15 162.41 128.04 161.36 126.66 160.64 125.07 160.42 123.34 160.39 121.58 160.44 119.81 160.41 118.05 160.44 116.28 160.41 114.52 160.42 112.75 160.45 110.99 160.44 109.22 160.4 107.46 160.41 105.69 160.46 103.92 160.4 102.16 160.41 100.4 160.42 98.63 160.44 96.86 160.47 95.1 160.49 93.33 160.43 91.56 160.49 89.79 160.45 88.01 160.63 86.28 161.32 84.67 162.41 83.31 163.78 82.25 165.39 81.59 167.11 81.36 168.91 81.33 170.71 81.35 172.51 81.37 174.31 81.39 176.12 81.34 177.92 81.29 179.72 81.3 181.52 81.34 183.33 81.32 185.13 81.33 186.94 81.35 188.74 81.37 190.54 81.37 192.35 81.33 194.15 81.33 195.95 81.31 197.76 81.3 199.56 81.36 201.37 81.3 203.19 81.31 205 81.3 206.72 81.6 208.33 82.24 209.69 83.31 210.81 84.65 211.43 86.29 211.65 88.01 211.67 89.78 211.7 91.54 211.68 93.3 211.72 95.07 211.65 96.83 211.63 98.6 211.67 100.36 211.71 102.13 211.63 103.89 211.67 105.66 211.67 107.43 211.72 109.19 211.62 110.95 211.66 112.72 211.65 114.49 211.66 116.25 211.64 118.02 211.7 119.79 211.62 121.56 211.67 123.34 211.45 125.07 210.82 126.7 209.71 128.05 208.35 129.14 206.73 129.81 205 129.97"/><polygon class="cls-2" points="209.83 134.8 208.03 134.8 206.23 134.8 204.43 134.8 202.62 134.88 200.82 134.79 199.02 134.82 197.22 134.82 195.41 134.83 193.61 134.8 191.81 134.87 190 134.81 188.2 134.87 186.4 134.82 184.59 134.87 182.79 134.81 180.98 134.87 179.18 134.85 177.37 134.85 175.56 134.8 173.75 134.87 171.94 134.82 170.22 134.59 168.59 133.98 167.24 132.87 166.19 131.49 165.47 129.9 165.25 128.17 165.22 126.41 165.27 124.64 165.24 122.88 165.27 121.11 165.24 119.35 165.25 117.58 165.28 115.82 165.27 114.05 165.23 112.29 165.24 110.52 165.29 108.76 165.23 107 165.24 105.23 165.25 103.46 165.27 101.7 165.3 99.93 165.32 98.16 165.26 96.39 165.32 94.62 165.28 92.84 165.46 91.11 166.15 89.5 167.24 88.15 168.61 87.08 170.22 86.42 171.94 86.19 173.74 86.16 175.54 86.19 177.34 86.2 179.15 86.22 180.95 86.18 182.75 86.12 184.55 86.13 186.35 86.17 188.16 86.15 189.96 86.16 191.77 86.18 193.57 86.2 195.37 86.2 197.18 86.17 198.98 86.16 200.78 86.14 202.59 86.14 204.4 86.19 206.2 86.13 208.02 86.14 209.83 86.13 211.55 86.43 213.16 87.08 214.53 88.15 215.65 89.48 216.26 91.12 216.48 92.84 216.5 94.61 216.53 96.37 216.51 98.14 216.55 99.9 216.49 101.66 216.46 103.43 216.5 105.19 216.54 106.96 216.46 108.72 216.5 110.49 216.5 112.26 216.55 114.02 216.45 115.79 216.49 117.55 216.48 119.32 216.5 121.09 216.47 122.85 216.53 124.62 216.45 126.4 216.5 128.17 216.28 129.9 215.65 131.53 214.54 132.88 213.18 133.97 211.56 134.65 209.83 134.8"/><polygon class="cls-5" points="205 129.88 203.2 129.88 201.4 129.88 199.59 129.88 197.79 130.11 195.99 129.87 194.19 129.96 192.38 129.94 190.58 129.99 188.78 129.88 186.97 130.08 185.17 129.93 183.37 130.1 181.57 129.95 179.76 130.1 177.96 129.91 176.15 130.08 174.35 130.04 172.54 130.04 170.73 129.89 168.92 130.09 167.11 129.95 165.4 129.71 163.72 129.22 162.44 128 161.43 126.62 160.58 125.09 160.39 123.34 160.31 121.58 160.44 119.81 160.35 118.05 160.44 116.28 160.34 114.52 160.39 112.75 160.49 110.99 160.44 109.22 160.31 107.46 160.35 105.69 160.51 103.92 160.33 102.16 160.35 100.4 160.37 98.63 160.43 96.86 160.52 95.1 160.58 93.33 160.4 91.56 160.58 89.79 160.49 88.01 160.55 86.25 161.29 84.66 162.45 83.36 163.79 82.27 165.4 81.63 167.11 81.4 168.91 81.3 170.71 81.38 172.51 81.42 174.31 81.48 176.12 81.36 177.92 81.2 179.72 81.22 181.52 81.33 183.33 81.28 185.13 81.31 186.94 81.37 188.74 81.43 190.54 81.44 192.35 81.32 194.15 81.31 195.95 81.25 197.76 81.23 199.56 81.39 201.37 81.22 203.19 81.25 205 81.22 206.7 81.66 208.32 82.26 209.65 83.36 210.89 84.61 211.41 86.29 211.6 88.01 211.67 89.78 211.75 91.54 211.71 93.3 211.82 95.07 211.63 96.83 211.55 98.6 211.66 100.36 211.8 102.13 211.54 103.89 211.68 105.66 211.68 107.43 211.82 109.19 211.53 110.95 211.64 112.72 211.6 114.49 211.65 116.25 211.59 118.02 211.75 119.79 211.53 121.56 211.68 123.34 211.46 125.07 210.91 126.75 209.69 128.03 208.37 129.19 206.75 129.87 205 129.88"/><polyline class="cls-5" points="173.25 118.98 175.07 119 176.9 118.99 178.73 119.01 180.56 118.99 182.39 119 184.21 118.99 186.04 118.98 187.87 118.99 189.7 119 191.53 119 193.36 119.01 195.19 119.02 197.03 119 198.86 119.02"/><polyline class="cls-5" points="173.25 108.97 175.07 108.98 176.9 108.97 178.73 109 180.56 109 182.39 108.96 184.21 108.98 186.04 109 187.87 108.98 189.7 108.99 191.53 108.98 193.36 108.96 195.19 108.95 197.03 108.97 198.86 108.96"/><circle class="cls-6" cx="186.05" cy="92.75" r="3"/><line class="cls-5" x1="186.05" y1="93.5" x2="186.05" y2="99.92"/><polyline class="cls-5" points="173.19 80.49 173.2 78.21 173.27 75.93 173.18 73.66 173.51 71.16 174.28 68.78 175.37 66.52 176.94 64.55 178.94 63.01 181.18 61.88 183.55 61.07 186.05 60.79 188.55 61.09 190.95 61.83 193.13 63.06 195.15 64.56 196.72 66.53 197.82 68.78 198.57 71.17 198.81 73.66 198.84 75.93 198.88 78.21 198.86 80.49"/><polyline class="cls-2" points="65.01 130.18 65.03 133.62 65 137.06 64.98 140.5 65.03 143.95 64.96 147.39"/><polyline class="cls-8" points="65.01 130.18 65.03 133.62 65 137.06 64.98 140.5 65.03 143.95 64.96 147.39"/><polyline class="cls-2" points="65.02 171.94 65.05 175.58 65.03 179.22 64.95 182.87 65.05 186.52 64.97 190.17"/><polyline class="cls-8" points="65.02 171.94 65.05 175.58 65.03 179.22 64.95 182.87 65.05 186.52 64.97 190.17"/></g></svg>
