<svg xmlns="http://www.w3.org/2000/svg" viewBox="0 0 250 250"><defs><style>.cls-1{fill:#f8f8f8;}.cls-2,.cls-4,.cls-5{fill:none;stroke-width:3px;}.cls-2{stroke:#ff852d;}.cls-2,.cls-4{stroke-linejoin:round;}.cls-3{fill:#fff;}.cls-4,.cls-5{stroke:#3e82f7;}.cls-5{stroke-miterlimit:10;}</style></defs><title> icon-engage-gratify</title><g id="Base_Dots" data-name="Base Dots"><circle class="cls-1" cx="125" cy="125" r="100"/></g><g id="Artwork"><polyline class="cls-2" points="130 189.89 129.8 191.18 129.32 192.39 128.43 193.33 127.41 194.07 126.23 194.52 124.99 194.82 123.73 194.59 122.58 194.06 121.61 193.27 120.6 192.42 120.31 191.14 120.2 189.89"/><polyline class="cls-2" points="75.02 180.56 74.81 181.84 74.33 183.06 73.44 184 72.42 184.74 71.24 185.19 70 185.49 68.74 185.26 67.59 184.72 66.62 183.93 65.61 183.09 65.33 181.81 65.21 180.56"/><polyline class="cls-2" points="184.76 180.56 184.93 181.88 184.36 183.07 183.62 184.18 182.38 184.67 181.32 185.48 180 185.42 178.74 185.27 177.52 184.86 176.64 183.91 175.8 182.98 175.22 181.84 175.12 180.56"/><polygon class="cls-3" points="37.04 232.96 36.96 231.15 36.94 229.29 37.01 227.44 36.96 225.58 36.87 223.72 37.08 221.86 37.05 220 37.21 218.19 37.11 216.35 37.6 214.58 37.74 212.76 38.2 210.99 38.74 209.25 39.34 207.53 40.2 205.91 40.88 204.21 42.03 202.77 42.73 201.06 43.96 199.69 45.1 198.27 46.33 196.92 47.63 195.64 48.98 194.41 50.48 193.37 51.9 192.22 53.54 191.41 55.11 190.47 56.92 189.78 55.52 188.31 54.58 186.64 53.65 184.97 52.75 183.25 52.34 181.37 52.19 179.45 51.88 177.54 52.07 175.78 52.27 174.02 52.61 172.27 53.34 170.65 54.15 169.07 55.01 167.53 55.97 166.03 57.28 164.82 58.52 163.55 60.04 162.64 61.58 161.79 63.15 161.01 64.82 160.46 66.49 159.92 68.23 159.59 70 159.71 70.86 159.42 72.62 159.71 74.4 159.96 76.06 160.63 77.66 161.38 79.36 162 80.81 163.04 82.01 164.39 83.31 165.59 84.35 167.02 85.47 168.39 86.4 169.92 86.83 171.66 87.39 173.34 87.97 175.04 87.98 176.83 87.92 178.59 87.88 180.37 87.36 182.07 86.78 183.73 86.29 185.44 85.42 186.99 84.22 188.3 83.1 189.79 84.83 190.64 86.54 191.32 88 192.45 89.51 193.49 90.91 194.67 92.33 195.81 93.77 196.97 94.89 198.43 96.04 199.85 97.05 201.38 98.31 202.75 99.09 204.42 100 206.02 100.61 207.89 101.89 206.55 103.19 205.42 104.47 204.26 105.72 203.05 107.21 202.17 108.77 201.42 110.28 200.58 111.91 199.78 110.56 198.29 109.4 196.75 108.58 195.01 107.97 193.18 107.31 191.38 107.13 189.46 107.06 187.54 106.92 185.76 107.39 184.04 107.8 182.33 108.26 180.61 109.08 179.04 109.94 177.48 111.09 176.13 112.33 174.87 113.67 173.73 114.93 172.48 116.51 171.66 118.12 170.93 119.81 170.45 121.52 170.03 123.25 169.73 125 169.47 125.84 169.69 127.6 169.88 129.33 170.21 131.03 170.71 132.71 171.29 134.33 172.04 135.68 173.23 137.06 174.33 138.25 175.64 139.44 176.95 140.39 178.45 141.33 179.96 141.98 181.61 142.55 183.3 142.91 185.05 142.84 186.84 142.94 188.6 142.74 190.35 142.5 192.11 141.87 193.77 141.15 195.38 140.37 196.96 139.34 198.4 138.29 199.75 139.75 200.54 141.36 201.2 142.84 202.1 144.29 203.05 145.68 204.08 146.91 205.31 148.08 206.58 149.33 207.66 150.07 206.05 150.84 204.38 151.72 202.77 152.87 201.32 153.83 199.75 155.15 198.46 156.2 196.94 157.49 195.62 158.95 194.49 160.38 193.33 161.97 192.4 163.45 191.31 165.16 190.61 166.63 189.73 165.5 188.33 164.58 186.64 163.57 185.01 162.83 183.23 162.48 181.34 162.21 179.45 162.04 177.54 161.99 175.77 162.32 174.03 162.91 172.36 163.41 170.67 164.01 169 164.91 167.46 166.04 166.09 167.25 164.79 168.63 163.69 170.09 162.71 171.51 161.66 173.17 161.06 174.73 160.16 176.48 159.85 178.23 159.6 180 159.61 180.85 159.67 182.61 159.84 184.33 160.21 186.04 160.68 187.73 161.25 189.33 162.04 190.77 163.1 192.16 164.22 193.36 165.54 194.38 167 195.33 168.48 196.37 169.94 196.96 171.62 197.62 173.28 197.95 175.04 198.16 176.82 198 178.6 197.76 180.35 197.32 182.06 196.78 183.73 196.12 185.36 195.21 186.86 194.26 188.34 193.37 189.72 194.94 190.38 196.49 191.35 198.09 192.25 199.6 193.27 200.86 194.62 202.4 195.63 203.67 196.93 204.79 198.37 206.09 199.66 207.13 201.16 208.16 202.66 209.05 204.26 210 205.82 210.68 207.52 211.31 209.24 211.79 211 212.34 212.74 212.66 214.54 212.85 216.36 213.08 218.17 213.04 220 213.14 221.85 213.04 223.71 212.96 225.56 213.15 227.42 213.16 229.28 213.15 231.14 212.9 232.9 211.21 233.09 209.42 232.9 207.63 232.98 205.84 233.1 204.05 232.86 202.26 233.13 200.46 232.92 198.67 233.02 196.88 232.88 195.08 233.13 193.28 232.92 191.49 233.12 189.69 233.09 187.9 232.88 186.11 232.91 184.32 233 182.53 233.18 180.74 232.83 178.94 232.98 177.15 233.07 175.36 233 173.57 233.12 171.78 232.95 169.99 233.18 168.19 233.12 166.4 232.99 164.6 232.94 162.81 233.08 161.01 233.01 159.21 232.83 157.42 232.88 155.63 233.15 153.83 232.91 152.04 232.85 150.25 233.18 148.45 233.12 146.66 233.17 144.87 233.16 143.07 233.07 141.27 232.87 139.48 232.87 137.68 233 135.88 232.91 134.09 233.17 132.29 233.05 130.5 233.05 128.71 233.16 126.91 233.06 125.11 232.97 123.32 232.83 121.52 233.02 119.72 233.1 117.93 233.02 116.13 232.98 114.34 232.97 112.54 232.92 110.74 233.15 108.95 232.96 107.15 232.92 105.35 232.83 103.55 233.12 101.76 233.11 99.96 233.11 98.16 233.12 96.36 232.83 94.57 233.15 92.77 233.15 90.97 233.09 89.17 233.05 87.38 232.86 85.58 233.15 83.79 233.16 82 233.1 80.2 233.08 78.41 233.03 76.61 232.85 74.81 232.88 73.02 233.08 71.22 233.07 69.42 233.14 67.62 232.86 65.82 233.14 64.03 232.97 62.22 232.95 60.42 233.16 58.63 233.16 56.83 232.89 55.02 232.94 53.22 233.15 51.43 232.84 49.63 232.95 47.83 232.89 46.02 232.88 44.22 233.03 42.42 233.11 40.62 232.97 38.81 233.03 37.04 232.96"/><polygon class="cls-3" points="188.91 189.8 190.2 188.46 191.59 187.24 192.68 185.74 193.45 184.06 194.19 182.38 194.68 180.61 194.86 178.78 194.97 176.95 194.85 175.1 194.31 173.32 193.81 171.53 192.8 169.97 191.92 168.34 190.62 167.01 189.23 165.78 187.76 164.64 186.09 163.82 184.35 163.21 182.54 162.83 180.7 162.73 178.85 162.68 177.03 163.01 175.24 163.48 173.42 163.94 171.9 165.05 170.37 166.1 169.09 167.45 167.83 168.82 166.89 170.42 165.98 172.05 165.38 173.83 165.25 175.7 164.97 177.54 164.98 179.32 165.39 181.05 165.87 182.75 166.74 184.3 167.66 185.78 168.59 187.28 169.86 188.5 171.17 189.69 170.89 191.41 169.27 192.09 167.65 192.75 166.11 193.59 164.55 194.38 163.03 195.25 161.64 196.34 160.2 197.35 158.9 198.53 157.71 199.84 156.67 201.26 155.6 202.64 154.44 203.99 153.76 205.62 152.75 207.09 152.11 208.73 151.46 210.36 150.95 212.06 149.4 212.32 148.28 211 147.1 209.72 145.88 208.49 144.51 207.43 143.21 206.31 141.82 205.28 140.42 204.25 138.88 203.47 137.42 202.5 135.76 201.97 134.15 201.3 133.76 199.59 135.26 198.52 136.47 197.14 137.6 195.69 138.4 194.03 139.11 192.35 139.64 190.6 139.81 188.78 139.84 186.95 139.72 185.12 139.36 183.31 138.84 181.52 137.76 180 136.76 178.46 135.5 177.13 134.32 175.67 132.66 174.81 131.13 173.75 129.32 173.3 127.55 172.77 125.72 172.44 123.86 172.76 122.02 172.95 120.15 173.2 118.49 174.09 116.78 174.86 115.31 176.03 113.93 177.3 112.68 178.71 111.73 180.33 111.03 182.07 110.38 183.83 110.26 185.7 110.16 187.54 109.98 189.32 110.42 191.04 111 192.71 111.59 194.37 112.41 195.95 113.67 197.21 114.73 198.64 116.11 199.76 115.91 201.5 114.3 202.12 112.7 202.77 111.12 203.47 109.57 204.24 108.13 205.21 106.74 206.24 105.43 207.37 104.22 208.6 102.85 209.68 101.8 211.06 100.62 212.34 98.91 212.09 98.54 210.37 97.78 208.77 97.03 207.19 96.25 205.62 95.54 204 94.48 202.59 93.47 201.15 92.23 199.89 91.09 198.54 89.77 197.38 88.33 196.38 86.96 195.27 85.52 194.27 83.93 193.52 82.33 192.79 80.71 192.14 79.09 191.48 78.84 189.7 80.14 188.4 81.58 187.23 82.62 185.71 83.58 184.12 84.28 182.41 84.63 180.6 85.04 178.79 84.92 176.95 84.92 175.09 84.45 173.28 83.87 171.51 82.95 169.88 81.73 168.49 80.71 166.92 79.19 165.83 77.72 164.71 76.03 163.98 74.31 163.33 72.55 162.75 70.71 162.53 68.84 162.48 66.96 162.69 65.15 163.2 63.46 164.03 61.85 164.98 60.39 166.12 59.05 167.41 57.88 168.85 56.71 170.32 56.16 172.12 55.33 173.81 54.96 175.66 54.92 177.54 55.19 179.3 55.52 181.02 55.97 182.72 56.5 184.42 57.42 185.95 58.51 187.35 59.85 188.52 61.22 189.62 60.93 191.53 59.22 192.08 57.5 192.64 55.95 193.58 54.36 194.44 52.87 195.44 51.32 196.39 49.9 197.51 48.72 198.89 47.41 200.13 46.3 201.56 45.39 203.13 44.19 204.49 43.48 206.16 42.71 207.79 41.8 209.36 41.48 211.16 40.9 212.86 40.44 214.61 40.18 216.4 40.08 218.2 39.88 220 40 221.66 40.06 223.33 40.06 224.99 40.06 226.66 39.9 228.33 39.91 230.09 41.77 229.85 43.55 230.11 45.32 230.16 47.09 229.97 48.85 230.13 50.62 230.04 52.39 229.97 54.17 229.96 55.94 230.16 57.71 229.99 59.48 229.91 61.25 230.01 63.03 229.96 64.8 230 66.58 230.04 68.35 229.87 70.13 230.12 71.9 229.86 73.67 230.13 75.45 230.11 77.23 229.86 79 230.05 80.77 229.85 82.55 229.99 84.32 230 86.1 229.87 87.88 230.02 89.65 230 91.43 229.94 93.22 229.95 95 229.93 96.67 230.16 98.33 230.07 100 229.91 101.78 229.95 103.56 230.1 105.34 230.16 107.12 230 108.91 229.91 110.69 230.09 112.47 230.01 114.25 229.92 116.04 230.02 117.82 229.92 119.61 230 121.39 229.95 123.18 229.85 124.97 229.91 126.75 230.15 128.54 229.84 130.32 230.08 132.11 229.98 133.9 229.91 135.68 230 137.47 230.07 139.25 229.88 141.04 230.14 142.83 230.16 144.62 229.95 146.41 230.09 148.21 229.9 150 229.9 151.66 229.97 153.33 229.86 155 230.1 156.77 230.07 158.55 230.01 160.32 229.9 162.09 229.88 163.85 229.88 165.62 230.13 167.39 229.95 169.17 229.91 170.94 230.03 172.71 229.98 174.48 230.08 176.25 229.85 178.03 230.06 179.8 230.04 181.57 229.83 183.35 229.87 185.13 230.11 186.9 230.1 188.67 230.11 190.45 229.84 192.23 229.85 194 230.16 195.77 230.09 197.55 229.92 199.32 230.1 201.1 230.16 202.88 230.05 204.65 229.98 206.43 230.03 208.22 229.84 210.03 230.03 209.97 228.34 209.87 226.67 209.98 225.01 209.9 223.34 210.05 221.67 210.05 220 209.94 218.2 209.77 216.4 209.44 214.63 209.13 212.86 208.61 211.13 208.06 209.41 207.5 207.69 206.61 206.12 205.69 204.57 204.75 203.03 203.67 201.59 202.51 200.2 201.37 198.8 199.91 197.72 198.61 196.46 197.1 195.48 195.67 194.38 194.15 193.4 192.45 192.75 190.79 192.07 189.09 191.47 188.91 189.8"/><polygon class="cls-4" points="188.91 189.8 190.2 188.46 191.59 187.24 192.68 185.74 193.45 184.06 194.19 182.38 194.68 180.61 194.86 178.78 194.97 176.95 194.85 175.1 194.31 173.32 193.81 171.53 192.8 169.97 191.92 168.34 190.62 167.01 189.23 165.78 187.76 164.64 186.09 163.82 184.35 163.21 182.54 162.83 180.7 162.73 178.85 162.68 177.03 163.01 175.24 163.48 173.42 163.94 171.9 165.05 170.37 166.1 169.09 167.45 167.83 168.82 166.89 170.42 165.98 172.05 165.38 173.83 165.25 175.7 164.97 177.54 164.98 179.32 165.39 181.05 165.87 182.75 166.74 184.3 167.66 185.78 168.59 187.28 169.86 188.5 171.17 189.69 170.89 191.41 169.27 192.09 167.65 192.75 166.11 193.59 164.55 194.38 163.03 195.25 161.64 196.34 160.2 197.35 158.9 198.53 157.71 199.84 156.67 201.26 155.6 202.64 154.44 203.99 153.76 205.62 152.75 207.09 152.11 208.73 151.46 210.36 150.95 212.06 149.4 212.32 148.28 211 147.1 209.72 145.88 208.49 144.51 207.43 143.21 206.31 141.82 205.28 140.42 204.25 138.88 203.47 137.42 202.5 135.76 201.97 134.15 201.3 133.76 199.59 135.26 198.52 136.47 197.14 137.6 195.69 138.4 194.03 139.11 192.35 139.64 190.6 139.81 188.78 139.84 186.95 139.72 185.12 139.36 183.31 138.84 181.52 137.76 180 136.76 178.46 135.5 177.13 134.32 175.67 132.66 174.81 131.13 173.75 129.32 173.3 127.55 172.77 125.72 172.44 123.86 172.76 122.02 172.95 120.15 173.2 118.49 174.09 116.78 174.86 115.31 176.03 113.93 177.3 112.68 178.71 111.73 180.33 111.03 182.07 110.38 183.83 110.26 185.7 110.16 187.54 109.98 189.32 110.42 191.04 111 192.71 111.59 194.37 112.41 195.95 113.67 197.21 114.73 198.64 116.11 199.76 115.91 201.5 114.3 202.12 112.7 202.77 111.12 203.47 109.57 204.24 108.13 205.21 106.74 206.24 105.43 207.37 104.22 208.6 102.85 209.68 101.8 211.06 100.62 212.34 98.91 212.09 98.54 210.37 97.78 208.77 97.03 207.19 96.25 205.62 95.54 204 94.48 202.59 93.47 201.15 92.23 199.89 91.09 198.54 89.77 197.38 88.33 196.38 86.96 195.27 85.52 194.27 83.93 193.52 82.33 192.79 80.71 192.14 79.09 191.48 78.84 189.7 80.14 188.4 81.58 187.23 82.62 185.71 83.58 184.12 84.28 182.41 84.63 180.6 85.04 178.79 84.92 176.95 84.92 175.09 84.45 173.28 83.87 171.51 82.95 169.88 81.73 168.49 80.71 166.92 79.19 165.83 77.72 164.71 76.03 163.98 74.31 163.33 72.55 162.75 70.71 162.53 68.84 162.48 66.96 162.69 65.15 163.2 63.46 164.03 61.85 164.98 60.39 166.12 59.05 167.41 57.88 168.85 56.71 170.32 56.16 172.12 55.33 173.81 54.96 175.66 54.92 177.54 55.19 179.3 55.52 181.02 55.97 182.72 56.5 184.42 57.42 185.95 58.51 187.35 59.85 188.52 61.22 189.62 60.93 191.53 59.22 192.08 57.5 192.64 55.95 193.58 54.36 194.44 52.87 195.44 51.32 196.39 49.9 197.51 48.72 198.89 47.41 200.13 46.3 201.56 45.39 203.13 44.19 204.49 43.48 206.16 42.71 207.79 41.8 209.36 41.48 211.16 40.9 212.86 40.44 214.61 40.18 216.4 40.08 218.2 39.88 220 40 221.66 40.06 223.33 40.06 224.99 40.06 226.66 39.9 228.33 39.91 230.09 41.77 229.85 43.55 230.11 45.32 230.16 47.09 229.97 48.85 230.13 50.62 230.04 52.39 229.97 54.17 229.96 55.94 230.16 57.71 229.99 59.48 229.91 61.25 230.01 63.03 229.96 64.8 230 66.58 230.04 68.35 229.87 70.13 230.12 71.9 229.86 73.67 230.13 75.45 230.11 77.23 229.86 79 230.05 80.77 229.85 82.55 229.99 84.32 230 86.1 229.87 87.88 230.02 89.65 230 91.43 229.94 93.22 229.95 95 229.93 96.67 230.16 98.33 230.07 100 229.91 101.78 229.95 103.56 230.1 105.34 230.16 107.12 230 108.91 229.91 110.69 230.09 112.47 230.01 114.25 229.92 116.04 230.02 117.82 229.92 119.61 230 121.39 229.95 123.18 229.85 124.97 229.91 126.75 230.15 128.54 229.84 130.32 230.08 132.11 229.98 133.9 229.91 135.68 230 137.47 230.07 139.25 229.88 141.04 230.14 142.83 230.16 144.62 229.95 146.41 230.09 148.21 229.9 150 229.9 151.66 229.97 153.33 229.86 155 230.1 156.77 230.07 158.55 230.01 160.32 229.9 162.09 229.88 163.85 229.88 165.62 230.13 167.39 229.95 169.17 229.91 170.94 230.03 172.71 229.98 174.48 230.08 176.25 229.85 178.03 230.06 179.8 230.04 181.57 229.83 183.35 229.87 185.13 230.11 186.9 230.1 188.67 230.11 190.45 229.84 192.23 229.85 194 230.16 195.77 230.09 197.55 229.92 199.32 230.1 201.1 230.16 202.88 230.05 204.65 229.98 206.43 230.03 208.22 229.84 210.03 230.03 209.97 228.34 209.87 226.67 209.98 225.01 209.9 223.34 210.05 221.67 210.05 220 209.94 218.2 209.77 216.4 209.44 214.63 209.13 212.86 208.61 211.13 208.06 209.41 207.5 207.69 206.61 206.12 205.69 204.57 204.75 203.03 203.67 201.59 202.51 200.2 201.37 198.8 199.91 197.72 198.61 196.46 197.1 195.48 195.67 194.38 194.15 193.4 192.45 192.75 190.79 192.07 189.09 191.47 188.91 189.8"/><polygon class="cls-3" points="218.07 135.47 216.35 135.51 214.56 135.66 212.77 135.5 210.98 135.52 209.19 135.51 207.4 135.63 205.6 135.49 203.81 135.47 202.02 135.56 200.23 135.65 198.44 135.42 196.65 135.45 194.86 135.52 193.08 135.65 191.29 135.56 189.5 135.59 187.7 135.62 185.91 135.51 184.12 135.46 182.33 135.65 180.54 135.62 178.75 135.58 176.95 135.54 175.16 135.64 173.37 135.55 171.57 135.51 169.78 135.42 167.99 135.41 166.19 135.66 164.4 135.42 162.6 135.55 160.81 135.56 159.02 135.64 157.22 135.54 155.42 135.67 153.63 135.6 151.83 135.53 150.03 135.47 148.26 135.5 148.27 133.76 148.14 131.98 148.21 130.2 148.11 128.42 148.28 126.64 148.14 124.86 148.33 123.08 148.27 121.31 148.31 119.53 148.1 117.75 148.33 115.98 148.21 114.2 148.32 112.42 148.35 110.64 148.15 108.87 148.19 107.09 148.19 105.31 148.29 103.53 148.28 101.75 148.31 99.97 148.19 98.19 148.32 96.41 148.18 94.63 148.16 92.85 148.3 91.07 148.13 89.28 148.22 87.5 148.09 85.72 148.37 83.94 148.33 82.16 148.34 80.38 148.26 78.59 148.34 76.81 148.33 75.03 148.21 73.24 148.13 71.35 150.02 71.44 151.81 71.54 153.6 71.38 155.39 71.35 157.18 71.37 158.97 71.39 160.76 71.45 162.56 71.32 164.35 71.36 166.14 71.51 167.93 71.51 169.72 71.58 171.5 71.41 173.29 71.38 175.08 71.53 176.87 71.48 178.66 71.55 180.46 71.4 182.25 71.56 184.04 71.37 185.83 71.46 187.62 71.5 189.41 71.47 191.21 71.42 193 71.32 194.79 71.44 196.59 71.47 198.38 71.48 200.18 71.39 201.97 71.33 203.76 71.49 205.56 71.56 207.35 71.44 209.15 71.37 210.94 71.55 212.74 71.55 214.54 71.42 216.34 71.58 218.12 71.47 218.26 73.22 218.21 75 218.01 76.78 218.01 78.56 218.01 80.34 218.15 82.12 218.25 83.9 218.14 85.68 218.05 87.45 218.24 89.23 218.16 91 218.03 92.78 218.19 94.56 218.09 96.34 218.09 98.12 218.13 99.89 218.16 101.67 218.16 103.45 218.18 105.23 218.25 107.01 218.03 108.79 218.04 110.57 218.2 112.35 218.14 114.14 218.13 115.92 218.08 117.7 218.17 119.48 218.06 121.26 218.02 123.04 218.19 124.82 218.05 126.6 218.18 128.39 218.11 130.17 218.02 131.96 218.16 133.75 218.07 135.47"/><polygon class="cls-5" points="218.07 135.47 216.35 135.51 214.56 135.66 212.77 135.5 210.98 135.52 209.19 135.51 207.4 135.63 205.6 135.49 203.81 135.47 202.02 135.56 200.23 135.65 198.44 135.42 196.65 135.45 194.86 135.52 193.08 135.65 191.29 135.56 189.5 135.59 187.7 135.62 185.91 135.51 184.12 135.46 182.33 135.65 180.54 135.62 178.75 135.58 176.95 135.54 175.16 135.64 173.37 135.55 171.57 135.51 169.78 135.42 167.99 135.41 166.19 135.66 164.4 135.42 162.6 135.55 160.81 135.56 159.02 135.64 157.22 135.54 155.42 135.67 153.63 135.6 151.83 135.53 150.03 135.47 148.26 135.5 148.27 133.76 148.14 131.98 148.21 130.2 148.11 128.42 148.28 126.64 148.14 124.86 148.33 123.08 148.27 121.31 148.31 119.53 148.1 117.75 148.33 115.98 148.21 114.2 148.32 112.42 148.35 110.64 148.15 108.87 148.19 107.09 148.19 105.31 148.29 103.53 148.28 101.75 148.31 99.97 148.19 98.19 148.32 96.41 148.18 94.63 148.16 92.85 148.3 91.07 148.13 89.28 148.22 87.5 148.09 85.72 148.37 83.94 148.33 82.16 148.34 80.38 148.26 78.59 148.34 76.81 148.33 75.03 148.21 73.24 148.13 71.35 150.02 71.44 151.81 71.54 153.6 71.38 155.39 71.35 157.18 71.37 158.97 71.39 160.76 71.45 162.56 71.32 164.35 71.36 166.14 71.51 167.93 71.51 169.72 71.58 171.5 71.41 173.29 71.38 175.08 71.53 176.87 71.48 178.66 71.55 180.46 71.4 182.25 71.56 184.04 71.37 185.83 71.46 187.62 71.5 189.41 71.47 191.21 71.42 193 71.32 194.79 71.44 196.59 71.47 198.38 71.48 200.18 71.39 201.97 71.33 203.76 71.49 205.56 71.56 207.35 71.44 209.15 71.37 210.94 71.55 212.74 71.55 214.54 71.42 216.34 71.58 218.12 71.47 218.26 73.22 218.21 75 218.01 76.78 218.01 78.56 218.01 80.34 218.15 82.12 218.25 83.9 218.14 85.68 218.05 87.45 218.24 89.23 218.16 91 218.03 92.78 218.19 94.56 218.09 96.34 218.09 98.12 218.13 99.89 218.16 101.67 218.16 103.45 218.18 105.23 218.25 107.01 218.03 108.79 218.04 110.57 218.2 112.35 218.14 114.14 218.13 115.92 218.08 117.7 218.17 119.48 218.06 121.26 218.02 123.04 218.19 124.82 218.05 126.6 218.18 128.39 218.11 130.17 218.02 131.96 218.16 133.75 218.07 135.47"/><polygon class="cls-3" points="210.96 78.84 209.11 78.86 207.33 78.94 205.55 78.92 203.78 79.01 202 78.81 200.22 78.95 198.45 78.93 196.67 78.89 194.88 78.82 193.1 78.82 191.33 78.96 189.55 79 187.77 78.89 185.98 78.89 184.2 78.84 182.42 79 180.64 78.84 178.86 78.82 177.07 78.97 175.29 78.81 173.51 78.94 171.73 78.94 169.95 78.98 168.16 78.99 166.38 78.94 164.6 78.81 162.81 78.88 161.03 78.87 159.24 78.79 157.45 78.83 155.67 78.91 155.66 80.73 155.71 82.55 155.72 84.38 155.65 86.2 155.57 88.02 155.6 89.85 155.64 91.67 155.72 93.5 155.77 95.33 155.68 97.15 155.55 98.98 155.56 100.81 155.73 102.63 155.69 104.46 155.63 106.29 155.71 108.11 155.65 109.94 155.67 111.77 155.71 113.6 155.73 115.43 155.71 117.26 155.62 119.09 155.71 120.92 155.59 122.83 157.44 122.81 159.22 122.86 161 122.65 162.78 122.81 164.55 122.77 166.33 122.7 168.1 122.67 169.88 122.77 171.67 122.82 173.45 122.71 175.22 122.78 177 122.77 178.78 122.68 180.57 122.8 182.35 122.79 184.13 122.73 185.91 122.85 187.69 122.82 189.48 122.86 191.26 122.8 193.04 122.81 194.83 122.72 196.6 122.85 198.39 122.65 200.17 122.85 201.95 122.84 203.74 122.75 205.52 122.67 207.31 122.78 209.1 122.85 210.97 122.83 210.98 120.93 210.84 119.11 210.98 117.28 210.98 115.46 210.86 113.64 210.85 111.81 210.81 109.98 210.82 108.16 210.86 106.33 210.93 104.51 210.97 102.68 210.85 100.85 210.97 99.03 210.87 97.2 210.83 95.37 210.89 93.55 210.84 91.72 210.9 89.89 210.79 88.06 210.93 86.23 210.88 84.41 210.94 82.57 210.81 80.74 210.96 78.84"/><polygon class="cls-5" points="210.96 78.84 209.11 78.86 207.33 78.94 205.55 78.92 203.78 79.01 202 78.81 200.22 78.95 198.45 78.93 196.67 78.89 194.88 78.82 193.1 78.82 191.33 78.96 189.55 79 187.77 78.89 185.98 78.89 184.2 78.84 182.42 79 180.64 78.84 178.86 78.82 177.07 78.97 175.29 78.81 173.51 78.94 171.73 78.94 169.95 78.98 168.16 78.99 166.38 78.94 164.6 78.81 162.81 78.88 161.03 78.87 159.24 78.79 157.45 78.83 155.67 78.91 155.66 80.73 155.71 82.55 155.72 84.38 155.65 86.2 155.57 88.02 155.6 89.85 155.64 91.67 155.72 93.5 155.77 95.33 155.68 97.15 155.55 98.98 155.56 100.81 155.73 102.63 155.69 104.46 155.63 106.29 155.71 108.11 155.65 109.94 155.67 111.77 155.71 113.6 155.73 115.43 155.71 117.26 155.62 119.09 155.71 120.92 155.59 122.83 157.44 122.81 159.22 122.86 161 122.65 162.78 122.81 164.55 122.77 166.33 122.7 168.1 122.67 169.88 122.77 171.67 122.82 173.45 122.71 175.22 122.78 177 122.77 178.78 122.68 180.57 122.8 182.35 122.79 184.13 122.73 185.91 122.85 187.69 122.82 189.48 122.86 191.26 122.8 193.04 122.81 194.83 122.72 196.6 122.85 198.39 122.65 200.17 122.85 201.95 122.84 203.74 122.75 205.52 122.67 207.31 122.78 209.1 122.85 210.97 122.83 210.98 120.93 210.84 119.11 210.98 117.28 210.98 115.46 210.86 113.64 210.85 111.81 210.81 109.98 210.82 108.16 210.86 106.33 210.93 104.51 210.97 102.68 210.85 100.85 210.97 99.03 210.87 97.2 210.83 95.37 210.89 93.55 210.84 91.72 210.9 89.89 210.79 88.06 210.93 86.23 210.88 84.41 210.94 82.57 210.81 80.74 210.96 78.84"/><polygon class="cls-3" points="155.64 111.69 156.91 110.37 158.21 109.15 159.54 107.95 160.68 106.57 162 105.36 163.27 104.11 164.51 102.81 165.85 101.63 167.07 100.31 168.36 99.07 169.57 97.75 170.88 96.52 172.17 95.33 173.41 96.55 174.67 97.8 175.93 99.07 177.17 100.35 178.46 101.58 179.75 102.81 181.07 104.01 182.31 105.29 183.47 106.66 184.77 107.88 186.1 109.08 187.3 110.41 188.6 111.75 189.78 110.41 190.99 109.19 192.31 108.09 193.41 106.76 194.62 105.55 195.85 104.36 197.19 103.27 198.3 101.94 199.56 100.68 200.86 101.91 202.07 103.14 203.26 104.39 204.57 105.52 205.75 106.78 206.94 108.03 208.22 109.19 209.36 110.5 210.71 111.72 210.72 109.83 210.76 108.01 210.71 106.2 210.71 104.38 210.71 102.56 210.61 100.74 210.77 98.92 210.7 97.11 210.66 95.29 210.59 93.47 210.58 91.65 210.65 89.84 210.72 88.02 210.66 86.2 210.64 84.38 210.57 82.55 210.57 80.73 210.68 78.89 208.9 78.97 207.12 78.91 205.35 78.79 203.58 78.93 201.81 78.85 200.04 79 198.27 78.87 196.5 78.97 194.72 78.93 192.95 78.87 191.18 78.81 189.41 78.89 187.64 78.79 185.86 78.83 184.09 78.97 182.31 78.95 180.54 78.88 178.76 78.88 176.99 78.97 175.21 78.81 173.44 79 171.66 78.82 169.89 78.81 168.11 78.8 166.34 78.93 164.56 78.83 162.78 78.86 161.01 78.84 159.22 78.82 157.44 78.84 155.67 78.91 155.6 80.72 155.62 82.53 155.64 84.35 155.65 86.17 155.62 87.99 155.6 89.81 155.77 91.62 155.59 93.44 155.6 95.26 155.57 97.07 155.7 98.89 155.65 100.71 155.72 102.53 155.75 104.35 155.64 106.17 155.66 107.99 155.76 109.82 155.64 111.69"/><polygon class="cls-5" points="155.64 111.69 156.91 110.37 158.21 109.15 159.54 107.95 160.68 106.57 162 105.36 163.27 104.11 164.51 102.81 165.85 101.63 167.07 100.31 168.36 99.07 169.57 97.75 170.88 96.52 172.17 95.33 173.41 96.55 174.67 97.8 175.93 99.07 177.17 100.35 178.46 101.58 179.75 102.81 181.07 104.01 182.31 105.29 183.47 106.66 184.77 107.88 186.1 109.08 187.3 110.41 188.6 111.75 189.78 110.41 190.99 109.19 192.31 108.09 193.41 106.76 194.62 105.55 195.85 104.36 197.19 103.27 198.3 101.94 199.56 100.68 200.86 101.91 202.07 103.14 203.26 104.39 204.57 105.52 205.75 106.78 206.94 108.03 208.22 109.19 209.36 110.5 210.71 111.72 210.72 109.83 210.76 108.01 210.71 106.2 210.71 104.38 210.71 102.56 210.61 100.74 210.77 98.92 210.7 97.11 210.66 95.29 210.59 93.47 210.58 91.65 210.65 89.84 210.72 88.02 210.66 86.2 210.64 84.38 210.57 82.55 210.57 80.73 210.68 78.89 208.9 78.97 207.12 78.91 205.35 78.79 203.58 78.93 201.81 78.85 200.04 79 198.27 78.87 196.5 78.97 194.72 78.93 192.95 78.87 191.18 78.81 189.41 78.89 187.64 78.79 185.86 78.83 184.09 78.97 182.31 78.95 180.54 78.88 178.76 78.88 176.99 78.97 175.21 78.81 173.44 79 171.66 78.82 169.89 78.81 168.11 78.8 166.34 78.93 164.56 78.83 162.78 78.86 161.01 78.84 159.22 78.82 157.44 78.84 155.67 78.91 155.6 80.72 155.62 82.53 155.64 84.35 155.65 86.17 155.62 87.99 155.6 89.81 155.77 91.62 155.59 93.44 155.6 95.26 155.57 97.07 155.7 98.89 155.65 100.71 155.72 102.53 155.75 104.35 155.64 106.17 155.66 107.99 155.76 109.82 155.64 111.69"/><polygon class="cls-3" points="199.58 89.69 199.28 91.39 198.5 92.93 197.3 94.16 195.76 94.93 194.06 95.21 192.36 94.91 190.81 94.15 189.6 92.93 188.8 91.4 188.56 89.69 188.84 88 189.61 86.46 190.81 85.23 192.35 84.45 194.06 84.19 195.75 84.47 197.3 85.23 198.5 86.46 199.28 88 199.58 89.69"/><polygon class="cls-5" points="199.58 89.69 199.28 91.39 198.5 92.93 197.3 94.16 195.76 94.93 194.06 95.21 192.36 94.91 190.81 94.15 189.6 92.93 188.8 91.4 188.56 89.69 188.84 88 189.61 86.46 190.81 85.23 192.35 84.45 194.06 84.19 195.75 84.47 197.3 85.23 198.5 86.46 199.28 88 199.58 89.69"/><polygon class="cls-3" points="106.31 82.98 106.13 84.77 106.33 86.55 106.27 88.33 106.22 90.11 106.25 91.9 106.28 93.68 106.21 95.47 106.07 97.25 106.1 99.04 106.08 100.82 106.22 102.61 106.21 104.39 106.33 106.18 106.21 107.97 106.21 109.76 106.22 111.54 106.28 113.33 106.1 115.12 106.08 116.91 106.18 118.7 106.32 120.48 106.09 122.27 106.16 124.06 106.1 125.85 106.25 127.64 106.09 129.43 106.25 131.22 106.2 133.02 106.26 134.81 105.98 136.53 105.1 138.02 103.92 139.27 102.35 139.98 100.65 140.36 98.87 140.34 97.08 140.18 95.3 140.25 93.52 140.23 91.73 140.22 89.94 140.14 88.15 140.22 86.37 140.27 84.58 140.31 82.79 140.21 81 140.14 79.22 140.31 77.43 140.29 75.64 140.38 73.85 140.2 72.06 140.31 70.27 140.14 68.47 140.34 66.69 140.15 64.9 140.38 63.11 140.21 61.32 140.2 59.53 140.31 57.73 140.31 55.94 140.39 54.15 140.12 52.35 140.31 50.55 140.14 48.89 139.88 47.3 139.25 46.1 138.01 45.37 136.48 44.95 134.81 44.87 133 44.93 131.19 45 129.38 45.13 127.57 44.88 125.76 45.11 123.95 44.96 122.14 44.91 120.33 44.93 118.53 45.07 116.71 44.9 114.9 45.1 113.09 44.87 111.28 44.96 109.47 45.05 107.66 44.93 105.84 44.87 104.03 44.99 102.22 45.1 100.41 45.03 98.59 44.96 96.78 45.08 94.96 44.9 93.15 44.94 91.33 44.99 89.52 44.89 87.71 44.89 85.89 45.14 84.08 45.08 82.26 45.09 80.45 45.03 78.63 45.06 76.81 45.07 74.98 45.38 73.32 46.06 71.75 47.32 70.58 48.88 69.89 50.55 69.49 52.38 69.49 54.2 69.6 56.02 69.42 57.84 69.62 59.67 69.46 61.49 69.54 63.31 69.47 65.14 69.58 66.96 69.61 68.79 69.67 70.61 69.66 72.44 69.54 74.27 69.67 76.09 69.5 77.91 69.43 79.74 69.56 81.56 69.4 83.39 69.51 85.22 69.55 87.05 69.59 88.88 69.61 90.71 69.57 92.54 69.67 94.7 69.88 96.43 71.19 97.85 72.45 99.28 73.71 100.52 75.15 101.92 76.43 103.31 77.73 104.58 79.16 105.89 80.86 106.31 82.98"/><polygon class="cls-5" points="106.31 82.98 106.13 84.77 106.33 86.55 106.27 88.33 106.22 90.11 106.25 91.9 106.28 93.68 106.21 95.47 106.07 97.25 106.1 99.04 106.08 100.82 106.22 102.61 106.21 104.39 106.33 106.18 106.21 107.97 106.21 109.76 106.22 111.54 106.28 113.33 106.1 115.12 106.08 116.91 106.18 118.7 106.32 120.48 106.09 122.27 106.16 124.06 106.1 125.85 106.25 127.64 106.09 129.43 106.25 131.22 106.2 133.02 106.26 134.81 105.98 136.53 105.1 138.02 103.92 139.27 102.35 139.98 100.65 140.36 98.87 140.34 97.08 140.18 95.3 140.25 93.52 140.23 91.73 140.22 89.94 140.14 88.15 140.22 86.37 140.27 84.58 140.31 82.79 140.21 81 140.14 79.22 140.31 77.43 140.29 75.64 140.38 73.85 140.2 72.06 140.31 70.27 140.14 68.47 140.34 66.69 140.15 64.9 140.38 63.11 140.21 61.32 140.2 59.53 140.31 57.73 140.31 55.94 140.39 54.15 140.12 52.35 140.31 50.55 140.14 48.89 139.88 47.3 139.25 46.1 138.01 45.37 136.48 44.95 134.81 44.87 133 44.93 131.19 45 129.38 45.13 127.57 44.88 125.76 45.11 123.95 44.96 122.14 44.91 120.33 44.93 118.53 45.07 116.71 44.9 114.9 45.1 113.09 44.87 111.28 44.96 109.47 45.05 107.66 44.93 105.84 44.87 104.03 44.99 102.22 45.1 100.41 45.03 98.59 44.96 96.78 45.08 94.96 44.9 93.15 44.94 91.33 44.99 89.52 44.89 87.71 44.89 85.89 45.14 84.08 45.08 82.26 45.09 80.45 45.03 78.63 45.06 76.81 45.07 74.98 45.38 73.32 46.06 71.75 47.32 70.58 48.88 69.89 50.55 69.49 52.38 69.49 54.2 69.6 56.02 69.42 57.84 69.62 59.67 69.46 61.49 69.54 63.31 69.47 65.14 69.58 66.96 69.61 68.79 69.67 70.61 69.66 72.44 69.54 74.27 69.67 76.09 69.5 77.91 69.43 79.74 69.56 81.56 69.4 83.39 69.51 85.22 69.55 87.05 69.59 88.88 69.61 90.71 69.57 92.54 69.67 94.7 69.88 96.43 71.19 97.85 72.45 99.28 73.71 100.52 75.15 101.92 76.43 103.31 77.73 104.58 79.16 105.89 80.86 106.31 82.98"/><polygon class="cls-3" points="106.08 82.98 106.14 84.77 106.14 86.55 106.15 88.33 106.1 90.11 106.25 91.9 106.33 93.68 106.21 95.47 106.25 97.25 106.08 99.04 106.32 100.82 106.15 102.61 106.23 104.39 106.3 106.18 106.33 107.97 106.3 109.76 106.15 111.54 106.25 113.33 106.16 115.12 106.2 116.91 106.16 118.7 106.13 120.48 106.16 122.27 106.19 124.06 106.22 125.85 106.27 127.64 106.06 129.43 106.09 131.22 106.28 133.02 106.23 134.81 105.89 136.5 105.14 138.04 103.94 139.29 102.37 140.05 100.65 140.23 98.87 140.13 97.08 140.33 95.3 140.38 93.52 140.2 91.73 140.34 89.94 140.27 88.15 140.3 86.37 140.33 84.58 140.17 82.79 140.13 81 140.26 79.22 140.13 77.43 140.31 75.64 140.26 73.85 140.38 72.06 140.16 70.27 140.17 68.47 140.18 66.69 140.4 64.9 140.32 63.11 140.33 61.32 140.39 59.53 140.21 57.73 140.35 55.94 140.37 54.15 140.16 52.35 140.29 50.55 140.2 48.86 139.97 47.27 139.28 46 138.09 45.36 136.48 45.02 134.81 45.04 133 44.94 131.19 45.01 129.38 45.1 127.57 45.08 125.76 45.12 123.95 45.03 122.14 44.87 120.33 44.94 118.53 44.88 116.71 44.95 114.9 44.92 113.09 44.97 111.28 45.03 109.47 44.88 107.66 44.86 105.84 44.91 104.03 45.11 102.22 45.06 100.41 44.88 98.59 44.86 96.78 45.01 94.96 45.11 93.15 45.06 91.33 45.07 89.52 44.9 87.71 45 85.89 45.03 84.08 44.93 82.26 44.93 80.45 45.13 78.63 44.98 76.81 45.1 74.98 45.27 73.28 46.16 71.83 47.23 70.46 48.87 69.88 50.55 69.64 52.38 69.59 54.2 69.52 56.02 69.53 57.84 69.67 59.67 69.5 61.49 69.4 63.31 69.66 65.14 69.44 66.96 69.59 68.79 69.41 70.61 69.63 72.44 69.61 74.27 69.64 76.09 69.53 77.91 69.58 79.74 69.6 81.56 69.65 83.39 69.47 85.22 69.56 87.05 69.45 88.88 69.44 90.71 69.66 92.54 69.67 94.62 70.07 96.57 71.06 97.83 72.47 99.08 73.91 100.44 75.23 101.97 76.38 103.14 77.91 104.56 79.18 105.73 80.92 106.08 82.98"/><polygon class="cls-5" points="106.08 82.98 106.14 84.77 106.14 86.55 106.15 88.33 106.1 90.11 106.25 91.9 106.33 93.68 106.21 95.47 106.25 97.25 106.08 99.04 106.32 100.82 106.15 102.61 106.23 104.39 106.3 106.18 106.33 107.97 106.3 109.76 106.15 111.54 106.25 113.33 106.16 115.12 106.2 116.91 106.16 118.7 106.13 120.48 106.16 122.27 106.19 124.06 106.22 125.85 106.27 127.64 106.06 129.43 106.09 131.22 106.28 133.02 106.23 134.81 105.89 136.5 105.14 138.04 103.94 139.29 102.37 140.05 100.65 140.23 98.87 140.13 97.08 140.33 95.3 140.38 93.52 140.2 91.73 140.34 89.94 140.27 88.15 140.3 86.37 140.33 84.58 140.17 82.79 140.13 81 140.26 79.22 140.13 77.43 140.31 75.64 140.26 73.85 140.38 72.06 140.16 70.27 140.17 68.47 140.18 66.69 140.4 64.9 140.32 63.11 140.33 61.32 140.39 59.53 140.21 57.73 140.35 55.94 140.37 54.15 140.16 52.35 140.29 50.55 140.2 48.86 139.97 47.27 139.28 46 138.09 45.36 136.48 45.02 134.81 45.04 133 44.94 131.19 45.01 129.38 45.1 127.57 45.08 125.76 45.12 123.95 45.03 122.14 44.87 120.33 44.94 118.53 44.88 116.71 44.95 114.9 44.92 113.09 44.97 111.28 45.03 109.47 44.88 107.66 44.86 105.84 44.91 104.03 45.11 102.22 45.06 100.41 44.88 98.59 44.86 96.78 45.01 94.96 45.11 93.15 45.06 91.33 45.07 89.52 44.9 87.71 45 85.89 45.03 84.08 44.93 82.26 44.93 80.45 45.13 78.63 44.98 76.81 45.1 74.98 45.27 73.28 46.16 71.83 47.23 70.46 48.87 69.88 50.55 69.64 52.38 69.59 54.2 69.52 56.02 69.53 57.84 69.67 59.67 69.5 61.49 69.4 63.31 69.66 65.14 69.44 66.96 69.59 68.79 69.41 70.61 69.63 72.44 69.61 74.27 69.64 76.09 69.53 77.91 69.58 79.74 69.6 81.56 69.65 83.39 69.47 85.22 69.56 87.05 69.45 88.88 69.44 90.71 69.66 92.54 69.67 94.62 70.07 96.57 71.06 97.83 72.47 99.08 73.91 100.44 75.23 101.97 76.38 103.14 77.91 104.56 79.18 105.73 80.92 106.08 82.98"/><polyline class="cls-3" points="52.68 90.88 54.45 90.8 56.22 90.98 57.99 90.91 59.76 90.93 61.54 90.9 63.31 90.94 65.08 90.84 66.86 90.98 68.63 90.89 70.41 90.88 72.18 90.8 73.96 90.92 75.73 90.84 77.51 90.83 79.29 90.97 81.06 90.96 82.84 90.88 84.62 90.85 86.39 90.99 88.17 90.93 89.94 90.87 91.72 90.82 93.5 90.83 95.28 90.92 97.06 90.81 98.84 90.92 100.63 90.97"/><polyline class="cls-5" points="52.68 90.88 54.45 90.8 56.22 90.98 57.99 90.91 59.76 90.93 61.54 90.9 63.31 90.94 65.08 90.84 66.86 90.98 68.63 90.89 70.41 90.88 72.18 90.8 73.96 90.92 75.73 90.84 77.51 90.83 79.29 90.97 81.06 90.96 82.84 90.88 84.62 90.85 86.39 90.99 88.17 90.93 89.94 90.87 91.72 90.82 93.5 90.83 95.28 90.92 97.06 90.81 98.84 90.92 100.63 90.97"/><polyline class="cls-3" points="52.68 83.19 54.44 83.13 56.2 83.25 57.95 83.21 59.72 83.22 61.48 83.2 63.24 83.23 65 83.16 66.76 83.25 68.52 83.19 70.28 83.19 72.04 83.14 73.8 83.21 75.56 83.16 77.33 83.16 79.09 83.25 80.86 83.25 82.63 83.19 84.39 83.17"/><polyline class="cls-5" points="52.68 83.19 54.44 83.13 56.2 83.25 57.95 83.21 59.72 83.22 61.48 83.2 63.24 83.23 65 83.16 66.76 83.25 68.52 83.19 70.28 83.19 72.04 83.14 73.8 83.21 75.56 83.16 77.33 83.16 79.09 83.25 80.86 83.25 82.63 83.19 84.39 83.17"/><polyline class="cls-3" points="52.68 98.12 54.45 98.23 56.22 98.17 57.99 98.06 59.76 98.11 61.54 98.19 63.31 98.17 65.08 98.18 66.86 98.18 68.63 98.11 70.41 98.17 72.18 98.19 73.96 98.23 75.73 98.15 77.51 98.05 79.29 98.06 81.06 98.14 82.84 98.1 84.62 98.12 86.39 98.16 88.17 98.2 89.94 98.2 91.72 98.13 93.5 98.12 95.28 98.09 97.06 98.07 98.84 98.17 100.63 98.06"/><polyline class="cls-5" points="52.68 98.12 54.45 98.23 56.22 98.17 57.99 98.06 59.76 98.11 61.54 98.19 63.31 98.17 65.08 98.18 66.86 98.18 68.63 98.11 70.41 98.17 72.18 98.19 73.96 98.23 75.73 98.15 77.51 98.05 79.29 98.06 81.06 98.14 82.84 98.1 84.62 98.12 86.39 98.16 88.17 98.2 89.94 98.2 91.72 98.13 93.5 98.12 95.28 98.09 97.06 98.07 98.84 98.17 100.63 98.06"/><polyline class="cls-3" points="52.68 105.44 54.45 105.32 56.22 105.43 57.99 105.46 59.76 105.33 61.54 105.36 63.31 105.31 65.08 105.39 66.86 105.33 68.63 105.39 70.41 105.33 72.18 105.36 73.96 105.42 75.73 105.39 77.51 105.31 79.29 105.33 81.06 105.44 82.84 105.32 84.62 105.33 86.39 105.35 88.17 105.39 89.94 105.44 91.72 105.48 93.5 105.37 95.28 105.48 97.06 105.42 98.84 105.31 100.63 105.36"/><polyline class="cls-5" points="52.68 105.44 54.45 105.32 56.22 105.43 57.99 105.46 59.76 105.33 61.54 105.36 63.31 105.31 65.08 105.39 66.86 105.33 68.63 105.39 70.41 105.33 72.18 105.36 73.96 105.42 75.73 105.39 77.51 105.31 79.29 105.33 81.06 105.44 82.84 105.32 84.62 105.33 86.39 105.35 88.17 105.39 89.94 105.44 91.72 105.48 93.5 105.37 95.28 105.48 97.06 105.42 98.84 105.31 100.63 105.36"/><polyline class="cls-3" points="52.68 112.61 54.45 112.71 56.22 112.72 57.99 112.72 59.76 112.71 61.54 112.57 63.31 112.72 65.08 112.67 66.86 112.68 68.63 112.65 70.41 112.72 72.18 112.59 73.96 112.69 75.73 112.58 77.51 112.67 79.29 112.58 81.06 112.7 82.84 112.59 84.62 112.62 86.39 112.61 88.17 112.71 89.94 112.59 91.72 112.67 93.5 112.68 95.28 112.56 97.06 112.68 98.84 112.71 100.63 112.58"/><polyline class="cls-5" points="52.68 112.61 54.45 112.71 56.22 112.72 57.99 112.72 59.76 112.71 61.54 112.57 63.31 112.72 65.08 112.67 66.86 112.68 68.63 112.65 70.41 112.72 72.18 112.59 73.96 112.69 75.73 112.58 77.51 112.67 79.29 112.58 81.06 112.7 82.84 112.59 84.62 112.62 86.39 112.61 88.17 112.71 89.94 112.59 91.72 112.67 93.5 112.68 95.28 112.56 97.06 112.68 98.84 112.71 100.63 112.58"/><polyline class="cls-3" points="52.68 119.86 54.45 119.96 56.22 119.97 57.99 119.97 59.76 119.96 61.54 119.82 63.31 119.97 65.08 119.91 66.86 119.93 68.63 119.9 70.41 119.97 72.18 119.84 73.96 119.94 75.73 119.83 77.51 119.92 79.29 119.82 81.06 119.94 82.84 119.84 84.62 119.87 86.39 119.86 88.17 119.96 89.94 119.83 91.72 119.92 93.5 119.93 95.28 119.81 97.06 119.93 98.84 119.95 100.63 119.83"/><polyline class="cls-5" points="52.68 119.86 54.45 119.96 56.22 119.97 57.99 119.97 59.76 119.96 61.54 119.82 63.31 119.97 65.08 119.91 66.86 119.93 68.63 119.9 70.41 119.97 72.18 119.84 73.96 119.94 75.73 119.83 77.51 119.92 79.29 119.82 81.06 119.94 82.84 119.84 84.62 119.87 86.39 119.86 88.17 119.96 89.94 119.83 91.72 119.92 93.5 119.93 95.28 119.81 97.06 119.93 98.84 119.95 100.63 119.83"/><polygon class="cls-3" points="154.71 83.1 152.92 83.06 151.13 83.05 149.34 83.09 147.54 83.06 145.75 83.16 143.97 83.06 142.18 83.11 140.39 83.04 138.6 83.11 136.81 83.13 135.02 83.1 133.23 83.09 131.44 83.14 129.65 83.15 127.85 83.11 126.06 83.05 124.27 83.15 122.48 83.14 120.68 83.12 118.89 83.06 117.09 83.07 115.3 83.12 113.5 83.11 111.71 83.11 109.92 83.07 108.12 83.11 106.33 83.06 104.53 83.13 102.74 83.09 100.94 83.15 99.14 83.16 97.34 83.15 95.54 83.07 93.81 82.4 93.05 80.67 93.14 78.86 93.07 77.06 93.04 75.25 93.09 73.43 93.13 71.62 93.09 69.81 93.1 68 93.09 66.19 93.08 64.37 93.14 62.56 93.06 60.74 93.12 58.93 93.12 57.12 93.09 55.31 93.07 53.49 93.07 51.68 93.05 49.86 93.16 48.05 93.09 46.23 93.07 44.41 93.15 42.59 93.17 40.77 93.86 39.09 95.54 38.38 97.33 38.31 99.12 38.38 100.91 38.39 102.7 38.31 104.5 38.35 106.28 38.37 108.07 38.4 109.86 38.35 111.65 38.33 113.44 38.34 115.23 38.34 117.02 38.4 118.81 38.37 120.6 38.38 122.4 38.28 124.19 38.39 125.98 38.31 127.78 38.34 129.57 38.3 131.36 38.29 133.16 38.28 134.95 38.37 136.75 38.31 138.54 38.4 140.33 38.37 142.13 38.33 143.92 38.34 145.72 38.31 147.51 38.34 149.31 38.35 151.11 38.37 152.91 38.33 154.71 38.35 156.48 39.01 157.17 40.77 157.21 42.58 157.12 44.39 157.18 46.2 157.16 48.01 157.2 49.83 157.15 51.64 157.18 53.45 157.19 55.26 157.13 57.08 157.16 58.89 157.16 60.7 157.17 62.52 157.2 64.33 157.13 66.14 157.11 67.96 157.16 69.77 157.15 71.58 157.14 73.4 157.13 75.21 157.17 77.03 157.15 78.85 157.18 80.67 156.47 82.43 154.71 83.1"/><polygon class="cls-5" points="154.71 83.1 152.92 83.06 151.13 83.05 149.34 83.09 147.54 83.06 145.75 83.16 143.97 83.06 142.18 83.11 140.39 83.04 138.6 83.11 136.81 83.13 135.02 83.1 133.23 83.09 131.44 83.14 129.65 83.15 127.85 83.11 126.06 83.05 124.27 83.15 122.48 83.14 120.68 83.12 118.89 83.06 117.09 83.07 115.3 83.12 113.5 83.11 111.71 83.11 109.92 83.07 108.12 83.11 106.33 83.06 104.53 83.13 102.74 83.09 100.94 83.15 99.14 83.16 97.34 83.15 95.54 83.07 93.81 82.4 93.05 80.67 93.14 78.86 93.07 77.06 93.04 75.25 93.09 73.43 93.13 71.62 93.09 69.81 93.1 68 93.09 66.19 93.08 64.37 93.14 62.56 93.06 60.74 93.12 58.93 93.12 57.12 93.09 55.31 93.07 53.49 93.07 51.68 93.05 49.86 93.16 48.05 93.09 46.23 93.07 44.41 93.15 42.59 93.17 40.77 93.86 39.09 95.54 38.38 97.33 38.31 99.12 38.38 100.91 38.39 102.7 38.31 104.5 38.35 106.28 38.37 108.07 38.4 109.86 38.35 111.65 38.33 113.44 38.34 115.23 38.34 117.02 38.4 118.81 38.37 120.6 38.38 122.4 38.28 124.19 38.39 125.98 38.31 127.78 38.34 129.57 38.3 131.36 38.29 133.16 38.28 134.95 38.37 136.75 38.31 138.54 38.4 140.33 38.37 142.13 38.33 143.92 38.34 145.72 38.31 147.51 38.34 149.31 38.35 151.11 38.37 152.91 38.33 154.71 38.35 156.48 39.01 157.17 40.77 157.21 42.58 157.12 44.39 157.18 46.2 157.16 48.01 157.2 49.83 157.15 51.64 157.18 53.45 157.19 55.26 157.13 57.08 157.16 58.89 157.16 60.7 157.17 62.52 157.2 64.33 157.13 66.14 157.11 67.96 157.16 69.77 157.15 71.58 157.14 73.4 157.13 75.21 157.17 77.03 157.15 78.85 157.18 80.67 156.47 82.43 154.71 83.1"/><polygon class="cls-3" points="142.02 141.9 140.82 143.16 139.58 144.38 138.32 145.59 137.16 146.89 135.91 148.1 134.64 149.3 133.41 150.54 133.43 148.68 133.45 146.81 133.45 144.93 133.47 143.06 133.37 141.19 133.41 139.31 133.44 137.44 133.42 135.56 133.4 133.68 133.48 131.8 132.99 130.04 131.66 128.81 129.93 128.28 129.93 128.31 128.16 128.74 126.97 130.09 126.5 131.8 126.52 133.68 126.49 135.54 126.49 137.42 126.42 139.29 126.51 141.16 126.43 143.04 126.46 144.91 126.45 146.79 126.46 148.67 126.43 150.5 125.27 149.27 124.02 148.06 122.78 146.84 121.57 145.59 120.33 144.36 119.07 143.15 117.78 141.97 116.27 141.01 114.47 141.01 112.93 141.94 112.91 141.92 112.02 143.48 112.04 145.27 112.9 146.85 114.07 148.09 115.31 149.27 116.53 150.46 117.69 151.72 118.93 152.9 120.2 154.05 121.39 155.28 122.61 156.49 123.81 157.72 125 158.96 125.9 159.75 127.35 160.8 129.03 161.46 130.84 161.44 132.56 160.88 134.05 159.84 134.86 158.95 136.06 157.74 137.22 156.49 138.52 155.36 139.69 154.12 140.86 152.87 142.11 151.69 143.29 150.45 144.53 149.27 145.77 148.08 146.91 146.79 147.91 145.29 147.89 143.47 146.96 141.91 146.99 141.89 145.39 141.05 143.6 141.03 142.02 141.9"/><polygon class="cls-5" points="142.02 141.9 140.82 143.16 139.58 144.38 138.32 145.59 137.16 146.89 135.91 148.1 134.64 149.3 133.41 150.54 133.43 148.68 133.45 146.81 133.45 144.93 133.47 143.06 133.37 141.19 133.41 139.31 133.44 137.44 133.42 135.56 133.4 133.68 133.48 131.8 132.99 130.04 131.66 128.81 129.93 128.28 129.93 128.31 128.16 128.74 126.97 130.09 126.5 131.8 126.52 133.68 126.49 135.54 126.49 137.42 126.42 139.29 126.51 141.16 126.43 143.04 126.46 144.91 126.45 146.79 126.46 148.67 126.43 150.5 125.27 149.27 124.02 148.06 122.78 146.84 121.57 145.59 120.33 144.36 119.07 143.15 117.78 141.97 116.27 141.01 114.47 141.01 112.93 141.94 112.91 141.92 112.02 143.48 112.04 145.27 112.9 146.85 114.07 148.09 115.31 149.27 116.53 150.46 117.69 151.72 118.93 152.9 120.2 154.05 121.39 155.28 122.61 156.49 123.81 157.72 125 158.96 125.9 159.75 127.35 160.8 129.03 161.46 130.84 161.44 132.56 160.88 134.05 159.84 134.86 158.95 136.06 157.74 137.22 156.49 138.52 155.36 139.69 154.12 140.86 152.87 142.11 151.69 143.29 150.45 144.53 149.27 145.77 148.08 146.91 146.79 147.91 145.29 147.89 143.47 146.96 141.91 146.99 141.89 145.39 141.05 143.6 141.03 142.02 141.9"/><polygon class="cls-3" points="121.89 50.31 123.36 51.48 124.81 52.68 126.27 53.85 127.76 55.01 129.24 56.16 130.73 57.32 132.2 58.5 133.65 59.7 133.7 61.8 132.21 62.95 130.72 64.1 129.24 65.26 127.78 66.44 126.3 67.59 124.83 68.77 123.37 69.96 121.87 71.11 119.94 71.48 118.67 70.06 118.7 68.2 118.68 66.34 118.69 64.47 118.65 62.6 118.64 60.74 118.68 58.87 118.65 57 118.63 55.13 118.64 53.26 118.71 51.38 119.94 49.99 121.89 50.31"/><polygon class="cls-5" points="121.89 50.31 123.36 51.48 124.81 52.68 126.27 53.85 127.76 55.01 129.24 56.16 130.73 57.32 132.2 58.5 133.65 59.7 133.7 61.8 132.21 62.95 130.72 64.1 129.24 65.26 127.78 66.44 126.3 67.59 124.83 68.77 123.37 69.96 121.87 71.11 119.94 71.48 118.67 70.06 118.7 68.2 118.68 66.34 118.69 64.47 118.65 62.6 118.64 60.74 118.68 58.87 118.65 57 118.63 55.13 118.64 53.26 118.71 51.38 119.94 49.99 121.89 50.31"/></g></svg>
