<svg xmlns="http://www.w3.org/2000/svg" viewBox="0 0 250 250"><defs><style>.cls-1{fill:#f8f8f8;}.cls-2{fill:#fff;}.cls-3{fill:none;stroke:#3e82f7;stroke-miterlimit:10;stroke-width:3px;}</style></defs><title>icon-engage-record</title><g id="Base_Dots" data-name="Base Dots"><circle class="cls-1" cx="125" cy="125" r="100"/></g><g id="Artwork"><polyline class="cls-2" points="220.12 160.5 219.96 158.71 220.09 156.91 220.08 155.12 219.96 153.32 219.99 151.53 219.99 149.73 219.93 147.93 219.98 146.14 220.04 144.34 219.94 142.55 220.06 140.75 219.92 138.96 220.08 137.17 220 135.38 219.99 133.59 220.07 131.79 220.02 129.99 219.99 128.2 219.95 126.4 219.87 124.61 219.93 122.81 219.87 121.02 219.88 119.22 220.09 117.42 219.91 115.63 219.97 113.83 219.9 112.03 219.98 110.23 219.94 108.43 220.04 106.63 220.06 104.84 219.9 103.04 220.02 101.24 220.09 99.44 220.02 97.64 220.04 95.84 219.91 94.04 219.88 92.23 220.01 90.43 219.9 88.64 219.82 86.86 219.55 85.09 219.12 83.36 218.67 81.63 218.06 79.95 217.47 78.27 216.79 76.62 215.91 75.07 215.07 73.49 214.07 72 212.94 70.61 211.69 69.33 210.45 68.05 209.24 66.72 207.73 65.74 206.39 64.55 204.85 63.63 203.3 62.73 201.68 61.96 200.04 61.25 198.33 60.72 198.01 58.95 199.47 57.72 200.71 56.27 201.86 54.76 202.81 53.12 203.61 51.38 204.06 49.53 204.5 47.66 204.43 45.74 204.34 43.96 203.79 42.26 203.31 40.55 202.5 38.97 201.59 37.45 200.42 36.13 199.19 34.86 197.84 33.72 196.31 32.84 194.72 32.07 193.07 31.44 191.36 31.01 189.6 30.72 187.81 30.94 186.03 31.13 184.3 31.6 182.54 32.01 181.02 32.99 179.43 33.85 178.17 35.15 176.89 36.41 175.74 37.8 175.03 39.47 174.28 41.09 173.6 42.77 173.44 44.57 173.2 46.36 173.36 48.19 173.65 50.01 174.13 51.79 174.91 53.46 175.91 55 176.97 56.5 178.36 57.7 179.78 58.85 179.38 60.67 177.69 61.37 176.03 62.12 174.35 62.83 172.72 63.67 171.29 64.81 169.72 65.75 168.31 66.92 167.08 68.27 165.85 69.61 164.66 70.98 163.52 72.41 162.45 73.88 161.56 75.47 160.74 77.1 160.04 78.78 159.47 80.51 158.77 82.2 156.95 82.56 155.95 81.07 154.69 79.77 153.52 78.4 152.11 77.27 150.7 76.17 149.25 75.11 147.82 74 146.21 73.19 144.62 72.35 142.92 71.75 141.25 71.07 140.94 69.36 142.34 68.06 143.7 66.72 144.87 65.21 145.73 63.5 146.41 61.73 146.9 59.89 147.23 58.02 147.35 56.12 147.05 54.37 146.85 52.6 146.22 50.93 145.49 49.31 144.55 47.8 143.36 46.48 142.19 45.13 140.73 44.12 139.31 43.04 137.69 42.3 136.03 41.65 134.28 41.31 132.5 41.3 130.7 41.11 128.93 41.48 127.17 41.85 125.53 42.58 123.94 43.4 122.38 44.3 121 45.45 119.73 46.73 118.62 48.17 117.73 49.74 117.11 51.44 116.62 53.17 116.35 54.95 116.25 56.74 116.36 58.56 116.53 60.39 117.25 62.09 117.79 63.85 118.72 65.45 119.88 66.88 121.24 68.11 122.66 69.25 122.32 71.18 120.56 71.63 118.91 72.33 117.29 73.14 115.78 74.13 114.28 75.1 112.85 76.19 111.44 77.3 110.03 78.43 108.86 79.8 107.66 81.13 106.57 82.57 105.35 83.79 104.45 85.28 103.94 86.94 103.4 88.58 103.14 90.3 103.12 92.03 102.86 93.75 103.01 95.55 103.03 97.35 102.84 99.16 103.06 100.96 102.97 102.76 102.91 104.56 102.92 106.37 102.96 108.17 102.85 109.97 102.95 111.77 102.99 113.57 102.99 115.37 102.99 117.17 102.87 118.97 102.84 120.78 103.06 122.58 102.86 124.38 102.82 126.18 102.97 127.98 102.84 129.79 102.91 131.59 102.96 133.4 102.97 135.2 102.82 137 102.95 138.81 103.01 140.62 102.94 142.42 102.98 144.23 102.94 146.03 102.91 147.84 103.05 149.64 102.85 151.45 103.05 153.26 102.85 155.06 102.86 156.87 103.05 158.69 102.91 160.5"/><polyline class="cls-3" points="220.12 160.5 219.96 158.71 220.09 156.91 220.08 155.12 219.96 153.32 219.99 151.53 219.99 149.73 219.93 147.93 219.98 146.14 220.04 144.34 219.94 142.55 220.06 140.75 219.92 138.96 220.08 137.17 220 135.38 219.99 133.59 220.07 131.79 220.02 129.99 219.99 128.2 219.95 126.4 219.87 124.61 219.93 122.81 219.87 121.02 219.88 119.22 220.09 117.42 219.91 115.63 219.97 113.83 219.9 112.03 219.98 110.23 219.94 108.43 220.04 106.63 220.06 104.84 219.9 103.04 220.02 101.24 220.09 99.44 220.02 97.64 220.04 95.84 219.91 94.04 219.88 92.23 220.01 90.43 219.9 88.64 219.82 86.86 219.55 85.09 219.12 83.36 218.67 81.63 218.06 79.95 217.47 78.27 216.79 76.62 215.91 75.07 215.07 73.49 214.07 72 212.94 70.61 211.69 69.33 210.45 68.05 209.24 66.72 207.73 65.74 206.39 64.55 204.85 63.63 203.3 62.73 201.68 61.96 200.04 61.25 198.33 60.72 198.01 58.95 199.47 57.72 200.71 56.27 201.86 54.76 202.81 53.12 203.61 51.38 204.06 49.53 204.5 47.66 204.43 45.74 204.34 43.96 203.79 42.26 203.31 40.55 202.5 38.97 201.59 37.45 200.42 36.13 199.19 34.86 197.84 33.72 196.31 32.84 194.72 32.07 193.07 31.44 191.36 31.01 189.6 30.72 187.81 30.94 186.03 31.13 184.3 31.6 182.54 32.01 181.02 32.99 179.43 33.85 178.17 35.15 176.89 36.41 175.74 37.8 175.03 39.47 174.28 41.09 173.6 42.77 173.44 44.57 173.2 46.36 173.36 48.19 173.65 50.01 174.13 51.79 174.91 53.46 175.91 55 176.97 56.5 178.36 57.7 179.78 58.85 179.38 60.67 177.69 61.37 176.03 62.12 174.35 62.83 172.72 63.67 171.29 64.81 169.72 65.75 168.31 66.92 167.08 68.27 165.85 69.61 164.66 70.98 163.52 72.41 162.45 73.88 161.56 75.47 160.74 77.1 160.04 78.78 159.47 80.51 158.77 82.2 156.95 82.56 155.95 81.07 154.69 79.77 153.52 78.4 152.11 77.27 150.7 76.17 149.25 75.11 147.82 74 146.21 73.19 144.62 72.35 142.92 71.75 141.25 71.07 140.94 69.36 142.34 68.06 143.7 66.72 144.87 65.21 145.73 63.5 146.41 61.73 146.9 59.89 147.23 58.02 147.35 56.12 147.05 54.37 146.85 52.6 146.22 50.93 145.49 49.31 144.55 47.8 143.36 46.48 142.19 45.13 140.73 44.12 139.31 43.04 137.69 42.3 136.03 41.65 134.28 41.31 132.5 41.3 130.7 41.11 128.93 41.48 127.17 41.85 125.53 42.58 123.94 43.4 122.38 44.3 121 45.45 119.73 46.73 118.62 48.17 117.73 49.74 117.11 51.44 116.62 53.17 116.35 54.95 116.25 56.74 116.36 58.56 116.53 60.39 117.25 62.09 117.79 63.85 118.72 65.45 119.88 66.88 121.24 68.11 122.66 69.25 122.32 71.18 120.56 71.63 118.91 72.33 117.29 73.14 115.78 74.13 114.28 75.1 112.85 76.19 111.44 77.3 110.03 78.43 108.86 79.8 107.66 81.13 106.57 82.57 105.35 83.79 104.45 85.28 103.94 86.94 103.4 88.58 103.14 90.3 103.12 92.03 102.86 93.75 103.01 95.55 103.03 97.35 102.84 99.16 103.06 100.96 102.97 102.76 102.91 104.56 102.92 106.37 102.96 108.17 102.85 109.97 102.95 111.77 102.99 113.57 102.99 115.37 102.99 117.17 102.87 118.97 102.84 120.78 103.06 122.58 102.86 124.38 102.82 126.18 102.97 127.98 102.84 129.79 102.91 131.59 102.96 133.4 102.97 135.2 102.82 137 102.95 138.81 103.01 140.62 102.94 142.42 102.98 144.23 102.94 146.03 102.91 147.84 103.05 149.64 102.85 151.45 103.05 153.26 102.85 155.06 102.86 156.87 103.05 158.69 102.91 160.5"/><path class="cls-2" d="M136.89,59.17a5.13,5.13,0,0,1-10.27,0"/><polyline class="cls-3" points="136.96 59.17 136.79 60.32 136.44 61.43 135.7 62.32 134.88 63.09 133.91 63.65 132.89 64.16 131.75 64.22 130.64 64.04 129.6 63.64 128.48 63.28 127.83 62.3 127.27 61.33 126.81 60.3 126.78 59.17"/><path class="cls-2" d="M194,49.48a5.13,5.13,0,1,1-10.27,0"/><polyline class="cls-3" points="193.9 49.48 193.94 50.64 193.52 51.73 192.94 52.74 192 53.42 191.12 54.18 189.99 54.45 188.86 54.58 187.71 54.5 186.67 54.02 185.69 53.46 184.84 52.68 184.26 51.7 183.82 50.63 183.71 49.48"/><polyline class="cls-2" points="189.14 22.44 188.97 21.22 189.15 19.99 189.25 18.77 188.88 17.55 189.31 16.33 189.25 15.1 189.14 13.87"/><polyline class="cls-3" points="189.14 22.44 188.97 21.22 189.15 19.99 189.25 18.77 188.88 17.55 189.31 16.33 189.25 15.1 189.14 13.87"/><polyline class="cls-2" points="178.58 24.41 177.59 23.59 176.68 22.7 175.66 21.9 174.95 20.79 173.95 19.97 172.96 19.13"/><polyline class="cls-3" points="178.58 24.41 177.59 23.59 176.68 22.7 175.66 21.9 174.95 20.79 173.95 19.97 172.96 19.13"/><polyline class="cls-2" points="199.49 24.5 200.4 23.69 201.14 22.7 202 21.84 203.03 21.14 203.88 20.25 204.74 19.38"/><polyline class="cls-3" points="199.49 24.5 200.4 23.69 201.14 22.7 202 21.84 203.03 21.14 203.88 20.25 204.74 19.38"/><polyline class="cls-2" points="132.03 34.03 131.87 32.81 132.04 31.59 132.15 30.36 131.77 29.14 132.21 27.92 132.14 26.69 132.04 25.47"/><polyline class="cls-3" points="132.03 34.03 131.87 32.81 132.04 31.59 132.15 30.36 131.77 29.14 132.21 27.92 132.14 26.69 132.04 25.47"/><polyline class="cls-2" points="121.48 36 120.49 35.18 119.57 34.29 118.56 33.49 117.85 32.38 116.84 31.56 115.86 30.73"/><polyline class="cls-3" points="121.48 36 120.49 35.18 119.57 34.29 118.56 33.49 117.85 32.38 116.84 31.56 115.86 30.73"/><polyline class="cls-2" points="142.38 36.09 143.29 35.28 144.03 34.3 144.89 33.43 145.93 32.73 146.78 31.84 147.64 30.97"/><polyline class="cls-3" points="142.38 36.09 143.29 35.28 144.03 34.3 144.89 33.43 145.93 32.73 146.78 31.84 147.64 30.97"/><polygon class="cls-2" points="166.52 169.55 168.34 169.44 170.16 169.53 171.98 169.52 173.79 169.44 175.61 169.46 177.43 169.46 179.24 169.42 181.06 169.45 182.88 169.5 184.7 169.43 186.52 169.51 188.34 169.41 190.16 169.52 191.98 169.47 193.8 169.46 195.62 169.51 197.45 169.48 199.27 169.46 201.09 169.43 202.91 169.38 204.74 169.42 206.56 169.38 208.38 169.38 210.2 169.53 212.02 169.41 213.85 169.44 215.67 169.4 217.5 169.45 219.32 169.42 221.16 169.49 222.99 169.51 224.78 169.16 226.49 168.54 227.98 167.46 229.06 165.98 229.77 164.29 229.92 162.47 229.9 160.9 229.99 159.31 229.95 157.73 230 156.15 229.94 154.35 229.77 152.56 229.58 150.77 229.25 149 228.94 147.22 228.54 145.47 228 143.75 227.46 142.03 226.8 140.35 226.02 138.72 225.13 137.15 224.25 135.58 223.38 134 222.25 132.6 221.24 131.09 220.05 129.74 218.85 128.4 217.56 127.13 216.23 125.91 214.82 124.79 213.36 123.73 211.87 122.72 210.3 121.83 208.75 120.93 207.15 120.11 205.53 119.32 203.84 118.7 202.17 118 201.25 117.04 201.81 115.83 203.16 114.59 204.52 113.38 205.7 111.98 206.78 110.5 207.65 108.9 208.44 107.26 209.09 105.55 209.5 103.78 209.79 101.98 209.96 100.16 209.96 98.34 209.84 96.59 209.38 94.91 208.93 93.23 208.28 91.61 207.67 89.97 206.66 88.54 205.73 87.06 204.5 85.82 203.28 84.58 201.96 83.43 200.42 82.59 198.91 81.73 197.36 80.92 195.67 80.46 194 79.97 192.26 79.74 190.49 79.61 188.72 79.6 186.96 79.83 185.23 80.23 183.52 80.69 181.92 81.45 180.35 82.24 178.77 83.05 177.39 84.16 176.1 85.37 174.84 86.61 173.72 87.98 172.86 89.53 171.92 91.03 171.24 92.67 170.8 94.39 170.44 96.11 170.2 97.86 170.09 99.62 170.13 101.5 170.42 103.36 170.86 105.18 171.5 106.95 172.31 108.64 173.14 110.33 174.27 111.83 175.43 113.31 176.83 114.57 178.25 115.81 178.84 117.05 177.92 118.13 176.21 118.71 174.48 119.27 172.85 120.06 171.22 120.85 169.68 121.8 168.12 122.7 166.64 123.75 165.25 124.9 163.83 126.02 162.47 127.21 161.24 128.53 160.04 129.88 158.9 131.27 157.76 132.68 156.69 134.13 155.8 135.71 154.8 137.22 154.01 138.84 153.24 140.48 152.57 142.16 152.05 143.89 151.46 145.59 150.97 147.41 150.47 149.22 150.19 151.07 149.93 152.93 149.82 154.81 149.85 156.69 149.68 158.57 149.79 160.38 149.74 162.2 149.82 164.01 149.82 165.83 149.74 167.65 149.74 169.48 151.61 169.53 153.47 169.55 155.33 169.54 157.19 169.47 159.06 169.45 160.92 169.43 162.78 169.43 164.65 169.43 166.52 169.55"/><polygon class="cls-3" points="166.52 169.55 168.34 169.44 170.16 169.53 171.98 169.52 173.79 169.44 175.61 169.46 177.43 169.46 179.24 169.42 181.06 169.45 182.88 169.5 184.7 169.43 186.52 169.51 188.34 169.41 190.16 169.52 191.98 169.47 193.8 169.46 195.62 169.51 197.45 169.48 199.27 169.46 201.09 169.43 202.91 169.38 204.74 169.42 206.56 169.38 208.38 169.38 210.2 169.53 212.02 169.41 213.85 169.44 215.67 169.4 217.5 169.45 219.32 169.42 221.16 169.49 222.99 169.51 224.78 169.16 226.49 168.54 227.98 167.46 229.06 165.98 229.77 164.29 229.92 162.47 229.9 160.9 229.99 159.31 229.95 157.73 230 156.15 229.94 154.35 229.77 152.56 229.58 150.77 229.25 149 228.94 147.22 228.54 145.47 228 143.75 227.46 142.03 226.8 140.35 226.02 138.72 225.13 137.15 224.25 135.58 223.38 134 222.25 132.6 221.24 131.09 220.05 129.74 218.85 128.4 217.56 127.13 216.23 125.91 214.82 124.79 213.36 123.73 211.87 122.72 210.3 121.83 208.75 120.93 207.15 120.11 205.53 119.32 203.84 118.7 202.17 118 201.25 117.04 201.81 115.83 203.16 114.59 204.52 113.38 205.7 111.98 206.78 110.5 207.65 108.9 208.44 107.26 209.09 105.55 209.5 103.78 209.79 101.98 209.96 100.16 209.96 98.34 209.84 96.59 209.38 94.91 208.93 93.23 208.28 91.61 207.67 89.97 206.66 88.54 205.73 87.06 204.5 85.82 203.28 84.58 201.96 83.43 200.42 82.59 198.91 81.73 197.36 80.92 195.67 80.46 194 79.97 192.26 79.74 190.49 79.61 188.72 79.6 186.96 79.83 185.23 80.23 183.52 80.69 181.92 81.45 180.35 82.24 178.77 83.05 177.39 84.16 176.1 85.37 174.84 86.61 173.72 87.98 172.86 89.53 171.92 91.03 171.24 92.67 170.8 94.39 170.44 96.11 170.2 97.86 170.09 99.62 170.13 101.5 170.42 103.36 170.86 105.18 171.5 106.95 172.31 108.64 173.14 110.33 174.27 111.83 175.43 113.31 176.83 114.57 178.25 115.81 178.84 117.05 177.92 118.13 176.21 118.71 174.48 119.27 172.85 120.06 171.22 120.85 169.68 121.8 168.12 122.7 166.64 123.75 165.25 124.9 163.83 126.02 162.47 127.21 161.24 128.53 160.04 129.88 158.9 131.27 157.76 132.68 156.69 134.13 155.8 135.71 154.8 137.22 154.01 138.84 153.24 140.48 152.57 142.16 152.05 143.89 151.46 145.59 150.97 147.41 150.47 149.22 150.19 151.07 149.93 152.93 149.82 154.81 149.85 156.69 149.68 158.57 149.79 160.38 149.74 162.2 149.82 164.01 149.82 165.83 149.74 167.65 149.74 169.48 151.61 169.53 153.47 169.55 155.33 169.54 157.19 169.47 159.06 169.45 160.92 169.43 162.78 169.43 164.65 169.43 166.52 169.55"/><path class="cls-2" d="M196.45,103.63a6.58,6.58,0,0,1-13.17,0"/><polyline class="cls-3" points="196.33 103.63 196.46 104.79 196.11 105.9 195.67 106.98 194.81 107.78 194.16 108.75 193.13 109.29 192.1 109.78 191.01 110.13 189.87 110.08 188.73 110.05 187.61 109.82 186.59 109.29 185.6 108.71 184.81 107.87 184.13 106.94 183.73 105.86 183.46 104.76 183.38 103.63"/><polygon class="cls-2" points="30.02 222.95 28.16 222.93 26.37 222.42 24.67 221.7 22.95 220.98 21.45 219.87 20.27 218.43 18.98 217.07 18.07 215.43 17.44 213.67 17.26 211.81 16.92 209.98 16.88 208.2 16.87 206.42 16.91 204.64 16.99 202.86 16.86 201.08 16.96 199.3 17.03 197.52 16.95 195.74 17.13 193.96 17.11 192.18 17.07 190.4 17.11 188.63 17.05 186.85 17.05 185.08 17.06 183.3 16.93 181.52 17.12 179.74 17.04 177.96 17 176.18 16.9 174.4 16.89 172.62 16.98 170.84 17.06 169.06 16.99 167.28 16.96 165.5 16.87 163.72 16.88 161.93 17.02 160.15 16.91 158.37 17 156.59 17.14 154.81 16.97 153.02 17.07 151.24 16.87 149.46 17.04 147.67 16.92 145.89 16.97 144.1 17.04 142.31 17.12 140.52 17.15 138.67 17.66 136.89 18.26 135.15 19 133.44 20.14 131.96 21.52 130.71 23 129.59 24.58 128.61 26.39 128.14 28.15 127.51 30.02 127.6 31.81 127.62 33.6 127.63 35.38 127.47 37.17 127.59 38.96 127.56 40.75 127.58 42.54 127.61 44.33 127.57 46.11 127.48 47.9 127.57 49.69 127.56 51.48 127.52 53.26 127.51 55.05 127.55 56.84 127.57 58.63 127.37 60.42 127.58 62.21 127.57 64 127.61 65.78 127.45 67.57 127.51 69.36 127.42 71.15 127.38 72.94 127.52 74.73 127.49 76.52 127.38 78.31 127.43 80.1 127.49 81.89 127.44 83.68 127.57 85.47 127.47 87.26 127.5 89.05 127.42 90.84 127.55 92.63 127.52 94.41 127.58 96.19 127.43 97.98 127.58 99.77 127.62 101.56 127.4 103.35 127.54 105.14 127.53 106.93 127.51 108.72 127.53 110.51 127.47 112.3 127.52 114.09 127.5 115.89 127.49 117.68 127.37 119.47 127.52 121.26 127.39 123.06 127.42 124.85 127.47 126.64 127.41 128.43 127.52 130.22 127.42 132.01 127.47 133.81 127.61 135.6 127.52 137.4 127.52 139.2 127.56 141 127.55 142.87 127.52 144.64 128.13 146.43 128.63 147.97 129.68 149.48 130.74 150.81 132.03 151.92 133.51 152.86 135.11 153.57 136.83 153.88 138.67 153.99 140.52 154 142.3 153.98 144.08 153.9 145.86 154.07 147.64 153.99 149.42 153.91 151.2 153.99 152.98 153.92 154.76 153.98 156.54 154 158.32 154.08 160.1 154.1 161.87 154.09 163.65 154.02 165.42 154.02 167.2 154.15 168.98 154.13 170.76 154 172.54 154.06 174.32 154.14 176.1 153.95 177.88 153.91 179.66 154.12 181.44 154.01 183.22 154.16 185 154.15 186.78 154.12 188.57 154.12 190.35 154.02 192.13 154.16 193.91 154.11 195.69 153.98 197.48 153.97 199.26 154.13 201.04 154.11 202.83 153.93 204.61 154.09 206.4 154.01 208.19 154.03 209.98 153.91 211.83 153.51 213.65 152.94 215.43 151.86 216.95 150.8 218.47 149.56 219.85 148.05 220.94 146.47 221.94 144.64 222.37 142.86 222.93 141 223.03 139.22 222.99 137.43 222.9 135.64 222.89 133.85 223.07 132.06 223.12 130.28 222.98 128.49 222.99 126.7 222.92 124.91 223.12 123.13 222.92 121.34 222.9 119.55 223.09 117.76 222.89 115.97 223.04 114.18 223.05 112.39 223.1 110.61 223.11 108.82 223.05 107.03 222.88 105.24 222.98 103.45 222.96 101.66 222.87 99.87 222.91 98.08 223.01 96.3 223 94.51 223.06 92.72 223.08 90.93 222.99 89.14 222.89 87.35 222.93 85.56 222.97 83.77 223.07 81.98 223.13 80.19 223.03 78.4 222.86 76.62 222.87 74.83 223.09 73.04 223.03 71.25 222.96 69.46 223.06 67.67 222.98 65.89 223.02 64.1 223.07 62.3 223.09 60.51 223.07 58.72 222.96 56.93 223.06 55.14 222.88 53.35 222.94 51.56 222.87 49.76 223.13 47.97 222.94 46.18 222.98 44.39 223.08 42.59 223.11 40.8 222.99 39.01 222.92 37.22 223.06 35.42 222.97 33.62 222.99 31.82 223.1 30.02 222.95"/><polygon class="cls-2" points="141 219.9 139.22 219.94 137.43 220.06 135.64 220.09 133.85 219.87 132.06 220.01 130.28 220.13 128.49 219.97 126.7 219.93 124.91 219.87 123.13 220.12 121.34 220.08 119.55 220.02 117.76 219.92 115.97 220.03 114.18 219.95 112.39 219.94 110.61 220.12 108.82 219.88 107.03 220.12 105.24 220.12 103.45 220.07 101.66 219.96 99.87 220.03 98.08 220.07 96.3 219.87 94.51 219.96 92.72 219.96 90.93 220.04 89.14 220.07 87.35 219.93 85.56 220.06 83.77 220.11 81.98 220.07 80.19 219.87 78.4 219.93 76.62 219.97 74.83 220.12 73.04 219.94 71.25 219.93 69.46 219.91 67.67 219.88 65.89 220.09 64.1 220 62.3 219.92 60.51 220.08 58.72 220.08 56.93 219.88 55.14 220.06 53.35 220.09 51.56 220.03 49.76 220.06 47.97 220.12 46.18 220.05 44.39 220.08 42.59 220.13 40.8 219.91 39.01 219.97 37.22 220.06 35.42 220.1 33.62 220.04 31.82 220.06 30.02 219.98 28.27 219.95 26.63 219.31 25.05 218.59 23.64 217.59 22.37 216.4 21.44 214.93 20.66 213.38 20.16 211.72 20 209.98 20.01 208.2 20.05 206.42 20.05 204.64 20.04 202.86 20.04 201.08 19.95 199.3 20.03 197.52 20.12 195.74 19.91 193.96 19.9 192.18 19.89 190.4 19.92 188.63 20.1 186.85 19.96 185.08 19.91 183.3 20.08 181.52 20.03 179.74 20.08 177.96 19.98 176.18 20.08 174.4 20.1 172.62 19.94 170.84 19.87 169.06 19.89 167.28 20.01 165.5 20.13 163.72 19.96 161.93 19.94 160.15 20.01 158.37 19.9 156.59 20.07 154.81 19.98 153.02 20.01 151.24 19.98 149.46 19.87 147.67 20.07 145.89 19.91 144.1 19.93 142.31 19.89 140.52 20.2 138.79 20.7 137.13 21.44 135.56 22.39 134.12 23.52 132.78 24.97 131.77 26.64 131.22 28.29 130.71 30.02 130.58 31.81 130.6 33.6 130.56 35.38 130.4 37.17 130.38 38.96 130.58 40.75 130.38 42.54 130.6 44.33 130.41 46.11 130.63 47.9 130.39 49.69 130.49 51.47 130.59 53.26 130.4 55.05 130.57 56.84 130.51 58.63 130.4 60.42 130.61 62.21 130.46 64 130.55 65.78 130.47 67.57 130.56 69.36 130.47 71.15 130.58 72.94 130.41 74.73 130.57 76.52 130.4 78.31 130.48 80.1 130.63 81.89 130.57 83.68 130.37 85.47 130.38 87.26 130.4 89.05 130.54 90.84 130.46 92.62 130.52 94.41 130.54 96.19 130.62 97.98 130.52 99.77 130.59 101.56 130.44 103.35 130.56 105.14 130.39 106.93 130.48 108.72 130.58 110.51 130.48 112.3 130.56 114.09 130.61 115.89 130.4 117.68 130.5 119.47 130.41 121.26 130.56 123.06 130.51 124.85 130.57 126.64 130.48 128.43 130.61 130.22 130.43 132.01 130.5 133.81 130.4 135.6 130.52 137.4 130.6 139.2 130.47 141 130.49 142.76 130.53 144.41 131.17 146.02 131.84 147.47 132.81 148.68 134.08 149.62 135.55 150.46 137.08 150.98 138.76 151.05 140.52 151.06 142.3 150.93 144.08 150.99 145.86 150.95 147.64 151.11 149.42 151.05 151.2 151.13 152.98 150.96 154.76 151.16 156.54 150.98 158.32 151.03 160.1 151.07 161.87 150.97 163.65 150.94 165.42 151.13 167.2 151.06 168.98 150.95 170.76 151.02 172.54 150.9 174.32 150.9 176.1 150.99 177.88 151.15 179.66 150.99 181.44 151.04 183.22 150.94 185 151.02 186.78 151.14 188.57 150.94 190.35 151.09 192.13 151.15 193.91 151.15 195.69 150.9 197.48 151.1 199.26 151.13 201.04 151.09 202.83 151.02 204.61 151.05 206.4 151.15 208.19 151.1 209.98 150.82 211.71 150.49 213.43 149.72 215.01 148.69 216.43 147.49 217.71 145.97 218.58 144.43 219.39 142.74 219.86 141 219.9"/><polygon class="cls-2" points="69.82 151.99 71.21 153.09 72.53 154.26 73.9 155.38 75.3 156.45 76.71 157.53 78.12 158.59 79.5 159.7 80.83 160.87 82.31 161.85 83.67 162.98 85.01 164.13 86.39 165.24 87.81 166.3 89.17 167.42 90.58 168.5 92 169.56 93.35 170.71 94.76 171.79 96.14 172.91 97.16 174.38 97.2 176.14 96.11 177.56 94.79 178.74 93.41 179.84 91.97 180.87 90.64 182.03 89.27 183.15 87.88 184.24 86.39 185.21 85.04 186.35 83.61 187.4 82.33 188.63 80.86 189.61 79.5 190.75 78.08 191.8 76.71 192.92 75.36 194.08 74 195.2 72.59 196.28 71.19 197.38 69.8 198.48 68.17 199.3 66.36 199.36 64.61 198.93 63.14 197.85 62.69 196.12 62.54 194.3 62.55 192.49 62.69 190.68 62.67 188.87 62.55 187.06 62.55 185.25 62.7 183.43 62.53 181.62 62.57 179.81 62.61 177.99 62.7 176.18 62.62 174.37 62.63 172.55 62.71 170.73 62.54 168.92 62.63 167.11 62.6 165.29 62.71 163.48 62.7 161.66 62.69 159.85 62.6 158.03 62.63 156.21 62.67 154.38 63.23 152.71 64.59 151.51 66.36 151.13 68.17 151.22 69.82 151.99"/><polygon class="cls-3" points="78.66 156.77 80.05 157.88 81.44 158.98 82.81 160.12 84.15 161.28 85.62 162.3 86.97 163.44 88.34 164.57 89.71 165.71 91.17 166.72 92.56 167.83 93.96 168.94 95.31 170.1 96.74 171.16 98.16 172.25 99.48 173.44 100.57 175.25 99.48 177.05 98.12 178.2 96.77 179.34 95.35 180.42 93.93 181.49 92.57 182.63 91.17 183.72 89.8 184.84 88.41 185.96 87.01 187.06 85.6 188.14 84.16 189.19 82.86 190.41 81.42 191.46 79.99 192.54 78.58 193.63 76.98 194.43 75.16 194.37 73.59 193.45 72.87 191.81 72.99 189.97 72.96 188.13 72.99 186.3 72.98 184.46 73 182.62 72.86 180.78 72.94 178.94 72.95 177.1 72.89 175.26 72.89 173.43 72.96 171.59 72.92 169.75 72.92 167.91 72.91 166.07 72.89 164.23 72.99 162.39 72.91 160.54 73 158.69 73.62 157.07 75.19 156.25 76.96 156.19 78.66 156.77"/><polygon class="cls-3" points="144.13 219.98 142.33 219.91 140.53 219.87 138.73 219.97 136.93 219.89 135.13 220.09 133.33 219.89 131.53 220.01 129.72 219.87 127.92 220 126.12 220.04 124.32 219.98 122.52 219.96 120.72 220.06 118.92 220.09 117.11 220.01 115.31 219.88 113.51 220.08 111.71 220.06 109.9 220.03 108.1 219.89 106.3 219.93 104.5 220.02 102.69 220.01 100.89 220.01 99.09 219.93 97.28 220.01 95.48 219.9 93.68 220.04 91.88 219.96 90.07 220.09 88.27 220.1 86.47 220.08 84.66 219.92 82.86 220.01 81.06 220.11 79.25 219.93 77.45 220.07 75.65 220.13 73.85 220.03 72.05 219.96 70.25 220.03 68.44 220.01 66.64 220.02 64.84 220.06 63.03 219.93 61.23 220.09 59.43 219.96 57.62 219.97 55.82 220.04 54.01 220.07 52.21 220.07 50.4 220.11 48.59 219.89 46.79 220.04 44.98 220.07 43.17 219.9 41.37 219.87 39.56 219.88 37.76 219.91 35.95 220.06 34.14 219.91 32.34 219.89 30.52 220.06 28.71 219.97 26.9 219.94 25.14 219.65 23.46 219.05 22.01 217.99 20.92 216.56 20.25 214.89 20.12 213.1 20.06 211.3 20.08 209.5 19.89 207.7 20.11 205.9 19.93 204.1 20.01 202.3 19.92 200.5 19.9 198.69 19.89 196.89 20.06 195.09 19.94 193.29 20.12 191.49 20.06 189.69 19.98 187.89 19.99 186.09 19.95 184.29 20 182.5 20.02 180.7 20.07 178.9 19.98 177.09 20.03 175.29 19.88 173.49 19.95 171.69 19.88 169.89 20.06 168.09 19.92 166.28 19.96 164.48 19.89 162.68 19.99 160.87 19.94 159.07 19.91 157.26 20.04 155.46 19.98 153.66 19.96 151.85 19.94 150.05 19.89 148.25 20.04 146.44 20.07 144.63 19.98 142.83 19.99 141.02 20 139.21 20.04 137.4 20.19 135.6 20.92 133.95 21.97 132.47 23.4 131.34 25.09 130.66 26.9 130.37 28.7 130.42 30.49 130.47 32.29 130.49 34.09 130.45 35.89 130.59 37.7 130.47 39.5 130.59 41.3 130.44 43.1 130.61 44.91 130.45 46.71 130.54 48.51 130.5 50.31 130.4 52.11 130.61 53.91 130.4 55.71 130.55 57.52 130.43 59.32 130.38 61.12 130.43 62.92 130.41 64.73 130.47 66.53 130.53 68.33 130.51 70.13 130.59 71.94 130.49 73.74 130.6 75.54 130.49 77.35 130.37 79.15 130.61 80.95 130.6 82.76 130.53 84.56 130.47 86.36 130.41 88.17 130.55 89.97 130.57 91.78 130.44 93.58 130.46 95.38 130.4 97.18 130.5 98.98 130.54 100.78 130.6 102.58 130.5 104.39 130.62 106.19 130.43 107.99 130.53 109.79 130.55 111.6 130.41 113.4 130.62 115.21 130.39 117.01 130.48 118.82 130.4 120.62 130.53 122.43 130.43 124.24 130.45 126.04 130.62 127.85 130.44 129.65 130.55 131.46 130.54 133.27 130.57 135.07 130.6 136.88 130.58 138.69 130.46 140.5 130.44 142.31 130.44 144.13 130.63 145.94 130.66 147.59 131.4 149.01 132.51 150.16 133.92 150.83 135.6 150.91 137.4 151.05 139.2 151.01 141 150.94 142.8 151.05 144.6 150.96 146.4 150.9 148.2 150.92 150 150.96 151.81 151.13 153.61 151.12 155.41 151.04 157.21 151.08 159.01 151.12 160.81 150.95 162.61 150.92 164.41 151.01 166.21 151.04 168 151.03 169.8 150.98 171.6 151.02 173.41 150.96 175.21 150.91 177.01 151.06 178.81 151.06 180.61 151.14 182.41 151.02 184.22 151.12 186.02 151.08 187.82 151.12 189.63 150.99 191.43 151.11 193.24 151.05 195.04 151 196.84 151.06 198.65 150.97 200.45 151.08 202.25 150.95 204.06 151.13 205.87 150.97 207.67 150.92 209.48 151.05 211.29 151.14 213.1 150.78 214.89 150.17 216.59 148.98 217.95 147.57 219.07 145.91 219.76 144.13 219.98"/></g></svg>
