<svg id="Layer_1" data-name="Layer 1" xmlns="http://www.w3.org/2000/svg" viewBox="0 0 400 288"><defs><style>.cls-1{fill:#f37f82;}.cls-2{fill:#3e82f7;}.cls-3{fill:#a5c9ff;}.cls-4{fill:#87b8ff;}.cls-5,.cls-6,.cls-9{fill:none;stroke-miterlimit:10;}.cls-5{stroke:#e2dfd6;stroke-width:3px;}.cls-6{stroke:#fab42d;}.cls-6,.cls-9{stroke-width:2px;}.cls-7{fill:#2dd6a5;}.cls-8{fill:#e2dfd6;}.cls-9{stroke:#f37f82;}</style></defs><title>illustration-engage-message</title><path class="cls-1" d="M191.32,53.93a5.23,5.23,0,1,1,.26,1.68A5.44,5.44,0,0,1,191.32,53.93Z"/><polygon class="cls-2" points="191.17 193.54 189.7 193.56 188.23 193.53 186.76 193.5 185.29 193.51 183.82 193.57 182.36 193.5 180.89 193.58 179.41 193.52 177.95 193.56 176.48 193.5 175.01 193.49 173.54 193.6 172.07 193.57 170.6 193.49 169.14 193.5 167.67 193.59 166.2 193.5 164.73 193.58 163.26 193.59 161.79 193.53 160.33 193.48 158.86 193.59 157.39 193.58 155.92 193.56 154.45 193.48 152.98 193.53 151.51 193.6 150.04 193.5 148.57 193.53 147.1 193.52 145.63 193.57 144.16 193.5 142.68 193.53 141.21 193.59 139.74 193.49 138.27 193.54 136.79 193.54 135.32 193.49 133.85 193.54 132.38 193.57 130.91 193.59 129.43 193.51 127.96 193.5 126.48 193.48 125.01 193.53 123.53 193.48 122.02 193.52 122.03 195.04 122.07 196.54 122.03 198.05 122.04 199.55 122.03 201.06 122.03 202.56 121.99 204.07 122 205.57 122.07 207.09 122.08 208.57 123.52 208.65 124.99 208.65 126.45 208.57 127.92 208.58 129.39 208.53 130.86 208.54 132.33 208.62 133.8 208.63 135.27 208.56 136.74 208.61 138.21 208.57 139.68 208.65 141.15 208.63 142.61 208.53 144.08 208.61 145.54 208.56 147.01 208.57 148.49 208.56 149.96 208.59 151.42 208.56 152.89 208.62 154.36 208.58 155.82 208.63 157.29 208.66 158.77 208.65 160.24 208.63 161.71 208.55 163.18 208.61 164.65 208.55 166.12 208.59 167.59 208.53 169.06 208.54 170.53 208.64 172 208.61 173.48 208.63 174.95 208.62 176.42 208.58 177.89 208.66 179.36 208.6 180.84 208.55 182.31 208.64 183.78 208.61 185.26 208.65 186.73 208.6 188.21 208.58 189.69 208.59 191.19 208.62 191.23 207.1 191.15 205.6 191.21 204.09 191.15 202.59 191.11 201.08 191.23 199.58 191.15 198.07 191.11 196.56 191.17 195.05 191.17 193.54"/><polygon class="cls-3" points="311.04 133.78 309.64 133.63 308.18 133.59 306.72 133.83 305.25 133.73 303.8 133.65 302.34 133.69 300.88 133.82 299.42 133.8 297.96 133.74 296.5 133.63 295.04 133.67 293.58 133.77 292.13 133.73 290.67 133.6 289.21 133.56 287.75 133.59 286.29 133.65 284.83 133.61 283.37 133.68 281.91 133.81 280.45 133.66 278.99 133.81 277.52 133.86 276.06 133.7 274.59 133.63 273.13 133.84 271.67 133.85 270.2 133.73 268.74 133.66 267.28 133.65 265.82 133.81 264.36 133.77 262.9 133.74 261.44 133.76 259.98 133.77 258.51 133.88 257.05 133.88 255.59 133.61 254.13 133.57 252.67 133.71 251.2 133.71 249.74 133.57 248.27 133.64 246.81 133.81 245.34 133.85 243.88 133.87 242.42 133.76 240.96 133.57 239.49 133.73 238.03 133.76 236.57 133.75 235.11 133.81 233.64 133.74 232.18 133.87 230.72 133.57 229.25 133.78 227.78 133.84 226.32 133.61 224.86 133.58 223.39 133.67 221.93 133.59 220.47 133.56 219 133.6 217.54 133.8 216.07 133.68 214.61 133.73 213.14 133.59 211.68 133.66 210.21 133.67 208.75 133.79 207.28 133.67 205.82 133.74 204.35 133.66 202.88 133.65 201.42 133.84 199.96 133.71 198.49 133.76 197.02 133.56 195.56 133.77 194.1 133.78 192.64 133.84 191.17 133.81 189.71 133.87 188.24 133.81 186.78 133.58 185.31 133.86 183.85 133.6 182.39 133.85 180.92 133.86 179.46 133.82 177.99 133.63 176.52 133.63 175.06 133.86 173.59 133.72 172.13 133.62 170.66 133.84 169.19 133.82 167.72 133.65 166.26 133.88 164.79 133.61 163.32 133.81 161.85 133.74 160.38 133.69 158.92 133.67 157.45 133.66 155.98 133.87 154.51 133.84 153.04 133.67 151.57 133.69 150.1 133.88 148.63 133.83 147.15 133.55 145.77 133.81 145.6 135.19 145.62 136.66 145.77 138.12 145.54 139.59 145.75 141.05 145.59 142.52 145.51 143.99 145.74 145.46 145.67 146.93 145.76 148.39 145.74 149.86 145.72 151.33 145.61 152.8 145.71 154.27 145.54 155.74 145.52 157.21 145.75 158.68 145.62 160.15 145.8 161.62 145.58 163.09 145.57 164.56 145.74 166.03 145.58 167.5 145.79 168.97 145.62 170.44 145.6 171.92 145.8 173.39 145.64 174.86 145.65 176.34 145.75 177.81 145.57 179.4 147.14 179.37 148.6 179.41 150.06 179.18 151.52 179.34 152.98 179.38 154.44 179.4 155.9 179.4 157.36 179.14 158.82 179.31 160.28 179.39 161.74 179.38 163.19 179.16 164.65 179.22 166.11 179.16 167.57 179.21 169.03 179.3 170.49 179.4 171.95 179.41 173.41 179.33 174.87 179.34 176.33 179.43 177.79 179.16 179.26 179.31 180.72 179.22 182.19 179.42 183.65 179.39 185.11 179.37 186.57 179.15 188.04 179.37 189.5 179.21 190.96 179.24 192.42 179.43 193.88 179.22 195.34 179.15 196.8 179.44 198.26 179.18 199.72 179.21 201.19 179.4 202.65 179.24 204.11 179.16 205.57 179.29 207.04 179.31 208.5 179.26 209.97 179.23 211.43 179.4 212.9 179.21 214.36 179.15 215.82 179.32 217.28 179.3 218.75 179.39 220.21 179.19 221.67 179.37 223.13 179.33 224.6 179.45 226.06 179.23 227.53 179.26 228.99 179.29 230.46 179.23 231.92 179.32 233.39 179.38 234.85 179.34 236.31 179.34 237.78 179.21 239.24 179.29 240.71 179.16 242.17 179.29 243.64 179.25 245.1 179.4 246.57 179.32 248.03 179.32 249.5 179.43 250.96 179.4 252.43 179.37 253.89 179.44 255.36 179.13 256.82 179.28 258.29 179.28 259.75 179.41 261.22 179.43 262.68 179.33 264.14 179.39 265.6 179.45 267.07 179.3 268.54 179.17 270 179.23 271.46 179.22 272.93 179.36 274.39 179.19 275.85 179.33 277.32 179.32 278.79 179.26 280.25 179.43 281.72 179.32 283.18 179.28 284.65 179.18 286.12 179.18 287.59 179.25 289.05 179.41 290.52 179.27 291.99 179.13 293.46 179.28 294.93 179.3 296.4 179.23 297.86 179.38 299.33 179.43 300.8 179.36 302.26 179.17 303.74 179.26 305.21 179.19 306.68 179.35 308.15 179.13 309.62 179.13 311.08 179.28 311.24 177.83 311.1 176.36 311.22 174.89 311.26 173.42 311.26 171.96 311 170.49 311.16 169.03 311.21 167.56 311.17 166.09 310.99 164.62 311.1 163.15 311.01 161.68 311.12 160.21 311.05 158.74 310.99 157.27 311.04 155.8 311.09 154.33 311.19 152.86 311.1 151.39 310.97 149.92 310.95 148.45 311.13 146.98 311.04 145.51 311.14 144.04 310.99 142.57 311.26 141.09 311.04 139.62 311.06 138.15 311.13 136.67 311.19 135.19 311.04 133.78"/><polygon class="cls-4" points="295.89 81.75 294.35 81.98 292.88 81.69 291.41 81.75 289.94 81.91 288.47 81.66 287 81.81 285.52 81.64 284.05 81.77 282.57 81.7 281.1 81.72 279.63 81.72 278.16 81.9 276.69 81.74 275.21 81.8 273.74 81.89 272.27 81.92 270.8 81.77 269.33 81.79 267.86 81.82 266.39 81.67 264.93 81.87 263.46 81.92 261.99 81.94 260.52 81.79 259.05 81.86 257.58 81.73 256.11 81.76 254.64 81.75 253.17 81.71 251.69 81.96 250.22 81.91 248.75 81.83 247.28 81.91 245.8 81.85 244.32 81.81 242.85 81.94 241.38 81.99 239.9 81.91 238.43 81.67 236.96 81.87 235.48 81.99 234.01 81.83 232.54 81.74 231.07 81.82 229.6 81.76 228.13 81.84 226.65 81.76 225.18 81.97 223.71 81.74 222.24 81.68 220.76 81.88 219.29 81.69 217.81 81.95 216.33 81.65 214.86 81.76 213.38 81.82 211.91 81.79 210.44 81.75 208.96 81.75 207.49 81.72 206.02 81.67 204.54 81.84 203.07 81.67 201.6 81.68 200.12 81.87 198.64 81.98 197.17 81.95 195.69 81.95 194.22 81.79 192.74 81.89 191.27 81.82 189.79 81.85 188.32 81.9 186.84 81.67 185.37 81.82 183.89 81.8 182.41 81.72 180.94 81.81 179.46 81.81 177.99 81.9 176.51 81.68 175.04 81.65 173.56 81.75 172.08 81.69 170.61 81.68 169.13 81.69 167.66 81.99 166.18 81.68 164.7 81.73 163.23 81.69 161.76 81.64 160.28 81.88 158.81 81.65 157.33 81.93 155.85 81.69 154.38 81.75 152.91 81.94 151.43 81.99 149.96 81.93 148.48 81.66 147 81.64 145.53 81.81 144.05 81.93 142.57 81.91 141.09 81.77 139.62 81.75 138.14 81.71 136.66 81.89 135.18 81.78 133.7 81.92 132.22 81.94 130.74 81.71 129.26 81.92 127.79 81.88 126.31 81.64 124.83 81.74 123.35 81.93 121.87 81.77 120.39 81.93 118.91 81.64 117.42 81.72 115.94 81.82 114.48 81.84 114.35 83.28 114.59 84.75 114.58 86.22 114.52 87.68 114.59 89.15 114.61 90.61 114.27 92.08 114.36 93.55 114.51 95.02 114.3 96.49 114.44 97.96 114.51 99.42 114.31 100.89 114.34 102.36 114.42 103.83 114.38 105.3 114.39 106.78 114.62 108.25 114.38 109.72 114.34 111.19 114.56 112.66 114.44 114.13 114.37 115.59 114.61 117.07 114.56 118.54 114.36 120.01 114.32 121.48 114.27 122.96 114.41 124.43 114.53 125.91 114.57 127.27 115.92 127.29 117.39 127.44 118.86 127.52 120.33 127.22 121.8 127.41 123.28 127.24 124.75 127.3 126.22 127.56 127.7 127.37 129.17 127.3 130.65 127.28 132.12 127.53 133.59 127.33 135.06 127.56 136.53 127.32 138 127.51 139.47 127.49 140.94 127.47 142.41 127.22 143.88 127.25 145.35 127.48 146.82 127.44 148.29 127.34 149.76 127.34 151.23 127.28 152.7 127.33 154.17 127.41 155.64 127.56 157.11 127.31 158.58 127.3 160.05 127.43 161.53 127.36 163 127.33 164.47 127.39 165.95 127.49 167.43 127.31 168.9 127.49 170.37 127.21 171.85 127.43 173.32 127.29 174.79 127.31 176.26 127.46 177.73 127.53 179.21 127.53 180.68 127.38 182.15 127.47 183.62 127.32 185.09 127.56 186.57 127.23 188.04 127.44 189.51 127.54 190.99 127.34 192.47 127.25 193.94 127.53 195.42 127.56 196.89 127.47 198.36 127.28 199.84 127.26 201.31 127.48 202.78 127.28 204.26 127.53 205.73 127.53 207.2 127.5 208.68 127.5 210.15 127.57 211.63 127.24 213.11 127.48 214.58 127.3 216.06 127.26 217.53 127.55 219.01 127.47 220.48 127.37 221.96 127.5 223.43 127.47 224.91 127.31 226.38 127.46 227.86 127.22 229.34 127.56 230.81 127.47 232.29 127.51 233.76 127.23 235.24 127.43 236.72 127.24 238.19 127.28 239.67 127.24 241.14 127.29 242.62 127.31 244.1 127.44 245.57 127.31 247.04 127.48 248.52 127.49 249.99 127.45 251.47 127.42 252.94 127.26 254.42 127.44 255.89 127.5 257.37 127.54 258.84 127.25 260.32 127.52 261.79 127.27 263.27 127.51 264.75 127.4 266.22 127.55 267.7 127.45 269.18 127.56 270.66 127.4 272.13 127.52 273.61 127.34 275.09 127.33 276.57 127.25 278.05 127.26 279.53 127.46 281.01 127.48 282.49 127.57 283.96 127.29 285.44 127.3 286.92 127.5 288.4 127.45 289.89 127.56 291.37 127.32 292.85 127.28 294.34 127.36 295.75 127.31 295.76 125.92 295.67 124.45 295.73 122.98 295.85 121.52 295.73 120.05 295.75 118.59 295.83 117.12 295.78 115.65 295.65 114.18 295.97 112.71 296 111.25 295.74 109.78 295.73 108.31 295.73 106.84 295.79 105.37 295.78 103.9 295.92 102.43 295.84 100.96 295.7 99.48 295.99 98.01 295.68 96.54 295.85 95.07 295.72 93.61 295.75 92.13 295.99 90.66 295.76 89.19 295.89 87.72 295.8 86.24 295.74 84.77 295.69 83.29 295.89 81.75"/><path class="cls-5" d="M12.12,257.25h1.47c.73,0,.73-.41,1.47-.41s.73.25,1.47.25.73.06,1.47.06.73-.3,1.47-.3.73.24,1.47.24.73-.33,1.47-.33.73.53,1.47.53.73-.66,1.47-.66.73.67,1.47.67.73-.52,1.47-.52.73-.15,1.47-.15.73.43,1.47.43.73-.32,1.47-.32.73,0,1.47,0,.73.14,1.47.14H37c.73,0,.73-.07,1.47-.07l1.47,0c.73,0,.73-.2,1.47-.2s.73.05,1.47.05.73.29,1.47.29h1.47c.73,0,.73-.24,1.47-.24s.73.39,1.47.39.73.09,1.47.09.73,0,1.47,0,.73-.38,1.47-.38.73,0,1.47,0,.73.11,1.47.11.73-.07,1.47-.07.73-.14,1.47-.14.73.5,1.47.5.73-.33,1.47-.33.73-.07,1.47-.07h1.47c.73,0,.73.16,1.47.16s.73.12,1.47.12.73-.37,1.47-.37.73.07,1.47.07.73.28,1.47.28.73.13,1.47.13H75.2c.73,0,.73-.22,1.47-.22s.73,0,1.47,0,.73-.14,1.47-.14.73.21,1.47.21.73-.43,1.47-.43.73.48,1.47.48.73,0,1.47,0,.73-.1,1.47-.1.73-.43,1.47-.43l1.47,0c.73,0,.73.53,1.47.53s.73.05,1.47.05.73,0,1.47,0,.73-.48,1.47-.48.73-.07,1.47-.07.73,0,1.47,0,.73.39,1.47.39.73-.11,1.47-.11.73-.13,1.47-.13h1.47c.73,0,.73.12,1.47.12s.73.2,1.47.2.73-.42,1.47-.42.73.34,1.47.34.73-.16,1.47-.16.73-.19,1.47-.19.73.48,1.47.48.73-.61,1.47-.61.73-.07,1.47-.07h1.47c.73,0,.73.53,1.47.53s.73.09,1.47.09.73-.34,1.47-.34.73.27,1.47.27.73-.54,1.47-.54.73.45,1.47.45.73-.14,1.47-.14H131c.73,0,.73-.27,1.47-.27s.73.4,1.47.4.73-.34,1.47-.34.73.3,1.47.3.73-.3,1.47-.3l1.47,0c.73,0,.73-.08,1.47-.08s.73.29,1.47.29.73.15,1.47.15.73-.32,1.47-.32.73.15,1.47.15.74.33,1.47.33.73-.44,1.47-.44.73-.2,1.47-.2.73.1,1.47.1.73,0,1.47,0h1.47c.73,0,.73.48,1.47.48s.73-.48,1.47-.48.73.3,1.47.3.73-.28,1.47-.28.73.21,1.47.21.73-.34,1.47-.34.73.32,1.47.32.73-.34,1.47-.34.73.54,1.47.54.73-.4,1.47-.4.73.39,1.47.39.73-.52,1.47-.52.73.42,1.47.42.73-.34,1.47-.34.73.52,1.47.52.73-.24,1.47-.24.73-.33,1.47-.33.74.38,1.47.38.74-.12,1.47-.12.73-.08,1.47-.08.73.29,1.47.29.73.12,1.47.12.73-.38,1.47-.38.73,0,1.47,0,.73.33,1.47.33.73-.59,1.47-.59.73.06,1.47.06.73.2,1.47.2.73.37,1.47.37.73-.4,1.47-.4h1.47c.73,0,.73.22,1.47.22s.73-.19,1.47-.19.73-.27,1.47-.27.73.1,1.47.1l1.47,0c.74,0,.74.15,1.47.15s.73.35,1.47.35.73-.15,1.47-.15.73-.21,1.47-.21.73.37,1.47.37.73-.2,1.47-.2.73.06,1.47.06.73-.44,1.47-.44.73.32,1.47.32.73-.08,1.47-.08l1.47,0c.73,0,.73.24,1.47.24s.73,0,1.47,0,.73-.07,1.47-.07.73-.35,1.47-.35.73.49,1.47.49.73-.47,1.47-.47.73,0,1.47,0,.73,0,1.47,0,.73.45,1.47.45.73-.59,1.47-.59.73.25,1.47.25.73.44,1.47.44H244c.73,0,.73-.43,1.47-.43s.74,0,1.47,0,.74-.26,1.47-.26.74.43,1.47.43.74-.27,1.47-.27.73.57,1.47.57.73-.39,1.47-.39.73,0,1.47,0,.73-.08,1.47-.08.73.27,1.47.27.73-.14,1.47-.14.73.35,1.47.35.73-.19,1.47-.19.73-.18,1.47-.18.73.15,1.47.15.73.15,1.47.15.73,0,1.47,0,.73-.53,1.47-.53.74-.12,1.47-.12.74.61,1.47.61.74-.4,1.47-.4.74.27,1.47.27.74.21,1.47.21.74-.69,1.47-.69.73.5,1.47.5.73-.45,1.47-.45.73.07,1.47.07.73.13,1.47.13.73-.07,1.47-.07.73.44,1.47.44.73-.35,1.47-.35.74.22,1.47.22.74.1,1.47.1.74-.3,1.47-.3.74.17,1.47.17.74.12,1.47.12.74-.12,1.47-.12h1.47c.74,0,.74-.33,1.47-.33s.74.45,1.47.45.74,0,1.47,0,.74,0,1.47,0,.74-.12,1.47-.12.74.14,1.47.14.74-.46,1.47-.46l1.47,0c.74,0,.74.52,1.47.52s.74-.41,1.47-.41.74,0,1.47,0,.74.15,1.47.15.74-.25,1.47-.25.74.42,1.47.42.74-.44,1.47-.44.74.52,1.47.52.74-.28,1.47-.28.74.24,1.47.24.74-.15,1.47-.15.73-.13,1.47-.13.73.25,1.47.25.73.11,1.47.11.74-.49,1.47-.49.74,0,1.47,0l1.47,0c.74,0,.74,0,1.47,0h1.47c.73,0,.73.36,1.47.36s.74-.31,1.47-.31.74.33,1.47.33.74-.37,1.47-.37.74.5,1.47.5.74-.62,1.47-.62.74.27,1.47.27.74-.28,1.47-.28.74.08,1.47.08.74-.11,1.47-.11.74.24,1.47.24.74,0,1.48,0,.74.14,1.47.14.74,0,1.48,0,.74,0,1.48,0,.74.2,1.48.2.74-.47,1.47-.47.74.46,1.47.46.74,0,1.48,0,.74-.2,1.47-.2.74-.11,1.48-.11.74-.3,1.48-.3.74.66,1.48.66.74-.2,1.48-.2.74-.22,1.48-.22.74,0,1.48,0"/><path class="cls-6" d="M135.15,213.74c-.59.72-.9.28-1.77.61s-.85.39-1.72.72-.89.29-1.76.62-.89.29-1.76.61l-1.75.65-1.75.65-1.75.64c-.87.33-.86.36-1.73.69s-.85.37-1.73.7-.9.26-1.77.58l-1.75.64-1.75.66-1.75.64c-.87.33-.86.35-1.74.68s-.85.4-1.72.73-.89.3-1.77.62-.84.82-1.77.66-.74-.59-1.46-1.18-.7-.62-1.42-1.21-.68-.65-1.4-1.24L99.7,220c-.72-.59-.75-.55-1.47-1.15s-.76-.55-1.48-1.14-.71-.61-1.43-1.2-.7-.62-1.42-1.21l-1.43-1.19L91,213c-.72-.59-.74-.56-1.46-1.16s-.69-.63-1.41-1.23-.75-.56-1.47-1.15-.66-.66-1.38-1.25-.79-.51-1.51-1.11-.71-.61-1.43-1.21-1.12-.34-1.45-1.21.23-.92.39-1.84.08-.93.24-1.85.18-.92.34-1.83.18-.91.34-1.83.13-.92.29-1.84.21-.91.36-1.83,0-.94.2-1.86.16-.92.31-1.84.26-.9.42-1.82.09-.93.25-1.85.2-.91.36-1.83.12-.93.28-1.85.16-.92.32-1.84.18-.92.33-1.84.15-.92.3-1.85.16-.92.32-1.85-.37-1.16.22-1.89.9-.32,1.77-.65l1.75-.64c.87-.33.86-.36,1.73-.69s.91-.23,1.78-.56.86-.37,1.73-.7l1.74-.66c.87-.33.87-.35,1.74-.67s.89-.29,1.76-.62l1.74-.66,1.74-.67c.87-.33.9-.26,1.77-.58s.84-.42,1.71-.75.92-.21,1.79-.54.85-.39,1.72-.72.9-.27,1.77-.6.86-.38,1.74-.7.84-.87,1.76-.71.69.67,1.41,1.26.71.61,1.42,1.2l1.44,1.18c.72.59.74.57,1.46,1.16l1.44,1.19c.72.59.69.63,1.41,1.22s.75.56,1.47,1.16.71.6,1.42,1.2l1.44,1.18c.72.59.7.62,1.42,1.21s.74.57,1.46,1.16l1.45,1.18c.72.59.74.57,1.46,1.16s.74.56,1.46,1.16.66.67,1.38,1.27.75.56,1.48,1.15,1.16.3,1.49,1.18-.25.93-.41,1.85-.1.93-.25,1.85l-.31,1.84c-.15.92-.12.92-.27,1.84s-.22.91-.37,1.83-.18.91-.34,1.83l-.31,1.84c-.15.92-.09.93-.24,1.85l-.31,1.83c-.15.92-.23.91-.38,1.83s0,.94-.2,1.86-.18.92-.34,1.84-.2.91-.35,1.83-.13.92-.29,1.84-.15.92-.3,1.85a7.7,7.7,0,0,0-.27,1.85C135.5,212.86,135.74,213,135.15,213.74Z"/><polygon class="cls-7" points="106.38 129.82 105.94 131.56 105.34 133.26 104.52 134.86 103.51 136.34 102.34 137.71 101 138.91 99.52 139.92 97.94 140.79 96.27 141.46 94.53 141.89 92.74 142.1 90.94 142.14 89.16 141.91 87.41 141.46 85.73 140.83 84.14 139.98 82.64 138.97 81.33 137.74 80.12 136.4 79.13 134.9 78.31 133.3 77.64 131.63 77.22 129.88 77.01 128.09 77.01 126.29 77.22 124.5 77.65 122.76 78.24 121.06 79.09 119.48 80.09 117.99 81.24 116.61 82.58 115.4 84.06 114.38 85.64 113.52 87.32 112.88 89.06 112.46 90.84 112.19 92.64 112.2 94.42 112.43 96.17 112.88 97.86 113.49 99.44 114.35 100.93 115.37 102.28 116.56 103.46 117.92 104.47 119.41 105.31 121.01 105.91 122.7 106.36 124.44 106.56 126.23 106.6 128.03 106.38 129.82"/><polygon class="cls-8" points="366.13 201.05 364.66 201.03 363.19 201.06 361.73 200.9 360.26 200.88 358.79 200.86 357.32 200.89 355.85 200.89 354.38 201.04 352.91 200.87 351.44 200.88 349.97 201.06 348.5 200.87 347.03 201.03 345.56 200.98 344.09 200.99 342.62 200.93 341.16 200.82 339.69 200.88 338.22 200.91 336.75 200.91 335.28 200.85 333.81 200.88 332.34 201.04 330.86 200.9 329.39 200.88 327.92 200.94 326.45 201.06 324.98 200.89 323.51 200.83 322.04 200.79 320.57 200.88 319.1 200.93 317.63 200.9 316.16 200.89 314.69 201.04 313.22 200.89 311.75 201.01 310.27 200.93 308.8 200.92 307.33 200.94 305.86 201.01 304.39 200.85 302.92 200.82 301.44 200.79 299.97 201.02 298.5 200.89 297.03 201.04 295.57 201.01 294.1 200.94 292.63 200.91 291.15 200.86 289.68 201.03 288.21 201.05 286.74 200.91 285.27 200.93 283.8 201.03 282.33 200.81 280.86 201.01 279.38 200.93 277.91 200.92 276.44 200.91 274.97 201.03 273.49 201.01 272.02 200.96 270.55 201.04 269.07 200.88 267.6 200.78 266.12 200.85 264.65 201.02 263.17 200.96 261.7 200.9 260.23 200.85 258.75 201.04 257.28 200.95 255.8 200.99 254.32 200.97 252.85 200.99 251.37 200.8 249.89 200.95 248.41 200.92 246.99 200.71 245.58 200.53 244.21 200.12 242.88 199.58 241.65 198.84 240.53 197.95 239.6 196.85 238.52 195.88 238 194.51 237.42 193.22 236.91 191.88 236.67 190.48 236.4 189.05 236.62 187.57 236.43 186.09 236.5 184.61 236.58 183.13 236.61 181.65 236.41 180.16 236.5 178.68 236.49 177.2 236.44 175.72 236.4 174.24 236.64 172.76 236.41 171.28 236.44 169.8 236.5 168.32 236.41 166.84 236.44 165.36 236.64 163.88 236.47 162.4 236.45 160.92 236.5 159.44 236.46 157.96 236.6 156.48 236.58 155 236.48 153.51 236.54 152.03 236.66 150.55 236.59 149.07 236.62 147.59 236.44 146.1 236.68 144.62 236.62 143.13 236.43 141.65 236.5 140.17 236.53 138.68 236.5 137.2 236.45 135.71 236.56 134.23 236.54 132.75 236.52 131.26 236.64 129.78 236.45 128.29 236.67 126.8 236.64 125.32 236.56 123.83 236.54 122.34 236.41 120.84 236.53 119.4 236.97 118.02 237.32 116.64 237.96 115.36 238.59 114.07 239.53 112.98 240.5 111.92 241.6 110.98 242.91 110.36 244.19 109.72 245.55 109.26 246.97 109.04 248.41 109.07 249.87 108.94 251.34 108.92 252.81 109.02 254.28 108.9 255.74 108.85 257.21 109.01 258.68 108.96 260.15 108.95 261.62 108.96 263.09 109.04 264.56 108.92 266.03 109.04 267.5 108.89 268.97 108.92 270.44 109.05 271.91 109.11 273.38 108.83 274.85 109.09 276.32 109.03 277.79 108.98 279.26 109.04 280.73 108.98 282.2 108.85 283.67 109.1 285.14 108.86 286.61 109.11 288.08 108.96 289.55 109.09 291.02 109.09 292.49 109.08 293.96 108.89 295.43 108.93 296.9 108.96 298.38 109.09 299.85 108.93 301.32 108.88 302.79 108.95 304.26 109.08 305.73 108.91 307.2 109.07 308.68 108.83 310.15 109.05 311.62 109.08 313.09 109.02 314.56 108.85 316.04 109.05 317.5 109.06 318.97 109.04 320.44 108.96 321.91 109.07 323.38 108.92 324.85 109 326.32 109.01 327.79 109.06 329.26 108.97 330.73 109.01 332.2 108.99 333.68 108.93 335.15 108.85 336.62 109.06 338.09 108.9 339.57 109.04 341.04 108.88 342.51 108.92 343.99 109.01 345.46 108.92 346.94 108.92 348.41 108.96 349.88 108.88 351.36 109.08 352.83 108.9 354.3 108.9 355.78 108.92 357.25 108.91 358.73 108.91 360.21 108.94 361.69 109.01 363.16 108.93 364.64 108.99 366.13 109.06 367.54 109.19 368.96 109.36 370.34 109.73 371.64 110.34 372.86 111.09 373.92 112.05 375.03 112.96 375.79 114.17 376.69 115.3 377.26 116.62 377.58 118.02 377.95 119.41 378.07 120.84 377.89 122.33 378.03 123.81 378.12 125.29 378.06 126.77 377.87 128.25 378 129.73 377.96 131.21 378 132.69 377.89 134.18 377.9 135.66 378.06 137.14 377.97 138.62 377.95 140.1 378.09 141.57 377.93 143.05 378.04 144.53 378.07 146.02 377.97 147.5 378.09 148.98 378.02 150.46 377.92 151.94 378.04 153.42 378.04 154.9 378.14 156.38 377.92 157.87 378.03 159.35 377.92 160.83 378 162.31 378.11 163.8 378.13 165.28 378.06 166.76 377.86 168.25 377.91 169.73 377.87 171.22 378.09 172.7 377.93 174.19 378.09 175.67 378.04 177.15 378.13 178.64 378.13 180.12 377.98 181.61 377.98 183.09 378.14 184.58 378.13 186.07 377.99 187.56 377.89 189.05 377.95 190.49 377.77 191.92 377.31 193.29 376.62 194.56 375.78 195.72 375.01 196.93 374 197.94 372.83 198.76 371.63 199.53 370.32 200.1 368.94 200.48 367.55 200.73 366.13 201.05"/><polyline class="cls-9" points="228.31 109.23 229.65 109.86 230.88 110.65 232.09 111.46 233.15 112.51 234.42 113.23 235.66 114 236.84 114.88 238 115.76 239.26 116.51 240.48 117.31 241.75 118.04 242.85 119.01 244.04 119.85 245.25 120.65 246.46 121.47 247.8 122.09 248.91 123.06 250.17 123.8 251.34 124.67 252.66 125.34 253.72 126.37 254.99 127.11 256.2 127.92 257.35 128.83 258.57 129.64 259.84 130.37 261.01 131.24 262.21 132.08 263.5 132.78 264.65 133.69 265.92 134.43 267.07 135.35 268.31 136.12 269.49 137 270.8 137.67 271.93 138.62 273.14 139.43 274.39 140.2 275.55 141.1 276.83 141.82 277.99 142.71 279.32 143.37 280.46 144.31 281.75 145.01 282.86 145.99 284.19 146.64 285.37 147.53 286.6 148.34 287.78 149.22 289.15 149.75 290.44 150.47 291.86 150.84 293.24 151.34 294.68 151.62 296.14 151.74 297.61 151.85 299.08 151.94 300.52 151.58 301.98 151.46 303.36 150.94 304.8 150.65 306.17 150.11 307.42 149.34 308.71 148.65 309.96 147.87 311.24 147.16 312.48 146.37 313.68 145.52 314.89 144.71 316.13 143.92 317.4 143.18 318.55 142.27 319.78 141.47 321.04 140.72 322.24 139.88 323.58 139.26 324.75 138.37 326.07 137.72 327.21 136.79 328.48 136.06 329.65 135.18 330.89 134.41 332.1 133.58 333.41 132.91 334.56 131.97 335.83 131.24 337.07 130.47 338.26 129.61 339.51 128.84 340.76 128.09 341.98 127.26 343.2 126.44 344.52 125.78 345.8 125.07 346.9 124.07 348.25 123.45 349.46 122.61 350.72 121.87 351.95 121.06 353.15 120.21 354.38 119.4 355.63 118.63 356.89 117.89 358.11 117.06 359.37 116.31 360.58 115.48 361.74 114.57 363.12 113.99 364.31 113.12 365.58 112.37 366.85 111.63 368.07 110.8 369.25 109.91 370.51 109.14"/><polygon class="cls-9" points="357.8 192.5 356.33 192.47 354.86 192.66 353.4 192.63 351.93 192.59 350.46 192.62 348.99 192.47 347.52 192.59 346.06 192.5 344.58 192.67 343.11 192.64 341.64 192.55 340.17 192.64 338.7 192.5 337.23 192.6 335.76 192.7 334.3 192.61 332.83 192.64 331.36 192.52 329.89 192.45 328.42 192.47 326.95 192.63 325.48 192.66 324.01 192.46 322.54 192.54 321.06 192.48 319.59 192.69 318.12 192.65 316.65 192.49 315.18 192.46 313.71 192.45 312.24 192.52 310.77 192.53 309.3 192.72 307.83 192.73 306.36 192.66 304.89 192.47 303.42 192.61 301.94 192.58 300.47 192.58 299 192.53 297.53 192.69 296.06 192.63 294.59 192.55 293.12 192.59 291.64 192.67 290.17 192.73 288.7 192.47 287.24 192.45 285.77 192.58 284.3 192.6 282.82 192.65 281.35 192.55 279.88 192.47 278.41 192.58 276.94 192.5 275.47 192.54 274 192.7 272.53 192.64 271.06 192.69 269.58 192.73 268.11 192.66 266.64 192.69 265.17 192.57 263.69 192.57 262.22 192.5 260.74 192.68 259.27 192.48 257.8 192.46 256.32 192.53 254.84 192.67 253.37 192.57 251.9 192.58 250.42 192.47 248.95 192.53 247.47 192.5 246 192.71 244.52 192.52 243.04 192.72 241.56 192.48 240.08 192.7 238.64 192.56 237.22 192.29 235.84 191.89 234.62 191.11 233.41 190.37 232.14 189.67 231.25 188.53 230.35 187.43 229.56 186.23 228.85 184.97 228.42 183.59 228.35 182.14 228.11 180.71 228.26 179.23 228.1 177.75 228.32 176.27 228.25 174.79 228.21 173.31 228.31 171.83 228.16 170.35 228.12 168.86 228.11 167.38 228.21 165.9 228.2 164.42 228.2 162.94 228.29 161.46 228.18 159.99 228.29 158.51 228.26 157.03 228.29 155.54 228.21 154.06 228.18 152.58 228.28 151.1 228.1 149.62 228.19 148.14 228.23 146.66 228.33 145.18 228.13 143.69 228.25 142.21 228.22 140.73 228.1 139.25 228.12 137.76 228.28 136.28 228.13 134.8 228.07 133.31 228.12 131.83 228.11 130.34 228.21 128.86 228.18 127.37 228.3 125.89 228.3 124.41 228.23 122.92 228.28 121.44 228.13 119.95 228.33 118.47 228.1 116.98 228.1 115.49 228.1 114 228.3 112.51 228.26 111.07 228.5 109.65 228.89 108.26 229.67 107.05 230.41 105.83 231.18 104.63 232.26 103.68 233.38 102.8 234.62 102.1 235.83 101.3 237.22 100.92 238.66 100.81 240.08 100.62 241.54 100.65 243.01 100.74 244.48 100.59 245.95 100.66 247.41 100.5 248.88 100.73 250.35 100.56 251.82 100.65 253.29 100.61 254.76 100.53 256.23 100.73 257.7 100.55 259.17 100.54 260.64 100.75 262.11 100.55 263.58 100.56 265.05 100.68 266.52 100.58 267.99 100.69 269.46 100.58 270.93 100.73 272.4 100.65 273.87 100.5 275.34 100.76 276.81 100.62 278.28 100.57 279.75 100.58 281.22 100.61 282.69 100.72 284.16 100.66 285.63 100.63 287.1 100.76 288.58 100.73 290.05 100.56 291.52 100.5 292.99 100.7 294.46 100.6 295.93 100.58 297.4 100.66 298.87 100.64 300.35 100.6 301.82 100.61 303.29 100.5 304.76 100.6 306.23 100.58 307.7 100.53 309.17 100.59 310.64 100.53 312.11 100.6 313.58 100.77 315.05 100.74 316.52 100.75 317.99 100.6 319.46 100.5 320.93 100.61 322.4 100.52 323.87 100.57 325.35 100.69 326.82 100.57 328.29 100.54 329.76 100.59 331.24 100.76 332.71 100.66 334.18 100.74 335.66 100.63 337.13 100.64 338.61 100.57 340.08 100.61 341.56 100.56 343.03 100.5 344.5 100.54 345.98 100.56 347.45 100.66 348.93 100.72 350.4 100.7 351.88 100.57 353.36 100.74 354.83 100.65 356.32 100.53 357.8 100.56 359.25 100.58 360.61 101.1 362.01 101.39 363.33 101.97 364.61 102.64 365.72 103.57 366.7 104.62 367.58 105.76 368.22 107.04 368.98 108.27 369.4 109.65 369.67 111.07 369.54 112.51 369.59 113.99 369.6 115.47 369.67 116.95 369.68 118.43 369.53 119.91 369.59 121.39 369.74 122.88 369.62 124.36 369.57 125.84 369.63 127.32 369.56 128.8 369.6 130.28 369.65 131.76 369.63 133.24 369.6 134.72 369.63 136.2 369.7 137.68 369.8 139.16 369.65 140.64 369.6 142.12 369.78 143.6 369.61 145.08 369.58 146.56 369.78 148.05 369.7 149.53 369.8 151.01 369.7 152.49 369.61 153.97 369.78 155.46 369.57 156.94 369.7 158.42 369.56 159.91 369.77 161.39 369.73 162.88 369.71 164.36 369.76 165.85 369.77 167.33 369.68 168.81 369.61 170.3 369.57 171.78 369.71 173.27 369.7 174.76 369.8 176.24 369.8 177.73 369.8 179.22 369.65 180.71 369.54 182.14 369.37 183.57 368.92 184.93 368.37 186.26 367.62 187.5 366.73 188.63 365.68 189.61 364.6 190.57 363.25 191.11 362.01 191.81 360.65 192.28 359.24 192.63 357.8 192.5"/></svg>
