<svg id="illustrations" xmlns="http://www.w3.org/2000/svg" viewBox="0 0 400 288"><defs><style>.cls-1{fill:#f37f82;}.cls-2{fill:#2dd6a5;}.cls-10,.cls-3,.cls-8,.cls-9{fill:none;stroke-miterlimit:10;}.cls-3{stroke:#fab42d;}.cls-10,.cls-3{stroke-width:2px;}.cls-4{fill:#cc6d74;}.cls-5{fill:#fbc357;}.cls-6{fill:#e5ac51;}.cls-7{fill:#e2dfd6;}.cls-8{stroke:#2dd6a5;stroke-linecap:round;stroke-width:0.5px;}.cls-9{stroke:#e2dfd6;stroke-width:3px;}.cls-10{stroke:#3e82f7;}.cls-11{fill:#cccac2;}.cls-12{fill:#3e82f7;}.cls-13{font-size:21px;fill:#fab42d;font-family:Martel-Bold, Martel;font-weight:700;}</style></defs><title>illustration-custom-donor</title><polygon class="cls-1" points="266.42 97.82 264.71 97.62 263.01 97.42 261.3 97.25 259.59 97.17 257.88 96.93 256.17 96.86 254.46 96.69 252.75 96.45 251.07 96.26 250.35 94.73 249.67 93.16 248.86 91.65 248.23 90.05 247.48 88.51 246.74 86.96 246.03 85.39 245.37 83.81 244.61 82.23 245.62 80.83 246.61 79.42 247.6 78.03 248.63 76.66 249.61 75.25 250.62 73.86 251.59 72.44 252.61 71.06 253.63 69.65 255.34 69.81 257.05 70.01 258.75 70.18 260.45 70.37 262.17 70.51 263.87 70.72 265.58 70.89 267.29 71.03 269.03 71.15 269.77 72.71 270.45 74.28 271.19 75.83 271.83 77.42 272.55 78.98 273.31 80.52 273.94 82.12 274.68 83.67 275.42 85.24 274.44 86.66 273.38 88.01 272.43 89.44 271.38 90.79 270.42 92.21 269.36 93.57 268.44 95.02 267.39 96.38 266.42 97.82"/><polygon class="cls-2" points="252.08 161.6 250.39 162.17 248.7 162.71 247.05 163.36 245.36 163.91 243.65 164.39 242 165.04 240.3 165.55 238.62 166.14 236.92 166.66 235.24 167.24 233.58 167.86 231.87 168.35 230.19 168.92 228.53 169.55 226.82 170.04 225.16 170.67 223.44 171.14 221.77 171.75 220.06 172.23 218.4 172.88 216.7 173.43 215.08 174.04 215.07 175.75 214.93 177.53 214.94 179.3 215.06 181.07 215.06 182.85 215.02 184.62 215.13 186.4 215.09 188.17 215.18 189.94 215.25 191.72 215.08 193.5 215.21 195.28 215.18 197.05 215.25 198.82 215.14 200.6 215.11 202.38 215.2 204.15 215.33 205.93 215.31 207.71 215.26 209.49 215.17 211.27 215.31 213.04 217 213.55 218.66 214.15 220.34 214.72 222.06 215.2 223.72 215.82 225.44 216.25 227.13 216.81 228.82 217.35 230.51 217.9 232.21 218.41 233.91 218.92 235.6 219.47 237.28 220.04 238.99 220.51 240.66 221.12 242.38 221.56 244.06 222.16 245.73 222.78 247.43 223.29 249.14 223.81 250.86 224.28 252.53 224.81 253.57 223.4 254.57 221.94 255.65 220.53 256.62 219.04 257.74 217.66 258.75 216.21 259.74 214.73 260.8 213.31 261.82 211.86 262.88 210.43 263.87 208.95 264.86 207.48 266.03 206.14 267 204.66 267.96 203.15 269.05 201.75 270.08 200.3 271.09 198.84 272.15 197.41 273.17 195.95 274.25 194.53 275.24 193.07 274.21 191.65 273.2 190.2 272.15 188.77 271.06 187.37 270.04 185.92 268.92 184.54 267.91 183.08 266.89 181.62 265.81 180.22 264.68 178.85 263.66 177.38 262.71 175.88 261.54 174.54 260.51 173.1 259.5 171.63 258.4 170.24 257.3 168.84 256.3 167.37 255.31 165.89 254.2 164.49 253.11 163.08 252.08 161.6"/><polygon class="cls-3" points="107.8 203.18 106.51 204.44 105.22 205.68 103.99 206.97 102.88 208.38 101.54 209.57 100.45 210.99 99.21 212.28 97.88 213.48 96.6 214.72 95.4 216.04 94.13 217.3 93.05 218.74 91.69 219.9 90.53 221.27 89.34 222.61 88.1 223.89 86.78 225.12 85.58 226.51 83.8 226.07 82.06 225.68 80.33 225.26 78.61 224.76 76.86 224.39 75.14 223.94 73.39 223.58 71.66 223.12 69.93 222.68 68.2 222.27 66.47 221.79 64.74 221.35 63.02 220.88 61.27 220.52 59.56 220 57.82 219.56 56.06 219.21 54.26 218.87 53.69 217.14 53.24 215.42 52.69 213.72 52.33 211.96 51.81 210.26 51.2 208.57 50.87 206.81 50.31 205.11 49.74 203.42 49.21 201.72 48.84 199.97 48.23 198.29 47.86 196.53 47.27 194.84 46.9 193.09 46.2 191.43 45.84 189.67 45.35 187.98 46.49 186.66 47.81 185.46 48.97 184.09 50.12 182.72 51.51 181.58 52.59 180.14 53.97 178.99 55.1 177.61 56.28 176.27 57.67 175.13 58.83 173.76 60.01 172.43 61.25 171.14 62.53 169.89 63.71 168.54 65.07 167.37 66.17 165.93 67.47 164.66 69.23 165.07 70.94 165.58 72.7 165.86 74.4 166.44 76.17 166.7 77.91 167.14 79.62 167.65 81.35 168.1 83.08 168.52 84.85 168.81 86.58 169.25 88.28 169.79 90.02 170.2 91.77 170.58 93.47 171.14 95.25 171.42 96.96 171.95 98.8 172.22 99.11 174.06 99.81 175.71 100.11 177.48 100.62 179.19 101.24 180.87 101.69 182.6 102.27 184.29 102.69 186.03 103.3 187.71 103.79 189.42 104.22 191.16 104.83 192.84 105.27 194.57 105.66 196.32 106.15 198.03 106.63 199.76 107.34 201.42 107.8 203.18"/><path class="cls-4" d="M179,179.77c.86.2.17.67.64,1.71.2.45.43,1,.73,1.61s.59,1,.88,1.54.38,1.09.68,1.64.65,1,1,1.49.52,1,.83,1.56.71.92,1,1.44.51,1.05.84,1.56.56,1,.9,1.53.84.84,1.18,1.33.69.94,1,1.42.65,1,1,1.45.55,1.06.92,1.53.94.75,1.32,1.21.72.92,1.11,1.38.68,1,1.08,1.4.85.82,1.25,1.26l1.2,1.3c.4.42.78.88,1.2,1.3s.69,1,1.11,1.39,1,.64,1.44,1.05.81.86,1.25,1.26.83.83,1.28,1.22,1,.64,1.46,1,.93.72,1.39,1.09.77.93,1.24,1.29.93.72,1.41,1.07,1.06.54,1.54.89.86.82,1.36,1.15,1,.55,1.55.87.94.71,1.45,1,1.11.43,1.63.73.94.73,1.46,1,1.08.48,1.6.76,1.07.5,1.6.76,1,.6,1.55.85,1,.56,1.58.81,1.1.43,1.64.66,1.14.31,1.7.52,1.1.42,1.65.63,1.05.55,1.61.74,1.11.39,1.68.58,1.1.44,1.67.61,1.15.27,1.72.43,1.17.16,1.75.31,1.13.35,1.7.49,1.1.46,1.68.59,1.21,0,1.79.1,1.19.24,1.78.34a5.73,5.73,0,0,1,.66,1.67,7.69,7.69,0,0,1,.37,1.68,11.7,11.7,0,0,1,.31,1.73c0,.57-.13,1.15-.21,1.75s-.28,1.13-.39,1.71-.11,1.17-.25,1.74-.24,1.16-.41,1.71-.56,1.06-.75,1.6-.27,1.17-.47,1.7-.36,1.16-.57,1.66-.7,1.06-.9,1.52c-.44,1,.16,1.23-.55,1.73s-.68.07-1.81.1c-.49,0-1.08-.14-1.75-.15s-1.12.18-1.75.16-1.12-.31-1.73-.35-1.15.15-1.76.1-1.13-.19-1.73-.26-1.14-.07-1.74-.15-1.13-.18-1.72-.26-1.15-.09-1.74-.19-1.1-.39-1.68-.5-1.17,0-1.75-.16-1.12-.31-1.69-.45-1.08-.45-1.65-.6-1.19,0-1.76-.2-1-.55-1.61-.73-1.09-.4-1.64-.59-1.13-.27-1.68-.47-1.14-.27-1.69-.48-1-.56-1.57-.79-1-.5-1.58-.74-1.1-.39-1.63-.64-1-.53-1.56-.79-1.1-.4-1.62-.68-1-.68-1.46-1-.94-.68-1.45-1-1.1-.43-1.59-.74-.93-.7-1.42-1-1-.65-1.44-1-.89-.75-1.36-1.1-.91-.72-1.37-1.08-1-.56-1.49-.94-.88-.76-1.32-1.15-.72-.93-1.16-1.33-.89-.75-1.31-1.15-.77-.87-1.19-1.29-.89-.76-1.29-1.19-.84-.81-1.23-1.25-.77-.87-1.15-1.32-.72-.92-1.08-1.36-.85-.82-1.19-1.27-.62-1-1-1.46-.66-1-1-1.44-.73-.92-1-1.4-.6-1-.89-1.5-.53-1-.81-1.54-.57-1-.82-1.53-.59-1-.83-1.54-.46-1.08-.67-1.61-.25-1.16-.43-1.69-.41-1.09-.57-1.64-.46-1.09-.59-1.64-.18-1.16-.28-1.72-.15-1.16-.22-1.72-.26-1.15-.3-1.72.13-1.18.13-1.75,0-1.17.08-1.73-.1-1.19,0-1.75.44-1.11.55-1.67.24-1.13.39-1.68,0-1.2.22-1.74.63-1,.84-1.54.44-1.08.68-1.59.39-1.12.66-1.61.67-1,1-1.44.54-1.06.86-1.51.64-1,1-1.44.85-.91,1.18-1.27C178.5,180.2,178.21,179.57,179,179.77Z"/><path class="cls-1" d="M119.75,157.14c-.87-.16-.47.18-1.36.94-.37.32-.72.8-1.22,1.28s-.94.64-1.39,1.11-.59,1-1,1.47-.94.7-1.34,1.18-.81.83-1.19,1.32-.59,1-1,1.5-.49,1.07-.84,1.57-.66.95-1,1.46-.77.89-1.09,1.4-.6,1-.91,1.52-.58,1-.89,1.53-.79.9-1.08,1.42-.29,1.17-.58,1.7-.5,1.06-.77,1.59-.82.89-1.09,1.43-.53,1-.79,1.59-.6,1-.85,1.56-.18,1.21-.43,1.75-.57,1-.81,1.58-.32,1.14-.55,1.69-.48,1.07-.71,1.62-.76,1-1,1.52-.1,1.22-.31,1.78-.73,1-.94,1.54-.32,1.14-.52,1.7-.47,1.08-.67,1.65,0,1.24-.2,1.81-.77,1-1,1.55-.29,1.15-.47,1.72-.32,1.14-.5,1.71-.28,1.15-.45,1.72-.49,1.09-.65,1.66-.32,1.14-.48,1.71-.17,1.19-.32,1.76-.22,1.17-.37,1.74-.25,1.16-.39,1.73-.36,1.14-.49,1.71-.26,1.16-.39,1.74-.22,1.17-.34,1.75-.41,1.13-.53,1.71-.26,1.16-.38,1.74-.33,1.15-.44,1.73.09,1.23,0,1.81-.22,1.17-.32,1.75-.17,1.18-.27,1.76-.32,1.15-.41,1.74-.14,1.18-.23,1.76-.19,1.17-.27,1.76-.2,1.17-.28,1.76-.08,1.19-.15,1.77-.43,1.15-.49,1.73-.1,1.19-.16,1.77-.15,1.18-.21,1.76,0,1.2-.06,1.78.17,1.21.12,1.79-.07,1.19-.12,1.77-.11,1.19-.15,1.77-.19,1.18-.23,1.76-.21,1.18-.25,1.77.24,1.21.21,1.79-.34,1.18-.36,1.76-.13,1.19-.15,1.77.34,1.21.33,1.78-.29,1.19-.3,1.77-.11,1.2-.11,1.77,0,1.21,0,1.77.21,1.21.22,1.77-.05,1.22,0,1.77.19,1.23.21,1.76c0,.68-.21,1.29-.19,1.78.06,1.15-.53,1.25.31,1.53a3.41,3.41,0,0,0,1.68.25c.88,0,.88,0,1.75,0s.88-.16,1.75-.16h1.75c.88,0,.88.27,1.75.27s.88-.26,1.75-.26.88.2,1.75.2.88,0,1.75,0,.88-.19,1.75-.19.88.2,1.75.2.88,0,1.75,0,.88.12,1.75.12.88-.27,1.75-.27l1.75,0c.88,0,.88.2,1.75.2s.88-.08,1.75-.08.88.29,1.75.29.88-.31,1.75-.31.88-.12,1.75-.12l1.75,0c.88,0,.88.33,1.76.33s.88-.35,1.75-.35.88.26,1.75.26.88.15,1.75.15.88-.24,1.75-.24.88-.21,1.75-.21.88.21,1.75.21.88-.06,1.76-.06.88.16,1.76.16.88.1,1.75.1.88-.19,1.75-.19.88,0,1.75,0,.88-.24,1.75-.24.88.44,1.76.44.88-.05,1.76-.05.88,0,1.75,0h1.75c.88,0,.88-.24,1.76-.24s.88.26,1.76.26.88-.22,1.75-.22.88-.08,1.75-.08.88-.11,1.75-.11.88.35,1.75.35.88.07,1.75.07.88-.08,1.76-.08.88-.2,1.76-.2.88,0,1.75,0,.88-.09,1.75-.09.88,0,1.75,0,.88-.06,1.76-.06.88.16,1.76.16.88.13,1.76.13.88.11,1.76.11.88-.13,1.76-.13.88.12,1.76.12.88-.06,1.76-.06.88-.08,1.76-.08.88,0,1.76,0,.88.05,1.76.05.88-.22,1.75-.22.88.31,1.76.31.88-.11,1.76-.11.88.2,1.76.2.88-.26,1.76-.26.88.05,1.76.05.88-.26,1.76-.26.88.25,1.77.25,1,.35,1.79.05.11-.7,0-1.82c-.06-.48-.48-1-.56-1.69s-.16-1.1-.24-1.73,0-1.14-.06-1.75-.16-1.12-.25-1.73,0-1.14-.11-1.74-.46-1.09-.54-1.68.26-1.2.17-1.78-.23-1.13-.32-1.71-.52-1.08-.62-1.67.13-1.19,0-1.77-.52-1.08-.62-1.66.22-1.21.12-1.79-.46-1.09-.56-1.67-.33-1.11-.43-1.69,0-1.18-.07-1.76-.44-1.1-.55-1.67,0-1.18-.09-1.76-.35-1.11-.46-1.69-.12-1.16-.23-1.73-.05-1.17-.17-1.74-.34-1.11-.46-1.68-.56-1.06-.68-1.64-.27-1.13-.39-1.7-.06-1.17-.19-1.74-.23-1.14-.36-1.7-.07-1.17-.2-1.74-.19-1.15-.33-1.71-.5-1.07-.64-1.64-.43-1.09-.57-1.66-.09-1.17-.23-1.74-.49-1.07-.64-1.64-.07-1.18-.22-1.75-.5-1.07-.65-1.63-.26-1.13-.41-1.7-.09-1.18-.25-1.74-.6-1-.76-1.6,0-1.21-.16-1.77-.68-1-.85-1.57,0-1.22-.18-1.77-.61-1-.78-1.59-.37-1.11-.55-1.66-.34-1.12-.52-1.67-.46-1.08-.65-1.63-.1-1.2-.29-1.75-.61-1-.81-1.57,0-1.23-.23-1.78-.46-1.08-.66-1.62-.77-1-1-1.5-.12-1.21-.33-1.75-.68-1-.9-1.52-.31-1.14-.54-1.67-.45-1.08-.68-1.61-.4-1.1-.64-1.63-.73-.95-1-1.47-.44-1.08-.69-1.61-.51-1.05-.77-1.57-.39-1.11-.65-1.63-.5-1.06-.77-1.57-.76-.91-1-1.42-.64-1-.94-1.47-.46-1.08-.76-1.58-.43-1.11-.74-1.6-.92-.8-1.24-1.28-.71-.92-1-1.4-.35-1.19-.69-1.65-.87-.81-1.23-1.26-.85-.82-1.21-1.26-.56-1.06-.94-1.49-1-.71-1.35-1.13-.55-1.1-1-1.5-1-.63-1.44-1-.82-1-1.26-1.38c-.55.21-1.1.73-1.66.93s-1.23.05-1.79.23-1.06.56-1.63.73-1.15.26-1.72.42-1.16.25-1.73.39-1.11.46-1.68.59-1.18.18-1.75.29-1.17.18-1.75.28-1.18.16-1.75.25-1.18.15-1.76.23-1.17.29-1.74.36-1.19.22-1.75.28-1.19.2-1.75.25l-1.77.14c-.64,0-1.22.18-1.76.21s-1.27,0-1.77,0a3,3,0,0,1-1.75-.21c-.79-.26-.71-.43-1.47-.78s-.85-.16-1.61-.51-.66-.55-1.42-.9-.8-.26-1.56-.61-.82-.23-1.58-.58-.78-.32-1.54-.67-.82-.23-1.58-.59-.73-.42-1.49-.79S120.58,157.3,119.75,157.14Z"/><path class="cls-5" d="M135.77,117.45c-.45.76,0,.91-.16,1.78s-.09.87-.21,1.74-.17.86-.29,1.73-.1.87-.22,1.74-.15.87-.27,1.74,0,.88-.15,1.75-.14.87-.25,1.74-.19.86-.31,1.73-.14.87-.26,1.74-.12.87-.24,1.74-.11.87-.22,1.74-.06.88-.18,1.75-.22.86-.33,1.73-.1.87-.22,1.75,0,.89-.12,1.76-.13.87-.25,1.74-.13.87-.25,1.74-.2.86-.32,1.74a9.21,9.21,0,0,1-.25,1.73c-.25,1-.33.7-1.16,1.54a11.18,11.18,0,0,1-1.52,1.24,9.64,9.64,0,0,1-1.65,1.08,9.76,9.76,0,0,1-1.92.47,1.72,1.72,0,0,0-1.31,1.14,2.35,2.35,0,0,0,.16,1.71,5.33,5.33,0,0,0,.85,1.58,9.62,9.62,0,0,0,1.3,1.27,14,14,0,0,0,1.5,1,17,17,0,0,0,1.56.93c.52.25,1.07.51,1.66.74s1.15.29,1.75.47,1.14.31,1.75.46,1.12.42,1.74.54,1.18.17,1.8.26,1.2,0,1.82.07,1.18.11,1.8.15,1.19.24,1.81.26,1.2,0,1.82,0,1.22-.17,1.8-.18,1.23.06,1.81,0,1.23-.06,1.8-.11,1.23-.08,1.8-.15,1.2-.33,1.76-.44,1.24-.12,1.79-.26,1.18-.42,1.7-.61a14.31,14.31,0,0,0,1.64-.72,11.1,11.1,0,0,0,1.6-.83,6.36,6.36,0,0,0,1.21-1.33,4.91,4.91,0,0,0,.89-1.54c.31-1,.62-1,0-1.72s-.61-.32-1.57-.77c-.48-.23-1.05-.44-1.63-.74s-1-.57-1.56-.88-.93-.78-1.4-1.12A10.28,10.28,0,0,1,155.3,153a2.51,2.51,0,0,1-.8-1.57c0-.32,0-.92,0-1.74,0-.5,0-1.09,0-1.74s-.06-1.12-.06-1.74,0-1.14,0-1.74,0-1.15,0-1.74.11-1.15.11-1.74-.11-1.16-.11-1.74.08-1.17.08-1.75-.14-1.17-.14-1.75.15-1.18.15-1.74,0-1.19,0-1.75,0-1.21,0-1.74-.08-1.25-.08-1.74c0-1.09.52-1,0-1.73s-.62-.61-1.29-1.16-.7-.52-1.37-1.07-.65-.58-1.31-1.13l-1.34-1.1c-.67-.55-.64-.59-1.31-1.14s-.71-.51-1.38-1.06-.72-.5-1.39-1.05l-1.33-1.12c-.67-.56-.66-.57-1.33-1.12s-.62-.62-1.29-1.18-.5-1-1.37-1.11-.64.49-1.3.93-.57.62-1.29.94S136.18,116.77,135.77,117.45Z"/><path class="cls-6" d="M154.53,129.69c-.52-.7-.69-.53-1.35-1.09s-.68-.54-1.35-1.09-.64-.59-1.31-1.14l-1.35-1.1-1.33-1.11c-.67-.55-.68-.54-1.35-1.09s-.66-.57-1.33-1.13-.68-.54-1.35-1.09-.64-.59-1.31-1.15-.66-.57-1.33-1.13-.5-1-1.37-1.1-.67.45-1.32.89-.63.48-1.29.91-1,.14-1.37.82,0,.87-.15,1.71-.12.84-.24,1.68-.17.84-.29,1.68a7.22,7.22,0,0,0-.24,1.69c.28.53.62,1.05.93,1.56s.59,1.05.93,1.55.73,1,1.09,1.44.74,1,1.13,1.4.79.92,1.21,1.34.87.84,1.32,1.23.91.8,1.38,1.16,1,.69,1.49,1,1,.6,1.57.89,1.07.54,1.62.77,1.09.51,1.66.7,1.16.31,1.75.44,1.18.22,1.77.3,1.18.13,1.79.15c0-.62,0-1.24,0-1.84s0-1.25,0-1.85,0-1.26,0-1.85,0-1.28,0-1.85.06-1.32.06-1.85C154.55,130.38,155.08,130.43,154.53,129.69Z"/><path class="cls-7" d="M128.22,157a4.31,4.31,0,1,1-.34-1.61A4.2,4.2,0,0,1,128.22,157Z"/><path class="cls-7" d="M134.53,161.21a4.22,4.22,0,1,1-.32-1.62A4.21,4.21,0,0,1,134.53,161.21Z"/><path class="cls-7" d="M141.89,163.31a4.21,4.21,0,1,1-4.21-4.2,4.26,4.26,0,0,1,3,1.23,4,4,0,0,1,1.24,3Z"/><path class="cls-7" d="M149.26,163.31a4,4,0,1,1-.31-1.62A4.19,4.19,0,0,1,149.26,163.31Z"/><path class="cls-7" d="M156.63,163.31a4.33,4.33,0,0,1-1.22,3,4.18,4.18,0,0,1-3,1.22,4.22,4.22,0,1,1,4.21-4.21Z"/><path class="cls-7" d="M164,161.21a4.2,4.2,0,0,1-5.81,3.9,4.19,4.19,0,0,1,0-7.78,4.17,4.17,0,0,1,5.8,3.88Z"/><path class="cls-7" d="M167.15,158a4.19,4.19,0,0,1-.31,1.61,4.19,4.19,0,0,1-8.09-1.61,4.2,4.2,0,0,1,8.4,0Z"/><path class="cls-8" d="M161.38,132.25c.12.87.17.61.32,1.74.06.49.15,1.08.23,1.75s-.07,1.14,0,1.78.27,1.12.34,1.74.2,1.14.26,1.75.07,1.16.13,1.76.17,1.15.23,1.75-.11,1.18-.05,1.77.32,1.14.38,1.74.1,1.16.15,1.76-.08,1.18,0,1.77.27,1.15.31,1.75-.06,1.18,0,1.77.11,1.17.14,1.76.1,1.17.13,1.76,0,1.17,0,1.77.2,1.17.23,1.76.06,1.17.08,1.77-.09,1.18-.07,1.77.13,1.17.14,1.76,0,1.18.05,1.77,0,1.18,0,1.77-.11,1.18-.11,1.77,0,1.18,0,1.77.15,1.18.14,1.77-.1,1.18-.11,1.77-.12,1.18-.14,1.77,0,1.18,0,1.77-.14,1.18-.17,1.76,0,1.19,0,1.78-.13,1.18-.18,1.76.05,1.19,0,1.77-.2,1.17-.27,1.75,0,1.19-.11,1.77-.23,1.16-.32,1.74"/><path class="cls-9" d="M13.5,277.62c.49,0,.49.16,1,.16s.49,0,1,0,.49.12,1,.12.49-.34,1-.34.49,0,1,0,.49-.4,1-.4.49.35,1,.35.49.32,1,.32.49,0,1,0,.49-.51,1-.51.49,0,1,0,.49.12,1,.12.49,0,1,0,.49.26,1,.26.49-.34,1-.34.49.39,1,.39.49-.17,1-.17.49,0,1,0,.49-.16,1-.16.49.45,1,.45.49-.37,1-.37.49.26,1,.26.49.14,1,.14.49-.09,1-.09.49-.06,1-.06.49-.46,1-.46.49.34,1,.34.49-.15,1-.15.49,0,1,0,.49-.26,1-.26.49.3,1,.3.49-.14,1-.14.49.31,1,.31.49-.57,1-.57.49.72,1,.72.49-.53,1-.53.49-.09,1-.09.49,0,1,0,.49.16,1,.16.49,0,1,0,.49.1,1,.1.49,0,1,0,.49-.19,1-.19.49,0,1,0,.49,0,1,0,.49.07,1,.07.49.16,1,.16.49-.14,1-.14.49-.27,1-.27.49.47,1,.47.49-.32,1-.32.49-.3,1-.3.49.42,1,.42.49.23,1,.23.49-.24,1-.24.49.2,1,.2.49-.55,1-.55.49.11,1,.11.49-.11,1-.11h1c.49,0,.49.61,1,.61s.49-.52,1-.52.49.07,1,.07.49.42,1,.42.49-.08,1-.08.49-.08,1-.08.49-.4,1-.4.49,0,1,0,.49.37,1,.37.49-.18,1-.18.49.23,1,.23.49-.47,1-.47.49.1,1,.1.49.26,1,.26.49,0,1,0,.49-.3,1-.3.49,0,1,0,.49-.09,1-.09l1,0c.49,0,.49-.09,1-.09l1,0c.49,0,.49.65,1,.65s.49,0,1,0,.49-.17,1-.17.49-.27,1-.27.49.14,1,.14.49,0,1,0,.49.24,1,.24.49.17,1,.17.49-.18,1-.18.49-.47,1-.47.49.61,1,.61.49-.29,1-.29l1,0c.49,0,.49.24,1,.24s.49,0,1,0,.49-.17,1-.17h1c.49,0,.49.25,1,.25s.49-.12,1-.12.49-.39,1-.39.49.12,1,.12h1c.49,0,.49-.27,1-.27s.49.16,1,.16.49.25,1,.25h1c.49,0,.49-.44,1-.44s.49.19,1,.19.49.54,1,.54.49-.64,1-.64.49.58,1,.58.49-.5,1-.5.49-.07,1-.07.49.3,1,.3.49,0,1,0,.49-.32,1-.32.49.39,1,.39.49,0,1,0,.49-.07,1-.07.49.29,1,.29.49-.42,1-.42.49-.08,1-.08.49.24,1,.24.49,0,1,0,.49-.17,1-.17l1,0c.49,0,.49-.26,1-.26s.49.58,1,.58.49-.14,1-.14.49-.08,1-.08.49.21,1,.21h1c.49,0,.49-.11,1-.11s.49.16,1,.16.49-.54,1-.54.49.19,1,.19.49.21,1,.21.49.19,1,.19.49-.63,1-.63.49.4,1,.4.49-.17,1-.17.49.26,1,.26.49-.22,1-.22.49-.28,1-.28.49,0,1,0,.49,0,1,0,.49,0,1,0,.49-.1,1-.1h1c.49,0,.49.53,1,.53h1c.49,0,.49,0,1,0s.49-.39,1-.39.49,0,1,0,.49.56,1,.56.49,0,1,0,.49-.08,1-.08.49-.13,1-.13.49-.46,1-.46.49.2,1,.2.49.48,1,.48.49-.7,1-.7.49.63,1,.63.49-.1,1-.1.49-.32,1-.32.49.3,1,.3.49-.13,1-.13.49-.17,1-.17.49.41,1,.41.49-.62,1-.62.49.45,1,.45.49-.49,1-.49.49.23,1,.23.49,0,1,0,.49,0,1,0,.49.41,1,.41.49-.22,1-.22.49-.28,1-.28.49.15,1,.15.49-.25,1-.25.49.32,1,.32.49.17,1,.17.49-.26,1-.26.49-.21,1-.21.49.26,1,.26.49-.21,1-.21.49.34,1,.34.49-.3,1-.3.49.52,1,.52.49,0,1,0l1,0c.49,0,.49-.59,1-.59h1c.49,0,.49.29,1,.29s.49.11,1,.11.49-.36,1-.36.49.14,1,.14.49-.21,1-.21.49-.06,1-.06.48.69,1,.69.48-.25,1-.25.48-.23,1-.23.48.53,1,.53.48-.18,1-.18.48-.2,1-.2.48.21,1,.21h1c.48,0,.48-.44,1-.44s.48.31,1,.31.48-.37,1-.37.48.44,1,.44.49-.23,1-.23.49-.2,1-.2.49.4,1,.4.49.1,1,.1.49.13,1,.13.49-.29,1-.29.49-.06,1-.06.49,0,1,0,.49,0,1,0,.49-.29,1-.29.49.16,1,.16.49.44,1,.44.49-.58,1-.58.49.36,1,.36.49,0,1,0,.49,0,1,0h1c.49,0,.49-.23,1-.23s.49-.06,1-.06.49.28,1,.28.49-.42,1-.42.49.18,1,.18.49.31,1,.31.49-.37,1-.37.49.38,1,.38.49-.33,1-.33.49-.21,1-.21.49.27,1,.27.49.1,1,.1.49-.12,1-.12.49-.26,1-.26.49.41,1,.41.49.25,1,.25.49,0,1,0,.49-.59,1-.59.49.58,1,.58.49-.48,1-.48.49,0,1,0,.49,0,1,0,.49.62,1,.62.49-.42,1-.42.49.19,1,.19.49.1,1,.1.49.14,1,.14.49-.34,1-.34.49-.15,1-.15.49-.1,1-.1.49.12,1,.12.49,0,1,0,.49.16,1,.16.49.28,1,.28.49-.7,1-.7.49.54,1,.54.49.05,1,.05.49-.34,1-.34.49.11,1,.11.49,0,1,0,.49.33,1,.33.49-.27,1-.27.49-.18,1-.18.49.19,1,.19.49-.17,1-.17.49-.22,1-.22.49.39,1,.39.49-.32,1-.32.49.24,1,.24.49.33,1,.33.49,0,1,0h1c.49,0,.49-.57,1-.57s.49-.09,1-.09.49.62,1,.62.49-.45,1-.45.49.25,1,.25.49-.17,1-.17.49.06,1,.06h1c.49,0,.49-.14,1-.14s.49.17,1,.17.49-.16,1-.16.49-.07,1-.07l1,0c.49,0,.49.07,1,.07s.49,0,1,0,.49-.15,1-.15h1c.49,0,.49-.07,1-.07s.49.72,1,.72h1c.49,0,.49-.63,1-.63s.49,0,1,0h1c.49,0,.49,0,1,0s.49.09,1,.09.49-.07,1-.07.49.07,1,.07.49,0,1,0,.49.07,1,.07.49,0,1,0,.49.38,1,.38.49-.44,1-.44.49.27,1,.27.49.23,1,.23.49-.14,1-.14.49.16,1,.16.49-.25,1-.25.49-.09,1-.09.49-.27,1-.27.49.09,1,.09.49.38,1,.38.49.16,1,.16l1,0c.49,0,.49-.34,1-.34s.49.27,1,.27.49-.22,1-.22.49-.42,1-.42.49.21,1,.21.49.06,1,.06l1,0c.49,0,.49.27,1,.27s.49-.52,1-.52.49.45,1,.45.49.14,1,.14h1.94c.49,0,.49,0,1,0s.49.07,1,.07.49,0,1,0h1c.49,0,.49-.21,1-.21s.49-.39,1-.39.49.69,1,.69.49-.34,1-.34.49.3,1,.3.49-.35,1-.35.49-.18,1-.18.49.59,1,.59.49-.57,1-.57.49.59,1,.59.49-.47,1-.47h2c.49,0,.49.36,1,.36h1c.49,0,.49-.36,1-.36s.49-.11,1-.11.49.34,1,.34.49-.32,1-.32.49.34,1,.34.49-.43,1-.43.49.61,1,.61.49-.08,1-.08.49,0,1,0,.49-.14,1-.14.49-.36,1-.36.49-.11,1-.11.49.63,1,.63.49-.47,1-.47.49-.16,1-.16.49.72,1,.72.49-.53,1-.53.49-.19,1-.19.49.59,1,.59.49.09,1,.09.49,0,1,0,.49-.31,1-.31.49.31,1,.31.49-.16,1-.16.49-.26,1-.26.49.09,1,.09.49.37,1,.37"/><path class="cls-7" d="M179,81.83c.69-.49.64-.19,1.54-.71a15.34,15.34,0,0,0,1.44-.91c.42-.31.73-.84,1.17-1.25a13.2,13.2,0,0,0,1.28-1.12,13.42,13.42,0,0,0,.89-1.45,11.92,11.92,0,0,0,.76-1.5,11.3,11.3,0,0,0,.7-1.54,12.29,12.29,0,0,0,.28-1.67c.09-.64.38-1.2.4-1.74a10.43,10.43,0,0,0-.27-1.76,9.14,9.14,0,0,0-.41-1.7,16.08,16.08,0,0,0-.37-1.75c-.24-.54-.55-1-.77-1.58a8.81,8.81,0,0,1-.48-1.67,7.66,7.66,0,0,1-.34-1.73A12.57,12.57,0,0,1,185,58c.1-.6.28-1.17.34-1.74s0-1.2,0-1.77a16.19,16.19,0,0,0,0-1.76,11.88,11.88,0,0,0-.3-1.73,9.78,9.78,0,0,0-.55-1.66,9.15,9.15,0,0,0-.89-1.5,10,10,0,0,0-1.15-1.3,11.8,11.8,0,0,0-1.25-1.22,15.45,15.45,0,0,0-1.42-1,11.75,11.75,0,0,1-1.45-1A14.88,14.88,0,0,1,177.16,42c-.41-.42-.82-.83-1.19-1.29s-.81-.86-1.15-1.34-.6-1-.92-1.51l-1-1.47c-.34-.51-.77-.93-1.11-1.37a10.68,10.68,0,0,0-1.17-1.29,4,4,0,0,0-1.38-1,14.2,14.2,0,0,0-1.65-.43,15.76,15.76,0,0,0-1.69-.21,14.24,14.24,0,0,0-1.7-.24,16.11,16.11,0,0,0-6.51,1.9,15.13,15.13,0,0,0-1.56.71c-.46.31-.76.85-1.21,1.23s-.9.66-1.31,1.08-.76.82-1.14,1.27-1,.86-1.34,1.25a14,14,0,0,1-1.31,1.28,5.72,5.72,0,0,1-1.59,1,3.48,3.48,0,0,1-1.86,0,9.81,9.81,0,0,1-1.72-.64c-.51-.23-1-.6-1.63-.84a14.68,14.68,0,0,0-1.74-.55,13.62,13.62,0,0,0-1.8-.32,14,14,0,0,0-1.83-.28,14,14,0,0,0-1.72.24,13.7,13.7,0,0,0-1.7.29,13.15,13.15,0,0,0-1.61.62,12.31,12.31,0,0,0-1.53.78,11.3,11.3,0,0,0-1.37,1,10.89,10.89,0,0,0-1.41,1,10,10,0,0,0-1,1.43,9.47,9.47,0,0,0-.7,1.57,9.49,9.49,0,0,0-.67,1.6,6.84,6.84,0,0,1-.34,1.68,6.82,6.82,0,0,1-1,1.42,11,11,0,0,1-1.35,1.06c-.43.35-.83.76-1.29,1.1s-1,.52-1.47.88-.86.74-1.28,1.14A11.5,11.5,0,0,0,118.09,56,15.63,15.63,0,0,0,116.52,59a17.19,17.19,0,0,0-.39,1.8,16.9,16.9,0,0,0-.46,1.79,14,14,0,0,0-.07,1.85,17.2,17.2,0,0,0,.18,1.83c.09.61.38,1.18.49,1.77s.17,1.19.25,1.81a14.9,14.9,0,0,1,.23,1.82,5.41,5.41,0,0,1-.43,1.75A11.35,11.35,0,0,1,115.4,75c-.28.5-.53,1-.86,1.54s-.43,1.12-.75,1.63-.75.93-1,1.45a15.73,15.73,0,0,0-.88,1.56,11.46,11.46,0,0,0-.36,1.76,7.24,7.24,0,0,0-.3,3.55,7.56,7.56,0,0,0,.5,1.72,8.12,8.12,0,0,0,1.05,1.43A11.07,11.07,0,0,0,113.9,91c.42.42.74.94,1.18,1.32s1,.69,1.42,1.06,1,.62,1.46,1a8.76,8.76,0,0,1,1.13,1.37,4.4,4.4,0,0,1,.59,1.64,4,4,0,0,1,.17,1.73c-.12.61-.16,1.2-.25,1.75s-.19,1.19-.24,1.75a16.78,16.78,0,0,0-.2,1.75,10.27,10.27,0,0,0,.14,1.77,7.94,7.94,0,0,0,.67,1.63,8.2,8.2,0,0,0,.64,1.68,12.72,12.72,0,0,0,1.33,1.2,16,16,0,0,1,1.09,1.26c.36.44.73.86,1,1.3s.63.93.95,1.37.7.87,1.06,1.27a8.41,8.41,0,0,0,1.07,1.29,5.23,5.23,0,0,0,1.55.63,5.29,5.29,0,0,0,1.62.16A10.26,10.26,0,0,0,132,118a15.77,15.77,0,0,0,1.64-.39c.55-.15,1-.48,1.55-.67s1.14-.24,1.63-.45,1-.71,1.42-.93c.91-.46.84-.19,1.51-.7s.75-.47,1.43-1,.65-.6,1.32-1.17.58-.67,1.26-1.24.83-.38,1.5-1,.57-.7,1.24-1.26.7-.54,1.38-1.1.71-.52,1.39-1.09.55-.72,1.23-1.29.71-.52,1.39-1.09.82-.4,1.49-1,.58-.68,1.26-1.25.77-.46,1.44-1,.66-.59,1.33-1.16.54-.73,1.21-1.3.7-.55,1.37-1.12.62-.63,1.3-1.2.72-.51,1.4-1.09.82-.41,1.49-1,.55-.72,1.22-1.3.8-.43,1.47-1,.7-.54,1.37-1.11.56-.71,1.24-1.28.59-.67,1.27-1.24.85-.37,1.53-.94.65-.61,1.32-1.18.61-.65,1.29-1.22.69-.56,1.37-1.13.66-.59,1.33-1.18A11.08,11.08,0,0,1,179,81.83Z"/><path class="cls-5" d="M179.79,96.45c0,.6-.11,1.19-.13,1.78s-.05,1.19-.08,1.78,0,1.2,0,1.79-.12,1.19-.18,1.78-.15,1.18-.23,1.77-.25,1.17-.35,1.75,0,1.21-.14,1.79-.21,1.18-.34,1.76-.25,1.18-.4,1.75-.53,1.09-.7,1.66-.25,1.17-.44,1.73-.51,1.09-.72,1.64-.27,1.18-.49,1.73-.6,1-.84,1.58-.57,1-.84,1.57-.53,1.07-.82,1.58-.54,1.07-.85,1.57-.66,1-1,1.48-.7,1-1.06,1.44-.84.86-1.23,1.29-.73,1-1.15,1.37-.94.74-1.39,1.12-.78.95-1.26,1.29-1,.66-1.52,1-1.08.54-1.61.79a17.41,17.41,0,0,1-1.67.63,16.54,16.54,0,0,1-1.7.58,15.87,15.87,0,0,1-1.77.31,16,16,0,0,1-1.79-.12,15.47,15.47,0,0,1-1.78,0,15.75,15.75,0,0,1-1.77-.23,16.43,16.43,0,0,1-1.7-.55,17.45,17.45,0,0,1-1.63-.73c-.53-.25-1-.59-1.53-.9s-1-.56-1.52-.91-.94-.71-1.4-1.1-.84-.82-1.27-1.24-.81-.85-1.21-1.3-.86-.82-1.23-1.29-.77-.9-1.12-1.39-.7-1-1-1.46-.7-1-1-1.49-.55-1.05-.82-1.59-.46-1.1-.71-1.64-.61-1-.84-1.58-.25-1.18-.46-1.74-.39-1.12-.58-1.69-.41-1.11-.58-1.69-.49-1.1-.64-1.68-.1-1.2-.23-1.78-.32-1.14-.44-1.73-.23-1.16-.33-1.76-.33-1.15-.41-1.75.06-1.2,0-1.8-.13-1.18-.18-1.78-.24-1.17-.28-1.77.12-1.2.1-1.79,0-1.19,0-1.79,0-1.19,0-1.79-.09-1.2-.06-1.79.24-1.18.29-1.77.13-1.18.19-1.77,0-1.21.06-1.79.29-1.16.39-1.75.18-1.18.29-1.76.31-1.16.44-1.73.17-1.19.33-1.76.25-1.17.42-1.74.33-1.16.51-1.72.41-1.13.61-1.68.64-1,.87-1.58.44-1.11.69-1.64.55-1.06.82-1.58.31-1.2.6-1.71.69-1,1-1.48.74-1,1.08-1.43.61-1,1-1.5.92-.79,1.32-1.23.77-.91,1.19-1.32.74-1,1.19-1.35,1-.68,1.47-1,1.08-.53,1.59-.83,1-.68,1.51-.93a17.25,17.25,0,0,1,1.66-.65,17,17,0,0,1,1.66-.71,16,16,0,0,1,1.79-.2,15.57,15.57,0,0,1,1.78-.08c.59,0,1.17.15,1.75.17s1.18-.08,1.75,0,1.18,0,1.75.1,1.12.41,1.69.52,1.21,0,1.77.12,1.13.36,1.67.57,1,.63,1.52.89a16.29,16.29,0,0,1,1.54.83,16.06,16.06,0,0,1,1.45,1,16.67,16.67,0,0,1,1.32,1.16c.4.4.7.92,1.08,1.38s.69.91,1,1.41.82.84,1.12,1.37.48,1.05.74,1.59.35,1.1.58,1.66.56,1,.76,1.58.38,1.09.55,1.66.16,1.15.31,1.73.22,1.13.36,1.71.33,1.1.45,1.69.34,1.11.44,1.7,0,1.17.06,1.76.12,1.15.19,1.74.21,1.14.26,1.73.1,1.15.15,1.74.18,1.15.22,1.74.07,1.16.1,1.75.11,1.16.13,1.75.07,1.16.09,1.75,0,1.16,0,1.76S179.79,95.85,179.79,96.45Z"/><path class="cls-7" d="M128.29,89.58c.21.83.54-.13,1.56-.42a15,15,0,0,0,1.62-.53,16.87,16.87,0,0,0,1.52-.75A14.66,14.66,0,0,0,135.82,86a16.46,16.46,0,0,0,1.23-1.18,16.05,16.05,0,0,0,1.23-1.2c.34-.43.6-.95.92-1.45s.71-.89,1-1.41.37-1.07.6-1.61.38-1.05.56-1.61.35-1.11.5-1.69c.58,0,1.19-.12,1.74-.19s1.17,0,1.71-.08,1.1-.38,1.64-.5,1.11-.28,1.64-.43,1.15-.2,1.66-.39,1-.52,1.54-.73,1.14-.31,1.62-.56,1-.57,1.48-.86.94-.71,1.37-1,1-.71,1.33-1.05.93-.81,1.25-1.16c.72-.8.14-1.19,1-1.39s.64.26,1.69.63c.49.17,1.09.31,1.75.48s1.13.29,1.77.4,1.17.19,1.8.24a18.08,18.08,0,0,0,1.81,0,16,16,0,0,0,1.81-.07,14.82,14.82,0,0,0,1.81-.26A14.35,14.35,0,0,0,174,68.3a13.86,13.86,0,0,0,1.62-.84,16.41,16.41,0,0,0,1.56-1,15,15,0,0,0,1.51-1.09,11.85,11.85,0,0,0,1.19-1.44,10.37,10.37,0,0,0,.9-1.62,10.27,10.27,0,0,0,.73-1.69,11.35,11.35,0,0,0,.53-1.78,6,6,0,0,0-.06-1.9c-.76-.41-.82-.29-1.58-.7s-.73-.47-1.49-.88-.71-.49-1.47-.9-.81-.32-1.57-.72l-1.52-.82-1.52-.82c-.76-.41-.73-.47-1.49-.88s-.81-.33-1.57-.74-.65-.71-1.51-.79-.82.26-1.68.52-.89.16-1.74.42-.82.37-1.68.63l-1.72.51-1.71.52c-.86.26-.84.31-1.7.57s-.91.1-1.76.36-.82.36-1.68.62-.89.16-1.74.42l-1.7.54c-.86.26-.86.23-1.72.5s-.84.31-1.7.57-.87.21-1.73.47-.81.41-1.67.67-.9.14-1.76.4a4.55,4.55,0,0,0-1.64.69c-.73.46-.6.6-1.18,1.24s-.56.66-1.15,1.3l-1.18,1.28c-.58.64-.67.57-1.25,1.21s-.54.69-1.12,1.33l-1.17,1.28L132.67,67c-.59.65-.66.58-1.25,1.23s-.74.56-1.09,1.36-.06.91-.16,1.81-.21.9-.31,1.8,0,.92-.1,1.82-.22.9-.32,1.81,0,.92-.1,1.83,0,.92-.11,1.83-.2.9-.29,1.81,0,.92-.08,1.83-.22.9-.31,1.81a14.07,14.07,0,0,1-.18,1.82C128.2,88.68,128.06,88.7,128.29,89.58Z"/><path class="cls-10" d="M163,93.82a12.41,12.41,0,0,1-.13,1.7,11.93,11.93,0,0,1-.37,1.66,11.45,11.45,0,0,1-.59,1.59,10.89,10.89,0,0,1-.8,1.5,10.1,10.1,0,0,1-1.06,1.33,9.26,9.26,0,0,1-1.26,1.13,8.54,8.54,0,0,1-1.43.92,7.93,7.93,0,0,1-1.63.5,7.79,7.79,0,0,1-3.37,0,7.84,7.84,0,0,1-1.6-.56,8.47,8.47,0,0,1-1.48-.83,9.33,9.33,0,0,1-1.23-1.17,10.07,10.07,0,0,1-1.05-1.33,10.84,10.84,0,0,1-.86-1.47,11.53,11.53,0,0,1-.59-1.6,12,12,0,0,1-.36-1.67,18.87,18.87,0,0,1,0-3.4,12,12,0,0,1,.37-1.67,11.57,11.57,0,0,1,.58-1.6,10.93,10.93,0,0,1,.83-1.49,10.09,10.09,0,0,1,1.09-1.3,9.25,9.25,0,0,1,1.26-1.14,8.43,8.43,0,0,1,1.46-.86,7.86,7.86,0,0,1,1.59-.58,7.89,7.89,0,0,1,3.38,0,8,8,0,0,1,1.62.53,8.56,8.56,0,0,1,1.46.88A9.35,9.35,0,0,1,160,86a10.14,10.14,0,0,1,1.08,1.32,11,11,0,0,1,.81,1.5,11.57,11.57,0,0,1,.55,1.61,11.94,11.94,0,0,1,.38,1.66A12.47,12.47,0,0,1,163,93.82Z"/><path class="cls-10" d="M186.15,93.82a12.39,12.39,0,0,1-.15,1.7,12,12,0,0,1-.35,1.67,11.56,11.56,0,0,1-.57,1.61,10.83,10.83,0,0,1-.87,1.46,10.25,10.25,0,0,1-1,1.38,9.34,9.34,0,0,1-1.29,1.12,8.48,8.48,0,0,1-1.47.84,7.87,7.87,0,0,1-1.6.55,7.66,7.66,0,0,1-1.69.16,7.76,7.76,0,0,1-1.7-.11,7.93,7.93,0,0,1-1.59-.6,8.5,8.5,0,0,1-1.48-.84,9.35,9.35,0,0,1-1.25-1.15,10.16,10.16,0,0,1-1.08-1.32,11,11,0,0,1-.83-1.49,11.66,11.66,0,0,1-.52-1.62,11.94,11.94,0,0,1-.35-1.66,9.17,9.17,0,0,1,0-3.39,12.07,12.07,0,0,1,.31-1.67,11.43,11.43,0,0,1,.63-1.58,10.94,10.94,0,0,1,.78-1.51A10.13,10.13,0,0,1,171.15,86a9.32,9.32,0,0,1,1.26-1.14,8.49,8.49,0,0,1,1.47-.85,7.92,7.92,0,0,1,1.6-.59,7.74,7.74,0,0,1,1.7-.15,7.64,7.64,0,0,1,1.68.21,7.84,7.84,0,0,1,1.6.54,8.49,8.49,0,0,1,1.49.83A9.36,9.36,0,0,1,183.22,86a10.21,10.21,0,0,1,1,1.35,10.91,10.91,0,0,1,.83,1.49,11.55,11.55,0,0,1,.59,1.6,12,12,0,0,1,.35,1.67A12.48,12.48,0,0,1,186.15,93.82Z"/><path class="cls-1" d="M148.48,118.68c.45.2.82.45,1.21.61.2.08.41.2.6.28s.32.11.53.18.41.16.59.21l.53.14.63.19c.2.06.32.07.49.11l.66.17.64.21.43.08c.18,0,.38.08.52.1s.89.15,1.17.19l1.21.18.54.1.57.07.6.09.54.07,1.13.13.68,0a5.19,5.19,0,0,1,.62.09,9.4,9.4,0,0,0,1.08.09c.33,0,.85,0,1.27,0,.22,0,.37,0,.58,0l.65,0a3.36,3.36,0,0,0,.63-.06,4.88,4.88,0,0,1,.72-.07,5.75,5.75,0,0,1-.89,1.14c-.18.18-.34.32-.54.47a6.1,6.1,0,0,1-.65.41,11,11,0,0,1-1.21.65,7.21,7.21,0,0,1-1.45.48c-.32.05-.49.08-.66.12l-.6.12a5.85,5.85,0,0,1-.76.1l-.68,0a7,7,0,0,1-.74,0l-.68,0-.7-.06-.73-.11c-.43-.09-.72-.12-1.32-.26s-.74-.21-1.33-.39c-.28-.09-.48-.18-.71-.28a6.4,6.4,0,0,1-.77-.38l-1-.68a5.07,5.07,0,0,1-.66-.46c-.2-.16-.33-.28-.49-.43a7.28,7.28,0,0,1-.57-.53c-.17-.19-.3-.36-.45-.54a5.68,5.68,0,0,1-.45-.64c-.12-.22-.21-.41-.31-.63a5.35,5.35,0,0,1-.26-.69Z"/><path class="cls-5" d="M132.41,100.66a4.65,4.65,0,0,1-1.69-.3,5.34,5.34,0,0,1-1.46-.92,6.46,6.46,0,0,1-1.18-1.26,7.72,7.72,0,0,1-.8-1.52,8.62,8.62,0,0,1-.51-1.65,9.2,9.2,0,0,1,0-3.44,8.64,8.64,0,0,1,.49-1.65,7.73,7.73,0,0,1,.8-1.53,6.56,6.56,0,0,1,1.15-1.29,5.33,5.33,0,0,1,1.5-.85,4.7,4.7,0,0,1,1.7-.32c.28.88,0,.92,0,1.84s0,.92,0,1.84,0,.92,0,1.84,0,.92,0,1.84,0,.92,0,1.84,0,.92,0,1.84a12.68,12.68,0,0,0,0,1.85C132.51,99.74,132.69,99.78,132.41,100.66Z"/><path class="cls-2" d="M133.47,93.82a2.55,2.55,0,0,1-.39,1.39,1.35,1.35,0,0,1-2.39,0,2.64,2.64,0,0,1,0-2.77,1.33,1.33,0,0,1,2.37,0A2.53,2.53,0,0,1,133.47,93.82Z"/><path class="cls-2" d="M131.36,91.72c-1.05,0-1.06,0-1.68,1.1a4.19,4.19,0,0,0-.44,2,10.19,10.19,0,0,0,.22,1.92,18,18,0,0,0,.47,1.88c.21.66.47,1.28.68,1.81.42,1.05-.17,2,.76,1.78.72-.18.75-.38,1.06-1.06s-.4-.39-.71-1.65a12.22,12.22,0,0,1-.28-1.79c0-.53-.06-1.13-.06-1.82"/><path class="cls-8" d="M176.56,208.71a14.41,14.41,0,0,1-1.35-1.12c-.37-.32-.84-.67-1.34-1.13s-.61-1-1.07-1.41-.76-.83-1.19-1.27-1-.6-1.43-1-.54-1-.95-1.5-.93-.7-1.32-1.16-.72-.89-1.11-1.35-.69-.92-1.06-1.39-.9-.76-1.26-1.23-.4-1.14-.75-1.62-.89-.77-1.24-1.26-.5-1.06-.84-1.54-.64-1-1-1.44-.72-.9-1-1.4-.57-1-.89-1.5-.9-.8-1.21-1.3-.46-1.07-.76-1.58-.59-1-.89-1.5-.41-1.1-.7-1.61-.64-1-.92-1.48-.44-1.08-.71-1.6-.56-1-.83-1.54-.86-.86-1.12-1.39-.41-1.09-.66-1.62-.31-1.13-.56-1.67-.63-1-.87-1.52-.24-1.16-.48-1.7-.66-1-.88-1.52-.53-1-.75-1.58-.28-1.14-.5-1.68-.5-1-.71-1.6-.5-1-.71-1.6-.12-1.19-.31-1.74-.7-1-.89-1.54-.1-1.19-.28-1.75-.35-1.11-.52-1.66-.69-1-.87-1.56-.26-1.14-.42-1.7-.38-1.1-.54-1.66-.35-1.11-.51-1.68-.24-1.14-.4-1.71,0-1.21-.11-1.78-.59-1-.73-1.62-.12-1.16-.25-1.73-.42-1.09-.55-1.66-.14-1.16-.26-1.73-.2-1.14-.32-1.72-.46-1.09-.57-1.67,0-1.19-.11-1.76-.43-1.1-.54-1.68-.19-1.15-.28-1.72-.17-1.15-.26-1.73,0-1.19,0-1.77-.22-1.14-.31-1.72-.1-1.16-.18-1.75-.2-1.15-.28-1.73-.14-1.16-.22-1.71-.48-1.11-.56-1.66-.17-1.15-.26-1.7.12-1.2,0-1.74-.27-1.14-.37-1.68-.28-1.14-.39-1.67-.24-1.15-.36-1.67-.17-1.18-.3-1.69-.35-1.16-.49-1.65c-.18-.66-.17-1.26-.32-1.7-.37-1.13-.6-.67-1-1.43"/><path class="cls-7" d="M241.49,262.13c-.88,0-.88.32-1.76.32s-.88-.33-1.76-.33-.88.27-1.77.27-.88.05-1.77.05-.88-.09-1.77-.09-.88-.11-1.77-.11l-1.77,0c-.88,0-.88,0-1.77,0s-.88.25-1.77.25-.88-.33-1.77-.33-.88.18-1.77.18-.88-.11-1.77-.11-.88-.08-1.77-.08-.88,0-1.77,0-.88,0-1.77,0-.88.29-1.77.29-.88-.21-1.77-.21-.88.1-1.76.1-.88.08-1.76.08-.88-.08-1.76-.08-.88-.24-1.76-.24-.88.13-1.77.13-.88-.11-1.77-.11-.88,0-1.77,0-.88.19-1.76.19-.88-.09-1.77-.09-.88-.1-1.77-.1-.88.07-1.77.07-.88.23-1.77.23-.88,0-1.77,0-.88-.11-1.77-.11-.88-.13-1.77-.13-.88.25-1.77.25-.88,0-1.77,0-.89-.24-1.77-.24-.88.06-1.77.06-.88,0-1.77,0-.89.22-1.77.22-.88-.1-1.77-.1-.89-.09-1.77-.09-.89.22-1.77.22-.88-.09-1.77-.09-.89-.17-1.77-.17-.89,0-1.78,0-.89,0-1.78,0a3.62,3.62,0,0,1-1.49-.36,4.32,4.32,0,0,1-1.44-.68,5,5,0,0,1-.89-1.34,5.33,5.33,0,0,1-.29-1.56,5.17,5.17,0,0,1,0-1.55c.13-.86.22-.84.36-1.7s0-.87.17-1.73.12-.86.25-1.71.19-.85.32-1.7,0-.88.11-1.73.12-.86.25-1.71.3-.83.43-1.69.18-.85.31-1.71,0-.88.13-1.74,0-.87.16-1.73.35-.82.49-1.68,0-.88.11-1.74.05-.87.18-1.73.16-.85.29-1.71,0-.87.16-1.73.32-.83.45-1.69.29-.83.43-1.69.1-.86.23-1.72,0-.88.11-1.74.12-.86.25-1.72.26-.84.39-1.7-.07-.89.07-1.74.12-.86.25-1.72.35-.83.48-1.68.09-.87.22-1.73,0-.88.16-1.74.31-.83.44-1.69.09-.87.22-1.73.17-.86.3-1.72,0-.88.16-1.74a5,5,0,0,1,.58-1.43,4.55,4.55,0,0,1,.82-1.29,4.23,4.23,0,0,1,1.22-1,3.94,3.94,0,0,1,1.55-.34l1.76,0c.88,0,.88.09,1.76.09s.88.15,1.77.15.88-.31,1.77-.31.88.09,1.77.09.88,0,1.77,0,.88.11,1.77.11.88.12,1.77.12.88-.32,1.77-.32.88.34,1.77.34.88-.09,1.77-.09h1.77c.88,0,.88-.17,1.77-.17l1.77,0c.88,0,.88-.08,1.77-.08s.88.23,1.77.23.88,0,1.77,0l1.76,0h1.76c.88,0,.88.09,1.76.09s.88-.16,1.76-.16.88,0,1.77,0,.88.16,1.77.16.88-.31,1.77-.31.88.17,1.76.17.88.15,1.77.15l1.77,0c.88,0,.88-.06,1.77-.06l1.77,0h1.77c.88,0,.88-.28,1.77-.28s.88.07,1.77.07.88.19,1.77.19.88-.27,1.77-.27.89.16,1.77.16h1.77c.88,0,.88,0,1.77,0H237c.88,0,.88-.06,1.77-.06s.89,0,1.77,0,.89-.06,1.77-.06.88.22,1.77.22h1.77c.89,0,.89-.11,1.78-.11s.89.14,1.78.14a3.94,3.94,0,0,1,1.57.15,4.39,4.39,0,0,1,1.35.88,5,5,0,0,1,.88,1.34,5.3,5.3,0,0,1,.49,1.53,5.53,5.53,0,0,1,0,1.6c-.13.86-.17.85-.3,1.71s-.32.83-.45,1.68-.13.86-.26,1.71-.11.86-.24,1.71,0,.87-.16,1.73.08.89,0,1.75-.23.84-.36,1.7-.33.83-.46,1.69,0,.87-.17,1.73-.11.86-.25,1.72,0,.88-.11,1.74-.11.86-.24,1.72-.21.85-.34,1.7-.31.83-.44,1.69,0,.88-.12,1.74-.27.84-.4,1.7,0,.89-.09,1.74-.19.85-.32,1.71-.23.84-.36,1.7-.24.84-.37,1.7.2.91.07,1.77-.31.83-.44,1.69-.28.84-.41,1.7,0,.87-.17,1.73.11.9,0,1.76-.31.83-.44,1.69,0,.88-.15,1.74-.36.83-.5,1.69-.14.86-.28,1.72.13.9,0,1.77c-.08.54-.55.94-.77,1.39a4.55,4.55,0,0,1-.8,1.3,4.35,4.35,0,0,1-1.2,1A4,4,0,0,1,241.49,262.13Z"/><path class="cls-11" d="M211.29,232.62a15.48,15.48,0,0,1-.34,1.7,14.24,14.24,0,0,1-.56,1.65,12.45,12.45,0,0,1-.77,1.56,10.4,10.4,0,0,1-.94,1.46,7.56,7.56,0,0,1-1.26,1.19,5.15,5.15,0,0,1-1.53.81,3.59,3.59,0,0,1-3.33-.48,5.22,5.22,0,0,1-1.18-1.27,7.48,7.48,0,0,1-.86-1.5,10.25,10.25,0,0,1-.5-1.66,12.49,12.49,0,0,1-.27-1.71,14.23,14.23,0,0,1-.06-1.74,15.49,15.49,0,0,1,.18-1.73,15.31,15.31,0,0,1,.38-1.69,14.4,14.4,0,0,1,.52-1.66,12.48,12.48,0,0,1,.77-1.56,10.18,10.18,0,0,1,1-1.43,7.58,7.58,0,0,1,1.24-1.21,5.16,5.16,0,0,1,1.53-.81,4,4,0,0,1,3.32.5,5.17,5.17,0,0,1,1.24,1.21,7.63,7.63,0,0,1,.84,1.53,10.29,10.29,0,0,1,.52,1.66,12.72,12.72,0,0,1,.23,1.73,14.2,14.2,0,0,1,.07,1.74A15.71,15.71,0,0,1,211.29,232.62Z"/><path class="cls-5" d="M153.76,225.93c.68-.45.66-.48,1.33-.93l1.35-.91c.68-.45.74-.36,1.41-.81s.67-.47,1.34-.92.65-.49,1.33-.94.71-.4,1.39-.85a12.8,12.8,0,0,1,4.59-1.84c.84-.12.85-.09,1.69-.21s.85-.07,1.69-.19.83-.21,1.67-.33.86,0,1.71-.11.83-.25,1.67-.37a2,2,0,0,1,1.87.91,1.91,1.91,0,0,1,.21,2h0a2,2,0,0,1-1.2,1.06c-.81.24-.8.28-1.6.52s-.84.14-1.64.39-.79.3-1.6.54-.84.15-1.64.4-.8.28-1.61.52a4.93,4.93,0,0,0-1.6.53c-.64.37-.54.5-1.07,1l-1,1.06c-.53.53-1.49.44-1,1s.75-.16,1.56-.36.83-.14,1.64-.34.79-.3,1.6-.51.84-.09,1.66-.29.78-.33,1.6-.53l1.63-.4a1.55,1.55,0,0,1,1.53.52,1.48,1.48,0,0,1,.25,1.55c-.32.81-.23.85-.55,1.66s-.43.77-.75,1.58-.33.81-.64,1.63-.18.87-.5,1.68-.35.81-.66,1.62l-.64,1.63c-.32.82-.34.81-.66,1.62a16.24,16.24,0,0,1-6.33,7.31l-1.56.87c-.78.43-.83.36-1.61.79s-1,.14-1.57.87-.15.86-.29,1.72-.07.87-.2,1.73-.09.87-.22,1.73-.15.86-.28,1.72.09.95-.33,1.72-.67,0-1.74-.08c-.5,0-1.09-.11-1.73-.22s-1.1-.24-1.7-.38-1.11-.27-1.68-.45-1.11-.33-1.65-.56a14.72,14.72,0,0,1-1.52-.87,11.74,11.74,0,0,1-1.45-1,9.71,9.71,0,0,1-1.24-1.22,8.57,8.57,0,0,1-1-1.4,8.48,8.48,0,0,1-.7-1.61,9.37,9.37,0,0,1-.35-1.72c-.07-.61,0-1.21,0-1.79s0-1.2,0-1.79.15-1.19.26-1.77.24-1.17.4-1.74.41-1.12.61-1.67.33-1.16.58-1.69.54-1.07.83-1.59.67-1,1-1.49.68-1,1-1.47.72-1,1.07-1.42.73-1,1.09-1.41a10.32,10.32,0,0,1,2.62-2.63A18.07,18.07,0,0,1,153.76,225.93Z"/><path class="cls-5" d="M245.07,216c.89.25.79.46,1.58.94s.82.44,1.61.92.77.53,1.56,1,.82.44,1.62.92.82.44,1.62.92a5.3,5.3,0,0,1,1.36,1.2,4.39,4.39,0,0,1,1.19,3.35,12.69,12.69,0,0,1,0,2.27,11.57,11.57,0,0,1-.54,2.1,13.81,13.81,0,0,0-.45,2.12,7.71,7.71,0,0,0-.08,1.62c0,.81.05.81.05,1.63s-.08.81-.08,1.63,0,.81,0,1.63a23.68,23.68,0,0,1-.4,3.18,11.3,11.3,0,0,1-3.05,5.58c-.55.59-.51.63-1.06,1.22s-.59.55-1.14,1.14-.51.64-1.06,1.23-.53,1.71-1.16,1.2.13-1,.27-1.89.23-.91.37-1.83.1-.93.25-1.85.1-.93.24-1.86.12-.93.27-1.86.51-.92.41-1.85-.62-.36-1.41-1c-.38-.32-.8-.72-1.27-1.14s-.79-.79-1.21-1.2-.82-.8-1.2-1.22-.71-.92-1-1.36a10.75,10.75,0,0,1-1-1.38,3.76,3.76,0,0,1-.52-1.62,10.29,10.29,0,0,1,.3-1.81c.11-.56.18-1.19.36-1.81s.36-1.18.55-1.76.43-1.18.63-1.73.53-1.19.73-1.69c.4-1,1-.85.65-1.72s-.68-.45-1-1.25a2.25,2.25,0,0,1,0-1.59,4,4,0,0,1,.85-1.37A8.52,8.52,0,0,1,245.07,216Z"/><path class="cls-2" d="M166.56,199.06l.43-.32a.51.51,0,0,0,.11-.71l-.93-1.26c-.47-.63-.48-.62-.95-1.25l-.93-1.27a.49.49,0,0,0-.69-.1l-.44.31a.5.5,0,0,0-.1.7l.93,1.26.93,1.26.93,1.26A.49.49,0,0,0,166.56,199.06Z"/><polygon class="cls-12" points="79.3 96.7 80.29 97.8 81.19 98.96 82 100.2 82.67 101.53 83.18 102.92 83.58 104.34 83.86 105.79 84 107.26 83.96 108.74 83.87 110.22 83.59 111.67 83.2 113.09 82.61 114.45 82.01 115.8 81.18 117.03 80.33 118.24 79.33 119.33 78.23 120.32 77.03 121.18 75.8 122 74.45 122.62 73.09 123.18 71.67 123.6 70.21 123.88 68.74 123.98 67.26 123.98 65.79 123.84 64.33 123.6 62.92 123.16 61.54 122.63 60.22 121.96 58.95 121.21 57.78 120.31 56.71 119.29 55.69 118.22 54.82 117.03 54 115.8 53.38 114.45 52.81 113.09 52.4 111.67 52.17 110.21 52.01 108.74 51.99 107.26 52.15 105.79 52.4 104.33 52.85 102.92 53.36 101.53 54.01 100.2 54.8 98.96 55.67 97.76 56.66 96.66 57.77 95.68 58.95 94.78 60.23 94.04 61.53 93.34 62.91 92.83 64.34 92.44 65.79 92.15 67.26 92.01 68.74 92.02 70.21 92.18 71.66 92.44 73.08 92.85 74.46 93.36 75.79 94.02 77.05 94.79 78.21 95.7 79.3 96.7"/><polygon class="cls-3" points="343.12 129 342.84 130.77 342.9 132.55 342.71 134.32 342.34 136.06 341.86 137.77 341.37 139.47 340.77 141.14 340.29 142.86 339.32 144.37 338.62 146 337.65 147.48 336.63 148.93 335.6 150.37 334.5 151.75 333.47 153.21 332.1 154.36 330.84 155.6 329.5 156.77 328.03 157.78 326.45 158.61 324.98 159.59 323.38 160.35 321.76 161.07 320.17 161.85 318.47 162.36 316.75 162.78 315.03 163.22 313.32 163.7 311.55 163.89 309.77 163.95 308 163.9 306.22 164.03 304.45 163.93 302.71 163.54 300.96 163.27 299.24 162.84 297.49 162.51 295.83 161.87 294.2 161.15 292.52 160.55 290.98 159.67 289.51 158.66 288.02 157.7 286.61 156.63 285.26 155.48 283.82 154.43 282.59 153.15 281.5 151.75 280.36 150.39 279.37 148.93 278.33 147.49 277.43 145.97 276.64 144.38 275.8 142.82 275.13 141.17 274.67 139.46 274.22 137.75 273.73 136.04 273.33 134.31 273.28 132.53 273.03 130.78 272.93 129 272.99 127.22 273.05 125.44 273.4 123.7 273.83 121.98 274.21 120.25 274.59 118.52 275.15 116.83 275.9 115.22 276.51 113.55 277.32 111.97 278.36 110.53 279.31 109.03 280.3 107.56 281.52 106.27 282.69 104.94 283.96 103.7 285.22 102.46 286.65 101.41 288.04 100.32 289.47 99.27 290.99 98.36 292.56 97.52 294.2 96.84 295.88 96.28 297.49 95.5 299.21 95.07 300.94 94.65 302.7 94.42 304.47 94.29 306.22 93.92 308 94.13 309.77 94.1 311.54 94.23 313.31 94.34 315.06 94.66 316.8 95.01 318.46 95.66 320.13 96.25 321.78 96.89 323.39 97.64 324.92 98.51 326.51 99.31 328 100.27 329.36 101.41 330.87 102.36 332.11 103.64 333.28 104.97 334.48 106.27 335.63 107.62 336.67 109.05 337.63 110.53 338.71 111.95 339.49 113.56 340.1 115.22 340.95 116.8 341.41 118.52 341.91 120.22 342.29 121.95 342.6 123.7 342.86 125.45 343.01 127.22 343.12 129"/><polygon class="cls-7" points="258.5 130.93 258.05 132.75 257.07 134.35 255.67 135.59 253.94 136.3 252.07 136.5 250.25 136.05 248.64 135.08 247.4 133.67 246.67 131.94 246.52 130.07 246.93 128.24 247.89 126.62 249.33 125.41 251.06 124.67 252.93 124.51 254.75 124.95 256.37 125.91 257.58 127.34 258.32 129.06 258.5 130.93"/><text class="cls-13" transform="translate(290.74 134.42)">$15</text></svg>
