<svg id="illustrations" xmlns="http://www.w3.org/2000/svg" viewBox="0 0 400 288"><defs><style>.cls-1,.cls-11,.cls-12{fill:none;stroke-miterlimit:10;}.cls-1{stroke:#fab42d;}.cls-1,.cls-11{stroke-width:2px;}.cls-2{fill:#f9e3aa;}.cls-3{fill:#cebb8e;}.cls-4{fill:#fbc357;}.cls-5{fill:#e2dfd6;}.cls-6{fill:#081d4c;}.cls-7{fill:#f37f82;}.cls-8{fill:#2dd6a5;}.cls-9{fill:#fab42d;}.cls-10{fill:#3e82f7;}.cls-11{stroke:#3e82f7;}.cls-12{stroke:#e2dfd6;stroke-width:3px;}</style></defs><title>illustration-home-whitelabel</title><polygon class="cls-1" points="178.74 71.16 177.47 72.41 176.21 73.67 174.94 74.93 173.87 76.37 172.56 77.58 171.45 79 170.25 80.32 168.87 81.47 167.58 82.7 166.38 84.02 165.16 85.32 164.03 86.72 162.7 87.92 161.49 89.23 160.32 90.59 159.05 91.85 157.77 93.11 156.58 94.53 154.8 94.07 153.06 93.69 151.33 93.24 149.6 92.78 147.87 92.37 146.13 91.96 144.38 91.62 142.65 91.16 140.94 90.65 139.2 90.27 137.46 89.83 135.73 89.41 134.03 88.84 132.25 88.57 130.55 88.03 128.82 87.56 127.06 87.21 125.3 86.83 124.68 85.14 124.19 83.43 123.71 81.71 123.28 79.98 122.76 78.27 122.17 76.58 121.91 74.8 121.31 73.11 120.74 71.42 120.18 69.73 119.81 67.97 119.21 66.29 118.82 64.54 118.22 62.85 117.94 61.08 117.22 59.42 116.82 57.67 116.38 55.99 117.51 54.68 118.83 53.47 119.94 52.07 121.11 50.71 122.53 49.6 123.55 48.11 125.01 47.03 126.07 45.58 127.33 44.31 128.67 43.14 129.84 41.77 130.99 40.41 132.21 39.1 133.56 37.91 134.69 36.53 136.11 35.41 137.18 33.95 138.46 32.65 140.23 33.08 141.94 33.58 143.72 33.8 145.4 34.44 147.16 34.75 148.91 35.11 150.6 35.71 152.36 36.06 154.09 36.48 155.85 36.81 157.57 37.28 159.29 37.74 161.01 38.25 162.75 38.64 164.49 39.08 166.25 39.39 167.97 39.92 169.81 40.22 170.06 42.07 170.83 43.7 171.07 45.49 171.63 47.19 172.24 48.87 172.74 50.58 173.32 52.27 173.67 54.03 174.29 55.71 174.77 57.42 175.24 59.15 175.89 60.82 176.31 62.56 176.66 64.32 177.17 66.03 177.66 67.75 178.34 69.42 178.74 71.16"/><polygon class="cls-2" points="103.01 175.84 103.62 177.2 104.11 178.61 104.83 179.93 105.32 181.34 105.91 182.71 106.47 184.1 107.16 185.43 107.59 186.87 108.16 188.25 108.8 189.61 109.36 190.99 109.98 192.35 110.45 193.77 111.05 195.14 111.63 196.51 112.27 197.87 112.82 199.25 113.36 200.65 113.89 202.04 114.38 203.46 114.92 204.85 115.62 206.19 116.08 207.62 116.69 208.99 117.2 210.41 117.73 211.8 118.34 213.12 118.74 214.52 119.23 215.88 119.77 217.22 120.24 218.59 120.62 220 121.1 221.37 121.53 222.76 121.87 224.18 122.35 225.55 122.79 226.93 123.16 228.33 123.49 229.75 123.86 231.15 124.27 232.54 124.67 233.93 125.24 235.26 125.66 236.65 126.2 237.99 126.61 239.38 127.14 240.72 127.73 242.05 128.44 243.31 129.08 244.6 129.85 245.83 130.59 247.06 131.38 248.28 132.3 249.4 133.38 250.36 134.37 251.4 135.49 252.41 136.6 253.44 137.84 254.3 139.09 255.14 140.38 255.9 141.73 256.57 143.06 257.26 144.46 257.8 145.84 258.4 147.31 258.75 148.81 258.89 150.3 259.06 151.79 258.87 153.26 258.63 154.7 258.25 156.06 257.63 157.45 257.04 158.3 255.8 159.03 254.51 159.41 253.07 159.82 251.64 160.13 250.19 160.46 248.74 160.78 247.28 160.94 245.8 161.24 244.34 161.37 242.85 161.69 241.39 161.91 239.92 161.99 238.43 162.22 236.96 162.27 235.47 162.5 233.99 162.49 232.49 162.7 231.01 162.77 229.52 162.93 228.03 163 226.54 162.99 225.04 163.22 223.56 163.22 222.06 163.41 220.58 163.35 219.09 163.38 217.59 163.58 216.11 163.69 214.62 163.62 213.12 163.65 211.63 163.68 210.15 163.78 208.66 163.83 207.24 162.4 207.27 160.96 207.13 159.51 207.1 158.06 207.09 156.62 207.15 155.17 207.16 153.72 207.09 152.28 207.15 150.83 207.19 149.38 207.12 147.93 207.25 146.48 207.09 145.02 207.17 143.63 207.24 143.65 208.65 143.72 210.12 143.85 211.59 143.96 213.07 144.02 214.54 144.09 216.02 144.15 217.5 144.25 218.97 144.36 220.45 144.46 221.92 143.73 220.67 142.98 219.41 142.14 218.21 141.42 216.93 140.61 215.71 139.82 214.48 139.01 213.26 138.26 212 137.38 210.82 136.62 209.56 135.85 208.32 135.13 207.04 134.33 205.8 133.74 204.45 132.98 203.19 132.11 201.99 131.35 200.72 130.63 199.43 129.84 198.19 129.13 196.89 128.4 195.61 127.67 194.32 126.98 193.03 126.44 191.65 125.73 190.37 125.1 189.04 124.42 187.74 123.77 186.43 123.2 185.08 122.8 183.69 122.64 182.25 122.56 180.82 122.46 179.38 122.64 177.94 122.9 176.53 123.23 175.13 123.58 173.73 123.88 172.32 124.36 170.96 124.67 169.55 124.94 168.14 125.18 166.72 125.26 165.28 125.12 163.85 124.82 162.49 124.4 161.15 123.68 159.93 122.7 158.91 121.56 158.12 120.42 157.29 119.11 156.77 117.76 156.47 116.31 156.71 114.86 156.95 113.43 157.35 111.97 157.55 110.54 157.88 109.09 158.16 107.59 158.29 106.7 159.55 105.78 160.78 104.79 161.98 104.64 163.54 104.36 165.06 104.25 166.61 104.1 168.15 103.75 169.67 103.68 171.22 103.46 172.76 103.25 174.3 103.01 175.84"/><polygon class="cls-3" points="290.14 175.79 289.56 177.21 289.03 178.61 288.42 179.97 287.76 181.31 287.3 182.74 286.58 184.06 286.11 185.48 285.57 186.87 284.92 188.22 284.3 189.59 283.75 190.97 283.14 192.34 282.58 193.72 282.15 195.16 281.58 196.54 280.88 197.87 280.42 199.29 279.89 200.69 279.26 202.04 278.72 203.44 278.13 204.81 277.52 206.19 277.04 207.61 276.49 209 275.9 210.38 275.38 211.78 274.85 213.13 274.43 214.52 273.93 215.88 273.51 217.27 273.04 218.63 272.6 220.02 272.04 221.37 271.72 222.79 271.28 224.18 270.9 225.58 270.45 226.96 270.08 228.36 269.73 229.77 269.16 231.11 268.75 232.5 268.37 233.89 268 235.29 267.55 236.67 267.02 238.01 266.49 239.36 265.95 240.7 265.34 242.01 264.74 243.32 264.02 244.58 263.4 245.89 262.53 247.04 261.76 248.27 260.76 249.32 259.84 250.42 258.78 251.41 257.62 252.36 256.48 253.35 255.26 254.22 254.03 255.09 252.81 255.96 251.49 256.69 250.12 257.32 248.71 257.82 247.31 258.4 245.82 258.63 244.36 259.01 242.85 258.94 241.36 258.91 239.89 258.66 238.41 258.38 237.02 257.77 235.76 256.95 234.76 255.86 234.19 254.48 233.75 253.06 233.25 251.66 232.93 250.21 232.7 248.74 232.31 247.29 232.18 245.81 231.81 244.35 231.6 242.88 231.57 241.38 231.35 239.9 231.09 238.43 231.05 236.94 230.83 235.47 230.68 233.99 230.64 232.5 230.5 231.01 230.42 229.52 230.28 228.03 230.08 226.54 230.01 225.05 230.03 223.56 229.9 222.07 229.85 220.58 229.66 219.09 229.67 217.6 229.56 216.11 229.57 214.61 229.41 213.13 229.46 211.63 229.31 210.15 229.28 208.66 229.32 207.22 230.75 207.25 232.2 207.14 233.64 207.26 235.09 207.13 236.54 207.12 237.98 207.13 239.43 207.24 240.88 207.18 242.33 207.2 243.78 207.11 245.22 207.14 246.68 207.15 248.13 207.22 249.58 207.19 249.43 208.65 249.34 210.12 249.28 211.59 249.28 213.07 249.13 214.54 249.04 216.02 248.94 217.49 248.77 218.97 248.68 220.44 248.65 221.93 249.41 220.66 250.3 219.49 250.99 218.19 251.83 216.99 252.53 215.71 253.41 214.53 254.18 213.28 254.93 212.02 255.73 210.8 256.48 209.53 257.17 208.24 257.94 206.98 258.75 205.76 259.45 204.47 260.26 203.24 261 201.97 261.71 200.67 262.53 199.44 263.21 198.13 263.91 196.82 264.66 195.55 265.44 194.3 266.16 193.02 266.87 191.74 267.52 190.42 268.13 189.08 268.7 187.73 269.42 186.44 269.86 185.04 271.24 184.49 272.58 183.85 273.89 183.15 275.27 182.6 276.62 181.99 278 181.44 279.29 180.71 280.68 180.16 282.04 179.57 283.35 178.87 284.74 178.33 286.05 177.63 287.43 177.07 288.8 176.48 290.14 175.79"/><polygon class="cls-4" points="242.29 170.29 241.01 169.58 239.82 168.73 238.55 168 237.29 167.26 235.95 166.66 234.73 165.86 233.47 165.13 232.21 164.38 230.93 163.69 229.73 162.85 228.46 162.14 227.2 161.4 225.87 160.78 224.68 159.92 223.48 159.09 222.14 158.48 220.96 157.62 219.68 156.91 218.48 156.09 217.14 155.48 215.92 154.67 214.77 153.75 213.52 153.01 212.23 152.32 210.99 151.56 209.72 150.86 208.51 150.09 207.11 149.91 205.85 149.24 204.49 148.78 203.39 147.87 202.18 147.11 201.03 146.28 199.95 145.35 198.9 144.4 197.75 143.53 197.75 143.19 197.45 143.22 197.16 143.04 197.04 143.45 195.92 144.3 194.97 145.36 193.89 146.29 192.71 147.09 191.51 147.85 190.37 148.69 189.15 149.45 187.79 149.9 186.41 150.15 185.1 150.74 183.85 151.5 182.61 152.24 181.43 153.1 180.18 153.85 179 154.71 177.7 155.38 176.4 156.05 175.28 157.02 174 157.72 172.66 158.32 171.54 159.28 170.24 159.94 169.04 160.78 167.68 161.35 166.5 162.22 165.29 163.03 164.03 163.77 162.69 164.35 161.42 165.09 160.17 165.83 158.97 166.66 157.69 167.37 156.36 168 155.17 168.85 153.9 169.58 152.67 170.4 151.44 171.2 150.22 172.02 149.14 173.04 148.15 174.13 147.24 175.3 146.45 176.56 145.57 177.75 144.9 179.07 144.18 180.36 143.73 181.78 143.21 183.16 142.64 184.52 142.26 185.95 141.86 187.38 141.49 188.81 141.34 190.29 141.18 191.76 140.9 193.22 140.84 194.7 140.79 196.18 140.71 197.66 140.72 199.14 140.77 200.62 140.74 202.1 140.8 203.58 140.87 205.07 141.14 206.53 141.35 208 141.47 209.52 143.03 209.39 144.57 209.47 146.1 209.6 147.64 209.45 149.17 209.57 150.71 209.47 152.24 209.46 153.7 209.55 153.8 210.93 153.6 212.38 153.6 213.83 153.64 215.29 153.59 216.74 153.61 218.19 153.43 219.63 153.41 221.08 153.42 222.54 153.56 223.99 153.38 225.44 153.47 226.9 153.38 228.34 153.28 229.79 153.33 231.25 153.3 232.7 153.06 234.15 153.03 235.61 153.05 237.07 152.93 238.52 153.07 239.98 152.83 241.43 152.85 242.89 152.84 244.34 152.93 245.81 152.86 247.26 152.66 248.71 152.62 250.16 152.62 251.62 152.61 253.08 152.36 254.53 152.24 255.97 152.34 257.43 152.24 258.85 152.07 260.26 151.82 261.66 151.77 263.09 151.4 264.47 151.4 265.9 151.22 267.31 150.86 268.69 150.67 270.1 150.54 271.52 150.27 272.91 150.01 274.3 149.94 275.73 149.54 277.11 151.03 277.17 152.52 277.13 154.01 277.05 155.49 276.98 156.97 277.14 158.46 277.04 159.94 277.02 161.43 277.06 162.91 277.08 164.4 277.17 165.88 277.11 167.37 277.06 168.86 277.02 170.34 277.09 171.83 277 173.32 277.08 174.81 277.04 176.29 277.09 177.78 277.08 179.27 277.13 180.76 277.11 182.25 276.99 183.74 277.2 185.22 277.15 186.71 277.07 188.2 276.97 189.69 277.09 191.18 277.11 192.67 276.98 194.16 277.03 195.66 277.14 197.16 277.05 197.75 277.16 199.23 277.02 200.71 277.18 202.2 277.09 203.69 277.16 205.17 277.1 206.65 277.15 208.14 277.14 209.62 277.2 211.11 277.06 212.59 277.06 214.08 277.12 215.56 277.04 217.05 277.09 218.54 277.04 220.03 276.97 221.51 277.14 223 277.09 224.49 277.13 225.98 277.19 227.47 277.21 228.95 277.21 230.44 277.16 231.93 277.11 233.42 277.07 234.91 276.99 236.39 277.13 237.88 276.95 239.38 277.13 240.87 277.21 242.36 276.96 243.85 277.1 245.36 277.12 245.02 275.71 244.85 274.3 244.47 272.93 244.42 271.5 244.23 270.09 243.9 268.71 243.63 267.31 243.63 265.89 243.44 264.48 243.13 263.09 243 261.68 242.86 260.26 242.66 258.85 242.76 257.41 242.51 255.98 242.58 254.52 242.33 253.08 242.36 251.63 242.29 250.18 242.17 248.73 242.27 247.27 242.21 245.81 242.08 244.37 242.14 242.91 241.85 241.47 241.81 240.01 241.92 238.56 241.83 237.11 241.7 235.66 241.62 234.21 241.73 232.75 241.65 231.29 241.55 229.84 241.7 228.37 241.62 226.92 241.62 225.46 241.51 224.01 241.5 222.55 241.39 221.1 241.32 219.65 241.43 218.19 241.38 216.73 241.21 215.28 241.33 213.83 241.16 212.38 241.23 210.93 241.08 209.43 242.66 209.39 244.19 209.57 245.72 209.4 247.26 209.39 248.79 209.39 250.33 209.56 251.87 209.42 253.45 209.54 253.5 208 253.65 206.53 254 205.07 254.04 203.59 254.2 202.11 254.07 200.62 254.26 199.14 254.14 197.66 254.26 196.18 253.94 194.71 253.98 193.22 253.8 191.75 253.43 190.31 253.23 188.84 252.97 187.38 252.55 185.97 252.24 184.51 251.66 183.15 251.24 181.73 250.65 180.37 250.06 179.01 249.28 177.75 248.57 176.45 247.63 175.31 246.72 174.15 245.77 173.01 244.73 171.96 243.44 171.21 242.29 170.29"/><polygon class="cls-5" points="116.3 90.59 114.88 90.79 113.43 90.98 111.98 91.2 110.53 91.39 109.09 91.64 107.64 91.82 106.19 92.04 104.75 92.29 103.3 92.47 101.85 92.68 100.41 92.92 98.96 93.15 97.51 93.36 96.06 93.57 94.6 93.75 93.15 93.99 91.69 94.19 91.9 95.67 92.11 97.14 92.33 98.61 92.58 100.08 92.79 101.55 93 103.02 93.19 104.49 93.45 105.96 93.63 107.44 93.86 108.91 94.1 110.39 94.31 111.86 94.52 113.34 95.96 113.14 97.41 112.93 98.86 112.72 100.3 112.47 101.75 112.29 103.2 112.06 104.65 111.86 106.09 111.63 107.54 111.43 108.99 111.22 110.43 110.98 111.89 110.81 113.33 110.57 114.78 110.36 116.23 110.16 117.69 109.95 119.12 109.7 118.92 108.25 118.73 106.77 118.5 105.3 118.28 103.83 118.06 102.36 117.84 100.89 117.6 99.42 117.42 97.94 117.19 96.47 116.99 95 116.76 93.52 116.52 92.05 116.3 90.59"/><polygon class="cls-6" points="197.5 32.91 196.03 33.05 194.57 33.26 193.1 33.44 191.67 33.76 190.25 34.15 188.79 34.42 187.4 34.9 186.03 35.44 184.66 36 183.25 36.45 181.93 37.12 180.66 37.88 179.4 38.65 178.12 39.4 176.98 40.34 175.87 41.31 174.72 42.25 173.68 43.3 172.73 44.44 171.87 45.64 171.16 46.94 170.31 48.15 169.65 49.48 169.05 50.84 168.55 52.23 168.22 53.67 167.88 55.11 167.47 56.54 167.33 58.01 167.14 59.48 167.03 60.96 167.05 62.45 167.13 63.92 167.02 65.39 167.02 66.87 166.93 68.34 166.92 69.82 166.82 71.29 166.71 72.77 166.8 74.25 166.56 75.72 166.52 77.19 166.46 78.67 166.39 80.15 166.24 81.62 166.06 83.1 165.89 84.57 165.75 86.05 165.66 87.52 165.56 89 165.27 90.46 165.2 91.94 164.94 93.4 164.75 94.87 164.6 96.34 164.42 97.81 164.18 99.27 163.97 100.73 163.9 102.21 163.69 103.67 163.35 105.12 163.29 106.61 162.94 108.05 162.78 109.52 162.51 110.98 162.34 112.45 162.05 113.9 161.75 115.35 161.53 116.81 161.35 118.28 161.12 119.75 160.78 121.19 160.6 122.65 160.35 124.11 159.95 125.53 159.69 127 161.17 126.96 162.65 126.93 164.12 127 165.59 127.05 167.06 126.91 168.53 127.03 170.01 127.02 171.48 127.03 172.96 127.04 174.43 126.94 175.91 127.03 177.38 127.03 178.86 126.93 180.33 127.06 181.81 127.06 183.28 127.04 184.75 126.98 186.23 126.99 187.7 126.89 189.18 127 190.66 126.92 192.13 126.92 193.61 126.9 195.09 126.98 196.58 127.04 198.42 126.95 199.89 127.07 201.36 127 202.84 126.89 204.31 126.97 205.78 127.06 207.25 127.06 208.73 126.92 210.2 127.05 211.68 126.89 213.15 127.06 214.63 127.04 216.1 126.9 217.57 126.93 219.05 126.92 220.53 126.98 222 127.02 223.47 126.89 224.95 126.93 226.42 126.9 227.9 127.04 229.38 126.91 230.85 126.95 232.33 126.93 233.81 126.89 235.27 126.9 235.04 125.53 234.82 124.07 234.41 122.64 234.24 121.17 233.84 119.74 233.61 118.28 233.33 116.83 233.12 115.37 232.87 113.92 232.66 112.46 232.5 110.99 232.24 109.53 232.04 108.07 231.74 106.62 231.6 105.15 231.28 103.7 231.06 102.24 231.03 100.76 230.84 99.3 230.56 97.84 230.34 96.39 230.19 94.92 229.94 93.46 229.79 91.98 229.62 90.52 229.46 89.05 229.29 87.58 229.17 86.11 229.07 84.63 228.93 83.16 228.75 81.69 228.67 80.21 228.57 78.73 228.54 77.25 228.35 75.77 228.2 74.3 228.19 72.81 228.13 71.33 227.99 69.85 228.05 68.36 227.96 66.88 228.02 65.4 228.01 63.92 227.95 62.45 227.84 60.97 227.81 59.49 227.63 58.02 227.49 56.55 227.17 55.1 226.88 53.65 226.32 52.27 225.82 50.89 225.3 49.5 224.66 48.17 223.98 46.86 223.07 45.69 222.27 44.44 221.21 43.4 220.21 42.32 219.11 41.33 217.99 40.37 216.86 39.42 215.64 38.58 214.37 37.83 213.09 37.07 211.74 36.48 210.37 35.93 209.03 35.31 207.6 34.9 206.16 34.55 204.77 34.04 203.32 33.74 201.89 33.4 200.41 33.27 198.95 33.14 197.5 32.91"/><polygon class="cls-2" points="211.57 151.3 210.72 150.09 210.2 148.71 209.72 147.32 209.22 145.94 208.95 144.49 208.62 143.05 208.2 141.63 208.07 140.16 207.82 138.7 207.57 137.25 207.53 135.77 207.34 134.31 207.09 132.85 207.07 131.37 207.03 129.9 206.82 128.44 206.87 126.96 206.74 125.48 206.83 124 206.89 122.51 206.89 121.03 206.93 119.55 206.8 118.07 206.91 116.58 206.86 115.1 206.91 113.62 206.83 112.13 206.83 110.64 206.95 109.16 206.77 107.68 206.75 106.19 206.89 104.71 206.87 103.22 206.84 101.74 206.82 100.25 206.93 98.77 206.81 97.28 206.86 95.8 206.9 94.31 206.89 92.82 206.77 91.33 206.83 89.86 205.41 89.75 203.96 89.89 202.51 89.85 201.05 89.8 199.6 89.71 198.15 89.9 196.7 89.71 195.24 89.83 193.79 89.85 192.33 89.86 190.88 89.85 189.42 89.86 187.97 89.85 187.9 91.31 187.85 92.8 187.9 94.28 188.06 95.76 188.06 97.25 187.97 98.73 188 100.21 187.88 101.69 187.96 103.18 187.95 104.66 187.93 106.14 187.83 107.63 187.96 109.12 188.02 110.6 187.96 112.09 187.95 113.57 187.98 115.05 187.95 116.53 187.91 118.02 188.04 119.5 187.97 120.99 187.91 122.48 188.03 123.97 188 125.46 187.92 126.95 188.08 128.44 187.97 129.92 187.79 131.38 187.78 132.86 187.4 134.3 187.45 135.78 187.25 137.24 186.95 138.69 186.77 140.15 186.61 141.62 186.19 143.04 186 144.51 185.64 145.95 185.16 147.34 184.76 148.77 183.98 150.03 183.19 151.25 182.48 152.52 182.31 153.92 182.64 155.3 183.52 156.47 184.77 157.24 186.05 157.91 187.42 158.38 188.78 158.88 190.18 159.24 191.61 159.5 193.06 159.64 194.5 159.79 195.95 159.93 197.41 159.98 198.87 159.91 200.31 159.8 201.77 159.72 203.22 159.59 204.66 159.37 206.03 158.85 207.45 158.51 208.79 157.94 210.08 157.27 211.18 156.33 212.22 155.32 212.68 153.93 212.29 152.54 211.57 151.3"/><polygon class="cls-3" points="187.94 124.19 189.27 124.68 190.59 125.13 191.95 125.47 193.32 125.74 194.71 125.92 196.1 126.04 197.5 126.05 198.87 126.05 200.24 125.94 201.6 125.75 202.94 125.46 204.27 125.13 205.57 124.71 206.86 124.26 206.9 122.77 206.88 121.27 206.83 119.78 206.87 118.28 206.89 116.79 206.85 115.29 206.88 113.8 206.89 112.3 206.89 110.81 206.85 109.31 206.85 107.81 206.89 106.32 206.88 104.82 206.84 103.33 206.85 101.83 206.89 100.33 206.85 98.84 206.84 97.34 206.84 95.84 206.87 94.34 206.87 92.84 206.84 91.34 206.89 89.81 205.41 89.85 203.96 89.84 202.5 89.85 201.06 89.85 199.6 89.85 198.15 89.81 196.7 89.84 195.24 89.86 193.79 89.82 192.33 89.82 190.88 89.86 189.42 89.82 187.98 89.86 187.97 91.33 187.95 92.82 187.95 94.31 187.98 95.8 187.93 97.29 187.97 98.78 187.96 100.28 187.95 101.77 187.99 103.26 187.97 104.75 187.93 106.25 187.96 107.74 187.93 109.24 187.93 110.73 187.98 112.22 187.97 113.71 187.99 115.21 187.97 116.7 187.93 118.2 187.97 119.69 187.93 121.19 187.92 122.69 187.94 124.19"/><polygon class="cls-7" points="306.76 132.51 306.66 133.95 306.47 135.39 306.2 136.81 305.81 138.21 305.25 139.54 304.6 140.83 303.88 142.08 303.03 143.26 302.12 144.38 301.09 145.4 299.99 146.35 298.82 147.2 297.57 147.94 296.26 148.55 294.91 149.06 293.52 149.47 292.11 149.81 290.67 149.96 289.22 150.04 287.77 150 286.34 149.79 284.92 149.51 283.54 149.05 282.18 148.57 280.87 147.94 279.66 147.15 278.48 146.32 277.38 145.38 276.32 144.38 275.4 143.27 274.57 142.08 273.81 140.85 273.18 139.54 272.65 138.2 272.24 136.81 271.93 135.39 271.74 133.96 271.7 132.51 271.78 131.06 271.95 129.62 272.26 128.21 272.67 126.82 273.17 125.47 273.83 124.17 274.57 122.93 275.39 121.74 276.32 120.63 277.36 119.62 278.46 118.68 279.64 117.83 280.9 117.12 282.2 116.48 283.54 115.95 284.92 115.51 286.34 115.21 287.78 115.07 289.22 114.96 290.67 115.04 292.11 115.21 293.52 115.54 294.92 115.93 296.27 116.44 297.57 117.09 298.82 117.83 299.98 118.69 301.09 119.62 302.11 120.64 303.02 121.77 303.89 122.93 304.62 124.18 305.27 125.47 305.81 126.81 306.24 128.2 306.49 129.63 306.68 131.06 306.76 132.51"/><polygon class="cls-2" points="197.5 121.45 197.5 121.43 196.03 121.34 194.55 121.27 193.09 121.1 191.63 120.84 190.21 120.44 188.81 119.96 187.43 119.44 186.11 118.76 184.85 118 183.57 117.27 182.34 116.45 181.19 115.53 180.15 114.47 179.07 113.48 178.02 112.44 177.12 111.26 176.37 109.99 175.57 108.75 174.78 107.5 174.2 106.14 173.73 104.75 173.18 103.37 172.8 101.95 172.5 100.5 172.35 99.04 172.15 97.57 172.08 96.09 172.09 94.65 172.17 93.21 172.08 91.77 172.09 90.33 172.1 88.89 172.06 87.45 172.2 86.01 172.12 84.57 172.2 83.12 172.19 81.68 172.22 80.24 172.18 78.8 172.22 77.35 172.11 75.91 172.21 74.47 172.07 73.03 172.11 71.59 172.09 70.14 172.1 68.7 172.19 67.25 172.14 65.81 172.14 64.36 172.14 62.91 172.25 61.44 172.3 59.96 172.49 58.49 172.87 57.07 173.18 55.62 173.74 54.26 174.22 52.86 174.78 51.49 175.55 50.23 176.26 48.93 177.19 47.78 178.09 46.62 179.06 45.51 180.14 44.51 181.25 43.53 182.37 42.58 183.58 41.74 184.84 40.97 186.15 40.31 187.44 39.59 188.81 39.03 190.21 38.55 191.66 38.28 193.09 37.93 194.56 37.78 196.02 37.57 197.5 37.59 197.5 37.62 198.97 37.65 200.44 37.73 201.9 37.95 203.35 38.24 204.76 38.67 206.18 39.07 207.53 39.67 208.92 40.18 210.21 40.9 211.45 41.7 212.64 42.57 213.83 43.45 214.93 44.43 215.89 45.56 216.91 46.62 217.85 47.76 218.68 48.98 219.43 50.25 220.1 51.56 220.75 52.88 221.29 54.25 221.73 55.65 222.1 57.08 222.45 58.51 222.69 59.96 222.83 61.43 222.92 62.91 222.9 64.35 222.86 65.79 222.93 67.23 222.82 68.67 222.81 70.11 222.83 71.55 222.91 72.99 222.81 74.43 222.84 75.88 222.84 77.32 222.92 78.76 222.81 80.2 222.81 81.65 222.89 83.09 222.8 84.53 222.79 85.97 222.82 87.42 222.89 88.86 222.8 90.31 222.79 91.75 222.87 93.2 222.81 94.64 222.83 96.09 222.75 97.57 222.68 99.04 222.51 100.51 222.22 101.96 221.84 103.38 221.26 104.75 220.73 106.12 220.09 107.45 219.53 108.82 218.71 110.05 217.82 111.23 216.95 112.42 215.89 113.45 214.87 114.51 213.84 115.57 212.64 116.44 211.39 117.21 210.16 118.04 208.86 118.72 207.57 119.45 206.18 119.94 204.77 120.39 203.33 120.7 201.9 121.06 200.45 121.32 198.97 121.32 197.5 121.45"/><polygon class="cls-3" points="222.87 68.91 222.85 67.41 222.81 65.91 222.82 64.41 222.84 62.91 222.76 61.41 222.72 59.91 222.49 58.42 222.16 56.96 221.74 55.52 221.24 54.11 220.58 52.76 219.82 51.47 218.97 50.23 218.14 48.97 217.13 47.86 216.15 46.73 215.11 45.64 214 44.64 212.85 43.66 211.58 42.86 210.35 42 209.02 41.3 207.68 40.62 206.29 40.08 204.87 39.59 203.45 39.1 201.98 38.77 200.49 38.59 199 38.41 197.5 38.41 196 38.4 194.5 38.59 193.02 38.8 191.56 39.14 190.1 39.53 188.71 40.07 187.3 40.6 185.94 41.24 184.64 41.99 183.41 42.85 182.2 43.73 181.02 44.66 179.91 45.67 178.86 46.74 177.86 47.85 176.89 49 176 50.21 175.16 51.45 174.39 52.75 173.71 54.09 173.22 55.51 172.82 56.95 172.58 58.44 172.3 59.91 172.16 61.41 172.12 62.91 172.11 64.4 172.16 65.9 172.1 67.4 172.12 68.92 173.59 68.89 175.03 68.88 176.47 68.87 177.92 68.92 179.36 68.86 180.81 68.88 182.26 68.87 183.71 68.88 185.15 68.94 186.59 68.93 188.04 68.95 189.49 68.9 190.94 68.9 192.39 68.89 193.83 68.86 195.28 68.87 196.73 68.91 198.18 68.87 199.63 68.88 201.08 68.93 202.53 68.89 203.98 68.86 205.43 68.86 206.88 68.87 208.33 68.85 209.78 68.86 211.22 68.86 212.68 68.85 214.13 68.92 215.58 68.87 217.03 68.94 218.48 68.88 219.94 68.86 221.39 68.86 222.87 68.91"/><path class="cls-7" d="M185.72,103.62c.48.18.93.39,1.37.6l-.07-.05c.48.12.94.29,1.4.44l-.08,0c.48.1.94.23,1.41.35l-.09,0c.47.1.94.19,1.41.3l-.13,0c.48.06.95.13,1.42.21l-.16,0c.58,0,1.18.11,1.74.13s1.11.07,1.66.09,1.1,0,1.66,0h1.6c.36,0,.72,0,1.08-.06s.71-.06,1.06-.08c.69,0,1.44-.13,2.17-.18l-.19,0c1-.17,2-.35,2.94-.5l-.12.05c.49-.13,1-.26,1.49-.35l-.06,0c.5-.13,1-.29,1.5-.4l-.06,0c.48-.19,1-.37,1.48-.52-.26.46-.55.9-.85,1.32l-.06,0c-.35.39-.73.73-1.1,1.09l-.06,0c-.39.34-.8.64-1.21.94l-.12.05q-.67.39-1.35.75c-.46.23-.93.44-1.39.65l-.2,0a22.87,22.87,0,0,1-2.26.6,20.08,20.08,0,0,1-2.32.35h-.15c-.62,0-1.21,0-1.85,0a14.11,14.11,0,0,1-1.93-.13,15,15,0,0,1-1.91-.34c-.63-.15-1.2-.33-1.8-.52l-.16,0c-.44-.19-.87-.39-1.3-.6l-.13,0c-.41-.24-.82-.51-1.22-.76l-.09,0c-.38-.3-.76-.6-1.12-.92l-.08,0c-.33-.36-.67-.7-1-1.08l-.07-.05C186.19,104.51,185.94,104.08,185.72,103.62Z"/><polygon class="cls-5" points="249.9 214.99 248.45 215.2 246.99 215.29 245.54 215.45 244.08 215.58 242.63 215.77 241.17 215.93 239.71 216.01 238.25 216.18 236.81 216.49 235.33 216.47 233.89 216.78 232.43 216.95 230.91 216.9 229.41 216.73 227.99 216.23 226.62 215.61 225.49 214.61 224.3 213.68 223.56 212.37 222.82 211.06 222.38 209.63 222.11 208.15 222.14 206.64 222.57 205.19 223.06 203.82 223.42 202.4 223.98 201.06 224.61 199.74 225.29 198.45 225.99 197.18 226.78 195.96 227.41 194.63 228.35 193.51 229.22 192.35 230.04 191.14 230.97 190.02 232.02 189 232.96 187.89 233.95 186.82 235.03 185.84 236.08 184.83 237.22 183.92 238.42 183.09 239.45 182.05 240.73 181.32 241.82 180.34 243.12 179.68 244.34 178.88 245.59 178.13 246.8 177.32 248.13 176.73 249.43 176.05 250.72 175.39 252.09 174.88 253.41 174.26 254.75 173.7 256.11 173.18 257.44 172.57 258.85 172.2 260.23 171.75 261.61 171.25 263.01 170.88 264.41 170.46 265.86 170.22 267.3 170.02 268.72 169.71 270.16 169.46 271.57 169.06 273.04 169 274.49 168.91 275.95 168.64 277.43 168.45 278.92 168.51 280.39 168.44 281.88 168.41 283.36 168.33 284.84 168.4 286.31 168.54 287.79 168.65 289.28 168.57 290.74 168.91 292.21 169.09 293.7 169.14 295.16 169.36 296.62 169.67 298.06 170 299.51 170.31 300.95 170.68 302.35 171.19 303.8 171.5 305.24 171.87 306.63 172.38 308.01 172.92 309.33 173.61 310.73 174.12 312.09 174.71 313.38 175.44 314.75 176 316.05 176.73 317.31 177.5 318.48 178.43 319.74 179.21 320.95 180.07 322.08 181.02 323.31 181.86 324.34 182.92 325.56 183.78 326.6 184.85 327.6 185.94 328.47 187.14 329.57 188.15 330.29 189.47 331.25 190.6 332.02 191.87 332.86 193.09 333.53 194.42 334.08 195.8 334.77 197.11 335.23 198.53 335.71 199.93 336 201.38 336.39 202.81 336.73 204.26 336.83 205.74 336.94 207.22 337.03 208.7 336.96 210.18 336.81 211.65 336.73 213.13 336.55 214.6 336.37 216.08 335.91 217.49 335.47 218.91 335.1 220.34 334.59 221.74 333.9 223.05 333.23 224.37 332.74 225.78 331.87 227 331.18 228.31 330.38 229.55 329.52 230.76 328.7 232 327.69 233.09 326.71 234.2 325.73 235.31 324.76 236.44 323.71 237.48 322.61 238.48 321.37 239.31 320.37 240.43 319.17 241.3 318.02 242.24 316.8 243.08 315.47 243.75 314.32 244.69 313.05 245.46 311.71 246.1 310.4 246.8 309.17 247.65 307.75 248.11 306.5 248.94 305.09 249.41 303.7 249.94 302.35 250.55 300.96 251.06 299.56 251.52 298.12 251.88 296.71 252.34 295.32 252.86 293.86 253.15 292.42 253.51 290.96 253.73 289.54 254.22 288.05 254.28 286.61 254.67 285.12 254.76 283.65 254.95 282.17 255.07 280.69 255.33 279.19 255.23 277.71 255.47 276.22 255.37 274.73 255.47 273.24 255.33 271.75 255.24 270.26 255.25 268.77 255.19 267.3 254.88 265.83 254.7 264.34 254.56 262.86 254.42 261.42 254.01 259.93 253.83 258.49 253.45 257.07 253.01 255.63 252.64 254.19 252.27 252.82 251.64 251.49 250.94 250.42 249.88 249.44 248.75 248.51 247.54 248.04 246.09 247.8 244.6 247.72 243.1 247.88 241.6 248.26 240.13 248.95 238.79 249.74 237.49 250.91 236.52 252.09 235.42 253.23 234.27 254.48 233.24 255.75 232.24 256.92 231.12 257.92 230.06 258.81 228.91 259.5 227.63 259.86 226.21 260.04 224.77 260.08 223.32 259.8 221.88 259.34 220.5 258.75 219.15 257.74 218.07 256.8 216.93 255.57 216.11 254.22 215.54 252.83 215.06 251.37 214.95 249.9 214.99"/><polygon class="cls-6" points="170.29 65.33 170.28 63.82 170.41 62.36 170.55 60.91 170.84 59.47 171.05 58.02 171.42 56.6 171.85 55.2 172.3 53.81 172.81 52.44 173.42 51.11 174.1 49.82 174.81 48.54 175.58 47.3 176.38 46.07 177.27 44.91 178.19 43.77 179.23 42.74 180.23 41.67 181.38 40.76 182.53 39.86 183.72 39.01 184.97 38.26 186.25 37.56 187.57 36.92 188.91 36.34 190.29 35.86 191.71 35.53 193.13 35.18 194.57 34.93 196.04 34.89 197.5 34.77 197.5 34.77 198.96 34.8 200.42 34.93 201.86 35.19 203.31 35.44 204.7 35.88 206.09 36.34 207.47 36.85 208.78 37.5 210.08 38.18 211.3 38.98 212.52 39.8 213.65 40.73 214.77 41.68 215.82 42.7 216.83 43.76 217.72 44.92 218.63 46.06 219.48 47.26 220.21 48.53 220.94 49.8 221.58 51.11 222.18 52.44 222.73 53.8 223.19 55.19 223.56 56.61 223.87 58.03 224.15 59.47 224.38 60.91 224.57 62.36 224.68 63.82 224.68 65.25 223.23 65.28 221.76 65.28 220.29 65.31 218.82 65.27 217.36 65.28 215.9 65.32 214.43 65.31 212.96 65.29 211.49 65.28 210.02 65.29 208.56 65.33 207.09 65.27 205.62 65.31 204.15 65.24 202.68 65.28 201.21 65.31 199.75 65.25 198.28 65.26 196.81 65.28 195.34 65.29 193.87 65.24 192.4 65.26 190.92 65.28 189.45 65.25 187.98 65.26 186.51 65.3 185.04 65.3 183.57 65.32 182.1 65.25 180.63 65.33 179.16 65.34 177.68 65.23 176.21 65.31 174.74 65.34 173.26 65.33 171.78 65.29 170.29 65.33"/><polygon class="cls-8" points="267.1 187.36 266.91 188.79 266.33 190.12 265.44 191.26 264.31 192.17 263.02 192.82 261.63 193.23 260.19 193.34 258.74 193.22 257.35 192.82 256.06 192.17 254.93 191.26 254.06 190.11 253.47 188.79 253.28 187.36 253.46 185.93 254.06 184.61 254.93 183.46 256.05 182.54 257.35 181.9 258.74 181.49 260.19 181.35 261.63 181.5 263.03 181.88 264.31 182.56 265.44 183.46 266.33 184.6 266.9 185.93 267.1 187.36"/><polygon class="cls-9" points="322.4 207.64 322.26 209.16 321.81 210.61 321.05 211.93 320.1 213.12 318.95 214.12 317.66 214.93 316.29 215.59 314.83 216.02 313.33 216.31 311.81 216.41 310.29 216.29 308.79 216.04 307.34 215.57 305.95 214.95 304.67 214.12 303.54 213.1 302.57 211.93 301.83 210.6 301.35 209.16 301.21 207.64 301.36 206.13 301.84 204.68 302.58 203.36 303.54 202.18 304.66 201.15 305.94 200.32 307.33 199.7 308.79 199.24 310.29 198.96 311.81 198.87 313.33 198.99 314.83 199.23 316.29 199.69 317.68 200.32 318.94 201.18 320.11 202.16 321.04 203.36 321.81 204.67 322.27 206.13 322.4 207.64"/><polygon class="cls-7" points="279.2 230.69 279.13 232.1 278.78 233.48 278.21 234.78 277.5 236 276.58 237.09 275.58 238.09 274.45 238.95 273.22 239.65 271.94 240.25 270.6 240.72 269.21 241.01 267.81 241.24 266.39 241.27 264.97 241.21 263.56 241.06 262.18 240.72 260.83 240.27 259.53 239.68 258.31 238.95 257.21 238.06 256.16 237.11 255.28 235.99 254.53 234.79 254 233.48 253.67 232.1 253.53 230.69 253.67 229.28 253.98 227.89 254.53 226.58 255.27 225.37 256.18 224.28 257.2 223.3 258.34 222.45 259.55 221.72 260.84 221.14 262.17 220.64 263.56 220.32 264.97 220.16 266.39 220.09 267.8 220.15 269.21 220.34 270.59 220.68 271.94 221.13 273.21 221.74 274.46 222.42 275.59 223.28 276.6 224.28 277.48 225.39 278.22 226.59 278.75 227.91 279.12 229.27 279.2 230.69"/><polygon class="cls-10" points="296.61 187.36 296.44 188.77 295.96 190.1 295.21 191.29 294.29 192.37 293.17 193.24 291.94 193.94 290.64 194.49 289.28 194.91 287.88 195.12 286.46 195.21 285.04 195.11 283.65 194.88 282.28 194.51 280.98 193.93 279.75 193.23 278.64 192.36 277.68 191.31 276.94 190.1 276.47 188.77 276.33 187.36 276.5 185.96 276.94 184.62 277.71 183.43 278.64 182.36 279.75 181.48 280.98 180.77 282.27 180.2 283.65 179.85 285.04 179.59 286.46 179.54 287.87 179.62 289.27 179.84 290.63 180.23 291.95 180.75 293.17 181.48 294.27 182.37 295.21 183.43 295.96 184.63 296.42 185.96 296.61 187.36"/><polygon class="cls-6" points="117.66 135.08 116.22 135.3 114.79 135.52 113.35 135.71 111.91 135.93 110.47 136.13 109.03 136.36 107.58 136.56 106.14 136.78 104.7 137.01 103.25 137.23 101.89 137.28 100.55 137.01 99.32 136.44 98.2 135.66 97.32 134.62 96.68 133.41 96.35 132.09 96.15 130.63 95.89 129.18 95.73 127.71 95.5 126.25 95.28 124.8 95.05 123.35 94.83 121.89 94.61 120.43 94.43 118.97 94.22 117.5 94 116.05 93.78 114.58 93.58 113.12 93.34 111.66 94.8 111.44 96.27 111.25 97.73 110.98 99.21 110.79 100.68 110.6 102.15 110.38 103.61 110.16 105.08 109.94 106.55 109.73 108.01 109.47 109.48 109.26 110.95 109.08 112.42 108.82 113.89 108.63 115.36 108.41 116.83 108.19 118.31 107.98 119.79 107.75 120.01 109.22 120.23 110.67 120.42 112.13 120.63 113.59 120.86 115.05 121.06 116.5 121.3 117.96 121.52 119.42 121.73 120.88 121.95 122.34 122.16 123.8 122.36 125.26 122.55 126.73 122.77 128.19 122.82 129.55 122.58 130.89 122.06 132.15 121.23 133.24 120.18 134.1 118.98 134.74 117.66 135.08"/><polygon class="cls-6" points="113.17 137.31 112.95 135.91 112.76 134.51 112.58 133.11 112.38 131.71 112.16 130.3 111 131.03 109.79 131.65 108.47 131.37 107.14 131.03 107.31 132.45 107.52 133.84 107.74 135.24 108.01 136.64 108.17 138.05 108.32 139.47 108.38 140.9 108.37 142.34 108.3 143.77 108.31 145.2 108.27 146.63 108.25 148.06 108.3 149.5 108.29 150.94 108.31 152.37 108.37 153.81 108.5 155.24 108.59 156.67 108.68 158.1 108.8 159.53 109.02 160.96 109.23 162.38 109.42 163.87 109.74 165.33 110.12 166.78 110.65 168.19 111.24 169.56 112.01 170.83 113.08 171.88 114.37 172.59 115.83 172.65 117.24 172.19 118.3 171.15 118.99 169.82 119.32 168.36 119.53 166.88 119.62 165.39 119.56 163.89 119.46 162.39 119.24 160.91 119.02 159.49 118.78 158.07 118.47 156.66 118.17 155.26 117.89 153.85 117.56 152.45 117.16 151.07 116.76 149.69 116.41 148.3 115.96 146.93 115.52 145.56 115.1 144.2 114.64 142.83 114.25 141.45 113.88 140.07 113.5 138.69 113.17 137.31"/><polygon class="cls-2" points="104.4 144.38 105.88 143.93 107.36 143.51 108.84 143.06 110.33 142.63 111.83 142.24 113.22 142.02 114.63 142.15 115.98 142.58 117.19 143.33 118.16 144.37 118.84 145.61 119.38 146.89 119.92 148.18 120.44 149.48 120.99 150.76 121.33 151.88 121.34 153.06 121.32 153.61 121.14 155.04 120.89 156.46 120.5 157.84 120 159.19 119.36 160.48 118.68 161.75 117.86 162.93 116.97 164.06 115.97 165.09 114.95 166.1 113.81 166.98 112.59 167.74 111.33 168.43 110.09 169.04 108.85 169.67 107.62 170.31 106.68 171.38 105.76 172.49 104.85 173.61 103.92 174.72 103.01 175.81 102.52 174.46 102.08 173.08 101.62 171.69 101.14 170.32 100.68 168.94 100.27 167.55 99.78 166.17 99.34 164.78 98.87 163.4 98.4 162.02 97.95 160.64 97.51 159.24 97.02 157.86 96.57 156.47 96.7 154.99 96.82 153.5 97.04 152.12 97.46 150.78 98.01 149.5 98.74 148.29 99.64 147.21 100.67 146.26 101.84 145.48 103.07 144.81 104.4 144.38"/><polygon class="cls-3" points="124.49 221.93 125.28 223.24 126.08 224.55 126.86 225.88 127.64 227.19 128.44 228.5 129.22 229.83 130.03 231.14 129.88 229.81 129.61 228.49 129.23 227.19 128.74 225.93 128.19 224.69 127.56 223.51 126.87 222.36 126.14 221.25 125.35 220.18 124.49 219.16 124.48 220.55 124.49 221.93"/><polygon class="cls-8" points="112.99 89.76 111.58 89.97 110.17 90.18 108.76 90.36 107.35 90.58 105.95 90.8 104.54 91.02 103.12 91.18 101.72 91.43 100.31 91.63 98.89 91.82 97.48 92.03 96.06 92.22 94.65 92.45 93.23 92.97 92.09 93.97 91.47 95.35 91.39 96.86 91.58 98.23 91.75 99.61 91.97 100.98 92.18 102.36 93.62 102.14 95.06 101.92 96.51 101.72 97.95 101.49 99.4 101.28 100.85 101.1 102.29 100.88 103.74 100.65 105.18 100.46 106.63 100.24 108.07 100.03 109.51 99.8 110.96 99.59 112.41 99.39 113.86 99.15 115.31 98.98 116.76 98.72 118.23 98.54 118.01 97.15 117.81 95.78 117.59 94.41 117.38 93.03 116.9 91.59 115.87 90.48 114.51 89.8 112.99 89.76"/><polygon class="cls-8" points="98.22 101.52 99.46 102.58 100.08 104.11 100.23 105.77 100.34 107.1 100.77 108.35 101.82 109.05 103 108.53 103.27 107.01 102.67 105.48 102.09 103.93 101.87 102.33 102.47 100.85 103.93 100.24 103.29 99.53 101.78 98.94 100.24 98.39 99.32 99.32 98.4 100.25 97.47 101.17 98.22 101.52"/><polygon class="cls-11" points="248.06 212.22 246.61 212.44 245.14 212.52 243.69 212.69 242.24 212.82 240.78 213.01 239.33 213.16 237.87 213.25 236.41 213.41 234.97 213.72 233.49 213.7 232.04 214.02 230.58 214.18 229.07 214.13 227.57 213.96 226.15 213.46 224.78 212.84 223.65 211.85 222.46 210.91 221.72 209.6 220.98 208.3 220.54 206.87 220.27 205.38 220.3 203.87 220.73 202.42 221.22 201.05 221.57 199.63 222.14 198.29 222.76 196.98 223.44 195.69 224.14 194.41 224.93 193.19 225.56 191.86 226.51 190.75 227.38 189.58 228.19 188.37 229.13 187.26 230.17 186.23 231.12 185.13 232.1 184.05 233.18 183.07 234.24 182.06 235.37 181.15 236.58 180.33 237.61 179.28 238.88 178.56 239.97 177.57 241.28 176.91 242.5 176.11 243.75 175.37 244.96 174.56 246.29 173.96 247.58 173.29 248.88 172.62 250.25 172.11 251.56 171.49 252.91 170.93 254.27 170.42 255.6 169.81 257 169.43 258.39 168.98 259.76 168.48 261.17 168.11 262.57 167.69 264.01 167.45 265.46 167.25 266.88 166.95 268.31 166.7 269.73 166.29 271.19 166.24 272.65 166.14 274.11 165.88 275.58 165.69 277.07 165.74 278.55 165.67 280.03 165.64 281.51 165.57 282.99 165.64 284.47 165.78 285.95 165.88 287.44 165.8 288.89 166.14 290.36 166.33 291.85 166.38 293.32 166.59 294.77 166.9 296.22 167.23 297.67 167.55 299.11 167.92 300.5 168.42 301.95 168.74 303.4 169.1 304.79 169.61 306.17 170.16 307.49 170.85 308.88 171.35 310.24 171.94 311.53 172.67 312.91 173.24 314.2 173.97 315.47 174.74 316.64 175.66 317.9 176.44 319.1 177.3 320.23 178.26 321.46 179.09 322.5 180.16 323.72 181.02 324.75 182.08 325.76 183.17 326.63 184.38 327.73 185.39 328.45 186.7 329.41 187.84 330.18 189.1 331.02 190.33 331.68 191.65 332.24 193.03 332.93 194.35 333.38 195.76 333.87 197.16 334.16 198.62 334.55 200.05 334.88 201.49 334.99 202.97 335.1 204.45 335.18 205.93 335.12 207.41 334.97 208.89 334.89 210.37 334.71 211.84 334.52 213.31 334.07 214.73 333.63 216.14 333.25 217.58 332.75 218.97 332.05 220.29 331.39 221.61 330.89 223.01 330.03 224.23 329.34 225.54 328.54 226.79 327.68 228 326.85 229.23 325.84 230.32 324.86 231.43 323.89 232.55 322.92 233.67 321.86 234.72 320.77 235.71 319.53 236.54 318.53 237.66 317.33 238.53 316.18 239.47 314.96 240.32 313.62 240.98 312.47 241.93 311.21 242.7 309.86 243.34 308.56 244.04 307.33 244.88 305.91 245.35 304.66 246.17 303.25 246.65 301.86 247.17 300.51 247.78 299.12 248.29 297.71 248.75 296.27 249.12 294.87 249.58 293.47 250.1 292.02 250.38 290.58 250.75 289.11 250.96 287.7 251.46 286.2 251.52 284.76 251.91 283.28 252 281.81 252.19 280.32 252.3 278.85 252.57 277.35 252.47 275.87 252.7 274.37 252.6 272.88 252.71 271.4 252.57 269.91 252.47 268.42 252.49 266.93 252.42 265.46 252.11 263.98 251.94 262.5 251.79 261.01 251.65 259.57 251.25 258.09 251.07 256.65 250.68 255.22 250.24 253.78 249.87 252.34 249.51 250.98 248.87 249.64 248.18 248.57 247.11 247.6 245.99 246.67 244.77 246.2 243.32 245.95 241.83 245.88 240.33 246.03 238.83 246.42 237.37 247.1 236.02 247.89 234.72 249.07 233.76 250.25 232.65 251.38 231.5 252.63 230.48 253.9 229.47 255.08 228.35 256.08 227.3 256.97 226.15 257.66 224.86 258.02 223.44 258.2 222.01 258.24 220.55 257.96 219.12 257.49 217.73 256.9 216.38 255.89 215.31 254.96 214.16 253.73 213.34 252.38 212.77 250.99 212.3 249.52 212.18 248.06 212.22"/><path class="cls-12" d="M13.5,277.62c.49,0,.49.16,1,.16s.49,0,1,0,.49.12,1,.12.49-.34,1-.34.49,0,1,0,.49-.4,1-.4.49.35,1,.35.49.32,1,.32.49,0,1,0,.49-.51,1-.51.49,0,1,0,.49.12,1,.12.49,0,1,0,.49.26,1,.26.49-.34,1-.34.49.39,1,.39.49-.17,1-.17.49,0,1,0,.49-.16,1-.16.49.45,1,.45.49-.37,1-.37.49.26,1,.26.49.14,1,.14.49-.09,1-.09.49-.06,1-.06.49-.46,1-.46.49.34,1,.34.49-.15,1-.15.49,0,1,0,.49-.26,1-.26.49.3,1,.3.49-.14,1-.14.49.31,1,.31.49-.57,1-.57.49.72,1,.72.49-.53,1-.53.49-.09,1-.09.49,0,1,0,.49.16,1,.16.49,0,1,0,.49.1,1,.1.49,0,1,0,.49-.19,1-.19.49,0,1,0,.49,0,1,0,.49.07,1,.07.49.16,1,.16.49-.14,1-.14.49-.27,1-.27.49.47,1,.47.49-.32,1-.32.49-.3,1-.3.49.42,1,.42.49.23,1,.23.49-.24,1-.24.49.2,1,.2.49-.55,1-.55.49.11,1,.11.49-.11,1-.11h1c.49,0,.49.61,1,.61s.49-.52,1-.52.49.07,1,.07.49.42,1,.42.49-.08,1-.08.49-.08,1-.08.49-.4,1-.4.49,0,1,0,.49.37,1,.37.49-.18,1-.18.49.23,1,.23.49-.47,1-.47.49.1,1,.1.49.26,1,.26.49,0,1,0,.49-.3,1-.3.49,0,1,0,.49-.09,1-.09l1,0c.49,0,.49-.09,1-.09l1,0c.49,0,.49.65,1,.65s.49,0,1,0,.49-.17,1-.17.49-.27,1-.27.49.14,1,.14.49,0,1,0,.49.24,1,.24.49.17,1,.17.49-.18,1-.18.49-.47,1-.47.49.61,1,.61.49-.29,1-.29l1,0c.49,0,.49.24,1,.24s.49,0,1,0,.49-.17,1-.17h1c.49,0,.49.25,1,.25s.49-.12,1-.12.49-.39,1-.39.49.12,1,.12h1c.49,0,.49-.27,1-.27s.49.16,1,.16.49.25,1,.25h1c.49,0,.49-.44,1-.44s.49.19,1,.19.49.54,1,.54.49-.64,1-.64.49.58,1,.58.49-.5,1-.5.49-.07,1-.07.49.3,1,.3.49,0,1,0,.49-.32,1-.32.49.39,1,.39.49,0,1,0,.49-.07,1-.07.49.29,1,.29.49-.42,1-.42.49-.08,1-.08.49.24,1,.24.49,0,1,0,.49-.17,1-.17l1,0c.49,0,.49-.26,1-.26s.49.58,1,.58.49-.14,1-.14.49-.08,1-.08.49.21,1,.21h1c.49,0,.49-.11,1-.11s.49.16,1,.16.49-.54,1-.54.49.19,1,.19.49.21,1,.21.49.19,1,.19.49-.63,1-.63.49.4,1,.4.49-.17,1-.17.49.26,1,.26.49-.22,1-.22.49-.28,1-.28.49,0,1,0,.49,0,1,0,.49,0,1,0,.49-.1,1-.1h1c.49,0,.49.53,1,.53h1c.49,0,.49,0,1,0s.49-.39,1-.39.49,0,1,0,.49.56,1,.56.49,0,1,0,.49-.08,1-.08.49-.13,1-.13.49-.46,1-.46.49.2,1,.2.49.48,1,.48.49-.7,1-.7.49.63,1,.63.49-.1,1-.1.49-.32,1-.32.49.3,1,.3.49-.13,1-.13.49-.17,1-.17.49.41,1,.41.49-.62,1-.62.49.45,1,.45.49-.49,1-.49.49.23,1,.23.49,0,1,0,.49,0,1,0,.49.41,1,.41.49-.22,1-.22.49-.28,1-.28.49.15,1,.15.49-.25,1-.25.49.32,1,.32.49.17,1,.17.49-.26,1-.26.49-.21,1-.21.49.26,1,.26.49-.21,1-.21.49.34,1,.34.49-.3,1-.3.49.52,1,.52.49,0,1,0l1,0c.49,0,.49-.59,1-.59h1c.49,0,.49.29,1,.29s.49.11,1,.11.49-.36,1-.36.49.14,1,.14.49-.21,1-.21.49-.06,1-.06.48.69,1,.69.48-.25,1-.25.48-.23,1-.23.48.53,1,.53.48-.18,1-.18.48-.2,1-.2.48.21,1,.21h1c.48,0,.48-.44,1-.44s.48.31,1,.31.48-.37,1-.37.48.44,1,.44.49-.23,1-.23.49-.2,1-.2.49.4,1,.4.49.1,1,.1.49.13,1,.13.49-.29,1-.29.49-.06,1-.06.49,0,1,0,.49,0,1,0,.49-.29,1-.29.49.16,1,.16.49.44,1,.44.49-.58,1-.58.49.36,1,.36.49,0,1,0,.49,0,1,0h1c.49,0,.49-.23,1-.23s.49-.06,1-.06.49.28,1,.28.49-.42,1-.42.49.18,1,.18.49.31,1,.31.49-.37,1-.37.49.38,1,.38.49-.33,1-.33.49-.21,1-.21.49.27,1,.27.49.1,1,.1.49-.12,1-.12.49-.26,1-.26.49.41,1,.41.49.25,1,.25.49,0,1,0,.49-.59,1-.59.49.58,1,.58.49-.48,1-.48.49,0,1,0,.49,0,1,0,.49.62,1,.62.49-.42,1-.42.49.19,1,.19.49.1,1,.1.49.14,1,.14.49-.34,1-.34.49-.15,1-.15.49-.1,1-.1.49.12,1,.12.49,0,1,0,.49.16,1,.16.49.28,1,.28.49-.7,1-.7.49.54,1,.54.49.05,1,.05.49-.34,1-.34.49.11,1,.11.49,0,1,0,.49.33,1,.33.49-.27,1-.27.49-.18,1-.18.49.19,1,.19.49-.17,1-.17.49-.22,1-.22.49.39,1,.39.49-.32,1-.32.49.24,1,.24.49.33,1,.33.49,0,1,0h1c.49,0,.49-.57,1-.57s.49-.09,1-.09.49.62,1,.62.49-.45,1-.45.49.25,1,.25.49-.17,1-.17.49.06,1,.06h1c.49,0,.49-.14,1-.14s.49.17,1,.17.49-.16,1-.16.49-.07,1-.07l1,0c.49,0,.49.07,1,.07s.49,0,1,0,.49-.15,1-.15h1c.49,0,.49-.07,1-.07s.49.72,1,.72h1c.49,0,.49-.63,1-.63s.49,0,1,0h1c.49,0,.49,0,1,0s.49.09,1,.09.49-.07,1-.07.49.07,1,.07.49,0,1,0,.49.07,1,.07.49,0,1,0,.49.38,1,.38.49-.44,1-.44.49.27,1,.27.49.23,1,.23.49-.14,1-.14.49.16,1,.16.49-.25,1-.25.49-.09,1-.09.49-.27,1-.27.49.09,1,.09.49.38,1,.38.49.16,1,.16l1,0c.49,0,.49-.34,1-.34s.49.27,1,.27.49-.22,1-.22.49-.42,1-.42.49.21,1,.21.49.06,1,.06l1,0c.49,0,.49.27,1,.27s.49-.52,1-.52.49.45,1,.45.49.14,1,.14h1.94c.49,0,.49,0,1,0s.49.07,1,.07.49,0,1,0h1c.49,0,.49-.21,1-.21s.49-.39,1-.39.49.69,1,.69.49-.34,1-.34.49.3,1,.3.49-.35,1-.35.49-.18,1-.18.49.59,1,.59.49-.57,1-.57.49.59,1,.59.49-.47,1-.47h2c.49,0,.49.36,1,.36h1c.49,0,.49-.36,1-.36s.49-.11,1-.11.49.34,1,.34.49-.32,1-.32.49.34,1,.34.49-.43,1-.43.49.61,1,.61.49-.08,1-.08.49,0,1,0,.49-.14,1-.14.49-.36,1-.36.49-.11,1-.11.49.63,1,.63.49-.47,1-.47.49-.16,1-.16.49.72,1,.72.49-.53,1-.53.49-.19,1-.19.49.59,1,.59.49.09,1,.09.49,0,1,0,.49-.31,1-.31.49.31,1,.31.49-.16,1-.16.49-.26,1-.26.49.09,1,.09.49.37,1,.37"/></svg>
