<svg id="Layer_1" data-name="Layer 1" xmlns="http://www.w3.org/2000/svg" viewBox="0 0 400 288"><defs><style>.cls-1{fill:#2dd6a5;}.cls-2{fill:#e2dfd6;}.cls-3,.cls-4,.cls-5{fill:none;stroke-miterlimit:10;stroke-width:4px;}.cls-3,.cls-4{stroke:#081d4c;}.cls-4{stroke-linecap:round;}.cls-5{stroke:#3e82f7;}.cls-6{fill:#fab42d;}</style></defs><title>illustration-home-our-company</title><path class="cls-1" d="M283.83,84.69a11.81,11.81,0,0,0-1.61-.76,11.2,11.2,0,0,0-1.7-.48,12,12,0,0,0-1.75-.21,14.36,14.36,0,0,0-1.76,0c-.58,0-1.17.06-1.76.16s-1.15.22-1.73.36-1.15.27-1.72.42-1.13.34-1.69.5l-1.71.45c-.57.15-1.15.27-1.72.4s-1.15.28-1.73.37-1.17.14-1.76.17a14.35,14.35,0,0,1-1.76,0,12,12,0,0,1-1.75-.22,11.16,11.16,0,0,1-1.7-.47,11.65,11.65,0,0,1-1.61-.74c0-.61,0-1.22,0-1.83s0-1.22,0-1.83,0-1.22,0-1.83,0-1.22,0-1.83,0-1.22,0-1.83,0-1.22,0-1.83,0-1.22,0-1.83,0-1.22,0-1.83,0-1.22,0-1.83,0-1.24,0-1.85a11.93,11.93,0,0,0,1.61.77,11.16,11.16,0,0,0,1.7.47,12.07,12.07,0,0,0,1.75.26,14.44,14.44,0,0,0,1.77,0c.58,0,1.17-.13,1.75-.22s1.15-.22,1.73-.35,1.14-.27,1.72-.42l1.71-.46c.57-.16,1.13-.35,1.69-.5s1.14-.3,1.71-.43,1.16-.21,1.74-.31,1.17-.2,1.75-.24a14.42,14.42,0,0,1,1.77,0,12,12,0,0,1,1.75.23,11.2,11.2,0,0,1,1.7.48,11.66,11.66,0,0,1,1.6.75c0,.61,0,1.22,0,1.83s0,1.22,0,1.83,0,1.22,0,1.83,0,1.22,0,1.83,0,1.22,0,1.83,0,1.22,0,1.83,0,1.22,0,1.83,0,1.22,0,1.83,0,1.22,0,1.83S283.83,84.08,283.83,84.69Z"/><path class="cls-2" d="M98.17,255.22a7.7,7.7,0,0,0,3.64-1.32c.49-.39.61-1.13,1-1.67.49-.76.55-.72,1-1.49s.6-.69,1.09-1.46.73-.61,1.22-1.37.19-1,.68-1.72.83-.54,1.32-1.31.29-.89.78-1.66.46-.78,1-1.54.48-.77,1-1.54.41-.81.9-1.58.43-.8.92-1.57.6-.69,1.09-1.46.76-.59,1.25-1.35.14-1,.63-1.75.59-.7,1.08-1.46.6-.69,1.09-1.45.56-.71,1.06-1.47l1-1.53c.49-.76.44-.8.93-1.56s.24-.93.73-1.69.59-.7,1.08-1.46l1-1.52c.49-.76.62-.68,1.11-1.44s.47-.77,1-1.54.4-.82.9-1.58.4-.82.89-1.59.7-.63,1.19-1.39.56-.72,1.05-1.48.25-.92.74-1.68.59-.7,1.08-1.47.71-.62,1.2-1.39.39-.83.88-1.59.16-1,.66-1.74.77-.58,1.27-1.35.42-.81.91-1.58.53-.74,1-1.5.6-.69,1.1-1.46.13-1,.63-1.76.82-.55,1.31-1.32.35-.85.84-1.61l1-1.53c.49-.76.45-.79.94-1.55s.36-.85.85-1.62.77-.59,1.27-1.35.51-.76,1-1.52.41-.82.91-1.58.32-.88.82-1.65.64-.68,1.13-1.44a6.37,6.37,0,0,1,1-1.52,6,6,0,0,1,1.71-.69,4.45,4.45,0,0,1,3.5-.14A5.47,5.47,0,0,1,157,179a5.41,5.41,0,0,1,1.35,1.1c.58.69.76.54,1.34,1.24s.37.87,1,1.56.82.49,1.4,1.19.4.85,1,1.54.69.6,1.27,1.3.38.86,1,1.56.57.71,1.15,1.4.9.43,1.48,1.12.51.76,1.09,1.45.33.91.91,1.6.61.67,1.19,1.37.86.46,1.44,1.16.31.92.89,1.61.81.5,1.4,1.2.61.67,1.19,1.37.41.84,1,1.54.44.82,1,1.52.92.41,1.5,1.11.55.73,1.13,1.43.52.75,1.11,1.45.33.91.92,1.61a6,6,0,0,0,1.49,1.06,5.62,5.62,0,0,0,1.72.44c.58.15,1.13.58,1.72.54a6,6,0,0,0,1.74-.49,5.78,5.78,0,0,0,1.58-.85,6,6,0,0,0,1-1.46c.49-.75.74-.59,1.23-1.34s.39-.82.88-1.57.3-.88.79-1.63.81-.54,1.3-1.29.32-.86.81-1.61.46-.76,1-1.51.67-.63,1.16-1.38.33-.85.82-1.6.38-.82.87-1.57.41-.8.9-1.54.74-.58,1.23-1.33.54-.71,1-1.46.54-.72,1-1.47.33-.85.82-1.6.66-.64,1.15-1.39.4-.81.89-1.56.41-.8.9-1.55.36-.83.85-1.58.62-.67,1.11-1.41.45-.78.93-1.53.52-.73,1-1.48.5-.74,1-1.49.62-.66,1.11-1.41.44-.78.93-1.53.27-.89.76-1.64.44-.78.93-1.53.81-.54,1.29-1.29l1-1.5c.49-.75.23-.92.72-1.67s.51-.74,1-1.49.34-.84.83-1.59.5-.74,1-1.49.74-.59,1.23-1.34.53-.72,1-1.47.27-.89.76-1.64.64-.65,1.13-1.4.37-.83.86-1.58.75-.58,1.24-1.33.44-.78.93-1.53.15-1,.63-1.72.75-.58,1.24-1.33.34-.85.83-1.6.53-.73,1-1.48.42-.79.91-1.54.59-.68,1.08-1.43.41-.8.89-1.55.69-.62,1.17-1.37.35-.84.84-1.59.65-.65,1.13-1.4.59-.68,1.08-1.44.48-.76,1-1.51.41-.8.9-1.55.23-.92.72-1.67.68-.63,1.17-1.38.32-.86.81-1.61.59-.68,1.08-1.43.32-.86.81-1.61l1-1.5c.49-.75.84-.52,1.33-1.27s.38-.83.87-1.58.57-.7,1.06-1.45.44-.79.93-1.54.37-.83.86-1.58.76-.57,1.25-1.32.28-.89.77-1.64.32-.87.8-1.62.8-.55,1.29-1.3.38-.83.87-1.58.63-.66,1.12-1.42.35-.85.84-1.6.41-.81.91-1.56.51-.74,1-1.5a5.62,5.62,0,0,1,1.4-1.29,5.27,5.27,0,0,1,1.69-.76,3.06,3.06,0,0,1,3.64,0,5.59,5.59,0,0,1,1.76.73,6,6,0,0,1,1.4,1.38c.47.76.09,1,.56,1.75s.72.6,1.19,1.36.61.67,1.08,1.43.26.89.73,1.65.26.89.73,1.65.72.61,1.19,1.37.29.87.76,1.63.77.57,1.25,1.33.34.84.81,1.61l.95,1.52c.47.76.59.69,1.06,1.45s.22.92.69,1.68.7.62,1.18,1.38.44.78.92,1.54.57.7,1,1.47.07,1,.54,1.77.65.65,1.12,1.41.34.84.81,1.61.41.8.88,1.56.85.53,1.32,1.29.3.87.77,1.63.56.71,1,1.47.44.78.92,1.54.63.66,1.1,1.42.15,1,.63,1.72.46.77.93,1.53l.94,1.53c.47.76.62.67,1.09,1.43s.32.86.79,1.62.78.57,1.25,1.34.11,1,.58,1.75.7.62,1.18,1.38.39.81.87,1.57.43.79.9,1.55.77.58,1.24,1.34.08,1,.55,1.77.78.57,1.25,1.34.15,1,.62,1.72.69.63,1.16,1.39.59.69,1.06,1.45.42.8.89,1.56.37.83.84,1.59.61.68,1.08,1.44.37.83.84,1.59.43.79.9,1.56.31.86.78,1.63.61.68,1.08,1.44.58.69,1.05,1.46.36.83.83,1.59.4.81.87,1.57.65.65,1.13,1.41.57.7,1,1.46.24.91.72,1.67.7.62,1.18,1.39.31.86.79,1.63l.95,1.52c.47.76.66.65,1.13,1.41s.34.85.81,1.61.31.86.78,1.63.35.84.82,1.6.68.64,1.15,1.4.5.75,1,1.51.4.81.88,1.57.73.6,1.2,1.37.14,1,.61,1.73.59.69,1.06,1.46.3.87.77,1.63.5.75,1,1.51.55.71,1,1.47.66.64,1.13,1.41.49.75,1,1.52.17,1,.64,1.72.69.63,1.17,1.39.43.79.9,1.55l.94,1.53c.47.76.54.72,1,1.48s.26.89.73,1.66.84.54,1.31,1.3,0,1,.51,1.8.76.58,1.23,1.35.38.82.85,1.59.28.88.75,1.65.54.73,1,1.49.69.63,1.16,1.4.21.93.68,1.69.53.73,1,1.49.41.81.88,1.57.78.57,1.26,1.34.36.84.83,1.6.44.79.91,1.55.63.67,1.11,1.43.29.88.76,1.64.39.82.86,1.58.51.75,1,1.51.7.62,1.17,1.39.5.75,1,1.52.29.88.76,1.65.62.68,1.09,1.44.25.91.72,1.67.74.6,1.22,1.37.58.7,1.06,1.47"/><path class="cls-3" d="M33.51,254.89c.91,0,.91.07,1.81.07s.9-.06,1.81-.06h1.81c.9,0,.9-.22,1.81-.22h1.81c.9,0,.9.53,1.81.53s.91.07,1.81.07S47.07,255,48,255h1.81c.9,0,.9.27,1.81.27s.9-.14,1.81-.14.91-.34,1.81-.34.91-.07,1.81-.07.91,0,1.81,0,.91.21,1.81.21.91.38,1.81.38.91-.33,1.81-.33.91-.05,1.81-.05h1.81c.91,0,.91-.11,1.81-.11s.91.15,1.81.15.9-.26,1.81-.26.91.58,1.82.58.91-.39,1.81-.39.91-.13,1.81-.13.91.46,1.82.46.91.06,1.81.06.91-.18,1.82-.18.91.15,1.82.15.91.06,1.82.06a6.25,6.25,0,0,0,1.95-.4c.6-.21,1-.86,1.49-1.25a5.73,5.73,0,0,0,1.45-1.23c.49-.76.4-.82.89-1.59s.73-.61,1.22-1.37.38-.83.87-1.59.46-.78,1-1.54.3-.88.79-1.65.68-.64,1.17-1.4.38-.83.87-1.6.63-.67,1.13-1.43l1-1.52c.49-.76.18-1,.67-1.73s.72-.62,1.21-1.38.39-.83.89-1.59.83-.54,1.33-1.31.15-1,.64-1.75.46-.78,1-1.54.39-.83.88-1.59.55-.72,1-1.49.39-.83.89-1.59.58-.71,1.07-1.47.87-.52,1.36-1.28,0-1.06.52-1.82.92-.48,1.41-1.25.07-1,.56-1.8.48-.77,1-1.53.56-.72,1-1.49.8-.56,1.3-1.32l1-1.52c.49-.76.12-1,.61-1.76s.71-.62,1.21-1.39.66-.65,1.15-1.42.12-1,.61-1.76.53-.74,1-1.5.78-.58,1.28-1.34.1-1,.6-1.78.94-.48,1.43-1.24.15-1,.64-1.75.62-.68,1.11-1.45.57-.71,1.06-1.47.53-.74,1-1.5l1-1.53c.49-.76.16-1,.65-1.74s.53-.74,1-1.5.77-.59,1.27-1.35.48-.78,1-1.54.18-1,.67-1.74.58-.71,1.07-1.48.95-.48,1.44-1.24c.34-.52.3-1.34.75-1.71s1.21-.33,1.76-.55a5.5,5.5,0,0,1,1.69-.41,6,6,0,0,1,1.81-.12c.57.14.94.77,1.45,1.1s1.19.39,1.59.86c.58.69.34.89.92,1.59s.47.79,1,1.48.92.41,1.5,1.11.48.78,1.06,1.48.72.58,1.3,1.27.55.72,1.13,1.42.55.72,1.13,1.42.42.83,1,1.53.73.57,1.31,1.27.32.91.9,1.61.56.72,1.14,1.41.92.41,1.5,1.1.38.86,1,1.56.85.47,1.44,1.16.26,1,.84,1.66.56.71,1.15,1.41.84.48,1.42,1.18.33.9.91,1.6.9.43,1.48,1.13.33.91.92,1.61.54.73,1.13,1.43c.4.47,1.09.57,1.58.88s.92.83,1.49,1a5.92,5.92,0,0,0,1.79.15,5.82,5.82,0,0,0,1.68-.57c.55-.21,1.31-.14,1.78-.53a6.36,6.36,0,0,0,1.12-1.47c.49-.75.56-.7,1-1.45s.11-1,.6-1.75.76-.57,1.25-1.32.55-.71,1-1.46.51-.73,1-1.48l1-1.5c.49-.75.07-1,.56-1.77s.76-.57,1.25-1.32.62-.66,1.1-1.41.47-.76,1-1.51.13-1,.62-1.73.58-.69,1.07-1.44.39-.82.88-1.56.57-.7,1.06-1.45.65-.65,1.14-1.4.65-.64,1.14-1.39.51-.73,1-1.48.35-.84.84-1.59.51-.74,1-1.49.64-.65,1.12-1.4,0-1,.52-1.79.74-.58,1.23-1.33.35-.84.83-1.59.81-.54,1.3-1.29.44-.78.93-1.53.46-.77.95-1.52.13-1,.62-1.73.84-.52,1.33-1.27.23-.92.72-1.67.53-.72,1-1.47.81-.54,1.29-1.29.15-1,.64-1.72.36-.83.85-1.58,1-.43,1.46-1.18.06-1,.55-1.78.54-.72,1-1.47.8-.55,1.29-1.3.22-.92.71-1.67.36-.83.85-1.58.7-.61,1.19-1.36.53-.72,1-1.47.41-.8.9-1.55.44-.78.93-1.54.76-.58,1.24-1.33.18-1,.67-1.7.4-.81.89-1.56.76-.57,1.25-1.32.45-.77.94-1.52.65-.65,1.13-1.4.16-1,.65-1.72.79-.56,1.28-1.31.42-.8.91-1.55.68-.62,1.17-1.37.13-1,.62-1.74.54-.72,1-1.47.55-.71,1-1.46.38-.82.87-1.57.64-.65,1.13-1.41.6-.68,1.09-1.43.42-.8.91-1.55l1-1.5c.49-.75.29-.88.78-1.64s.62-.66,1.11-1.41.27-.89.76-1.64.71-.61,1.2-1.36.43-.79.92-1.54.73-.6,1.22-1.35.36-.84.85-1.59.5-.74,1-1.5.66-.65,1.15-1.4.46-.78.95-1.53.44-.79.93-1.54a5.27,5.27,0,0,1,1.34-1.26c.52-.4.81-1.23,1.41-1.42a6.29,6.29,0,0,1,2,0,5.84,5.84,0,0,1,1.89.33,5.65,5.65,0,0,1,1.52,1.13,5.32,5.32,0,0,1,1.17,1.41c.47.76.64.66,1.11,1.42s.37.82.84,1.58.37.82.84,1.58.72.61,1.19,1.37.7.62,1.17,1.38.36.83.83,1.59.48.75,1,1.51.24.9.71,1.67.75.59,1.22,1.35.25.9.72,1.66.48.76,1,1.52.57.7,1,1.47.2.93.68,1.69.65.65,1.12,1.42.54.72,1,1.49.64.66,1.11,1.42l.94,1.52c.47.76.35.83.82,1.6s.2.93.67,1.69.72.61,1.19,1.37.69.62,1.16,1.38.22.92.69,1.68.44.78.92,1.54.58.69,1.05,1.46.22.92.69,1.68.39.81.86,1.57.59.69,1.06,1.45.79.56,1.26,1.33.32.86.79,1.62.6.69,1.07,1.45.2.93.68,1.69.84.54,1.31,1.3l.94,1.53c.47.76.25.9.72,1.66s.19.93.67,1.7.71.62,1.18,1.38.26.89.73,1.65.4.8.88,1.57l.95,1.52c.47.76.91.49,1.38,1.26s.2.93.67,1.69.4.81.87,1.57.54.72,1,1.48.77.58,1.24,1.35.28.88.76,1.64.62.67,1.09,1.44.29.87.77,1.64.59.69,1.06,1.45.58.7,1,1.46.38.82.85,1.58.39.81.86,1.58.31.86.78,1.62.62.67,1.09,1.44.69.63,1.16,1.4.5.75,1,1.51.18.95.65,1.71.62.67,1.1,1.43.3.87.77,1.63.73.6,1.2,1.37,0,1,.48,1.81.83.54,1.31,1.3.44.78.92,1.55.36.83.83,1.6.37.82.85,1.59.36.84.83,1.6,1,.46,1.44,1.22.11,1,.58,1.75.52.73,1,1.5.59.68,1.07,1.45.66.64,1.13,1.41l.94,1.53c.47.76.3.87.78,1.63s.33.85.8,1.62.44.78.91,1.55.71.61,1.19,1.37.37.82.84,1.59.19.94.66,1.7.57.7,1,1.47.43.79.9,1.56.72.61,1.2,1.37.33.85.81,1.61.75.59,1.22,1.36.44.79.91,1.55.13,1,.6,1.74.75.59,1.22,1.36.59.69,1.06,1.46.12,1,.59,1.75.38.82.85,1.59.63.67,1.11,1.43.62.67,1.1,1.44.57.7,1,1.47.26.89.74,1.66.36.84.83,1.6.38.82.85,1.59.69.63,1.17,1.39.31.87.78,1.63.64.66,1.12,1.43.55.72,1,1.48.65.66,1.13,1.43.39.82.87,1.59.34.85.82,1.62"/><path class="cls-3" d="M256.37,98c0-.9,0-.9,0-1.8s0-.9,0-1.8,0-.9,0-1.8,0-.9,0-1.8,0-.9,0-1.8,0-.9,0-1.8,0-.9,0-1.8,0-.9,0-1.8,0-.9,0-1.81,0-.9,0-1.8,0-.9,0-1.8,0-.9,0-1.81,0-.9,0-1.8,0-.9,0-1.81,0-.9,0-1.81,0-.9,0-1.8,0-.9,0-1.81,0-.91,0-1.81,0-.91,0-1.81"/><path class="cls-4" d="M256.46,126.71c.48.76.37.83.86,1.59s.56.71,1,1.47.45.78.94,1.54.44.79.92,1.55.46.77.95,1.54.54.73,1,1.49.57.71,1.05,1.47.4.82.88,1.58.53.73,1,1.49.49.75,1,1.51.52.74,1,1.5.37.83.85,1.6.57.7,1.06,1.46l1,1.53c.48.76.46.78.94,1.54s.5.75,1,1.51.52.74,1,1.5.44.79.93,1.55.5.75,1,1.51.5.75,1,1.51.4.82.88,1.58.43.8.91,1.56.59.69,1.08,1.46.52.74,1,1.5.34.85.82,1.62.64.66,1.12,1.43.46.78.95,1.54.4.81.89,1.57.53.73,1,1.49.53.73,1,1.49.47.77,1,1.53.43.79.91,1.55.5.75,1,1.51.42.81.9,1.57.57.71,1.05,1.47.4.81.89,1.57l1,1.52c.48.76.53.73,1,1.49s.54.72,1,1.49.38.83.87,1.59.58.7,1.07,1.46.43.8.91,1.56l1,1.52c.48.76.5.75,1,1.52s.41.81.9,1.57.47.77,1,1.53.57.7,1.06,1.47.44.79.92,1.55.42.8.91,1.57.55.72,1,1.48l1,1.53c.49.76.56.72,1,1.48s.46.78.94,1.55.41.81.9,1.57.56.71,1,1.47.38.83.87,1.6.54.73,1,1.49l1,1.53,1,1.53c.49.76.57.71,1.06,1.47s.38.83.87,1.6.61.69,1.09,1.46.39.83.88,1.6"/><path class="cls-1" d="M176.83,71.21A10.38,10.38,0,0,1,176.7,73a11.49,11.49,0,0,1-1.22,3.36,10.63,10.63,0,0,1-10.71,5,12.23,12.23,0,0,1-3.36-1.23,10.35,10.35,0,1,1,14.8-12.43,10.19,10.19,0,0,1,.48,1.73A10.35,10.35,0,0,1,176.83,71.21Z"/><path class="cls-5" d="M357.19,104.12a10.38,10.38,0,0,1-.13,1.79,10.47,10.47,0,0,1-8.36,8.35,11.72,11.72,0,0,1-3.58,0,10.24,10.24,0,0,1-8.35-8.35,10.48,10.48,0,0,1,0-3.58A10.49,10.49,0,0,1,339,97.51a9.63,9.63,0,0,1,4.36-3.05,10.21,10.21,0,0,1,1.73-.47,9.47,9.47,0,0,1,3.57,0,10.57,10.57,0,0,1,4.84,2.23,9.78,9.78,0,0,1,3,4.37,10.21,10.21,0,0,1,.46,1.73A10.35,10.35,0,0,1,357.19,104.12Z"/><path class="cls-6" d="M229.66,34.86A6.84,6.84,0,0,1,221,41.47a6.8,6.8,0,0,1-1.65-.68,6.41,6.41,0,0,1-2.5-2.51,6.5,6.5,0,0,1-.92-3.42,6.86,6.86,0,0,1,13.72,0Z"/></svg>
