<svg id="Layer_1" data-name="Layer 1" xmlns="http://www.w3.org/2000/svg" viewBox="0 0 400 288"><defs><style>.cls-1{fill:#3e82f7;}.cls-2{fill:#e2dfd6;}.cls-3{fill:#c6c2ba;}.cls-4,.cls-7{fill:none;stroke-miterlimit:10;}.cls-4{stroke:#c6c2ba;stroke-width:4px;}.cls-5{fill:#f37f82;}.cls-6{fill:#2dd6a5;}.cls-7{stroke:#fab42d;stroke-width:2px;}</style></defs><title>illustration-analyze-report</title><polygon class="cls-1" points="308.1 166.24 306.86 167.57 305.61 168.86 304.44 170.24 303.2 171.54 301.91 172.8 300.74 174.17 299.46 175.45 298.25 176.78 296.98 178.07 295.76 179.4 294.57 180.75 293.28 182.01 292.05 183.33 290.87 184.69 289.58 185.96 288.39 187.32 287.09 188.57 285.88 189.92 284.58 191.17 283.41 192.55 282.16 193.87 281.01 195.19 281.82 196.73 282.55 198.38 283.42 199.96 284.37 201.49 285.23 203.08 286.05 204.68 287 206.21 287.82 207.82 288.75 209.36 289.67 210.92 290.38 212.59 291.35 214.12 292.17 215.72 293.09 217.26 293.86 218.91 294.68 220.51 295.62 222.06 296.59 223.58 297.43 225.18 298.24 226.8 299.02 228.44 300 229.96 301.75 229.6 303.53 229.33 305.31 229.03 307.07 228.63 308.86 228.39 310.6 227.94 312.38 227.63 314.15 227.3 315.93 226.97 317.69 226.61 319.46 226.25 321.24 225.92 323.01 225.62 324.77 225.22 326.56 224.96 328.31 224.53 330.1 224.25 331.89 224 333.66 223.65 335.43 223.29 337.2 222.88 338.95 222.55 339.2 220.79 339.39 219 339.68 217.22 339.82 215.43 340.16 213.65 340.37 211.86 340.54 210.07 340.8 208.28 341.02 206.49 341.27 204.71 341.45 202.91 341.62 201.11 342.03 199.35 342.18 197.55 342.32 195.75 342.62 193.97 342.84 192.18 343.03 190.38 343.3 188.59 343.5 186.8 343.78 185.01 343.97 183.23 342.37 182.45 340.76 181.65 339.13 180.87 337.48 180.15 335.87 179.34 334.21 178.64 332.6 177.82 330.99 177.01 329.34 176.28 327.67 175.6 326.06 174.78 324.48 173.9 322.79 173.25 321.17 172.47 319.56 171.64 317.91 170.92 316.26 170.2 314.65 169.36 313.05 168.53 311.39 167.81 309.73 167.07 308.1 166.24"/><polygon class="cls-2" points="297.25 253.56 296.77 252.15 296.48 250.69 296.44 249.22 295.95 247.8 296.33 246.29 296.08 244.84 295.46 243.44 295.39 241.96 295.46 240.47 294.93 239.06 294.97 237.57 295.05 236.1 294.69 234.66 294.31 233.25 294.24 231.76 294.09 230.3 294.02 228.82 293.86 227.37 293.38 225.93 293.04 224.51 293.14 223.03 292.71 221.59 292.56 220.14 292.66 218.63 292.33 217.21 291.83 215.78 292.08 214.29 291.89 212.83 291.43 211.42 291.64 209.94 291.48 208.46 290.61 207.13 290.88 205.59 290.32 204.15 290.84 202.64 290.36 201.21 290.09 199.77 290.35 198.26 289.89 196.82 289.44 195.4 289.37 193.94 289.24 192.48 289.12 191.01 288.64 189.61 288.35 188.15 288.58 186.66 288.42 185.18 287.77 183.83 287.77 182.36 287.53 180.87 287.63 179.41 287.65 177.92 287.08 176.52 286.58 175.1 286.99 173.58 286.55 172.14 286.25 170.72 285.96 169.28 286.2 167.77 285.43 166.41 285.34 164.93 285.35 163.44 285.21 161.98 284.97 160.53 284.84 159.07 284.7 157.61 284.54 156.14 284.15 154.74 284.13 153.24 283.75 151.8 283.96 150.31 283.31 148.93 283.19 147.45 283.23 145.96 282.55 144.59 282.49 143.09 282.72 141.6 282.21 140.2 282.32 138.68 281.74 137.28 281.5 135.83 281.39 134.36 281.28 132.9 280.86 131.47 280.99 129.97 280.6 128.54 280.5 127.08 280.28 125.63 280.57 124.11 280.05 122.67 279.85 121.25 279.79 119.77 279.29 118.35 279.06 116.9 279.12 115.43 278.92 113.95 278.73 112.47 278.19 111.08 278.21 109.6 278.03 108.14 277.81 106.68 277.72 105.22 277.65 103.74 277.31 102.31 276.95 100.86 277.02 99.38 277.02 97.88 276.56 96.48 276.71 94.98 276.16 93.57 276.11 92.1 276.19 90.6 275.49 89.2 275.76 87.69 275.38 86.24 274.75 84.84 275.26 83.31 274.5 81.94 274.23 80.49 274.18 79.01 273.96 77.54 273.85 76.08 274.11 74.58 273.62 73.16 273.24 71.72 273.12 70.27 272.93 68.78 272.66 67.35 272.54 65.88 272.33 64.43 272.17 62.96 271.73 61.52 272 60.02 271.88 58.53 271.68 57.11 271.79 55.6 271.15 54.2 271.04 52.72 270.77 51.27 270.29 49.84 270.24 48.33 270.14 46.9 270.12 45.41 269.74 43.97 269.4 42.52 269.15 41.1 268.98 39.61 269.32 38.08 268.55 36.69 268.33 35.32 267.46 34.31 266.19 33.56 265.24 32.45 264.01 31.6 262.72 30.89 261.79 29.72 260.64 28.79 259.29 28.14 258.25 27.13 257.14 26.19 255.88 25.39 254.64 24.63 253.61 23.56 252.34 22.76 250.88 22.34 249.69 21.47 248.76 20.27 247.53 19.48 246.55 18.37 245.1 17.9 243.96 16.92 243.19 15.53 241.78 14.95 240.72 13.96 239.46 13.19 238.04 12.65 237.1 11.51 235.65 11.3 234.25 11.92 232.76 11.84 231.32 12.18 229.83 11.93 228.4 12.38 226.99 13.01 225.46 12.57 223.99 12.72 222.59 13.27 221.13 13.52 219.63 13.32 218.14 13.44 216.81 14.29 215.3 14.33 213.85 14.51 212.38 14.67 210.94 15.01 209.44 15.13 207.94 14.8 206.6 15.65 205.11 15.82 203.64 15.88 202.15 15.75 200.72 16.14 199.2 15.96 197.89 16.91 196.4 17.12 194.92 16.88 193.39 16.99 192.01 17.46 190.51 17.56 189.02 17.31 187.57 17.71 186.11 17.91 184.68 18.23 183.23 18.55 181.72 18.47 180.24 18.41 178.79 18.68 177.32 18.86 175.97 19.75 174.44 19.53 172.97 19.56 171.48 19.66 170.09 20.2 168.58 20.17 167.16 20.52 165.68 20.63 164.18 20.37 162.71 20.71 161.32 21.3 159.83 21.23 158.36 21.33 156.94 21.79 155.49 22.06 154.03 22.27 152.54 22.18 151.08 22.34 149.67 22.78 148.23 23.22 146.7 22.82 145.27 23.3 143.82 23.7 142.28 23.27 140.85 23.67 139.45 24.17 137.98 24.47 136.49 24.41 135.08 25 133.55 24.64 132.11 25.11 130.67 25.46 129.2 25.54 127.68 25.33 126.28 25.92 124.8 25.95 123.33 26.18 121.86 26.12 120.43 26.65 118.96 26.87 117.47 26.81 115.96 26.77 114.57 27.52 113.03 27.27 111.79 28.04 110.34 28.16 109.31 29.19 108.37 30.24 107.86 31.53 107.36 32.78 106.76 34.07 106.73 35.49 107.05 36.94 107.26 38.39 107.53 39.83 107.41 41.34 108 42.73 108.44 44.15 108.4 45.63 108.85 47.07 108.44 48.59 109.13 49.99 108.93 51.49 109.18 52.94 109.31 54.4 109.49 55.87 109.77 57.3 109.97 58.74 110.09 60.21 110.78 61.59 110.79 63.09 110.89 64.54 111.06 66.01 111.33 67.45 111.49 68.91 111.59 70.38 111.94 71.81 111.84 73.3 111.67 74.82 112.27 76.21 112.28 77.68 112.7 79.11 112.8 80.58 113.01 82.02 113.15 83.5 113.61 84.91 113.49 86.4 113.84 87.84 113.86 89.32 114.13 90.76 114.39 92.2 115.01 93.62 114.51 95.15 114.94 96.57 115.17 98.03 115.29 99.48 115.27 100.96 115.73 102.38 115.92 103.83 115.87 105.31 115.92 106.79 116.32 108.21 116.67 109.66 116.72 111.13 117.05 112.57 117.57 113.98 117.69 115.45 117.5 116.94 117.47 118.43 118.04 119.81 118.23 121.28 118.3 122.74 118.87 124.13 118.83 125.62 118.9 127.12 119.04 128.54 119.34 129.99 119.88 131.4 119.92 132.87 120.21 134.3 120.2 135.78 120.59 137.21 120.68 138.7 120.56 140.17 120.96 141.6 121.06 143.07 121.1 144.52 120.95 146.01 121.25 147.49 121.51 148.94 121.97 150.36 121.78 151.86 122.29 153.27 122.34 154.75 122.39 156.22 122.9 157.63 122.82 159.12 123.47 160.5 123.32 162.01 123.32 163.49 123.77 164.91 123.59 166.44 124.29 167.8 124.46 169.26 124.38 170.74 124.47 172.23 125.18 173.62 125.17 175.11 125.18 176.6 125.6 178 125.75 179.47 125.94 180.91 125.75 182.44 126.56 183.8 126.1 185.33 126.61 186.76 126.94 188.19 127.42 189.61 127.3 191.11 127.24 192.61 127.54 194.05 127.93 195.49 127.71 196.99 128.19 198.41 128.17 199.89 128.39 201.37 128.79 202.76 128.68 204.26 128.89 205.73 129.09 207.19 129.94 208.56 129.72 210.07 129.89 211.53 130.01 213 130.7 214.36 130.6 215.88 130.86 217.33 130.95 218.81 131.49 220.22 131.43 221.71 131.12 223.23 131.91 224.61 132.1 226.1 131.72 227.59 132.22 229.02 132.29 230.48 132.79 231.88 132.84 233.39 132.97 234.84 133.4 236.27 133.31 237.76 133.3 239.24 133.68 240.68 133.94 242.13 134.09 243.59 134.71 245 134.46 246.52 134.48 248 135.21 249.38 135.15 250.88 135.57 252.29 135.46 253.8 135.98 255.23 135.96 256.73 135.74 258.23 136.11 259.66 136.29 261.13 136.78 262.56 136.46 264.07 136.94 265.49 137.2 266.95 137.03 268.44 137.47 269.89 137.74 271.35 138.1 272.79 137.95 274.3 138.14 275.72 138.59 277.13 139.8 278 140.67 279.14 141.92 279.82 143.29 280.04 144.66 279.98 146.03 280.39 147.43 279.85 148.94 279.98 150.42 279.98 151.81 279.35 153.29 279.16 154.8 279.38 156.28 279.48 157.71 279.04 159.16 278.59 160.63 278.52 162.02 277.89 163.53 277.9 165.01 277.82 166.48 277.71 168 277.89 169.39 277.21 170.84 277.13 172.32 276.82 173.74 276.58 175.22 276.47 176.74 276.71 178.11 275.88 179.62 275.99 181.08 275.8 182.52 275.5 184.03 275.49 185.44 274.95 186.97 275.27 188.36 274.45 189.88 274.76 191.38 274.85 192.75 274.22 194.21 273.83 195.71 273.88 197.19 273.89 198.7 273.89 200.09 273.19 201.57 273.23 203.04 273.07 204.5 272.86 205.94 272.53 207.43 272.4 208.84 271.96 210.35 272.12 211.86 272.26 213.27 271.64 214.79 271.79 216.22 271.38 217.66 271 219.12 270.7 220.6 270.78 222.05 270.44 223.56 270.41 225.06 270.58 226.43 269.79 227.91 269.74 229.34 269.19 230.89 269.69 232.27 268.9 233.78 269.06 235.24 268.7 236.72 268.72 238.17 268.32 239.64 268.32 241.12 268.12 242.58 267.88 243.99 267.47 245.5 267.52 246.97 267.21 248.41 267.14 249.9 267.02 251.35 266.69 252.78 266.43 254.27 266.28 255.69 265.9 257.16 265.64 258.63 265.5 260.11 265.36 261.62 265.73 263.12 265.47 264.51 264.86 265.99 264.52 267.47 264.65 268.93 264.46 270.42 264.36 271.83 263.81 273.36 263.89 274.83 263.81 276.2 263.05 277.73 263.37 279.16 262.79 280.62 262.61 282.1 262.36 283.62 262.73 285.06 262.19 286.54 262.08 288.06 262.23 289.47 261.57 291.01 262.02 292.29 261.18 293.5 260.5 294.92 260.02 295.49 258.67 296.43 257.68 297.14 256.41 297.26 254.97 297.25 253.56"/><polyline class="cls-3" points="236.84 11.39 237.03 12.84 237.19 14.3 237.38 15.75 237.62 17.19 237.82 18.64 237.94 20.1 238.16 21.54 238.34 23 238.53 24.45 238.7 25.9 238.93 27.35 239.12 28.8 239.24 30.27 239.46 31.72 239.66 33.18 240.07 34.71 240.89 36.06 241.98 37.21 243.37 37.97 244.9 38.39 246.48 38.41 247.96 38.24 249.43 38.02 250.91 37.79 252.38 37.62 253.87 37.44 255.34 37.23 256.82 37.1 258.3 36.87 259.77 36.67 261.26 36.51 262.73 36.24 264.21 36.09 265.69 35.87 267.18 35.68 268.66 35.5"/><polygon class="cls-4" points="200.45 52.66 202.19 52.54 203.92 52.69 205.61 53.1 207.21 53.78 208.71 54.67 210.01 55.82 211.15 57.14 212.03 58.64 212.68 60.25 213.04 61.95 213.21 63.69 213.01 65.42 212.56 67.1 211.9 68.72 210.94 70.17 209.79 71.48 208.45 72.6 206.96 73.5 205.34 74.16 203.64 74.54 201.9 74.65 200.17 74.51 198.46 74.14 196.86 73.44 195.38 72.52 194.06 71.39 192.93 70.06 192.04 68.56 191.42 66.94 190.98 65.25 190.89 63.51 191.06 61.77 191.48 60.08 192.18 58.48 193.13 57.01 194.29 55.71 195.61 54.56 197.13 53.7 198.75 53.05 200.45 52.66"/><polygon class="cls-5" points="257.08 112.75 255.64 113.08 254.15 113.03 252.7 113.28 251.23 113.37 249.78 113.62 248.33 113.85 246.89 114.16 245.41 114.24 243.96 114.47 242.5 114.64 241.04 114.85 239.56 114.91 238.1 115.1 236.68 115.48 235.21 115.65 233.73 115.66 232.3 116.05 230.82 116.06 229.38 116.42 227.92 116.55 226.46 116.75 225 116.97 223.56 117.32 222.08 117.35 220.62 117.57 219.16 117.72 217.71 118 216.26 118.25 214.77 118.15 213.33 118.47 211.88 118.76 210.41 118.83 208.93 118.96 207.47 119.16 206.03 119.46 204.56 119.56 203.12 119.96 201.62 119.78 200.19 120.25 198.7 120.26 197.27 120.6 195.78 120.63 194.32 120.78 192.87 121.1 191.43 121.43 189.96 121.53 188.5 121.67 187.03 121.8 185.59 122.11 184.11 122.09 182.66 122.43 181.19 122.54 179.72 122.73 178.29 123.09 176.81 123.08 175.37 123.38 173.89 123.47 172.45 123.81 171 124.08 169.53 124.23 168.07 124.45 166.6 124.56 165.16 124.91 163.69 125.05 162.2 125.03 160.74 125.26 159.29 125.57 157.8 125.57 156.35 125.8 154.9 126.13 153.41 126.13 152 126.63 150.51 126.74 149.05 126.91 147.59 127.15 146.1 127.14 144.66 127.53 143.19 127.66 141.71 127.83 140.22 127.96 140.44 129.38 140.63 130.8 140.68 132.23 140.99 133.63 141.07 135.06 141.31 136.46 141.55 137.87 141.81 139.28 141.99 140.59 143.38 140.72 144.82 140.42 146.25 140.05 147.73 139.99 149.17 139.76 150.65 139.62 152.08 139.27 153.56 139.26 155 138.93 156.47 138.8 157.93 138.64 159.4 138.48 160.82 138.07 162.3 137.97 163.75 137.76 165.22 137.66 166.66 137.38 168.13 137.24 169.6 137.15 171.05 136.86 172.52 136.77 173.98 136.6 175.44 136.39 176.89 136.12 178.35 135.97 179.81 135.77 181.29 135.72 182.74 135.46 184.19 135.18 185.67 135.23 187.13 134.92 188.57 134.62 190.02 134.36 191.47 134.1 192.94 133.97 194.42 133.93 195.88 133.77 197.34 133.51 198.78 133.21 200.23 132.94 201.7 132.82 203.16 132.63 204.64 132.65 206.13 132.57 207.54 132.05 209.02 131.99 210.46 131.7 211.93 131.57 213.38 131.34 214.84 131.17 216.31 130.99 217.77 130.85 219.22 130.59 220.71 130.6 222.14 130.28 223.61 130.09 225.06 129.88 226.54 129.82 227.97 129.4 229.44 129.29 230.93 129.23 232.35 128.75 233.84 128.73 235.31 128.65 236.78 128.53 238.21 128.08 239.7 128.08 241.16 127.84 242.61 127.57 244.1 127.53 245.55 127.3 246.99 126.97 248.48 126.97 249.94 126.75 251.41 126.57 252.87 126.3 254.34 126.15 255.79 125.89 257.26 125.66 258.7 125.45 258.71 124.06 258.55 122.64 258.13 121.26 257.92 119.85 257.77 118.43 257.63 117.01 257.58 115.58 257.34 114.16 257.08 112.75"/><polygon class="cls-5" points="259.44 130.42 257.95 130.81 256.47 130.87 255.01 131.03 253.57 131.26 252.09 131.29 250.65 131.68 249.19 131.85 247.72 131.97 246.28 132.24 244.81 132.41 243.34 132.48 241.89 132.78 240.43 132.94 238.99 133.23 237.53 133.44 236.05 133.47 234.6 133.75 233.13 133.78 231.68 134.03 230.24 134.34 228.78 134.57 227.32 134.79 225.85 134.92 224.4 135.12 222.93 135.23 221.47 135.46 220.03 135.78 218.56 135.91 217.08 135.88 215.62 136.13 214.2 136.59 212.73 136.7 211.25 136.72 209.79 136.98 208.34 137.25 206.87 137.32 205.42 137.59 203.93 137.56 202.5 137.96 201.02 138.02 199.6 138.51 198.09 138.35 196.63 138.51 195.18 138.81 193.72 139 192.28 139.32 190.8 139.39 189.34 139.53 187.91 139.94 186.43 139.93 184.98 140.2 183.49 140.2 182.05 140.57 180.63 140.97 179.15 141 177.68 141.18 176.22 141.29 174.75 141.44 173.31 141.78 171.84 141.99 170.37 142.1 168.92 142.35 167.45 142.52 166 142.75 164.5 142.69 163.06 143.09 161.6 143.29 160.14 143.48 158.66 143.53 157.19 143.71 155.74 143.98 154.29 144.23 152.83 144.48 151.36 144.65 149.9 144.87 148.42 144.94 146.95 145.08 145.5 145.42 144.03 145.66 142.57 145.74 142.57 147.15 142.89 148.55 143.11 149.96 143.33 151.36 143.38 152.8 143.63 154.2 143.8 155.62 144.19 157.01 144.2 158.46 145.67 158.26 147.12 158.07 148.57 157.86 150.04 157.73 151.51 157.68 152.93 157.24 154.39 157.02 155.88 157.08 157.32 156.74 158.78 156.57 160.24 156.37 161.7 156.17 163.16 155.97 164.6 155.69 166.06 155.45 167.53 155.32 169 155.3 170.43 154.85 171.92 154.91 173.36 154.62 174.83 154.48 176.31 154.46 177.78 154.26 179.2 153.84 180.68 153.78 182.12 153.48 183.58 153.28 185.05 153.18 186.5 152.95 187.97 152.84 189.42 152.59 190.89 152.44 192.34 152.18 193.79 151.88 195.26 151.8 196.74 151.77 198.19 151.5 199.64 151.18 201.09 150.97 202.54 150.72 204.02 150.6 205.49 150.51 206.93 150.16 208.43 150.3 209.88 149.98 211.34 149.79 212.76 149.34 214.24 149.34 215.69 149.04 217.16 149 218.63 148.79 220.09 148.71 221.56 148.51 223 148.19 224.48 148.19 225.9 147.72 227.36 147.48 228.86 147.56 230.31 147.3 231.75 146.97 233.24 146.99 234.66 146.5 236.14 146.46 237.61 146.36 239.09 146.22 240.54 145.93 242 145.72 243.47 145.55 244.92 145.28 246.41 145.32 247.86 144.99 249.3 144.69 250.8 144.73 252.25 144.42 253.69 144.1 255.19 144.1 256.63 143.78 258.11 143.64 259.56 143.3 261.03 143.22 260.84 141.82 260.81 140.39 260.44 139 260.31 137.58 260.11 136.17 259.78 134.77 259.87 133.32 259.63 131.91 259.44 130.42"/><polygon class="cls-5" points="261.67 148.28 260.25 148.48 258.81 148.79 257.33 148.82 255.9 149.18 254.41 149.13 252.97 149.47 251.51 149.62 250.05 149.82 248.59 150.02 247.1 149.97 245.64 150.16 244.21 150.53 242.76 150.82 241.3 151.09 239.82 151 238.39 151.38 236.91 151.4 235.44 151.52 233.99 151.8 232.55 152.15 231.07 152.19 229.63 152.44 228.16 152.64 226.7 152.79 225.24 153 223.8 153.31 222.33 153.44 220.86 153.57 219.41 153.77 217.94 153.87 216.51 154.29 215.03 154.36 213.58 154.61 212.12 154.85 210.64 154.85 209.19 155.13 207.71 155.18 206.26 155.41 204.79 155.54 203.32 155.68 201.91 156.18 200.42 156.22 198.95 156.33 197.49 156.53 196.03 156.71 194.58 157.02 193.1 157 191.66 157.35 190.2 157.5 188.74 157.69 187.31 158.12 185.81 158 184.36 158.24 182.94 158.7 181.47 158.81 180 158.99 178.52 159.05 177.05 159.17 175.62 159.54 174.16 159.81 172.67 159.69 171.22 159.96 169.77 160.29 168.29 160.39 166.84 160.6 165.38 160.84 163.93 161.13 162.45 161.24 160.97 161.33 159.51 161.5 158.07 161.84 156.59 161.92 155.13 162.21 153.66 162.28 152.2 162.48 150.76 162.86 149.26 162.85 147.83 163.28 146.34 163.32 144.9 163.49 145.05 164.87 145.33 166.28 145.39 167.7 145.72 169.1 145.66 170.54 145.89 171.95 146.22 173.35 146.52 174.76 146.46 176.27 147.97 175.97 149.42 175.72 150.89 175.65 152.34 175.4 153.8 175.22 155.25 175.03 156.71 174.85 158.17 174.64 159.64 174.61 161.13 174.53 162.56 174.13 164 173.78 165.49 173.84 166.93 173.52 168.39 173.39 169.83 173.02 171.3 172.97 172.76 172.76 174.25 172.8 175.67 172.32 177.15 172.31 178.62 172.17 180.08 171.99 181.52 171.64 182.98 171.44 184.43 171.18 185.88 170.96 187.35 170.83 188.81 170.66 190.28 170.55 191.73 170.31 193.21 170.2 194.65 169.9 196.11 169.7 197.58 169.6 199.06 169.49 200.5 169.23 201.94 168.91 203.41 168.73 204.88 168.64 206.31 168.21 207.81 168.31 209.24 167.86 210.73 167.94 212.19 167.71 213.65 167.48 215.08 167.16 216.55 167.07 218.01 166.91 219.49 166.85 220.94 166.57 222.4 166.33 223.88 166.32 225.28 165.73 226.79 165.94 228.23 165.61 229.67 165.21 231.18 165.38 232.62 165.02 234.06 164.71 235.54 164.63 236.98 164.33 238.43 164.01 239.92 164.04 241.4 163.95 242.84 163.61 244.31 163.47 245.78 163.3 247.22 162.95 248.71 162.93 250.15 162.55 251.62 162.45 253.09 162.33 254.55 162.11 256.01 161.91 257.49 161.75 258.95 161.51 260.41 161.32 261.89 161.18 263.36 160.98 263.11 159.57 263.02 158.15 262.75 156.74 262.61 155.32 262.45 153.91 262.29 152.49 262.19 151.06 261.89 149.66 261.67 148.28"/><polygon class="cls-5" points="222.94 171.34 221.5 171.57 220.05 171.82 218.59 171.93 217.14 172.17 215.66 172.23 214.21 172.44 212.76 172.64 211.32 172.99 209.85 173.07 208.39 173.18 206.92 173.33 205.49 173.65 204.03 173.85 202.58 174.08 201.1 174.11 199.65 174.34 198.19 174.49 196.73 174.63 195.3 174.99 193.85 175.16 192.37 175.16 190.93 175.44 189.48 175.73 188.02 175.89 186.56 176.01 185.12 176.32 183.66 176.46 182.2 176.63 180.75 176.83 179.27 176.93 177.84 177.26 176.37 177.36 174.93 177.69 173.47 177.86 172 178 170.54 178.14 169.07 178.25 167.63 178.62 166.15 178.62 164.7 178.84 163.24 179.07 161.79 179.35 160.33 179.5 158.87 179.67 157.41 179.88 155.96 180.1 154.47 180.13 153.04 180.51 151.57 180.61 150.1 180.8 148.65 181.12 147.18 181.21 147.34 182.62 147.57 184.03 147.76 185.44 148.03 186.84 148.09 188.27 148.26 189.69 148.46 191.1 148.72 192.51 148.77 194.03 150.29 193.79 151.74 193.54 153.21 193.48 154.65 193.16 156.11 193.01 157.56 192.76 159.03 192.7 160.46 192.32 161.94 192.29 163.39 192.09 164.84 191.84 166.31 191.74 167.77 191.56 169.23 191.39 170.66 191.03 172.11 190.82 173.58 190.68 175.02 190.47 176.49 190.36 177.93 190.09 179.39 189.96 180.84 189.74 182.3 189.57 183.77 189.44 185.22 189.21 186.66 188.93 188.12 188.8 189.59 188.69 191.04 188.5 192.49 188.19 193.95 188.1 195.41 187.93 196.85 187.64 198.33 187.55 199.78 187.3 201.22 186.99 202.69 186.88 204.16 186.74 205.6 186.46 207.07 186.32 208.53 186.14 209.99 185.9 211.46 185.82 212.89 185.48 214.36 185.34 215.84 185.27 217.29 185.06 218.76 184.88 220.22 184.7 221.69 184.55 223.14 184.24 224.62 184.08 224.41 182.66 224.21 181.25 223.97 179.84 223.88 178.41 223.66 177.01 223.52 175.59 223.36 174.16 223.12 172.75 222.94 171.34"/><polygon class="cls-6" points="74.61 72.11 74.7 70.2 75 68.31 75.52 66.47 76.29 64.72 77.25 63.06 78.35 61.51 79.59 60.06 81.01 58.78 82.58 57.7 84.26 56.78 86.01 56.03 87.85 55.49 89.74 55.23 91.64 55.04 93.55 55.19 95.43 55.51 97.25 56.07 99.01 56.8 100.71 57.68 102.23 58.83 103.67 60.08 104.97 61.48 106.04 63.06 107.01 64.71 107.69 66.5 108.26 68.32 108.55 70.2 108.63 72.11 108.52 74.01 108.25 75.9 107.75 77.75 106.94 79.48 106.11 81.2 104.97 82.74 103.7 84.17 102.25 85.41 100.7 86.53 99.05 87.49 97.25 88.15 95.43 88.73 93.55 89.02 91.64 89.18 89.73 89.03 87.84 88.76 86.02 88.17 84.24 87.47 82.58 86.53 81.02 85.42 79.6 84.15 78.31 82.74 77.19 81.19 76.31 79.49 75.56 77.73 75.04 75.9 74.71 74.02 74.61 72.11"/><polygon class="cls-6" points="201.82 63.39 201.23 61.68 200.64 59.96 200.04 58.24 199.49 56.5 198.91 54.77 198.32 53.05 197.72 51.32 197.14 49.59 198.99 49.09 200.89 48.86 202.79 48.85 204.68 49.13 206.51 49.65 208.28 50.35 209.92 51.32 211.45 52.46 212.78 53.83 213.96 55.33 214.92 56.98 215.62 58.75 216.09 60.5 216.36 62.28 214.53 62.42 212.72 62.58 210.9 62.69 209.09 62.85 207.27 62.96 205.45 63.12 203.63 63.25 201.82 63.39"/><polygon class="cls-1" points="112.04 127.8 110.73 128.49 109.42 129.12 108.11 129.75 106.83 130.42 105.52 131.05 104.23 131.72 102.89 132.28 101.63 133.01 100.3 133.61 99 134.25 97.7 134.91 96.37 135.5 95.07 136.14 93.78 136.81 92.46 137.43 91.18 138.11 89.86 138.73 88.58 139.41 87.26 140.02 85.94 140.65 84.61 141.23 83.31 141.9 82.02 142.57 80.68 143.21 81.3 144.58 82.03 145.87 82.62 147.23 83.31 148.53 83.97 149.86 84.6 151.2 85.27 152.53 85.95 153.84 86.58 155.18 87.25 156.51 87.85 157.87 88.53 159.24 89.83 158.52 91.15 157.9 92.47 157.3 93.76 156.64 95.07 156 96.39 155.39 97.68 154.72 98.96 154.04 100.26 153.39 101.59 152.8 102.9 152.17 104.22 151.56 105.51 150.89 106.82 150.26 108.09 149.55 109.39 148.91 110.71 148.3 111.99 147.62 113.31 147 114.61 146.34 115.95 145.76 117.26 145.13 118.58 144.49 119.84 143.8 119.17 142.5 118.61 141.12 117.88 139.83 117.28 138.48 116.62 137.15 115.91 135.86 115.28 134.51 114.62 133.19 114.01 131.83 113.32 130.52 112.68 129.17 112.04 127.8"/><polygon class="cls-7" points="126 107.11 124.27 107.7 122.54 108.25 120.88 108.98 119.25 109.78 117.54 110.39 115.8 110.9 114.03 111.36 112.39 112.15 110.71 112.84 109.02 113.49 107.27 114.02 105.56 114.61 103.84 115.22 102.16 115.91 100.45 116.5 98.83 117.36 97.07 117.83 95.4 118.56 93.65 119.08 91.92 119.64 90.28 120.45 88.54 120.97 86.88 121.72 85.1 122.16 83.43 122.89 81.8 123.71 80.05 124.24 78.32 124.82 76.64 125.52 74.95 125.98 73.53 124.98 72.09 123.88 70.75 122.66 69.29 121.58 67.93 120.38 66.56 119.21 65.11 118.1 63.72 116.94 62.45 115.63 60.86 114.7 59.58 113.4 58.22 112.19 56.65 111.25 55.33 109.99 53.9 108.88 52.66 107.52 51.12 106.53 49.8 105.27 48.38 104.14 46.93 103.04 45.54 101.88 44.12 100.75 42.68 99.63 41.22 98.54 39.93 97.25 38.39 96.25 37.09 94.97 35.69 93.81 34.38 92.52 32.93 91.45 33.22 89.67 33.46 87.88 33.88 86.11 34.08 84.31 34.45 82.53 34.54 80.71 35.03 78.95 35.35 77.17 35.62 75.37 35.89 73.58 36.24 71.8 36.65 70.03 36.7 68.19 37 66.4 37.33 64.61 37.73 62.84 38.03 61.05 38.32 59.25 38.67 57.47 38.9 55.66 39.07 53.85 39.43 52.07 39.77 50.28 40.08 48.49 40.4 46.7 40.79 44.92 41.1 43.13 41.24 41.3 41.68 39.53 41.85 37.66 43.63 37.1 45.27 36.32 47.02 35.83 48.71 35.17 50.38 34.46 52.09 33.86 53.85 33.41 55.48 32.58 57.25 32.12 58.87 31.29 60.6 30.72 62.29 30.07 64.04 29.56 65.73 28.91 67.41 28.21 69.13 27.61 70.85 27.02 72.56 26.41 74.19 25.58 75.9 24.95 77.63 24.4 79.37 23.87 81 23.04 82.75 22.52 84.47 21.92 86.1 21.08 87.86 20.59 89.57 19.97 91.3 19.39 92.97 18.71 94.32 19.88 95.68 21.08 97.25 22.02 98.65 23.17 99.94 24.46 101.41 25.52 102.73 26.77 104.24 27.8 105.59 29.01 106.85 30.33 108.25 31.48 109.78 32.49 111.15 33.68 112.48 34.92 114.03 35.9 115.43 37.06 116.7 38.38 118.19 39.43 119.66 40.5 120.98 41.75 122.36 42.94 123.81 44.03 125.17 45.24 126.7 46.23 127.89 47.65 129.41 48.67 130.76 49.9 132.16 51.06 133.67 52.1 134.94 53.38 134.58 55.12 134.48 56.94 134.14 58.72 133.72 60.48 133.47 62.28 133.26 64.08 132.91 65.86 132.68 67.67 132.39 69.46 132.16 71.26 131.86 73.05 131.44 74.82 131.09 76.6 130.83 78.4 130.34 80.16 130.27 81.99 129.87 83.76 129.72 85.58 129.32 87.36 128.98 89.14 128.71 90.94 128.48 92.74 128.16 94.53 127.81 96.32 127.51 98.11 127.17 99.9 126.86 101.69 126.63 103.5 126.2 105.3 126 107.11"/></svg>
