<svg id="Layer_1" data-name="Layer 1" xmlns="http://www.w3.org/2000/svg" viewBox="0 0 400 288"><defs><style>.cls-1{fill:#e2dfd6;}.cls-2{fill:#fbc357;}.cls-3{fill:#081d4c;}.cls-4{fill:#e5ac51;}.cls-5,.cls-9{fill:none;stroke-miterlimit:10;}.cls-5{stroke:#fab42d;stroke-width:3px;}.cls-6{fill:#f37f82;}.cls-7{fill:#fab42d;}.cls-8{fill:#2dd6a5;}.cls-9{stroke:#e2dfd6;stroke-width:4px;}</style></defs><title>illustration-engage-thankyou</title><rect class="cls-1" x="118.28" y="41.34" width="213.53" height="119.67" rx="14.84" ry="14.84" transform="translate(7.49 -15.24) rotate(3.95)"/><path class="cls-2" d="M209.74,165.67c-1.17-1.2.61-1.24,1.7-2.89a27,27,0,0,1,2-2.69,21.15,21.15,0,0,1,2.35-2.38,15.16,15.16,0,0,1,2.77-1.87,11.14,11.14,0,0,1,3.14-1.11,13.62,13.62,0,0,1,3-.19,27.41,27.41,0,0,1,3,.29c1,.15,2,.36,3,.59s2,.52,3,.79,2,.56,2.94.86,2,.65,2.91,1c1.07.38,2,.8,2.85,1.12,1.74.67,1.37,1.49,2.86,1.16s.73-.93,1.92-2.31l1.95-2.24,2-2.23c.64-.72,1.31-1.46,2-2.21s1.33-1.48,2-2.2,1.36-1.48,2-2.17,1.41-1.47,2.08-2.13,1.52-1.45,2.18-2a9.83,9.83,0,0,1,2.43-1.67,3.69,3.69,0,0,1,2.61-.3c1.34.49,2,.77,1.55,2-.54,1.56-.8,1.44-1.67,2.85l-1.73,2.82c-.87,1.41-.91,1.38-1.78,2.79s-.85,1.42-1.72,2.83-.88,1.4-1.75,2.81-.92,1.38-1.79,2.79a19.78,19.78,0,0,1-9.18,8.09c-.14.06-.12.11-.26.15-1.42.42-1.44.36-2.86.76l-2.85.79c-1.42.4-1.43.37-2.86.77s-1.41.47-2.83.87-1.45.31-2.87.71-1.4.5-2.83.9-1.39.85-2.87.73c-1.66-.14-1.51-.68-3-1.33s-1.54-.63-3.07-1.29-1.56-.6-3.09-1.26-1.49-.75-3-1.4a17.62,17.62,0,0,0-3.1-1.23C211.17,166.54,210.9,166.87,209.74,165.67Z"/><path class="cls-2" d="M187.08,166.17c-1.5.42-.45,1.07-1.3,2.9-.37.79-.82,1.73-1.32,2.82-.39.86-.73,1.84-1.2,2.87s-1,1.76-1.43,2.77-.79,1.86-1.23,2.86-.79,1.88-1.22,2.86-.79,1.88-1.22,2.86-.77,1.9-1.2,2.87-.84,1.87-1.25,2.84-.89,1.85-1.3,2.83-.7,1.94-1.11,2.91-.93,1.85-1.33,2.82-.67,2-1.07,2.93-.74,1.93-1.13,2.9-.91,1.86-1.3,2.83-.73,1.93-1.12,2.91-.85,1.89-1.23,2.87-.59,2-1,3-.77,1.92-1.15,2.9-.84,1.9-1.21,2.88-.77,2-1.14,2.94-.66,2-1,3-.79,2-1.15,2.94-.56,2.05-.91,3-.74,2-1.08,3-.83,2-1.17,2.94-.74,2-1.07,3-.51,2.08-.84,3-.86,2-1.18,2.93-.49,2.09-.8,3.05-.69,2-1,3-.71,2-1,3-.56,2.08-.85,3-.7,2.06-1,3c-.33,1.1-.54,2.13-.8,3-.34,1.18-.81,2.14-1,3-.55,2-2.23,2.63-.75,3.14s1.64,0,3.25,0h3.23c1.61,0,1.61,0,3.22,0s1.61-.06,3.22-.06,1.61-.05,3.23-.05,1.61-.06,3.23-.06,1.61.19,3.22.19,1.61-.14,3.23-.14,1.61.16,3.23.16,1.61-.18,3.23-.18,1.62.09,3.23.09,1.71.51,3.24,0,.13-1.13.34-3.1c.09-.86.27-1.89.4-3.06.11-.93.06-2,.19-3.08s.21-2,.34-3.07.34-2,.48-3.05.34-2,.48-3.05.26-2,.4-3.06.17-2,.32-3.07.36-2,.51-3,.24-2,.4-3.06.25-2,.41-3.06.42-2,.59-3,.31-2,.48-3,.28-2,.46-3.06.38-2,.57-3,.37-2,.56-3,.43-2,.63-3,.45-2,.66-3,.34-2,.56-3,.6-2,.83-3,.4-2,.64-3,.52-2,.78-3,.43-2,.71-3,.72-2,1-2.93.53-2,.86-3,.67-2,1-2.92.86-1.93,1.26-2.82.86-1.95,1.33-2.79a20.65,20.65,0,0,1,1.73-2.55,9.78,9.78,0,0,1,2.16-2.18c.88-.59,1.72-1.24,2.61-1.8s1.89-1,2.8-1.49,1.84-1.06,2.76-1.55,1.86-1,2.79-1.49,1.91-1,2.85-1.39,2-.74,3-1.14,1.93-1,2.86-1.37,2-.82,2.94-1.16c1.13-.41,2.14-.73,3-1,1.89-.64,4.49-.32,3.06-1s-1.61-.3-3.2-.62-1.62-.16-3.2-.49-1.55-.49-3.14-.82l-3.17-.64c-1.59-.33-1.6-.23-3.19-.56s-1.57-.39-3.16-.71-1.58-.35-3.17-.67l-3.18-.65a20.86,20.86,0,0,0-3.19-.6,19.37,19.37,0,0,0-3.12,0c-1.56,0-1.56.07-3.13.09s-1.57-.08-3.13-.06-1.57,0-3.13,0a20.3,20.3,0,0,1-3.14.13C188.64,166.15,188.59,165.75,187.08,166.17Z"/><path class="cls-3" d="M152.63,101.24c1.1-1.12.07-1.52.2-3.08s.4-1.54.53-3.1,0-1.58.09-3.14.27-1.55.41-3.11,1.41-2.21.23-3.24c-1.45-1.26-2.22-.75-3.93.11-1.2.6-.15,1.48-1.2,2.31-.75.59-1.44,1-1.95.17-.64-1,.23-1.31.4-2.51s-.53-1.7.51-2.31c1.4-.83,1.58.16,3.2.29s1.63,0,3.25.16,1.62.21,3.24.35,1.62.23,3.24.36,1.91-.79,3.14.28c.89.77-.1,1-.21,2.21s.51,1.34-.19,2.29c-.46.63-1.09.85-1.58.24-.9-1.12.52-1.9-.61-2.79-1.45-1.15-2-1.69-3.55-.69-1.32.84,0,1.55-.09,3.11s-.15,1.56-.28,3.12-.42,1.54-.55,3.1,0,1.57-.17,3.13-1.27,1.92-.38,3.21,1.81-.25,3,.7c.6.49.64,1.19-.08,1.46-1.53.57-1.62-.09-3.25-.22s-1.62-.18-3.25-.32-1.83.52-3.24-.3a.75.75,0,0,1,.15-1.43C151.19,101.06,151.58,102.31,152.63,101.24Z"/><path class="cls-3" d="M166,102.65c.86-1.34,0-1.64.15-3.23s.22-1.58.36-3.16.14-1.58.27-3.17.18-1.58.32-3.17.83-1.74.26-3.23c-.35-.92-1.36.06-1.93-.74-.45-.63-.56-1.23.1-1.64,1.07-.66,1.3-.17,2.56-.21a16.08,16.08,0,0,1,2.52.26c.37,0,.62-.19.66.18.18,1.49-.16,1.49-.29,3s0,1.51-.17,3c-.1.79-.65.81-.37,1.55A6.93,6.93,0,0,1,172.81,91a7.25,7.25,0,0,1,2.55,0c1.28.11,2.23.24,2.81.88a4.66,4.66,0,0,1,.9,2.87,18.71,18.71,0,0,1-.09,3c-.13,1.49-.33,1.48-.46,3s-.5,1.57.1,2.94c.36.83,1.16-.29,1.74.41s.43,1.29-.3,1.51c-1.8.55-1.85,0-3.72-.17s-2,.32-3.68-.53c-.67-.34-.64-1-.05-1.47.77-.61,1.61.88,2.22.11.81-1,.06-1.42.17-2.73s-.1-1.32,0-2.63a15.34,15.34,0,0,0,.19-3.17,2.17,2.17,0,0,0-2.2-2,3.59,3.59,0,0,0-2.32.62,11.15,11.15,0,0,0-.45,3.09c-.13,1.57-.18,1.56-.32,3.13s-.43,1.59,0,3.09c.22.69.76-.09,1.16.52s.66,1.28-.06,1.52c-1.68.56-1.8,0-3.57-.15s-2,.5-3.61-.33a1.1,1.1,0,0,1,.12-1.85C164.93,102.08,165.53,103.44,166,102.65Z"/><path class="cls-3" d="M194.86,97.4c-.11,1.32-.21,1.31-.32,2.62s-.07,1.32-.18,2.64-.87,1.46-.28,2.64c.37.73,1.08-.47,1.69.07.45.4,0,.69-.23,1.23a5.86,5.86,0,0,1-2.94.5c-1.26-.11-1.91-.7-1.91-1.71a5.19,5.19,0,0,1-4,1.19,5.78,5.78,0,0,1-3.25-1.29,3.46,3.46,0,0,1-1.2-3.12,3.93,3.93,0,0,1,1.62-3.06,8.41,8.41,0,0,1,3.37-1.3,14.53,14.53,0,0,1,3.58-.12c.2-.05,0-.11,0-.32a3.28,3.28,0,0,0-.47-2.33,2.57,2.57,0,0,0-2.11-.93,8.52,8.52,0,0,0-4.08.61c-.74-.56-.66-.85-.62-1.78a7.78,7.78,0,0,1,3-.81,15.12,15.12,0,0,1,3.11-.14,7.93,7.93,0,0,1,2.73.71,3.62,3.62,0,0,1,2,1.87A5.9,5.9,0,0,1,194.86,97.4ZM186.18,102a2,2,0,0,0,2,2.5,3,3,0,0,0,2.08-.53c.41-2.18.73-2.22.43-4.42a6.79,6.79,0,0,0-2.87.39A2.28,2.28,0,0,0,186.18,102Z"/><path class="cls-3" d="M199.12,105.47c.77-1.27.1-1.53.22-3s-.07-1.5.05-3,1-1.58.53-3c-.32-1-1.21-.36-1.73-1.26-.34-.58-.48-.92.12-1.22,2-1,2.11-.63,4.32-.88.44-.05.71-.23.84.19.28.89-.44,1-.08,1.82a6.9,6.9,0,0,1,2.44-1.23,7.76,7.76,0,0,1,2.81-.41,4.24,4.24,0,0,1,2.57.9,4,4,0,0,1,1.21,2.46,14.26,14.26,0,0,1-.24,2.74c-.15,1.72.13,1.74,0,3.46s-1,1.78-.33,3.39c.34.86,1.17-.29,1.77.42s.57,1.47-.16,1.69c-1.79.56-1.91-.31-3.78-.47s-2,.5-3.71-.35c-.68-.34-.57-1.06,0-1.55s1.44.73,1.94-.05c.85-1.34,0-1.6.11-3.18s.38-1.56.52-3.14a6.44,6.44,0,0,0-.2-2.7c-.29-.77-1-1.12-2.26-1.22a5.75,5.75,0,0,0-2.53.58c-.39,1.49-.06,1.56-.19,3.09s0,1.55-.11,3.08-.82,1.57-.26,3c.3.78,1-.17,1.48.5s.65,1.41-.08,1.65c-1.69.56-1.81-.45-3.58-.6s-1.93.59-3.51-.25c-.67-.36-.52-.92.12-1.33C198.23,105.14,198.69,106.18,199.12,105.47Z"/><path class="cls-3" d="M217.09,106.92c.84-1.31-.09-1.59,0-3.15s.12-1.55.26-3.11.14-1.55.27-3.11.48-1.53.62-3.08.62-1.65,0-3.08c-.44-1-1.16-.17-1.82-1.06-.47-.63-.62-1.06,0-1.47,1.13-.69,1.3-.22,2.62-.28a14.53,14.53,0,0,1,2.64.15c.38,0,.79-.2.84.18.19,1.4-.38,1.42-.5,2.82s0,1.41-.12,2.82-.28,1.39-.4,2.8.22,1.44.06,2.84c-.1.91-1.33,2.06-.42,1.9,1.63-.3,1.12-1.31,2.35-2.42s2.26-.47,2.45-2.12c.13-1.1-1.23.35-1.94-.5s-.82-1.39.09-1.78c1.7-.74,1.8.05,3.65.21s2.25-.87,3.81.14c.83.54.37,1.38-.41,2s-1.13-.26-2.24.15-.86.85-1.79,1.62-1.75.27-1.9,1.46c-.18,1.36.79,1.13,1.46,2.32s.49,1.3,1.16,2.5a6.72,6.72,0,0,0,1.55,2.21c.51.51,1-.16,1.37.44s.47,1.35-.25,1.59c-1.67.56-1.75-.21-3.5-.36s-2,.69-3.56-.14c-.67-.36-.31-1,.17-1.61s1.47.44,1.5-.21c.06-1.32-.66-1.26-1.24-2.44s-.1-1.73-1.36-2.12c-1.06-.33-1.13.3-1.67,1.26-.35.63-.07.77-.11,1.49s-.22.78.23,1.37,1-.19,1.52.46.54,1.56-.18,1.8c-1.72.56-1.88-.16-3.68-.31s-2,.43-3.63-.41c-.67-.35-.4-1.07.25-1.46C216.18,106.69,216.59,107.69,217.09,106.92Z"/><path class="cls-3" d="M244.16,108.93c.92-.8,0-1.17.14-2.39s.61-1.24.37-2.43c-.3-1.48-.8-1.32-1.42-2.69s-.42-1.47-1-2.85-.88-1.27-1.51-2.65-.17-1.62-1.15-2.78c-.47-.55-.88.16-1.24-.46-.45-.78-.8-1.49,0-1.81,1.73-.67,1.88.11,3.72.27s2-.45,3.64.49c.77.45.39,1-.2,1.62s-1.47-.59-1.5.18c-.06,1.93.87,1.76,1.57,3.55s.68,1.81,1.33,3.63c.22.62-.35,1.45.31,1.45s.32-.79.65-1.41c.86-1.64.7-1.72,1.58-3.34s1.86-1.32,1.72-3.16c-.08-1-1.25.38-1.92-.42s-.66-1.55.17-1.91c1.54-.67,1.69.28,3.36.42s1.85-.57,3.25.35c.76.49.56,1,0,1.66s-1.17-.41-1.82.14c-1.07.92-.44,1.45-1.16,2.66s-.85,1.13-1.58,2.34-.74,1.2-1.47,2.41-1.11,1-1.56,2.38a7.31,7.31,0,0,0-.26,2.56c-.11,1.27-1,1.67-.19,2.64,1.05,1.22,1.85-.15,3.12.85.61.48.66,1.07-.07,1.34-1.55.57-1.62,0-3.27-.14s-1.66-.05-3.31-.19-1.88.45-3.32-.38a.93.93,0,0,1,.12-1.66C242.62,108.53,243.05,109.89,244.16,108.93Z"/><path class="cls-3" d="M270.57,105.87a9,9,0,0,1-.69,2.85,6.94,6.94,0,0,1-1.66,2.4,6.54,6.54,0,0,1-2.5,1.53,7.87,7.87,0,0,1-3,.38,8.34,8.34,0,0,1-2.78-.88,5.77,5.77,0,0,1-2.27-1.73,6.26,6.26,0,0,1-1.1-2.64,9.45,9.45,0,0,1-.21-2.88,8.66,8.66,0,0,1,.78-2.79,6.63,6.63,0,0,1,1.67-2.36,6.81,6.81,0,0,1,2.6-1.31,8.6,8.6,0,0,1,5.69.31,5.71,5.71,0,0,1,2.13,1.83,5.93,5.93,0,0,1,1.26,2.48A9.53,9.53,0,0,1,270.57,105.87ZM260.31,105a11.67,11.67,0,0,0,.26,3.75c.36,1.39,1.2,2.51,2.47,2.61a2.75,2.75,0,0,0,2.81-2,11.94,11.94,0,0,0,.67-3.58,11.38,11.38,0,0,0,0-3.56,2.82,2.82,0,0,0-5.38-.69A9.88,9.88,0,0,0,260.31,105Z"/><path class="cls-3" d="M272.87,101.41c-.29-.62-.4-1.12.23-1.39,2-.9,2.17-.4,4.38-.57.33,0,.7-.17.74.15.16,1.45-.17,1.48-.29,2.93s-.36,1.43-.49,2.89-.06,1.46-.18,2.91a8,8,0,0,0,0,2.45,1.91,1.91,0,0,0,1.93,1.31,4,4,0,0,0,2.58-.7,13.09,13.09,0,0,0,.46-2.74c.12-1.39.07-1.39.18-2.78s.49-1.43,0-2.75c-.29-.82-.95-.17-1.38-.92s-.47-1,.15-1.48c1-.71,1.17-.28,2.37-.43a14.84,14.84,0,0,1,2.42-.16c.31,0,.45-.1.47.21a12.19,12.19,0,0,1-.07,3.17c-.13,1.58-.15,1.58-.28,3.17s-.36,1.57-.49,3.15-.76,1.72-.22,3.22c.25.69,1-.36,1.49.16s.31.64,0,1.2a8.68,8.68,0,0,1-3.32.27c-1-.08-1.53-.46-1.46-1.33,0-.33.34-.7,0-.82a6.7,6.7,0,0,1-2.17,1.24,6.23,6.23,0,0,1-2.35.51,5.29,5.29,0,0,1-2.6-.91,3.2,3.2,0,0,1-1.35-2.28,11,11,0,0,1,0-2.75c.13-1.54-.14-1.56,0-3.1s.72-1.56.39-3.07C274,101.43,273.17,102,272.87,101.41Z"/><path class="cls-3" d="M294.09,108.45a1.3,1.3,0,0,1-2.21-.15c-.84-1.32.08-1.63.07-3.2s-.2-1.56-.21-3.13.19-1.57.17-3.13-.14-1.57-.15-3.14-.84-1.84.19-3c.85-1,1.16-.08,2.45,0s1.81-.76,2.48.34c.81,1.34-.24,1.48-.53,3s0,1.59-.31,3.13-.42,1.52-.71,3.05-.77,1.5-.79,3.07S295.14,107.28,294.09,108.45Zm1.11,4.8a2.73,2.73,0,0,1-3,2.36,2.26,2.26,0,0,1-2.1-2.4,3,3,0,0,1,2.91-2.5A2.26,2.26,0,0,1,295.2,113.24Z"/><path class="cls-3" d="M289.83,124.36c-1.49.53-1.54-.06-3.11-.17s-1.57-.17-3.15-.28-1.58-.08-3.16-.19-1.59.11-3.17,0-1.57-.18-3.15-.29-1.57-.27-3.14-.38-1.59.13-3.17,0-1.56-.28-3.14-.39-1.59.06-3.17,0-1.56-.34-3.14-.45-1.58-.08-3.16-.19-1.59,0-3.16-.09-1.58,0-3.16-.15-1.57-.24-3.15-.35-1.59,0-3.17-.09-1.57-.2-3.15-.31-1.57-.25-3.15-.36l-3.16-.21c-1.58-.11-1.59,0-3.16-.11s-1.59,0-3.16-.08-1.57-.24-3.15-.35-1.57-.2-3.15-.31-1.58-.13-3.15-.24-1.59.09-3.17,0-1.58-.15-3.15-.26-1.58,0-3.16-.15-1.56-.3-3.14-.41-1.59.09-3.17,0-1.56-.38-3.14-.49l-3.16-.21c-1.58-.11-1.59,0-3.16-.1s-1.57-.19-3.15-.3-1.59,0-3.16-.11-1.59,0-3.17-.1-1.57-.17-3.15-.27-1.57-.25-3.15-.36-1.58,0-3.16-.16-1.58-.18-3.16-.29-1.59,0-3.17-.08-1.59,0-3.17-.14-1.57-.22-3.15-.33-1.57-.25-3.15-.36-1.59-.06-3.17-.17-1.8.65-3.2-.09a.76.76,0,0,1,.14-1.4c1.49-.53,1.57-.06,3.14,0s1.57.19,3.15.3,1.57.26,3.14.37,1.59,0,3.17.06l3.16.21c1.58.11,1.57.16,3.15.27s1.57.21,3.15.32l3.15.22c1.58.11,1.58.13,3.15.24l3.16.21,3.15.23,3.15.22c1.58.11,1.59-.15,3.17,0s1.56.32,3.14.42l3.16.23c1.58.11,1.59-.1,3.17,0l3.15.22c1.58.11,1.57.21,3.15.32l3.16.2,3.16.22c1.58.11,1.57.19,3.15.3s1.59-.06,3.17.05,1.57.29,3.14.4,1.57.17,3.15.28,1.58.06,3.16.17,1.58.08,3.16.19l3.16.21c1.58.11,1.58.06,3.16.17s1.58.07,3.16.18,1.57.2,3.15.31,1.59-.06,3.17.05,1.58.16,3.15.27,1.56.31,3.14.42,1.59,0,3.17.12,1.58.14,3.16.25,1.59,0,3.17.12,1.57.22,3.15.33,1.59,0,3.17.08l3.16.21c1.58.11,1.57.22,3.15.33s1.59-.07,3.17,0,1.58.15,3.16.26,1.58.18,3.16.29,1.65-.24,3.15.27C290.64,123.34,290.49,124.12,289.83,124.36Z"/><path class="cls-4" d="M248.9,157.87c-1.63.57-1.47-.26-3.37-.73-1-.25-2.2-.6-3.33-.95A22.55,22.55,0,0,1,239,155c-1.67.79-1.49,1.08-3,2.2s-3.15.43-2.89,2.25c.23,1.66,1.63.29,3.29.56l3.31.54,3.31.53,3.32.55c1.66.27,1.77,1.17,3.32.53s.94-1.32,1.87-2.66.91-1.34,1.83-2.67l1.84-2.67,1.84-2.67c.93-1.33.92-1.34,1.84-2.68l1.85-2.67c.93-1.34,1-1.31,1.89-2.65a14,14,0,0,0,1.84-2.68,27.68,27.68,0,0,0-2.6,2.06c-.8.7-1.6,1.47-2.4,2.28s-1.55,1.57-2.29,2.39-1.48,1.67-2.18,2.5-1.44,1.76-2.09,2.57-1.49,1.82-2.08,2.58C249.63,156.82,250.46,157.33,248.9,157.87Z"/><path class="cls-2" d="M209.78,176.3c-1.6-.48,0-1.41.4-3.35a27.19,27.19,0,0,1,.77-3.25,21.35,21.35,0,0,1,1.3-3.08,15.11,15.11,0,0,1,1.74-2.85,11.14,11.14,0,0,1,2.49-2.22,13.58,13.58,0,0,1,2.72-1.36,27.46,27.46,0,0,1,2.92-.92c1-.24,2-.46,3-.65s2-.31,3-.45,2.05-.26,3-.35,2.09-.18,3.05-.24c1.13-.08,2.17-.12,3.05-.16,1.87-.07,1.8.76,3-.14s.31-1.09.86-2.83c.26-.82.63-1.76,1-2.81.29-.88.54-1.85.86-2.84s.61-1.86.94-2.82.7-1.86,1-2.79.68-1.89,1-2.79.71-1.91,1.07-2.78.83-1.93,1.21-2.72a9.89,9.89,0,0,1,1.57-2.5,3.65,3.65,0,0,1,2.29-1.28c1.42-.07,2.17-.09,2.27,1.25.12,1.64-.29,1.62-.53,3.24s-.26,1.62-.5,3.24-.21,1.63-.45,3.25-.21,1.63-.45,3.25-.23,1.62-.47,3.25-.31,1.61-.55,3.24-.22,1.63-.46,3.26.28,1.79-.44,3.27-1.19,1.2-2.33,2.43A16.21,16.21,0,0,1,246,163.3a12.35,12.35,0,0,1-2.56,1.43c-1.27.73-1.25.75-2.52,1.49s-1.29.69-2.56,1.43l-2.54,1.47-2.55,1.45L230.7,172c-1.27.73-1.15,1-2.54,1.46a11.35,11.35,0,0,1-3,.48l-3.06.44c-1.53.23-1.53.25-3.06.48l-3.06.47a14.54,14.54,0,0,0-3.07.43C211.32,176.24,211.27,176.74,209.78,176.3Z"/><path class="cls-4" d="M239.91,159.06c-1.22,1-1.19,0-3.09.06-.89,0-1.92.1-3.07.17-1.09,1.48-.74,1.68-1.44,3.39s-2.54,2-1.41,3.43c1,1.27,1.36-.9,2.69-1.79s1.32-.92,2.64-1.82,1.32-.92,2.65-1.81,1.36-.86,2.69-1.76,1.77-.48,2.65-1.83.29-1.64.61-3.27.33-1.63.65-3.26.37-1.62.69-3.26.29-1.64.61-3.27.35-1.63.67-3.26.3-1.64.63-3.28a22,22,0,0,0,.61-3.28c-.42.88-.81,1.91-1.27,3-.39,1-.83,2-1.24,3.05s-.73,2.05-1.1,3.11-.76,2.07-1.11,3.1-.7,2.12-1,3.13-.73,2.15-1.05,3.13c-.38,1.17-.68,2.24-1,3.15C240.29,157.84,241.21,158,239.91,159.06Z"/><path class="cls-2" d="M196.87,176.3c-1.44-.57,0-1.29.35-3.13.15-.9.32-1.94.61-3a26.72,26.72,0,0,1,1-3,20.71,20.71,0,0,1,1.36-2.79,15.52,15.52,0,0,1,1.85-2.49,12.11,12.11,0,0,1,2.32-2,14.53,14.53,0,0,1,2.68-1.38,27.92,27.92,0,0,1,2.87-.95c.94-.26,1.94-.46,3-.67s2-.4,3-.55,2-.32,3-.44,2-.19,3-.28,2.08-.13,3-.19c1.13-.07,2.15-.1,3-.13,1.86-.07,1.8.77,3-.12s.29-1.1.84-2.85c.26-.82.63-1.76,1-2.82.28-.88.55-1.85.87-2.85s.61-1.86.94-2.83.62-1.88.95-2.83.7-1.87,1-2.8.71-1.89,1.05-2.79.75-1.9,1.11-2.77c.43-1,.82-1.94,1.21-2.73a10.57,10.57,0,0,1,1.57-2.53A4.07,4.07,0,0,1,244,126c1.59-.08,2.34-.09,2.48,1.4s-.25,1.6-.49,3.21-.22,1.61-.46,3.22-.19,1.61-.43,3.22-.26,1.6-.5,3.21-.2,1.61-.44,3.22l-.48,3.21c-.24,1.61-.33,1.59-.57,3.2s-.2,1.62-.44,3.23.3,1.79-.43,3.24c-.84,1.67-1.3,1.36-2.57,2.73a36.73,36.73,0,0,1-2.55,2.73,28.5,28.5,0,0,1-2.58,2L232,165.9c-1.28,1-1.27,1-2.56,2.08l-2.56,2.07c-1.29,1-1.3,1-2.58,2.05l-2.58,2.07c-1.29,1-1,1.57-2.55,2.13s-1.61,0-3.2,0-1.59,0-3.18,0h-3.18l-3.18,0c-1.59,0-1.59,0-3.18,0a16.79,16.79,0,0,0-3.19,0C198.46,176.48,198.35,176.89,196.87,176.3Z"/><path class="cls-4" d="M230.91,155.14c-1.22,1-1.19,0-3.09.1-.89,0-1.93.06-3.08.13-.91,1.31-.52,1.51-1,3s-.49,1.52-1,3-2.29,2.07-1,3,1.29-.93,2.59-1.85,1.31-.9,2.6-1.82,1.28-1,2.57-1.87,1.68-.54,2.6-1.83.41-1.49.84-3,.41-1.49.83-3,.44-1.48.86-3,.45-1.48.87-3,.39-1.5.81-3,.44-1.48.86-3,.46-1.48.88-3,.42-1.49.84-3a27.15,27.15,0,0,0,.82-3c-.42.88-.86,1.9-1.32,3-.39,1-.8,2-1.21,3.07s-.75,2-1.13,3.1-.68,2.1-1,3.13-.74,2.1-1.08,3.12-.7,2.16-1,3.14c-.38,1.17-.71,2.23-1,3.14C231.29,153.93,232.21,154.13,230.91,155.14Z"/><path class="cls-2" d="M184.77,176.24c-1.44-.57,0-1.22.34-3.06.15-.9.34-1.93.64-3a26.62,26.62,0,0,1,1-3,20.61,20.61,0,0,1,1.31-2.82,15.59,15.59,0,0,1,1.82-2.52,12.21,12.21,0,0,1,2.37-2,14.49,14.49,0,0,1,2.68-1.39,27.85,27.85,0,0,1,2.87-1c.94-.26,1.93-.5,2.94-.7s2-.34,3-.5,2-.3,3-.42,2-.24,3-.33,2.08-.17,3-.23c1.13-.07,2.16,0,3-.08,1.86-.07,1.81.8,3-.09s.35-1.09.9-2.85c.26-.82.56-1.78.9-2.84.28-.88.58-1.84.91-2.84s.57-1.88.9-2.84.64-1.88,1-2.82.73-1.86,1.07-2.79.66-1.91,1-2.81.77-1.9,1.13-2.76c.43-1,.82-1.94,1.21-2.72a11,11,0,0,1,1.53-2.55,4.14,4.14,0,0,1,2.61-1.41c1.59-.08,2.35-.05,2.49,1.44s-.21,1.61-.45,3.21-.25,1.61-.49,3.21-.25,1.61-.49,3.21-.26,1.6-.5,3.21-.21,1.61-.45,3.22l-.48,3.21c-.24,1.61-.22,1.61-.46,3.22s-.21,1.61-.45,3.22.18,1.74-.56,3.2c-.84,1.67-1.22,1.4-2.49,2.77a36.76,36.76,0,0,1-2.54,2.74,28.52,28.52,0,0,1-2.56,2.06c-1.28,1-1.32,1-2.61,2s-1.27,1.05-2.56,2.08-1.26,1.06-2.55,2.09-1.27,1-2.56,2.08l-2.57,2.08c-1.29,1-1.05,1.46-2.61,2s-1.59,0-3.18,0-1.59,0-3.18,0-1.59,0-3.18,0-1.59.06-3.18.06h-3.18a18.62,18.62,0,0,0-3.19,0C186.35,176.47,186.26,176.82,184.77,176.24Z"/><path class="cls-5" d="M126.1,96.52c-.86-.32-.88-.25-1.74-.56s-.83-.39-1.69-.71-.88-.28-1.73-.6-.83-.38-1.69-.7-.9-.22-1.76-.54l-1.72-.64c-.86-.32-1.3.14-1.68-.7s.29-.86.61-1.73.31-.87.63-1.74.41-.83.73-1.7.33-.86.65-1.73.25-.89.58-1.76.38-.84.71-1.71.2-.91.52-1.78.44-.82.76-1.69.27-.89.59-1.75.28-.88.61-1.75.36-.85.68-1.72l.65-1.73.64-1.73.65-1.73c.32-.87.34-.86.66-1.73s.3-.88.62-1.74.36-.85.69-1.72.24-.9.56-1.76.31-.87.63-1.73.39-.84.71-1.7.28-.88.6-1.75.31-.87.63-1.74.35-.86.68-1.72.29-.88.61-1.75.34-.86.66-1.73.34-.86.66-1.73l.64-1.74c.32-.87.28-.88.6-1.75s.3-.87.63-1.74.45-.82.77-1.69.26-.89.58-1.76.38-.85.7-1.71.29-.88.61-1.75.31-.87.64-1.74.33-.87.66-1.73l.64-1.74c.32-.87.3-.87.62-1.74s.26-.89.59-1.76.38-.85.71-1.71.25-.89.58-1.76.37-.85.69-1.72.29-.88.61-1.75.45-.83.77-1.7.22-.91.55-1.78-.13-1.29.71-1.68.82.3,1.68.62.87.29,1.72.61l1.72.64c.86.32.84.37,1.7.69l1.72.64,1.72.65,1.72.65"/><path class="cls-6" d="M218.05,54.45c.34.82-.33.81-.67,1.63s-.35.81-.69,1.63-.31.83-.65,1.65L215.38,61c-.34.82-.36.81-.7,1.63s-.33.82-.67,1.65l-.68,1.64c-.34.82-.32.83-.66,1.65s-.36.82-.7,1.64l-.67,1.65c-.34.82.13,1.29-.69,1.63s-.81-.35-1.63-.68-.83-.3-1.65-.64l-1.64-.67-1.64-.67c-.82-.34-.81-.36-1.63-.7l-1.64-.69-1.64-.68c-.82-.34-.83-.31-1.65-.65l-1.64-.69-1.65-.68c-.82-.34-1.33.16-1.67-.67s.37-.82.71-1.65.3-.83.64-1.65.37-.81.71-1.62.32-.83.66-1.65l.68-1.64c.34-.82.33-.82.67-1.64l.68-1.64c.34-.82.35-.82.69-1.64l.67-1.65c.34-.82.36-.82.7-1.64s-.15-1.3.67-1.64.82.32,1.64.66l1.63.68c.82.34.81.36,1.63.7l1.64.68,1.64.66c.82.34.83.32,1.65.66l1.64.69c.82.34.81.36,1.63.69s.84.31,1.66.65.76.56,1.64.72S217.71,53.63,218.05,54.45Z"/><path class="cls-7" d="M279.87,48.93a14.74,14.74,0,0,1-.59-1.81,14.78,14.78,0,0,1,8.84-17.07,14.78,14.78,0,0,1,1.81-.61,14.44,14.44,0,0,1,16.28,7.12,15.48,15.48,0,0,1,1.37,3.55,14,14,0,0,1-.15,7.54,14.8,14.8,0,0,1-3.88,6.48,18.13,18.13,0,0,1-3.08,2.23,11.93,11.93,0,0,1-3.54,1.4,14.64,14.64,0,0,1-9.33-.8A12.87,12.87,0,0,1,283,53.71a12.34,12.34,0,0,1-2.27-3A14.71,14.71,0,0,1,279.87,48.93Z"/><path class="cls-8" d="M128.61,120.25c-.86-.15-.78.39-1.56.79l-1.56.81c-.78.41-.78.42-1.57.81s-.83.32-1.61.71-.76.45-1.54.86-.8.38-1.58.78l-1.56.81c-.78.41-.76.44-1.56.83s-.81.35-1.6.73-.8.37-1.58.79-.76.45-1.55.85-.8.37-1.59.76-.79.39-1.58.8-.74.49-1.53.89-1.14,0-1.56.78.05.86.17,1.72.18.86.31,1.73.14.87.29,1.74.12.87.27,1.74.16.87.29,1.74.11.87.25,1.74.17.86.32,1.73.1.88.23,1.75.14.87.29,1.74.22.86.35,1.73,0,.89.15,1.76.13.87.29,1.74.21.86.36,1.73.18.87.3,1.74-.4,1.11.23,1.74.85.15,1.73.29.87.13,1.74.28.88.11,1.75.25.86.2,1.73.32.88.05,1.76.19.86.19,1.73.34.87.15,1.74.28l1.74.26c.87.13.87.12,1.74.28s.86.21,1.73.35.88.09,1.75.23.86.19,1.73.32.88.07,1.76.19.87.16,1.74.3,1,.67,1.75.28.4-.78.8-1.57.42-.77.81-1.56l.78-1.58c.39-.79.38-.8.79-1.57s.39-.79.8-1.57.43-.76.82-1.55.41-.78.8-1.57.4-.79.8-1.57.36-.81.77-1.59.39-.79.8-1.57.47-.75.86-1.55.34-.81.74-1.6.46-.76.87-1.54.38-.8.78-1.59.92-.71.77-1.59-.64-.6-1.26-1.23-.58-.67-1.2-1.29l-1.26-1.24c-.63-.62-.62-.62-1.24-1.24s-.63-.62-1.26-1.23-.64-.6-1.27-1.22-.61-.64-1.22-1.27-.61-.64-1.23-1.27-.66-.59-1.28-1.21-.61-.63-1.24-1.26-.65-.6-1.27-1.22-.57-.67-1.2-1.29-.68-.57-1.31-1.19a6.24,6.24,0,0,1-1.19-1.31C129.36,120.72,129.48,120.4,128.61,120.25Z"/><polyline class="cls-9" points="71 275 72.76 274.91 74.52 274.77 76.28 274.8 78.04 274.95 79.8 274.89 81.56 274.86 83.32 275.14 85.08 275.24 86.84 275.04 88.6 275.07 90.36 275.1 92.12 275.13 93.88 275.09 95.64 275.03 97.39 274.97 99.15 275.01 100.91 275.21 102.67 274.92 104.43 275.08 106.19 274.78 107.95 274.77 109.71 275 111.47 274.9 113.23 274.98 114.99 275.21 116.75 274.89 118.51 274.91 120.27 274.89 122.03 274.97 123.79 274.84 125.55 274.99 127.31 275.01 129.07 275.14 130.82 274.83 132.58 275.2 134.33 274.78 136.09 275.08 137.84 275.18 139.59 275.07 141.35 274.82 143.1 275.23 144.86 274.87 146.62 274.91 148.37 274.79 150.13 275 151.89 274.77 153.65 275.19 155.41 274.87 157.17 274.87 158.93 274.79 160.69 275.2 162.45 275.06 164.21 274.88 165.97 275.22 167.73 275.15 169.49 274.94 171.24 275.19 173 274.98 174.76 275.22 176.51 275.24 178.27 274.77 180.03 275.02 181.79 275.24 183.54 274.92 185.3 275.05 187.06 275.18 188.83 274.84 190.59 275 192.35 275.2 194.11 275.17 195.87 275.23 197.63 275.19 199.39 275 201.15 274.8 202.91 275.23 204.67 275.13 206.43 275.21 208.19 274.99 209.95 274.95 211.71 274.9 213.47 275.06 215.24 274.99 217 275.16 218.76 275.05 220.52 274.84 222.28 275.22 224.04 275.15 225.8 275.09 227.56 275.11 229.32 274.9 231.09 274.79 232.85 275.15 234.61 274.89 236.38 275.17 238.14 275.01 239.9 274.91 241.66 275.08 243.42 275.13 245.19 274.82 246.95 274.77 248.71 274.96 250.47 275.19 252.24 274.76 254 275.15 255.76 275.17 257.53 274.82 259.29 274.83 261.05 274.83 262.82 275.04 264.58 275.17 266.34 275.15 268.1 274.8 269.86 274.89 271.62 274.99 273.38 275.16 275.15 275.2 276.91 274.87 278.67 274.93 280.43 275 282.2 274.94 283.96 275.21 285.73 275 287.49 275.15 289.26 274.86 291.02 274.91 292.79 275.06 294.55 274.9 296.32 275.16 298.09 274.97 299.85 274.81 301.62 274.96 303.38 274.91 305.15 275.11 306.92 275.23 308.68 275.2 310.45 274.92 312.23 274.87 314 275.21"/></svg>
