<svg id="Layer_1" data-name="Layer 1" xmlns="http://www.w3.org/2000/svg" viewBox="0 0 400 288"><defs><style>.cls-1{fill:#2dd6a5;}.cls-10,.cls-2,.cls-7,.cls-8{fill:none;}.cls-2,.cls-6{stroke:#e2dfd6;}.cls-10,.cls-2,.cls-6,.cls-7,.cls-8{stroke-miterlimit:10;stroke-width:4px;}.cls-3{fill:#f37f82;}.cls-4{fill:#659bf9;}.cls-5{fill:#e2dfd6;}.cls-6,.cls-9{fill:#fff;}.cls-7,.cls-8{stroke:#f37f82;}.cls-8{stroke-dasharray:1.9 1.9;}.cls-10{stroke:#fbc357;}</style></defs><title>illustration-flash-share</title><path class="cls-1" d="M274.49,120.34c.25-.58.5-1.15.78-1.7s.59-1.11.91-1.64.67-1.06,1-1.57.77-1,1.16-1.48.81-1,1.23-1.41.84-.93,1.29-1.36.88-.89,1.36-1.29,1-.77,1.49-1.14,1-.76,1.52-1.1,1.07-.66,1.61-1,1.15-.49,1.72-.75,1.12-.55,1.7-.78,1.15-.49,1.75-.68,1.21-.33,1.81-.48,1.22-.27,1.84-.38,1.23-.18,1.86-.25,1.24-.12,1.87-.15,1.25-.06,1.87,0,1.25,0,1.87.09,1.24.14,1.86.24,1.23.21,1.84.35,1.23.21,1.84.39,1.19.39,1.78.61,1.15.47,1.73.72,1.14.53,1.69.81,1.09.61,1.63.93,1.09.62,1.6,1,1,.74,1.5,1.13.95.82,1.41,1.24.92.84,1.36,1.29.84.92,1.25,1.4.8,1,1.17,1.46.74,1,1.08,1.53.58,1.11.88,1.65.6,1.09.86,1.66.58,1.11.8,1.69.39,1.19.58,1.78.37,1.19.52,1.8.33,1.21.44,1.82.16,1.24.23,1.86.07,1.24.1,1.87,0,1.24,0,1.87,0,1.25,0,1.87-.14,1.24-.24,1.86-.27,1.22-.41,1.83-.23,1.23-.4,1.83-.39,1.18-.6,1.78-.47,1.15-.72,1.73-.46,1.17-.74,1.72-.62,1.09-.94,1.62-.68,1.05-1,1.56-.69,1-1.08,1.53-.83.93-1.25,1.39-.88.89-1.33,1.32-.85.92-1.33,1.32-1,.75-1.51,1.11-1,.78-1.51,1.11-1.07.66-1.61,1-1.13.54-1.69.81-1.14.51-1.72.74-1.17.43-1.77.62-1.18.42-1.79.57-1.23.24-1.84.36-1.23.2-1.85.27-1.24.14-1.87.17-1.25,0-1.87,0-1.24-.09-1.87-.14-1.24-.08-1.86-.17-1.24-.17-1.85-.31-1.2-.35-1.8-.53-1.2-.35-1.79-.56-1.16-.46-1.73-.71-1.14-.52-1.69-.81-1.09-.61-1.62-.93-1.09-.61-1.6-1-1-.7-1.53-1.09-.9-.87-1.36-1.29-.91-.85-1.34-1.3-.89-.88-1.29-1.36-.81-1-1.18-1.45-.7-1-1-1.57-.66-1.06-1-1.61-.6-1.1-.87-1.66-.47-1.16-.69-1.74-.47-1.16-.66-1.75-.38-1.19-.53-1.8-.22-1.23-.33-1.85-.21-1.23-.28-1.85-.19-1.24-.22-1.86,0-1.25,0-1.87.06-1.24.12-1.87,0-1.25.11-1.87.24-1.23.37-1.84.27-1.22.45-1.82.43-1.17.64-1.76S274.24,120.92,274.49,120.34Z"/><polyline class="cls-2" points="276.39 227.16 276.12 225.38 275.37 223.78 274.66 222.17 274.18 220.47 273.3 218.92 272.61 217.3 271.95 215.67 271.48 213.97 270.83 212.33 270.19 210.7 269.71 209 268.89 207.43 268.43 205.71 267.75 204.09 267.16 202.43 266.39 200.84 265.71 199.21 265.22 197.51 264.3 195.99 263.81 194.29 263.24 192.63 262.77 190.93 261.8 189.42 261.36 187.71 260.68 186.09 259.85 184.53 259.25 182.88 258.87 181.14 257.99 179.6 257.27 178 256.71 176.33 256.07 174.7 255.59 173 254.91 171.38 254.47 169.67 253.84 168.03 253.09 166.43 252.52 164.77 251.65 163.22 251.33 161.45 250.31 159.96 249.68 158.31 249.05 156.67 248.73 154.9 247.89 153.34 247.23 151.71 246.52 150.1 246.24 148.32 245.6 146.69 244.75 145.13 244.26 143.43 243.63 141.79 243.06 140.13 242.04 138.64 241.48 136.97 241.09 135.23 240.29 133.65 239.7 132 239.22 130.29 238.32 128.75 237.8 127.06 236.92 125.51 236.64 123.73 235.74 122.19 235.24 120.5 234.53 118.89 233.77 117.3 233.47 115.53 232.53 114 231.88 112.36 231.58 110.59 230.63 109.07 230.01 107.42 229.56 105.7 228.75 104.12 228.3 102.41 227.49 100.84 227.09 99.1 226.33 97.51 225.45 95.96 225.22 94.16 224.37 92.6 223.65 90.98 223.02 89.34 222.43 87.67 221.97 85.96 221.24 84.36 220.56 82.73 220.13 81.01 219.44 79.38 218.53 77.84 217.79 76.24 217.47 74.47 216.68 72.89 216.01 71.25 215.5 69.56 214.83 67.93 214.12 66.31 213.5 64.66 212.68 63.09 212.22 61.37 211.53 59.75 210.82 58.14 210.29 56.46 209.54 54.86 209.03 53.17 208.67 51.42 207.99 49.79 207.37 48.14 206.47 46.59 205.69 45.01 205.22 43.29 204.44 41.7 203.88 40.03 203.43 38.31 202.6 36.74 201.91 35.11 201.35 33.43 201 31.68 200.19 30.09 199.69 28.4 198.87 26.82 198.24 25.17 197.49 23.57 196.92 21.89 196.19 20.28 195.45 18.67 194.88 16.99 194.27 15.32 193.77 13.58 192.06 14.11 190.43 14.78 188.87 15.64 187.12 15.99 185.54 16.78 183.97 17.61 182.3 18.19 180.7 18.94 178.89 19.14 177.34 20.01 175.7 20.67 174.12 21.45 172.45 22.02 170.78 22.58 169.13 23.18 167.41 23.64 165.89 24.58 164.24 25.21 162.6 25.86 160.82 26.15 159.21 26.86 157.57 27.52 155.97 28.27 154.34 28.93 152.6 29.32 150.99 30.05 149.44 30.93 147.72 31.37 146.05 31.94 144.44 32.68 142.75 33.19 141.13 33.9 139.52 34.62 137.87 35.22 136.2 35.81 134.58 36.49 132.98 37.26 131.4 38.05 129.66 38.45 127.98 39 126.44 39.92 124.7 40.3 123.03 40.89 121.51 41.84 119.81 42.35 118.24 43.16 116.53 43.63 114.82 44.12 113.29 45.03 111.51 45.33 109.95 46.17 108.22 46.59 106.72 47.58 105.05 48.15 103.38 48.74 101.77 49.46 100.14 50.12 98.43 50.61 96.74 51.13 95.07 51.71 93.51 52.58 91.86 53.19 90.28 54 88.63 54.63 86.98 55.29 85.24 55.68 83.57 56.27 81.98 57.05 80.33 57.66 78.7 58.37 77.06 59 75.41 59.64 73.72 60.21 72.13 60.99 70.33 61.25 68.75 62.09 67.17 62.78 67.94 64.3 68.35 66.02 68.9 67.68 69.5 69.32 70.44 70.84 70.9 72.54 71.6 74.14 72.15 75.81 72.91 77.39 73.48 79.05 74.01 80.71 74.71 82.31 75.37 83.93 76.14 85.5 76.44 87.26 77.14 88.86 77.8 90.48 78.47 92.09 79.27 93.65 79.71 95.35 80.36 96.97 80.94 98.62 81.56 100.25 82.47 101.77 82.78 103.52 83.31 105.19 84.05 106.78 84.57 108.44 85.43 109.99 86 111.65 86.76 113.23 87.32 114.89 87.76 116.6 88.38 118.24 89.33 119.74 89.78 121.44 90.63 122.99 91.34 124.59 91.76 126.31 92.51 127.89 93.04 129.56 93.5 131.25 94.47 132.75 94.89 134.46 95.33 136.17 96.17 137.72 96.78 139.36 97.45 140.97 98.28 142.53 98.68 144.25 99.49 145.82 99.87 147.55 100.46 149.2 101.41 150.71 102 152.36 102.6 154 103.32 155.6 103.72 157.32 104.28 158.98 104.86 160.63 105.58 162.23 106.37 163.8 106.89 165.48 107.4 167.16 108.03 168.8 109.04 170.29 109.6 171.94 110.2 173.59 110.78 175.25 111.42 176.87 112.03 178.51 112.88 180.07 113.32 181.77 114.01 183.39 114.55 185.06 115.34 186.63 115.72 188.36 116.23 190.04 117.24 191.53 117.89 193.16 118.43 194.83 118.87 196.54 119.52 198.17 120.43 199.7 120.67 201.48 121.52 203.04 122.07 204.7 122.67 206.35 123.31 207.99 124.08 209.56 124.71 211.2 125.35 212.83 125.74 214.56 126.56 216.12 127.31 217.71 128.05 219.3 128.33 221.07 129.08 222.66 129.56 224.35 130.44 225.89 131.06 227.53 131.5 229.24 132.37 230.78 133.06 232.4 133.66 234.05 134.11 235.76 135 237.29 135.68 238.91 136.15 240.62 136.83 242.23 137.36 243.91 138.01 245.54 138.57 247.21 139.08 248.89 139.76 250.51 140.6 252.07 141.13 253.75 141.65 255.44 142.42 257.03 143.08 258.67 143.64 260.34"/><polygon class="cls-3" points="46.47 56.4 47.2 54.69 48.04 53.01 49.03 51.43 50.21 49.98 51.34 48.51 52.6 47.14 53.86 45.76 55.31 44.59 56.7 43.34 58.23 42.27 59.92 41.46 61.53 40.52 63.19 39.68 64.96 39.09 66.74 38.54 68.53 38.03 70.36 37.72 72.18 37.33 74.05 37.26 75.91 37.19 77.77 37.23 79.63 37.35 81.47 37.66 83.28 38.08 85.07 38.58 86.82 39.21 88.58 39.84 90.25 40.67 91.9 41.53 93.5 42.49 94.98 43.62 96.47 44.74 97.88 45.96 99.11 47.37 100.37 48.73 101.57 50.16 102.57 51.73 103.56 53.31 104.52 54.91 105.27 56.62 105.8 58.41 106.42 60.16 106.94 61.95 107.31 63.77 107.51 65.63 107.73 67.47 107.75 69.33 107.68 71.19 107.63 73.06 107.26 74.89 106.91 76.72 106.44 78.52 105.82 80.28 105 81.96 104.38 83.72 103.36 85.29 102.46 86.92 101.4 88.46 100.19 89.88 98.91 91.24 97.59 92.54 96.23 93.81 94.73 94.92 93.25 96.05 91.68 97.06 89.98 97.82 88.3 98.64 86.59 99.38 84.81 99.93 82.99 100.33 81.18 100.75 79.33 100.98 77.47 101.08 75.62 101.16 73.75 101.19 71.9 101 70.08 100.59 68.25 100.26 66.43 99.87 64.64 99.32 62.96 98.5 61.27 97.73 59.58 96.92 58.07 95.82 56.48 94.84 55.04 93.65 53.68 92.38 52.41 91.02 51.12 89.67 50.05 88.14 49.02 86.6 47.95 85.08 47.07 83.43 46.29 81.74 45.65 79.99 45.1 78.22 44.64 76.41 44.19 74.61 43.94 72.76 43.78 70.91 43.66 69.04 43.81 67.18 44.03 65.34 44.26 63.49 44.61 61.66 45.14 59.87 45.7 58.1 46.47 56.4"/><path class="cls-4" d="M139.83,61.58l-.85-2.2.77-.3,1,1.15,2-.06,1-1.94-2.2-1.08-1.57-.22-1.49-.51-1-1.17,0-1.51.86-1.26,1.3-.8,1.39-.41,1.42-.17.72,1.83-.83.32-1-1-1.32.17-1,1.67,1.35,1,1.75.3,1.94.42,1.4,1.33.06,1.65-1,1.35L143,61l-1.54.44Z"/><path class="cls-4" d="M151.53,52.64l.36,1.19-1.37.53-1.38.51-1.38.53,1.11,1.38,1.72.09,1.66-1.08.52.55-1,1.1-1.36.71-1.82.25-1.64-.78-1-1.55-.27-1.95.75-1.81L148,51.19l2.1-.1Zm-4.09,1.91,2.45-.94-.66-1.21L148.09,52l-.82,1.1Z"/><path class="cls-4" d="M158.12,50l.7,1.83.71,1.82.74-.27.21.55-1.25.83L158,54.42l-1.51,1.38L154.8,56l-1.26-1.12.15-1.72,1.23-1.27,1.57-.83-.07-.19-1.91-.94-1.66,1.21-.65-.66,1.13-1,1.37-.72,2.07-.2Zm-2.88,3.9,1.5.66.82-.69-.77-2.06-1.23.76Z"/><path class="cls-4" d="M161.06,46.43l2-.76.37.95-1.94.73.94,2.46.53,1.25,1,.67,1-.64.5.51-1.92,1.54L162,53l-.83-1.33-.71-1.85L159.75,48l-.88.33-.23-.58.91-.92.07-1.65.84-.33Z"/><path class="cls-4" d="M171.89,43.5l-.07,1.58-.92,1.3,1.85-.1,1.31,1.27,0,2-1.15,1.64-1.72,1-1.21.33-.38-.91.93-.24,1.56-1.18.22-1.9-.86-1h-1.35l-.41.28-.64.41-.37-1L170,45.91l.29-1.58-1.51-.65L167.16,45l-.7-.49,1-1.22,1.35-.79,1.8-.17Z"/><path class="cls-4" d="M178.66,45.62l-1.49-1.31-1.92.74h-.67L174,43l-.59-2.07,1.83-.68,1.81-.71.1-.24.73-.29L178,40.7l-1.46.54-1.45.56.35,2.12,1.75-.88,1.93.19,1.25,1.48.14,1.7L179.89,48l-1.21,1.22-1.5.84-.7.19-.32-.8,1.54-.76,1-1.36Z"/><path class="cls-4" d="M182,44.8,182,43l0-1.84,0-1.84,0-1.85,0-1.85,1.66-.62,1.19,1.39,1.17,1.41,1.19,1.4,1.18,1.41L189.4,42l1-.12.27.7-1.85.7L187,44l-.28-.72.74-.55-.82-1.05-1.63.61-1.62.63.08,1.32,1-.11.27.73-1.56.59-1.55.59-.28-.71Zm2.08-6.39L183,37l.11,1.63.07,1.63.1,1.64,1.34-.52,1.34-.5-.94-1.2Z"/><path class="cls-2" d="M364,202.68c-.47.12-.5,0-1,.13s-.46.16-.93.28-.49,0-1,.16-.41.37-.88.49-.48.09-.95.22-.39.41-.86.54-.54-.13-1,0-.53-.11-1,0-.46.14-.93.27-.37.49-.84.61-.46.15-.93.27-.49,0-1,.16-.48.1-.95.22-.52-.07-1,.05-.41.37-.88.49-.54-.16-1,0-.44.25-.91.37l-.95.23c-.47.12-.44.24-.91.36s-.56-.2-1-.08-.4.39-.87.52-.52-.06-1,.06-.5,0-1,.15-.45.19-.93.31-.46.16-.93.29-.38.45-.86.58-.54-.13-1,0-.44.23-.91.36-.48.09-1,.21-.42.31-.89.43-.53-.09-1,0-.44.22-.92.35-.53-.1-1,0-.36.54-.83.66-.61-.4-1.08-.28-.37.51-.84.63-.45.19-.92.31l-.94.23c-.47.12-.5,0-1,.13s-.48.09-.95.21-.49,0-1,.17-.48.09-.95.21-.43.26-.9.38l-.94.23c-.47.12-.48.1-.95.22s-.48.07-1,.19-.5,0-1,.13-.44.22-.91.34-.42.32-.89.44-.56-.22-1-.1-.41.36-.88.48-.41.34-.88.46-.55-.19-1-.06-.51,0-1,.07-.42.3-.89.42-.51,0-1,.1-.37.52-.84.64-.49,0-1,.16-.45.2-.92.32l-.94.24c-.47.12-.59-.33-1.06-.2s-.37.5-.84.63-.48.07-1,.19-.55-.18-1-.06-.46.18-.93.3-.46.18-.93.3-.39.42-.87.54l-.94.26c-.47.12-.54-.15-1,0s-.44.25-.91.37-.51,0-1,.08-.38.47-.85.59-.49,0-1,.17-.52-.07-1,.05-.48.09-1,.21-.41.34-.89.46-.48.1-.95.22-.45.19-.93.31l-.95.23c-.47.12-.45.19-.93.31l-.95.23c-.47.12-.59-.35-1.06-.23s-.46.15-.93.27-.44.25-.91.37-.42.32-.89.45-.5,0-1,.14-.46.15-.93.27-.52-.05-1,.07-.5,0-1,.12-.44.25-.91.37-.38.47-.85.59-.59-.32-1.06-.2-.42.33-.89.45l-.94.26c-.47.12-.52,0-1,.07s-.47.14-.94.27-.44.24-.91.37l-.94.24c-.47.12-.52-.06-1,.06s-.45.21-.92.34-.4.41-.87.53-.49,0-1,.15l-.94.24c-.47.12-.42.32-.89.44s-.5,0-1,.13-.52-.06-1,.06l-.94.25c-.47.12-.39.44-.86.56s-.51,0-1,.1-.57-.27-1-.15-.35.59-.81.71-.58-.3-1-.18-.37.48-.84.61-.46.17-.92.29-.53-.1-1,0-.46.16-.93.28-.41.36-.88.48-.54-.16-1,0-.48.09-.95.21-.46.17-.92.29-.52-.09-1,0-.39.43-.86.55-.45.18-.92.3-.51,0-1,.07l-.93.26c-.47.12-.44.25-.91.37l-.94.23c-.47.12-.42.31-.89.43s-.58-.3-1-.18-.44.23-.91.35-.46.18-.93.3-.51,0-1,.09l-.94.25c-.47.12-.45.2-.92.32s-.5,0-1,.13-.37.51-.84.64-.51,0-1,.11-.51,0-1,.09-.51,0-1,.11-.35.58-.82.71-.55-.17-1,0-.44.25-.91.37-.52-.06-1,.06-.43.28-.9.41-.42.33-.89.45-.48.09-1,.22-.48.09-.95.22-.48.09-.95.22-.45.19-.92.32l-.94.24c-.47.12-.57-.27-1-.14l-.94.25c-.47.12-.46.15-.93.27s-.4.4-.87.53-.47.14-.94.26-.58-.28-1-.16-.48.1-.95.22-.46.18-.93.3-.44.22-.91.34-.38.46-.85.58-.51,0-1,.1-.56-.23-1-.11-.34.63-.81.75-.59-.34-1.06-.21-.45.2-.92.32-.41.35-.88.48-.53-.1-1,0-.45.22-.91.34-.44.24-.91.37-.55-.17-1-.05-.35.58-.82.7-.56-.21-1-.09-.38.48-.85.6-.51,0-1,.08-.48.1-.95.22-.47.14-.94.27-.55-.18-1-.05-.43.28-.9.4-.42.32-.89.45-.5,0-1,.13-.42.31-.9.43-.53-.11-1,0-.5,0-1,.12-.42.31-.9.43-.43.27-.91.4-.52-.07-1,.05-.43.28-.9.4-.54-.13-1,0-.42.34-.89.46-.57-.25-1-.13-.46.16-.93.28l-.95.23c-.47.12-.36.55-.83.67l-.94.24c-.47.12-.53-.09-1,0s-.49,0-1,.17-.4.39-.87.51-.5,0-1,.14-.43.27-.9.4-.46.16-.93.29-.6-.38-1.07-.25-.42.31-.89.43-.43.29-.9.41-.57-.26-1-.14-.44.25-.91.37-.43.27-.91.39-.51,0-1,.09l-.94.25c-.47.12-.39.44-.86.56s-.53-.1-1,0-.4.39-.87.52-.56-.2-1-.08-.43.29-.9.41-.43.27-.91.39-.55-.17-1,0-.49,0-1,.17-.5,0-1,.15-.42.33-.89.45-.46.17-.93.29-.47.15-.94.27-.48.09-1,.21-.42.33-.89.45-.5,0-1,.13-.55-.2-1-.07-.36.54-.84.66-.54-.14-1,0-.48.09-1,.21-.47.15-.94.27l-.95.24c-.47.12-.43.29-.9.41s-.46.17-.93.29-.52-.08-1,0-.39.43-.87.55-.51,0-1,.11-.53-.1-1,0-.4.4-.87.52-.55-.16-1,0-.41.36-.88.49-.43.28-.91.4-.52-.07-1,.05-.49,0-1,.17-.45.21-.92.33-.42.31-.9.43-.55-.17-1-.05-.52-.06-1,.07l-.94.26c-.47.12-.36.55-.83.67s-.58-.3-1-.17-.38.47-.85.59l-.94.26c-.47.12-.46.14-.94.26s-.59-.33-1.06-.21-.39.43-.86.55-.51,0-1,.1-.49.05-1,.18-.5,0-1,.15-.41.37-.88.49-.44.23-.92.36-.45.2-.93.32-.5,0-1,.16-.48.1-1,.23-.5,0-1,.13-.52-.08-1,0-.34.63-.81.76-.58-.27-1-.15-.48.08-1,.21-.41.37-.88.49-.5,0-1,.16-.47.16-.94.28-.54-.12-1,0-.42.32-.89.45-.44.26-.91.38-.51,0-1,.1-.44.25-.91.37-.43.28-.91.4-.55-.16-1,0-.41.36-.89.48-.52-.05-1,.07-.54-.12-1,0l-1,.23-.95.25c-.47.12-.37.54-.84.66s-.46.19-.93.31-.59-.33-1.07-.21-.39.45-.86.57-.52-.06-1,.07-.44.25-.91.37-.49.08-1,.21l-1,.24c-.47.12-.45.22-.92.35s-.51,0-1,.12-.45.24-.92.36-.46.18-.94.3L87,275c-.48.12-.49.07-1,.2l-1,.23c-.48.12-.45.23-.93.36l-1,.24"/><polygon class="cls-5" points="301.17 220.95 300.92 219.21 300.61 217.49 300.28 215.78 299.81 214.09 299.48 212.37 299.14 210.66 299.04 208.9 298.54 207.22 298.09 205.53 297.65 203.84 297.66 202.07 297.22 200.38 297.02 198.64 296.46 196.98 296.14 195.27 296 193.52 295.44 191.85 295.05 190.15 294.75 188.44 294.6 186.69 294.02 185.02 293.64 183.32 293.46 181.57 293.09 179.87 292.85 178.13 292.51 176.42 292.25 174.69 292.03 172.95 291.66 171.24 291.13 169.56 290.89 167.83 290.67 166.1 290.21 164.41 289.86 162.7 289.6 160.97 288.98 159.32 288.76 157.58 288.71 155.82 288.24 154.13 287.84 152.43 287.46 150.72 287.1 149.01 286.8 147.29 286.55 145.55 286.01 143.88 285.9 142.12 285.29 140.46 285.15 138.7 284.71 137.01 284.65 135.24 283.98 133.59 283.77 131.85 283.63 130.1 283 128.44 282.63 126.74 282.35 125.01 282.22 123.25 281.66 121.58 281.32 119.86 281.12 118.12 280.63 116.43 280.45 114.69 280.26 112.94 279.73 111.27 279.5 109.53 279.15 107.81 278.95 106.07 278.48 104.38 278.11 102.67 278 100.91 277.43 99.24 277.05 97.53 276.95 95.77 276.44 94.08 276.35 92.31 275.82 90.64 275.34 88.95 275.34 87.16 274.7 85.51 274.34 83.79 273.98 82.08 273.8 80.33 273.43 78.62 273.31 76.86 272.91 75.15 272.42 73.46 272.3 71.71 271.63 70.06 271.41 68.32 270.94 66.63 270.72 64.89 270.58 63.13 270.08 61.45 270.02 59.68 269.43 58.01 269.16 56.28 269.01 54.52 268.65 52.81 268.13 51.13 267.98 49.37 267.31 47.71 267.26 45.94 266.99 44.21 266.57 42.5 266.07 40.81 265.86 39.07 265.46 37.36 264.93 35.68 264.88 33.9 264.29 32.23 264.03 30.49 263.9 28.72 263.25 27.06 263.04 25.38 261.37 25.57 259.68 26.08 257.93 26.23 256.19 26.46 254.52 27.08 252.78 27.33 251.05 27.6 249.3 27.76 247.6 28.19 245.88 28.47 244.21 29.08 242.5 29.47 240.78 29.83 239.03 30.01 237.31 30.33 235.56 30.51 233.9 31.16 232.18 31.5 230.41 31.6 228.72 32.09 226.99 32.36 225.23 32.52 223.57 33.2 221.84 33.48 220.05 33.48 218.37 34.04 216.6 34.12 214.93 34.75 213.17 34.89 211.44 35.19 209.78 35.88 207.98 35.8 206.26 36.17 204.54 36.56 202.72 36.96 203.33 38.7 203.93 40.36 204.78 41.91 205.51 43.51 206.13 45.16 206.62 46.84 207.45 48.4 207.85 50.13 208.36 51.81 209.28 53.34 209.85 54.99 210.46 56.63 210.99 58.3 211.7 59.91 212.15 61.61 213.13 63.11 213.81 64.73 214.45 66.36 214.67 68.15 215.48 69.71 216.19 71.32 216.72 72.99 217.23 74.68 217.99 76.26 218.65 77.89 219.44 79.47 219.8 81.21 220.39 82.87 221.05 84.5 221.67 86.14 222.66 87.64 223.02 89.39 223.79 90.97 224.33 92.64 225.24 94.17 225.49 95.96 226.27 97.53 226.91 99.17 227.37 100.87 228.03 102.5 228.82 104.07 229.35 105.75 229.96 107.39 230.79 108.95 231.27 110.66 232.05 112.24 232.51 113.95 233.22 115.56 233.75 117.24 234.66 118.77 235.06 120.5 235.7 122.13 236.43 123.73 236.92 125.42 237.74 126.99 238.23 128.68 239.15 130.21 239.59 131.93 240.43 133.49 240.79 135.24 241.73 136.76 242.24 138.45 242.91 140.07 243.37 141.78 244.25 143.32 244.67 145.04 245.5 146.61 245.94 148.32 246.59 149.96 247.31 151.57 247.89 153.23 248.34 154.94 249.3 156.45 249.74 158.17 250.64 159.7 251.03 161.44 251.63 163.1 252.47 164.66 253.02 166.33 253.63 167.98 254.13 169.67 254.76 171.32 255.5 172.92 256.18 174.54 256.82 176.18 257.36 177.86 258.21 179.42 258.87 181.05 259.43 182.71 260.16 184.32 260.49 186.07 261.31 187.64 261.7 189.38 262.58 190.92 263.12 192.6 263.92 194.18 264.53 195.83 265.24 197.44 265.66 199.17 266.55 200.71 267.08 202.39 267.69 204.05 268.45 205.64 269.05 207.3 269.63 208.96 270.32 210.59 271.02 212.2 271.42 213.94 271.91 215.64 272.93 217.13 273.26 218.9 273.98 220.51 274.54 222.19 275.2 223.82 275.94 225.44 276.62 227.12 274.85 227.53 273.12 227.88 271.42 228.37 269.69 228.72 268 229.23 266.35 229.87 264.54 229.91 262.86 230.48 261.12 230.83 259.38 231.16 257.69 231.66 256.02 232.26 254.29 232.63 252.57 233.02 250.82 233.3 249.12 233.78 247.46 234.44 245.73 234.81 244.05 235.35 242.33 235.76 240.62 236.19 238.85 236.43 237.14 236.85 235.44 237.34 233.76 237.9 232 238.16 230.34 238.8 228.64 239.27 226.85 239.38 225.13 239.76 223.47 240.4 221.79 240.96 220.04 241.24 218.36 241.8 216.63 242.16 214.95 242.73 213.22 243.07 211.42 243.19 209.78 243.92 208.06 244.34 206.36 244.81 204.57 244.93 202.84 245.32 201.14 245.8 199.45 246.36 197.68 246.59 196.01 247.18 194.27 247.52 192.54 247.88 190.88 248.53 189.1 248.73 187.43 249.34 185.7 249.74 183.95 250.03 182.23 250.5 180.5 250.92 182.23 250.6 183.96 250.32 185.63 249.78 187.38 249.57 189 248.84 190.77 248.73 192.41 248.07 194.12 247.7 195.76 247.08 197.49 246.79 199.23 246.54 200.86 245.83 202.65 245.8 204.31 245.2 205.99 244.71 207.66 244.15 209.39 243.87 211.07 243.4 212.77 242.97 214.47 242.57 216.23 242.38 217.83 241.58 219.61 241.48 221.28 240.93 222.92 240.3 224.71 240.21 226.39 239.75 228.1 239.38 229.71 238.61 231.5 238.53 233.12 237.78 234.9 237.67 236.52 236.96 238.23 236.58 239.95 236.23 241.62 235.68 243.31 235.24 245.02 234.84 246.8 234.73 248.4 233.92 250.13 233.61 251.9 233.48 253.52 232.75 255.23 232.39 256.94 232.03 258.58 231.38 260.29 230.98 261.97 230.52 263.74 230.35 265.44 229.96 267.15 229.56 268.83 229.09 270.53 228.66 272.18 228 273.94 227.84 275.64 227.4 277.27 226.69 279.04 226.56 280.68 225.89 282.4 225.54 284.11 225.11 285.83 224.78 287.57 224.52 289.25 224 290.94 223.53 292.64 223.1 294.37 222.77 296.06 222.3 297.7 221.62 299.47 221.41 301.17 220.95"/><path class="cls-5" d="M175.12,225.47l-3.49-.52,2.58-17.17a80.69,80.69,0,0,1,2.92-12.53l3.61-11.32a22.91,22.91,0,0,1-15.38-2.24l.12,10.12a101,101,0,0,1-1.11,16.2L162,223.5l-3.49-.52a2.65,2.65,0,0,0-.79,5.23L163,229l6.11.92,5.23.79a2.65,2.65,0,0,0,.79-5.23Z"/><path class="cls-5" d="M194,75.81l-3.49-.52-2.62-.39-3.49-.52a7.94,7.94,0,0,0-9,6.67l-9,59.8a22.88,22.88,0,0,1,25.27,3.95l9-59.95A7.94,7.94,0,0,0,194,75.81Z"/><circle class="cls-6" cx="176.14" cy="161.54" r="22.88" transform="translate(-62.86 160.2) rotate(-42.2)"/><path class="cls-7" d="M178,138.75q0,.5,0,1"/><path class="cls-8" d="M178.18,141.65a22.86,22.86,0,0,0,18.89,20"/><path class="cls-7" d="M198,161.77l1,.1"/><path class="cls-7" d="M174,184.53q0-.5,0-1"/><path class="cls-8" d="M173.89,181.64a22.86,22.86,0,0,0-18.89-20"/><path class="cls-7" d="M154,161.51l-1-.1"/><path class="cls-9" d="M77.74,63.85l-.31-1.77-.9-1.55-1.49-1-1.77-.33-1.86.23L69.64,60,68,60.9,66.49,62,65,59.81l1.31-1.36,1.59-1,1.71-.81,1.8-.58,1.85-.4,1.88-.14,1.77.1,1.73.42,1.63.68,1.48,1L82.94,59l.73,1.61.28,1.75-.19,1.82-.55,1.74-.87,1.6-1,1.5-1.21,1.36-1.31,1.28-1.4,1.17-1.45,1.11L74.46,75l-1.52,1L71.4,77l1.76-.23,1.76-.17,1.75-.23,1.76-.18L80.2,76,82,75.78l.91-1.2.89-1.19,2.49.73-.32,1.52-.34,1.51-.35,1.51-.32,1.52-1.72,0-1.72,0-1.71,0-1.72,0-1.72,0H69.45l-1.73,0-1.72,0-.88-2.24,1.5-.94,1.46-1,1.43-1,1.41-1.08,1.33-1.18,1.26-1.25,1.19-1.31,1.1-1.39.94-1.51.67-1.63Z"/><polygon class="cls-10" points="41.25 52.05 41.99 50.34 42.82 48.67 43.81 47.09 45 45.64 46.12 44.16 47.39 42.79 48.65 41.41 50.1 40.24 51.48 38.99 53.02 37.93 54.7 37.11 56.31 36.17 57.98 35.33 59.75 34.74 61.52 34.19 63.31 33.69 65.14 33.37 66.97 32.98 68.83 32.92 70.69 32.85 72.55 32.88 74.41 33 76.25 33.31 78.06 33.73 79.86 34.24 81.61 34.87 83.36 35.49 85.03 36.32 86.68 37.19 88.28 38.14 89.76 39.27 91.26 40.39 92.67 41.61 93.89 43.02 95.16 44.38 96.36 45.81 97.36 47.38 98.34 48.97 99.3 50.57 100.05 52.28 100.58 54.07 101.21 55.82 101.72 57.6 102.1 59.43 102.29 61.28 102.51 63.13 102.54 64.99 102.46 66.85 102.42 68.71 102.05 70.54 101.7 72.37 101.23 74.18 100.6 75.94 99.78 77.61 99.16 79.38 98.15 80.95 97.24 82.58 96.18 84.11 94.98 85.54 93.7 86.89 92.38 88.2 91.01 89.47 89.52 90.57 88.04 91.71 86.46 92.71 84.76 93.47 83.09 94.29 81.38 95.03 79.59 95.58 77.78 95.99 75.96 96.41 74.11 96.64 72.26 96.73 70.4 96.81 68.54 96.84 66.68 96.66 64.86 96.25 63.03 95.92 61.21 95.52 59.42 94.97 57.75 94.15 56.05 93.38 54.37 92.58 52.85 91.48 51.26 90.5 49.83 89.3 48.46 88.03 47.2 86.67 45.9 85.33 44.84 83.8 43.8 82.26 42.73 80.73 41.85 79.09 41.08 77.39 40.44 75.64 39.88 73.87 39.43 72.07 38.97 70.26 38.72 68.42 38.56 66.56 38.44 64.7 38.6 62.84 38.81 60.99 39.04 59.14 39.39 57.31 39.92 55.53 40.49 53.75 41.25 52.05"/></svg>
