<svg id="Layer_1" data-name="Layer 1" xmlns="http://www.w3.org/2000/svg" viewBox="0 0 400 288"><defs><style>.cls-1,.cls-3,.cls-4{fill:none;stroke-miterlimit:10;stroke-width:4px;}.cls-1{stroke:#659bf9;stroke-linecap:round;}.cls-2{fill:#e2dfd6;}.cls-3{stroke:#2dd6a5;}.cls-4{stroke:#e2dfd6;}</style></defs><title>illustration-flash-flash</title><polyline class="cls-1" points="231.96 39.58 233.74 39.64 235.52 39.75 237.3 39.95 239.05 40.27 240.78 40.72 242.5 41.2 244.17 41.84 245.81 42.54 247.42 43.32 248.96 44.22 250.46 45.19 251.87 46.28 253.28 47.38 254.56 48.61 255.84 49.87 257.01 51.21 258.07 52.65 259.09 54.11 260.05 55.61 260.9 57.18 261.63 58.81 262.26 60.48 262.82 62.17 263.33 63.88 263.66 65.64 263.97 67.39 264.13 69.17 264.22 70.95"/><polygon class="cls-2" points="249.03 120.35 247.43 120.78 245.88 121.71 244.19 122.24 242.51 122.81 240.83 123.37 239.13 123.86 237.37 124.19 235.74 124.89 234.02 125.34 232.43 126.16 230.69 126.56 229.14 127.49 227.43 127.98 225.72 128.46 223.87 128.51 222.18 129.06 220.66 130.1 218.95 130.57 217.15 130.78 215.57 131.65 213.8 131.96 212.33 133.16 210.59 133.53 208.91 134.11 207.16 134.51 205.46 135.21 205.42 133.36 205.77 131.59 205.89 129.8 206.13 128.02 205.62 126.19 206.16 124.43 206.19 122.63 206.66 120.86 206.23 119.05 206.65 117.28 206.91 115.49 206.3 113.67 206.73 111.89 206.57 110.09 207.18 108.33 207.24 106.53 207.02 104.72 207.59 102.96 207.14 101.15 207.01 99.35 207.82 97.6 207.31 95.78 207.73 94.01 207.64 92.2 208.03 90.43 208.32 88.65 208.46 86.87 207.82 85.03 207.93 83.24 208.74 81.49 208.01 79.66 208.47 77.88 208.68 76.1 208.57 74.29 208.53 72.49 208.79 70.71 209.32 68.94 208.8 67.11 209.01 65.33 208.88 63.52 209.59 61.76 209.06 59.93 209.68 58.17 209.62 56.36 209.51 54.55 209.92 52.43 208.83 54.28 208.67 56.15 207.99 57.81 206.67 59.19 206.14 60.91 205.67 62.65 204.96 64.29 204.19 65.91 203.79 67.68 203.21 69.38 202.48 71.01 201.59 72.58 200.54 74.08 199.91 75.75 199.15 77.38 199.02 79.27 197.91 80.75 197.43 82.49 196.53 84.05 196.21 85.86 195.07 87.33 194.65 89.09 193.78 90.67 192.8 92.19 192.14 93.86 191.39 95.49 191.05 97.29 190.18 98.86 189.22 100.41 188.8 102.18 188.22 103.88 187.57 105.55 186.47 107.03 186.18 108.85 185.44 110.48 184.61 112.08 183.85 113.7 183.03 115.3 182.67 117.1 181.7 118.64 181.43 120.47 180.62 122.07 180.14 123.81 178.78 125.19 178.18 126.88 178.08 128.79 176.82 130.2 176.19 131.88 175.28 133.44 174.98 135.26 174.36 136.95 173.67 138.61 172.76 140.17 172.33 141.94 171.18 143.4 171.01 145.27 170.27 146.91 169.36 148.47 168.81 150.18 168.08 151.82 167.42 153.48 166.43 155.01 165.92 156.74 165.45 158.49 164.72 160.13 163.79 161.68 162.86 163.24 162.42 165 161.28 166.47 161.1 168.34 160.06 169.85 159.26 171.46 158.64 173.15 158.32 174.96 157.43 176.54 156.47 178.08 156.34 179.98 154.99 181.35 154.41 183.06 153.99 184.83 152.95 186.35 152.54 188.13 151.63 189.7 151.1 191.43 150.76 193.24 149.64 194.88 151.31 193.87 153.17 193.86 154.79 193.11 156.55 192.78 158 191.56 159.82 191.43 161.44 190.67 163.07 189.98 164.81 189.59 166.58 189.3 168.27 188.75 169.89 188.01 171.5 187.24 173.29 187.01 175.02 186.58 176.59 185.67 178.34 185.35 179.9 184.43 181.48 183.54 183.15 182.96 184.84 182.42 186.56 181.95 188.3 181.56 189.89 180.71 191.57 180.13 193.41 179.84 193.5 181.69 193.23 183.47 192.95 185.24 193.19 187.05 192.58 188.81 192.65 190.61 192.45 192.4 192.98 194.22 192.84 196.01 192.54 197.78 192.5 199.58 192.62 201.38 191.94 203.14 191.84 204.93 192.08 206.74 191.66 208.51 191.87 210.32 191.77 212.11 191.6 213.89 191.72 215.69 191.24 217.45 191.63 219.27 191.18 221.04 191.14 222.83 191.17 224.63 191.34 226.43 191.07 228.21 190.33 229.97 190.24 231.76 190.4 233.57 190.87 235.39 190.68 237.18 189.91 238.93 190.33 240.75 190.02 242.53 189.7 244.32 190.11 246.14 190.1 247.93 189.3 249.69 189.37 251.49 189.72 253.31 189.39 255.09 189.33 256.88 189.45 258.69 189.15 260.48 189.04 262.23 189.56 260.56 190.6 259.06 190.94 257.26 191.8 255.68 192.2 253.91 192.9 252.27 194.06 250.82 194.35 249 195.55 247.56 195.97 245.8 197.06 244.32 197.66 242.63 197.95 240.81 198.6 239.14 199.59 237.61 200.37 235.99 200.79 234.22 201.59 232.62 202.65 231.12 202.92 229.29 204.01 227.81 204.51 226.07 204.7 224.21 205.84 222.75 206.71 221.18 206.88 219.3 207.76 217.73 208.25 215.99 209.55 214.59 210.07 212.86 210.45 211.08 211.08 209.4 212.21 207.93 213.11 206.37 213.13 204.43 214.39 203.02 214.52 201.13 215.77 199.71 216.02 197.87 217.06 196.36 217.39 194.55 218.27 192.98 219.04 191.36 219.69 189.69 220.5 188.08 221.51 186.56 222.11 184.87 222.17 182.94 223.11 181.4 223.59 179.65 224.65 178.15 225.21 176.44 225.66 174.68 226.44 173.06 227.62 171.62 228 169.83 229.17 168.37 229.79 166.69 229.84 164.77 230.56 163.13 231.68 161.66 232.52 160.07 232.83 158.25 233.67 156.66 234.35 155 234.83 153.25 235.81 151.72 236.56 150.09 236.93 148.3 238.03 146.81 238.99 145.27 239.1 143.37 239.91 141.76 240.89 140.22 241.38 138.48 242.38 136.95 242.45 135.03 243.25 133.42 244.37 131.94 245.28 130.38 245.54 128.54 246.47 126.97 247.25 125.35 247.97 123.7 248.8 122.09 249.03 120.35"/><polygon class="cls-3" points="245.03 113.35 243.43 113.78 241.88 114.71 240.19 115.24 238.51 115.81 236.83 116.37 235.13 116.86 233.37 117.19 231.74 117.89 230.02 118.34 228.43 119.16 226.69 119.56 225.14 120.49 223.43 120.98 221.72 121.46 219.87 121.51 218.18 122.06 216.66 123.11 214.95 123.57 213.15 123.78 211.57 124.65 209.8 124.96 208.33 126.16 206.59 126.53 204.91 127.11 203.16 127.51 201.46 128.21 201.42 126.36 201.77 124.58 201.89 122.8 202.13 121.02 201.62 119.19 202.16 117.43 202.19 115.63 202.66 113.86 202.23 112.05 202.65 110.28 202.91 108.49 202.3 106.67 202.73 104.89 202.57 103.09 203.18 101.33 203.24 99.53 203.02 97.72 203.59 95.96 203.14 94.15 203.01 92.35 203.82 90.6 203.31 88.78 203.73 87.01 203.64 85.2 204.03 83.43 204.32 81.65 204.46 79.87 203.82 78.03 203.93 76.24 204.74 74.49 204.01 72.66 204.47 70.88 204.68 69.1 204.57 67.29 204.53 65.49 204.79 63.71 205.32 61.94 204.8 60.12 205.01 58.33 204.88 56.52 205.59 54.76 205.06 52.93 205.68 51.17 205.62 49.36 205.51 47.55 205.92 45.43 204.83 47.28 204.67 49.15 203.99 50.81 202.67 52.19 202.14 53.91 201.67 55.65 200.96 57.29 200.19 58.91 199.79 60.68 199.21 62.38 198.48 64.01 197.59 65.58 196.54 67.08 195.91 68.75 195.15 70.38 195.02 72.27 193.91 73.75 193.43 75.49 192.53 77.05 192.21 78.86 191.07 80.33 190.65 82.09 189.78 83.67 188.8 85.19 188.14 86.86 187.39 88.49 187.05 90.29 186.18 91.86 185.22 93.41 184.8 95.18 184.22 96.88 183.57 98.55 182.47 100.03 182.18 101.85 181.44 103.48 180.61 105.08 179.85 106.7 179.03 108.3 178.67 110.1 177.7 111.64 177.43 113.47 176.62 115.07 176.14 116.81 174.78 118.19 174.18 119.88 174.08 121.79 172.82 123.2 172.19 124.88 171.28 126.44 170.98 128.26 170.36 129.95 169.67 131.61 168.76 133.17 168.33 134.94 167.18 136.4 167.01 138.27 166.27 139.91 165.36 141.47 164.81 143.18 164.08 144.82 163.42 146.48 162.43 148.01 161.92 149.74 161.45 151.49 160.72 153.13 159.79 154.68 158.86 156.24 158.42 158 157.28 159.47 157.1 161.34 156.06 162.85 155.26 164.46 154.64 166.15 154.32 167.96 153.43 169.54 152.47 171.08 152.34 172.98 150.99 174.35 150.41 176.06 149.99 177.83 148.95 179.35 148.54 181.13 147.63 182.7 147.1 184.43 146.76 186.24 145.64 187.88 147.31 186.87 149.17 186.86 150.79 186.11 152.55 185.78 154 184.56 155.82 184.43 157.44 183.67 159.07 182.98 160.81 182.59 162.58 182.3 164.27 181.75 165.89 181.01 167.5 180.24 169.29 180.01 171.02 179.58 172.59 178.67 174.34 178.35 175.9 177.43 177.48 176.54 179.15 175.96 180.84 175.42 182.56 174.95 184.3 174.56 185.89 173.71 187.57 173.13 189.41 172.84 189.5 174.69 189.23 176.47 188.95 178.24 189.19 180.05 188.58 181.81 188.65 183.61 188.45 185.4 188.98 187.22 188.84 189.01 188.54 190.78 188.5 192.58 188.62 194.38 187.94 196.14 187.84 197.93 188.08 199.74 187.66 201.51 187.87 203.32 187.77 205.11 187.6 206.89 187.72 208.69 187.24 210.45 187.63 212.27 187.18 214.04 187.14 215.83 187.17 217.63 187.34 219.43 187.07 221.21 186.33 222.97 186.24 224.76 186.4 226.57 186.87 228.39 186.68 230.18 185.91 231.93 186.33 233.75 186.02 235.53 185.7 237.32 186.11 239.14 186.1 240.93 185.3 242.69 185.37 244.49 185.72 246.31 185.39 248.09 185.33 249.88 185.45 251.69 185.15 253.48 185.04 255.23 185.56 253.56 186.6 252.06 186.94 250.26 187.8 248.68 188.2 246.91 188.9 245.27 190.06 243.82 190.35 242 191.55 240.56 191.97 238.8 193.06 237.32 193.66 235.63 193.95 233.81 194.6 232.14 195.59 230.61 196.37 228.99 196.79 227.22 197.59 225.62 198.65 224.12 198.92 222.29 200.01 220.81 200.51 219.07 200.7 217.21 201.84 215.75 202.71 214.18 202.88 212.3 203.76 210.73 204.25 208.99 205.55 207.59 206.07 205.86 206.45 204.08 207.08 202.4 208.21 200.93 209.11 199.37 209.13 197.43 210.39 196.02 210.52 194.13 211.77 192.71 212.02 190.87 213.06 189.36 213.39 187.55 214.27 185.98 215.04 184.36 215.69 182.69 216.5 181.08 217.51 179.56 218.11 177.87 218.17 175.94 219.11 174.4 219.59 172.65 220.65 171.15 221.21 169.44 221.66 167.68 222.44 166.06 223.62 164.62 224 162.83 225.17 161.37 225.79 159.69 225.84 157.77 226.56 156.13 227.68 154.66 228.52 153.07 228.83 151.25 229.67 149.66 230.35 148 230.83 146.25 231.81 144.72 232.56 143.09 232.93 141.3 234.03 139.81 234.99 138.27 235.1 136.37 235.91 134.76 236.89 133.22 237.38 131.48 238.38 129.95 238.45 128.03 239.25 126.42 240.37 124.94 241.28 123.38 241.54 121.54 242.47 119.97 243.25 118.35 243.97 116.7 244.8 115.09 245.03 113.35"/><polyline class="cls-4" points="79 274 80.76 273.91 82.52 273.77 84.28 273.8 86.04 273.95 87.8 273.89 89.56 273.86 91.32 274.14 93.08 274.24 94.84 274.04 96.6 274.07 98.36 274.1 100.12 274.13 101.88 274.09 103.64 274.03 105.39 273.97 107.15 274.01 108.91 274.21 110.67 273.92 112.43 274.08 114.19 273.78 115.95 273.77 117.71 274 119.47 273.9 121.23 273.98 122.99 274.21 124.75 273.89 126.51 273.91 128.27 273.89 130.03 273.97 131.79 273.84 133.55 273.99 135.31 274.01 137.07 274.14 138.82 273.83 140.58 274.2 142.33 273.78 144.09 274.08 145.84 274.18 147.59 274.07 149.35 273.82 151.1 274.23 152.86 273.87 154.62 273.91 156.37 273.79 158.13 274 159.89 273.77 161.65 274.19 163.41 273.87 165.17 273.87 166.93 273.79 168.69 274.2 170.45 274.06 172.21 273.88 173.97 274.22 175.73 274.15 177.49 273.94 179.24 274.19 181 273.98 182.76 274.22 184.51 274.24 186.27 273.77 188.03 274.02 189.79 274.24 191.54 273.92 193.3 274.05 195.06 274.18 196.83 273.84 198.59 274 200.35 274.2 202.11 274.17 203.87 274.23 205.63 274.19 207.39 274 209.15 273.8 210.91 274.23 212.67 274.13 214.43 274.21 216.19 273.99 217.95 273.95 219.71 273.9 221.47 274.06 223.24 273.99 225 274.16 226.76 274.05 228.52 273.84 230.28 274.22 232.04 274.15 233.8 274.09 235.56 274.11 237.32 273.9 239.09 273.79 240.85 274.15 242.61 273.89 244.38 274.17 246.14 274.01 247.9 273.91 249.66 274.08 251.42 274.13 253.19 273.82 254.95 273.77 256.71 273.96 258.47 274.19 260.24 273.76 262 274.15 263.76 274.17 265.53 273.82 267.29 273.83 269.05 273.83 270.82 274.04 272.58 274.17 274.34 274.15 276.1 273.8 277.86 273.89 279.62 273.99 281.38 274.16 283.15 274.2 284.91 273.87 286.67 273.93 288.43 274 290.2 273.94 291.96 274.21 293.73 274 295.49 274.15 297.26 273.86 299.02 273.91 300.79 274.06 302.55 273.9 304.32 274.16 306.09 273.97 307.85 273.81 309.62 273.96 311.38 273.91 313.15 274.11 314.92 274.23 316.68 274.2 318.45 273.92 320.23 273.87 322 274.21"/><polyline class="cls-1" points="233.1 13.91 234.86 13.91 236.62 13.93 238.38 14.03 240.13 14.28 241.88 14.41 243.63 14.67 245.35 15.02 247.05 15.48 248.76 15.9 250.47 16.32 252.12 16.95 253.77 17.54 255.43 18.14 257.02 18.88 258.61 19.64 260.17 20.45 261.73 21.27 263.24 22.17 264.74 23.09 266.17 24.12 267.58 25.17 269 26.21 270.3 27.39 271.65 28.53 272.96 29.7 274.2 30.95 275.33 32.3 276.51 33.6 277.67 34.93 278.75 36.32 279.75 37.77 280.78 39.19 281.69 40.7 282.56 42.23 283.41 43.77 284.25 45.32 284.99 46.91 285.68 48.53 286.28 50.19 286.88 51.84 287.5 53.49 287.89 55.21 288.33 56.91 288.71 58.63 289.1 60.34 289.34 62.09 289.53 63.83 289.67 65.59 289.78 67.34 289.88 69.1"/></svg>
