<svg id="illustrations" xmlns="http://www.w3.org/2000/svg" viewBox="0 0 400 288"><defs><style>.cls-1,.cls-11,.cls-12,.cls-9{fill:none;stroke-miterlimit:10;}.cls-1{stroke:#fbc357;}.cls-1,.cls-12,.cls-9{stroke-width:2px;}.cls-2{fill:#081d4c;}.cls-3{fill:#fbc357;}.cls-4{fill:#e5ac51;}.cls-5{fill:#f37f82;}.cls-6{fill:#cc6d74;}.cls-7{fill:#57deb7;}.cls-8{fill:#fff;}.cls-9{stroke:#57deb7;}.cls-10{fill:#e2dfd6;}.cls-11{stroke:#e2dfd6;stroke-width:3px;}.cls-12{stroke:#081d4c;}</style></defs><title>illustration-roundup-woman</title><polygon class="cls-1" points="187.3 208.87 185.78 209.73 184.26 210.57 182.78 211.46 181.36 212.45 179.83 213.25 178.41 214.26 176.92 215.13 175.38 215.94 173.87 216.79 172.4 217.71 170.89 218.57 169.48 219.59 167.94 220.37 166.42 219.59 164.88 218.79 163.38 217.94 161.9 217.04 160.36 216.26 158.85 215.41 157.33 214.58 155.81 213.74 154.33 212.84 152.8 212.04 151.29 211.17 149.75 210.37 148.22 209.48 148.2 207.72 148.17 205.99 148.19 204.26 148.17 202.53 148.18 200.8 148.11 199.07 148.15 197.34 148.13 195.61 148.06 193.87 147.95 192.14 147.89 190.41 147.9 188.67 147.85 186.89 149.42 186.06 150.9 185.16 152.34 184.2 153.89 183.42 155.35 182.5 156.81 181.57 158.29 180.66 159.82 179.86 161.27 178.9 162.81 178.09 164.26 177.15 165.81 176.34 167.26 175.31 168.75 176.26 170.25 177.11 171.8 177.89 173.26 178.81 174.81 179.58 176.37 180.35 177.8 181.33 179.39 182.04 180.83 183.01 182.39 183.77 183.93 184.57 185.38 185.55 186.93 186.33 187.01 188.07 187.03 189.8 187.01 191.53 187.09 193.26 186.99 194.99 187.16 196.72 187.15 198.45 187.19 200.18 187.15 201.91 187.28 203.64 187.19 205.38 187.33 207.11 187.3 208.87"/><polygon class="cls-2" points="137.33 213.31 137.15 211.58 136.9 209.87 136.49 208.19 135.97 206.52 135.15 204.99 134.23 203.51 133.13 202.17 131.93 200.92 130.63 199.78 129.19 198.82 127.67 197.99 126.11 197.21 124.45 196.71 122.73 196.41 121.01 196.19 119.27 196.21 117.56 196.4 115.88 196.81 114.24 197.31 112.64 197.96 111.19 198.89 109.71 199.78 108.49 201 107.21 202.16 106.2 203.56 105.28 205.02 104.55 206.58 103.98 208.2 103.45 209.84 103.24 211.55 103.05 213.27 103.18 215.07 103.5 216.85 103.94 218.59 104.6 220.27 105.49 221.84 106.41 223.38 107.51 224.82 108.86 226.02 110.19 227.24 111.77 228.12 113.38 228.93 115.05 229.6 116.77 230.08 117.63 231.28 118.31 232.61 119.09 233.88 121.21 233.8 122.02 232.56 122.81 231.3 123.62 230.05 125.39 229.66 127.05 228.95 128.69 228.21 130.17 227.18 131.59 226.07 132.82 224.75 133.95 223.36 135 221.91 135.82 220.3 136.49 218.63 136.9 216.87 137.13 215.09 137.33 213.31"/><path class="cls-3" d="M160,231.1l32.87,9.62-.83,7.5H158.66Z"/><path class="cls-3" d="M316.28,235.75l-29.68,8.34-2.15,6.82h33.22S316.6,239.9,316.28,235.75Z"/><path class="cls-4" d="M175.7,234.53s-12.76,4.41-13.61,7.83-4.27,10.26,3.42,9.4S175.7,234.53,175.7,234.53Z"/><path class="cls-4" d="M294.49,242.45s11.31,3.91,12.07,6.95,3.79,9.09-3,8.34S294.49,242.45,294.49,242.45Z"/><polygon class="cls-5" points="254.14 40.74 253.68 39.3 253.07 37.91 252.38 36.56 251.52 35.3 250.4 34.27 249.2 33.35 247.94 32.51 246.53 31.93 245.06 31.51 243.57 31.13 242.03 31.23 240.49 31.05 239 31.21 237.52 31.46 236.03 31.6 234.58 31.96 233.11 32.22 231.74 32.84 230.31 33.27 228.95 33.89 227.62 34.57 226.4 35.44 225 35.97 223.64 36.55 222.23 36.98 220.78 37.25 219.36 37.55 217.93 37.77 216.56 38.27 215.09 38.41 213.79 39.11 212.34 39.37 211.07 40.09 209.73 40.65 208.45 41.34 207.14 41.98 205.88 42.71 204.76 43.64 203.61 44.54 202.63 45.62 201.67 46.7 200.7 47.79 199.9 49.01 199.39 50.37 198.84 51.71 198.43 53.11 198.19 54.54 197.86 55.95 197.8 57.4 197.83 58.85 197.78 60.31 198.25 61.7 198.41 63.15 198.71 64.57 198.65 66.02 198.52 67.45 198.18 68.87 197.31 70.08 196.49 71.28 195.61 72.46 194.56 73.49 193.48 74.48 192.51 75.58 191.33 76.49 190.42 77.65 189.59 78.87 188.89 80.15 188.33 81.5 187.73 82.84 187.44 84.28 187.36 85.75 187.17 87.22 187.56 88.66 187.74 90.12 188 91.59 188.51 92.98 189.06 94.37 190.04 95.5 190.78 96.79 191.87 97.8 192.88 98.88 194.06 99.78 195.18 100.75 196.06 101.96 196.95 103.11 197.73 104.35 197.94 105.81 198.23 107.31 198.11 108.83 198.18 110.35 197.92 111.84 197.62 113.33 197.07 114.75 196.58 116.19 195.72 117.45 194.83 118.67 193.94 119.89 193.09 121.17 192.07 122.3 191.03 123.34 190.18 124.53 189.41 125.77 188.77 127.08 188.16 128.42 187.69 129.81 187.32 131.24 187.12 132.7 187.07 134.17 187.01 135.64 187.07 137.11 187.38 138.56 187.39 140.03 187.72 141.48 188.29 142.85 188.99 144.16 189.94 145.29 190.7 146.58 191.66 147.7 192.72 148.74 193.7 149.84 194.7 150.94 195.55 152.14 196.58 153.22 197.38 154.46 198.14 155.73 198.54 157.16 198.43 158.62 198.31 160.06 198.05 161.51 198.05 162.98 198.19 164.43 198.76 165.76 199.75 166.8 200.89 167.69 202.13 168.47 203.51 168.92 204.89 169.41 206.26 169.92 207.7 170.12 209.14 170.32 210.58 170.56 212.01 170.81 213.46 170.96 214.9 171.17 216.35 171.33 217.8 171.46 219.23 171.79 220.69 171.8 222.12 172.12 223.59 172.06 225.04 172.13 226.49 172.24 227.94 172.33 229.38 172.66 230.85 172.52 232.31 172.59 233.76 172.85 235.23 172.77 236.67 173.09 238.13 173.13 239.59 173.09 241.05 173.19 242.5 173.33 243.96 173.28 245.42 173.27 246.88 173.25 248.33 173.33 249.79 173.39 251.24 173.4 252.69 173.53 254.13 173.68 255.64 173.56 257.13 173.44 258.63 173.35 260.14 173.41 261.63 173.16 263.1 172.83 264.59 172.66 266.11 172.6 267.57 172.24 268.99 171.7 270.45 171.35 271.9 170.92 273.18 170.1 274.38 169.22 275.32 168.08 276.05 166.72 276.38 165.22 276.58 163.71 276.66 162.18 276.76 160.64 276.5 159.12 276.39 157.59 276.34 156.05 276.37 154.5 276.95 153.06 277.6 151.7 278.79 150.76 280 149.87 281.29 149.06 282.48 148.11 283.65 147.12 284.38 145.78 285.12 144.44 285.12 142.91 285.14 141.4 284.83 139.96 284.38 138.55 283.93 137.12 283.17 135.83 282.43 134.54 281.63 133.28 280.93 131.96 279.98 130.79 279.11 129.57 278.41 128.25 277.5 127.06 276.87 125.7 276.05 124.45 275.33 123.14 275.01 121.67 274.77 120.19 275.39 118.83 276.15 117.61 276.9 116.38 277.73 115.21 278.46 113.98 279.09 112.68 279.76 111.41 280.4 110.12 281.04 108.83 281.4 107.43 281.81 106.05 282.14 104.66 282.6 103.28 282.65 101.84 282.76 100.4 282.45 98.98 282.24 97.56 281.79 96.14 281.16 94.79 280.39 93.52 279.63 92.25 278.82 91.01 278.1 89.72 277.25 88.51 276.63 87.17 275.84 85.9 275.39 84.48 275.1 83.03 274.95 81.56 274.82 80.08 274.87 78.6 275.23 77.15 275.38 75.67 275.62 74.2 276.02 72.76 276.45 71.34 276.93 69.93 277.3 68.49 277.75 67.07 278.24 65.67 278.68 64.24 278.96 62.77 279.24 61.31 279.44 59.84 279.49 58.36 279.5 56.88 279.4 55.41 278.94 54 278.62 52.55 277.99 51.2 277.19 49.94 276.21 48.81 275.41 47.55 274.35 46.48 273.28 45.43 272.08 44.53 271.01 43.46 269.77 42.62 268.41 41.97 267.15 41.16 265.76 40.57 264.32 40.14 262.84 39.9 261.39 39.51 259.89 39.38 258.39 39.56 256.9 39.65 255.46 40.07 254.14 40.74"/><polygon class="cls-6" points="213.2 97.85 213.27 99.26 213.34 100.7 213.4 102.14 213.56 103.58 213.55 105.03 213.66 106.47 213.66 107.91 213.77 109.35 213.78 110.8 213.8 112.24 213.91 113.68 213.82 115.13 213.88 116.58 213.89 118.02 213.84 119.47 213.8 120.91 213.84 122.35 213.69 123.79 213.48 125.22 213.19 126.61 212.63 127.98 212.05 129.34 211.53 130.72 211.19 132.15 211.11 133.61 211.69 134.96 212.6 136.15 213.64 137.21 214.71 138.26 215.66 139.42 216.53 140.64 217.31 141.91 217.79 143.32 217.75 144.81 217.35 146.24 216.72 147.59 216.07 148.94 215.47 150.3 215.15 151.75 215.09 153.23 215.47 154.67 216.19 155.94 217.12 157.06 218.08 158.16 219.15 159.16 220.26 160.12 221.43 161 222.54 161.95 223.69 162.87 224.92 163.66 226.1 164.54 227.5 164.08 228.91 163.69 230.3 163.17 231.71 162.76 233.14 162.41 234.55 161.97 235.95 161.49 236.82 160.26 237.48 158.91 238.03 157.51 238.45 156.06 238.87 154.61 239 153.1 239.24 151.61 239.27 150.1 239.25 148.59 239.2 147.08 239.11 145.57 238.93 144.06 238.77 142.55 238.68 141.03 238.64 139.51 238.99 138.3 239.34 137.85 238.91 136.4 238.54 134.93 238.23 133.44 237.95 132.05 237.63 130.67 237.39 129.27 237.4 127.85 238.06 126.61 238.27 125.61 237.54 124.41 236.78 123.22 235.95 122.08 235.16 120.88 234.31 119.73 233.54 118.53 232.76 117.33 231.83 116.24 231 115.08 230.17 113.92 229.09 113.03 227.98 111.94 226.82 110.94 225.75 109.82 224.57 108.84 223.41 107.82 222.27 106.78 221.19 105.67 220.06 104.62 219.08 103.65 218.07 102.71 217.12 101.73 216.18 100.72 215.16 99.79 214.19 98.81 213.2 97.85"/><path class="cls-6" d="M261.71,103.89s2.27,22.74-2.27,28.8-5.31,9.85-4.55,13.64,3.79,14.4-5.31,15.16-11.37-23.49-11-25,4.17-24.25,4.17-24.25Z"/><polygon class="cls-7" points="317.79 250.91 317.73 249.39 317.43 247.89 317.37 246.37 317.46 244.85 317.21 243.35 317.23 241.82 317.08 240.31 316.77 238.81 316.68 237.29 316.49 235.78 316.44 234.25 316.52 232.72 316.22 231.21 316.22 229.71 316.06 228.22 315.7 226.75 315.39 225.28 315.43 223.76 315.18 222.28 314.88 220.81 314.68 219.32 314.43 217.84 314.25 216.35 313.91 214.88 313.66 213.41 313.68 211.88 313.25 210.43 312.9 208.97 312.71 207.47 312.37 206 312.36 204.47 311.8 203.05 311.5 201.58 311.39 200.06 310.83 198.65 310.64 197.18 310.16 195.79 309.6 194.42 309.06 193.05 308.21 191.83 307.45 190.58 306.76 189.28 305.77 188.18 304.81 187.07 303.79 186.02 302.84 184.89 301.77 183.87 300.51 183.09 299.4 182.12 298.27 181.16 297.01 180.41 295.82 179.52 294.51 178.84 293.27 178.05 291.89 177.5 290.65 176.7 289.28 176.14 288.01 175.39 286.77 174.59 285.42 174 284.02 173.5 282.72 172.79 281.37 172.2 280.05 171.48 278.71 170.82 277.31 170.3 276.06 169.43 274.7 168.81 273.39 168.09 271.94 167.66 270.68 166.82 269.33 166.18 267.98 165.54 266.66 164.83 265.32 164.17 263.94 163.59 262.62 162.88 261.2 162.37 259.82 161.78 258.49 161.1 257.13 160.48 255.8 159.8 254.54 159 253.15 158.45 251.85 157.75 250.35 157.54 248.84 157.72 247.32 157.58 245.81 157.66 244.29 157.68 242.78 157.65 241.26 157.64 239.74 157.83 238.22 157.77 236.71 157.67 235.19 157.7 233.68 157.72 232.17 157.65 230.65 157.56 229.14 157.67 227.62 157.64 226.1 157.68 224.58 157.74 223.28 158.44 221.87 158.96 220.57 159.69 219.22 160.32 217.88 160.98 216.55 161.65 215.18 162.24 213.83 162.89 212.49 163.53 211.2 164.3 209.79 164.81 208.56 165.71 207.14 166.2 205.84 166.95 204.44 167.5 203.06 168.09 201.73 168.76 200.39 169.42 199.12 170.24 197.73 170.81 196.44 171.57 194.99 172.03 193.67 172.68 192.36 173.36 191.09 174.13 189.65 174.53 188.35 175.22 187.16 176.14 185.73 176.58 184.5 177.41 183.16 178.04 181.9 178.81 180.61 179.53 179.4 180.37 178.31 181.39 177.05 182.16 175.9 183.08 174.81 184.06 173.58 184.89 172.54 185.94 171.57 187.05 170.69 188.22 169.66 189.28 168.79 190.47 168.18 191.82 167.45 193.09 166.75 194.4 166.43 195.84 165.72 197.16 165.62 198.66 165.22 200.1 164.95 201.58 164.44 203 164.28 204.5 164.03 205.98 163.55 207.41 163.32 208.9 163.14 210.39 162.87 211.87 162.58 213.35 162.36 214.84 162.04 216.31 162.02 217.83 161.87 219.32 161.64 220.81 161.2 222.27 161.04 223.76 160.91 225.26 160.8 226.76 160.67 228.26 160.33 229.72 160.2 231.21 160.06 232.72 160.01 234.24 159.83 235.75 159.78 237.27 159.5 238.77 159.31 240.28 159.26 241.8 159.19 243.32 159.24 244.85 158.85 246.34 159.01 247.88 158.86 249.4 158.57 250.97 160.12 251.04 161.59 250.88 163.07 251.06 164.55 250.91 166.02 250.95 167.5 251.03 168.98 250.99 170.45 251.04 171.93 250.93 173.41 250.82 174.88 250.79 176.36 251.03 177.84 250.9 179.31 250.86 180.79 250.88 182.27 250.86 183.75 250.76 185.23 250.77 186.72 250.77 188.16 250.95 188.08 252.34 188.22 253.77 188.27 255.2 188.18 256.63 188.21 258.06 188.16 259.49 188.29 260.92 188.26 262.35 188.15 263.78 188.11 265.21 188.11 266.64 188.12 268.07 188.21 269.5 188.06 270.94 188.08 272.37 188.26 273.81 188.23 275.24 188.21 276.67 189.66 276.8 191.12 276.83 192.58 276.7 194.03 276.76 195.49 276.56 196.95 276.77 198.41 276.6 199.86 276.52 201.32 276.7 202.78 276.71 204.24 276.66 205.7 276.78 207.16 276.81 208.62 276.62 210.08 276.58 211.54 276.84 213 276.78 214.46 276.55 215.92 276.55 217.38 276.83 218.84 276.81 220.3 276.55 221.76 276.72 223.22 276.74 224.68 276.81 226.14 276.57 227.6 276.78 229.06 276.64 230.52 276.6 231.98 276.78 233.44 276.59 234.9 276.69 236.36 276.55 237.82 276.65 239.28 276.56 240.74 276.56 242.19 276.83 243.65 276.63 245.11 276.63 246.57 276.66 248.03 276.68 249.49 276.58 250.95 276.66 252.41 276.63 253.87 276.8 255.33 276.62 256.79 276.75 258.25 276.52 259.71 276.76 261.17 276.83 262.64 276.8 264.1 276.67 265.56 276.65 267.02 276.76 268.49 276.69 269.95 276.74 271.41 276.73 272.88 276.8 274.34 276.7 275.8 276.58 277.26 276.6 278.73 276.63 280.19 276.76 281.66 276.73 283.12 276.63 284.59 276.52 286.06 276.58 287.53 276.68 288.94 276.62 289.05 275.25 288.88 273.82 289.06 272.39 289.13 270.96 289.03 269.53 288.88 268.1 288.88 266.67 288.99 265.24 288.97 263.81 288.95 262.38 289.11 260.95 288.9 259.52 288.86 258.09 289.08 256.65 289.08 255.22 289.15 253.79 288.93 252.35 288.99 250.91 290.43 250.8 291.87 250.83 293.31 251.06 294.75 250.82 296.19 251.05 297.63 250.99 299.06 251.04 300.5 250.78 301.94 251.06 303.38 251.01 304.82 250.99 306.26 250.94 307.7 251.05 309.14 251.05 310.58 250.95 312.02 250.9 313.46 250.87 314.9 250.92 316.35 250.91 317.79 250.91"/><polygon class="cls-3" points="251.85 157.71 251.04 156.43 250.43 155.05 249.95 153.62 249.54 152.17 249.16 150.71 248.83 149.23 248.54 147.75 248.3 146.25 248.07 144.75 247.89 143.25 247.8 141.74 247.68 140.23 247.49 138.73 247.45 137.22 247.33 135.72 247.3 134.24 247.29 132.75 247.25 131.27 247.28 129.78 247.28 128.3 247.33 126.82 247.34 125.34 247.29 123.85 247.37 122.37 247.31 120.88 247.34 119.4 247.28 117.91 247.34 116.43 247.38 114.94 247.28 113.45 247.26 111.97 247.28 110.49 247.38 109 247.25 107.52 247.27 106.03 247.31 104.54 247.27 103.06 247.27 101.57 247.29 100.07 247.36 98.53 245.8 98.62 244.28 98.59 242.77 98.56 241.26 98.63 239.75 98.64 238.23 98.53 236.72 98.52 235.2 98.61 233.69 98.52 232.17 98.58 230.65 98.53 229.16 98.61 229.1 100.06 229.14 101.55 229.16 103.03 229.12 104.51 229.09 106 229.11 107.48 229.18 108.96 229.19 110.45 229.12 111.93 229.12 113.41 229.08 114.9 229.11 116.38 229.18 117.87 229.16 119.36 229.06 120.84 229.18 122.33 229.18 123.81 229.07 125.3 229.06 126.78 229.17 128.27 229.14 129.75 229.09 131.24 229.15 132.73 229.17 134.22 229.07 135.72 229.05 137.22 228.98 138.73 228.75 140.23 228.71 141.74 228.54 143.24 228.29 144.73 228.16 146.24 227.81 147.71 227.63 149.22 227.28 150.7 226.95 152.18 226.53 153.63 226.06 155.07 225.37 156.42 224.62 157.73 223.82 158.98 223.56 160.46 224.25 161.78 225.23 162.92 226.48 163.75 227.87 164.34 229.31 164.78 230.74 165.23 232.21 165.56 233.71 165.74 235.2 165.91 236.71 165.94 238.22 166.03 239.73 166.06 241.23 165.87 242.72 165.75 244.21 165.52 245.7 165.25 247.15 164.87 248.54 164.28 249.91 163.66 251.22 162.92 252.27 161.83 252.89 160.45 252.66 158.97 251.85 157.71"/><path class="cls-4" d="M247.31,131V98.58H229.13V131a26,26,0,0,0,18.19,0Z"/><polyline class="cls-3" points="213.23 73.02 213.19 74.51 213.21 76.01 213.25 77.51 213.18 79 213.21 80.5 213.25 82 213.27 83.5 213.17 85 213.19 86.5 213.23 87.99 213.23 89.49 213.17 90.98 213.22 92.48 213.24 93.98 213.17 95.48 213.15 96.98 213.16 98.48 213.18 99.99 213.26 101.49 213.17 103 213.21 104.44 213.3 105.87 213.48 107.3 213.79 108.7 214.11 110.1 214.42 111.51 214.92 112.86 215.43 114.2 216.01 115.52 216.72 116.77 217.5 117.97 218.27 119.2 219.16 120.33 220.08 121.44 221.1 122.46 222.16 123.44 223.27 124.36 224.52 125.1 225.7 125.92 227 126.55 228.34 127.1 229.7 127.56 231.08 127.99 232.47 128.34 233.89 128.62 235.33 128.78 236.77 128.85 238.22 128.84 239.71 128.9 241.19 128.74 242.67 128.61 244.14 128.36 245.58 128 247 127.56 248.4 127.06 249.75 126.45 251.01 125.65 252.25 124.84 253.48 124.01 254.52 122.94 255.62 121.94 256.54 120.78 257.43 119.59 258.19 118.31 258.94 117.03 259.61 115.71 260.15 114.33 260.59 112.92 260.98 111.48 261.34 110.04 261.5 108.57 261.62 107.09 261.74 105.6 261.73 104.14 261.7 102.69 261.68 101.22 261.73 99.76 261.76 98.3 261.67 96.84 261.75 95.38 261.74 93.92 261.75 92.46 261.75 91 261.69 89.53 261.75 88.07 261.75 86.61 261.69 85.14 261.77 83.68 261.77 82.22 261.75 80.76 261.72 79.3 261.72 77.83 261.66 76.37 261.73 74.9 261.68 73.44 261.67 71.97 261.66 70.51 261.72 69.04 261.75 67.57"/><path class="cls-4" d="M261.71,67.57,213.21,73V97.55c8.34-3.41,11.37,2.73,28.8-4.09,10.41-4.07,16.49-12.27,19.7-18.21Z"/><path class="cls-4" d="M226.09,114.5A19.53,19.53,0,0,0,232,116a41.44,41.44,0,0,0,5.79.26,50.06,50.06,0,0,0,5.81-.4,31.31,31.31,0,0,0,6-1.38,10.43,10.43,0,0,1-5.11,4.4,17.17,17.17,0,0,1-6.65,1.38,16.48,16.48,0,0,1-6.7-1.25,11.68,11.68,0,0,1-3-1.8A7,7,0,0,1,226.09,114.5Z"/><polygon class="cls-5" points="264.8 63.46 264.26 64.85 263.69 66.19 263.18 67.55 262.59 68.89 261.86 70.15 261.16 71.43 260.42 72.69 259.67 73.94 258.83 75.14 257.94 76.28 257.03 77.43 256.18 78.61 255.12 79.63 254.1 80.67 253.1 81.74 252.02 82.72 250.87 83.63 249.69 84.5 248.5 85.34 247.26 86.11 245.96 86.79 244.69 87.52 243.38 88.18 242.03 88.73 240.64 89.24 239.23 89.66 237.85 90.17 236.44 90.61 235 90.95 233.58 91.36 232.13 91.64 230.67 91.86 229.2 91.93 227.74 92.05 226.26 92.07 224.79 91.99 223.32 91.96 221.86 91.77 220.39 91.76 218.93 91.69 217.47 91.74 216 91.87 214.61 92.34 213.19 92.72 211.93 93.38 210.69 94.06 209.57 94.92 208.52 95.87 207.6 96.94 206.97 98.2 206.49 99.53 206.32 100.92 206.39 102.34 206.12 100.85 205.82 99.38 205.61 97.9 205.36 96.42 205.08 94.95 204.85 93.47 204.64 91.98 204.34 90.52 204.07 89.04 203.76 87.57 203.57 86.08 203.33 84.6 203.03 83.13 202.77 81.66 202.59 80.17 202.37 78.68 202.01 77.23 201.88 75.74 201.84 75.06 202.31 73.63 202.79 72.21 203.23 70.78 203.77 69.37 204.26 67.95 204.73 66.52 205.17 65.08 205.65 63.66 206.14 62.23 206.72 60.84 207.1 59.35 208.39 58.63 209.64 57.87 210.9 57.14 212.22 56.5 213.43 55.68 214.69 54.94 215.99 54.26 217.26 53.53 218.47 52.7 219.8 52.06 221 51.22 222.31 50.54 223.82 50.3 225.33 49.98 226.84 49.71 228.36 49.45 229.88 49.23 231.39 48.94 232.9 48.6 234.42 48.37 235.94 48.08 237.47 47.86 238.98 47.86 240.49 48.08 242 48.11 243.51 48.28 245.03 48.38 246.54 48.51 248.06 48.54 249.57 48.76 251.09 48.77 252.61 48.96 254.13 49.02 255.64 49.19 256.37 50.38 257.17 51.54 257.95 52.71 258.63 53.95 259.39 55.14 260.18 56.32 260.98 57.48 261.67 58.72 262.49 59.87 263.22 61.08 263.94 62.31 264.8 63.46"/><path class="cls-3" d="M250.35,207.78s5.31-.06,7.58,2.21,2.66,4.5,5.12,7.55-13.46,0-13.46,0l-3-8.34Z"/><path class="cls-4" d="M250.35,207.78s3.5,3.56,2.51,3.27-6.3,3.49-6.3,3.49L245,209.23Z"/><polygon class="cls-3" points="158.66 250.57 158.61 252.05 158.4 253.56 158.38 255.08 158.49 256.59 158.53 258.1 158.59 259.62 158.77 261.12 158.92 262.63 159.15 264.13 159.45 265.62 159.81 267.1 160.16 268.58 160.77 269.98 161.47 271.33 162.42 272.53 163.49 273.52 164.68 274.37 165.94 275.08 167.27 275.71 168.67 276.12 170.13 276.26 171.59 276.36 173.06 276.29 174.5 276.05 175.91 275.63 177.23 274.98 178.53 274.29 179.64 273.33 180.6 272.23 181.39 271 182 269.69 182.55 268.36 183.11 267.02 183.71 265.72 184.26 264.38 184.74 263.02 185.19 261.65 185.82 260.35 186.32 258.99 186.81 257.64 187.35 256.3 187.89 254.96 188.31 253.57 188.89 252.24 189.37 250.87 189.89 249.52 190.53 248.22 191.04 246.86 191.59 245.52 192.2 244.21 192.72 242.86 193.34 241.55 193.86 240.2 194.43 238.87 195.16 237.61 195.73 236.27 196.45 235.02 197.28 233.84 198.65 233.36 200.01 232.89 201.41 232.51 202.8 232.13 204.2 231.79 205.63 231.57 207.04 231.24 208.42 230.79 209.85 230.59 211.22 230.15 212.6 229.75 213.99 229.38 215.31 228.61 216.38 227.53 217.21 226.27 217.6 224.79 217.68 223.26 217.73 221.74 217.82 220.22 217.75 218.79 217.62 217.37 217.63 215.94 217.48 214.51 217.51 213.08 217.5 211.65 217.44 210.22 217.74 208.83 218.99 207.98 220.31 207.27 221.62 206.54 222.92 205.76 224.24 205.03 225.52 204.22 226.79 203.53 226.87 202.22 226.81 200.9 226.8 199.57 226.82 198.25 225.46 198.8 224.09 199.39 222.78 200.12 221.43 200.78 220.09 201.44 218.74 202.09 217.39 202.74 216.07 203.44 214.78 204.22 213.47 204.94 212.18 205.72 210.9 206.52 209.68 207.41 208.44 208.27 207.15 209.05 205.98 209.99 204.73 210.84 203.56 211.78 202.3 212.61 201.18 213.63 200.01 214.57 198.84 215.51 197.74 216.54 196.57 217.49 195.46 218.51 194.35 219.51 193.3 220.59 192.16 221.57 191.06 222.6 190.07 223.75 188.91 224.72 187.99 225.82 186.94 226.81 185.87 227.77 184.86 228.79 183.81 229.77 182.84 230.84 181.74 231.77 180.68 232.74 179.69 233.79 178.67 234.8 177.61 235.78 176.5 236.71 175.49 237.74 174.45 238.75 173.4 239.76 172.3 240.7 171.26 241.7 170.29 242.79 169.22 243.75 168.16 244.73 167.1 245.71 166.04 246.68 164.98 247.65 163.97 248.68 162.96 249.69 161.42 250.52 159.7 250.64 158.66 250.57"/><polygon class="cls-2" points="246.75 234.23 245.33 234.26 243.91 234.23 242.49 234.28 241.07 234.22 239.65 234.21 238.23 234.25 236.81 234.28 235.39 234.21 233.97 234.22 232.54 234.27 231.11 234.26 229.69 234.26 228.29 234.01 227.17 233.16 226.35 232.03 226.13 230.65 226.06 229.2 226.1 227.75 226.1 226.31 226.08 224.86 226.13 223.41 226.13 221.96 226.1 220.51 226.14 219.06 226.05 217.62 226.06 216.17 226.12 214.72 226.1 213.26 226.07 211.81 226.05 210.36 226.11 208.91 226.09 207.46 226.07 206.01 226.14 204.56 226.12 203.1 226.14 201.66 226.11 200.21 226.12 198.75 226.09 197.3 226.08 195.85 226.13 194.4 226.13 192.94 226.08 191.49 226.13 190.03 226.08 188.57 226.39 187.2 227.13 186.01 228.3 185.22 229.69 185.01 231.11 184.95 232.53 184.94 233.95 184.94 235.36 185 236.79 184.96 238.21 185 239.63 184.94 241.05 184.94 242.47 185.01 243.9 184.98 245.33 185.01 246.75 184.94 248.12 185.27 249.3 186.02 250.03 187.21 250.39 188.57 250.33 190.02 250.33 191.47 250.39 192.91 250.37 194.36 250.35 195.8 250.38 197.25 250.34 198.71 250.39 200.15 250.35 201.6 250.35 203.05 250.33 204.5 250.36 205.95 250.33 207.4 250.37 208.85 250.36 210.3 250.33 211.75 250.31 213.21 250.39 214.66 250.3 216.11 250.3 217.56 250.32 219.01 250.34 220.46 250.35 221.91 250.37 223.37 250.3 224.82 250.38 226.27 250.34 227.73 250.35 229.19 250.33 230.65 250.04 232.01 249.32 233.22 248.13 233.96 246.75 234.23"/><polygon class="cls-3" points="230.99 208.52 231.76 208.56 233.21 208.84 234.68 209.03 236.16 209.13 237.63 209.32 239.09 209.56 240.57 209.64 242.04 209.86 243.53 209.99 244.96 210.06 246.39 210.28 247.83 210.34 249.27 210.44 250.7 210.64 252.11 210.94 253.51 211.25 254.88 211.65 256.23 212.12 257.55 212.69 258.81 213.38 259.85 214.38 260.97 215.28 261.94 216.4 262.95 217.48 263.99 218.54 264.87 219.73 265.81 220.88 266.68 222.08 267.74 223.11 268.66 224.27 269.67 225.35 270.81 226.29 271.88 227.31 273.12 228.13 274.28 229 275.49 229.81 276.72 230.57 277.99 231.29 279.17 232.15 280.5 232.76 281.72 233.54 282.91 234.39 284.19 235.09 285.37 235.95 286.54 236.81 287.84 237.5 288.96 238.44 290.25 239.13 291.38 240.06 292.56 240.91 293.71 241.8 294.86 242.69 296 243.6 297.05 244.62 298.23 245.49 299.23 246.55 300.26 247.58 301.23 248.67 302.26 249.71 303.07 250.97 304.55 250.98 306.01 250.91 307.49 250.92 308.95 250.88 310.43 250.97 311.9 250.94 313.37 250.92 314.84 250.86 316.32 250.86 317.8 250.89 317.9 252.34 317.9 253.77 317.92 255.2 318.05 256.63 317.92 258.06 317.89 259.49 317.73 260.92 317.55 262.34 317.42 263.77 317.05 265.16 316.73 266.56 316.39 267.96 315.93 269.32 315.3 270.62 314.67 271.91 313.88 273.12 312.93 274.19 311.93 275.22 310.78 276.1 309.48 276.74 308.06 277.18 306.61 277.49 305.14 277.64 303.66 277.58 302.18 277.48 300.76 277.05 299.35 276.56 298.06 275.81 296.8 275.04 295.57 274.2 294.35 273.36 293.24 272.37 292.12 271.4 291.09 270.32 290.11 269.21 289.09 268.12 288.01 267.09 287.09 265.92 286.16 264.77 285.29 263.56 284.33 262.42 283.4 261.26 282.46 260.11 281.51 258.97 280.63 257.76 279.68 256.57 278.86 255.29 277.93 254.09 276.93 252.94 276.06 251.69 275.04 250.57 274.1 249.38 273.17 248.18 272.18 247.03 271.33 245.77 270.22 244.73 269.24 243.57 268.09 242.59 266.99 241.57 265.83 240.6 264.7 239.59 263.58 238.66 262.31 237.92 261.06 237.17 259.71 236.61 258.39 235.95 257.02 235.43 255.6 235.06 254.21 234.59 252.77 234.29 251.37 233.84 249.91 233.6 248.51 233.16 247.08 232.82 245.69 232.37 244.28 231.96 242.9 231.57 241.61 230.95 240.26 230.47 239.01 229.77 237.73 229.15 236.62 228.22 236.73 228.16 236.16 227 235.65 225.8 235.48 224.5 235.56 223.19 235.91 221.36 235.07 219.74 234.72 218.32 235.17 216.96 236.01 215.28 234.69 214.81 233.39 214.46 232.1 214.06 230.84 213.59 229.53 213.23 228.23 212.86 227.27 211.99 226.79 210.75 226.93 210.75 227.53 209.15 229.14 208.4 230.99 208.52"/><path class="cls-8" d="M110,213.35l.35.9,1.18.42,1-.94-1.07-1.16-1.31-.78-.68-1.28.56-1.16,1.23-.48,0-.78h.79l0,.79,1.32.27v1.26h-.56l-.36-.83-.82-.2-1,.75,1.23,1.33,1.25.75.67,1.24-.65,1.27-1.37.48,0,.86h-.81l0-.86-1.43-.34,0-1.51Z"/><path class="cls-8" d="M117.26,211.77l-.9-1-1.39.58-.3-.46,2.08-.89,1.8,1.41-.93,1.76L116,214.47l2.16-.26.37-.48.5.15-.27,1.24h-3.87l-.18-.47,1.59-1.2Z"/><path class="cls-8" d="M121.61,214.43l-.85.78-.73-.66.85-.82Z"/><path class="cls-8" d="M125.19,214.19l-.57-1.14-1.33,0-.4-.16.13-1.37.12-1.38h2.49l.11-.13h.5l-.29,1.06h-2l-.28,1.34,1.86,0,.91,1.56-.52,1.35-1.2.83-1.44.27-.48,0v-.55l1.6-.33Z"/><path class="cls-8" d="M129.69,214.19l-.6-1.12h-1.32l-.42-.15.14-1.37.12-1.38,2.5,0,.11-.14h.51l-.3,1.06h-2l-.28,1.35,1.86,0,.92,1.56-.52,1.35-1.2.83-1.44.27-.46-.06v-.55l1.6-.32Z"/><polygon class="cls-9" points="146.55 151.34 146.64 153.08 146.4 154.8 146.09 156.51 145.75 158.21 145.21 159.86 144.56 161.47 143.96 163.1 143.04 164.58 142.2 166.09 141.15 167.48 140.03 168.79 138.87 170.08 137.54 171.19 136.22 172.31 134.87 173.41 133.35 174.25 131.85 175.11 130.3 175.88 128.68 176.54 126.97 176.84 125.3 177.3 123.6 177.67 121.87 177.83 120.13 177.76 118.4 177.84 116.66 177.7 114.94 177.43 113.28 176.92 111.62 176.41 110.03 175.74 108.36 175.2 106.91 174.24 105.4 173.39 104.04 172.31 102.72 171.2 101.35 170.13 100.25 168.78 99.06 167.51 98.06 166.09 97.11 164.64 96.4 163.05 95.73 161.45 94.98 159.88 94.51 158.21 94.05 156.53 93.83 154.81 93.73 153.08 93.54 151.34 93.72 149.61 93.76 147.87 94.05 146.15 94.52 144.48 94.96 142.8 95.75 141.24 96.37 139.62 97.11 138.05 98.09 136.61 99.07 135.18 100.21 133.87 101.43 132.64 102.61 131.36 103.97 130.28 105.45 129.37 106.87 128.37 108.37 127.49 110.03 126.95 111.6 126.21 113.25 125.67 114.98 125.43 116.67 125.06 118.41 125 120.13 124.78 121.87 124.91 123.6 124.99 125.32 125.29 127 125.72 128.64 126.29 130.27 126.87 131.87 127.56 133.43 128.32 134.81 129.39 136.22 130.39 137.64 131.39 138.9 132.58 140.09 133.85 141.17 135.2 142.08 136.68 143.15 138.06 143.91 139.62 144.66 141.19 145.13 142.86 145.68 144.5 146.19 146.16 146.33 147.9 146.59 149.61 146.55 151.34"/><polygon class="cls-7" points="103.75 135.16 102.56 136.46 101.44 137.87 100.42 139.35 99.51 140.91 98.8 142.57 98.24 144.28 97.65 145.98 97.33 147.75 97.21 149.55 97.08 151.34 97.12 153.07 97.27 154.79 97.67 156.48 98.12 158.14 98.71 159.75 99.31 161.38 100.2 162.86 101.06 164.36 102.08 165.75 103.28 166.98 104.43 168.28 105.74 169.4 107.11 170.45 108.55 171.41 110.13 172.13 111.68 172.9 113.33 173.4 115.01 173.77 116.7 174.13 118.41 174.38 120.13 174.34 121.86 174.34 123.57 174.12 125.29 173.92 126.94 173.41 128.58 172.87 130.11 172.06 131.67 171.33 133.18 170.48 134.56 169.43 135.87 168.3 136.99 166.99 138.2 165.75 139.17 164.32 140.08 162.86 140.9 161.34 141.66 159.79 142.25 158.17 142.58 156.47 143.04 154.8 143.09 153.07 143.29 151.34 143.08 149.55 142.96 147.75 142.65 145.97 142.01 144.28 141.56 142.53 140.7 140.94 139.86 139.34 138.87 137.84 137.75 136.43 136.51 135.19 134.8 135.06 133.08 135.15 131.35 135.12 129.63 135.16 127.91 135.15 126.18 135.19 124.46 135.09 122.73 135.07 121.01 135.16 119.28 135.09 117.56 135.06 115.84 135.12 114.11 135.07 112.39 135.09 110.66 135.14 108.94 135.19 107.21 135.2 105.47 135.04 103.75 135.16"/><path class="cls-8" d="M113.12,147.48h.56l1.26.85-1,1.46-1,1.44-.94,1.46-1,1.44-.45.58,1.51-.11,1.5-.16.09-2.61,1.56-.23v1.33l0,1.36,1.24-.12,0,1.51-1.26,0,0,2.44-1.77,0,.06-2.41h-2.14l-2.14,0-.28-.75.85-1.47.85-1.46.84-1.47.78-1.51Z"/><path class="cls-8" d="M121.44,154.18l-.95-1.8h-2.12l-.67-.24.14-1.48.16-1.47.14-1.49h4l.18-.19h.82l-.48,1.71h-3.21l-.46,2.18,2-.22,1.77.92.66,1.87-.47,1.69-1.22,1.28-1.61.75-1.77.24-.77-.09,0-.88,1.76-.17,1.46-1Z"/><path class="cls-8" d="M124.77,152.26l.38-1.85,1.21-1.44,1.77-.67.08-1.39,1.11,0-.08,1.38,1.57.32,0,1.9h-1l-.45-1.1-.92-.21-1.3.88-.39,1.59.47,2,1.72,1,1.81-.41.29.73-1.19.61-1.36.22,0,1.26-1.13,0,.07-1.3-1.45-.63-.92-1.29Z"/><polygon class="cls-5" points="84.34 218.86 84.1 220.75 83.33 222.49 82.19 223.99 80.68 225.15 78.94 225.9 77.05 226.14 75.17 225.87 73.43 225.13 71.92 223.99 70.75 222.5 70.01 220.75 69.78 218.86 70.05 216.98 70.74 215.22 71.93 213.74 73.41 212.54 75.17 211.84 77.05 211.6 78.93 211.86 80.68 212.59 82.19 213.73 83.37 215.22 84.08 216.98 84.34 218.86"/><polygon class="cls-10" points="145.84 247.96 145.75 249.69 145.74 251.48 145.45 253.24 145 254.96 144.66 256.71 144.06 258.38 143.36 260.01 142.63 261.63 141.93 263.27 140.9 264.72 140.01 266.27 138.9 267.66 137.62 268.91 136.31 270.1 134.98 271.28 133.53 272.29 132.12 273.39 130.48 274.1 128.89 274.9 127.23 275.55 125.51 276.01 123.75 276.27 121.99 276.55 120.21 276.61 118.43 276.56 116.66 276.37 114.92 275.96 113.19 275.53 111.52 274.9 109.87 274.23 108.32 273.36 106.82 272.39 105.38 271.35 104.06 270.16 102.79 268.91 101.63 267.57 100.48 266.21 99.53 264.71 98.62 263.19 97.74 261.65 96.92 260.07 96.25 258.42 95.74 256.71 95.26 255 95.03 253.22 94.77 251.47 94.53 249.7 94.59 247.97 96.34 247.93 98.1 247.87 99.86 247.84 101.63 247.96 103.39 247.86 105.16 247.98 106.92 247.9 108.69 248.02 110.45 247.85 112.22 247.97 113.99 247.98 115.76 247.9 117.52 248 119.29 247.91 121.06 247.82 122.83 248 124.6 247.82 126.37 247.99 128.14 247.88 129.91 247.83 131.67 248 133.44 247.91 135.21 247.86 136.98 247.87 138.75 247.92 140.52 247.85 142.3 248 144.07 247.83 145.84 247.96"/><polyline class="cls-11" points="99.02 258.05 97.81 257.16 97.32 255.54 96.92 253.89 96.31 252.3 95.19 251.04 93.69 250.27 92.01 250.04 90.22 250.38 88.72 251.39 87.81 252.96 87.33 254.72 87.34 256.54 87.6 258.34 88.13 260.08 88.94 261.72 90.03 263.18 91.34 264.44 92.85 265.46 94.47 266.07 96.15 266.49 97.88 266.38 99.44 265.64 100.63 264.4 101.39 262.87"/><polygon class="cls-12" points="141.88 244.91 141.75 246.77 141.63 248.55 141.4 250.31 141.16 252.08 140.68 253.79 140.04 255.46 139.37 257.1 138.66 258.73 137.92 260.34 137.02 261.88 135.96 263.31 134.8 264.66 133.7 266.07 132.31 267.19 131.06 268.46 129.57 269.44 128.07 270.39 126.47 271.17 124.85 271.89 123.2 272.53 121.52 273.11 119.76 273.39 117.98 273.51 116.21 273.59 114.44 273.54 112.68 273.31 110.94 272.97 109.18 272.63 107.52 271.99 105.94 271.17 104.33 270.42 102.86 269.42 101.47 268.32 100.11 267.17 98.74 266.04 97.64 264.64 96.41 263.35 95.4 261.88 94.56 260.31 93.78 258.71 93.01 257.11 92.42 255.44 91.71 253.8 91.41 252.04 90.98 250.32 90.68 248.56 90.54 246.78 90.58 245.01 92.34 244.93 94.1 244.94 95.86 244.92 97.63 244.91 99.39 244.98 101.16 244.93 102.92 244.96 104.69 244.91 106.45 244.94 108.22 244.95 109.99 244.94 111.76 244.99 113.52 245 115.29 245.04 117.06 244.99 118.83 245.08 120.6 245.09 122.37 245.03 124.14 244.94 125.91 244.9 127.67 244.94 129.44 244.9 131.21 245.02 132.98 245 134.75 244.91 136.52 245.06 138.3 245.01 140.07 244.95 141.88 244.91"/><polyline class="cls-12" points="92.02 255.13 90.81 254.25 90.32 252.62 89.92 250.97 89.31 249.38 88.19 248.12 86.69 247.35 85.01 247.12 83.22 247.46 81.72 248.47 80.81 250.04 80.33 251.8 80.34 253.62 80.6 255.42 81.13 257.17 81.94 258.8 83.03 260.26 84.34 261.52 85.85 262.54 87.47 263.16 89.15 263.57 90.88 263.46 92.44 262.72 93.63 261.48 94.39 259.95"/><path class="cls-11" d="M13.5,277.62c.49,0,.49.16,1,.16s.49,0,1,0,.49.12,1,.12.49-.34,1-.34.49,0,1,0,.49-.4,1-.4.49.35,1,.35.49.32,1,.32.49,0,1,0,.49-.51,1-.51.49,0,1,0,.49.12,1,.12.49,0,1,0,.49.26,1,.26.49-.34,1-.34.49.39,1,.39.49-.17,1-.17.49,0,1,0,.49-.16,1-.16.49.45,1,.45.49-.37,1-.37.49.26,1,.26.49.14,1,.14.49-.09,1-.09.49-.06,1-.06.49-.46,1-.46.49.34,1,.34.49-.15,1-.15.49,0,1,0,.49-.26,1-.26.49.3,1,.3.49-.14,1-.14.49.31,1,.31.49-.57,1-.57.49.72,1,.72.49-.53,1-.53.49-.09,1-.09.49,0,1,0,.49.16,1,.16.49,0,1,0,.49.1,1,.1.49,0,1,0,.49-.19,1-.19.49,0,1,0,.49,0,1,0,.49.07,1,.07.49.16,1,.16.49-.14,1-.14.49-.27,1-.27.49.47,1,.47.49-.32,1-.32.49-.3,1-.3.49.42,1,.42.49.23,1,.23.49-.24,1-.24.49.2,1,.2.49-.55,1-.55.49.11,1,.11.49-.11,1-.11h1c.49,0,.49.61,1,.61s.49-.52,1-.52.49.07,1,.07.49.42,1,.42.49-.08,1-.08.49-.08,1-.08.49-.4,1-.4.49,0,1,0,.49.37,1,.37.49-.18,1-.18.49.23,1,.23.49-.47,1-.47.49.1,1,.1.49.26,1,.26.49,0,1,0,.49-.3,1-.3.49,0,1,0,.49-.09,1-.09l1,0c.49,0,.49-.09,1-.09l1,0c.49,0,.49.65,1,.65s.49,0,1,0,.49-.17,1-.17.49-.27,1-.27.49.14,1,.14.49,0,1,0,.49.24,1,.24.49.17,1,.17.49-.18,1-.18.49-.47,1-.47.49.61,1,.61.49-.29,1-.29l1,0c.49,0,.49.24,1,.24s.49,0,1,0,.49-.17,1-.17h1c.49,0,.49.25,1,.25s.49-.12,1-.12.49-.39,1-.39.49.12,1,.12h1c.49,0,.49-.27,1-.27s.49.16,1,.16.49.25,1,.25h1c.49,0,.49-.44,1-.44s.49.19,1,.19.49.54,1,.54.49-.64,1-.64.49.58,1,.58.49-.5,1-.5.49-.07,1-.07.49.3,1,.3.49,0,1,0,.49-.32,1-.32.49.39,1,.39.49,0,1,0,.49-.07,1-.07.49.29,1,.29.49-.42,1-.42.49-.08,1-.08.49.24,1,.24.49,0,1,0,.49-.17,1-.17l1,0c.49,0,.49-.26,1-.26s.49.58,1,.58.49-.14,1-.14.49-.08,1-.08.49.21,1,.21h1c.49,0,.49-.11,1-.11s.49.16,1,.16.49-.54,1-.54.49.19,1,.19.49.21,1,.21.49.19,1,.19.49-.63,1-.63.49.4,1,.4.49-.17,1-.17.49.26,1,.26.49-.22,1-.22.49-.28,1-.28.49,0,1,0,.49,0,1,0,.49,0,1,0,.49-.1,1-.1h1c.49,0,.49.53,1,.53h1c.49,0,.49,0,1,0s.49-.39,1-.39.49,0,1,0,.49.56,1,.56.49,0,1,0,.49-.08,1-.08.49-.13,1-.13.49-.46,1-.46.49.2,1,.2.49.48,1,.48.49-.7,1-.7.49.63,1,.63.49-.1,1-.1.49-.32,1-.32.49.3,1,.3.49-.13,1-.13.49-.17,1-.17.49.41,1,.41.49-.62,1-.62.49.45,1,.45.49-.49,1-.49.49.23,1,.23.49,0,1,0,.49,0,1,0,.49.41,1,.41.49-.22,1-.22.49-.28,1-.28.49.15,1,.15.49-.25,1-.25.49.32,1,.32.49.17,1,.17.49-.26,1-.26.49-.21,1-.21.49.26,1,.26.49-.21,1-.21.49.34,1,.34.49-.3,1-.3.49.52,1,.52.49,0,1,0l1,0c.49,0,.49-.59,1-.59h1c.49,0,.49.29,1,.29s.49.11,1,.11.49-.36,1-.36.49.14,1,.14.49-.21,1-.21.49-.06,1-.06.48.69,1,.69.48-.25,1-.25.48-.23,1-.23.48.53,1,.53.48-.18,1-.18.48-.2,1-.2.48.21,1,.21h1c.48,0,.48-.44,1-.44s.48.31,1,.31.48-.37,1-.37.48.44,1,.44.49-.23,1-.23.49-.2,1-.2.49.4,1,.4.49.1,1,.1.49.13,1,.13.49-.29,1-.29.49-.06,1-.06.49,0,1,0,.49,0,1,0,.49-.29,1-.29.49.16,1,.16.49.44,1,.44.49-.58,1-.58.49.36,1,.36.49,0,1,0,.49,0,1,0h1c.49,0,.49-.23,1-.23s.49-.06,1-.06.49.28,1,.28.49-.42,1-.42.49.18,1,.18.49.31,1,.31.49-.37,1-.37.49.38,1,.38.49-.33,1-.33.49-.21,1-.21.49.27,1,.27.49.1,1,.1.49-.12,1-.12.49-.26,1-.26.49.41,1,.41.49.25,1,.25.49,0,1,0,.49-.59,1-.59.49.58,1,.58.49-.48,1-.48.49,0,1,0,.49,0,1,0,.49.62,1,.62.49-.42,1-.42.49.19,1,.19.49.1,1,.1.49.14,1,.14.49-.34,1-.34.49-.15,1-.15.49-.1,1-.1.49.12,1,.12.49,0,1,0,.49.16,1,.16.49.28,1,.28.49-.7,1-.7.49.54,1,.54.49.05,1,.05.49-.34,1-.34.49.11,1,.11.49,0,1,0,.49.33,1,.33.49-.27,1-.27.49-.18,1-.18.49.19,1,.19.49-.17,1-.17.49-.22,1-.22.49.39,1,.39.49-.32,1-.32.49.24,1,.24.49.33,1,.33.49,0,1,0h1c.49,0,.49-.57,1-.57s.49-.09,1-.09.49.62,1,.62.49-.45,1-.45.49.25,1,.25.49-.17,1-.17.49.06,1,.06h1c.49,0,.49-.14,1-.14s.49.17,1,.17.49-.16,1-.16.49-.07,1-.07l1,0c.49,0,.49.07,1,.07s.49,0,1,0,.49-.15,1-.15h1c.49,0,.49-.07,1-.07s.49.72,1,.72h1c.49,0,.49-.63,1-.63s.49,0,1,0h1c.49,0,.49,0,1,0s.49.09,1,.09.49-.07,1-.07.49.07,1,.07.49,0,1,0,.49.07,1,.07.49,0,1,0,.49.38,1,.38.49-.44,1-.44.49.27,1,.27.49.23,1,.23.49-.14,1-.14.49.16,1,.16.49-.25,1-.25.49-.09,1-.09.49-.27,1-.27.49.09,1,.09.49.38,1,.38.49.16,1,.16l1,0c.49,0,.49-.34,1-.34s.49.27,1,.27.49-.22,1-.22.49-.42,1-.42.49.21,1,.21.49.06,1,.06l1,0c.49,0,.49.27,1,.27s.49-.52,1-.52.49.45,1,.45.49.14,1,.14h1.94c.49,0,.49,0,1,0s.49.07,1,.07.49,0,1,0h1c.49,0,.49-.21,1-.21s.49-.39,1-.39.49.69,1,.69.49-.34,1-.34.49.3,1,.3.49-.35,1-.35.49-.18,1-.18.49.59,1,.59.49-.57,1-.57.49.59,1,.59.49-.47,1-.47h2c.49,0,.49.36,1,.36h1c.49,0,.49-.36,1-.36s.49-.11,1-.11.49.34,1,.34.49-.32,1-.32.49.34,1,.34.49-.43,1-.43.49.61,1,.61.49-.08,1-.08.49,0,1,0,.49-.14,1-.14.49-.36,1-.36.49-.11,1-.11.49.63,1,.63.49-.47,1-.47.49-.16,1-.16.49.72,1,.72.49-.53,1-.53.49-.19,1-.19.49.59,1,.59.49.09,1,.09.49,0,1,0,.49-.31,1-.31.49.31,1,.31.49-.16,1-.16.49-.26,1-.26.49.09,1,.09.49.37,1,.37"/></svg>
