<svg id="Layer_1" data-name="Layer 1" xmlns="http://www.w3.org/2000/svg" viewBox="0 0 400 288"><defs><style>.cls-1{fill:#2dd6a5;}.cls-2{fill:#fab42d;}.cls-3,.cls-4,.cls-5{fill:none;stroke-miterlimit:10;stroke-width:4px;}.cls-3{stroke:#3e82f7;}.cls-4{stroke:#fff;}.cls-5{stroke:#fab42d;}</style></defs><title>illustration-custom-secure</title><polygon class="cls-1" points="221.3 186.95 219.85 187.04 218.4 187.06 216.94 186.95 215.49 186.99 214.04 186.96 212.58 187.08 211.12 187.05 209.67 186.96 208.21 186.94 206.76 186.94 205.3 186.98 203.85 186.99 202.39 187.09 200.93 187.09 199.47 187.06 198.02 186.95 196.56 187.03 195.1 187.01 193.64 187.01 192.18 186.99 190.73 187.08 189.26 187.04 187.81 187 186.35 187.02 184.89 187.06 183.43 187.09 181.97 186.95 180.51 186.94 179.05 187.01 177.59 187.02 176.13 187.05 174.67 187 173.21 186.95 171.74 187.01 170.28 186.97 168.81 186.99 167.29 186.99 165.8 186.71 164.33 186.31 162.92 185.74 161.61 184.97 160.37 184.1 159.28 183.04 158.27 181.91 157.43 180.66 156.61 179.39 156.13 177.95 155.72 176.5 155.43 175.02 155.26 173.52 155.32 172.06 155.31 170.61 155.38 169.16 155.34 167.71 155.36 166.25 155.24 164.79 155.34 163.34 155.24 161.88 155.37 160.43 155.25 158.97 155.28 157.52 155.28 156.06 155.27 154.6 155.38 153.14 155.39 151.69 155.26 150.23 155.36 148.77 155.34 147.31 155.31 145.86 155.23 144.4 155.23 142.94 155.34 141.48 155.26 140.02 155.34 138.56 155.25 137.1 155.37 135.64 155.34 134.18 155.31 132.73 155.36 131.26 155.28 129.81 155.26 128.34 155.25 126.88 155.31 125.42 155.31 123.95 155.3 122.49 155.36 121.02 155.38 119.51 155.69 118.03 156.1 116.58 156.7 115.19 157.39 113.85 158.26 112.61 159.3 111.52 160.37 110.43 161.63 109.59 162.96 108.88 164.38 108.35 165.79 107.82 167.3 107.63 168.81 107.53 170.26 107.46 171.72 107.47 173.17 107.56 174.62 107.48 176.07 107.45 177.53 107.47 178.99 107.47 180.44 107.53 181.9 107.51 183.35 107.58 184.81 107.58 186.26 107.54 187.72 107.56 189.18 107.48 190.64 107.59 192.09 107.46 193.55 107.46 195.01 107.47 196.47 107.57 197.93 107.5 199.38 107.5 200.85 107.47 202.3 107.59 203.76 107.59 205.22 107.52 206.69 107.57 208.14 107.57 209.6 107.59 211.06 107.46 212.52 107.49 213.98 107.57 215.44 107.52 216.91 107.53 218.37 107.58 219.84 107.5 221.3 107.53 222.82 107.53 224.29 107.91 225.77 108.25 227.15 108.87 228.49 109.59 229.75 110.43 230.8 111.53 231.88 112.59 232.77 113.82 233.4 115.2 234.09 116.55 234.5 118.01 234.69 119.51 234.84 121.02 234.77 122.48 234.83 123.93 234.75 125.38 234.79 126.83 234.88 128.29 234.73 129.74 234.81 131.2 234.84 132.66 234.84 134.11 234.82 135.57 234.75 137.02 234.79 138.48 234.8 139.94 234.73 141.39 234.75 142.85 234.84 144.31 234.88 145.76 234.77 147.22 234.82 148.68 234.83 150.14 234.79 151.6 234.8 153.06 234.82 154.52 234.82 155.98 234.88 157.44 234.82 158.9 234.84 160.36 234.86 161.81 234.83 163.28 234.87 164.73 234.82 166.19 234.73 167.66 234.74 169.12 234.74 170.58 234.82 172.05 234.88 173.52 234.73 175.03 234.52 176.53 234.08 177.99 233.43 179.36 232.75 180.71 231.89 181.96 230.85 183.07 229.66 184 228.47 184.93 227.13 185.62 225.76 186.26 224.31 186.68 222.82 186.97 221.3 186.95"/><path class="cls-2" d="M297.46,57.58a7.77,7.77,0,0,1-.08,1.48,8.61,8.61,0,0,1-.33,1.44,8.75,8.75,0,0,1-.39,1.43,7.4,7.4,0,0,1-.63,1.34,8.47,8.47,0,0,1-.75,1.28,8.8,8.8,0,0,1-.92,1.16,8.19,8.19,0,0,1-1,1.07,7.63,7.63,0,0,1-1.16.92,8.66,8.66,0,0,1-1.29.74,7.76,7.76,0,0,1-1.34.63,7.49,7.49,0,0,1-1.42.42,9.18,9.18,0,0,1-1.46.24,9.46,9.46,0,0,1-1.48.08,7.78,7.78,0,0,1-1.48,0,7.37,7.37,0,0,1-1.46-.27,8.18,8.18,0,0,1-1.41-.47,9.28,9.28,0,0,1-1.35-.6,8,8,0,0,1-1.29-.73,7.72,7.72,0,0,1-1.14-1,8.54,8.54,0,0,1-1.06-1,8.11,8.11,0,0,1-.91-1.17,7.6,7.6,0,0,1-.77-1.27,8.71,8.71,0,0,1-.57-1.37,8.79,8.79,0,0,1-.48-1.4,7.24,7.24,0,0,1-.24-1.46,8.68,8.68,0,0,1-.09-1.48A8.86,8.86,0,0,1,273,56.1a8.07,8.07,0,0,1,.29-1.45,8.08,8.08,0,0,1,.44-1.41,8,8,0,0,1,.56-1.37,7.74,7.74,0,0,1,.81-1.24,9.32,9.32,0,0,1,.92-1.16,7.69,7.69,0,0,1,1-1.08,7.36,7.36,0,0,1,1.2-.87,9.84,9.84,0,0,1,1.26-.77,8.11,8.11,0,0,1,1.33-.64,8.55,8.55,0,0,1,1.43-.4,7.46,7.46,0,0,1,1.44-.34,8.31,8.31,0,0,1,1.48,0,8.92,8.92,0,0,1,1.48,0,7.25,7.25,0,0,1,1.45.3,8.27,8.27,0,0,1,1.41.45,9.34,9.34,0,0,1,1.35.61,8,8,0,0,1,1.3.71,7.54,7.54,0,0,1,1.15.93,8.88,8.88,0,0,1,1,1.05,8.35,8.35,0,0,1,.91,1.17,7.17,7.17,0,0,1,.8,1.25,9,9,0,0,1,.58,1.37,9.07,9.07,0,0,1,.47,1.41,10.71,10.71,0,0,1,.24,1.46A6.22,6.22,0,0,1,297.46,57.58Z"/><path class="cls-3" d="M169.42,147.27c0-.62.1-1.22.14-1.83s0-1.23.13-1.83.22-1.21.34-1.8.32-1.18.49-1.76.32-1.18.53-1.75.44-1.14.69-1.7.5-1.12.79-1.65.61-1.06.94-1.58.74-1,1.11-1.46.74-1,1.14-1.43.81-.91,1.24-1.34.89-.84,1.35-1.24.88-.85,1.37-1.21,1-.7,1.51-1,1-.62,1.59-.92,1.08-.56,1.64-.81,1.09-.55,1.67-.76,1.16-.38,1.75-.56,1.19-.26,1.79-.39,1.18-.33,1.78-.42,1.21-.14,1.82-.19,1.22,0,1.83,0,1.22,0,1.83.06,1.23.07,1.83.15,1.2.24,1.79.37,1.21.22,1.79.4,1.17.36,1.74.58,1.11.53,1.66.78,1.09.54,1.63.83,1.06.6,1.57.94,1,.65,1.52,1,1,.76,1.41,1.16,1,.77,1.39,1.2.8.93,1.19,1.39.8.92,1.16,1.41.69,1,1,1.52.7,1,1,1.54.52,1.1.77,1.66.53,1.1.75,1.67.4,1.15.57,1.74.25,1.19.38,1.79.26,1.19.34,1.8.16,1.21.2,1.82.06,1.21.06,1.83,0,1.23,0,1.83-.13,1.22-.22,1.82-.22,1.2-.35,1.8-.29,1.19-.46,1.77-.32,1.18-.53,1.75-.45,1.14-.7,1.69-.54,1.1-.83,1.63-.58,1.08-.9,1.59-.71,1-1.07,1.49-.8.93-1.19,1.39-.77.95-1.2,1.38-.88.85-1.34,1.25-.91.82-1.4,1.18-1,.66-1.54,1-1,.63-1.58.93-1.08.56-1.63.82-1.09.55-1.66.76-1.15.42-1.73.59-1.19.28-1.79.41-1.2.21-1.8.3-1.2.18-1.82.22-1.21,0-1.83,0-1.23,0-1.83,0-1.22-.1-1.82-.18-1.2-.24-1.79-.37-1.2-.26-1.78-.43-1.17-.36-1.74-.58-1.16-.41-1.71-.66-1.09-.56-1.62-.86-1.07-.6-1.58-.93-1-.72-1.47-1.09-.95-.76-1.41-1.16-1-.76-1.39-1.2-.85-.88-1.25-1.34-.79-.93-1.16-1.42-.67-1-1-1.53-.62-1-.91-1.59-.56-1.08-.81-1.64-.54-1.09-.75-1.67-.37-1.16-.54-1.75-.32-1.18-.44-1.78-.29-1.19-.38-1.79-.07-1.22-.12-1.83S169.42,147.88,169.42,147.27Z"/><line class="cls-3" x1="184.88" y1="137.1" x2="205.23" y2="157.44"/><line class="cls-3" x1="205.23" y1="137.1" x2="184.88" y2="157.44"/><path class="cls-4" d="M219.84,107.66c0-.62.05-1.25,0-1.86s-.17-1.23-.26-1.84-.19-1.23-.32-1.83-.26-1.22-.44-1.81-.43-1.17-.65-1.74-.48-1.14-.75-1.7-.59-1.09-.9-1.62-.64-1.06-1-1.57-.66-1.06-1-1.54-.79-1-1.21-1.41-.86-.89-1.32-1.31-.91-.84-1.4-1.22-1-.69-1.54-1-1-.69-1.56-1-1.07-.62-1.63-.89-1.12-.53-1.7-.75-1.18-.37-1.77-.55-1.18-.36-1.79-.5-1.2-.31-1.81-.4-1.23-.07-1.86-.12-1.23-.08-1.85-.08-1.24,0-1.86,0-1.24.12-1.85.21-1.22.25-1.82.38-1.22.25-1.81.44-1.16.44-1.73.67-1.14.48-1.7.75-1.14.49-1.68.8-1.07.64-1.58,1-1,.72-1.49,1.11-.93.82-1.38,1.24-.9.85-1.32,1.31-.77,1-1.16,1.45-.81.94-1.16,1.45-.66,1-1,1.58-.63,1.07-.9,1.63-.46,1.15-.68,1.73-.48,1.14-.66,1.73-.29,1.2-.43,1.81-.26,1.2-.35,1.82-.23,1.22-.28,1.84,0,1.23,0,1.86"/><path class="cls-5" d="M195.06,244.87c-.6,0-1.2,0-1.79,0s-1.19-.11-1.79-.13-1.19-.06-1.79-.09l-1.79-.1c-.6,0-1.18-.2-1.78-.25s-1.22.16-1.81.1-1.16-.39-1.75-.46-1.18-.18-1.77-.26-1.2-.06-1.79-.15-1.19-.13-1.78-.23-1.21,0-1.8-.15-1.1-.6-1.68-.72-1.19-.14-1.77-.27-1.19-.15-1.77-.29-1.16-.31-1.73-.46-1.15-.35-1.72-.51-1.17-.26-1.74-.44-1.16-.31-1.73-.49-1-.64-1.61-.83-1.14-.34-1.71-.54-1.13-.39-1.69-.6-1.14-.37-1.69-.59-1.09-.49-1.64-.72-1.09-.49-1.64-.73-1.19-.26-1.74-.51-1-.62-1.57-.88-1.14-.4-1.67-.67-.94-.78-1.47-1.06-1.11-.46-1.63-.75-1.08-.52-1.6-.81-.94-.77-1.45-1.07-1.14-.43-1.64-.74-.88-.85-1.38-1.17-1-.66-1.49-1-1.17-.41-1.66-.75-.79-1-1.27-1.31-1-.61-1.51-1-1.08-.56-1.55-.92-.81-.9-1.28-1.27-.94-.73-1.4-1.11-.9-.78-1.36-1.17-.95-.73-1.4-1.12-.91-.77-1.35-1.18-.8-.9-1.23-1.31-.82-.86-1.25-1.28-1-.71-1.4-1.14-.79-.89-1.2-1.33-.92-.77-1.33-1.21-.68-1-1.08-1.44-1-.75-1.35-1.2-.76-.92-1.14-1.39-.71-1-1.08-1.43-.57-1.07-.93-1.55-.72-1-1.08-1.43-.73-.95-1.08-1.43-.81-.89-1.15-1.38-.7-1-1-1.47-.5-1.1-.82-1.6-.58-1-.9-1.55-.61-1-.91-1.54-.69-1-1-1.49-.49-1.09-.78-1.61-.6-1-.87-1.56-.77-.94-1-1.48-.45-1.11-.71-1.65-.35-1.15-.6-1.7-.49-1.08-.74-1.63-.45-1.1-.68-1.65-.55-1.06-.77-1.62-.61-1-.82-1.6-.54-1.08-.74-1.64,0-1.26-.22-1.82-.56-1.07-.74-1.64-.42-1.12-.6-1.69-.35-1.14-.52-1.72-.27-1.17-.42-1.74-.18-1.19-.32-1.77-.24-1.17-.37-1.75-.19-1.18-.32-1.76-.39-1.14-.5-1.72-.36-1.15-.47-1.74-.12-1.19-.21-1.78-.16-1.18-.24-1.78-.18-1.18-.25-1.77-.15-1.18-.21-1.78.07-1.2,0-1.8-.21-1.18-.25-1.78-.05-1.19-.08-1.79,0-1.19,0-1.79-.09-1.19-.1-1.79.09-1.19.09-1.79-.29-1.2-.28-1.79.35-1.19.37-1.78-.11-1.2-.08-1.8.09-1.19.13-1.79,0-1.2.1-1.79.18-1.18.24-1.78-.12-1.22,0-1.81.41-1.15.49-1.75.15-1.18.25-1.77-.09-1.23,0-1.82.44-1.14.55-1.72.31-1.16.43-1.74.25-1.17.38-1.75.29-1.16.44-1.74.35-1.14.51-1.72.18-1.19.34-1.76.42-1.12.59-1.69,0-1.25.19-1.82.43-1.12.62-1.69.5-1.09.7-1.65.38-1.13.59-1.69.36-1.15.58-1.7.71-1,.94-1.55.2-1.22.44-1.76.7-1,.95-1.54.52-1.07.78-1.61.44-1.11.71-1.65.48-1.1.76-1.62.65-1,.93-1.53.43-1.13.72-1.65.76-.94,1.06-1.46.69-1,1-1.48.35-1.19.67-1.7.85-.87,1.18-1.37.78-.91,1.12-1.41.47-1.13.82-1.61.7-1,1.06-1.45.89-.83,1.25-1.3.76-.92,1.13-1.38.77-.91,1.15-1.37.73-.94,1.12-1.4.79-.89,1.19-1.34.68-1,1.09-1.43.7-1,1.11-1.41.85-.84,1.27-1.27.86-.83,1.29-1.25.92-.77,1.35-1.18.77-.93,1.21-1.33,1-.67,1.45-1.06.95-.73,1.4-1.12.81-.89,1.27-1.27,1-.66,1.47-1,.83-.87,1.31-1.24.89-.81,1.37-1.16,1.12-.5,1.6-.84,1-.68,1.47-1,.85-.87,1.35-1.2,1.05-.58,1.55-.9.94-.75,1.45-1.06,1.06-.56,1.58-.86,1.08-.52,1.6-.82,1-.73,1.49-1,1.08-.52,1.61-.8l1.59-.82c.53-.27,1-.63,1.56-.89s1.16-.35,1.7-.6,1.06-.55,1.61-.8,1.09-.49,1.64-.73,1.07-.54,1.63-.76,1.1-.46,1.66-.67,1.23-.12,1.79-.32,1.1-.45,1.67-.65,1-.64,1.62-.82,1.17-.28,1.74-.46,1.16-.3,1.73-.46,1.18-.2,1.76-.36,1.19-.17,1.77-.31,1.12-.44,1.71-.57,1.13-.44,1.71-.56,1.18-.2,1.77-.31,1.16-.29,1.75-.39,1.22.05,1.81,0,1.16-.34,1.75-.42,1.22.1,1.81,0,1.18-.22,1.77-.28l1.78-.18c.59-.05,1.19-.15,1.78-.19s1.2,0,1.79,0,1.19,0,1.79,0,1.19-.21,1.79-.22,1.19,0,1.79,0"/><path class="cls-5" d="M268.75,93.54c.33.51.69,1,1,1.51s.38,1.18.68,1.7.61,1,.9,1.56.64,1,.92,1.56.59,1.06.86,1.59.45,1.12.71,1.66.67,1,.92,1.57.38,1.15.62,1.7.46,1.11.69,1.67.57,1.07.78,1.64.28,1.18.49,1.75.41,1.13.6,1.7.55,1.09.73,1.66.25,1.19.42,1.76.31,1.17.46,1.75.43,1.13.58,1.72.18,1.2.31,1.79.4,1.15.52,1.74,0,1.23.11,1.82.49,1.14.59,1.74-.11,1.24,0,1.83.38,1.17.45,1.77.2,1.19.26,1.79-.08,1.22,0,1.82.22,1.2.26,1.8.07,1.21.09,1.81,0,1.21,0,1.81,0,1.21,0,1.81,0,1.21,0,1.81,0,1.21-.08,1.81,0,1.21,0,1.81-.11,1.2-.17,1.81-.24,1.19-.31,1.79-.14,1.2-.22,1.8-.06,1.21-.15,1.81-.36,1.16-.46,1.76-.25,1.18-.37,1.77-.25,1.18-.38,1.77-.1,1.21-.24,1.8-.3,1.17-.45,1.75-.35,1.15-.52,1.73-.3,1.17-.48,1.74-.3,1.17-.49,1.75-.59,1.07-.79,1.64-.27,1.18-.48,1.75-.4,1.14-.62,1.7-.45,1.12-.68,1.68-.54,1.08-.78,1.63-.55,1.08-.8,1.62-.37,1.16-.64,1.7-.57,1.07-.85,1.6-.67,1-1,1.54-.64,1-.94,1.55-.6,1-.92,1.56-.54,1.08-.87,1.59-.66,1-1,1.51-.62,1-1,1.53-.77.93-1.12,1.42-.56,1.09-.92,1.57-.9.83-1.27,1.3-.76.93-1.14,1.4-.74,1-1.13,1.41-.65,1-1.05,1.49-.82.89-1.23,1.33-1,.72-1.42,1.15-.86.84-1.29,1.26-.87.83-1.31,1.25-.74,1-1.18,1.38-.88.83-1.34,1.22-.93.77-1.39,1.16-1,.63-1.51,1-.92.78-1.39,1.15-.93.77-1.41,1.13l-1.47,1.05c-.49.35-1,.64-1.52,1s-1,.59-1.56.92-.92.81-1.43,1.12-1.11.5-1.63.8-1,.67-1.53,1-1,.66-1.55.94-1.17.38-1.7.65-1,.78-1.5,1-1.08.55-1.63.8l-1.66.74c-.55.24-1.2.26-1.76.48s-1.13.41-1.7.63-1.08.57-1.64.77-1.18.29-1.75.48-1.07.61-1.65.79-1.21.17-1.79.33-1.14.39-1.73.55L216,226c-.59.14-1.15.4-1.74.53s-1.22.09-1.81.21-1.16.38-1.75.49-1.21.08-1.81.17-1.17.32-1.77.4l-1.8.22c-.6.07-1.2.17-1.8.23s-1.21,0-1.82,0-1.21,0-1.81.05-1.2.2-1.8.22-1.21,0-1.81,0-1.21-.14-1.81-.14-1.21.18-1.81.16-1.21,0-1.81,0-1.2-.11-1.81-.15-1.2-.11-1.8-.16l-1.8-.18c-.6-.07-1.17-.35-1.77-.43s-1.23,0-1.82,0-1.17-.32-1.77-.42-1.21-.09-1.8-.21-1.17-.33-1.75-.45-1.21-.11-1.8-.25-1.14-.42-1.72-.57-1.21-.17-1.79-.33-1.09-.56-1.67-.74-1.2-.19-1.78-.38-1.09-.54-1.66-.74-1.21-.19-1.78-.4-1.06-.6-1.62-.82-1.18-.31-1.73-.55-1-.68-1.57-.93-1.14-.4-1.69-.66-1.15-.39-1.69-.66-1-.69-1.54-1-1.09-.52-1.62-.81-1.07-.56-1.6-.86-1-.72-1.49-1-1-.67-1.51-1-1.1-.51-1.61-.84-1-.69-1.49-1-.9-.81-1.39-1.16-1.13-.5-1.61-.87-.95-.75-1.42-1.13-.89-.82-1.36-1.2-.82-.89-1.28-1.29-1-.66-1.48-1.06-.9-.81-1.34-1.22-.81-.9-1.24-1.32-.92-.79-1.34-1.22-.93-.78-1.34-1.22-.79-.91-1.2-1.36-.8-.9-1.2-1.36-.74-1-1.12-1.42-.65-1-1-1.5-.8-.9-1.17-1.38-.8-.9-1.16-1.39-.57-1.07-.92-1.56-.76-.94-1.1-1.44-.64-1-1-1.53"/><path class="cls-5" d="M317.21,141c0,.6-.06,1.21-.07,1.81s-.33,1.2-.35,1.8.09,1.21.07,1.81-.15,1.2-.18,1.8.15,1.22.1,1.82-.2,1.19-.26,1.79,0,1.21-.06,1.81,0,1.21-.11,1.81-.4,1.17-.48,1.76-.06,1.21-.15,1.8-.12,1.2-.22,1.8-.26,1.18-.37,1.77-.41,1.15-.53,1.74,0,1.23-.14,1.82-.22,1.19-.35,1.77-.43,1.14-.57,1.72-.09,1.22-.24,1.8-.22,1.19-.38,1.77-.59,1.09-.76,1.67-.26,1.18-.44,1.76-.33,1.16-.52,1.73-.39,1.14-.58,1.71-.52,1.09-.72,1.66-.21,1.21-.42,1.77-.63,1.05-.84,1.61-.19,1.22-.42,1.78-.5,1.1-.74,1.65-.69,1-.94,1.56-.57,1.06-.83,1.61-.07,1.3-.33,1.84-.93.89-1.2,1.43-.44,1.12-.72,1.66-.48,1.11-.77,1.64-.66,1-.95,1.54-.49,1.1-.79,1.63-.41,1.16-.71,1.68-1,.81-1.31,1.32-.27,1.25-.59,1.76-1,.78-1.35,1.28-.45,1.14-.79,1.64-.86.87-1.2,1.37L294,212c-.35.49-.68,1-1,1.47s-.46,1.16-.83,1.64-.8.91-1.17,1.38-.79.91-1.17,1.38-.93.8-1.31,1.26-.57,1.1-1,1.55-.73,1-1.13,1.41-.9.82-1.3,1.26-1,.74-1.39,1.18-.62,1.08-1,1.51-1,.66-1.47,1.08-.56,1.15-1,1.57-1.13.56-1.57,1-.91.79-1.35,1.2-.82.88-1.28,1.28-.71,1-1.17,1.41-1.14.52-1.6.91-.94.75-1.41,1.13-.91.79-1.38,1.16-.87.85-1.35,1.21-1.07.58-1.56.93-.82.92-1.31,1.27-1.06.59-1.56.93-1,.67-1.5,1-1,.59-1.55.92-.93.78-1.44,1.1-1.05.59-1.57.9-1,.65-1.53,1-1,.7-1.51,1-1,.71-1.51,1-1.23.25-1.77.54-.94.81-1.47,1.08-1.18.34-1.72.61-1,.78-1.51,1-1.12.44-1.67.69-1.15.37-1.7.62-1,.62-1.6.85l-1.67.68c-.56.23-1.14.39-1.7.61s-1.07.57-1.64.78-1.25.08-1.82.28-1,.69-1.61.88l-1.72.57c-.57.18-1.16.33-1.74.51s-1.15.37-1.73.53l-1.74.48c-.58.16-1.18.27-1.76.42s-1.2.17-1.78.31-1.14.42-1.73.55-1.2.16-1.79.28-1.2.12-1.8.23-1.19.15-1.79.26-1.16.36-1.75.45-1.17.28-1.77.37-1.2.13-1.8.21l-1.79.22c-.6.07-1.21,0-1.81,0s-1.18.34-1.78.4-1.22-.15-1.82-.1-1.18.4-1.78.44-1.21,0-1.81.05-1.21-.13-1.81-.12-1.2.23-1.8.23-1.21.08-1.81.08-1.2-.33-1.8-.33-1.21.23-1.81.21-1.21.1-1.81.08-1.2-.15-1.8-.19-1.18-.4-1.78-.44-1.22.12-1.82.07-1.19-.17-1.79-.24-1.21-.05-1.8-.12-1.17-.33-1.77-.41l-1.79-.24c-.6-.09-1.23.08-1.83,0s-1.16-.35-1.76-.45-1.18-.26-1.77-.37-1.23,0-1.82-.12-1.12-.51-1.71-.65-1.22-.09-1.8-.23-1.18-.24-1.77-.39-1.13-.46-1.71-.62-1.22-.13-1.79-.3-1.13-.45-1.7-.62-1.1-.52-1.67-.7-1.21-.18-1.78-.38l-1.71-.59c-.57-.2-1.19-.25-1.76-.46s-1-.78-1.56-1-1.19-.26-1.75-.48-1-.65-1.59-.88-1.16-.34-1.71-.59-1.18-.32-1.73-.57-1.12-.47-1.66-.73-1-.63-1.58-.9-.92-.85-1.45-1.13-1.11-.47-1.64-.76-1-.64-1.55-.93-1.24-.25-1.76-.55-.9-.84-1.42-1.15-1.18-.38-1.69-.69-1-.72-1.48-1-1.11-.51-1.61-.84l-1.5-1c-.5-.34-.86-.89-1.35-1.23l-1.47-1c-.49-.35-1.14-.48-1.62-.84s-1-.73-1.44-1.1-.8-.93-1.28-1.3-.84-.88-1.3-1.26-1.09-.57-1.55-1-1-.67-1.47-1.07-.87-.84-1.32-1.24-.77-.94-1.22-1.35-.75-1-1.19-1.37-1-.65-1.47-1.07l-1.28-1.27c-.43-.43-.76-.94-1.18-1.38s-.88-.82-1.3-1.26-.79-.91-1.2-1.35-.75-.94-1.15-1.39l-1.19-1.36c-.39-.46-1-.72-1.4-1.18s-.78-.92-1.16-1.39-.64-1-1-1.5-.59-1.07-1-1.55-1.08-.69-1.44-1.18-.71-1-1.06-1.47-.55-1.09-.9-1.58-.78-.92-1.12-1.42-.59-1.06-.92-1.56-.75-1-1.07-1.46-.57-1.07-.88-1.58-.34-1.2-.65-1.72-.77-.94-1.07-1.47-.53-1.08-.82-1.61-.86-.9-1.15-1.43-.58-1.06-.86-1.59-.33-1.18-.6-1.72-.54-1.08-.8-1.62-.64-1-.89-1.58-.53-1.08-.77-1.64-.31-1.18-.55-1.73-.29-1.18-.52-1.74-.72-1-.94-1.57-.44-1.12-.65-1.69-.3-1.17-.5-1.74-.33-1.16-.52-1.73S79,179,78.8,178.39s-.42-1.13-.6-1.71,0-1.25-.19-1.83-.3-1.16-.46-1.75-.66-1.07-.81-1.66-.06-1.23-.2-1.81-.28-1.17-.42-1.76-.39-1.15-.52-1.74-.16-1.2-.27-1.79-.43-1.15-.53-1.74.12-1.24,0-1.84-.46-1.15-.55-1.74-.22-1.19-.3-1.79-.07-1.21-.14-1.81,0-1.22,0-1.82-.21-1.19-.26-1.79,0-1.21,0-1.81-.39-1.18-.43-1.78,0-1.21,0-1.81.34-1.22.33-1.82-.42-1.2-.43-1.8-.07-1.21-.07-1.81.18-1.21.19-1.81.3-1.2.32-1.8-.3-1.22-.27-1.82.2-1.2.23-1.8,0-1.21,0-1.81.15-1.2.2-1.8,0-1.21.1-1.81.3-1.18.37-1.78.1-1.2.18-1.8.15-1.2.24-1.79,0-1.23.05-1.82.26-1.18.37-1.77.51-1.13.62-1.72.21-1.19.34-1.77.25-1.18.38-1.77,0-1.23.17-1.82.3-1.17.45-1.75.38-1.15.54-1.73.52-1.1.69-1.68.24-1.18.41-1.76.18-1.21.37-1.78.48-1.11.68-1.68.43-1.12.64-1.69.4-1.14.61-1.7.18-1.22.4-1.78.57-1.07.8-1.63.51-1.09.74-1.65.59-1.06.83-1.61.16-1.25.41-1.8.59-1.06.85-1.6.77-1,1-1.5.31-1.2.58-1.73.48-1.11.76-1.64.92-.87,1.22-1.4.6-1,.9-1.56.22-1.27.52-1.79.82-.91,1.14-1.43.62-1,.95-1.54.54-1.09.87-1.59.81-.91,1.15-1.41.76-.94,1.11-1.43.45-1.15.81-1.64.82-.89,1.18-1.37.85-.87,1.21-1.35.67-1,1-1.47.67-1,1-1.48.91-.81,1.3-1.27l1.17-1.37c.39-.46.57-1.1,1-1.55s.85-.86,1.26-1.3.94-.77,1.35-1.21.82-.88,1.24-1.31.75-1,1.18-1.38,1-.73,1.41-1.15.78-.92,1.22-1.33,1-.71,1.43-1.12.71-1,1.16-1.41,1-.64,1.5-1,.7-1,1.16-1.42.92-.78,1.39-1.16,1.06-.6,1.54-1,1-.7,1.46-1.07,1-.71,1.45-1.07,1-.69,1.47-1,.93-.76,1.43-1.11,1.09-.53,1.59-.87.93-.77,1.44-1.1.9-.83,1.41-1.15,1.09-.54,1.6-.85,1-.74,1.48-1,1.14-.43,1.67-.73.93-.81,1.46-1.1,1.09-.52,1.62-.81,1.18-.35,1.71-.63,1-.6,1.59-.87,1.16-.36,1.71-.62,1-.62,1.58-.87,1.13-.43,1.68-.67,1-.65,1.58-.89,1-.62,1.61-.84,1.14-.41,1.7-.63,1.14-.39,1.7-.6,1.19-.25,1.76-.45,1.1-.51,1.67-.7,1.13-.43,1.7-.61,1.19-.22,1.77-.4,1.13-.43,1.71-.59l1.74-.49c.58-.16,1.2-.15,1.79-.3s1.18-.23,1.77-.38,1.13-.47,1.71-.6,1.15-.37,1.74-.49l1.77-.37,1.78-.32c.59-.11,1.21-.05,1.81-.15s1.16-.39,1.75-.48,1.22.06,1.82,0,1.16-.39,1.76-.46,1.22.08,1.82,0,1.18-.27,1.78-.32,1.2-.07,1.8-.12,1.19-.24,1.79-.27,1.21.13,1.82.1,1.2-.12,1.8-.14,1.2-.14,1.81-.15,1.21-.06,1.81-.06,1.21.27,1.81.28,1.21,0,1.81,0,1.21,0,1.81,0,1.2.23,1.8.26,1.2,0,1.8.09,1.21,0,1.81,0,1.19.22,1.79.28,1.19.18,1.79.25l1.79.23c.6.08,1.24-.16,1.84-.07s1.19.24,1.78.34,1.17.33,1.76.44,1.15.4,1.74.51,1.24,0,1.83.09,1.15.39,1.74.52,1.19.2,1.78.34,1.2.17,1.78.32,1.1.55,1.68.71,1.23.1,1.8.26,1.16.32,1.74.5,1.11.49,1.69.67,1.2.21,1.77.4,1.15.36,1.72.57,1.12.45,1.69.66,1.09.53,1.65.75,1.13.41,1.69.64l1.67.7c.56.24,1.14.4,1.69.65s1,.63,1.59.88,1.06.57,1.61.83,1,.68,1.55,1,1.08.52,1.62.79,1.14.42,1.67.7l1.59.86c.53.29,1.11.49,1.63.79s1,.7,1.5,1,1.09.52,1.61.84,1,.67,1.51,1,1,.69,1.5,1,1,.63,1.53,1,1,.67,1.5,1,1.12.51,1.6.86.81.94,1.29,1.3,1,.73,1.44,1.1,1.08.58,1.55.95.73,1,1.2,1.39,1.05.62,1.51,1,1,.67,1.47,1.06.66,1.07,1.11,1.47,1,.7,1.43,1.11,1,.72,1.42,1.13,1,.71,1.42,1.13.56,1.15,1,1.57,1,.66,1.47,1.09.64,1.05,1.06,1.49.93.77,1.34,1.22.69,1,1.09,1.45,1,.74,1.38,1.19.67,1,1.06,1.47.85.86,1.23,1.33.79.91,1.17,1.38.84.87,1.21,1.35.63,1,1,1.52.49,1.13.84,1.62.77.93,1.11,1.42.86.87,1.2,1.37.58,1.06.91,1.57.52,1.09.84,1.6.79.93,1.1,1.44.52,1.09.83,1.61.59,1,.89,1.57.67,1,1,1.53.56,1.07.84,1.6.62,1,.9,1.57.74,1,1,1.52.54,1.08.8,1.62.17,1.25.42,1.8.76,1,1,1.53.61,1,.85,1.6.26,1.2.49,1.76.59,1.06.81,1.62.22,1.21.43,1.77.7,1,.9,1.6.21,1.2.4,1.78.29,1.17.47,1.75.47,1.11.65,1.69.47,1.12.64,1.7.14,1.21.3,1.79.26,1.18.41,1.76.25,1.18.39,1.76.62,1.09.75,1.68-.1,1.26,0,1.85.22,1.18.34,1.77.39,1.15.5,1.74.23,1.18.33,1.78,0,1.21.14,1.81.37,1.16.45,1.76.17,1.19.24,1.79.09,1.2.16,1.8.25,1.19.3,1.79,0,1.21,0,1.81-.09,1.21-.06,1.82.25,1.19.28,1.8.15,1.2.17,1.8,0,1.21,0,1.81S317.21,140.4,317.21,141Z"/></svg>
