<svg id="illustrations" xmlns="http://www.w3.org/2000/svg" viewBox="0 0 400 288"><defs><style>.cls-1,.cls-10,.cls-2,.cls-8{fill:none;stroke-miterlimit:10;}.cls-1{stroke:#fab42d;}.cls-1,.cls-2{stroke-width:2px;}.cls-2{stroke:#2dd6a5;}.cls-3{fill:#fbc357;}.cls-4{fill:#e5ac51;}.cls-5{fill:#3e82f7;}.cls-6{fill:#e2dfd6;}.cls-7{fill:#999792;}.cls-10,.cls-8{stroke:#e2dfd6;}.cls-8{stroke-width:5px;}.cls-9{fill:#f37f82;}.cls-10{stroke-width:3px;}</style></defs><title>illustration-home-engage</title><polygon class="cls-1" points="118.97 180.5 118.92 181.95 118.84 183.4 118.74 184.85 118.51 186.28 118.15 187.69 117.78 189.1 117.35 190.49 116.84 191.85 116.2 193.15 115.65 194.5 114.93 195.76 114.2 197.02 113.3 198.16 112.52 199.39 111.52 200.44 110.61 201.58 109.57 202.6 108.48 203.56 107.33 204.44 106.22 205.38 104.96 206.12 103.76 206.93 102.5 207.66 101.19 208.3 99.84 208.82 98.48 209.32 97.09 209.76 95.7 210.19 94.27 210.43 92.84 210.68 91.4 210.82 89.95 210.98 88.5 211 87.05 210.91 85.6 210.86 84.17 210.64 82.72 210.5 81.32 210.1 79.89 209.81 78.5 209.38 77.17 208.79 75.82 208.27 74.49 207.67 73.25 206.92 71.98 206.2 70.84 205.3 69.64 204.48 68.51 203.57 67.46 202.56 66.39 201.58 65.4 200.51 64.5 199.37 63.62 198.21 62.88 196.96 62.05 195.77 61.38 194.48 60.77 193.16 60.18 191.84 59.66 190.48 59.23 189.09 58.9 187.68 58.58 186.27 58.35 184.84 58.14 183.4 58.03 181.95 57.98 180.5 58.06 179.05 58.09 177.59 58.34 176.16 58.58 174.73 58.88 173.31 59.28 171.92 59.72 170.54 60.21 169.17 60.74 167.82 61.37 166.51 62.13 165.27 62.84 164.01 63.62 162.78 64.57 161.68 65.43 160.51 66.42 159.44 67.43 158.4 68.5 157.42 69.65 156.53 70.78 155.61 72.02 154.85 73.25 154.07 74.5 153.33 75.81 152.72 77.14 152.13 78.52 151.65 79.89 151.18 81.3 150.84 82.72 150.51 84.15 150.27 85.59 150.08 87.05 150.05 88.5 149.98 89.95 149.99 91.4 150.15 92.84 150.3 94.27 150.55 95.7 150.84 97.11 151.19 98.49 151.64 99.83 152.19 101.15 152.8 102.45 153.43 103.73 154.12 105 154.84 106.2 155.64 107.33 156.56 108.47 157.46 109.54 158.44 110.59 159.44 111.54 160.54 112.47 161.65 113.38 162.79 114.19 164 114.92 165.25 115.61 166.52 116.25 167.83 116.87 169.14 117.31 170.53 117.8 171.9 118.09 173.32 118.45 174.73 118.72 176.15 118.82 177.6 118.93 179.05 118.97 180.5"/><polygon class="cls-2" points="341.36 208.4 340.07 209.65 338.96 211 337.63 212.15 336.41 213.38 335.17 214.6 333.97 215.87 332.7 217.07 331.59 218.42 330.41 219.69 329.2 220.94 328.15 222.35 326.79 223.46 325.52 224.66 324.34 225.95 323.17 227.24 321.93 228.47 320.73 229.74 319.62 231.1 318.47 232.42 317.16 233.57 315.45 233.28 313.8 232.73 312.09 232.37 310.42 231.89 308.7 231.58 307.01 231.13 305.31 230.75 303.6 230.42 301.94 229.86 300.25 229.41 298.53 229.12 296.86 228.65 295.15 228.29 293.44 227.94 291.75 227.48 290.07 227.03 288.37 226.64 286.69 226.14 285.01 225.63 283.33 225.3 282.94 223.64 282.33 222 281.73 220.36 281.24 218.69 280.9 216.98 280.38 215.31 279.88 213.64 279.25 212.01 278.69 210.36 278.33 208.65 277.93 206.95 277.39 205.3 277.02 203.59 276.38 201.96 275.85 200.29 275.42 198.6 275.06 196.89 274.33 195.28 273.95 193.57 273.56 191.9 274.76 190.69 275.75 189.24 277.07 188.09 278.19 186.75 279.59 185.69 280.71 184.34 281.86 183.03 283.16 181.85 284.31 180.56 285.44 179.23 286.68 178 287.82 176.68 289.08 175.48 290.36 174.28 291.57 173.03 292.63 171.63 294.03 170.54 295.13 169.18 296.37 167.94 297.56 166.65 299.27 166.99 300.91 167.63 302.64 167.91 304.31 168.39 306 168.83 307.69 169.24 309.38 169.64 311.12 169.9 312.81 170.31 314.48 170.81 316.17 171.25 317.88 171.6 319.53 172.18 321.24 172.51 323 172.65 324.67 173.19 326.35 173.68 328.04 174.1 329.72 174.61 331.48 174.88 331.99 176.56 332.44 178.24 333 179.89 333.51 181.56 333.83 183.28 334.44 184.92 334.84 186.62 335.28 188.31 335.95 189.93 336.42 191.61 336.95 193.26 337.44 194.93 337.85 196.63 338.14 198.36 338.81 199.98 339.24 201.68 339.84 203.32 340.28 205.01 340.69 206.72 341.36 208.4"/><polygon class="cls-3" points="217.78 124.74 216.65 125.7 215.81 126.97 215.03 128.28 214.43 129.68 214.08 131.16 214.56 132.51 215.33 133.74 216.27 134.84 217.29 135.86 218.39 136.81 219.6 137.61 220.9 137.87 222.23 137.75 223.55 137.64 224.86 137.87 226.05 138.48 227.26 139.28 228.47 140.08 229.66 140.89 230.89 141.64 232.12 142.39 233.36 143.11 234.82 143.01 236.23 142.55 237.58 141.94 238.9 141.28 240.21 140.59 241.51 139.87 242.77 139.09 244.05 138.34 245.31 137.58 245.31 136.09 245.3 134.6 245.31 133.11 245.33 131.62 245.31 130.13 245.32 128.64 245.31 127.15 245.3 125.65 245.33 124.09 245.48 122.55 245.59 121 245.68 119.45 245.55 117.91 244.99 116.47 243.93 115.35 242.56 114.62 241.07 114.43 239.59 114.65 238.12 114.98 236.7 115.49 235.27 115.97 233.88 116.54 232.48 117.11 231.1 117.71 229.74 118.35 228.38 119.01 227.05 119.72 225.69 120.39 224.37 121.11 223.02 121.78 221.7 122.5 220.39 123.24 219.09 124 217.78 124.74"/><polygon class="cls-4" points="226.03 125.64 225.42 126.82 224.76 127.97 224.03 129.09 223.26 130.17 222.36 131.18 223.66 130.59 225.05 130.3 226.46 130.26 227.87 130.22 229.37 130.3 230.86 130.39 232.35 130.49 233.85 130.59 235.35 130.62 236.85 130.62 238.34 130.54 239.8 130.23 241.08 129.65 242.16 128.75 242.8 127.51 242.88 126.11 242.54 124.74 242.19 123.52 241.9 122.29 241.64 121.06 240.11 120.74 238.58 120.45 237.05 120.14 235.52 120.47 233.99 120.76 232.47 121.08 231.18 121.99 229.89 122.89 228.61 123.81 227.34 124.75 226.03 125.64"/><polygon class="cls-4" points="124.19 101.65 123.67 100.41 123.08 99.04 122.64 97.61 122.14 96.21 121.91 94.71 121.08 93.43 120.63 92.01 120.39 90.52 119.64 89.21 119.31 87.74 118.86 86.32 118.36 84.92 117.89 83.5 117.19 82.16 116.79 80.75 115.53 79.95 114.21 79.21 113.06 78.19 112.01 77.08 111.26 75.73 110.56 74.38 109.8 73.04 109.46 71.53 109.38 70.01 109.33 68.5 109.71 67.04 110.08 65.57 110.91 64.29 111.55 62.89 112.51 61.7 113.34 60.43 114.22 59.19 115.17 57.97 115.59 56.49 115.75 54.97 116.12 53.55 116.19 52.08 116.41 50.63 116.5 49.16 116.6 47.68 117.16 46.3 117.53 44.89 118.28 43.66 119.09 42.42 120.44 41.83 121.83 41.41 123.28 41.26 124.76 41.35 126.25 41.34 127.74 41.16 129.23 41.12 130.68 40.76 132.11 40.37 133.56 40.08 134.94 39.58 136.28 38.97 137.64 38.38 138.82 37.49 139.98 36.68 141.25 36.01 142.39 35.15 143.68 34.52 144.89 33.77 146.16 33.13 147.51 32.67 148.92 32.41 150.31 31.96 151.76 32.09 153.15 32.45 154.46 33 155.83 33.62 157.17 34.3 158.49 35.04 159.91 35.54 161.28 36.16 162.72 36.59 164.18 36.9 165.65 37.17 167.15 37.32 168.64 37.1 170.08 36.67 171.45 36.28 172.88 36.15 174.27 36.47 175.65 36.8 176.96 37.33 178.2 38.04 179.26 38.98 180.41 39.89 180.97 41.22 181.65 42.49 181.82 43.91 181.89 45.32 181.83 46.73 181.73 48.21 181.79 49.69 181.66 51.17 181.6 52.65 181.26 54.1 181.08 55.56 180.89 57.02 180.54 58.47 179.72 59.71 178.85 60.87 177.88 61.99 176.5 62.55 175.23 63.3 173.76 63.49 172.3 63.67 170.83 63.78 169.34 63.81 167.86 64.07 166.37 64.04 164.89 64.25 163.4 64.4 161.9 64.26 160.42 64.45 158.95 64.71 157.47 64.91 155.97 64.83 154.49 65.02 153.03 65.38 151.55 65.5 150.06 65.55 148.62 65.92 147.12 65.96 146.03 66.99 144.91 67.93 143.79 68.88 142.54 69.66 141.46 70.65 140.34 71.61 139.03 72.3 137.94 73.3 136.86 74.3 135.65 75.13 134.48 76.02 133.38 77.01 132.13 77.8 131.17 78.95 130.03 79.89 128.85 80.74 128.37 82.08 128.16 83.5 127.82 84.9 127.66 86.34 127.39 87.75 126.92 89.12 126.74 90.55 126.39 91.95 126.05 93.35 125.74 94.75 125.44 96.16 125 97.54 124.71 98.96 124.46 100.37 124.19 101.65"/><polygon class="cls-3" points="243.48 190.81 244.39 190.79 243.7 189.22 242.24 188.98 240.79 188.62 239.34 188.36 237.88 188.08 236.42 187.81 234.96 187.57 233.51 187.25 232.05 186.97 230.59 186.68 229.14 186.4 227.66 186.18 226.22 185.82 224.76 185.52 223.29 185.26 222.05 185.54 220.84 185.9 219.6 186.2 219.36 187.63 219.06 189.05 218.74 190.46 218.46 191.88 218.27 193.31 217.95 194.73 217.72 196.16 217.47 197.58 217.14 198.99 216.89 200.42 216.59 201.84 216.28 203.25 216.08 204.69 215.76 206.1 215.44 207.51 215.21 208.95 214.93 210.37 214.66 211.79 214.44 213.23 214.1 214.65 215.55 214.78 216.98 215.01 218.42 215.18 219.87 215.26 221.31 215.42 222.75 215.57 224.19 215.69 225.63 215.89 227.07 216.04 228.51 216.18 229.96 216.28 231.41 216.37 232.85 216.51 234.29 216.65 235.74 216.76 237.19 216.77 238.64 216.88 240.09 216.98 241.55 217.07 243 217.14 244.45 217.21 245.91 217.21 247.36 217.3 248.81 217.32 250.27 217.36 251.72 217.33 253.18 217.37 254.63 217.37 256.08 217.21 257.53 217.11 258.97 216.98 260.42 216.82 261.83 216.51 263.25 215.91 264.62 215.2 265.76 214.16 266.78 213 267.64 211.72 268.36 210.35 268.93 208.92 269.43 207.46 269.84 205.98 268.79 206.94 267.38 207.24 265.93 207.05 264.53 206.61 263.22 205.94 261.91 205.29 260.66 204.53 259.39 203.79 258.17 202.97 256.99 202.09 255.77 201.27 254.59 200.4 253.44 199.49 252.32 198.53 251.14 197.65 250 196.71 248.91 195.72 247.79 194.76 246.71 193.77 245.62 192.79 244.54 191.78 243.48 190.81"/><polygon class="cls-3" points="255.39 159.6 254.8 158.24 254.26 156.84 253.75 155.44 253.16 154.07 252.6 152.69 252.09 151.28 251.62 149.86 251.06 148.48 250.57 147.08 250.01 145.7 249.5 144.3 248.97 142.91 248.46 141.51 247.9 140.13 247.28 138.79 246.61 137.47 245.84 136.21 244.86 134.95 243.53 134.06 241.94 133.88 240.39 134.27 238.87 134.79 237.54 135.43 236.23 136.09 234.92 136.75 233.69 137.54 232.51 138.41 231.84 139.71 231.7 141.16 231.98 142.59 232.38 144 232.85 145.38 233.38 146.75 233.88 148.13 234.5 149.44 235.05 150.79 235.6 152.14 236.05 153.53 236.58 154.87 237.08 156.23 237.57 157.59 238.02 158.97 238.38 160.37 238.82 161.76 239.29 163.13 239.65 164.53 240.03 165.94 240.45 167.33 240.81 168.73 241.22 170.13 241.63 171.53 242 172.98 242.33 174.44 242.65 175.9 242.94 177.36 243.19 178.83 243.28 180.32 243.37 181.81 243.5 183.3 243.44 184.79 243.4 186.28 243.48 187.77 243.71 189.21 245.12 189.43 246.52 189.75 247.93 190.06 249.35 190.26 250.75 190.62 252.17 190.83 253.57 191.16 255 191.34 256.4 191.63 257.81 191.91 259.23 192.16 260.64 192.43 262.04 192.74 263.45 193.04 264.86 193.33 266.29 193.54 267.7 193.82 269.11 194.05 268.63 192.71 268.15 191.3 267.72 189.88 267.23 188.48 266.68 187.1 266.15 185.71 265.59 184.33 265.05 182.95 264.49 181.58 263.95 180.19 263.35 178.83 262.87 177.42 262.25 176.08 261.67 174.72 261.06 173.36 260.54 171.97 259.98 170.59 259.41 169.22 258.77 167.88 258.24 166.49 257.65 165.12 257.1 163.74 256.5 162.38 255.95 160.99 255.39 159.6"/><polygon class="cls-3" points="270.57 202.18 270.37 203.45 270.13 204.72 269.84 205.98 270.08 205.47 270.45 203.85 270.57 202.18"/><polygon class="cls-3" points="269.12 194.12 267.71 193.82 266.3 193.56 264.89 193.29 263.48 193 262.07 192.76 260.66 192.47 259.24 192.23 257.84 191.92 256.42 191.68 255.02 191.39 253.6 191.13 252.19 190.87 250.78 190.56 249.36 190.32 247.95 190.05 246.54 189.74 245.12 189.5 243.71 189.23 244.39 190.79 243.48 190.81 244.53 191.81 245.63 192.78 246.69 193.79 247.8 194.75 248.92 195.69 250.01 196.68 251.15 197.6 252.29 198.52 253.44 199.44 254.59 200.35 255.75 201.25 256.94 202.11 258.15 202.96 259.36 203.79 260.61 204.57 261.9 205.29 263.21 205.95 264.54 206.58 265.94 207.03 267.39 207.24 268.82 206.99 269.85 205.98 270.13 204.72 270.37 203.45 270.55 202.18 270.52 200.81 270.36 199.45 270.12 198.1 269.84 196.76 269.48 195.43 269.12 194.12"/><polygon class="cls-5" points="161.82 168.77 163.28 168.9 164.72 169.22 166.14 169.58 167.59 169.85 169.02 170.23 170.45 170.56 171.87 170.96 173.31 171.28 174.75 171.6 176.17 172 177.6 172.37 179.03 172.72 180.45 173.11 181.87 173.51 183.31 173.84 184.74 174.19 186.18 174.51 187.59 174.94 189.01 175.33 190.45 175.65 191.88 176.02 193.29 176.46 194.72 176.85 196.17 177.13 197.59 177.59 199.03 177.92 200.47 178.29 201.9 178.67 203.34 179 204.76 179.43 206.19 179.82 207.62 180.19 209.06 180.53 210.49 180.9 211.91 181.29 213.31 181.77 214.77 182.03 216.19 182.45 217.62 182.79 219.04 183.19 220.44 183.67 221.88 183.96 223.31 184.36 222.87 185.79 222.48 187.23 222.21 188.69 221.75 190.11 221.53 191.59 221.13 193.02 220.8 194.47 220.55 195.93 220.28 197.39 220.01 198.86 219.74 200.32 219.58 201.8 219.5 203.31 219.34 204.8 219.27 206.31 219.17 207.81 219.27 209.32 219.16 210.83 219.28 212.33 219.28 213.84 219.37 215.33 219.45 216.83 219.63 218.38 218.2 218.07 216.76 217.96 215.34 217.69 213.91 217.54 212.49 217.28 211.07 217.06 209.63 216.91 208.2 216.73 206.79 216.44 205.37 216.24 203.94 216.07 202.5 215.91 201.08 215.64 199.65 215.49 198.22 215.26 196.8 215.01 195.36 214.82 193.93 214.65 193.12 213.42 192.24 212.25 191.45 211.01 190.59 209.82 189.67 208.68 188.86 207.45 188.05 206.22 187.2 205.02 186.35 203.82 185.49 202.62 184.66 201.41 183.77 200.23 183 198.98 182.13 197.79 181.23 196.62 180.41 195.4 179.6 194.17 178.72 192.98 177.86 191.79 177.03 190.57 176.21 189.35 175.33 188.16 174.47 186.96 173.66 185.73 172.81 184.52 171.97 183.31 171.18 182.07 170.26 180.91 169.48 179.65 168.62 178.46 167.75 177.27 166.93 176.04 166.06 174.84 165.25 173.6 164.34 172.44 163.53 171.19 162.69 169.98 161.82 168.77"/><polygon class="cls-5" points="137.5 169.25 136.33 170.08 135.16 170.93 134.06 171.87 132.88 172.71 131.93 173.82 130.8 174.72 129.6 175.54 128.47 176.44 127.42 177.43 126.25 178.3 125.29 179.39 124.09 180.22 123 181.17 121.95 182.17 120.86 183.12 119.7 184 118.66 185.01 117.61 186.01 116.41 186.85 115.36 187.85 114.25 188.79 113.08 189.65 112.05 190.67 110.86 191.52 109.82 192.53 108.8 193.57 107.57 194.37 106.55 195.39 105.41 196.36 104.49 197.54 103.55 198.69 102.67 199.9 101.93 201.2 101.38 202.58 100.96 204.01 100.42 205.4 100.17 206.87 99.93 208.34 99.73 209.8 99.64 211.28 99.65 212.76 99.5 214.23 99.25 215.69 99.12 217.16 99 218.63 98.85 220.11 98.54 221.56 98.6 223.05 98.39 224.51 98.31 225.99 97.94 227.44 98.03 228.93 97.66 230.37 97.72 231.86 97.54 233.33 97.34 234.8 97.07 236.25 97.11 237.74 96.76 239.19 96.76 240.67 96.68 242.15 96.53 243.62 96.27 245.08 96.11 246.55 95.94 248.02 95.92 249.5 95.62 250.96 95.49 252.43 95.3 253.9 95.27 255.38 95.09 256.85 94.82 258.31 94.78 259.8 94.53 261.26 94.58 262.76 94.25 264.21 94.28 265.7 94.15 267.17 93.82 268.63 93.79 270.12 93.72 271.6 93.45 273.06 93.39 274.55 93.03 276.01 93.01 277.49 94.46 277.44 95.93 277.54 97.39 277.4 98.85 277.37 100.31 277.45 101.77 277.42 103.23 277.6 104.69 277.42 106.15 277.5 107.61 277.56 109.07 277.5 110.53 277.47 111.99 277.51 113.45 277.6 114.91 277.58 116.37 277.59 117.84 277.51 119.3 277.5 120.76 277.45 122.23 277.56 123.69 277.4 125.15 277.57 126.61 277.57 128.08 277.55 129.54 277.61 131 277.6 132.46 277.57 133.92 277.49 135.38 277.47 136.85 277.62 138.31 277.5 139.78 277.42 141.24 277.63 142.7 277.45 144.17 277.46 145.63 277.43 147.09 277.42 148.55 277.52 150.02 277.39 151.48 277.53 152.94 277.48 154.41 277.37 155.87 277.43 157.34 277.38 158.8 277.45 160.26 277.39 161.73 277.46 163.19 277.42 164.66 277.41 166.12 277.38 167.59 277.53 169.05 277.45 170.51 277.41 171.98 277.53 173.44 277.49 174.9 277.51 176.36 277.47 177.82 277.43 179.29 277.44 180.75 277.53 182.22 277.62 183.68 277.62 185.14 277.59 186.6 277.49 188.07 277.47 189.53 277.59 191 277.51 192.46 277.53 193.93 277.45 195.39 277.54 196.86 277.52 198.32 277.42 199.79 277.44 201.25 277.49 202.72 277.51 204.19 277.5 205.66 277.39 207.13 277.55 208.59 277.44 210.06 277.61 211.52 277.51 212.99 277.45 214.46 277.6 215.93 277.58 217.4 277.51 218.87 277.49 220.34 277.62 221.81 277.57 223.31 277.52 223.02 276.06 222.62 274.65 222.16 273.26 221.79 271.84 221.39 270.43 221.18 268.97 220.64 267.6 220.26 266.19 220.14 264.7 219.61 263.33 219.17 261.93 218.84 260.51 218.55 259.07 218.28 257.63 217.77 256.25 217.55 254.79 217.03 253.41 216.76 251.97 216.38 250.55 215.99 249.14 215.66 247.71 215.22 246.31 214.93 244.87 214.56 243.45 214.22 242.03 213.82 240.62 213.46 239.2 213.17 237.76 212.8 236.35 212.26 234.98 212.1 233.51 211.55 232.14 211.18 230.73 210.91 229.28 210.52 227.87 210.22 226.43 209.79 225.03 209.59 223.57 209.03 222.21 208.85 220.74 208.41 219.34 208.04 217.92 207.6 216.52 207.2 215.11 206.97 213.65 206.67 212.21 206.14 210.84 205.79 209.41 205.46 207.98 205.13 206.55 204.77 205.12 204.47 203.69 203.9 202.31 203.71 200.85 203.35 199.43 202.87 198.03 202.51 196.61 202.26 195.16 201.81 193.75 201.39 192.34 201.06 190.91 200.65 189.49 200.33 188.06 199.1 187.28 197.7 186.84 196.49 186.01 195.1 185.55 193.88 184.73 192.57 184.1 191.27 183.45 189.92 182.91 188.67 182.15 187.37 181.5 186.05 180.89 184.8 180.13 183.48 179.52 182.17 178.88 180.88 178.22 179.51 177.69 178.26 176.94 176.95 176.3 175.61 175.74 174.31 175.07 172.98 174.48 171.72 173.73 170.48 172.97 169.16 172.35 167.85 171.7 166.46 171.23 165.22 170.44 163.96 169.72 162.59 169.19 161.24 168.61 159.99 167.81 158.48 167.91 156.98 168 155.49 168.18 153.99 168.22 152.49 168.22 150.99 168.3 149.51 168.61 148 168.49 146.5 168.57 145.01 168.84 143.51 168.96 142.01 169 140.51 169.06 139 169.16 137.5 169.25"/><polygon class="cls-3" points="164.38 172.77 163.49 171.61 162.85 170.28 162.5 168.84 162.11 167.44 161.76 166.01 161.44 164.59 161.15 163.15 160.92 161.7 160.69 160.25 160.52 158.79 160.25 157.35 160.17 155.88 159.98 154.42 159.89 152.96 159.78 151.5 159.65 150.05 159.65 148.58 159.66 147.1 159.63 145.63 159.74 144.15 159.63 142.67 159.66 141.2 159.68 139.72 159.74 138.25 159.67 136.77 159.67 135.29 159.66 133.82 159.61 132.34 159.68 130.86 159.73 129.38 159.63 127.9 159.63 126.42 159.57 124.95 159.56 123.47 159.65 121.99 159.58 120.52 159.71 119.04 159.6 117.56 159.79 116.08 159.69 114.59 159.66 113.11 159.66 111.63 158.22 111.67 156.77 111.63 155.33 111.55 153.88 111.68 152.44 111.56 150.99 111.69 149.55 111.66 148.1 111.6 146.65 111.54 145.21 111.61 143.75 111.66 142.3 111.65 140.88 111.66 140.89 113.1 140.82 114.57 140.85 116.05 140.84 117.52 140.74 119 140.77 120.47 140.93 121.95 140.83 123.43 140.83 124.9 140.77 126.38 140.85 127.86 140.94 129.34 140.78 130.81 140.77 132.29 140.92 133.77 140.95 135.25 140.85 136.72 140.89 138.2 140.78 139.68 140.84 141.16 140.91 142.63 140.77 144.12 140.92 145.59 140.88 147.08 140.8 148.56 140.89 150.05 140.67 151.5 140.63 152.97 140.53 154.43 140.37 155.88 140.18 157.33 140 158.79 139.88 160.25 139.65 161.69 139.41 163.14 139.05 164.57 138.83 166.02 138.43 167.44 137.97 168.83 137.57 170.24 136.97 171.58 136.14 172.79 135.34 173.99 135.06 175.42 135.6 176.75 136.54 177.83 137.69 178.68 138.95 179.38 140.28 179.95 141.64 180.46 143.08 180.64 144.48 181 145.91 181.25 147.37 181.2 148.81 181.31 150.26 181.4 151.7 181.34 153.15 181.25 154.6 181.29 156.02 180.97 157.46 180.77 158.84 180.33 160.25 179.99 161.6 179.43 162.82 178.66 164.02 177.87 164.88 176.73 165.35 175.41 165.16 174 164.38 172.77"/><polygon class="cls-4" points="140.84 111.62 140.83 113.12 140.84 114.61 140.87 116.11 140.87 117.6 140.85 119.1 140.85 120.59 140.85 122.09 140.83 123.58 140.86 125.08 140.87 126.57 140.84 128.07 140.83 129.57 140.82 131.06 140.86 132.56 140.85 134.06 140.87 135.56 142.18 136.06 143.51 136.53 144.89 136.85 146.27 137.17 147.68 137.37 149.09 137.5 150.5 137.51 151.92 137.53 153.34 137.42 153.34 137.42 154.95 137.2 156.55 136.9 158.13 136.49 159.67 135.95 159.66 134.52 159.66 133.09 159.67 131.66 159.67 130.24 159.66 128.8 159.68 127.38 159.68 125.94 159.69 124.52 159.66 123.09 159.66 121.66 159.65 120.23 159.67 118.8 159.66 117.36 159.66 115.93 159.67 114.5 159.66 113.06 159.68 111.61 158.22 111.61 156.77 111.6 155.33 111.61 153.88 111.64 152.44 111.65 150.99 111.64 149.55 111.63 148.1 111.62 146.65 111.65 145.2 111.62 143.75 111.61 142.3 111.65 140.84 111.62"/><polygon class="cls-6" points="194.9 98.68 195.27 100.06 195.65 101.43 195.95 102.82 196.2 104.22 196.37 105.64 196.5 107.05 196.56 108.48 196.52 109.9 196.42 111.31 196.13 112.7 195.69 114.05 194.93 115.23 193.77 116.01 192.37 116.03 191.09 115.43 189.94 114.59 188.97 113.55 188.09 112.44 187.3 111.26 186.53 110.06 185.88 108.8 185.25 107.53 184.66 106.23 184.14 104.91 183.69 103.55 183.23 102.2 182.83 100.84 182.49 99.45 182.2 98.06 181.97 96.66 181.77 95.25 181.67 93.82 181.61 92.4 181.62 90.98 181.75 89.57 181.98 88.17 182.48 86.84 183.19 85.61 184.37 84.84 185.78 84.84 187.06 85.46 188.19 86.3 189.18 87.32 190.08 88.42 190.84 89.62 191.58 90.84 192.28 92.07 192.88 93.36 193.45 94.66 193.96 95.99 194.49 97.31 194.9 98.68"/><polygon class="cls-6" points="184.42 84.91 185.7 84.21 187.01 83.54 188.32 82.86 189.66 82.23 190.96 81.54 192.3 80.91 193.59 80.2 194.88 79.47 196.24 78.88 197.53 78.17 198.82 77.46 200.13 76.78 201.4 76.02 202.68 75.29 204.03 74.68 205.29 73.9 206.62 73.26 207.89 72.5 209.16 71.76 210.47 71.08 211.76 70.36 213 69.55 214.27 68.8 215.57 68.11 216.88 67.42 218.09 66.56 219.42 65.89 220.69 65.13 221.9 64.27 223.16 63.49 224.42 62.71 225.71 61.97 226.97 61.2 228.21 60.39 229.39 59.48 230.63 58.68 231.87 57.87 233.11 57.06 234.32 56.21 235.46 55.25 236.65 54.38 237.83 53.49 238.97 52.54 240.16 51.65 241.22 50.63 242.34 49.65 243.32 48.54 244.31 47.46 245.24 46.34 245.7 47.74 246.06 49.18 246.55 50.59 247.02 52 247.41 53.44 247.85 54.86 248.22 56.3 248.62 57.73 249.06 59.16 249.57 60.56 250.01 61.98 250.34 63.43 250.81 64.84 251.21 66.28 251.75 67.67 252.15 69.09 252.5 70.54 252.92 71.97 253.34 73.39 253.81 74.81 254.24 76.23 254.76 77.62 255.19 79.04 255.59 80.46 255.92 81.92 256.41 83.32 255 83.73 253.59 84.15 252.18 84.56 250.79 85.06 249.38 85.45 247.96 85.84 246.56 86.28 245.16 86.75 243.76 87.2 242.32 87.5 240.91 87.91 239.52 88.4 238.12 88.83 236.72 89.28 235.31 89.66 233.89 90.04 232.5 90.52 231.08 90.9 229.68 91.35 228.29 91.85 226.88 92.25 225.48 92.69 224.08 93.14 222.66 93.53 221.26 93.97 219.83 94.33 218.42 94.76 217.01 95.15 215.62 95.66 214.18 95.99 212.77 96.41 211.37 96.86 209.98 97.36 208.56 97.73 207.15 98.17 205.72 98.54 204.32 98.99 202.9 99.41 201.53 99.93 200.09 100.27 198.71 100.79 197.26 101.1 195.88 101.63 194.46 102.03 193.05 102.45 191.63 102.89 190.19 103.22 188.79 103.64 188.47 102.25 188.28 100.77 187.99 99.31 187.68 97.85 187.32 96.4 187.02 94.94 186.81 93.45 186.42 92 186.17 90.53 185.74 89.09 185.48 87.61 185.03 86.18 184.42 84.91"/><polygon class="cls-6" points="193.76 116.05 195.25 115.89 196.7 115.66 198.16 115.46 199.63 115.31 201.1 115.13 202.57 114.96 204.04 114.89 205.5 114.59 206.98 114.57 208.44 114.34 209.91 114.21 211.38 114.13 212.85 113.97 214.31 113.75 215.79 113.67 217.26 113.49 218.74 113.47 220.2 113.26 221.68 113.22 223.15 113.14 224.62 112.98 226.09 112.91 227.57 112.82 229.04 112.66 230.51 112.56 232 112.55 233.48 112.53 234.96 112.48 236.43 112.39 237.91 112.36 239.4 112.32 240.88 112.22 242.36 112.19 243.84 112.28 245.32 112.27 246.8 112.17 248.28 112.19 249.76 112.19 251.24 112.27 252.72 112.31 254.19 112.46 255.66 112.67 257.13 112.77 258.62 112.83 260.09 113.02 261.55 113.26 262.98 113.61 264.43 113.94 265.86 114.5 265.44 113.01 265.01 111.59 264.44 110.2 264.12 108.75 263.64 107.34 263.25 105.9 262.79 104.49 262.35 103.07 261.94 101.64 261.51 100.21 261.05 98.8 260.58 97.38 260.16 95.96 259.77 94.52 259.33 93.1 258.89 91.69 258.55 90.24 258.15 88.81 257.66 87.4 257.24 85.97 256.81 84.55 256.4 83.12 255.96 81.71 255.51 80.3 255.06 78.88 254.64 77.46 253.22 77.83 251.84 78.34 250.41 78.72 249.04 79.23 247.63 79.66 246.2 80.02 244.8 80.47 243.39 80.87 241.96 81.22 240.58 81.75 239.17 82.17 237.77 82.6 236.36 83 234.97 83.46 233.55 83.84 232.14 84.25 230.73 84.64 229.35 85.16 227.9 85.47 226.54 86.03 225.1 86.35 223.69 86.75 222.29 87.21 220.91 87.71 219.46 88.01 218.09 88.55 216.67 88.96 215.28 89.42 213.85 89.78 212.46 90.27 211.01 90.57 209.63 91.09 208.22 91.52 206.82 91.97 205.37 92.27 203.97 92.74 202.58 93.22 201.13 93.54 199.73 93.99 198.34 94.48 196.91 94.83 195.52 95.32 194.08 95.67 192.67 96.09 191.3 96.66 189.86 97.01 188.42 97.37 187.04 97.89 187.6 99.25 188.14 100.64 188.82 101.97 189.34 103.37 189.85 104.78 190.42 106.16 190.96 107.55 191.51 108.94 192.11 110.32 192.69 111.7 193.05 113.16 193.53 114.58 193.76 116.05"/><polygon class="cls-7" points="268.33 76.53 268.8 77.9 269.1 79.33 269.51 80.72 269.92 82.12 270.24 83.54 270.42 84.98 270.73 86.4 271.03 87.82 271.27 89.26 271.41 90.7 271.66 92.14 271.75 93.59 271.84 95.04 271.92 96.49 272.02 97.94 272.01 99.4 271.97 100.85 271.83 102.3 271.71 103.74 271.61 105.2 271.22 106.61 270.88 108.01 270.43 109.39 269.94 110.75 269.19 111.99 268.27 113.11 267.14 114 265.85 114.6 264.44 114.88 262.99 114.75 261.64 114.22 260.33 113.6 259.09 112.84 257.95 111.94 256.92 110.92 255.85 109.94 254.94 108.8 254.02 107.68 253.11 106.55 252.31 105.33 251.5 104.13 250.8 102.85 249.99 101.65 249.35 100.34 248.6 99.1 247.93 97.81 247.4 96.46 246.78 95.14 246.13 93.84 245.54 92.51 245.06 91.14 244.6 89.76 244.12 88.39 243.56 87.05 243.19 85.63 242.69 84.26 242.29 82.86 241.88 81.47 241.55 80.05 241.22 78.64 240.88 77.22 240.59 75.8 240.31 74.38 240.04 72.95 239.8 71.52 239.65 70.07 239.47 68.63 239.32 67.18 239.18 65.74 239.15 64.28 239.1 62.83 239.04 61.38 239.11 59.93 239.13 58.47 239.34 57.03 239.57 55.6 239.75 54.15 240.18 52.77 240.53 51.35 241.11 50.02 241.9 48.8 242.81 47.69 243.9 46.76 245.19 46.12 246.62 45.94 248.06 46.06 249.45 46.48 250.72 47.17 251.91 48.01 253.09 48.84 254.17 49.82 255.15 50.89 256.11 51.98 257.01 53.12 257.85 54.3 258.69 55.48 259.48 56.69 260.31 57.88 261.02 59.15 261.71 60.43 262.48 61.66 263.13 62.96 263.74 64.28 264.28 65.63 264.91 66.94 265.43 68.3 266.04 69.62 266.46 71.01 266.94 72.39 267.47 73.74 267.98 75.11 268.33 76.53"/><polygon class="cls-6" points="263.49 77.41 263.89 78.78 264.21 80.17 264.47 81.58 264.65 82.99 264.74 84.41 264.77 85.84 264.62 87.25 264.33 88.64 263.72 89.92 262.63 90.78 261.24 90.66 260.01 89.95 258.99 88.96 258.12 87.84 257.32 86.65 256.64 85.4 256.01 84.13 255.43 82.83 254.97 81.48 254.52 80.12 254.13 78.75 253.79 77.36 253.57 75.95 253.34 74.54 253.23 73.12 253.23 71.7 253.38 70.28 253.68 68.9 254.25 67.6 255.38 66.78 256.77 66.87 257.99 67.59 259 68.58 259.88 69.7 260.67 70.89 261.37 72.13 262 73.41 262.57 74.71 263.05 76.06 263.49 77.41"/><polyline class="cls-8" points="212.74 111.43 213.38 112.6 214.07 113.74 214.74 114.89 215.37 116.07 216.06 117.22 216.81 118.43 217.77 119.49 218.87 120.4 220.05 121.2 221.36 121.76 222.72 122.2 224.13 122.41 225.71 122.52 227.29 122.67 228.87 122.79 230.46 122.89 232.05 123.02 233.63 123.14 235.16 123.18 236.68 122.96 238.15 122.57 239.56 122 240.92 121.3 242.13 120.37 243.25 119.32 244.16 118.1 244.97 116.8 245.59 115.4 246.11 113.93 246.62 112.45 247.15 110.97"/><polygon class="cls-3" points="153.33 130.98 153.34 131.02 151.88 131.13 150.41 131.05 148.95 131.12 147.5 130.9 146.05 130.72 144.63 130.35 143.21 130 141.8 129.6 140.48 128.96 139.15 128.37 137.82 127.74 136.58 126.96 135.4 126.11 134.21 125.25 133.19 124.19 132.13 123.19 131.12 122.14 130.16 121.04 129.26 119.89 128.52 118.62 127.78 117.36 127.08 116.08 126.6 114.69 125.96 113.37 125.57 111.96 125.28 110.53 125 109.09 124.87 107.64 124.58 106.22 124.53 104.78 124.31 103.35 124.21 101.92 124 100.49 123.85 99.06 123.84 97.61 123.71 96.17 123.48 94.75 123.42 93.31 123.19 91.88 123.14 90.44 122.91 89.01 122.79 87.58 122.62 86.14 122.51 84.7 122.29 83.28 122.22 81.83 122.12 80.39 121.96 78.94 121.76 77.49 121.72 76.03 121.83 74.57 121.95 73.11 122.17 71.66 122.47 70.23 122.9 68.83 123.38 67.45 123.96 66.11 124.57 64.79 125.23 63.48 126.01 62.25 126.83 61.05 127.64 59.82 128.67 58.78 129.69 57.74 130.77 56.75 131.9 55.83 133.02 54.9 134.3 54.18 135.56 53.44 136.82 52.71 138.16 52.12 139.53 51.6 140.94 51.23 142.34 50.81 143.79 50.57 145.24 50.35 145.24 50.37 146.71 50.37 148.16 50.33 149.62 50.41 151.08 50.48 152.53 50.7 153.96 50.99 155.38 51.33 156.77 51.81 158.1 52.41 159.46 52.97 160.74 53.68 161.95 54.51 163.19 55.28 164.37 56.14 165.48 57.1 166.52 58.13 167.53 59.19 168.46 60.32 169.33 61.5 170.15 62.72 170.78 64.04 171.51 65.31 171.99 66.69 172.59 68.03 173.04 69.42 173.39 70.84 173.66 72.28 173.72 73.75 174 75.17 174.15 76.6 174.19 78.04 174.43 79.47 174.43 80.91 174.59 82.35 174.8 83.77 174.92 85.21 175.02 86.65 175.22 88.08 175.4 89.51 175.58 90.93 175.71 92.37 175.84 93.81 176.01 95.24 176.1 96.68 176.17 98.13 176.37 99.56 176.55 101 176.69 102.44 176.7 103.9 176.78 105.36 176.81 106.83 176.64 108.28 176.31 109.71 176.03 111.14 175.75 112.58 175.23 113.95 174.62 115.28 174.08 116.64 173.39 117.93 172.63 119.18 171.75 120.35 170.91 121.55 169.97 122.67 168.96 123.72 167.83 124.66 166.75 125.65 165.57 126.51 164.34 127.31 163.09 128.07 161.73 128.62 160.42 129.27 159.02 129.7 157.63 130.14 156.21 130.46 154.78 130.76 153.33 130.98"/><polygon class="cls-4" points="171.06 102.34 171.17 103.8 171.14 105.26 170.94 106.7 170.55 108.11 170.01 109.47 169.35 110.76 168.53 111.97 167.57 113.07 166.51 114.06 165.34 114.93 164.07 115.64 162.75 116.26 161.35 116.65 159.92 116.94 158.47 117.06 157.02 117 155.58 116.8 154.18 116.41 152.81 115.91 151.53 115.21 150.33 114.39 149.22 113.45 148.2 112.4 147.36 111.22 146.63 109.96 146.05 108.63 145.62 107.24 145.33 105.81 146.76 105.63 148.18 105.4 149.62 105.26 151.04 105.02 152.47 104.87 153.9 104.65 155.33 104.46 156.75 104.27 158.18 104.09 159.61 103.91 161.04 103.7 162.47 103.52 163.9 103.31 165.33 103.11 166.76 102.94 168.19 102.75 169.63 102.53 171.06 102.34"/><polygon class="cls-3" points="126.04 101.8 124.6 101.67 123.2 101.31 121.9 100.69 120.73 99.86 119.7 98.85 118.87 97.67 118.28 96.36 117.91 94.97 117.78 93.54 117.89 92.1 118.28 90.72 118.87 89.41 119.7 88.23 120.73 87.22 121.91 86.39 123.2 85.78 124.6 85.42 126.03 85.28 126.01 86.78 126.02 88.28 126.05 89.78 126.03 91.28 126.03 92.78 126.03 94.28 126.03 95.78 126.03 97.28 126.03 98.78 126.05 100.29 126.04 101.8"/><polygon class="cls-4" points="120.63 79.77 120.51 81.28 120.74 82.78 120.86 84.29 121.33 85.73 121.88 87.14 122.63 88.45 123.12 89.9 123.93 91.18 124.86 92.38 125.92 93.44 126.91 94.54 128.41 94.78 129.71 94.46 129.8 93.02 129.7 91.59 129.58 90.17 129.62 88.73 129.4 87.3 129.51 85.87 129.41 84.43 129.12 83.01 129.15 81.56 129.12 80.13 129.1 78.69 129.08 77.25 128.97 75.82 128.94 74.38 128.69 72.96 128.85 71.56 130.12 70.85 131.37 70 132.74 69.36 134.17 68.88 135.52 68.23 136.9 67.65 138.32 67.14 139.76 66.73 141.2 66.26 142.65 65.87 144.11 65.51 145.61 65.32 147.09 65.12 148.6 65 150.09 64.73 151.59 64.92 153.09 65 154.54 65.06 155.98 65.3 157.42 65.47 158.86 65.69 160.32 65.68 161.75 65.96 163.19 66.14 164.63 66.34 166.09 66.23 167.54 66.37 169 66.34 170.42 66.05 171.8 65.59 173.03 64.84 174.19 63.97 174.89 62.7 175.69 61.48 175.99 60.03 176.48 58.66 176.65 57.21 176.73 55.76 176.75 54.31 176.74 52.85 176.65 51.38 176.12 50.02 175.77 48.59 175.01 47.34 174.26 46.1 173.41 44.92 172.44 43.85 171.26 42.99 170.03 42.23 168.75 41.6 167.35 41.3 165.97 40.9 164.54 40.8 163.11 40.74 161.68 40.47 160.24 40.63 158.81 40.54 157.37 40.61 155.92 40.53 154.49 40.72 153.06 40.93 151.62 40.94 150.18 41.05 148.76 41.28 147.33 41.47 145.9 41.6 144.47 41.8 143.02 41.77 141.62 42.13 140.35 42.82 139.15 43.62 137.95 44.4 136.65 45.02 135.43 45.79 134.2 46.52 132.87 47.09 131.73 48 130.48 48.71 129.19 49.36 127.95 50.09 126.61 50.66 125.53 51.66 124.19 52.24 123.6 53.63 122.82 54.92 122.1 56.24 121.47 57.61 120.58 58.84 119.8 60.13 119.19 61.51 118.45 62.83 117.75 64.18 117.98 65.61 118.28 67.01 118.47 68.43 118.8 69.84 118.99 71.26 119.35 72.66 119.43 74.11 119.64 75.54 119.98 76.94 120.32 78.34 120.63 79.77"/><polygon class="cls-3" points="218.69 115.55 217.96 116.8 217.38 118.13 216.98 119.51 216.71 120.93 216.71 122.38 216.89 123.81 217.19 125.29 217.72 126.7 218.52 127.89 219.68 128.73 221.07 129.1 222.49 128.89 223.28 128.4 223.71 127.23 223.57 125.97 223.28 124.73 223.44 126.22 223.93 127.63 225.12 128.41 226.62 128.47 228.1 128.62 229.59 128.75 231.07 128.9 232.57 129.03 234.06 129.16 235.56 129.28 237.05 129.34 238.49 129.16 239.88 128.73 241.04 127.85 241.61 126.57 241.54 125.19 241.38 123.82 241.27 122.43 241.22 121.05 241.35 119.67 241.62 118.31 242.04 117.11 242.35 115.88 242.56 114.64 241.05 114.22 239.52 113.9 237.97 113.71 236.57 113.81 235.19 114.07 233.82 114.34 232.46 114.64 231.11 114.26 229.74 113.98 228.36 113.78 226.96 113.75 225.67 113.79 224.41 114.05 223.29 114.65 221.68 114.42 220.06 114.67 218.69 115.55"/><polygon class="cls-9" points="193.3 98.92 192.87 97.57 192.54 96.19 192.25 94.8 191.94 93.41 191.72 92.01 191.5 90.6 191.43 89.19 191.35 87.77 191.33 86.35 191.4 84.93 191.56 83.52 191.87 82.14 192.38 80.81 191.05 81.53 189.69 82.17 188.38 82.88 187.06 83.57 185.7 84.19 184.37 84.86 183.18 85.61 182.47 86.84 182.01 88.18 181.72 89.57 181.58 90.98 181.59 92.41 181.63 93.83 181.81 95.23 181.99 96.64 182.2 98.05 182.48 99.45 182.88 100.82 183.21 102.21 183.71 103.54 184.17 104.89 184.68 106.22 185.27 107.51 185.87 108.8 186.57 110.04 187.26 111.29 188.06 112.46 188.96 113.57 189.95 114.59 191.07 115.46 192.37 116.03 193.77 116 195.12 115.81 196.48 115.7 197.84 115.5 199.2 115.39 200.55 115.17 201.91 115.05 203.28 114.9 202 114.14 200.89 113.16 199.85 112.11 198.92 110.96 198.1 109.72 197.35 108.44 196.63 107.15 195.93 105.85 195.33 104.49 194.74 103.13 194.19 101.75 193.73 100.34 193.3 98.92"/><polygon class="cls-1" points="350.99 72 350.91 73.47 350.72 74.94 350.42 76.39 349.95 77.79 349.33 79.14 348.61 80.43 347.78 81.65 346.83 82.79 345.76 83.81 344.66 84.79 343.43 85.61 342.14 86.35 340.77 86.9 339.39 87.42 337.94 87.71 336.48 87.96 335 88.02 333.52 87.94 332.06 87.71 330.61 87.42 329.23 86.9 327.86 86.33 326.56 85.63 325.34 84.79 324.22 83.82 323.18 82.78 322.24 81.64 321.38 80.44 320.69 79.13 320.08 77.78 319.63 76.38 319.26 74.94 319.07 73.48 319.03 72 319.07 70.52 319.3 69.06 319.58 67.61 320.1 66.23 320.66 64.86 321.37 63.56 322.25 62.37 323.17 61.21 324.2 60.15 325.36 59.23 326.56 58.37 327.88 57.7 329.22 57.07 330.62 56.59 332.06 56.28 333.52 56.04 335 55.97 336.48 56.05 337.94 56.25 339.37 56.63 340.79 57.06 342.13 57.67 343.42 58.41 344.64 59.23 345.79 60.17 346.82 61.22 347.75 62.37 348.59 63.59 349.31 64.88 349.92 66.22 350.39 67.62 350.74 69.06 350.92 70.53 350.99 72"/><polygon class="cls-5" points="301.88 55.56 300.45 55.18 299.03 54.84 297.62 54.48 296.21 54.12 294.8 53.74 293.38 53.38 291.97 53.02 290.55 52.66 289.13 52.3 287.71 51.97 286.29 51.61 284.88 51.22 283.46 50.87 283.81 49.45 284.17 48.04 284.54 46.62 284.89 45.21 285.27 43.8 285.59 42.38 285.95 40.96 286.34 39.55 286.71 38.14 287.05 36.72 287.43 35.3 287.76 33.87 288.14 32.46 289.55 32.82 290.96 33.17 292.38 33.53 293.79 33.9 295.2 34.24 296.63 34.59 298.03 34.97 299.45 35.32 300.87 35.68 302.28 36.06 303.7 36.41 305.12 36.79 306.54 37.13 306.2 38.55 305.81 39.96 305.47 41.38 305.1 42.79 304.76 44.2 304.39 45.62 304.02 47.03 303.66 48.45 303.31 49.87 302.97 51.29 302.59 52.7 302.24 54.13 301.88 55.56"/><path class="cls-10" d="M13.5,277.62c.49,0,.49.16,1,.16s.49,0,1,0,.49.12,1,.12.49-.34,1-.34.49,0,1,0,.49-.4,1-.4.49.35,1,.35.49.32,1,.32.49,0,1,0,.49-.51,1-.51.49,0,1,0,.49.12,1,.12.49,0,1,0,.49.26,1,.26.49-.34,1-.34.49.39,1,.39.49-.17,1-.17.49,0,1,0,.49-.16,1-.16.49.45,1,.45.49-.37,1-.37.49.26,1,.26.49.14,1,.14.49-.09,1-.09.49-.06,1-.06.49-.46,1-.46.49.34,1,.34.49-.15,1-.15.49,0,1,0,.49-.26,1-.26.49.3,1,.3.49-.14,1-.14.49.31,1,.31.49-.57,1-.57.49.72,1,.72.49-.53,1-.53.49-.09,1-.09.49,0,1,0,.49.16,1,.16.49,0,1,0,.49.1,1,.1.49,0,1,0,.49-.19,1-.19.49,0,1,0,.49,0,1,0,.49.07,1,.07.49.16,1,.16.49-.14,1-.14.49-.27,1-.27.49.47,1,.47.49-.32,1-.32.49-.3,1-.3.49.42,1,.42.49.23,1,.23.49-.24,1-.24.49.2,1,.2.49-.55,1-.55.49.11,1,.11.49-.11,1-.11h1c.49,0,.49.61,1,.61s.49-.52,1-.52.49.07,1,.07.49.42,1,.42.49-.08,1-.08.49-.08,1-.08.49-.4,1-.4.49,0,1,0,.49.37,1,.37.49-.18,1-.18.49.23,1,.23.49-.47,1-.47.49.1,1,.1.49.26,1,.26.49,0,1,0,.49-.3,1-.3.49,0,1,0,.49-.09,1-.09l1,0c.49,0,.49-.09,1-.09l1,0c.49,0,.49.65,1,.65s.49,0,1,0,.49-.17,1-.17.49-.27,1-.27.49.14,1,.14.49,0,1,0,.49.24,1,.24.49.17,1,.17.49-.18,1-.18.49-.47,1-.47.49.61,1,.61.49-.29,1-.29l1,0c.49,0,.49.24,1,.24s.49,0,1,0,.49-.17,1-.17h1c.49,0,.49.25,1,.25s.49-.12,1-.12.49-.39,1-.39.49.12,1,.12h1c.49,0,.49-.27,1-.27s.49.16,1,.16.49.25,1,.25h1c.49,0,.49-.44,1-.44s.49.19,1,.19.49.54,1,.54.49-.64,1-.64.49.58,1,.58.49-.5,1-.5.49-.07,1-.07.49.3,1,.3.49,0,1,0,.49-.32,1-.32.49.39,1,.39.49,0,1,0,.49-.07,1-.07.49.29,1,.29.49-.42,1-.42.49-.08,1-.08.49.24,1,.24.49,0,1,0,.49-.17,1-.17l1,0c.49,0,.49-.26,1-.26s.49.58,1,.58.49-.14,1-.14.49-.08,1-.08.49.21,1,.21h1c.49,0,.49-.11,1-.11s.49.16,1,.16.49-.54,1-.54.49.19,1,.19.49.21,1,.21.49.19,1,.19.49-.63,1-.63.49.4,1,.4.49-.17,1-.17.49.26,1,.26.49-.22,1-.22.49-.28,1-.28.49,0,1,0,.49,0,1,0,.49,0,1,0,.49-.1,1-.1h1c.49,0,.49.53,1,.53h1c.49,0,.49,0,1,0s.49-.39,1-.39.49,0,1,0,.49.56,1,.56.49,0,1,0,.49-.08,1-.08.49-.13,1-.13.49-.46,1-.46.49.2,1,.2.49.48,1,.48.49-.7,1-.7.49.63,1,.63.49-.1,1-.1.49-.32,1-.32.49.3,1,.3.49-.13,1-.13.49-.17,1-.17.49.41,1,.41.49-.62,1-.62.49.45,1,.45.49-.49,1-.49.49.23,1,.23.49,0,1,0,.49,0,1,0,.49.41,1,.41.49-.22,1-.22.49-.28,1-.28.49.15,1,.15.49-.25,1-.25.49.32,1,.32.49.17,1,.17.49-.26,1-.26.49-.21,1-.21.49.26,1,.26.49-.21,1-.21.49.34,1,.34.49-.3,1-.3.49.52,1,.52.49,0,1,0l1,0c.49,0,.49-.59,1-.59h1c.49,0,.49.29,1,.29s.49.11,1,.11.49-.36,1-.36.49.14,1,.14.49-.21,1-.21.49-.06,1-.06.48.69,1,.69.48-.25,1-.25.48-.23,1-.23.48.53,1,.53.48-.18,1-.18.48-.2,1-.2.48.21,1,.21h1c.48,0,.48-.44,1-.44s.48.31,1,.31.48-.37,1-.37.48.44,1,.44.49-.23,1-.23.49-.2,1-.2.49.4,1,.4.49.1,1,.1.49.13,1,.13.49-.29,1-.29.49-.06,1-.06.49,0,1,0,.49,0,1,0,.49-.29,1-.29.49.16,1,.16.49.44,1,.44.49-.58,1-.58.49.36,1,.36.49,0,1,0,.49,0,1,0h1c.49,0,.49-.23,1-.23s.49-.06,1-.06.49.28,1,.28.49-.42,1-.42.49.18,1,.18.49.31,1,.31.49-.37,1-.37.49.38,1,.38.49-.33,1-.33.49-.21,1-.21.49.27,1,.27.49.1,1,.1.49-.12,1-.12.49-.26,1-.26.49.41,1,.41.49.25,1,.25.49,0,1,0,.49-.59,1-.59.49.58,1,.58.49-.48,1-.48.49,0,1,0,.49,0,1,0,.49.62,1,.62.49-.42,1-.42.49.19,1,.19.49.1,1,.1.49.14,1,.14.49-.34,1-.34.49-.15,1-.15.49-.1,1-.1.49.12,1,.12.49,0,1,0,.49.16,1,.16.49.28,1,.28.49-.7,1-.7.49.54,1,.54.49.05,1,.05.49-.34,1-.34.49.11,1,.11.49,0,1,0,.49.33,1,.33.49-.27,1-.27.49-.18,1-.18.49.19,1,.19.49-.17,1-.17.49-.22,1-.22.49.39,1,.39.49-.32,1-.32.49.24,1,.24.49.33,1,.33.49,0,1,0h1c.49,0,.49-.57,1-.57s.49-.09,1-.09.49.62,1,.62.49-.45,1-.45.49.25,1,.25.49-.17,1-.17.49.06,1,.06h1c.49,0,.49-.14,1-.14s.49.17,1,.17.49-.16,1-.16.49-.07,1-.07l1,0c.49,0,.49.07,1,.07s.49,0,1,0,.49-.15,1-.15h1c.49,0,.49-.07,1-.07s.49.72,1,.72h1c.49,0,.49-.63,1-.63s.49,0,1,0h1c.49,0,.49,0,1,0s.49.09,1,.09.49-.07,1-.07.49.07,1,.07.49,0,1,0,.49.07,1,.07.49,0,1,0,.49.38,1,.38.49-.44,1-.44.49.27,1,.27.49.23,1,.23.49-.14,1-.14.49.16,1,.16.49-.25,1-.25.49-.09,1-.09.49-.27,1-.27.49.09,1,.09.49.38,1,.38.49.16,1,.16l1,0c.49,0,.49-.34,1-.34s.49.27,1,.27.49-.22,1-.22.49-.42,1-.42.49.21,1,.21.49.06,1,.06l1,0c.49,0,.49.27,1,.27s.49-.52,1-.52.49.45,1,.45.49.14,1,.14h1.94c.49,0,.49,0,1,0s.49.07,1,.07.49,0,1,0h1c.49,0,.49-.21,1-.21s.49-.39,1-.39.49.69,1,.69.49-.34,1-.34.49.3,1,.3.49-.35,1-.35.49-.18,1-.18.49.59,1,.59.49-.57,1-.57.49.59,1,.59.49-.47,1-.47h2c.49,0,.49.36,1,.36h1c.49,0,.49-.36,1-.36s.49-.11,1-.11.49.34,1,.34.49-.32,1-.32.49.34,1,.34.49-.43,1-.43.49.61,1,.61.49-.08,1-.08.49,0,1,0,.49-.14,1-.14.49-.36,1-.36.49-.11,1-.11.49.63,1,.63.49-.47,1-.47.49-.16,1-.16.49.72,1,.72.49-.53,1-.53.49-.19,1-.19.49.59,1,.59.49.09,1,.09.49,0,1,0,.49-.31,1-.31.49.31,1,.31.49-.16,1-.16.49-.26,1-.26.49.09,1,.09.49.37,1,.37"/></svg>
