<svg id="illustrations" xmlns="http://www.w3.org/2000/svg" viewBox="0 0 400 288"><defs><style>.cls-1,.cls-10,.cls-11,.cls-12,.cls-7{fill:none;stroke-miterlimit:10;}.cls-1{stroke:#57deb7;}.cls-1,.cls-10,.cls-11,.cls-7{stroke-width:2px;}.cls-2{fill:#f37f82;}.cls-3{fill:#997137;}.cls-4{fill:#081d4c;}.cls-5{fill:#7f5d2f;}.cls-6{fill:#e5ac51;}.cls-7{stroke:#3e82f7;}.cls-8{fill:#cccac2;}.cls-9{fill:#e2dfd6;}.cls-10{stroke:#fbc357;}.cls-11{stroke:#081d4c;}.cls-12{stroke:#e2dfd6;stroke-width:3px;}</style></defs><title>illustration-home-analyze</title><polyline class="cls-1" points="134 222.94 135.47 222.85 136.94 222.83 138.41 222.98 139.89 223.11 141.36 223.17 142.83 222.93 144.3 222.96 145.77 222.78 147.24 222.78 148.71 222.77 150.18 223.03 151.65 223.09 153.12 222.94 154.59 222.96 156.05 222.89 157.52 222.89 158.99 222.9 160.46 222.97 161.92 222.82 163.39 223.23 164.86 223.01 166.33 222.93 167.8 222.78 169.26 223.02 170.73 223.1 172.2 223.14 173.68 222.82 175.15 223 176.62 222.93 178.09 223.02 179.57 222.88 181.04 222.95 182.51 223.06 183.98 222.98 185.46 222.96 186.93 222.81 188.4 223.15 189.87 223.08 191.34 223.05 192.81 223.01 194.28 222.84 195.75 223.04 197.22 223.02 198.69 223.07 200.16 223.09 201.63 222.79 203.1 223.12 204.58 223.24 206.05 223.13 207.53 223.23 209 223 210.47 223.07 211.94 222.93 213.41 223.01 214.89 223.22 216.36 223.23 217.83 222.89 219.3 223.08 220.77 222.85 222.25 222.78 223.72 223 225.19 222.88 226.67 222.99 228.14 223.17 229.62 222.81 231.09 223.03 232.56 223.23 234.03 223.01 235.51 223.04 236.98 222.99 238.46 222.79 239.93 223.04 241.41 222.85 242.88 223.12 244.35 223.17 245.83 222.83 247.3 222.88 248.78 222.91 250.25 222.82 251.73 223.06 253.2 223.14 254.67 223.19 256.15 223.1 257.62 222.94 259.1 223.06 260.57 223.19 262.04 223.2 263.51 222.8 264.98 222.87 266.46 222.91 267.94 222.97 269.41 222.96 270.88 222.98 272.35 222.76 273.82 222.96 275.3 222.9 276.78 223.01 278.25 222.84 279.73 223.1 281.2 223.23 282.68 222.84 284.15 222.82 285.63 222.91 287.11 223.12 288.58 223.11 290.06 222.82 291.54 223.23 293.02 223.01 294.5 223.09 295.97 223.12 297.44 223.13 298.93 222.98 300.4 222.98 301.88 222.97 303.36 223.23 304.84 223.04 306.32 222.91 307.81 222.81 309.29 223.17 310.79 222.92 312.3 222.67 313.56 221.79 314.78 220.94 315.98 220 316.63 218.62 317.18 217.24 317.7 215.86 318.37 214.52 318.6 213.03 319.04 211.62 319.68 210.28 320.12 208.87 320.7 207.5 321.17 206.1 321.73 204.72 322.34 203.37 322.78 201.95 323.06 200.48 323.64 199.11 324.25 197.75 324.6 196.31 325.06 194.9 325.62 193.52 325.81 192.02 326.41 190.65 327.19 189.35 327.53 187.9 327.95 186.48 328.38 185.06 328.83 183.65 329.36 182.26 329.93 180.88 330.21 179.41 330.92 178.08 331.12 176.58 331.81 175.24 332.18 173.79 333.14 172.83 334.13 171.86 335.53 171.94 336.63 172.69 337.68 173.57 338.29 174.89 338.8 176.25 339.18 177.67 339.98 178.91 340.55 180.25 340.99 181.64 341.72 182.91 342.14 184.31 342.57 185.71 343.33 186.96 343.81 188.34 344.39 189.67 344.83 191.07 345.55 192.35 346.16 193.68 346.5 195.12 347.46 196.15 348.55 196.92 349.78 197.58 351.15 197.35 352.55 197.1 353.48 196.03 354 194.78 354.84 193.53 355.03 192.04 355.51 190.66 355.99 189.27 356.65 187.96 357.12 186.57 357.84 185.28 358.28 183.88 358.62 182.46 359.33 181.16 359.5 179.66 360.12 178.33 360.48 176.9 361.11 175.57 361.81 174.27 362.14 172.83 362.92 171.56 363.17 170.09 363.74 168.74 364.43 167.42 364.91 166.04 365.23 164.6 365.92 163.29 366.08 161.78 366.87 160.51 367.44 159.16 367.86 157.75 368.2 156.31 368.83 154.98 369.27 153.57 369.57 152.12 370.37 150.84 370.61 149.37 371.2 148.03 371.91 146.72 372.1 145.23 372.69 143.88 373.37 142.56 373.69 141.11 374.39 139.8 375 138.45 375.22 136.96"/><polygon class="cls-1" points="384.98 131.61 384.66 133.15 384.02 134.58 383.08 135.84 381.86 136.82 380.47 137.54 378.96 137.95 377.39 137.97 375.85 137.66 374.42 137.03 373.18 136.07 372.17 134.86 371.44 133.48 371.06 131.96 371.04 130.39 371.34 128.85 371.98 127.42 372.94 126.18 374.14 125.17 375.52 124.44 377.04 124.06 378.61 124.03 380.15 124.34 381.58 124.98 382.82 125.94 383.83 127.13 384.54 128.53 384.94 130.04 384.98 131.61"/><polygon class="cls-2" points="258.01 142.41 259.38 143.03 260.69 143.71 261.96 144.48 263.36 144.98 264.62 145.77 265.97 146.38 267.38 146.84 268.63 147.66 270.07 148.07 271.33 148.86 272.68 149.45 274.08 149.95 275.34 150.75 276.66 151.4 278.06 151.9 279.34 152.64 280.71 153.21 282.08 153.78 283.32 154.61 284.71 155.13 286.06 155.73 287.46 156.22 288.67 157.13 290.11 157.54 291.32 158.44 292.75 158.88 293.98 159.75 295.41 160.21 296.72 160.9 297.93 161.8 299.39 162.2 300.65 163 302.07 163.49 303.33 164.28 304.7 164.88 305.96 165.67 307.3 166.31 308.65 166.94 309.97 167.6 311.22 168.41 312.59 168.99 313.88 169.72 315.19 170.42 316.29 171.48 317.62 172.13 318.91 172.86 320.29 173.43 321.47 174.34 322.67 175.21 323.9 176.02 324.98 177.02 325.87 178.17 326.73 179.36 327.16 180.78 327.72 182.13 328.4 183.43 328.75 184.85 329.47 186.15 329.89 187.55 330.46 188.9 330.85 190.31 331.25 191.72 331.56 193.15 331.87 194.59 332.28 195.99 332.65 197.41 333.08 198.81 333.42 200.23 334.04 201.58 334.42 202.99 334.61 204.46 335 205.87 335.22 207.32 335.77 208.69 336.18 210.09 336.44 211.53 336.68 212.97 337.07 214.38 337.58 215.76 337.97 217.17 338.02 218.66 338.39 220.07 338.6 221.52 339.3 222.87 339.56 224.31 339.89 225.74 339.99 227.22 340.47 228.61 340.89 230.03 340.91 231.53 341.26 232.95 341.74 234.35 341.96 235.8 342.25 237.24 342.39 238.71 342.76 240.13 343.36 241.5 343.29 243.01 343.62 244.44 343.9 245.88 344.55 247.24 344.5 248.74 345.08 250.12 345.23 251.58 345.48 253.03 345.97 254.42 345.93 255.92 346.32 257.34 346.84 258.73 347.11 260.17 347.15 261.66 347.57 263.07 347.88 264.5 348.2 265.92 348.36 267.39 348.45 268.87 349.06 270.24 349.08 271.72 349.57 273.12 349.87 274.54 349.93 275.81 348.53 275.99 347.07 275.92 345.6 275.83 344.13 276.13 342.67 276.08 341.2 275.96 339.73 276.04 338.27 275.94 336.8 275.88 335.34 276.17 333.87 275.95 332.41 275.83 330.94 275.96 329.48 276.15 328.01 276.06 326.55 276.2 325.09 276.01 323.62 275.92 322.16 276.14 320.69 275.88 319.23 276.18 317.76 276.05 316.29 275.92 314.83 275.81 313.36 276.09 311.9 275.87 310.43 276.01 308.97 275.87 307.5 275.85 306.04 275.87 304.58 275.83 303.12 275.81 301.65 276.05 300.19 275.91 298.73 276.16 297.27 276.02 295.81 275.87 294.34 275.95 292.88 276.18 291.42 276.13 289.96 275.9 288.49 276.19 287.03 275.84 285.56 276.14 284.1 276.07 282.63 275.81 281.17 275.93 279.7 275.97 278.23 275.84 276.76 276.03 275.3 276.06 273.83 275.81 272.36 275.82 270.9 275.98 269.44 276.02 267.97 275.83 266.51 276.11 265.04 275.9 263.58 276.1 262.11 275.81 260.65 276.11 259.18 275.91 257.72 275.86 256.25 275.94 254.78 276.07 253.32 276.1 251.85 275.92 250.38 276.05 248.91 275.82 247.44 275.89 245.98 276.02 244.51 275.99 243.05 276.16 241.58 275.91 240.11 276.04 238.65 275.82 237.18 275.91 235.71 275.91 234.25 276.04 232.78 276.11 231.31 275.82 229.84 276.09 228.37 275.97 226.9 275.91 225.44 275.82 223.97 276.07 222.5 275.98 221.03 275.87 219.57 276.02 218.1 276.08 216.63 275.81 215.16 276.11 213.69 276.1 212.22 275.87 210.75 276 209.29 276.13 207.82 276.03 206.35 276.17 204.88 276.04 203.41 276.19 201.94 276.17 200.47 276 199 275.96 197.54 276.17 196.07 276.05 194.61 276.08 193.14 275.91 191.67 276.03 190.2 275.82 188.73 276.14 187.27 275.88 185.8 276.07 184.33 276.12 182.86 275.96 181.39 275.81 179.92 276.18 178.45 275.89 176.98 275.96 175.51 276.12 174.04 275.88 172.57 276.02 171.1 275.89 169.63 276.18 168.16 276.09 166.68 275.83 165.21 275.88 163.74 275.86 162.27 276.14 160.8 275.87 159.33 276.17 157.86 275.88 156.38 276.05 154.91 276.1 153.43 275.8 151.96 275.82 150.48 275.93 148.87 276.1 149.22 274.55 149.65 273.14 150.21 271.78 150.6 270.37 150.97 268.96 151.22 267.51 151.7 266.13 151.93 264.68 152.51 263.31 152.74 261.86 153.29 260.49 153.57 259.05 154 257.65 154.4 256.25 154.56 254.78 155.11 253.41 155.41 251.97 155.86 250.58 156.17 249.15 156.59 247.74 157.01 246.34 157.05 244.84 157.64 243.49 158.06 242.09 158.31 240.65 158.6 239.22 159.03 237.82 159.26 236.36 159.69 234.96 160.06 233.55 160.62 232.18 161.09 230.8 161.42 229.37 161.57 227.89 161.86 226.46 162.47 225.1 162.92 223.71 163.09 222.24 163.66 220.87 163.83 219.4 164.1 217.96 164.49 216.54 165.03 215.17 165.5 213.78 165.77 212.33 166.26 210.94 166.64 209.52 166.85 208.07 167.35 206.68 167.69 205.25 167.9 203.79 168.28 202.37 168.75 200.98 169.31 199.61 169.44 198.12 169.97 196.74 170.32 195.3 170.53 193.84 171.03 192.46 171.77 191.18 172.4 189.87 172.95 188.51 173.84 187.34 174.56 186.08 175.28 184.79 176.37 183.8 177.22 182.6 178.29 181.6 179.3 180.54 180.53 179.73 181.61 178.74 182.92 178.06 184.14 177.26 185.17 176.19 186.41 175.41 187.55 174.5 188.75 173.68 190.05 172.98 191.13 172 192.4 171.28 193.57 170.42 194.64 169.4 195.81 168.54 197.13 167.88 198.38 167.12 199.4 166.03 200.77 165.43 201.93 164.55 202.94 163.46 204.18 162.68 205.38 161.86 206.69 161.18 207.88 160.33 209.09 159.5 210.14 158.46 211.46 157.8 212.47 156.7 213.77 156.01 214.95 155.15 216.19 154.36 217.32 153.43 218.39 152.41 219.66 151.67 220.97 150.99 222.13 150.1 223.28 149.19 224.52 148.42 225.62 147.43 226.76 146.51 228.06 145.82 229.15 144.81 230.5 144.18 231.69 143.34 232.8 142.36 233.96 141.36 235.49 141.66 237 141.46 238.5 141.62 240 141.66 241.49 142 242.99 141.99 244.48 142.12 245.99 141.87 247.49 141.94 248.98 142.27 250.48 142.28 251.99 142.11 253.48 142.49 254.99 142.25 256.49 142.59 258.01 142.41"/><path class="cls-3" d="M259.79,147.37c-4.27-5.13-5.13-24.78-5.13-24.78l-10.26-6-10.26,6s-.85,19.66-5.13,24.78,4.27,9.4,15.38,9.4S264.06,152.5,259.79,147.37Z"/><rect class="cls-3" x="231.81" y="88" width="25.19" height="61.08"/><path class="cls-3" d="M238.3,132.35h0a31.06,31.06,0,0,1-35.83-25.18L195.57,67.7a31.06,31.06,0,0,1,25.18-35.83h0A31.06,31.06,0,0,1,256.58,57l6.89,39.47C262.09,88.6,255.07,129.42,238.3,132.35Z"/><polygon class="cls-4" points="258.55 67.98 258.42 66.57 258.09 65.22 257.91 63.84 257.5 62.52 257.39 61.13 256.83 59.82 257.03 58.38 256.7 57.02 256.18 55.62 256 54.15 255.62 52.72 254.99 51.38 254.35 50.06 253.87 48.66 253.09 47.4 252.33 46.14 251.71 44.78 250.63 43.76 249.94 42.42 248.86 41.4 247.73 40.45 246.61 39.49 245.58 38.44 244.38 37.6 243.29 36.58 242.05 35.79 240.72 35.15 239.39 34.51 238.09 33.81 236.64 33.48 235.34 32.73 233.94 32.24 232.45 32.12 231.03 31.7 229.57 31.47 228.1 31.37 226.62 31.46 225.14 31.33 223.67 31.45 222.21 31.71 220.76 31.98 220.72 31.71 219.29 32.21 217.84 32.6 216.4 33.01 214.91 33.3 213.52 33.88 212.13 34.48 210.82 35.22 209.53 36.02 208.5 37.17 207.02 37.68 205.9 38.71 204.96 39.9 203.72 40.76 202.71 41.89 201.85 43.13 200.88 44.27 200.13 45.59 199.23 46.79 198.69 48.2 198.02 49.54 197.46 50.92 196.84 52.27 198.25 51.92 199.72 51.89 201.16 51.61 202.61 51.41 204.01 50.9 205.51 50.99 206.91 50.53 208.37 50.35 209.8 50.05 211.23 49.65 212.67 49.44 214.14 49.34 215.55 48.85 217 48.63 218.48 48.62 219.88 48.15 221.37 48.09 222.8 47.78 224.24 47.55 225.68 47.25 227.13 47.01 228.56 46.72 230.04 46.6 231.48 46.31 232.93 46.07 234.37 45.77 235.78 45.55 236.62 46.71 237.74 47.66 238.53 48.91 239.55 49.94 240.45 51.09 241.62 51.99 242.38 53.26 243.38 54.32 244.58 55.21 245.31 56.51 246.39 57.51 247.26 58.67 248.33 59.69 249.01 61.03 250.28 61.86 251.11 63.1 251.57 64.49 251.61 65.95 252.02 67.35 252.06 68.8 252.42 70.2 252.54 71.65 252.75 73.08 253.23 74.47 253.3 75.77 254.12 74.56 255.06 73.29 256 72.01 256.66 70.57 257.64 69.31 258.55 67.98"/><path class="cls-3" d="M254.72,66.54a8.5,8.5,0,0,1,2.92,16.75Z"/><polygon class="cls-1" points="205.63 76.13 205.8 77.52 205.77 78.92 205.6 80.31 205.2 81.66 204.61 82.93 203.82 84.08 202.81 85.05 201.63 85.79 200.29 86.18 198.89 86.27 197.53 85.97 196.25 85.41 195.12 84.58 194.13 83.59 193.32 82.45 192.66 81.22 192.18 79.9 191.84 78.54 191.68 77.14 191.69 75.74 191.91 74.36 192.29 73.01 192.88 71.74 193.66 70.58 194.66 69.61 195.87 68.89 197.19 68.47 198.59 68.4 199.96 68.67 201.23 69.26 202.37 70.08 203.34 71.09 204.17 72.21 204.82 73.45 205.31 74.77 205.63 76.13"/><polygon class="cls-1" points="226.34 72.51 226.48 73.91 226.45 75.31 226.28 76.7 225.89 78.05 225.31 79.32 224.52 80.48 223.5 81.44 222.31 82.18 220.97 82.57 219.58 82.65 218.21 82.37 216.94 81.78 215.81 80.96 214.83 79.97 214 78.84 213.34 77.61 212.87 76.29 212.53 74.92 212.36 73.53 212.39 72.13 212.58 70.74 212.98 69.4 213.55 68.12 214.35 66.97 215.35 65.99 216.54 65.26 217.88 64.86 219.28 64.8 220.65 65.06 221.92 65.64 223.06 66.46 224.05 67.45 224.85 68.6 225.51 69.84 226.01 71.15 226.34 72.51"/><polygon class="cls-3" points="304.02 271.02 304.66 269.71 305.52 268.54 306.06 267.2 306.62 265.87 307.12 264.51 307.35 263.08 307.81 261.69 307.76 260.23 308.07 258.8 307.98 257.36 307.95 255.91 307.82 254.48 307.68 253.05 307.64 251.6 307.29 250.19 306.94 248.8 306.83 247.35 305.88 246.21 304.65 245.41 303.46 244.53 302.09 243.97 300.77 243.32 299.46 242.64 298.12 242.02 296.69 241.63 295.42 240.84 294.06 240.27 292.59 239.97 291.26 239.31 289.82 238.97 288.42 238.49 287.02 238.02 285.65 237.48 284.26 237 282.85 236.55 281.53 235.87 280.09 235.52 278.67 235.11 277.25 234.72 275.82 234.33 274.42 233.86 273.04 233.34 271.6 232.97 270.25 232.35 268.82 232 267.43 231.51 265.94 231.34 264.56 230.8 263.12 230.43 261.73 229.92 260.31 229.5 258.82 229.34 257.4 228.91 255.98 228.49 254.62 227.88 253.11 227.76 251.72 227.22 250.26 226.95 248.83 226.58 247.42 226.12 246.01 225.65 244.53 225.46 243.08 225.16 241.67 224.7 240.27 224.2 238.81 223.92 237.34 223.72 235.95 223.15 234.49 222.9 233 222.75 231.59 222.26 230.16 221.9 228.68 221.76 227.24 221.44 225.83 220.95 224.34 220.84 222.9 220.51 221.43 220.38 219.99 220.04 218.58 219.65 217.1 219.69 215.67 219.44 214.23 219.28 212.81 218.91 211.35 218.89 209.9 218.74 208.44 218.66 206.99 218.59 205.55 218.36 204.09 218.43 202.64 218.39 201.19 218.41 199.74 218.5 198.29 218.58 196.82 218.44 195.38 218.64 193.94 218.82 192.54 219.24 191.09 219.38 189.72 219.83 188.56 220.37 187.55 221.15 186.43 222.05 185.37 223.02 184.48 224.18 183.23 224.95 182.23 225.99 181.26 227.06 180.15 227.98 179.09 228.96 177.96 229.86 176.89 230.83 175.96 231.95 174.77 232.81 173.72 233.81 172.72 234.85 171.53 235.7 170.59 236.81 169.55 237.82 168.3 238.59 167.21 239.53 166.23 240.61 165.05 241.46 163.94 242.3 162.93 243.43 162.18 244.75 161.16 245.88 160.38 247.17 159.71 248.52 158.82 249.75 157.98 251 157.37 252.39 156.59 253.68 155.62 254.86 154.85 256.17 154.05 257.45 153.47 258.86 152.6 260.1 151.93 261.45 151.13 262.73 150.31 264 149.61 265.34 148.64 266.61 150.15 267.13 151.67 267.1 153.06 266.51 154.36 265.78 155.64 265.01 156.91 264.24 157.8 263.05 158.99 262.15 159.86 260.95 160.81 259.83 161.62 258.6 162.7 257.57 163.41 256.27 164.34 255.12 165.22 253.94 165.97 252.67 166.89 251.52 167.6 250.32 169.01 249.9 170.5 249.97 171.97 249.89 173.42 249.61 174.87 249.31 176.33 249.19 177.81 249.18 179.26 248.87 180.75 248.93 182.21 248.73 183.67 248.45 185.15 248.38 186.6 248.1 188.07 247.97 189.45 247.35 190.76 246.56 192.23 246.09 193.46 245.16 194.8 244.44 196.05 243.56 197.37 242.8 198.64 241.96 199.8 240.95 201.05 240.07 202.16 239.01 203.15 237.95 204.47 237.34 205.81 236.86 207.24 236.55 208.71 236.75 210.07 237.31 211.44 237.87 212.77 238.52 214.19 238.92 215.56 239.48 216.97 239.92 218.33 240.48 219.73 240.97 221.11 241.48 222.49 242.01 223.77 242.79 225.24 243.08 226.57 243.73 227.94 244.28 229.31 244.85 230.65 245.44 232.04 245.95 233.43 246.44 234.71 247.2 236.12 247.67 237.51 248.16 238.77 248.98 240.14 249.54 241.57 249.98 242.87 250.69 244.28 251.15 245.54 251.96 246.91 252.52 248.31 253.01 249.6 253.74 251 254.26 252.25 255.06 253.53 255.81 254.92 256.33 256.19 257.1 257.59 257.63 258.84 258.42 260.06 259.26 261.4 259.91 262.6 260.77 263.8 261.63 264.79 262.71 266.1 263.37 267.18 264.32 268.31 265.22 269.5 266.04 270.65 266.91 271.87 267.66 272.95 268.63 274.2 269.35 275.44 270.08 276.72 270.76 277.94 271.52 279.22 272.15 280.53 272.74 281.86 273.32 283.3 273.48 284.69 273.78 286.11 274.06 287.64 273.76 289.17 274.02 290.69 273.73 292.22 273.77 293.74 273.65 295.24 273.4 296.75 273.16 298.26 272.98 299.73 272.54 301.22 272.23 302.62 271.6 304.02 271.02"/><polyline class="cls-3" points="168.69 245.48 168.37 246.92 168 248.35 167.63 249.78 167.27 251.21 166.91 252.64 166.58 254.07 166.21 255.5 165.86 256.93 165.48 258.35 165.12 259.78 164.77 261.22 164.41 262.65 164.07 264.09 163.69 265.52 163.34 266.96 164.72 267.29 166.13 267.21 167.44 266.7 168.48 265.75 169.17 264.51 169.72 263.17 170.22 261.82 170.74 260.47 171.26 259.13 171.75 257.77 172.28 256.43 172.79 255.07 173.32 253.72 173.83 252.36 174.31 251 174.83 249.65 175.32 248.29 175.83 246.96 174.41 246.64 172.99 246.36 171.56 246.05 170.13 245.79 168.71 245.48"/><polygon class="cls-3" points="176.77 245.88 176.62 247.33 176.48 248.79 176.31 250.25 176.16 251.71 176.02 253.17 175.87 254.62 175.72 256.09 175.6 257.55 175.43 259.01 175.29 260.47 175.15 261.94 175 263.4 174.86 264.87 174.72 266.33 176.11 266.24 177.44 265.79 178.68 265.09 179.67 264.09 180.44 262.9 181 261.6 181.4 260.18 181.74 258.74 182.11 257.31 182.43 255.87 182.72 254.42 183.04 252.98 183.31 251.52 183.62 250.07 183.87 248.61 184.13 247.16 184.38 245.7 184.66 244.24 183.08 244.59 181.5 244.92 179.92 245.22 178.34 245.55 176.77 245.88"/><path class="cls-5" d="M214,236c-9-2-12-2-14,2-1.9,3.8-14.75,9.84-16.05,10.45l4.13-.45s9.58-4.25,14-9.1c3.26-3.26,6.61-2,6.61-2s29.3,10.62,46.24,19.47C245.91,249.94,222.86,238,214,236Z"/><path class="cls-6" d="M203.37,104.83a19,19,0,0,0,5.58.45,42.13,42.13,0,0,0,5.27-.59,52.16,52.16,0,0,0,5.2-1.12,31.47,31.47,0,0,0,5.33-2,9.41,9.41,0,0,1-4,4.82,15.5,15.5,0,0,1-5.89,2.21,14.92,14.92,0,0,1-6.31-.25A8.26,8.26,0,0,1,203.37,104.83Z"/><polygon class="cls-4" points="200.16 97.22 200.27 98.88 200.81 100.28 201.11 101.74 201.38 103.19 201.41 104.69 201.79 106.13 202.1 107.57 202.34 109.04 202.63 110.5 202.63 112 203.15 113.41 203.31 114.89 203.39 116.38 203.73 117.83 204.24 119.24 204.31 120.74 204.44 122.22 204.66 123.69 205.25 125.1 205.13 126.62 205.43 128.08 205.74 129.54 206.16 130.98 206.34 132.54 207.28 133.8 208.17 135.04 209.15 136.21 210.45 137.03 211.79 137.76 213.25 138.31 214.81 138.26 216.35 138.14 217.78 137.89 219.24 137.67 220.66 137.26 222.11 137 223.6 137 225.02 136.57 226.48 136.4 227.92 136.06 229.4 136.06 230.84 135.73 232.31 135.59 233.79 135.44 235.19 134.89 236.58 134.55 237.98 134.21 239.34 133.76 240.71 133.29 242.01 132.63 243.1 131.67 244.46 131.1 245.49 130.08 246.41 128.95 247.45 127.97 248.48 126.96 249.16 125.69 249.96 124.5 250.81 123.29 251.29 121.87 252.18 120.7 252.88 119.41 253.85 118.28 254.28 116.84 255.22 115.69 255.82 114.34 256.46 113.02 257.21 111.75 258.02 110.52 258.74 109.24 259.59 108.03 260.2 106.68 261.14 105.52 261.58 104.06 262.12 102.67 262.87 101.35 263.24 99.89 263.24 98.37 263.56 96.9 263.6 95.4 263.43 93.92 263.35 92.41 262.86 91.05 262.98 89.59 262.49 88.21 262.28 86.85 260.83 86.97 259.41 87.47 257.93 87.7 256.41 87.73 254.95 88.05 253.47 88.24 252 88.53 250.53 88.83 249.05 89.01 247.57 89.27 246.1 89.55 244.66 90.02 243.19 90.25 241.69 90.33 240.19 90.43 238.73 90.86 237.2 90.76 235.73 91.11 234.3 91.56 232.83 91.9 231.35 92.17 229.81 92.15 228.4 92.87 226.9 93.39 225.94 94.65 225.01 95.87 224.44 97.3 224.12 98.81 224.08 100.18 223.87 101.52 224.12 102.89 223.79 104.23 223.7 105.59 223.53 106.87 222.8 107.94 221.99 108.92 221.01 109.77 219.81 110.4 218.36 110.2 217 110.54 215.61 110.67 214.24 110.96 212.87 111.21 211.56 111.82 210.14 111.89 208.75 111.98 207.38 111.57 206.26 110.68 205.72 109.37 205.24 108 204.46 106.73 203.59 105.52 203.11 104.12 202.68 102.71 202.02 101.4 201.47 100.04 200.77 98.74 200.16 97.22"/><polygon class="cls-4" points="208.73 95.11 207.19 94.94 205.65 94.69 204.11 94.46 202.63 94.98 201.46 96.07 200.36 97.23 199.24 98.38 198.12 99.53 197.62 100.5 197.82 101.58 198.51 102.85 199.16 104.14 200.4 104.98 201.87 104.67 202.95 103.73 204.07 102.84 205.16 101.9 206.24 100.96 207.38 100.08 208.5 99.17 209.6 98.25 210.22 97.07 209.86 95.8 208.73 95.11"/><polygon class="cls-4" points="210.84 95.07 212.07 94.45 213.3 93.83 214.55 93.26 215.82 92.71 217.07 92.14 218.75 92.04 220.03 92.47 221.28 92.97 222.57 93.38 223.82 93.91 225.12 94.28 226.39 94.76 227.37 96.33 226.9 98.09 226.56 99.88 225.55 101 224.04 101.12 222.59 100.76 221.15 100.34 219.67 100.05 218.22 99.67 216.79 99.2 215.33 98.87 213.88 98.45 212.41 98.09 210.96 97.71 210 97.02 209.96 95.87 210.84 95.07"/><polygon class="cls-7" points="153.27 163.92 151.98 165.19 150.69 166.44 149.45 167.73 148.33 169.14 147 170.34 145.89 171.75 144.64 173.04 143.32 174.25 142.04 175.51 140.84 176.83 139.56 178.09 138.46 179.53 137.11 180.71 135.93 182.07 134.74 183.41 133.45 184.73 131.69 184.22 129.93 183.88 128.19 183.44 126.44 183.04 124.7 182.63 122.98 182.13 121.23 181.75 119.5 181.3 117.74 180.94 116.01 180.48 114.27 180.04 112.53 179.63 110.8 179.15 109.06 178.71 107.32 178.25 105.56 177.87 105.14 176.13 104.64 174.41 104.08 172.71 103.49 171.01 102.94 169.31 102.48 167.57 101.93 165.87 101.56 164.12 101.04 162.4 100.44 160.71 100.08 158.95 99.53 157.24 98.97 155.54 98.43 153.82 98.05 152.06 97.44 150.33 98.78 149.1 99.96 147.75 101.29 146.54 102.39 145.12 103.72 143.91 104.97 142.63 106.14 141.27 107.46 140.06 108.63 138.69 109.79 137.33 111.17 136.16 112.27 134.74 113.64 133.57 114.8 132.19 115.99 130.84 117.33 129.69 119.05 130.03 120.8 130.39 122.54 130.82 124.26 131.31 126.02 131.66 127.73 132.23 129.51 132.48 131.23 132.96 132.98 133.36 134.7 133.87 136.47 134.17 138.18 134.73 139.95 135.01 141.69 135.45 143.42 135.96 145.16 136.4 145.66 138.11 146.28 139.8 146.76 141.52 147.17 143.27 147.68 144.98 148.22 146.69 148.6 148.45 149.23 150.12 149.65 151.87 150.3 153.54 150.6 155.32 151.29 156.99 151.61 158.76 152.12 160.49 152.74 162.18 153.27 163.92"/><polygon class="cls-8" points="182.9 266.1 181.53 265.88 180.06 266.05 178.59 265.98 177.12 265.87 175.65 265.94 174.18 266.12 172.71 266.01 171.24 266 169.76 265.89 168.29 266.01 166.82 266.04 165.35 265.92 163.87 265.91 162.4 265.96 160.93 266.07 159.45 265.93 157.97 266.05 156.5 266.14 155.02 265.88 153.55 266.11 152.07 265.98 150.6 265.93 149.13 265.93 147.65 266.07 146.18 266.01 144.71 266.05 143.23 265.93 141.76 266.06 140.29 265.98 138.81 265.95 137.34 265.87 135.87 266 134.39 266.02 132.91 265.98 131.44 266.01 129.96 266.14 128.48 266.05 127.01 266 125.53 266.12 124.06 266.07 122.58 265.87 121.11 266.05 119.64 266.12 118.16 265.86 116.69 266 115.21 266 113.73 266.14 112.26 266.05 110.78 265.85 109.3 265.9 107.83 265.88 106.35 266.15 104.88 266.03 103.4 266.11 101.92 266.07 100.45 265.99 98.97 266.05 97.49 265.89 96.01 266.01 94.54 266 93.06 265.85 91.58 266.09 90.11 266.06 88.63 265.87 87.15 265.91 85.67 266.13 84.2 266.01 82.72 266.02 81.24 266.12 79.77 265.88 78.29 266 76.82 266.15 75.34 266.02 73.87 265.95 72.39 265.98 70.91 266.09 69.44 266.09 67.96 266.06 66.48 266.1 65.01 266.03 63.53 265.89 62.06 266.14 60.58 265.95 59.1 265.92 57.62 266.07 56.14 265.99 54.66 266.13 53.19 265.93 51.71 265.86 50.23 265.95 48.75 265.95 47.27 265.89 45.79 266.04 44.31 265.9 42.82 266.06 41.35 266.07 39.87 265.87 38.39 266.02 36.91 265.99 35.42 266.09 33.94 266.04 32.46 266.07 30.98 265.97 29.49 266.01 27.91 265.92 27.85 267.57 27.95 269.14 28.03 270.71 28.11 272.28 28.14 273.85 27.88 275.43 28.04 276.96 29.47 277.06 30.94 276.88 32.41 277.12 33.88 277.08 35.35 276.88 36.82 277.02 38.29 276.98 39.76 277.06 41.24 276.87 42.71 277.06 44.18 277.01 45.65 277.15 47.13 276.86 48.6 277.02 50.08 276.87 51.55 276.98 53.03 276.95 54.5 277.1 55.98 277.15 57.45 277.14 58.93 277.03 60.4 276.86 61.88 276.87 63.35 276.97 64.82 276.95 66.29 277.05 67.77 277.07 69.24 277.11 70.71 277.07 72.19 277.15 73.66 276.93 75.13 276.99 76.61 277.1 78.09 276.88 79.56 277.03 81.04 277.1 82.52 277.12 83.99 276.92 85.47 277 86.94 276.88 88.42 276.87 89.89 277.02 91.36 277.01 92.84 276.85 94.31 276.98 95.79 277.11 97.27 277.03 98.74 276.91 100.22 276.91 101.7 276.92 103.17 277.02 104.65 277.07 106.13 276.94 107.6 277.05 109.08 277.02 110.55 277.01 112.03 276.98 113.51 277.06 114.99 276.97 116.46 276.96 117.94 276.95 119.42 277.02 120.89 276.92 122.37 276.89 123.85 276.89 125.33 277.14 126.8 276.88 128.28 276.93 129.76 277.07 131.23 277.03 132.71 276.94 134.18 277.06 135.66 277.12 137.13 277.07 138.61 276.99 140.09 276.98 141.56 277.15 143.04 276.91 144.51 277.08 145.99 276.99 147.47 276.91 148.94 276.97 150.42 276.93 151.9 276.88 153.38 276.88 154.86 277.13 156.34 276.99 157.81 277.02 159.29 276.98 160.77 277.1 162.25 277.06 163.73 276.93 165.21 277.01 166.69 276.98 168.18 277.01 169.65 277.07 171.13 276.91 172.61 276.87 174.09 276.91 175.57 277.12 177.06 277.1 178.54 276.86 180.03 277.06 181.51 276.88 182.91 276.91 182.92 275.43 183 273.86 182.94 272.29 182.94 270.72 182.97 269.15 182.9 267.58 182.9 266.1"/><polygon class="cls-9" points="317.5 74.52 318.98 74.56 320.45 74.7 321.93 74.79 323.39 75.07 324.84 75.37 326.31 75.58 327.68 76.16 329.11 76.58 330.44 77.23 331.87 77.66 333.13 78.46 334.47 79.1 335.64 80.02 336.95 80.73 338.08 81.69 339.25 82.61 340.32 83.63 341.38 84.67 342.39 85.75 343.25 86.96 344.2 88.1 345.1 89.28 345.76 90.62 346.64 91.82 347.23 93.18 347.82 94.54 348.49 95.87 348.95 97.28 349.38 98.7 349.63 100.17 349.91 101.62 350.16 103.08 350.35 104.54 350.45 106.02 350.53 107.5 350.48 108.98 350.39 110.46 350.29 111.94 350 113.4 349.69 114.85 349.36 116.29 348.86 117.69 348.42 119.11 347.79 120.45 347.25 121.83 346.58 123.15 345.87 124.45 345 125.65 344.23 126.92 343.36 128.13 342.35 129.22 341.38 130.33 340.34 131.39 339.27 132.42 338.09 133.33 336.91 134.22 335.64 134.98 334.39 135.77 333.17 136.62 331.8 137.2 330.46 137.83 329.11 138.43 327.69 138.85 326.29 139.36 324.85 139.7 323.4 139.98 321.93 140.19 320.46 140.41 318.98 140.41 317.5 140.45 316.02 140.47 314.54 140.36 313.07 140.18 311.6 139.99 310.16 139.66 308.73 139.28 307.3 138.9 305.92 138.37 304.51 137.88 303.18 137.23 301.88 136.52 300.56 135.85 299.29 135.09 298.11 134.18 296.88 133.35 295.76 132.38 294.71 131.33 293.67 130.28 292.62 129.24 291.64 128.12 290.81 126.89 289.87 125.73 289.14 124.44 288.53 123.09 287.84 121.78 287.1 120.5 286.54 119.12 286.12 117.7 285.67 116.28 285.25 114.86 284.95 113.41 284.72 111.94 284.66 110.46 284.47 108.98 284.52 107.5 284.48 106.02 284.68 104.55 284.91 103.08 285.09 101.62 285.34 100.16 285.74 98.73 286.12 97.3 286.63 95.91 287.25 94.57 287.7 93.15 288.55 91.92 289.23 90.61 289.99 89.34 290.87 88.15 291.69 86.92 292.72 85.85 293.6 84.65 294.7 83.65 295.79 82.65 296.98 81.76 298.04 80.72 299.34 79.98 300.55 79.14 301.84 78.39 303.13 77.65 304.54 77.18 305.89 76.57 307.27 76.01 308.73 75.73 310.14 75.27 311.59 74.97 313.07 74.8 314.54 74.59 316.02 74.48 317.5 74.52"/><polygon class="cls-10" points="318.25 108.75 318.14 107.29 318.05 105.82 317.92 104.36 317.81 102.89 317.64 101.43 317.52 99.97 317.39 98.51 317.3 97.04 317.19 95.57 317.1 94.11 316.93 92.65 316.81 91.18 316.73 89.71 316.59 88.25 316.48 86.78 316.39 85.31 316.22 83.85 316.11 82.38 316.05 80.91 315.89 79.45 315.82 77.97 315.65 76.51 315.56 75.04 315.45 73.57 315.27 72.1 315.22 70.63 316.62 70.56 318.06 70.52 319.49 70.54 320.92 70.62 322.35 70.75 323.78 70.89 325.2 71.11 326.61 71.4 327.99 71.77 329.38 72.12 330.74 72.61 332.07 73.12 333.42 73.62 334.73 74.22 336.01 74.87 337.26 75.57 338.5 76.3 339.68 77.11 340.89 77.88 342.03 78.75 343.14 79.66 344.17 80.67 345.22 81.64 346.23 82.66 347.18 83.74 348.08 84.86 348.97 85.98 349.81 87.14 348.62 87.99 347.38 88.78 346.16 89.6 344.95 90.43 343.74 91.26 342.56 92.14 341.32 92.93 340.12 93.78 338.9 94.6 337.71 95.47 336.46 96.24 335.26 97.1 334.05 97.93 332.82 98.73 331.61 99.57 330.41 100.42 329.19 101.23 327.97 102.06 326.78 102.92 325.55 103.73 324.35 104.58 323.11 105.39 321.9 106.24 320.67 107.05 319.48 107.93 318.25 108.75"/><polygon class="cls-9" points="134.93 276.94 133.52 277.11 132.05 277.09 130.57 276.93 129.1 276.9 127.62 276.97 126.14 276.99 124.67 277 123.19 277.02 121.71 277.05 120.23 276.92 118.75 277.04 117.28 276.92 115.8 276.93 114.32 277.04 112.84 276.94 111.37 276.94 109.89 276.89 108.41 277.05 106.93 276.89 105.45 277.06 103.97 277.01 102.5 277.02 101.02 276.9 99.54 276.89 98.06 277.1 96.58 276.89 95.1 277.04 93.63 276.94 92.15 276.9 90.67 277.08 89.19 277.04 87.72 277.05 86.24 277.1 84.77 277.06 83.29 276.96 81.81 277 80.33 276.97 78.85 276.89 77.38 277.08 75.9 276.97 74.42 277 72.94 277.07 71.46 277.08 69.98 276.9 68.5 276.97 67.03 276.9 65.54 277 64.06 277.06 62.58 277.01 61.1 276.94 59.62 276.93 58.14 277 56.66 277.1 55.18 276.97 53.69 277.06 52.21 276.89 50.73 276.95 49.25 276.98 47.77 276.99 46.29 277.02 44.8 277.04 43.32 276.93 41.83 277.11 40.34 276.91 38.79 277.08 38.59 275.56 38.2 274.15 37.95 272.71 37.45 271.32 37.17 269.89 36.92 268.45 36.61 267.02 36.14 265.63 35.88 264.19 35.55 262.77 35.08 261.38 34.92 259.91 34.53 258.5 34.21 257.07 33.85 255.66 33.48 254.25 33.05 252.84 32.74 251.41 32.46 249.98 32.22 248.53 31.77 247.13 31.41 245.72 31.08 244.29 30.89 242.84 30.53 241.42 30.15 240.02 29.77 238.61 29.46 237.18 29.16 235.75 28.79 234.33 28.4 232.92 28.17 231.48 27.69 230.09 27.5 228.64 27.06 227.24 26.66 225.83 26.48 224.37 25.99 222.98 25.78 221.53 25.34 220.13 25.09 218.68 24.71 217.27 24.34 215.85 24.09 214.4 23.73 212.98 23.31 211.58 23.02 210.14 22.73 208.7 22.28 207.3 22 205.87 21.7 204.43 21.46 202.98 21.04 201.58 20.63 200.17 20.27 198.74 19.96 197.31 19.77 195.84 19.32 194.44 19.01 193.01 20.48 192.99 21.95 193.01 23.43 193.07 24.9 192.99 26.38 192.99 27.86 193.01 29.33 192.98 30.81 192.96 32.29 193.01 33.77 193.08 35.25 193.07 36.72 193.06 38.2 192.99 39.68 193.09 41.16 192.96 42.63 193.04 44.11 192.97 45.59 193.03 47.07 193.01 48.55 193.03 50.02 192.97 51.5 192.96 52.98 192.95 54.46 193 55.94 193.08 57.42 192.93 58.9 193.09 60.38 193.03 61.85 192.93 63.33 193.05 64.81 193.03 66.28 193.09 67.76 192.98 69.23 192.92 70.71 193.08 72.19 192.9 73.67 192.94 75.15 193.08 76.63 193.01 78.1 192.9 79.58 193.02 81.06 192.89 82.54 193 84.02 193.01 85.5 193.08 86.97 192.98 88.46 193.07 89.94 192.99 91.42 192.98 92.9 193.01 94.38 192.99 95.86 193.1 97.34 193.07 98.82 192.95 100.31 192.93 101.79 192.89 103.27 192.89 104.75 193.1 106.23 192.98 107.71 192.93 109.2 193.02 110.68 192.89 112.17 193.11 113.66 192.95 115.12 193.03 115.43 194.44 115.84 195.84 116.23 197.25 116.46 198.7 116.92 200.09 117.21 201.52 117.5 202.95 117.72 204.4 118.26 205.78 118.6 207.2 118.84 208.64 119.21 210.06 119.41 211.51 119.96 212.89 120.27 214.31 120.43 215.78 120.92 217.16 121.14 218.61 121.48 220.04 121.76 221.47 122.26 222.86 122.64 224.27 122.95 225.7 123.19 227.15 123.52 228.56 123.89 229.97 124.29 231.38 124.55 232.82 124.9 234.24 125.3 235.64 125.65 237.06 125.98 238.49 126.15 239.95 126.55 241.35 126.83 242.79 127.25 244.19 127.5 245.64 127.88 247.05 128.16 248.49 128.65 249.88 129.04 251.29 129.17 252.76 129.49 254.19 130.03 255.57 130.38 256.99 130.7 258.42 130.85 259.89 131.26 261.3 131.52 262.74 131.88 264.16 132.26 265.57 132.7 266.98 133.01 268.41 133.2 269.87 133.6 271.29 134 272.7 134.34 274.13 134.74 275.55 134.93 276.94"/><polygon class="cls-8" points="74.3 230.79 74.58 232.3 74.67 233.84 74.54 235.37 74.25 236.87 73.73 238.32 72.96 239.65 71.95 240.8 70.7 241.69 69.28 242.23 67.75 242.37 66.25 242.12 64.83 241.55 63.56 240.68 62.45 239.63 61.5 238.43 60.73 237.1 60.15 235.68 59.68 234.21 59.41 232.7 59.34 231.16 59.45 229.63 59.76 228.13 60.28 226.68 61.05 225.36 62.06 224.21 63.28 223.29 64.72 222.77 66.25 222.63 67.75 222.88 69.17 223.45 70.43 224.33 71.56 225.37 72.48 226.59 73.26 227.91 73.88 229.31 74.3 230.79"/><polygon class="cls-11" points="130.93 276.94 129.52 277.11 128.05 277.09 126.57 276.93 125.1 276.9 123.62 276.97 122.14 276.99 120.67 277 119.19 277.02 117.71 277.05 116.23 276.92 114.75 277.04 113.28 276.92 111.8 276.93 110.32 277.04 108.84 276.94 107.37 276.94 105.89 276.89 104.41 277.05 102.93 276.89 101.45 277.06 99.97 277.01 98.5 277.02 97.02 276.9 95.54 276.89 94.06 277.1 92.58 276.89 91.1 277.04 89.63 276.94 88.15 276.9 86.67 277.08 85.19 277.04 83.72 277.05 82.24 277.1 80.77 277.06 79.29 276.96 77.81 277 76.33 276.97 74.85 276.89 73.38 277.08 71.9 276.97 70.42 277 68.94 277.07 67.46 277.08 65.98 276.9 64.5 276.97 63.02 276.9 61.54 277 60.06 277.06 58.58 277.01 57.1 276.94 55.62 276.93 54.14 277 52.66 277.1 51.18 276.97 49.69 277.06 48.21 276.89 46.73 276.95 45.25 276.98 43.77 276.99 42.29 277.02 40.8 277.04 39.32 276.93 37.83 277.11 36.34 276.91 34.79 277.08 34.59 275.56 34.2 274.15 33.95 272.71 33.45 271.32 33.17 269.89 32.92 268.45 32.61 267.02 32.14 265.63 31.88 264.19 31.55 262.77 31.08 261.38 30.92 259.91 30.53 258.5 30.21 257.07 29.85 255.66 29.48 254.25 29.05 252.84 28.74 251.41 28.46 249.98 28.22 248.53 27.77 247.13 27.41 245.72 27.08 244.29 26.89 242.84 26.53 241.42 26.15 240.02 25.77 238.61 25.46 237.18 25.16 235.75 24.79 234.33 24.4 232.92 24.17 231.48 23.69 230.09 23.5 228.64 23.06 227.24 22.66 225.83 22.48 224.37 21.99 222.98 21.78 221.53 21.34 220.13 21.09 218.68 20.71 217.27 20.34 215.85 20.09 214.4 19.73 212.98 19.31 211.58 19.02 210.14 18.73 208.7 18.28 207.3 18 205.87 17.7 204.43 17.46 202.98 17.04 201.58 16.63 200.17 16.27 198.74 15.96 197.31 15.78 195.84 15.32 194.44 15.01 193.01 16.48 192.99 17.95 193.01 19.43 193.07 20.9 192.99 22.38 192.99 23.86 193.01 25.33 192.98 26.81 192.96 28.29 193.01 29.77 193.08 31.25 193.07 32.72 193.06 34.2 192.99 35.68 193.09 37.16 192.96 38.63 193.04 40.11 192.97 41.59 193.03 43.07 193.01 44.55 193.03 46.02 192.97 47.5 192.96 48.98 192.95 50.46 193 51.94 193.08 53.42 192.93 54.9 193.09 56.38 193.03 57.85 192.93 59.33 193.05 60.81 193.03 62.28 193.09 63.76 192.98 65.23 192.92 66.71 193.08 68.19 192.9 69.67 192.94 71.15 193.08 72.63 193.01 74.1 192.9 75.58 193.02 77.06 192.89 78.54 193 80.02 193.01 81.5 193.08 82.97 192.98 84.46 193.07 85.94 192.99 87.42 192.98 88.9 193.01 90.38 192.99 91.86 193.1 93.34 193.07 94.82 192.95 96.31 192.93 97.79 192.89 99.27 192.89 100.75 193.1 102.23 192.98 103.71 192.93 105.2 193.02 106.68 192.89 108.17 193.11 109.66 192.95 111.12 193.03 111.43 194.44 111.84 195.84 112.23 197.25 112.46 198.7 112.92 200.09 113.21 201.52 113.5 202.95 113.72 204.4 114.26 205.78 114.6 207.2 114.84 208.64 115.21 210.06 115.41 211.51 115.96 212.89 116.27 214.31 116.43 215.78 116.92 217.16 117.14 218.61 117.48 220.04 117.76 221.47 118.26 222.86 118.64 224.27 118.95 225.7 119.19 227.15 119.52 228.56 119.89 229.97 120.29 231.38 120.55 232.82 120.9 234.24 121.3 235.64 121.65 237.06 121.98 238.49 122.15 239.95 122.55 241.35 122.83 242.79 123.25 244.19 123.5 245.64 123.88 247.05 124.16 248.49 124.65 249.88 125.04 251.29 125.17 252.76 125.49 254.19 126.03 255.57 126.39 256.99 126.7 258.42 126.85 259.89 127.26 261.3 127.52 262.74 127.89 264.16 128.26 265.57 128.7 266.98 129.01 268.41 129.2 269.87 129.6 271.29 130 272.7 130.34 274.13 130.74 275.55 130.93 276.94"/><path class="cls-12" d="M13.5,277.62c.49,0,.49.16,1,.16s.49,0,1,0,.49.12,1,.12.49-.34,1-.34.49,0,1,0,.49-.4,1-.4.49.35,1,.35.49.32,1,.32.49,0,1,0,.49-.51,1-.51.49,0,1,0,.49.12,1,.12.49,0,1,0,.49.26,1,.26.49-.34,1-.34.49.39,1,.39.49-.17,1-.17.49,0,1,0,.49-.16,1-.16.49.45,1,.45.49-.37,1-.37.49.26,1,.26.49.14,1,.14.49-.09,1-.09.49-.06,1-.06.49-.46,1-.46.49.34,1,.34.49-.15,1-.15.49,0,1,0,.49-.26,1-.26.49.3,1,.3.49-.14,1-.14.49.31,1,.31.49-.57,1-.57.49.72,1,.72.49-.53,1-.53.49-.09,1-.09.49,0,1,0,.49.16,1,.16.49,0,1,0,.49.1,1,.1.49,0,1,0,.49-.19,1-.19.49,0,1,0,.49,0,1,0,.49.07,1,.07.49.16,1,.16.49-.14,1-.14.49-.27,1-.27.49.47,1,.47.49-.32,1-.32.49-.3,1-.3.49.42,1,.42.49.23,1,.23.49-.24,1-.24.49.2,1,.2.49-.55,1-.55.49.11,1,.11.49-.11,1-.11h1c.49,0,.49.61,1,.61s.49-.52,1-.52.49.07,1,.07.49.42,1,.42.49-.08,1-.08.49-.08,1-.08.49-.4,1-.4.49,0,1,0,.49.37,1,.37.49-.18,1-.18.49.23,1,.23.49-.47,1-.47.49.1,1,.1.49.26,1,.26.49,0,1,0,.49-.3,1-.3.49,0,1,0,.49-.09,1-.09l1,0c.49,0,.49-.09,1-.09l1,0c.49,0,.49.65,1,.65s.49,0,1,0,.49-.17,1-.17.49-.27,1-.27.49.14,1,.14.49,0,1,0,.49.24,1,.24.49.17,1,.17.49-.18,1-.18.49-.47,1-.47.49.61,1,.61.49-.29,1-.29l1,0c.49,0,.49.24,1,.24s.49,0,1,0,.49-.17,1-.17h1c.49,0,.49.25,1,.25s.49-.12,1-.12.49-.39,1-.39.49.12,1,.12h1c.49,0,.49-.27,1-.27s.49.16,1,.16.49.25,1,.25h1c.49,0,.49-.44,1-.44s.49.19,1,.19.49.54,1,.54.49-.64,1-.64.49.58,1,.58.49-.5,1-.5.49-.07,1-.07.49.3,1,.3.49,0,1,0,.49-.32,1-.32.49.39,1,.39.49,0,1,0,.49-.07,1-.07.49.29,1,.29.49-.42,1-.42.49-.08,1-.08.49.24,1,.24.49,0,1,0,.49-.17,1-.17l1,0c.49,0,.49-.26,1-.26s.49.58,1,.58.49-.14,1-.14.49-.08,1-.08.49.21,1,.21h1c.49,0,.49-.11,1-.11s.49.16,1,.16.49-.54,1-.54.49.19,1,.19.49.21,1,.21.49.19,1,.19.49-.63,1-.63.49.4,1,.4.49-.17,1-.17.49.26,1,.26.49-.22,1-.22.49-.28,1-.28.49,0,1,0,.49,0,1,0,.49,0,1,0,.49-.1,1-.1h1c.49,0,.49.53,1,.53h1c.49,0,.49,0,1,0s.49-.39,1-.39.49,0,1,0,.49.56,1,.56.49,0,1,0,.49-.08,1-.08.49-.13,1-.13.49-.46,1-.46.49.2,1,.2.49.48,1,.48.49-.7,1-.7.49.63,1,.63.49-.1,1-.1.49-.32,1-.32.49.3,1,.3.49-.13,1-.13.49-.17,1-.17.49.41,1,.41.49-.62,1-.62.49.45,1,.45.49-.49,1-.49.49.23,1,.23.49,0,1,0,.49,0,1,0,.49.41,1,.41.49-.22,1-.22.49-.28,1-.28.49.15,1,.15.49-.25,1-.25.49.32,1,.32.49.17,1,.17.49-.26,1-.26.49-.21,1-.21.49.26,1,.26.49-.21,1-.21.49.34,1,.34.49-.3,1-.3.49.52,1,.52.49,0,1,0l1,0c.49,0,.49-.59,1-.59h1c.49,0,.49.29,1,.29s.49.11,1,.11.49-.36,1-.36.49.14,1,.14.49-.21,1-.21.49-.06,1-.06.48.69,1,.69.48-.25,1-.25.48-.23,1-.23.48.53,1,.53.48-.18,1-.18.48-.2,1-.2.48.21,1,.21h1c.48,0,.48-.44,1-.44s.48.31,1,.31.48-.37,1-.37.48.44,1,.44.49-.23,1-.23.49-.2,1-.2.49.4,1,.4.49.1,1,.1.49.13,1,.13.49-.29,1-.29.49-.06,1-.06.49,0,1,0,.49,0,1,0,.49-.29,1-.29.49.16,1,.16.49.44,1,.44.49-.58,1-.58.49.36,1,.36.49,0,1,0,.49,0,1,0h1c.49,0,.49-.23,1-.23s.49-.06,1-.06.49.28,1,.28.49-.42,1-.42.49.18,1,.18.49.31,1,.31.49-.37,1-.37.49.38,1,.38.49-.33,1-.33.49-.21,1-.21.49.27,1,.27.49.1,1,.1.49-.12,1-.12.49-.26,1-.26.49.41,1,.41.49.25,1,.25.49,0,1,0,.49-.59,1-.59.49.58,1,.58.49-.48,1-.48.49,0,1,0,.49,0,1,0,.49.62,1,.62.49-.42,1-.42.49.19,1,.19.49.1,1,.1.49.14,1,.14.49-.34,1-.34.49-.15,1-.15.49-.1,1-.1.49.12,1,.12.49,0,1,0,.49.16,1,.16.49.28,1,.28.49-.7,1-.7.49.54,1,.54.49.05,1,.05.49-.34,1-.34.49.11,1,.11.49,0,1,0,.49.33,1,.33.49-.27,1-.27.49-.18,1-.18.49.19,1,.19.49-.17,1-.17.49-.22,1-.22.49.39,1,.39.49-.32,1-.32.49.24,1,.24.49.33,1,.33.49,0,1,0h1c.49,0,.49-.57,1-.57s.49-.09,1-.09.49.62,1,.62.49-.45,1-.45.49.25,1,.25.49-.17,1-.17.49.06,1,.06h1c.49,0,.49-.14,1-.14s.49.17,1,.17.49-.16,1-.16.49-.07,1-.07l1,0c.49,0,.49.07,1,.07s.49,0,1,0,.49-.15,1-.15h1c.49,0,.49-.07,1-.07s.49.72,1,.72h1c.49,0,.49-.63,1-.63s.49,0,1,0h1c.49,0,.49,0,1,0s.49.09,1,.09.49-.07,1-.07.49.07,1,.07.49,0,1,0,.49.07,1,.07.49,0,1,0,.49.38,1,.38.49-.44,1-.44.49.27,1,.27.49.23,1,.23.49-.14,1-.14.49.16,1,.16.49-.25,1-.25.49-.09,1-.09.49-.27,1-.27.49.09,1,.09.49.38,1,.38.49.16,1,.16l1,0c.49,0,.49-.34,1-.34s.49.27,1,.27.49-.22,1-.22.49-.42,1-.42.49.21,1,.21.49.06,1,.06l1,0c.49,0,.49.27,1,.27s.49-.52,1-.52.49.45,1,.45.49.14,1,.14h1.94c.49,0,.49,0,1,0s.49.07,1,.07.49,0,1,0h1c.49,0,.49-.21,1-.21s.49-.39,1-.39.49.69,1,.69.49-.34,1-.34.49.3,1,.3.49-.35,1-.35.49-.18,1-.18.49.59,1,.59.49-.57,1-.57.49.59,1,.59.49-.47,1-.47h2c.49,0,.49.36,1,.36h1c.49,0,.49-.36,1-.36s.49-.11,1-.11.49.34,1,.34.49-.32,1-.32.49.34,1,.34.49-.43,1-.43.49.61,1,.61.49-.08,1-.08.49,0,1,0,.49-.14,1-.14.49-.36,1-.36.49-.11,1-.11.49.63,1,.63.49-.47,1-.47.49-.16,1-.16.49.72,1,.72.49-.53,1-.53.49-.19,1-.19.49.59,1,.59.49.09,1,.09.49,0,1,0,.49-.31,1-.31.49.31,1,.31.49-.16,1-.16.49-.26,1-.26.49.09,1,.09.49.37,1,.37"/></svg>
